M48
;GenerationSoftware,Autodesk,EAGLE,9.5.0*%
;CreationDate,2019-09-23T19:03:20Z*%
FMAT,2
ICI,OFF
METRIC,TZ,000.000
T3C0.813
T2C1.850
T1C2.930
%
G90
M71
T1
X79860Y22170
X108860Y22170
T2
X86360Y26670
X90360Y26670
X94360Y26670
X98360Y26670
X102360Y26670
X88360Y22670
X92360Y22670
X96360Y22670
X100360Y22670
X86360Y18670
X90360Y18670
X94360Y18670
X98360Y18670
X102360Y18670
T3
X73660Y57150
X73660Y59690
X81280Y57150
X81280Y59690
M30