G04 EAGLE Gerber RS-274X export*
G75*
%MOMM*%
%FSLAX34Y34*%
%LPD*%
%INBottom Copper*%
%IPPOS*%
%AMOC8*
5,1,8,0,0,1.08239X$1,22.5*%
G01*
%ADD10C,1.600200*%
%ADD11P,1.732040X8X292.500000*%
%ADD12C,1.650000*%
%ADD13C,1.508000*%
%ADD14C,0.856400*%
%ADD15C,0.756400*%
%ADD16C,0.508000*%
%ADD17C,1.500000*%
%ADD18C,1.300000*%
%ADD19C,0.500000*%
%ADD20C,0.806400*%

G36*
X329572Y10173D02*
X329572Y10173D01*
X329768Y10176D01*
X329889Y10193D01*
X330012Y10201D01*
X330205Y10237D01*
X330399Y10265D01*
X330517Y10297D01*
X330638Y10320D01*
X330824Y10380D01*
X331013Y10432D01*
X331127Y10479D01*
X331244Y10517D01*
X331421Y10600D01*
X331602Y10675D01*
X331709Y10735D01*
X331821Y10788D01*
X331986Y10893D01*
X332156Y10989D01*
X332255Y11063D01*
X332359Y11129D01*
X332510Y11253D01*
X332667Y11371D01*
X332755Y11456D01*
X332850Y11534D01*
X332984Y11677D01*
X333125Y11813D01*
X333202Y11909D01*
X333287Y11998D01*
X333402Y12157D01*
X333525Y12309D01*
X333589Y12414D01*
X333662Y12513D01*
X333756Y12685D01*
X333859Y12852D01*
X333910Y12964D01*
X333969Y13071D01*
X334042Y13254D01*
X334123Y13432D01*
X334159Y13549D01*
X334205Y13664D01*
X334254Y13853D01*
X334312Y14040D01*
X334333Y14161D01*
X334364Y14280D01*
X334389Y14475D01*
X334423Y14668D01*
X334429Y14790D01*
X334445Y14912D01*
X334445Y15109D01*
X334455Y15304D01*
X334446Y15426D01*
X334446Y15550D01*
X334422Y15744D01*
X334407Y15939D01*
X334383Y16060D01*
X334367Y16182D01*
X334319Y16372D01*
X334280Y16564D01*
X334241Y16677D01*
X334210Y16799D01*
X334132Y16997D01*
X334069Y17184D01*
X332169Y21770D01*
X332169Y29790D01*
X334964Y36536D01*
X334987Y36605D01*
X335017Y36672D01*
X335090Y36906D01*
X335170Y37139D01*
X335185Y37211D01*
X335206Y37280D01*
X335249Y37522D01*
X335299Y37763D01*
X335305Y37836D01*
X335318Y37908D01*
X335330Y38153D01*
X335350Y38398D01*
X335346Y38471D01*
X335350Y38544D01*
X335331Y38789D01*
X335320Y39034D01*
X335307Y39106D01*
X335302Y39179D01*
X335253Y39420D01*
X335211Y39662D01*
X335189Y39732D01*
X335175Y39804D01*
X335100Y40022D01*
X335024Y40271D01*
X334989Y40348D01*
X334964Y40424D01*
X332169Y47170D01*
X332169Y55190D01*
X334964Y61936D01*
X334987Y62005D01*
X335017Y62072D01*
X335090Y62306D01*
X335170Y62539D01*
X335185Y62611D01*
X335206Y62680D01*
X335249Y62922D01*
X335299Y63163D01*
X335305Y63236D01*
X335318Y63308D01*
X335330Y63553D01*
X335350Y63798D01*
X335346Y63871D01*
X335350Y63944D01*
X335331Y64189D01*
X335320Y64434D01*
X335307Y64506D01*
X335302Y64579D01*
X335253Y64820D01*
X335211Y65062D01*
X335189Y65132D01*
X335175Y65204D01*
X335100Y65422D01*
X335024Y65671D01*
X334989Y65748D01*
X334964Y65824D01*
X332169Y72570D01*
X332169Y80590D01*
X335239Y88000D01*
X340910Y93671D01*
X348320Y96741D01*
X356340Y96741D01*
X363086Y93946D01*
X363155Y93923D01*
X363222Y93893D01*
X363456Y93820D01*
X363689Y93740D01*
X363761Y93725D01*
X363830Y93704D01*
X364072Y93661D01*
X364313Y93611D01*
X364386Y93605D01*
X364458Y93592D01*
X364703Y93580D01*
X364948Y93560D01*
X365021Y93564D01*
X365094Y93560D01*
X365339Y93579D01*
X365584Y93590D01*
X365656Y93603D01*
X365729Y93608D01*
X365970Y93657D01*
X366212Y93699D01*
X366282Y93721D01*
X366353Y93735D01*
X366572Y93810D01*
X366821Y93886D01*
X366898Y93921D01*
X366974Y93946D01*
X373720Y96741D01*
X381740Y96741D01*
X389150Y93671D01*
X394821Y88000D01*
X397891Y80590D01*
X397891Y72570D01*
X395096Y65824D01*
X395073Y65755D01*
X395043Y65688D01*
X394970Y65454D01*
X394890Y65221D01*
X394875Y65149D01*
X394854Y65080D01*
X394811Y64838D01*
X394761Y64597D01*
X394755Y64524D01*
X394742Y64452D01*
X394730Y64207D01*
X394710Y63962D01*
X394714Y63889D01*
X394710Y63816D01*
X394729Y63571D01*
X394740Y63326D01*
X394753Y63254D01*
X394758Y63181D01*
X394807Y62940D01*
X394849Y62698D01*
X394871Y62628D01*
X394885Y62557D01*
X394960Y62338D01*
X395036Y62089D01*
X395071Y62012D01*
X395096Y61936D01*
X397891Y55190D01*
X397891Y47170D01*
X395096Y40424D01*
X395073Y40355D01*
X395043Y40288D01*
X394970Y40054D01*
X394890Y39821D01*
X394875Y39749D01*
X394854Y39680D01*
X394811Y39438D01*
X394761Y39197D01*
X394755Y39124D01*
X394742Y39052D01*
X394730Y38807D01*
X394710Y38562D01*
X394714Y38489D01*
X394710Y38416D01*
X394729Y38171D01*
X394740Y37926D01*
X394753Y37854D01*
X394758Y37781D01*
X394807Y37540D01*
X394849Y37298D01*
X394871Y37228D01*
X394885Y37157D01*
X394960Y36938D01*
X395036Y36689D01*
X395071Y36612D01*
X395096Y36536D01*
X397891Y29790D01*
X397891Y21770D01*
X395991Y17184D01*
X395928Y16999D01*
X395855Y16816D01*
X395825Y16697D01*
X395785Y16581D01*
X395745Y16389D01*
X395696Y16200D01*
X395680Y16078D01*
X395655Y15957D01*
X395640Y15762D01*
X395615Y15568D01*
X395615Y15445D01*
X395605Y15322D01*
X395614Y15126D01*
X395614Y14930D01*
X395629Y14808D01*
X395635Y14686D01*
X395668Y14493D01*
X395693Y14298D01*
X395723Y14179D01*
X395744Y14058D01*
X395801Y13871D01*
X395850Y13681D01*
X395895Y13566D01*
X395931Y13449D01*
X396011Y13270D01*
X396083Y13088D01*
X396142Y12980D01*
X396192Y12868D01*
X396294Y12701D01*
X396389Y12529D01*
X396461Y12429D01*
X396525Y12324D01*
X396647Y12171D01*
X396762Y12012D01*
X396846Y11923D01*
X396923Y11826D01*
X397063Y11690D01*
X397197Y11547D01*
X397291Y11468D01*
X397379Y11382D01*
X397536Y11264D01*
X397686Y11139D01*
X397790Y11073D01*
X397888Y10999D01*
X398059Y10902D01*
X398223Y10796D01*
X398334Y10744D01*
X398441Y10683D01*
X398622Y10607D01*
X398799Y10523D01*
X398916Y10485D01*
X399030Y10438D01*
X399219Y10386D01*
X399404Y10324D01*
X399525Y10301D01*
X399644Y10268D01*
X399838Y10240D01*
X400030Y10203D01*
X400150Y10195D01*
X400274Y10177D01*
X400487Y10173D01*
X400684Y10161D01*
X544760Y10161D01*
X544915Y10170D01*
X545070Y10170D01*
X545232Y10190D01*
X545396Y10201D01*
X545548Y10230D01*
X545702Y10249D01*
X545861Y10289D01*
X546022Y10320D01*
X546169Y10368D01*
X546319Y10406D01*
X546472Y10466D01*
X546628Y10517D01*
X546768Y10582D01*
X546912Y10639D01*
X547056Y10718D01*
X547204Y10788D01*
X547335Y10870D01*
X547471Y10945D01*
X547604Y11041D01*
X547743Y11129D01*
X547862Y11227D01*
X547988Y11318D01*
X548107Y11430D01*
X548234Y11534D01*
X548340Y11647D01*
X548453Y11753D01*
X548558Y11879D01*
X548670Y11998D01*
X548762Y12124D01*
X548861Y12243D01*
X548949Y12381D01*
X549045Y12513D01*
X549120Y12649D01*
X549204Y12780D01*
X549274Y12928D01*
X549353Y13071D01*
X549410Y13215D01*
X549477Y13355D01*
X549528Y13511D01*
X549588Y13664D01*
X549627Y13814D01*
X549676Y13961D01*
X549707Y14122D01*
X549748Y14280D01*
X549767Y14434D01*
X549797Y14586D01*
X549807Y14745D01*
X549829Y14912D01*
X549829Y15081D01*
X549839Y15240D01*
X549839Y499166D01*
X549824Y499402D01*
X549817Y499639D01*
X549804Y499720D01*
X549799Y499802D01*
X549755Y500034D01*
X549718Y500268D01*
X549695Y500347D01*
X549680Y500428D01*
X549607Y500653D01*
X549541Y500880D01*
X549509Y500955D01*
X549483Y501034D01*
X549383Y501248D01*
X549289Y501465D01*
X549247Y501536D01*
X549212Y501610D01*
X549086Y501810D01*
X548965Y502014D01*
X548915Y502079D01*
X548871Y502148D01*
X548720Y502331D01*
X548576Y502518D01*
X548518Y502576D01*
X548466Y502640D01*
X548293Y502802D01*
X548126Y502970D01*
X548061Y503020D01*
X548002Y503076D01*
X547810Y503215D01*
X547623Y503361D01*
X547553Y503403D01*
X547487Y503451D01*
X547279Y503565D01*
X547076Y503687D01*
X547000Y503719D01*
X546929Y503759D01*
X546709Y503846D01*
X546491Y503941D01*
X546413Y503964D01*
X546336Y503994D01*
X546107Y504053D01*
X545880Y504120D01*
X545799Y504133D01*
X545720Y504154D01*
X545485Y504184D01*
X545251Y504221D01*
X545169Y504224D01*
X545088Y504234D01*
X544851Y504235D01*
X544614Y504243D01*
X544533Y504235D01*
X544450Y504236D01*
X544215Y504206D01*
X543980Y504185D01*
X543900Y504167D01*
X543818Y504157D01*
X543589Y504099D01*
X543358Y504048D01*
X543280Y504020D01*
X543201Y504000D01*
X542980Y503913D01*
X542757Y503834D01*
X542684Y503797D01*
X542608Y503767D01*
X542400Y503653D01*
X542189Y503546D01*
X542121Y503500D01*
X542049Y503461D01*
X541857Y503322D01*
X541661Y503190D01*
X541600Y503137D01*
X541532Y503088D01*
X541342Y502910D01*
X541168Y502757D01*
X536677Y498266D01*
X530484Y494690D01*
X523576Y492839D01*
X516424Y492839D01*
X509516Y494690D01*
X503323Y498266D01*
X498266Y503323D01*
X494690Y509516D01*
X492839Y516424D01*
X492839Y523576D01*
X494690Y530484D01*
X498266Y536677D01*
X502757Y541168D01*
X502914Y541346D01*
X503076Y541518D01*
X503125Y541585D01*
X503179Y541646D01*
X503312Y541842D01*
X503451Y542034D01*
X503491Y542105D01*
X503537Y542173D01*
X503645Y542384D01*
X503759Y542591D01*
X503789Y542668D01*
X503826Y542741D01*
X503907Y542963D01*
X503994Y543184D01*
X504015Y543263D01*
X504043Y543340D01*
X504094Y543571D01*
X504154Y543800D01*
X504164Y543882D01*
X504182Y543962D01*
X504204Y544197D01*
X504234Y544432D01*
X504235Y544515D01*
X504242Y544596D01*
X504235Y544832D01*
X504236Y545070D01*
X504225Y545151D01*
X504223Y545233D01*
X504186Y545467D01*
X504157Y545702D01*
X504137Y545781D01*
X504124Y545862D01*
X504058Y546090D01*
X504000Y546319D01*
X503970Y546395D01*
X503947Y546474D01*
X503853Y546692D01*
X503767Y546912D01*
X503727Y546984D01*
X503695Y547059D01*
X503575Y547263D01*
X503461Y547471D01*
X503413Y547538D01*
X503371Y547608D01*
X503227Y547796D01*
X503088Y547988D01*
X503032Y548048D01*
X502982Y548112D01*
X502814Y548280D01*
X502653Y548453D01*
X502590Y548506D01*
X502532Y548564D01*
X502345Y548709D01*
X502163Y548861D01*
X502094Y548905D01*
X502029Y548955D01*
X501826Y549076D01*
X501626Y549204D01*
X501552Y549239D01*
X501481Y549281D01*
X501265Y549375D01*
X501050Y549477D01*
X500972Y549502D01*
X500897Y549535D01*
X500670Y549602D01*
X500445Y549676D01*
X500365Y549691D01*
X500286Y549714D01*
X500052Y549752D01*
X499820Y549797D01*
X499739Y549802D01*
X499657Y549815D01*
X499397Y549824D01*
X499166Y549839D01*
X60834Y549839D01*
X60598Y549824D01*
X60361Y549817D01*
X60280Y549804D01*
X60198Y549799D01*
X59966Y549755D01*
X59732Y549718D01*
X59653Y549695D01*
X59572Y549680D01*
X59347Y549607D01*
X59120Y549541D01*
X59045Y549509D01*
X58966Y549483D01*
X58752Y549383D01*
X58535Y549289D01*
X58464Y549247D01*
X58390Y549212D01*
X58190Y549086D01*
X57986Y548965D01*
X57921Y548915D01*
X57852Y548871D01*
X57669Y548720D01*
X57482Y548576D01*
X57424Y548518D01*
X57360Y548466D01*
X57198Y548293D01*
X57030Y548126D01*
X56980Y548061D01*
X56924Y548002D01*
X56785Y547810D01*
X56639Y547623D01*
X56597Y547553D01*
X56549Y547487D01*
X56435Y547279D01*
X56313Y547076D01*
X56281Y547000D01*
X56241Y546929D01*
X56154Y546709D01*
X56059Y546491D01*
X56036Y546413D01*
X56006Y546336D01*
X55947Y546107D01*
X55880Y545880D01*
X55867Y545799D01*
X55846Y545720D01*
X55816Y545485D01*
X55779Y545251D01*
X55776Y545169D01*
X55766Y545088D01*
X55765Y544851D01*
X55757Y544614D01*
X55765Y544533D01*
X55764Y544450D01*
X55794Y544215D01*
X55815Y543980D01*
X55833Y543900D01*
X55843Y543818D01*
X55901Y543589D01*
X55952Y543358D01*
X55980Y543280D01*
X56000Y543201D01*
X56087Y542980D01*
X56166Y542757D01*
X56203Y542684D01*
X56233Y542608D01*
X56347Y542400D01*
X56454Y542189D01*
X56500Y542121D01*
X56539Y542049D01*
X56678Y541857D01*
X56810Y541661D01*
X56863Y541600D01*
X56912Y541532D01*
X57090Y541342D01*
X57243Y541168D01*
X61734Y536677D01*
X65310Y530484D01*
X67161Y523576D01*
X67161Y516424D01*
X65310Y509516D01*
X61734Y503323D01*
X56677Y498266D01*
X50484Y494690D01*
X43576Y492839D01*
X36424Y492839D01*
X29516Y494690D01*
X23323Y498266D01*
X18832Y502757D01*
X18654Y502914D01*
X18482Y503076D01*
X18415Y503125D01*
X18354Y503179D01*
X18158Y503312D01*
X17966Y503451D01*
X17895Y503491D01*
X17827Y503537D01*
X17616Y503645D01*
X17409Y503759D01*
X17332Y503789D01*
X17259Y503826D01*
X17037Y503907D01*
X16816Y503994D01*
X16737Y504015D01*
X16660Y504043D01*
X16429Y504094D01*
X16200Y504154D01*
X16118Y504164D01*
X16038Y504182D01*
X15803Y504204D01*
X15568Y504234D01*
X15485Y504235D01*
X15404Y504242D01*
X15168Y504235D01*
X14930Y504236D01*
X14849Y504225D01*
X14767Y504223D01*
X14533Y504186D01*
X14298Y504157D01*
X14219Y504137D01*
X14138Y504124D01*
X13910Y504058D01*
X13681Y504000D01*
X13605Y503970D01*
X13526Y503947D01*
X13308Y503853D01*
X13088Y503767D01*
X13016Y503727D01*
X12941Y503695D01*
X12737Y503575D01*
X12529Y503461D01*
X12462Y503413D01*
X12392Y503371D01*
X12204Y503227D01*
X12012Y503088D01*
X11952Y503032D01*
X11888Y502982D01*
X11720Y502814D01*
X11547Y502653D01*
X11494Y502590D01*
X11436Y502532D01*
X11291Y502345D01*
X11139Y502163D01*
X11095Y502094D01*
X11045Y502029D01*
X10924Y501826D01*
X10796Y501626D01*
X10761Y501552D01*
X10719Y501481D01*
X10625Y501265D01*
X10523Y501050D01*
X10498Y500972D01*
X10465Y500897D01*
X10398Y500670D01*
X10324Y500445D01*
X10309Y500365D01*
X10286Y500286D01*
X10248Y500052D01*
X10203Y499820D01*
X10198Y499739D01*
X10185Y499657D01*
X10176Y499397D01*
X10161Y499166D01*
X10161Y60834D01*
X10170Y60683D01*
X10170Y60644D01*
X10175Y60602D01*
X10176Y60597D01*
X10183Y60361D01*
X10196Y60280D01*
X10201Y60198D01*
X10245Y59966D01*
X10282Y59732D01*
X10305Y59653D01*
X10320Y59572D01*
X10393Y59347D01*
X10459Y59120D01*
X10491Y59045D01*
X10517Y58966D01*
X10617Y58752D01*
X10711Y58535D01*
X10753Y58464D01*
X10788Y58390D01*
X10914Y58190D01*
X11035Y57986D01*
X11085Y57921D01*
X11129Y57852D01*
X11280Y57669D01*
X11424Y57482D01*
X11482Y57424D01*
X11534Y57360D01*
X11707Y57198D01*
X11874Y57030D01*
X11939Y56980D01*
X11998Y56924D01*
X12190Y56785D01*
X12377Y56639D01*
X12447Y56597D01*
X12513Y56549D01*
X12721Y56435D01*
X12924Y56313D01*
X13000Y56281D01*
X13071Y56241D01*
X13291Y56154D01*
X13509Y56059D01*
X13587Y56036D01*
X13664Y56006D01*
X13893Y55947D01*
X14120Y55880D01*
X14201Y55867D01*
X14280Y55846D01*
X14515Y55816D01*
X14749Y55779D01*
X14831Y55776D01*
X14912Y55766D01*
X15149Y55765D01*
X15386Y55757D01*
X15467Y55765D01*
X15550Y55764D01*
X15785Y55794D01*
X16020Y55815D01*
X16100Y55833D01*
X16182Y55843D01*
X16411Y55901D01*
X16642Y55952D01*
X16720Y55980D01*
X16799Y56000D01*
X17020Y56087D01*
X17243Y56166D01*
X17316Y56203D01*
X17392Y56233D01*
X17600Y56347D01*
X17811Y56454D01*
X17879Y56500D01*
X17951Y56539D01*
X18143Y56678D01*
X18339Y56810D01*
X18400Y56863D01*
X18468Y56912D01*
X18658Y57090D01*
X18832Y57243D01*
X23323Y61734D01*
X29516Y65310D01*
X36424Y67161D01*
X43576Y67161D01*
X50484Y65310D01*
X56677Y61734D01*
X61734Y56677D01*
X65310Y50484D01*
X67161Y43576D01*
X67161Y36424D01*
X65310Y29516D01*
X61734Y23323D01*
X57243Y18832D01*
X57086Y18654D01*
X56924Y18482D01*
X56875Y18415D01*
X56821Y18354D01*
X56688Y18158D01*
X56549Y17966D01*
X56509Y17895D01*
X56463Y17827D01*
X56355Y17616D01*
X56241Y17409D01*
X56211Y17332D01*
X56174Y17259D01*
X56093Y17037D01*
X56006Y16816D01*
X55985Y16737D01*
X55957Y16660D01*
X55906Y16429D01*
X55846Y16200D01*
X55836Y16118D01*
X55818Y16038D01*
X55796Y15803D01*
X55766Y15568D01*
X55765Y15485D01*
X55758Y15404D01*
X55765Y15168D01*
X55764Y14930D01*
X55775Y14849D01*
X55777Y14767D01*
X55814Y14533D01*
X55843Y14298D01*
X55863Y14219D01*
X55876Y14138D01*
X55942Y13910D01*
X56000Y13681D01*
X56030Y13605D01*
X56053Y13526D01*
X56147Y13308D01*
X56233Y13088D01*
X56273Y13016D01*
X56305Y12941D01*
X56425Y12737D01*
X56539Y12529D01*
X56587Y12462D01*
X56629Y12392D01*
X56773Y12204D01*
X56912Y12012D01*
X56968Y11952D01*
X57018Y11888D01*
X57186Y11720D01*
X57347Y11547D01*
X57410Y11494D01*
X57468Y11436D01*
X57655Y11291D01*
X57837Y11139D01*
X57906Y11095D01*
X57971Y11045D01*
X58174Y10924D01*
X58374Y10796D01*
X58448Y10761D01*
X58519Y10719D01*
X58735Y10625D01*
X58950Y10523D01*
X59028Y10498D01*
X59103Y10465D01*
X59330Y10398D01*
X59555Y10324D01*
X59635Y10309D01*
X59714Y10286D01*
X59948Y10248D01*
X60180Y10203D01*
X60261Y10198D01*
X60343Y10185D01*
X60603Y10176D01*
X60834Y10161D01*
X329376Y10161D01*
X329572Y10173D01*
G37*
%LPC*%
G36*
X503845Y89193D02*
X503845Y89193D01*
X501279Y90256D01*
X501271Y90260D01*
X501209Y90300D01*
X500987Y90405D01*
X500768Y90517D01*
X500699Y90541D01*
X500633Y90573D01*
X500400Y90649D01*
X500169Y90733D01*
X500098Y90749D01*
X500028Y90772D01*
X499787Y90818D01*
X499547Y90872D01*
X499474Y90879D01*
X499403Y90893D01*
X499171Y90908D01*
X498913Y90933D01*
X498829Y90930D01*
X498749Y90935D01*
X487638Y90935D01*
X486144Y91554D01*
X371554Y206144D01*
X370935Y207638D01*
X370935Y209743D01*
X370949Y209960D01*
X370975Y210280D01*
X370973Y210322D01*
X370975Y210362D01*
X370975Y378455D01*
X370971Y378528D01*
X370973Y378601D01*
X370951Y378846D01*
X370935Y379091D01*
X370922Y379163D01*
X370915Y379236D01*
X370862Y379476D01*
X370816Y379717D01*
X370794Y379786D01*
X370778Y379858D01*
X370695Y380089D01*
X370619Y380323D01*
X370588Y380389D01*
X370564Y380458D01*
X370453Y380677D01*
X370348Y380900D01*
X370309Y380961D01*
X370276Y381027D01*
X370139Y381230D01*
X370007Y381438D01*
X369961Y381494D01*
X369920Y381555D01*
X369767Y381729D01*
X369602Y381929D01*
X369541Y381986D01*
X369488Y382047D01*
X365162Y386373D01*
X365015Y386502D01*
X364874Y386639D01*
X364776Y386713D01*
X364684Y386794D01*
X364522Y386904D01*
X364365Y387022D01*
X364259Y387083D01*
X364157Y387152D01*
X363982Y387242D01*
X363812Y387339D01*
X363699Y387386D01*
X363589Y387442D01*
X363405Y387508D01*
X363224Y387584D01*
X363106Y387616D01*
X362990Y387658D01*
X362799Y387701D01*
X362610Y387753D01*
X362489Y387770D01*
X362368Y387797D01*
X362173Y387816D01*
X361979Y387844D01*
X361857Y387846D01*
X361734Y387858D01*
X361539Y387852D01*
X361342Y387855D01*
X361220Y387842D01*
X361097Y387838D01*
X360904Y387808D01*
X360709Y387787D01*
X360589Y387759D01*
X360468Y387739D01*
X360280Y387685D01*
X360089Y387640D01*
X359974Y387597D01*
X359856Y387562D01*
X359676Y387485D01*
X359492Y387416D01*
X359384Y387359D01*
X359271Y387310D01*
X359102Y387211D01*
X358929Y387120D01*
X358828Y387049D01*
X358722Y386987D01*
X358567Y386867D01*
X358406Y386755D01*
X358315Y386672D01*
X358218Y386597D01*
X358079Y386459D01*
X357934Y386327D01*
X357853Y386234D01*
X357766Y386147D01*
X357646Y385993D01*
X357518Y385844D01*
X357450Y385742D01*
X357375Y385645D01*
X357275Y385476D01*
X357167Y385313D01*
X357114Y385205D01*
X357049Y385097D01*
X356964Y384902D01*
X356878Y384725D01*
X356148Y382964D01*
X356104Y382907D01*
X355995Y382784D01*
X355908Y382656D01*
X355813Y382533D01*
X355729Y382392D01*
X355637Y382257D01*
X355567Y382119D01*
X355487Y381986D01*
X355422Y381835D01*
X355347Y381689D01*
X355295Y381544D01*
X355233Y381401D01*
X355187Y381244D01*
X355131Y381090D01*
X355097Y380939D01*
X355054Y380790D01*
X355028Y380628D01*
X354992Y380468D01*
X354977Y380314D01*
X354953Y380161D01*
X354947Y379997D01*
X354931Y379834D01*
X354936Y379679D01*
X354931Y379524D01*
X354946Y379361D01*
X354951Y379197D01*
X354975Y379044D01*
X354989Y378890D01*
X355024Y378730D01*
X355050Y378568D01*
X355093Y378419D01*
X355126Y378268D01*
X355181Y378113D01*
X355227Y377956D01*
X355288Y377813D01*
X355340Y377667D01*
X355414Y377521D01*
X355479Y377371D01*
X355558Y377237D01*
X355628Y377099D01*
X355719Y376963D01*
X355802Y376822D01*
X355897Y376699D01*
X355984Y376571D01*
X356089Y376451D01*
X356149Y376373D01*
X356977Y374376D01*
X356977Y372264D01*
X356169Y370314D01*
X354676Y368821D01*
X352726Y368013D01*
X352669Y368013D01*
X352596Y368009D01*
X352523Y368011D01*
X352278Y367989D01*
X352033Y367973D01*
X351961Y367960D01*
X351888Y367953D01*
X351648Y367900D01*
X351407Y367854D01*
X351337Y367831D01*
X351266Y367816D01*
X351035Y367733D01*
X350801Y367657D01*
X350735Y367626D01*
X350666Y367602D01*
X350447Y367491D01*
X350224Y367386D01*
X350163Y367347D01*
X350097Y367314D01*
X349894Y367177D01*
X349686Y367045D01*
X349630Y366999D01*
X349569Y366958D01*
X349396Y366805D01*
X349195Y366640D01*
X349137Y366579D01*
X349077Y366526D01*
X271779Y289228D01*
X271623Y289050D01*
X271460Y288878D01*
X271412Y288811D01*
X271358Y288750D01*
X271225Y288554D01*
X271085Y288362D01*
X271046Y288291D01*
X270999Y288223D01*
X270892Y288011D01*
X270778Y287805D01*
X270747Y287728D01*
X270710Y287655D01*
X270630Y287432D01*
X270542Y287212D01*
X270522Y287133D01*
X270494Y287056D01*
X270442Y286825D01*
X270383Y286596D01*
X270372Y286514D01*
X270354Y286434D01*
X270332Y286199D01*
X270302Y285964D01*
X270302Y285881D01*
X270294Y285800D01*
X270301Y285564D01*
X270301Y285326D01*
X270311Y285245D01*
X270313Y285163D01*
X270350Y284929D01*
X270379Y284694D01*
X270400Y284615D01*
X270412Y284534D01*
X270478Y284306D01*
X270537Y284077D01*
X270567Y284001D01*
X270589Y283922D01*
X270683Y283704D01*
X270770Y283484D01*
X270809Y283412D01*
X270842Y283337D01*
X270962Y283133D01*
X271075Y282925D01*
X271123Y282858D01*
X271165Y282788D01*
X271310Y282600D01*
X271449Y282408D01*
X271505Y282349D01*
X271555Y282284D01*
X271722Y282116D01*
X271884Y281943D01*
X271947Y281890D01*
X272005Y281832D01*
X272191Y281687D01*
X272373Y281535D01*
X272442Y281491D01*
X272507Y281441D01*
X272711Y281320D01*
X272910Y281192D01*
X272984Y281157D01*
X273055Y281115D01*
X273272Y281021D01*
X273486Y280919D01*
X273564Y280894D01*
X273639Y280861D01*
X273866Y280794D01*
X274091Y280720D01*
X274172Y280705D01*
X274251Y280682D01*
X274484Y280644D01*
X274717Y280599D01*
X274797Y280594D01*
X274880Y280581D01*
X275140Y280572D01*
X275371Y280557D01*
X276105Y280557D01*
X278148Y279711D01*
X279711Y278148D01*
X280307Y276707D01*
X280411Y276495D01*
X280509Y276279D01*
X280552Y276209D01*
X280588Y276135D01*
X280717Y275937D01*
X280841Y275735D01*
X280892Y275671D01*
X280937Y275602D01*
X281091Y275423D01*
X281239Y275237D01*
X281298Y275180D01*
X281351Y275118D01*
X281526Y274958D01*
X281696Y274793D01*
X281761Y274744D01*
X281822Y274689D01*
X282016Y274552D01*
X282205Y274410D01*
X282276Y274369D01*
X282343Y274322D01*
X282552Y274211D01*
X282758Y274094D01*
X282834Y274062D01*
X282906Y274024D01*
X283127Y273940D01*
X283346Y273849D01*
X283425Y273827D01*
X283502Y273798D01*
X283732Y273742D01*
X283960Y273679D01*
X284041Y273668D01*
X284121Y273648D01*
X284357Y273622D01*
X284591Y273588D01*
X284672Y273587D01*
X284754Y273578D01*
X284991Y273581D01*
X285228Y273577D01*
X285309Y273586D01*
X285391Y273587D01*
X285626Y273620D01*
X285861Y273645D01*
X285941Y273664D01*
X286022Y273676D01*
X286251Y273738D01*
X286481Y273793D01*
X286558Y273821D01*
X286637Y273843D01*
X286856Y273933D01*
X287078Y274016D01*
X287150Y274054D01*
X287226Y274086D01*
X287432Y274202D01*
X287642Y274313D01*
X287709Y274360D01*
X287780Y274400D01*
X287970Y274542D01*
X288164Y274678D01*
X288225Y274733D01*
X288290Y274782D01*
X288461Y274946D01*
X288636Y275105D01*
X288690Y275167D01*
X288749Y275224D01*
X288898Y275409D01*
X289052Y275588D01*
X289097Y275656D01*
X289149Y275720D01*
X289273Y275922D01*
X289403Y276119D01*
X289439Y276192D01*
X289483Y276263D01*
X289591Y276500D01*
X289693Y276707D01*
X290289Y278148D01*
X291852Y279711D01*
X293895Y280557D01*
X296105Y280557D01*
X298148Y279711D01*
X299711Y278148D01*
X300307Y276707D01*
X300411Y276495D01*
X300509Y276279D01*
X300552Y276209D01*
X300588Y276135D01*
X300718Y275937D01*
X300841Y275735D01*
X300892Y275671D01*
X300937Y275603D01*
X301091Y275422D01*
X301239Y275237D01*
X301298Y275180D01*
X301351Y275118D01*
X301526Y274959D01*
X301696Y274793D01*
X301761Y274744D01*
X301822Y274689D01*
X302015Y274553D01*
X302205Y274410D01*
X302276Y274369D01*
X302343Y274322D01*
X302552Y274211D01*
X302758Y274094D01*
X302833Y274062D01*
X302906Y274024D01*
X303127Y273940D01*
X303346Y273849D01*
X303425Y273827D01*
X303502Y273798D01*
X303731Y273742D01*
X303960Y273679D01*
X304041Y273668D01*
X304121Y273648D01*
X304356Y273622D01*
X304591Y273588D01*
X304672Y273587D01*
X304754Y273578D01*
X304991Y273581D01*
X305228Y273577D01*
X305309Y273586D01*
X305391Y273587D01*
X305626Y273620D01*
X305861Y273645D01*
X305941Y273664D01*
X306022Y273676D01*
X306250Y273738D01*
X306481Y273792D01*
X306558Y273821D01*
X306637Y273843D01*
X306855Y273933D01*
X307078Y274016D01*
X307150Y274054D01*
X307226Y274086D01*
X307432Y274203D01*
X307642Y274313D01*
X307709Y274360D01*
X307780Y274400D01*
X307970Y274542D01*
X308164Y274678D01*
X308225Y274733D01*
X308290Y274782D01*
X308460Y274946D01*
X308636Y275105D01*
X308690Y275167D01*
X308749Y275224D01*
X308897Y275408D01*
X309052Y275588D01*
X309097Y275656D01*
X309148Y275720D01*
X309273Y275922D01*
X309403Y276119D01*
X309439Y276191D01*
X309483Y276263D01*
X309590Y276499D01*
X309693Y276707D01*
X310289Y278148D01*
X311852Y279711D01*
X313895Y280557D01*
X316105Y280557D01*
X318148Y279711D01*
X319711Y278148D01*
X320307Y276707D01*
X320411Y276495D01*
X320509Y276279D01*
X320552Y276209D01*
X320588Y276135D01*
X320718Y275937D01*
X320841Y275735D01*
X320892Y275671D01*
X320937Y275603D01*
X321091Y275422D01*
X321239Y275237D01*
X321298Y275180D01*
X321351Y275118D01*
X321480Y275000D01*
X321364Y274895D01*
X321310Y274833D01*
X321251Y274776D01*
X321102Y274591D01*
X320948Y274412D01*
X320903Y274344D01*
X320851Y274280D01*
X320727Y274078D01*
X320597Y273881D01*
X320561Y273808D01*
X320517Y273737D01*
X320409Y273500D01*
X320307Y273293D01*
X319711Y271852D01*
X318148Y270289D01*
X316707Y269693D01*
X316495Y269589D01*
X316279Y269491D01*
X316209Y269448D01*
X316135Y269412D01*
X315937Y269283D01*
X315735Y269159D01*
X315671Y269108D01*
X315602Y269063D01*
X315423Y268909D01*
X315237Y268761D01*
X315180Y268702D01*
X315118Y268649D01*
X314958Y268474D01*
X314793Y268304D01*
X314744Y268239D01*
X314689Y268178D01*
X314552Y267984D01*
X314410Y267795D01*
X314369Y267724D01*
X314322Y267657D01*
X314211Y267448D01*
X314094Y267242D01*
X314062Y267166D01*
X314024Y267094D01*
X313940Y266873D01*
X313849Y266654D01*
X313827Y266575D01*
X313798Y266498D01*
X313742Y266268D01*
X313679Y266040D01*
X313668Y265959D01*
X313648Y265879D01*
X313622Y265643D01*
X313588Y265409D01*
X313587Y265328D01*
X313578Y265246D01*
X313581Y265009D01*
X313577Y264772D01*
X313586Y264691D01*
X313587Y264609D01*
X313620Y264374D01*
X313645Y264139D01*
X313664Y264059D01*
X313676Y263978D01*
X313738Y263749D01*
X313793Y263519D01*
X313821Y263442D01*
X313843Y263363D01*
X313933Y263144D01*
X314016Y262922D01*
X314054Y262850D01*
X314086Y262774D01*
X314202Y262568D01*
X314313Y262358D01*
X314360Y262291D01*
X314400Y262220D01*
X314542Y262030D01*
X314678Y261836D01*
X314733Y261775D01*
X314782Y261710D01*
X314946Y261539D01*
X315105Y261364D01*
X315167Y261310D01*
X315224Y261251D01*
X315409Y261102D01*
X315588Y260948D01*
X315656Y260903D01*
X315720Y260851D01*
X315922Y260727D01*
X316119Y260597D01*
X316192Y260561D01*
X316263Y260517D01*
X316500Y260409D01*
X316707Y260307D01*
X318148Y259711D01*
X319711Y258148D01*
X320557Y256105D01*
X320557Y253895D01*
X319711Y251852D01*
X318148Y250289D01*
X316105Y249443D01*
X313895Y249443D01*
X311852Y250289D01*
X310289Y251852D01*
X309693Y253293D01*
X309589Y253505D01*
X309491Y253721D01*
X309448Y253791D01*
X309412Y253865D01*
X309283Y254063D01*
X309159Y254265D01*
X309108Y254329D01*
X309063Y254398D01*
X308909Y254577D01*
X308761Y254763D01*
X308702Y254820D01*
X308649Y254882D01*
X308474Y255042D01*
X308304Y255207D01*
X308239Y255256D01*
X308178Y255311D01*
X307984Y255448D01*
X307795Y255590D01*
X307724Y255631D01*
X307657Y255678D01*
X307448Y255789D01*
X307242Y255906D01*
X307166Y255938D01*
X307094Y255976D01*
X306873Y256060D01*
X306654Y256151D01*
X306575Y256173D01*
X306498Y256202D01*
X306268Y256258D01*
X306040Y256321D01*
X305959Y256332D01*
X305879Y256352D01*
X305643Y256378D01*
X305409Y256412D01*
X305328Y256413D01*
X305246Y256422D01*
X305009Y256419D01*
X304772Y256423D01*
X304691Y256414D01*
X304609Y256413D01*
X304374Y256380D01*
X304139Y256355D01*
X304059Y256336D01*
X303978Y256324D01*
X303749Y256262D01*
X303519Y256207D01*
X303442Y256179D01*
X303363Y256157D01*
X303144Y256067D01*
X302922Y255984D01*
X302850Y255946D01*
X302774Y255914D01*
X302568Y255798D01*
X302358Y255687D01*
X302291Y255640D01*
X302220Y255600D01*
X302030Y255458D01*
X301836Y255322D01*
X301775Y255267D01*
X301710Y255218D01*
X301539Y255054D01*
X301364Y254895D01*
X301310Y254833D01*
X301251Y254776D01*
X301102Y254591D01*
X300948Y254412D01*
X300903Y254344D01*
X300851Y254280D01*
X300727Y254078D01*
X300597Y253881D01*
X300561Y253808D01*
X300517Y253737D01*
X300409Y253500D01*
X300307Y253293D01*
X299711Y251852D01*
X298148Y250289D01*
X296105Y249443D01*
X293895Y249443D01*
X291852Y250289D01*
X290289Y251852D01*
X289693Y253293D01*
X289589Y253505D01*
X289491Y253721D01*
X289448Y253791D01*
X289412Y253865D01*
X289283Y254063D01*
X289159Y254265D01*
X289108Y254329D01*
X289063Y254398D01*
X288909Y254577D01*
X288761Y254763D01*
X288702Y254820D01*
X288649Y254882D01*
X288474Y255042D01*
X288304Y255207D01*
X288239Y255256D01*
X288178Y255311D01*
X287984Y255448D01*
X287795Y255590D01*
X287724Y255631D01*
X287657Y255678D01*
X287448Y255789D01*
X287242Y255906D01*
X287166Y255938D01*
X287094Y255976D01*
X286873Y256060D01*
X286654Y256151D01*
X286575Y256173D01*
X286498Y256202D01*
X286268Y256258D01*
X286040Y256321D01*
X285959Y256332D01*
X285879Y256352D01*
X285643Y256378D01*
X285409Y256412D01*
X285328Y256413D01*
X285246Y256422D01*
X285009Y256419D01*
X284772Y256423D01*
X284691Y256414D01*
X284609Y256413D01*
X284374Y256380D01*
X284139Y256355D01*
X284059Y256336D01*
X283978Y256324D01*
X283749Y256262D01*
X283519Y256207D01*
X283442Y256179D01*
X283363Y256157D01*
X283144Y256067D01*
X282922Y255984D01*
X282850Y255946D01*
X282774Y255914D01*
X282568Y255798D01*
X282358Y255687D01*
X282291Y255640D01*
X282220Y255600D01*
X282030Y255458D01*
X281836Y255322D01*
X281775Y255267D01*
X281710Y255218D01*
X281539Y255054D01*
X281364Y254895D01*
X281310Y254833D01*
X281251Y254776D01*
X281102Y254591D01*
X280948Y254412D01*
X280903Y254344D01*
X280851Y254280D01*
X280727Y254078D01*
X280597Y253881D01*
X280561Y253808D01*
X280517Y253737D01*
X280409Y253500D01*
X280307Y253293D01*
X279711Y251852D01*
X278148Y250289D01*
X276105Y249443D01*
X273895Y249443D01*
X273242Y249714D01*
X273056Y249777D01*
X272874Y249850D01*
X272756Y249880D01*
X272639Y249920D01*
X272447Y249960D01*
X272258Y250009D01*
X272136Y250025D01*
X272015Y250050D01*
X271820Y250065D01*
X271626Y250090D01*
X271503Y250090D01*
X271380Y250100D01*
X271184Y250091D01*
X270988Y250091D01*
X270866Y250076D01*
X270744Y250070D01*
X270551Y250037D01*
X270356Y250012D01*
X270237Y249982D01*
X270116Y249961D01*
X269929Y249903D01*
X269739Y249855D01*
X269624Y249810D01*
X269507Y249774D01*
X269328Y249694D01*
X269146Y249622D01*
X269038Y249563D01*
X268926Y249512D01*
X268759Y249410D01*
X268587Y249316D01*
X268487Y249244D01*
X268382Y249180D01*
X268229Y249058D01*
X268070Y248943D01*
X267981Y248859D01*
X267884Y248782D01*
X267748Y248642D01*
X267605Y248508D01*
X267526Y248414D01*
X267440Y248325D01*
X267323Y248169D01*
X267197Y248018D01*
X267131Y247915D01*
X267057Y247816D01*
X266960Y247647D01*
X266854Y247481D01*
X266802Y247370D01*
X266741Y247264D01*
X266665Y247083D01*
X266581Y246906D01*
X266543Y246789D01*
X266496Y246675D01*
X266444Y246487D01*
X266382Y246300D01*
X266359Y246180D01*
X266326Y246061D01*
X266298Y245868D01*
X266261Y245675D01*
X266253Y245555D01*
X266235Y245431D01*
X266231Y245218D01*
X266219Y245021D01*
X266219Y146345D01*
X265600Y144851D01*
X242294Y121546D01*
X242246Y121491D01*
X242193Y121441D01*
X242035Y121252D01*
X241873Y121068D01*
X241832Y121008D01*
X241785Y120952D01*
X241653Y120744D01*
X241515Y120541D01*
X241482Y120476D01*
X241442Y120415D01*
X241337Y120193D01*
X241225Y119974D01*
X241201Y119905D01*
X241169Y119839D01*
X241093Y119605D01*
X241009Y119374D01*
X240993Y119303D01*
X240981Y119265D01*
X239923Y116711D01*
X238289Y115077D01*
X236155Y114193D01*
X233845Y114193D01*
X231711Y115077D01*
X230077Y116711D01*
X229193Y118845D01*
X229193Y121155D01*
X230077Y123289D01*
X231711Y124923D01*
X234277Y125986D01*
X234285Y125988D01*
X234357Y126004D01*
X234588Y126087D01*
X234822Y126163D01*
X234888Y126194D01*
X234957Y126218D01*
X235176Y126329D01*
X235399Y126434D01*
X235460Y126473D01*
X235526Y126506D01*
X235729Y126643D01*
X235937Y126775D01*
X235993Y126821D01*
X236054Y126862D01*
X236227Y127014D01*
X236428Y127180D01*
X236485Y127241D01*
X236546Y127294D01*
X239774Y130522D01*
X239931Y130700D01*
X240093Y130872D01*
X240141Y130939D01*
X240195Y131000D01*
X240329Y131196D01*
X240468Y131388D01*
X240507Y131459D01*
X240554Y131527D01*
X240661Y131738D01*
X240776Y131945D01*
X240806Y132022D01*
X240843Y132095D01*
X240923Y132317D01*
X241011Y132538D01*
X241031Y132617D01*
X241059Y132694D01*
X241111Y132925D01*
X241170Y133154D01*
X241181Y133236D01*
X241199Y133316D01*
X241221Y133551D01*
X241251Y133786D01*
X241251Y133869D01*
X241259Y133950D01*
X241252Y134186D01*
X241252Y134424D01*
X241242Y134505D01*
X241240Y134587D01*
X241203Y134821D01*
X241174Y135056D01*
X241153Y135135D01*
X241141Y135216D01*
X241075Y135444D01*
X241016Y135673D01*
X240986Y135750D01*
X240964Y135828D01*
X240870Y136046D01*
X240783Y136266D01*
X240744Y136338D01*
X240711Y136413D01*
X240592Y136617D01*
X240478Y136825D01*
X240430Y136892D01*
X240388Y136962D01*
X240243Y137149D01*
X240104Y137342D01*
X240048Y137402D01*
X239998Y137466D01*
X239831Y137634D01*
X239669Y137807D01*
X239606Y137860D01*
X239549Y137918D01*
X239361Y138063D01*
X239180Y138215D01*
X239111Y138259D01*
X239046Y138309D01*
X238842Y138430D01*
X238643Y138558D01*
X238569Y138593D01*
X238498Y138635D01*
X238281Y138729D01*
X238067Y138831D01*
X237989Y138856D01*
X237914Y138889D01*
X237686Y138956D01*
X237462Y139030D01*
X237381Y139045D01*
X237303Y139068D01*
X237069Y139106D01*
X236836Y139151D01*
X236756Y139156D01*
X236673Y139169D01*
X236413Y139178D01*
X236182Y139193D01*
X233845Y139193D01*
X231711Y140077D01*
X230077Y141711D01*
X229193Y143845D01*
X229193Y146155D01*
X230077Y148289D01*
X231711Y149923D01*
X234277Y150986D01*
X234285Y150988D01*
X234357Y151004D01*
X234588Y151087D01*
X234822Y151163D01*
X234888Y151194D01*
X234957Y151218D01*
X235176Y151329D01*
X235399Y151434D01*
X235461Y151473D01*
X235526Y151506D01*
X235729Y151643D01*
X235937Y151775D01*
X235993Y151821D01*
X236054Y151862D01*
X236227Y152015D01*
X236428Y152180D01*
X236486Y152241D01*
X236546Y152294D01*
X249442Y165191D01*
X249491Y165246D01*
X249544Y165296D01*
X249702Y165485D01*
X249864Y165669D01*
X249905Y165729D01*
X249952Y165786D01*
X250084Y165992D01*
X250222Y166195D01*
X250255Y166261D01*
X250295Y166323D01*
X250400Y166544D01*
X250511Y166763D01*
X250536Y166832D01*
X250568Y166898D01*
X250644Y167132D01*
X250727Y167362D01*
X250743Y167434D01*
X250766Y167504D01*
X250813Y167745D01*
X250867Y167984D01*
X250874Y168057D01*
X250888Y168129D01*
X250903Y168360D01*
X250927Y168618D01*
X250925Y168702D01*
X250930Y168783D01*
X250911Y287507D01*
X250911Y287512D01*
X250911Y289342D01*
X250911Y289343D01*
X250911Y290134D01*
X251226Y290894D01*
X251530Y291628D01*
X252149Y292247D01*
X252149Y292248D01*
X253384Y293483D01*
X253387Y293486D01*
X345215Y385313D01*
X345236Y385337D01*
X345260Y385359D01*
X345448Y385577D01*
X345636Y385791D01*
X345654Y385817D01*
X345675Y385842D01*
X345834Y386082D01*
X345994Y386318D01*
X346009Y386346D01*
X346027Y386373D01*
X346137Y386597D01*
X346284Y386886D01*
X346298Y386925D01*
X346316Y386961D01*
X346924Y388428D01*
X346987Y388614D01*
X347059Y388796D01*
X347090Y388915D01*
X347130Y389031D01*
X347170Y389223D01*
X347219Y389412D01*
X347234Y389535D01*
X347259Y389655D01*
X347275Y389850D01*
X347300Y390044D01*
X347300Y390168D01*
X347310Y390290D01*
X347300Y390486D01*
X347301Y390682D01*
X347286Y390804D01*
X347280Y390927D01*
X347246Y391119D01*
X347222Y391314D01*
X347192Y391433D01*
X347171Y391554D01*
X347113Y391742D01*
X347065Y391931D01*
X347020Y392046D01*
X346984Y392163D01*
X346903Y392342D01*
X346832Y392524D01*
X346773Y392632D01*
X346722Y392744D01*
X346620Y392911D01*
X346526Y393083D01*
X346454Y393183D01*
X346390Y393288D01*
X346268Y393441D01*
X346153Y393600D01*
X346069Y393689D01*
X345992Y393786D01*
X345851Y393922D01*
X345718Y394065D01*
X345624Y394144D01*
X345535Y394230D01*
X345379Y394348D01*
X345228Y394473D01*
X345125Y394539D01*
X345026Y394613D01*
X344856Y394710D01*
X344691Y394816D01*
X344580Y394868D01*
X344473Y394930D01*
X344293Y395005D01*
X344116Y395089D01*
X343999Y395127D01*
X343885Y395174D01*
X343696Y395226D01*
X343510Y395288D01*
X343389Y395311D01*
X343271Y395344D01*
X343077Y395372D01*
X342885Y395409D01*
X342765Y395417D01*
X342640Y395435D01*
X342428Y395439D01*
X342231Y395451D01*
X248137Y395451D01*
X248064Y395447D01*
X247991Y395449D01*
X247746Y395427D01*
X247501Y395411D01*
X247430Y395398D01*
X247357Y395391D01*
X247117Y395338D01*
X246875Y395292D01*
X246806Y395269D01*
X246735Y395254D01*
X246504Y395171D01*
X246269Y395095D01*
X246203Y395064D01*
X246134Y395040D01*
X245915Y394929D01*
X245693Y394824D01*
X245631Y394785D01*
X245566Y394752D01*
X245362Y394615D01*
X245154Y394483D01*
X245098Y394437D01*
X245038Y394396D01*
X244864Y394243D01*
X244663Y394078D01*
X244606Y394017D01*
X244545Y393964D01*
X222925Y372343D01*
X222850Y372258D01*
X222768Y372179D01*
X222639Y372019D01*
X222504Y371865D01*
X222440Y371771D01*
X222368Y371682D01*
X222261Y371508D01*
X222146Y371339D01*
X222094Y371237D01*
X222034Y371140D01*
X221949Y370954D01*
X221856Y370771D01*
X221817Y370664D01*
X221770Y370560D01*
X221709Y370364D01*
X221640Y370172D01*
X221615Y370060D01*
X221581Y369952D01*
X221545Y369750D01*
X221501Y369550D01*
X221490Y369436D01*
X221470Y369324D01*
X221460Y369120D01*
X221440Y368916D01*
X221444Y368802D01*
X221438Y368688D01*
X221453Y368484D01*
X221460Y368279D01*
X221477Y368166D01*
X221486Y368053D01*
X221527Y367852D01*
X221559Y367649D01*
X221590Y367540D01*
X221613Y367428D01*
X221676Y367242D01*
X221736Y367037D01*
X221785Y366921D01*
X221824Y366808D01*
X222857Y364315D01*
X222857Y362005D01*
X221973Y359871D01*
X220339Y358237D01*
X218205Y357353D01*
X215895Y357353D01*
X213761Y358237D01*
X212127Y359871D01*
X211243Y362005D01*
X211243Y364315D01*
X212271Y366797D01*
X212317Y366864D01*
X212350Y366929D01*
X212390Y366991D01*
X212495Y367213D01*
X212607Y367432D01*
X212631Y367501D01*
X212663Y367567D01*
X212739Y367800D01*
X212823Y368031D01*
X212839Y368102D01*
X212862Y368172D01*
X212908Y368413D01*
X212962Y368653D01*
X212969Y368726D01*
X212983Y368797D01*
X212998Y369029D01*
X213023Y369287D01*
X213020Y369371D01*
X213025Y369451D01*
X213025Y372961D01*
X213953Y375201D01*
X213990Y375308D01*
X214035Y375412D01*
X214093Y375609D01*
X214160Y375803D01*
X214183Y375915D01*
X214215Y376024D01*
X214247Y376226D01*
X214289Y376427D01*
X214298Y376541D01*
X214316Y376653D01*
X214323Y376858D01*
X214339Y377062D01*
X214334Y377176D01*
X214338Y377289D01*
X214319Y377494D01*
X214309Y377699D01*
X214290Y377811D01*
X214280Y377924D01*
X214235Y378124D01*
X214200Y378327D01*
X214167Y378435D01*
X214142Y378546D01*
X214074Y378739D01*
X214013Y378936D01*
X213967Y379039D01*
X213929Y379146D01*
X213836Y379329D01*
X213752Y379517D01*
X213692Y379614D01*
X213641Y379715D01*
X213527Y379885D01*
X213419Y380060D01*
X213348Y380149D01*
X213285Y380243D01*
X213155Y380391D01*
X213022Y380558D01*
X212931Y380646D01*
X212853Y380735D01*
X212732Y380856D01*
X212616Y380959D01*
X212506Y381069D01*
X212377Y381169D01*
X212254Y381278D01*
X212126Y381365D01*
X212003Y381460D01*
X211863Y381544D01*
X211727Y381636D01*
X211589Y381706D01*
X211456Y381786D01*
X211306Y381851D01*
X211160Y381925D01*
X211014Y381978D01*
X210871Y382040D01*
X210714Y382086D01*
X210560Y382142D01*
X210409Y382176D01*
X210260Y382219D01*
X210098Y382245D01*
X209939Y382281D01*
X209784Y382296D01*
X209631Y382320D01*
X209467Y382326D01*
X209304Y382342D01*
X209149Y382337D01*
X208994Y382342D01*
X208831Y382327D01*
X208668Y382322D01*
X208514Y382298D01*
X208360Y382284D01*
X208200Y382249D01*
X208038Y382223D01*
X207889Y382180D01*
X207737Y382147D01*
X207584Y382092D01*
X207426Y382046D01*
X207283Y381985D01*
X207137Y381933D01*
X206991Y381859D01*
X206841Y381794D01*
X206707Y381715D01*
X206569Y381645D01*
X206433Y381554D01*
X206292Y381471D01*
X206169Y381376D01*
X206041Y381289D01*
X205921Y381184D01*
X205788Y381081D01*
X205668Y380962D01*
X205548Y380857D01*
X190294Y365603D01*
X190246Y365548D01*
X190193Y365498D01*
X190036Y365309D01*
X189873Y365125D01*
X189832Y365064D01*
X189785Y365008D01*
X189653Y364801D01*
X189515Y364598D01*
X189482Y364533D01*
X189442Y364471D01*
X189337Y364249D01*
X189225Y364030D01*
X189201Y363962D01*
X189169Y363896D01*
X189093Y363662D01*
X189009Y363431D01*
X188993Y363360D01*
X188970Y363290D01*
X188952Y363196D01*
X187923Y360711D01*
X186289Y359077D01*
X184155Y358193D01*
X181845Y358193D01*
X179711Y359077D01*
X178077Y360711D01*
X177193Y362845D01*
X177193Y365155D01*
X178077Y367289D01*
X179711Y368923D01*
X182192Y369951D01*
X182273Y369966D01*
X182342Y369989D01*
X182413Y370004D01*
X182644Y370087D01*
X182879Y370163D01*
X182945Y370194D01*
X183014Y370218D01*
X183233Y370329D01*
X183455Y370434D01*
X183517Y370473D01*
X183582Y370506D01*
X183786Y370643D01*
X183994Y370775D01*
X184050Y370821D01*
X184110Y370862D01*
X184284Y371015D01*
X184485Y371180D01*
X184542Y371241D01*
X184603Y371294D01*
X227398Y414089D01*
X227398Y414090D01*
X229244Y415936D01*
X230723Y416549D01*
X364503Y416549D01*
X365982Y415936D01*
X367829Y414090D01*
X367829Y414089D01*
X390389Y391529D01*
X392236Y389682D01*
X392849Y388203D01*
X392849Y224528D01*
X392853Y224455D01*
X392851Y224382D01*
X392873Y224137D01*
X392889Y223892D01*
X392902Y223820D01*
X392909Y223747D01*
X392962Y223507D01*
X393008Y223266D01*
X393031Y223196D01*
X393046Y223125D01*
X393129Y222894D01*
X393205Y222660D01*
X393236Y222594D01*
X393260Y222525D01*
X393371Y222306D01*
X393476Y222083D01*
X393515Y222021D01*
X393548Y221956D01*
X393685Y221753D01*
X393817Y221545D01*
X393863Y221489D01*
X393904Y221428D01*
X394057Y221255D01*
X394222Y221054D01*
X394283Y220996D01*
X394336Y220936D01*
X464720Y150552D01*
X464775Y150504D01*
X464825Y150451D01*
X465014Y150293D01*
X465198Y150131D01*
X465258Y150090D01*
X465314Y150043D01*
X465522Y149911D01*
X465725Y149773D01*
X465790Y149740D01*
X465851Y149700D01*
X466073Y149595D01*
X466292Y149483D01*
X466361Y149459D01*
X466427Y149427D01*
X466661Y149351D01*
X466892Y149267D01*
X466963Y149251D01*
X467032Y149228D01*
X467274Y149182D01*
X467513Y149128D01*
X467586Y149121D01*
X467658Y149107D01*
X467889Y149092D01*
X468148Y149067D01*
X468231Y149070D01*
X468312Y149065D01*
X498749Y149065D01*
X498822Y149069D01*
X498895Y149067D01*
X499140Y149089D01*
X499385Y149105D01*
X499456Y149118D01*
X499529Y149125D01*
X499769Y149178D01*
X500011Y149224D01*
X500080Y149247D01*
X500151Y149262D01*
X500382Y149345D01*
X500617Y149421D01*
X500683Y149452D01*
X500751Y149476D01*
X500970Y149587D01*
X501193Y149692D01*
X501255Y149731D01*
X501290Y149749D01*
X503845Y150807D01*
X506155Y150807D01*
X508289Y149923D01*
X509923Y148289D01*
X510807Y146155D01*
X510807Y143845D01*
X509923Y141711D01*
X508289Y140077D01*
X506155Y139193D01*
X503845Y139193D01*
X501279Y140256D01*
X501271Y140260D01*
X501209Y140300D01*
X500987Y140405D01*
X500768Y140517D01*
X500699Y140541D01*
X500633Y140573D01*
X500400Y140649D01*
X500169Y140733D01*
X500098Y140749D01*
X500028Y140772D01*
X499787Y140818D01*
X499547Y140872D01*
X499474Y140879D01*
X499403Y140893D01*
X499171Y140908D01*
X498913Y140933D01*
X498829Y140930D01*
X498749Y140935D01*
X474286Y140935D01*
X474049Y140920D01*
X473813Y140913D01*
X473731Y140900D01*
X473650Y140895D01*
X473417Y140851D01*
X473183Y140814D01*
X473104Y140791D01*
X473024Y140776D01*
X472799Y140703D01*
X472571Y140637D01*
X472496Y140605D01*
X472418Y140579D01*
X472204Y140479D01*
X471986Y140385D01*
X471915Y140343D01*
X471841Y140308D01*
X471641Y140182D01*
X471437Y140061D01*
X471372Y140011D01*
X471303Y139967D01*
X471120Y139817D01*
X470933Y139672D01*
X470875Y139614D01*
X470812Y139562D01*
X470649Y139389D01*
X470482Y139222D01*
X470431Y139157D01*
X470375Y139098D01*
X470236Y138906D01*
X470090Y138719D01*
X470048Y138649D01*
X470000Y138583D01*
X469886Y138375D01*
X469765Y138172D01*
X469732Y138096D01*
X469692Y138025D01*
X469605Y137805D01*
X469510Y137587D01*
X469487Y137509D01*
X469457Y137432D01*
X469398Y137203D01*
X469331Y136976D01*
X469318Y136895D01*
X469298Y136816D01*
X469268Y136581D01*
X469230Y136347D01*
X469227Y136265D01*
X469217Y136184D01*
X469216Y135947D01*
X469208Y135710D01*
X469216Y135629D01*
X469216Y135546D01*
X469245Y135311D01*
X469267Y135076D01*
X469284Y134996D01*
X469294Y134914D01*
X469353Y134684D01*
X469404Y134454D01*
X469431Y134376D01*
X469452Y134297D01*
X469538Y134076D01*
X469618Y133853D01*
X469655Y133780D01*
X469685Y133704D01*
X469799Y133495D01*
X469905Y133285D01*
X469951Y133217D01*
X469990Y133145D01*
X470129Y132953D01*
X470261Y132757D01*
X470315Y132696D01*
X470364Y132628D01*
X470541Y132438D01*
X470694Y132264D01*
X477406Y125552D01*
X477461Y125504D01*
X477511Y125451D01*
X477700Y125293D01*
X477884Y125131D01*
X477944Y125090D01*
X478000Y125043D01*
X478208Y124911D01*
X478411Y124773D01*
X478476Y124740D01*
X478537Y124700D01*
X478759Y124595D01*
X478978Y124483D01*
X479047Y124459D01*
X479113Y124427D01*
X479347Y124351D01*
X479578Y124267D01*
X479649Y124251D01*
X479718Y124228D01*
X479959Y124182D01*
X480199Y124128D01*
X480272Y124121D01*
X480344Y124107D01*
X480575Y124092D01*
X480834Y124067D01*
X480917Y124070D01*
X480998Y124065D01*
X498749Y124065D01*
X498822Y124069D01*
X498896Y124067D01*
X499140Y124089D01*
X499385Y124105D01*
X499457Y124118D01*
X499530Y124125D01*
X499770Y124178D01*
X500011Y124224D01*
X500081Y124247D01*
X500152Y124262D01*
X500383Y124345D01*
X500617Y124421D01*
X500683Y124452D01*
X500752Y124477D01*
X500971Y124587D01*
X501193Y124692D01*
X501255Y124731D01*
X501290Y124748D01*
X503845Y125807D01*
X506155Y125807D01*
X508289Y124923D01*
X509923Y123289D01*
X510807Y121155D01*
X510807Y118845D01*
X509923Y116711D01*
X508289Y115077D01*
X506155Y114193D01*
X503845Y114193D01*
X501279Y115256D01*
X501271Y115260D01*
X501209Y115300D01*
X500988Y115405D01*
X500769Y115516D01*
X500700Y115541D01*
X500634Y115573D01*
X500400Y115649D01*
X500170Y115733D01*
X500098Y115749D01*
X500028Y115772D01*
X499787Y115818D01*
X499548Y115872D01*
X499475Y115879D01*
X499403Y115893D01*
X499172Y115908D01*
X498914Y115933D01*
X498830Y115930D01*
X498749Y115935D01*
X485522Y115935D01*
X485286Y115920D01*
X485049Y115913D01*
X484968Y115900D01*
X484887Y115895D01*
X484654Y115851D01*
X484420Y115814D01*
X484341Y115791D01*
X484261Y115776D01*
X484035Y115703D01*
X483808Y115637D01*
X483733Y115605D01*
X483655Y115579D01*
X483440Y115479D01*
X483223Y115385D01*
X483152Y115343D01*
X483078Y115308D01*
X482878Y115182D01*
X482674Y115061D01*
X482609Y115011D01*
X482540Y114967D01*
X482357Y114816D01*
X482170Y114672D01*
X482112Y114614D01*
X482049Y114562D01*
X481887Y114389D01*
X481719Y114222D01*
X481668Y114157D01*
X481612Y114098D01*
X481473Y113906D01*
X481327Y113719D01*
X481285Y113649D01*
X481237Y113583D01*
X481123Y113375D01*
X481002Y113172D01*
X480969Y113096D01*
X480929Y113025D01*
X480842Y112805D01*
X480747Y112587D01*
X480724Y112509D01*
X480694Y112432D01*
X480635Y112203D01*
X480568Y111976D01*
X480555Y111895D01*
X480535Y111816D01*
X480505Y111581D01*
X480467Y111347D01*
X480464Y111265D01*
X480454Y111184D01*
X480453Y110947D01*
X480445Y110710D01*
X480453Y110629D01*
X480453Y110546D01*
X480482Y110311D01*
X480503Y110076D01*
X480521Y109996D01*
X480531Y109914D01*
X480590Y109685D01*
X480641Y109454D01*
X480668Y109376D01*
X480688Y109297D01*
X480775Y109076D01*
X480855Y108853D01*
X480892Y108780D01*
X480922Y108704D01*
X481036Y108496D01*
X481142Y108285D01*
X481188Y108217D01*
X481227Y108145D01*
X481366Y107953D01*
X481498Y107757D01*
X481552Y107696D01*
X481601Y107628D01*
X481778Y107438D01*
X481931Y107264D01*
X488643Y100552D01*
X488698Y100504D01*
X488748Y100451D01*
X488936Y100294D01*
X489121Y100131D01*
X489181Y100090D01*
X489237Y100043D01*
X489444Y99911D01*
X489648Y99773D01*
X489713Y99740D01*
X489774Y99700D01*
X489997Y99595D01*
X490215Y99483D01*
X490284Y99459D01*
X490350Y99427D01*
X490584Y99350D01*
X490815Y99267D01*
X490886Y99251D01*
X490955Y99228D01*
X491197Y99182D01*
X491436Y99128D01*
X491509Y99121D01*
X491581Y99107D01*
X491812Y99092D01*
X492071Y99067D01*
X492154Y99070D01*
X492235Y99065D01*
X498749Y99065D01*
X498822Y99069D01*
X498895Y99067D01*
X499140Y99089D01*
X499385Y99105D01*
X499456Y99118D01*
X499529Y99125D01*
X499769Y99178D01*
X500011Y99224D01*
X500080Y99247D01*
X500151Y99262D01*
X500382Y99345D01*
X500617Y99421D01*
X500683Y99452D01*
X500751Y99476D01*
X500970Y99587D01*
X501193Y99692D01*
X501255Y99731D01*
X501290Y99749D01*
X503845Y100807D01*
X506155Y100807D01*
X508289Y99923D01*
X509923Y98289D01*
X510807Y96155D01*
X510807Y93845D01*
X509923Y91711D01*
X508289Y90077D01*
X506155Y89193D01*
X503845Y89193D01*
G37*
%LPD*%
%LPC*%
G36*
X178205Y165975D02*
X178205Y165975D01*
X174888Y167349D01*
X172349Y169888D01*
X171736Y171369D01*
X171722Y171398D01*
X171711Y171428D01*
X171582Y171683D01*
X171456Y171941D01*
X171438Y171968D01*
X171424Y171996D01*
X171263Y172234D01*
X171106Y172473D01*
X171085Y172498D01*
X171067Y172524D01*
X170902Y172713D01*
X170692Y172958D01*
X170661Y172986D01*
X170635Y173017D01*
X101217Y242434D01*
X99995Y245384D01*
X99995Y493040D01*
X99993Y493072D01*
X99995Y493104D01*
X99973Y493391D01*
X99955Y493676D01*
X99949Y493708D01*
X99947Y493740D01*
X99890Y494021D01*
X99836Y494302D01*
X99826Y494333D01*
X99820Y494364D01*
X99739Y494602D01*
X99639Y494908D01*
X99622Y494946D01*
X99609Y494984D01*
X98245Y498276D01*
X98245Y518664D01*
X99733Y522257D01*
X102483Y525007D01*
X106076Y526495D01*
X109964Y526495D01*
X113557Y525007D01*
X116307Y522257D01*
X117795Y518664D01*
X117795Y498276D01*
X116431Y494984D01*
X116421Y494954D01*
X116407Y494925D01*
X116318Y494652D01*
X116225Y494381D01*
X116218Y494350D01*
X116208Y494320D01*
X116154Y494038D01*
X116096Y493758D01*
X116093Y493726D01*
X116087Y493694D01*
X116071Y493444D01*
X116045Y493122D01*
X116047Y493081D01*
X116045Y493040D01*
X116045Y252408D01*
X116049Y252335D01*
X116047Y252262D01*
X116069Y252017D01*
X116085Y251772D01*
X116098Y251700D01*
X116105Y251628D01*
X116158Y251387D01*
X116204Y251146D01*
X116227Y251077D01*
X116242Y251005D01*
X116325Y250774D01*
X116401Y250540D01*
X116432Y250474D01*
X116456Y250405D01*
X116567Y250186D01*
X116672Y249963D01*
X116711Y249902D01*
X116744Y249837D01*
X116881Y249633D01*
X117013Y249425D01*
X117059Y249369D01*
X117100Y249309D01*
X117253Y249135D01*
X117418Y248934D01*
X117479Y248877D01*
X117532Y248816D01*
X181983Y184365D01*
X182007Y184344D01*
X182029Y184320D01*
X182248Y184132D01*
X182461Y183944D01*
X182488Y183926D01*
X182512Y183905D01*
X182752Y183746D01*
X182988Y183586D01*
X183017Y183571D01*
X183043Y183553D01*
X183162Y183495D01*
X183169Y183491D01*
X183223Y183465D01*
X183268Y183443D01*
X183556Y183296D01*
X183595Y183282D01*
X183631Y183264D01*
X185112Y182651D01*
X187651Y180112D01*
X189025Y176795D01*
X189025Y173205D01*
X187651Y169888D01*
X185112Y167349D01*
X181795Y165975D01*
X178205Y165975D01*
G37*
%LPD*%
%LPC*%
G36*
X262479Y454969D02*
X262479Y454969D01*
X261000Y455582D01*
X254794Y461788D01*
X254740Y461836D01*
X254690Y461889D01*
X254500Y462047D01*
X254316Y462209D01*
X254256Y462250D01*
X254200Y462297D01*
X253993Y462429D01*
X253789Y462567D01*
X253724Y462600D01*
X253663Y462640D01*
X253441Y462745D01*
X253222Y462857D01*
X253153Y462881D01*
X253087Y462913D01*
X252853Y462989D01*
X252622Y463073D01*
X252551Y463089D01*
X252482Y463112D01*
X252241Y463158D01*
X252001Y463212D01*
X251928Y463219D01*
X251856Y463233D01*
X251625Y463248D01*
X251367Y463273D01*
X251283Y463270D01*
X251203Y463275D01*
X242391Y463275D01*
X242318Y463271D01*
X242245Y463273D01*
X242000Y463251D01*
X241755Y463235D01*
X241684Y463222D01*
X241611Y463215D01*
X241371Y463162D01*
X241129Y463116D01*
X241060Y463093D01*
X240989Y463078D01*
X240758Y462995D01*
X240523Y462919D01*
X240457Y462888D01*
X240389Y462864D01*
X240170Y462753D01*
X239947Y462648D01*
X239885Y462609D01*
X239820Y462576D01*
X239740Y462523D01*
X237255Y461493D01*
X234945Y461493D01*
X232811Y462377D01*
X231177Y464011D01*
X230293Y466145D01*
X230293Y468455D01*
X231177Y470589D01*
X232811Y472223D01*
X234945Y473107D01*
X237255Y473107D01*
X240032Y471956D01*
X240295Y471866D01*
X240556Y471772D01*
X240596Y471763D01*
X240635Y471750D01*
X240907Y471693D01*
X241178Y471633D01*
X241219Y471629D01*
X241259Y471621D01*
X241536Y471599D01*
X241812Y471572D01*
X241853Y471574D01*
X241894Y471570D01*
X242172Y471583D01*
X242449Y471592D01*
X242490Y471598D01*
X242531Y471600D01*
X242804Y471648D01*
X243078Y471691D01*
X243118Y471702D01*
X243158Y471709D01*
X243423Y471790D01*
X243691Y471868D01*
X243728Y471884D01*
X243767Y471896D01*
X244020Y472010D01*
X244276Y472120D01*
X244311Y472141D01*
X244348Y472158D01*
X244585Y472302D01*
X244824Y472443D01*
X244857Y472469D01*
X244892Y472490D01*
X245109Y472664D01*
X245329Y472833D01*
X245358Y472862D01*
X245390Y472888D01*
X245584Y473087D01*
X245780Y473283D01*
X245805Y473315D01*
X245834Y473345D01*
X246001Y473566D01*
X246171Y473786D01*
X246192Y473821D01*
X246217Y473854D01*
X246355Y474094D01*
X246497Y474333D01*
X246513Y474371D01*
X246534Y474407D01*
X246640Y474663D01*
X246751Y474917D01*
X246763Y474957D01*
X246778Y474995D01*
X246852Y475263D01*
X246930Y475529D01*
X246937Y475569D01*
X246948Y475609D01*
X246987Y475884D01*
X247032Y476158D01*
X247033Y476199D01*
X247039Y476240D01*
X247044Y476517D01*
X247053Y476795D01*
X247050Y476835D01*
X247050Y476877D01*
X247020Y477153D01*
X246995Y477429D01*
X246986Y477469D01*
X246982Y477510D01*
X246918Y477780D01*
X246858Y478051D01*
X246844Y478090D01*
X246835Y478130D01*
X246737Y478390D01*
X246644Y478651D01*
X246625Y478688D01*
X246611Y478727D01*
X246482Y478973D01*
X246356Y479220D01*
X246334Y479254D01*
X246314Y479290D01*
X246156Y479518D01*
X246000Y479748D01*
X245973Y479779D01*
X245950Y479813D01*
X245734Y480052D01*
X245568Y480240D01*
X232688Y493120D01*
X232075Y494599D01*
X232075Y499109D01*
X232071Y499182D01*
X232073Y499255D01*
X232051Y499500D01*
X232035Y499745D01*
X232022Y499816D01*
X232015Y499889D01*
X231962Y500129D01*
X231916Y500371D01*
X231893Y500440D01*
X231878Y500511D01*
X231795Y500742D01*
X231719Y500977D01*
X231688Y501043D01*
X231664Y501111D01*
X231553Y501330D01*
X231448Y501553D01*
X231409Y501615D01*
X231376Y501680D01*
X231323Y501760D01*
X230293Y504245D01*
X230293Y506555D01*
X231177Y508689D01*
X232811Y510323D01*
X234945Y511207D01*
X237255Y511207D01*
X239389Y510323D01*
X241023Y508689D01*
X241783Y506853D01*
X241905Y506604D01*
X242024Y506352D01*
X242046Y506317D01*
X242064Y506281D01*
X242216Y506049D01*
X242365Y505814D01*
X242391Y505782D01*
X242413Y505748D01*
X242593Y505537D01*
X242770Y505323D01*
X242800Y505295D01*
X242827Y505263D01*
X243032Y505076D01*
X243234Y504886D01*
X243268Y504862D01*
X243298Y504834D01*
X243525Y504675D01*
X243750Y504511D01*
X243785Y504491D01*
X243819Y504468D01*
X244064Y504338D01*
X244307Y504203D01*
X244346Y504188D01*
X244382Y504169D01*
X244641Y504071D01*
X244900Y503968D01*
X244939Y503958D01*
X244978Y503943D01*
X245247Y503878D01*
X245516Y503809D01*
X245557Y503803D01*
X245597Y503794D01*
X245873Y503763D01*
X246148Y503728D01*
X246189Y503728D01*
X246230Y503723D01*
X246508Y503727D01*
X246786Y503727D01*
X246826Y503732D01*
X246867Y503732D01*
X247142Y503771D01*
X247418Y503805D01*
X247458Y503815D01*
X247498Y503821D01*
X247766Y503894D01*
X248035Y503962D01*
X248073Y503978D01*
X248113Y503988D01*
X248369Y504094D01*
X248628Y504196D01*
X248664Y504215D01*
X248702Y504231D01*
X248943Y504368D01*
X249187Y504501D01*
X249220Y504525D01*
X249256Y504546D01*
X249479Y504712D01*
X249704Y504875D01*
X249734Y504903D01*
X249766Y504927D01*
X249967Y505120D01*
X250169Y505309D01*
X250195Y505341D01*
X250225Y505369D01*
X250400Y505586D01*
X250577Y505799D01*
X250599Y505834D01*
X250624Y505866D01*
X250771Y506103D01*
X250920Y506336D01*
X250937Y506373D01*
X250959Y506408D01*
X251073Y506660D01*
X251193Y506912D01*
X251206Y506951D01*
X251222Y506988D01*
X251305Y507253D01*
X251392Y507517D01*
X251399Y507557D01*
X251412Y507597D01*
X251460Y507870D01*
X251513Y508143D01*
X251516Y508183D01*
X251523Y508224D01*
X251539Y508545D01*
X251555Y508796D01*
X251555Y518664D01*
X253043Y522257D01*
X255793Y525007D01*
X259386Y526495D01*
X263274Y526495D01*
X266867Y525007D01*
X269617Y522257D01*
X271105Y518664D01*
X271105Y498276D01*
X269617Y494683D01*
X266867Y491933D01*
X263274Y490445D01*
X259009Y490445D01*
X258773Y490430D01*
X258536Y490423D01*
X258455Y490410D01*
X258373Y490405D01*
X258141Y490361D01*
X257907Y490324D01*
X257828Y490301D01*
X257747Y490286D01*
X257522Y490213D01*
X257295Y490147D01*
X257219Y490115D01*
X257141Y490089D01*
X256927Y489989D01*
X256709Y489895D01*
X256639Y489853D01*
X256565Y489818D01*
X256364Y489692D01*
X256161Y489571D01*
X256096Y489521D01*
X256026Y489477D01*
X255844Y489326D01*
X255656Y489182D01*
X255598Y489124D01*
X255535Y489072D01*
X255373Y488899D01*
X255205Y488732D01*
X255155Y488667D01*
X255099Y488608D01*
X254959Y488416D01*
X254814Y488229D01*
X254772Y488159D01*
X254723Y488093D01*
X254609Y487885D01*
X254488Y487682D01*
X254455Y487606D01*
X254416Y487535D01*
X254328Y487315D01*
X254234Y487097D01*
X254211Y487019D01*
X254181Y486942D01*
X254121Y486713D01*
X254055Y486486D01*
X254042Y486405D01*
X254021Y486326D01*
X253991Y486091D01*
X253953Y485857D01*
X253951Y485775D01*
X253940Y485694D01*
X253940Y485457D01*
X253932Y485220D01*
X253939Y485139D01*
X253939Y485056D01*
X253968Y484821D01*
X253990Y484586D01*
X254008Y484506D01*
X254018Y484424D01*
X254076Y484194D01*
X254127Y483964D01*
X254155Y483886D01*
X254175Y483807D01*
X254262Y483586D01*
X254341Y483363D01*
X254378Y483290D01*
X254408Y483214D01*
X254522Y483006D01*
X254629Y482795D01*
X254674Y482727D01*
X254714Y482655D01*
X254853Y482463D01*
X254985Y482267D01*
X255038Y482206D01*
X255087Y482138D01*
X255264Y481948D01*
X255417Y481774D01*
X264379Y472812D01*
X264434Y472764D01*
X264484Y472711D01*
X264673Y472554D01*
X264857Y472391D01*
X264918Y472350D01*
X264974Y472303D01*
X265181Y472171D01*
X265384Y472033D01*
X265449Y472000D01*
X265511Y471960D01*
X265733Y471855D01*
X265952Y471743D01*
X266020Y471719D01*
X266086Y471687D01*
X266320Y471610D01*
X266551Y471527D01*
X266622Y471511D01*
X266692Y471488D01*
X266933Y471442D01*
X267173Y471388D01*
X267245Y471381D01*
X267317Y471367D01*
X267548Y471352D01*
X267807Y471327D01*
X267891Y471330D01*
X267971Y471325D01*
X331409Y471325D01*
X331482Y471329D01*
X331555Y471327D01*
X331800Y471349D01*
X332045Y471365D01*
X332116Y471378D01*
X332189Y471385D01*
X332429Y471438D01*
X332671Y471484D01*
X332740Y471507D01*
X332811Y471522D01*
X333042Y471605D01*
X333277Y471681D01*
X333343Y471712D01*
X333411Y471736D01*
X333630Y471847D01*
X333853Y471952D01*
X333915Y471991D01*
X333980Y472024D01*
X334060Y472077D01*
X336545Y473107D01*
X336902Y473107D01*
X337057Y473116D01*
X337212Y473116D01*
X337374Y473136D01*
X337538Y473147D01*
X337690Y473176D01*
X337844Y473195D01*
X338003Y473235D01*
X338164Y473266D01*
X338311Y473314D01*
X338461Y473352D01*
X338614Y473412D01*
X338770Y473463D01*
X338910Y473528D01*
X339054Y473585D01*
X339198Y473664D01*
X339346Y473734D01*
X339477Y473816D01*
X339613Y473891D01*
X339746Y473987D01*
X339885Y474075D01*
X340004Y474173D01*
X340130Y474264D01*
X340249Y474376D01*
X340376Y474480D01*
X340482Y474593D01*
X340595Y474699D01*
X340700Y474825D01*
X340812Y474944D01*
X340904Y475070D01*
X341003Y475189D01*
X341091Y475327D01*
X341187Y475459D01*
X341262Y475595D01*
X341346Y475726D01*
X341416Y475874D01*
X341495Y476017D01*
X341552Y476161D01*
X341619Y476301D01*
X341670Y476457D01*
X341730Y476610D01*
X341769Y476760D01*
X341818Y476907D01*
X341849Y477068D01*
X341890Y477226D01*
X341909Y477380D01*
X341939Y477532D01*
X341949Y477691D01*
X341971Y477858D01*
X341971Y478027D01*
X341981Y478186D01*
X341981Y493323D01*
X341977Y493396D01*
X341979Y493469D01*
X341957Y493714D01*
X341941Y493959D01*
X341928Y494030D01*
X341921Y494103D01*
X341868Y494343D01*
X341822Y494585D01*
X341799Y494654D01*
X341784Y494725D01*
X341701Y494956D01*
X341625Y495191D01*
X341594Y495257D01*
X341570Y495326D01*
X341459Y495545D01*
X341354Y495767D01*
X341315Y495829D01*
X341282Y495894D01*
X341145Y496098D01*
X341013Y496306D01*
X340967Y496362D01*
X340926Y496422D01*
X340773Y496596D01*
X340608Y496797D01*
X340547Y496854D01*
X340494Y496915D01*
X339303Y498106D01*
X339248Y498154D01*
X339198Y498207D01*
X339009Y498365D01*
X338825Y498527D01*
X338764Y498568D01*
X338708Y498615D01*
X338501Y498747D01*
X338298Y498885D01*
X338233Y498918D01*
X338171Y498958D01*
X337949Y499063D01*
X337730Y499175D01*
X337662Y499199D01*
X337596Y499231D01*
X337362Y499307D01*
X337131Y499391D01*
X337060Y499407D01*
X336990Y499430D01*
X336896Y499448D01*
X334411Y500477D01*
X332777Y502111D01*
X331893Y504245D01*
X331893Y506555D01*
X332777Y508689D01*
X334411Y510323D01*
X336545Y511207D01*
X338855Y511207D01*
X340989Y510323D01*
X342623Y508689D01*
X343651Y506208D01*
X343666Y506127D01*
X343689Y506058D01*
X343704Y505987D01*
X343787Y505756D01*
X343863Y505521D01*
X343894Y505455D01*
X343918Y505386D01*
X344029Y505167D01*
X344134Y504945D01*
X344173Y504883D01*
X344206Y504818D01*
X344343Y504614D01*
X344475Y504406D01*
X344521Y504350D01*
X344562Y504290D01*
X344715Y504116D01*
X344880Y503915D01*
X344941Y503858D01*
X344994Y503797D01*
X349418Y499374D01*
X350031Y497895D01*
X350031Y463059D01*
X349418Y461580D01*
X343420Y455582D01*
X341941Y454969D01*
X262479Y454969D01*
G37*
%LPD*%
%LPC*%
G36*
X129407Y116485D02*
X129407Y116485D01*
X126075Y117865D01*
X123525Y120415D01*
X122145Y123747D01*
X122145Y127353D01*
X123525Y130685D01*
X126075Y133235D01*
X126854Y133557D01*
X127067Y133662D01*
X127283Y133759D01*
X127353Y133802D01*
X127426Y133838D01*
X127625Y133968D01*
X127826Y134091D01*
X127890Y134142D01*
X127959Y134187D01*
X128140Y134342D01*
X128324Y134489D01*
X128381Y134548D01*
X128444Y134601D01*
X128603Y134776D01*
X128768Y134946D01*
X128817Y135011D01*
X128873Y135072D01*
X129009Y135266D01*
X129151Y135455D01*
X129192Y135526D01*
X129239Y135593D01*
X129350Y135802D01*
X129468Y136008D01*
X129500Y136083D01*
X129538Y136156D01*
X129622Y136377D01*
X129713Y136596D01*
X129735Y136675D01*
X129764Y136752D01*
X129819Y136982D01*
X129882Y137210D01*
X129894Y137291D01*
X129913Y137371D01*
X129939Y137607D01*
X129973Y137841D01*
X129975Y137923D01*
X129984Y138004D01*
X129980Y138241D01*
X129985Y138478D01*
X129976Y138559D01*
X129975Y138641D01*
X129942Y138876D01*
X129916Y139111D01*
X129897Y139191D01*
X129886Y139272D01*
X129824Y139501D01*
X129769Y139731D01*
X129740Y139808D01*
X129719Y139887D01*
X129629Y140106D01*
X129545Y140328D01*
X129507Y140401D01*
X129476Y140476D01*
X129359Y140682D01*
X129249Y140892D01*
X129202Y140959D01*
X129161Y141030D01*
X129019Y141220D01*
X128884Y141414D01*
X128829Y141475D01*
X128780Y141540D01*
X128615Y141711D01*
X128457Y141887D01*
X128394Y141940D01*
X128337Y141999D01*
X128153Y142148D01*
X127973Y142302D01*
X127905Y142347D01*
X127841Y142399D01*
X127640Y142523D01*
X127442Y142653D01*
X127370Y142689D01*
X127299Y142733D01*
X127062Y142840D01*
X126854Y142943D01*
X126075Y143265D01*
X123525Y145815D01*
X122145Y149147D01*
X122145Y152753D01*
X123525Y156085D01*
X126075Y158635D01*
X129407Y160015D01*
X148093Y160015D01*
X151425Y158635D01*
X153975Y156085D01*
X155355Y152753D01*
X155355Y149147D01*
X153975Y145815D01*
X151425Y143265D01*
X150646Y142943D01*
X150433Y142838D01*
X150217Y142741D01*
X150147Y142698D01*
X150074Y142662D01*
X149875Y142532D01*
X149674Y142409D01*
X149610Y142358D01*
X149541Y142313D01*
X149360Y142159D01*
X149176Y142011D01*
X149119Y141952D01*
X149056Y141899D01*
X148897Y141724D01*
X148732Y141554D01*
X148682Y141489D01*
X148627Y141428D01*
X148491Y141235D01*
X148349Y141045D01*
X148308Y140974D01*
X148261Y140907D01*
X148150Y140698D01*
X148032Y140492D01*
X148000Y140417D01*
X147962Y140344D01*
X147878Y140123D01*
X147787Y139904D01*
X147765Y139825D01*
X147736Y139748D01*
X147681Y139518D01*
X147618Y139290D01*
X147606Y139209D01*
X147587Y139129D01*
X147561Y138894D01*
X147527Y138659D01*
X147525Y138577D01*
X147516Y138496D01*
X147520Y138260D01*
X147515Y138022D01*
X147524Y137941D01*
X147525Y137859D01*
X147558Y137624D01*
X147584Y137389D01*
X147603Y137309D01*
X147614Y137228D01*
X147676Y136999D01*
X147731Y136769D01*
X147760Y136692D01*
X147781Y136613D01*
X147871Y136394D01*
X147955Y136172D01*
X147993Y136100D01*
X148024Y136024D01*
X148141Y135818D01*
X148251Y135608D01*
X148298Y135541D01*
X148339Y135470D01*
X148480Y135280D01*
X148616Y135086D01*
X148671Y135025D01*
X148720Y134960D01*
X148884Y134789D01*
X149043Y134614D01*
X149106Y134560D01*
X149162Y134501D01*
X149347Y134353D01*
X149526Y134198D01*
X149595Y134153D01*
X149659Y134102D01*
X149861Y133977D01*
X150058Y133847D01*
X150130Y133811D01*
X150201Y133767D01*
X150438Y133660D01*
X150646Y133557D01*
X151425Y133235D01*
X153975Y130685D01*
X155355Y127353D01*
X155355Y123747D01*
X153975Y120415D01*
X151425Y117865D01*
X148093Y116485D01*
X129407Y116485D01*
G37*
%LPD*%
%LPC*%
G36*
X462596Y490445D02*
X462596Y490445D01*
X459003Y491933D01*
X456253Y494683D01*
X454765Y498276D01*
X454765Y518664D01*
X456253Y522257D01*
X459003Y525007D01*
X462596Y526495D01*
X466484Y526495D01*
X470077Y525007D01*
X472827Y522257D01*
X474315Y518664D01*
X474315Y498276D01*
X472827Y494683D01*
X470077Y491933D01*
X466484Y490445D01*
X462596Y490445D01*
G37*
%LPD*%
%LPC*%
G36*
X412596Y490445D02*
X412596Y490445D01*
X409003Y491933D01*
X406253Y494683D01*
X404765Y498276D01*
X404765Y518664D01*
X406253Y522257D01*
X409003Y525007D01*
X412596Y526495D01*
X416484Y526495D01*
X420077Y525007D01*
X422827Y522257D01*
X424315Y518664D01*
X424315Y498276D01*
X422827Y494683D01*
X420077Y491933D01*
X416484Y490445D01*
X412596Y490445D01*
G37*
%LPD*%
%LPC*%
G36*
X309386Y490445D02*
X309386Y490445D01*
X305793Y491933D01*
X303043Y494683D01*
X301555Y498276D01*
X301555Y518664D01*
X303043Y522257D01*
X305793Y525007D01*
X309386Y526495D01*
X313274Y526495D01*
X316867Y525007D01*
X319617Y522257D01*
X321105Y518664D01*
X321105Y498276D01*
X319617Y494683D01*
X316867Y491933D01*
X313274Y490445D01*
X309386Y490445D01*
G37*
%LPD*%
%LPC*%
G36*
X38306Y364225D02*
X38306Y364225D01*
X34713Y365713D01*
X31963Y368463D01*
X30475Y372056D01*
X30475Y375944D01*
X31963Y379537D01*
X34713Y382287D01*
X38306Y383775D01*
X58694Y383775D01*
X62287Y382287D01*
X65037Y379537D01*
X66525Y375944D01*
X66525Y372056D01*
X65037Y368463D01*
X62287Y365713D01*
X58694Y364225D01*
X38306Y364225D01*
G37*
%LPD*%
%LPC*%
G36*
X38306Y156225D02*
X38306Y156225D01*
X34713Y157713D01*
X31963Y160463D01*
X30475Y164056D01*
X30475Y167944D01*
X31963Y171537D01*
X34713Y174287D01*
X38306Y175775D01*
X58694Y175775D01*
X62287Y174287D01*
X65037Y171537D01*
X66525Y167944D01*
X66525Y164056D01*
X65037Y160463D01*
X62287Y157713D01*
X58694Y156225D01*
X38306Y156225D01*
G37*
%LPD*%
%LPC*%
G36*
X38306Y106225D02*
X38306Y106225D01*
X34713Y107713D01*
X31963Y110463D01*
X30475Y114056D01*
X30475Y117944D01*
X31963Y121537D01*
X34713Y124287D01*
X38306Y125775D01*
X58694Y125775D01*
X62287Y124287D01*
X65037Y121537D01*
X66525Y117944D01*
X66525Y114056D01*
X65037Y110463D01*
X62287Y107713D01*
X58694Y106225D01*
X38306Y106225D01*
G37*
%LPD*%
%LPC*%
G36*
X430410Y325059D02*
X430410Y325059D01*
X420581Y325059D01*
X425329Y329807D01*
X425431Y329923D01*
X425541Y330032D01*
X425642Y330162D01*
X425750Y330285D01*
X425837Y330413D01*
X425932Y330535D01*
X426016Y330676D01*
X426108Y330812D01*
X426179Y330950D01*
X426258Y331083D01*
X426323Y331233D01*
X426398Y331379D01*
X426450Y331525D01*
X426512Y331667D01*
X426558Y331824D01*
X426614Y331979D01*
X426648Y332130D01*
X426691Y332278D01*
X426717Y332440D01*
X426753Y332600D01*
X426768Y332755D01*
X426792Y332907D01*
X426798Y333071D01*
X426814Y333235D01*
X426809Y333389D01*
X426814Y333544D01*
X426799Y333708D01*
X426794Y333871D01*
X426770Y334024D01*
X426756Y334179D01*
X426721Y334339D01*
X426695Y334501D01*
X426652Y334650D01*
X426619Y334801D01*
X426564Y334955D01*
X426518Y335113D01*
X426457Y335255D01*
X426405Y335401D01*
X426331Y335547D01*
X426266Y335698D01*
X426187Y335831D01*
X426117Y335970D01*
X426026Y336106D01*
X425942Y336247D01*
X425848Y336369D01*
X425761Y336498D01*
X425656Y336618D01*
X425553Y336751D01*
X425434Y336870D01*
X425329Y336990D01*
X422334Y339984D01*
X420884Y343485D01*
X420884Y347275D01*
X422334Y350776D01*
X425014Y353456D01*
X428515Y354906D01*
X432305Y354906D01*
X435806Y353456D01*
X438486Y350776D01*
X439936Y347275D01*
X439936Y343485D01*
X438486Y339984D01*
X435491Y336990D01*
X435389Y336874D01*
X435279Y336764D01*
X435179Y336635D01*
X435070Y336512D01*
X434983Y336384D01*
X434888Y336262D01*
X434804Y336121D01*
X434712Y335985D01*
X434641Y335847D01*
X434562Y335714D01*
X434497Y335564D01*
X434422Y335418D01*
X434370Y335272D01*
X434308Y335130D01*
X434262Y334972D01*
X434206Y334818D01*
X434172Y334667D01*
X434129Y334518D01*
X434103Y334357D01*
X434067Y334197D01*
X434052Y334042D01*
X434028Y333889D01*
X434022Y333725D01*
X434006Y333562D01*
X434011Y333408D01*
X434006Y333253D01*
X434021Y333089D01*
X434026Y332925D01*
X434050Y332772D01*
X434064Y332618D01*
X434099Y332458D01*
X434125Y332296D01*
X434168Y332147D01*
X434201Y331996D01*
X434256Y331842D01*
X434302Y331684D01*
X434363Y331542D01*
X434415Y331396D01*
X434489Y331250D01*
X434554Y331099D01*
X434633Y330965D01*
X434703Y330827D01*
X434794Y330691D01*
X434878Y330550D01*
X434972Y330427D01*
X435059Y330299D01*
X435164Y330179D01*
X435267Y330046D01*
X435386Y329926D01*
X435491Y329807D01*
X440239Y325059D01*
X430410Y325059D01*
X430410Y325059D01*
G37*
%LPD*%
%LPC*%
G36*
X142120Y326329D02*
X142120Y326329D01*
X132291Y326329D01*
X137039Y331077D01*
X137141Y331193D01*
X137251Y331302D01*
X137351Y331432D01*
X137460Y331555D01*
X137547Y331683D01*
X137642Y331805D01*
X137726Y331946D01*
X137818Y332082D01*
X137889Y332220D01*
X137968Y332353D01*
X138033Y332503D01*
X138108Y332649D01*
X138160Y332795D01*
X138222Y332937D01*
X138268Y333094D01*
X138324Y333249D01*
X138358Y333400D01*
X138401Y333548D01*
X138427Y333710D01*
X138463Y333870D01*
X138478Y334024D01*
X138502Y334177D01*
X138508Y334341D01*
X138524Y334504D01*
X138519Y334659D01*
X138524Y334814D01*
X138509Y334977D01*
X138504Y335141D01*
X138480Y335294D01*
X138466Y335449D01*
X138431Y335609D01*
X138405Y335771D01*
X138362Y335920D01*
X138329Y336071D01*
X138274Y336225D01*
X138228Y336383D01*
X138167Y336525D01*
X138115Y336671D01*
X138041Y336817D01*
X137976Y336968D01*
X137897Y337101D01*
X137827Y337240D01*
X137736Y337375D01*
X137652Y337517D01*
X137558Y337639D01*
X137471Y337768D01*
X137366Y337887D01*
X137263Y338021D01*
X137144Y338140D01*
X137039Y338260D01*
X134044Y341254D01*
X132594Y344755D01*
X132594Y348545D01*
X134044Y352046D01*
X136724Y354726D01*
X140225Y356176D01*
X144015Y356176D01*
X147516Y354726D01*
X150196Y352046D01*
X151646Y348545D01*
X151646Y344755D01*
X150196Y341254D01*
X147201Y338260D01*
X147099Y338144D01*
X146989Y338034D01*
X146889Y337905D01*
X146780Y337782D01*
X146693Y337654D01*
X146598Y337532D01*
X146514Y337391D01*
X146422Y337255D01*
X146351Y337117D01*
X146272Y336984D01*
X146207Y336834D01*
X146132Y336688D01*
X146080Y336542D01*
X146018Y336400D01*
X145972Y336242D01*
X145916Y336088D01*
X145882Y335937D01*
X145839Y335788D01*
X145813Y335627D01*
X145777Y335467D01*
X145762Y335312D01*
X145738Y335159D01*
X145732Y334995D01*
X145716Y334832D01*
X145721Y334678D01*
X145716Y334523D01*
X145731Y334359D01*
X145736Y334195D01*
X145760Y334042D01*
X145774Y333888D01*
X145809Y333728D01*
X145835Y333566D01*
X145878Y333417D01*
X145911Y333266D01*
X145966Y333112D01*
X146012Y332954D01*
X146073Y332812D01*
X146125Y332666D01*
X146199Y332520D01*
X146264Y332369D01*
X146343Y332235D01*
X146413Y332097D01*
X146504Y331961D01*
X146588Y331820D01*
X146682Y331697D01*
X146769Y331569D01*
X146874Y331449D01*
X146977Y331316D01*
X147096Y331196D01*
X147201Y331077D01*
X151949Y326329D01*
X142120Y326329D01*
X142120Y326329D01*
G37*
%LPD*%
%LPC*%
G36*
X228895Y249443D02*
X228895Y249443D01*
X226852Y250289D01*
X225289Y251852D01*
X224693Y253293D01*
X224589Y253505D01*
X224491Y253721D01*
X224448Y253791D01*
X224412Y253865D01*
X224283Y254063D01*
X224159Y254265D01*
X224108Y254329D01*
X224063Y254398D01*
X223909Y254577D01*
X223761Y254763D01*
X223702Y254820D01*
X223649Y254882D01*
X223520Y255000D01*
X223636Y255105D01*
X223690Y255167D01*
X223749Y255224D01*
X223897Y255408D01*
X224052Y255588D01*
X224097Y255656D01*
X224148Y255720D01*
X224273Y255922D01*
X224403Y256119D01*
X224439Y256191D01*
X224483Y256263D01*
X224590Y256499D01*
X224693Y256707D01*
X225289Y258148D01*
X226852Y259711D01*
X228293Y260307D01*
X228505Y260411D01*
X228721Y260509D01*
X228791Y260552D01*
X228865Y260588D01*
X229063Y260717D01*
X229265Y260841D01*
X229329Y260892D01*
X229398Y260937D01*
X229577Y261091D01*
X229763Y261239D01*
X229820Y261298D01*
X229882Y261351D01*
X230000Y261480D01*
X230105Y261364D01*
X230167Y261310D01*
X230224Y261251D01*
X230408Y261103D01*
X230588Y260948D01*
X230656Y260903D01*
X230720Y260852D01*
X230922Y260727D01*
X231119Y260597D01*
X231191Y260561D01*
X231263Y260517D01*
X231499Y260410D01*
X231707Y260307D01*
X233148Y259711D01*
X234711Y258148D01*
X235557Y256105D01*
X235557Y253895D01*
X234711Y251852D01*
X233148Y250289D01*
X231105Y249443D01*
X228895Y249443D01*
G37*
%LPD*%
%LPC*%
G36*
X333895Y269443D02*
X333895Y269443D01*
X331852Y270289D01*
X330289Y271852D01*
X329693Y273293D01*
X329589Y273505D01*
X329491Y273721D01*
X329448Y273791D01*
X329412Y273865D01*
X329283Y274063D01*
X329159Y274265D01*
X329108Y274329D01*
X329063Y274398D01*
X328909Y274577D01*
X328761Y274763D01*
X328702Y274820D01*
X328649Y274882D01*
X328520Y275000D01*
X328636Y275105D01*
X328690Y275167D01*
X328749Y275224D01*
X328897Y275408D01*
X329052Y275588D01*
X329097Y275656D01*
X329148Y275720D01*
X329273Y275922D01*
X329403Y276119D01*
X329439Y276191D01*
X329483Y276263D01*
X329590Y276499D01*
X329693Y276707D01*
X330289Y278148D01*
X331852Y279711D01*
X333895Y280557D01*
X336105Y280557D01*
X338148Y279711D01*
X339711Y278148D01*
X340557Y276105D01*
X340557Y273895D01*
X339711Y271852D01*
X338148Y270289D01*
X336105Y269443D01*
X333895Y269443D01*
G37*
%LPD*%
%LPC*%
G36*
X229895Y268636D02*
X229895Y268636D01*
X229833Y268690D01*
X229776Y268749D01*
X229591Y268898D01*
X229412Y269052D01*
X229344Y269097D01*
X229280Y269149D01*
X229078Y269273D01*
X228881Y269403D01*
X228808Y269439D01*
X228737Y269483D01*
X228500Y269591D01*
X228293Y269693D01*
X226852Y270289D01*
X225289Y271852D01*
X224443Y273895D01*
X224443Y276105D01*
X225289Y278148D01*
X226852Y279711D01*
X228895Y280557D01*
X231105Y280557D01*
X233148Y279711D01*
X234711Y278148D01*
X235557Y276105D01*
X235557Y273895D01*
X234711Y271852D01*
X233148Y270289D01*
X231707Y269693D01*
X231495Y269589D01*
X231279Y269491D01*
X231209Y269448D01*
X231135Y269412D01*
X230937Y269282D01*
X230735Y269159D01*
X230671Y269108D01*
X230603Y269063D01*
X230422Y268909D01*
X230237Y268761D01*
X230180Y268702D01*
X230118Y268649D01*
X230000Y268520D01*
X229895Y268636D01*
G37*
%LPD*%
%LPC*%
G36*
X208895Y249443D02*
X208895Y249443D01*
X206852Y250289D01*
X205289Y251852D01*
X204443Y253895D01*
X204443Y256105D01*
X205289Y258148D01*
X206852Y259711D01*
X208895Y260557D01*
X211105Y260557D01*
X213148Y259711D01*
X214711Y258148D01*
X215307Y256707D01*
X215411Y256495D01*
X215509Y256279D01*
X215552Y256209D01*
X215588Y256135D01*
X215718Y255937D01*
X215841Y255735D01*
X215892Y255671D01*
X215937Y255603D01*
X216091Y255422D01*
X216239Y255237D01*
X216298Y255180D01*
X216351Y255118D01*
X216480Y255000D01*
X216364Y254895D01*
X216310Y254833D01*
X216251Y254776D01*
X216102Y254591D01*
X215948Y254412D01*
X215903Y254344D01*
X215851Y254280D01*
X215727Y254078D01*
X215597Y253881D01*
X215561Y253808D01*
X215517Y253737D01*
X215409Y253500D01*
X215307Y253293D01*
X214711Y251852D01*
X213148Y250289D01*
X211105Y249443D01*
X208895Y249443D01*
G37*
%LPD*%
%LPC*%
G36*
X163099Y513549D02*
X163099Y513549D01*
X163099Y526243D01*
X163676Y525949D01*
X165050Y524951D01*
X166251Y523750D01*
X167249Y522376D01*
X168020Y520862D01*
X168545Y519247D01*
X168811Y517569D01*
X168811Y513549D01*
X163099Y513549D01*
G37*
%LPD*%
%LPC*%
G36*
X53579Y429079D02*
X53579Y429079D01*
X53579Y434791D01*
X57599Y434791D01*
X59277Y434525D01*
X60892Y434000D01*
X62406Y433229D01*
X63780Y432231D01*
X64981Y431030D01*
X65979Y429656D01*
X66273Y429079D01*
X53579Y429079D01*
G37*
%LPD*%
%LPC*%
G36*
X163099Y503391D02*
X163099Y503391D01*
X168811Y503391D01*
X168811Y499371D01*
X168545Y497693D01*
X168020Y496078D01*
X167249Y494564D01*
X166251Y493190D01*
X165050Y491989D01*
X163676Y490991D01*
X163099Y490697D01*
X163099Y503391D01*
G37*
%LPD*%
%LPC*%
G36*
X30727Y429079D02*
X30727Y429079D01*
X31021Y429656D01*
X32019Y431030D01*
X33220Y432231D01*
X34594Y433229D01*
X36108Y434000D01*
X37723Y434525D01*
X39401Y434791D01*
X43421Y434791D01*
X43421Y429079D01*
X30727Y429079D01*
G37*
%LPD*%
%LPC*%
G36*
X147229Y513549D02*
X147229Y513549D01*
X147229Y517569D01*
X147495Y519247D01*
X148020Y520862D01*
X148791Y522376D01*
X149789Y523750D01*
X150990Y524951D01*
X152364Y525949D01*
X152941Y526243D01*
X152941Y513549D01*
X147229Y513549D01*
G37*
%LPD*%
%LPC*%
G36*
X53579Y413209D02*
X53579Y413209D01*
X53579Y418921D01*
X66273Y418921D01*
X65979Y418344D01*
X64981Y416970D01*
X63780Y415769D01*
X62406Y414771D01*
X60892Y414000D01*
X59277Y413475D01*
X57599Y413209D01*
X53579Y413209D01*
G37*
%LPD*%
%LPC*%
G36*
X152364Y490991D02*
X152364Y490991D01*
X150990Y491989D01*
X149789Y493190D01*
X148791Y494564D01*
X148020Y496078D01*
X147495Y497693D01*
X147229Y499371D01*
X147229Y503391D01*
X152941Y503391D01*
X152941Y490697D01*
X152364Y490991D01*
G37*
%LPD*%
%LPC*%
G36*
X39401Y413209D02*
X39401Y413209D01*
X37723Y413475D01*
X36108Y414000D01*
X34594Y414771D01*
X33220Y415769D01*
X32019Y416970D01*
X31021Y418344D01*
X30727Y418921D01*
X43421Y418921D01*
X43421Y413209D01*
X39401Y413209D01*
G37*
%LPD*%
%LPC*%
G36*
X147199Y316171D02*
X147199Y316171D01*
X151949Y316171D01*
X147199Y311421D01*
X147199Y316171D01*
G37*
%LPD*%
%LPC*%
G36*
X435489Y314901D02*
X435489Y314901D01*
X440239Y314901D01*
X435489Y310151D01*
X435489Y314901D01*
G37*
%LPD*%
%LPC*%
G36*
X132291Y316171D02*
X132291Y316171D01*
X137041Y316171D01*
X137041Y311421D01*
X132291Y316171D01*
G37*
%LPD*%
%LPC*%
G36*
X420581Y314901D02*
X420581Y314901D01*
X425331Y314901D01*
X425331Y310151D01*
X420581Y314901D01*
G37*
%LPD*%
D10*
X430410Y345380D03*
D11*
X430410Y319980D03*
D10*
X142120Y346650D03*
D11*
X142120Y321250D03*
D12*
X311330Y500220D02*
X311330Y516720D01*
X261330Y516720D02*
X261330Y500220D01*
X158020Y500220D02*
X158020Y516720D01*
X108020Y516720D02*
X108020Y500220D01*
X464540Y500220D02*
X464540Y516720D01*
X414540Y516720D02*
X414540Y500220D01*
X56750Y424000D02*
X40250Y424000D01*
X40250Y374000D02*
X56750Y374000D01*
X56750Y166000D02*
X40250Y166000D01*
X40250Y116000D02*
X56750Y116000D01*
D13*
X131210Y150950D02*
X146290Y150950D01*
X146290Y125550D02*
X131210Y125550D01*
D14*
X280000Y441250D03*
X295000Y448500D03*
X280000Y423500D03*
X295000Y430750D03*
D15*
X351670Y386020D03*
D14*
X235000Y145000D03*
D16*
X254976Y289326D02*
X351670Y386020D01*
X254995Y164995D02*
X235000Y145000D01*
X254995Y164995D02*
X254976Y289326D01*
D15*
X351670Y373320D03*
D14*
X235000Y120000D03*
D16*
X350123Y373320D02*
X351670Y373320D01*
X262154Y285351D02*
X262154Y147154D01*
X235000Y120000D01*
X262154Y285351D02*
X350123Y373320D01*
D17*
X180000Y175000D03*
D18*
X108020Y246980D02*
X108020Y508470D01*
X108020Y246980D02*
X180000Y175000D01*
D14*
X217050Y363160D03*
D19*
X217050Y372160D02*
X244366Y399476D01*
X217050Y372160D02*
X217050Y363160D01*
X357750Y399476D02*
X375000Y382226D01*
X357750Y399476D02*
X244366Y399476D01*
X375000Y382226D02*
X375000Y208447D01*
D14*
X505000Y95000D03*
D16*
X488447Y95000D02*
X375000Y208447D01*
X488447Y95000D02*
X505000Y95000D01*
D14*
X217050Y384750D03*
D19*
X238300Y406000D01*
X361000Y406000D01*
X382000Y385000D01*
X382000Y215210D01*
D14*
X505000Y120000D03*
D16*
X477210Y120000D02*
X382000Y215210D01*
X477210Y120000D02*
X505000Y120000D01*
D14*
X183000Y364000D03*
D19*
X231524Y412524D01*
X363702Y412524D02*
X388824Y387402D01*
X388824Y220700D01*
X363702Y412524D02*
X231524Y412524D01*
D14*
X505000Y145000D03*
D16*
X464524Y145000D02*
X388824Y220700D01*
X464524Y145000D02*
X505000Y145000D01*
D14*
X236100Y505400D03*
X337700Y467300D03*
D19*
X264200Y467300D02*
X236100Y495400D01*
X236100Y505400D01*
X264200Y467300D02*
X337700Y467300D01*
D14*
X236100Y467300D03*
X337700Y505400D03*
D19*
X346006Y463860D02*
X341141Y458994D01*
X254974Y467300D02*
X236100Y467300D01*
X263280Y458994D02*
X341141Y458994D01*
X263280Y458994D02*
X254974Y467300D01*
X337700Y505400D02*
X346006Y497094D01*
X346006Y463860D01*
D20*
X210000Y255000D03*
X230000Y275000D03*
X230000Y255000D03*
X275000Y255000D03*
X295000Y255000D03*
X315000Y255000D03*
X295000Y275000D03*
X315000Y275000D03*
X335000Y275000D03*
X275000Y275000D03*
M02*
