G04 EAGLE Gerber RS-274X export*
G75*
%MOMM*%
%FSLAX34Y34*%
%LPD*%
%INSoldermask Bottom*%
%IPNEG*%
%AMOC8*
5,1,8,0,0,1.08239X$1,22.5*%
G01*
%ADD10C,3.603200*%
%ADD11C,2.203200*%
%ADD12C,1.803400*%
%ADD13P,1.951982X8X292.500000*%
%ADD14C,1.853200*%
%ADD15C,1.703200*%
%ADD16C,1.059600*%
%ADD17C,0.959600*%
%ADD18C,1.209600*%


D10*
X40000Y40000D03*
X510000Y40000D03*
X519000Y515000D03*
X39000Y515000D03*
D11*
X269120Y91390D03*
X294520Y91390D03*
X294520Y65990D03*
X269120Y65990D03*
X269120Y40590D03*
X294520Y40590D03*
D12*
X430410Y345380D03*
D13*
X430410Y319980D03*
D12*
X142120Y346650D03*
D13*
X142120Y321250D03*
D14*
X311330Y500220D02*
X311330Y516720D01*
X261330Y516720D02*
X261330Y500220D01*
X158020Y500220D02*
X158020Y516720D01*
X108020Y516720D02*
X108020Y500220D01*
X464540Y500220D02*
X464540Y516720D01*
X414540Y516720D02*
X414540Y500220D01*
X66750Y319000D02*
X50250Y319000D01*
X50250Y269000D02*
X66750Y269000D01*
X66750Y166000D02*
X50250Y166000D01*
X50250Y116000D02*
X66750Y116000D01*
D15*
X286500Y164500D03*
X254000Y164500D03*
X219000Y164500D03*
X234000Y207000D03*
X269000Y207000D03*
X304000Y207000D03*
D16*
X310500Y291250D03*
X263000Y291500D03*
X280000Y441250D03*
X295000Y448500D03*
X280000Y423500D03*
X295000Y430750D03*
D17*
X351670Y386020D03*
D16*
X150000Y160000D03*
D17*
X351670Y373320D03*
D16*
X150000Y135000D03*
D15*
X104000Y212000D03*
D18*
X134000Y287000D03*
X146500Y267000D03*
X159000Y287000D03*
X171500Y267000D03*
X184000Y287000D03*
X196500Y267000D03*
X209000Y287000D03*
D16*
X217050Y363160D03*
X425000Y110000D03*
X217050Y384750D03*
X425000Y135000D03*
X183000Y364000D03*
X425000Y160000D03*
X236100Y505400D03*
X337700Y467300D03*
X236100Y467300D03*
X337700Y505400D03*
M02*
