G04 EAGLE Gerber RS-274X export*
G75*
%MOMM*%
%FSLAX34Y34*%
%LPD*%
%INTop Copper*%
%IPPOS*%
%AMOC8*
5,1,8,0,0,1.08239X$1,22.5*%
G01*
%ADD10R,1.000000X1.100000*%
%ADD11R,1.100000X1.000000*%
%ADD12C,1.600200*%
%ADD13P,1.732040X8X292.500000*%
%ADD14R,0.800000X0.600000*%
%ADD15R,1.500000X1.500000*%
%ADD16R,1.602800X0.475200*%
%ADD17R,4.445000X8.382000*%
%ADD18R,2.540000X1.270000*%
%ADD19C,1.650000*%
%ADD20C,1.270000*%
%ADD21C,0.508000*%
%ADD22C,0.609600*%
%ADD23C,1.300000*%
%ADD24C,0.304800*%
%ADD25C,1.500000*%
%ADD26C,0.856400*%
%ADD27C,0.756400*%
%ADD28C,0.500000*%
%ADD29C,0.490000*%
%ADD30C,1.500000*%
%ADD31C,2.000000*%
%ADD32C,1.006400*%
%ADD33C,1.400000*%
%ADD34C,1.016000*%
%ADD35C,2.540000*%

G36*
X489402Y10176D02*
X489402Y10176D01*
X489639Y10183D01*
X489720Y10196D01*
X489802Y10201D01*
X490034Y10245D01*
X490268Y10282D01*
X490347Y10305D01*
X490428Y10320D01*
X490653Y10393D01*
X490880Y10459D01*
X490955Y10491D01*
X491034Y10517D01*
X491248Y10617D01*
X491465Y10711D01*
X491536Y10753D01*
X491610Y10788D01*
X491810Y10914D01*
X492014Y11035D01*
X492079Y11085D01*
X492148Y11129D01*
X492331Y11280D01*
X492518Y11424D01*
X492576Y11482D01*
X492640Y11534D01*
X492802Y11707D01*
X492970Y11874D01*
X493020Y11939D01*
X493076Y11998D01*
X493215Y12190D01*
X493361Y12377D01*
X493403Y12447D01*
X493451Y12513D01*
X493565Y12721D01*
X493687Y12924D01*
X493719Y13000D01*
X493759Y13071D01*
X493846Y13291D01*
X493941Y13509D01*
X493964Y13587D01*
X493994Y13664D01*
X494053Y13893D01*
X494120Y14120D01*
X494133Y14201D01*
X494154Y14280D01*
X494184Y14515D01*
X494221Y14749D01*
X494224Y14831D01*
X494234Y14912D01*
X494235Y15149D01*
X494243Y15386D01*
X494235Y15467D01*
X494236Y15550D01*
X494206Y15785D01*
X494185Y16020D01*
X494167Y16100D01*
X494157Y16182D01*
X494099Y16411D01*
X494048Y16642D01*
X494020Y16720D01*
X494000Y16799D01*
X493913Y17020D01*
X493834Y17243D01*
X493797Y17316D01*
X493767Y17392D01*
X493653Y17600D01*
X493546Y17811D01*
X493500Y17879D01*
X493461Y17951D01*
X493322Y18143D01*
X493190Y18339D01*
X493137Y18400D01*
X493088Y18468D01*
X492910Y18658D01*
X492757Y18832D01*
X488266Y23323D01*
X484690Y29516D01*
X482839Y36424D01*
X482839Y43576D01*
X484690Y50484D01*
X488266Y56677D01*
X493323Y61734D01*
X499516Y65310D01*
X506424Y67161D01*
X513576Y67161D01*
X520484Y65310D01*
X526677Y61734D01*
X531734Y56677D01*
X535310Y50484D01*
X537161Y43576D01*
X537161Y36424D01*
X535310Y29516D01*
X531734Y23323D01*
X527243Y18832D01*
X527086Y18654D01*
X526924Y18482D01*
X526875Y18415D01*
X526821Y18354D01*
X526688Y18158D01*
X526549Y17966D01*
X526509Y17895D01*
X526463Y17827D01*
X526355Y17616D01*
X526241Y17409D01*
X526211Y17332D01*
X526174Y17259D01*
X526093Y17037D01*
X526006Y16816D01*
X525985Y16737D01*
X525957Y16660D01*
X525906Y16429D01*
X525846Y16200D01*
X525836Y16118D01*
X525818Y16038D01*
X525796Y15803D01*
X525766Y15568D01*
X525765Y15485D01*
X525758Y15404D01*
X525765Y15168D01*
X525764Y14930D01*
X525775Y14849D01*
X525777Y14767D01*
X525814Y14533D01*
X525843Y14298D01*
X525863Y14219D01*
X525876Y14138D01*
X525942Y13910D01*
X526000Y13681D01*
X526030Y13605D01*
X526053Y13526D01*
X526147Y13308D01*
X526233Y13088D01*
X526273Y13016D01*
X526305Y12941D01*
X526425Y12737D01*
X526539Y12529D01*
X526587Y12462D01*
X526629Y12392D01*
X526773Y12204D01*
X526912Y12012D01*
X526968Y11952D01*
X527018Y11888D01*
X527186Y11720D01*
X527347Y11547D01*
X527410Y11494D01*
X527468Y11436D01*
X527655Y11291D01*
X527837Y11139D01*
X527906Y11095D01*
X527971Y11045D01*
X528174Y10924D01*
X528374Y10796D01*
X528448Y10761D01*
X528519Y10719D01*
X528735Y10625D01*
X528950Y10523D01*
X529028Y10498D01*
X529103Y10465D01*
X529330Y10398D01*
X529555Y10324D01*
X529635Y10309D01*
X529714Y10286D01*
X529948Y10248D01*
X530180Y10203D01*
X530261Y10198D01*
X530343Y10185D01*
X530603Y10176D01*
X530834Y10161D01*
X544760Y10161D01*
X544915Y10170D01*
X545070Y10170D01*
X545232Y10190D01*
X545396Y10201D01*
X545548Y10230D01*
X545702Y10249D01*
X545861Y10289D01*
X546022Y10320D01*
X546169Y10368D01*
X546319Y10406D01*
X546472Y10466D01*
X546628Y10517D01*
X546768Y10582D01*
X546912Y10639D01*
X547056Y10718D01*
X547204Y10788D01*
X547335Y10870D01*
X547471Y10945D01*
X547604Y11041D01*
X547743Y11129D01*
X547862Y11227D01*
X547988Y11318D01*
X548107Y11430D01*
X548234Y11534D01*
X548340Y11647D01*
X548453Y11753D01*
X548558Y11879D01*
X548670Y11998D01*
X548762Y12124D01*
X548861Y12243D01*
X548949Y12381D01*
X549045Y12513D01*
X549120Y12649D01*
X549204Y12780D01*
X549274Y12928D01*
X549353Y13071D01*
X549410Y13215D01*
X549477Y13355D01*
X549528Y13511D01*
X549588Y13664D01*
X549627Y13814D01*
X549676Y13961D01*
X549707Y14122D01*
X549748Y14280D01*
X549767Y14434D01*
X549797Y14586D01*
X549807Y14745D01*
X549829Y14912D01*
X549829Y15081D01*
X549839Y15240D01*
X549839Y495166D01*
X549824Y495402D01*
X549817Y495639D01*
X549804Y495720D01*
X549799Y495802D01*
X549755Y496034D01*
X549718Y496268D01*
X549695Y496347D01*
X549680Y496428D01*
X549607Y496653D01*
X549541Y496880D01*
X549509Y496955D01*
X549483Y497034D01*
X549383Y497248D01*
X549289Y497465D01*
X549247Y497536D01*
X549212Y497610D01*
X549086Y497810D01*
X548965Y498014D01*
X548915Y498079D01*
X548871Y498148D01*
X548720Y498331D01*
X548576Y498518D01*
X548518Y498576D01*
X548466Y498640D01*
X548293Y498802D01*
X548126Y498970D01*
X548061Y499020D01*
X548002Y499076D01*
X547810Y499215D01*
X547623Y499361D01*
X547553Y499403D01*
X547487Y499451D01*
X547279Y499565D01*
X547076Y499687D01*
X547000Y499719D01*
X546929Y499759D01*
X546709Y499846D01*
X546491Y499941D01*
X546413Y499964D01*
X546336Y499994D01*
X546107Y500053D01*
X545880Y500120D01*
X545799Y500133D01*
X545720Y500154D01*
X545485Y500184D01*
X545251Y500221D01*
X545169Y500224D01*
X545088Y500234D01*
X544851Y500235D01*
X544614Y500243D01*
X544533Y500235D01*
X544450Y500236D01*
X544215Y500206D01*
X543980Y500185D01*
X543900Y500167D01*
X543818Y500157D01*
X543589Y500099D01*
X543358Y500048D01*
X543280Y500020D01*
X543201Y500000D01*
X542980Y499913D01*
X542757Y499834D01*
X542684Y499797D01*
X542608Y499767D01*
X542400Y499653D01*
X542189Y499546D01*
X542121Y499500D01*
X542049Y499461D01*
X541857Y499322D01*
X541661Y499190D01*
X541600Y499137D01*
X541532Y499088D01*
X541342Y498910D01*
X541168Y498757D01*
X535677Y493266D01*
X529484Y489690D01*
X522576Y487839D01*
X515424Y487839D01*
X508516Y489690D01*
X502323Y493266D01*
X497266Y498323D01*
X493690Y504516D01*
X491839Y511424D01*
X491839Y518576D01*
X493690Y525484D01*
X497266Y531677D01*
X502323Y536734D01*
X508606Y540361D01*
X508825Y540507D01*
X509048Y540649D01*
X509091Y540684D01*
X509136Y540714D01*
X509336Y540886D01*
X509540Y541054D01*
X509577Y541094D01*
X509619Y541130D01*
X509795Y541326D01*
X509976Y541518D01*
X510008Y541563D01*
X510045Y541603D01*
X510196Y541820D01*
X510351Y542034D01*
X510378Y542081D01*
X510409Y542126D01*
X510532Y542361D01*
X510659Y542591D01*
X510679Y542642D01*
X510705Y542691D01*
X510797Y542938D01*
X510894Y543184D01*
X510908Y543237D01*
X510927Y543288D01*
X510988Y543545D01*
X511054Y543800D01*
X511061Y543855D01*
X511073Y543908D01*
X511101Y544171D01*
X511135Y544432D01*
X511135Y544487D01*
X511140Y544542D01*
X511135Y544805D01*
X511136Y545070D01*
X511129Y545124D01*
X511128Y545179D01*
X511090Y545439D01*
X511057Y545702D01*
X511044Y545755D01*
X511036Y545809D01*
X510965Y546063D01*
X510900Y546319D01*
X510880Y546370D01*
X510865Y546423D01*
X510764Y546666D01*
X510667Y546912D01*
X510640Y546960D01*
X510619Y547011D01*
X510488Y547239D01*
X510361Y547471D01*
X510329Y547516D01*
X510302Y547563D01*
X510143Y547773D01*
X509988Y547988D01*
X509951Y548028D01*
X509918Y548071D01*
X509733Y548260D01*
X509553Y548453D01*
X509511Y548488D01*
X509473Y548527D01*
X509266Y548692D01*
X509063Y548861D01*
X509017Y548890D01*
X508974Y548924D01*
X508748Y549062D01*
X508526Y549204D01*
X508477Y549227D01*
X508430Y549256D01*
X508189Y549363D01*
X507951Y549477D01*
X507898Y549494D01*
X507849Y549516D01*
X507596Y549593D01*
X507345Y549676D01*
X507292Y549686D01*
X507239Y549702D01*
X506979Y549747D01*
X506720Y549797D01*
X506666Y549800D01*
X506611Y549810D01*
X506314Y549823D01*
X506066Y549839D01*
X51934Y549839D01*
X51671Y549823D01*
X51407Y549812D01*
X51353Y549803D01*
X51298Y549799D01*
X51039Y549750D01*
X50778Y549706D01*
X50726Y549690D01*
X50672Y549680D01*
X50421Y549598D01*
X50168Y549522D01*
X50118Y549500D01*
X50066Y549483D01*
X49827Y549371D01*
X49586Y549264D01*
X49539Y549236D01*
X49490Y549212D01*
X49267Y549071D01*
X49041Y548935D01*
X48998Y548901D01*
X48952Y548871D01*
X48748Y548703D01*
X48541Y548539D01*
X48502Y548500D01*
X48460Y548466D01*
X48279Y548273D01*
X48094Y548085D01*
X48061Y548041D01*
X48024Y548002D01*
X47868Y547788D01*
X47708Y547578D01*
X47681Y547531D01*
X47649Y547487D01*
X47521Y547255D01*
X47389Y547027D01*
X47367Y546976D01*
X47341Y546929D01*
X47243Y546683D01*
X47141Y546440D01*
X47126Y546387D01*
X47106Y546336D01*
X47040Y546081D01*
X46968Y545827D01*
X46960Y545772D01*
X46946Y545720D01*
X46913Y545458D01*
X46874Y545197D01*
X46872Y545142D01*
X46865Y545088D01*
X46865Y544822D01*
X46859Y544560D01*
X46864Y544505D01*
X46864Y544450D01*
X46897Y544188D01*
X46924Y543926D01*
X46936Y543873D01*
X46943Y543818D01*
X47008Y543562D01*
X47068Y543305D01*
X47087Y543254D01*
X47100Y543201D01*
X47197Y542955D01*
X47288Y542707D01*
X47313Y542659D01*
X47333Y542608D01*
X47460Y542376D01*
X47582Y542142D01*
X47613Y542097D01*
X47639Y542049D01*
X47794Y541835D01*
X47944Y541618D01*
X47980Y541577D01*
X48012Y541532D01*
X48193Y541339D01*
X48368Y541143D01*
X48410Y541107D01*
X48447Y541067D01*
X48650Y540898D01*
X48849Y540725D01*
X48894Y540695D01*
X48937Y540659D01*
X49188Y540499D01*
X49394Y540361D01*
X55677Y536734D01*
X60734Y531677D01*
X64310Y525484D01*
X66161Y518576D01*
X66161Y511424D01*
X64310Y504516D01*
X60734Y498323D01*
X55677Y493266D01*
X49484Y489690D01*
X42576Y487839D01*
X35424Y487839D01*
X28516Y489690D01*
X22323Y493266D01*
X18832Y496757D01*
X18654Y496914D01*
X18482Y497076D01*
X18415Y497125D01*
X18354Y497179D01*
X18158Y497312D01*
X17966Y497451D01*
X17895Y497491D01*
X17827Y497537D01*
X17616Y497645D01*
X17409Y497759D01*
X17332Y497789D01*
X17259Y497826D01*
X17037Y497907D01*
X16816Y497994D01*
X16737Y498015D01*
X16660Y498043D01*
X16429Y498094D01*
X16200Y498154D01*
X16118Y498164D01*
X16038Y498182D01*
X15803Y498204D01*
X15568Y498234D01*
X15485Y498235D01*
X15404Y498242D01*
X15168Y498235D01*
X14930Y498236D01*
X14849Y498225D01*
X14767Y498223D01*
X14533Y498186D01*
X14298Y498157D01*
X14219Y498137D01*
X14138Y498124D01*
X13910Y498058D01*
X13681Y498000D01*
X13604Y497970D01*
X13526Y497947D01*
X13308Y497853D01*
X13088Y497767D01*
X13016Y497727D01*
X12941Y497695D01*
X12737Y497575D01*
X12529Y497461D01*
X12462Y497413D01*
X12392Y497371D01*
X12204Y497227D01*
X12012Y497088D01*
X11952Y497032D01*
X11888Y496982D01*
X11720Y496814D01*
X11547Y496653D01*
X11494Y496590D01*
X11436Y496532D01*
X11291Y496345D01*
X11139Y496163D01*
X11095Y496094D01*
X11045Y496029D01*
X10924Y495826D01*
X10796Y495626D01*
X10761Y495552D01*
X10719Y495481D01*
X10625Y495265D01*
X10523Y495050D01*
X10498Y494972D01*
X10465Y494897D01*
X10398Y494670D01*
X10324Y494445D01*
X10309Y494365D01*
X10286Y494286D01*
X10248Y494052D01*
X10203Y493820D01*
X10198Y493739D01*
X10185Y493657D01*
X10176Y493397D01*
X10161Y493166D01*
X10161Y60834D01*
X10170Y60683D01*
X10170Y60644D01*
X10175Y60602D01*
X10176Y60597D01*
X10183Y60361D01*
X10196Y60280D01*
X10201Y60198D01*
X10245Y59966D01*
X10282Y59732D01*
X10305Y59653D01*
X10320Y59572D01*
X10393Y59347D01*
X10459Y59120D01*
X10491Y59045D01*
X10517Y58966D01*
X10617Y58752D01*
X10711Y58535D01*
X10753Y58464D01*
X10788Y58390D01*
X10914Y58190D01*
X11035Y57986D01*
X11085Y57921D01*
X11129Y57852D01*
X11280Y57669D01*
X11424Y57482D01*
X11482Y57424D01*
X11534Y57360D01*
X11707Y57198D01*
X11874Y57030D01*
X11939Y56980D01*
X11998Y56924D01*
X12190Y56785D01*
X12377Y56639D01*
X12447Y56597D01*
X12513Y56549D01*
X12721Y56435D01*
X12924Y56313D01*
X13000Y56281D01*
X13071Y56241D01*
X13291Y56154D01*
X13509Y56059D01*
X13587Y56036D01*
X13664Y56006D01*
X13893Y55947D01*
X14120Y55880D01*
X14201Y55867D01*
X14280Y55846D01*
X14515Y55816D01*
X14749Y55779D01*
X14831Y55776D01*
X14912Y55766D01*
X15149Y55765D01*
X15386Y55757D01*
X15467Y55765D01*
X15550Y55764D01*
X15785Y55794D01*
X16020Y55815D01*
X16100Y55833D01*
X16182Y55843D01*
X16411Y55901D01*
X16642Y55952D01*
X16720Y55980D01*
X16799Y56000D01*
X17020Y56087D01*
X17243Y56166D01*
X17316Y56203D01*
X17392Y56233D01*
X17600Y56347D01*
X17811Y56454D01*
X17879Y56500D01*
X17951Y56539D01*
X18143Y56678D01*
X18339Y56810D01*
X18400Y56863D01*
X18468Y56912D01*
X18658Y57090D01*
X18832Y57243D01*
X23323Y61734D01*
X29516Y65310D01*
X36424Y67161D01*
X43576Y67161D01*
X50484Y65310D01*
X56677Y61734D01*
X61734Y56677D01*
X65310Y50484D01*
X67161Y43576D01*
X67161Y36424D01*
X65310Y29516D01*
X61734Y23323D01*
X57243Y18832D01*
X57086Y18654D01*
X56924Y18482D01*
X56875Y18415D01*
X56821Y18354D01*
X56688Y18158D01*
X56549Y17966D01*
X56509Y17895D01*
X56463Y17827D01*
X56355Y17616D01*
X56241Y17409D01*
X56211Y17332D01*
X56174Y17259D01*
X56093Y17037D01*
X56006Y16816D01*
X55985Y16737D01*
X55957Y16660D01*
X55906Y16429D01*
X55846Y16200D01*
X55836Y16118D01*
X55818Y16038D01*
X55796Y15803D01*
X55766Y15568D01*
X55765Y15485D01*
X55758Y15404D01*
X55765Y15168D01*
X55764Y14930D01*
X55775Y14849D01*
X55777Y14767D01*
X55814Y14533D01*
X55843Y14298D01*
X55863Y14219D01*
X55876Y14138D01*
X55942Y13910D01*
X56000Y13681D01*
X56030Y13605D01*
X56053Y13526D01*
X56147Y13308D01*
X56233Y13088D01*
X56273Y13016D01*
X56305Y12941D01*
X56425Y12737D01*
X56539Y12529D01*
X56587Y12462D01*
X56629Y12392D01*
X56773Y12204D01*
X56912Y12012D01*
X56968Y11952D01*
X57018Y11888D01*
X57186Y11720D01*
X57347Y11547D01*
X57410Y11494D01*
X57468Y11436D01*
X57655Y11291D01*
X57837Y11139D01*
X57906Y11095D01*
X57971Y11045D01*
X58174Y10924D01*
X58374Y10796D01*
X58448Y10761D01*
X58519Y10719D01*
X58735Y10625D01*
X58950Y10523D01*
X59028Y10498D01*
X59103Y10465D01*
X59330Y10398D01*
X59555Y10324D01*
X59635Y10309D01*
X59714Y10286D01*
X59948Y10248D01*
X60180Y10203D01*
X60261Y10198D01*
X60343Y10185D01*
X60603Y10176D01*
X60834Y10161D01*
X489166Y10161D01*
X489402Y10176D01*
G37*
%LPC*%
G36*
X428284Y50885D02*
X428284Y50885D01*
X425334Y52107D01*
X422363Y55079D01*
X408064Y69378D01*
X301044Y176398D01*
X300989Y176446D01*
X300939Y176499D01*
X300750Y176657D01*
X300566Y176819D01*
X300505Y176860D01*
X300449Y176907D01*
X300242Y177039D01*
X300039Y177177D01*
X299974Y177210D01*
X299912Y177250D01*
X299690Y177355D01*
X299471Y177467D01*
X299403Y177491D01*
X299337Y177523D01*
X299103Y177599D01*
X298872Y177683D01*
X298801Y177699D01*
X298731Y177722D01*
X298490Y177768D01*
X298250Y177822D01*
X298178Y177829D01*
X298106Y177843D01*
X297875Y177858D01*
X297616Y177883D01*
X297533Y177880D01*
X297452Y177885D01*
X142482Y177885D01*
X142205Y177868D01*
X141928Y177855D01*
X141887Y177848D01*
X141846Y177845D01*
X141574Y177793D01*
X141300Y177746D01*
X141260Y177734D01*
X141220Y177726D01*
X140956Y177640D01*
X140691Y177559D01*
X140653Y177542D01*
X140614Y177529D01*
X140363Y177411D01*
X140110Y177297D01*
X140075Y177276D01*
X140038Y177258D01*
X139803Y177110D01*
X139566Y176965D01*
X139534Y176939D01*
X139499Y176917D01*
X139285Y176741D01*
X139068Y176567D01*
X139040Y176538D01*
X139008Y176512D01*
X138818Y176310D01*
X138624Y176110D01*
X138600Y176077D01*
X138572Y176048D01*
X138408Y175823D01*
X138241Y175601D01*
X138221Y175566D01*
X138197Y175533D01*
X138062Y175289D01*
X137925Y175048D01*
X137909Y175010D01*
X137889Y174975D01*
X137787Y174717D01*
X137680Y174460D01*
X137669Y174420D01*
X137654Y174382D01*
X137584Y174114D01*
X137510Y173846D01*
X137505Y173805D01*
X137494Y173766D01*
X137459Y173489D01*
X137419Y173215D01*
X137419Y173175D01*
X137413Y173134D01*
X137413Y172856D01*
X137408Y172578D01*
X137412Y172537D01*
X137412Y172496D01*
X137446Y172221D01*
X137476Y171945D01*
X137486Y171905D01*
X137491Y171864D01*
X137559Y171596D01*
X137624Y171325D01*
X137638Y171286D01*
X137648Y171247D01*
X137750Y170989D01*
X137847Y170728D01*
X137866Y170692D01*
X137881Y170654D01*
X138015Y170410D01*
X138144Y170164D01*
X138167Y170131D01*
X138187Y170095D01*
X138350Y169869D01*
X138509Y169642D01*
X138536Y169612D01*
X138560Y169578D01*
X138749Y169376D01*
X138936Y169170D01*
X138967Y169143D01*
X138995Y169113D01*
X139208Y168936D01*
X139419Y168754D01*
X139453Y168731D01*
X139485Y168705D01*
X139719Y168556D01*
X139950Y168403D01*
X139987Y168385D01*
X140022Y168362D01*
X140314Y168224D01*
X140429Y168167D01*
X140890Y167706D01*
X140901Y167679D01*
X140982Y167537D01*
X141054Y167389D01*
X141139Y167260D01*
X141216Y167125D01*
X141314Y166994D01*
X141404Y166857D01*
X141505Y166739D01*
X141597Y166615D01*
X141711Y166497D01*
X141818Y166372D01*
X141932Y166268D01*
X142040Y166156D01*
X142167Y166054D01*
X142289Y165943D01*
X142415Y165854D01*
X142536Y165757D01*
X142676Y165671D01*
X142810Y165576D01*
X142947Y165504D01*
X143078Y165422D01*
X143228Y165355D01*
X143373Y165278D01*
X143517Y165223D01*
X143658Y165159D01*
X143815Y165110D01*
X143968Y165052D01*
X144119Y165016D01*
X144267Y164970D01*
X144428Y164941D01*
X144588Y164903D01*
X144742Y164885D01*
X144894Y164858D01*
X145058Y164850D01*
X145221Y164832D01*
X145376Y164834D01*
X145531Y164826D01*
X145694Y164839D01*
X145858Y164841D01*
X146011Y164863D01*
X146166Y164874D01*
X146326Y164907D01*
X146489Y164930D01*
X146639Y164971D01*
X146790Y165001D01*
X146941Y165053D01*
X147104Y165097D01*
X147260Y165161D01*
X147410Y165213D01*
X148845Y165807D01*
X151155Y165807D01*
X153289Y164923D01*
X154923Y163289D01*
X155807Y161155D01*
X155807Y158845D01*
X154923Y156711D01*
X153289Y155077D01*
X151155Y154193D01*
X148845Y154193D01*
X146977Y154967D01*
X146869Y155004D01*
X146765Y155049D01*
X146569Y155107D01*
X146375Y155173D01*
X146263Y155196D01*
X146154Y155228D01*
X145952Y155261D01*
X145751Y155303D01*
X145637Y155312D01*
X145525Y155330D01*
X145320Y155337D01*
X145116Y155353D01*
X145002Y155348D01*
X144888Y155351D01*
X144684Y155333D01*
X144479Y155323D01*
X144367Y155304D01*
X144253Y155293D01*
X144053Y155249D01*
X143851Y155214D01*
X143743Y155181D01*
X143631Y155156D01*
X143438Y155087D01*
X143242Y155027D01*
X143138Y154980D01*
X143031Y154942D01*
X142848Y154850D01*
X142661Y154765D01*
X142564Y154706D01*
X142462Y154655D01*
X142293Y154540D01*
X142118Y154433D01*
X142029Y154362D01*
X141934Y154298D01*
X141786Y154168D01*
X141620Y154035D01*
X141532Y153945D01*
X141442Y153866D01*
X140444Y152867D01*
X139563Y152503D01*
X139350Y152398D01*
X139134Y152301D01*
X139065Y152258D01*
X138991Y152222D01*
X138793Y152092D01*
X138591Y151969D01*
X138527Y151918D01*
X138458Y151873D01*
X138278Y151719D01*
X138093Y151571D01*
X138036Y151512D01*
X137974Y151459D01*
X137814Y151284D01*
X137649Y151114D01*
X137600Y151049D01*
X137545Y150988D01*
X137408Y150794D01*
X137266Y150605D01*
X137225Y150534D01*
X137178Y150467D01*
X137067Y150258D01*
X136949Y150052D01*
X136918Y149977D01*
X136879Y149904D01*
X136795Y149683D01*
X136704Y149464D01*
X136683Y149385D01*
X136654Y149308D01*
X136598Y149078D01*
X136535Y148850D01*
X136523Y148769D01*
X136504Y148689D01*
X136478Y148453D01*
X136444Y148219D01*
X136443Y148137D01*
X136433Y148056D01*
X136437Y147819D01*
X136433Y147582D01*
X136441Y147501D01*
X136443Y147419D01*
X136476Y147184D01*
X136501Y146949D01*
X136520Y146869D01*
X136531Y146788D01*
X136593Y146560D01*
X136648Y146329D01*
X136677Y146252D01*
X136699Y146173D01*
X136789Y145954D01*
X136872Y145732D01*
X136910Y145660D01*
X136941Y145584D01*
X137058Y145378D01*
X137168Y145168D01*
X137215Y145101D01*
X137256Y145030D01*
X137398Y144840D01*
X137533Y144646D01*
X137588Y144585D01*
X137637Y144520D01*
X137802Y144349D01*
X137961Y144174D01*
X138023Y144120D01*
X138080Y144061D01*
X138264Y143913D01*
X138444Y143758D01*
X138512Y143713D01*
X138576Y143661D01*
X138777Y143538D01*
X138975Y143407D01*
X139048Y143371D01*
X139119Y143327D01*
X139355Y143220D01*
X139563Y143117D01*
X140444Y142753D01*
X141002Y142195D01*
X141075Y142066D01*
X141173Y141935D01*
X141263Y141798D01*
X141363Y141680D01*
X141456Y141556D01*
X141570Y141438D01*
X141676Y141313D01*
X141791Y141209D01*
X141898Y141098D01*
X142026Y140995D01*
X142147Y140884D01*
X142274Y140795D01*
X142395Y140698D01*
X142534Y140612D01*
X142668Y140518D01*
X142805Y140445D01*
X142937Y140364D01*
X143086Y140296D01*
X143231Y140219D01*
X143376Y140164D01*
X143517Y140100D01*
X143674Y140052D01*
X143827Y139993D01*
X143978Y139957D01*
X144126Y139911D01*
X144287Y139882D01*
X144446Y139844D01*
X144601Y139827D01*
X144753Y139800D01*
X144916Y139791D01*
X145080Y139773D01*
X145235Y139775D01*
X145389Y139768D01*
X145553Y139780D01*
X145717Y139782D01*
X145870Y139804D01*
X146025Y139816D01*
X146185Y139848D01*
X146348Y139871D01*
X146497Y139912D01*
X146649Y139943D01*
X146800Y139994D01*
X146962Y140038D01*
X147119Y140103D01*
X147269Y140154D01*
X148845Y140807D01*
X151155Y140807D01*
X153289Y139923D01*
X154923Y138289D01*
X155807Y136155D01*
X155807Y133845D01*
X154923Y131711D01*
X153289Y130077D01*
X151155Y129193D01*
X148845Y129193D01*
X147191Y129878D01*
X147045Y129928D01*
X146902Y129988D01*
X146744Y130031D01*
X146589Y130085D01*
X146437Y130116D01*
X146288Y130157D01*
X146125Y130181D01*
X145965Y130214D01*
X145810Y130226D01*
X145657Y130248D01*
X145493Y130251D01*
X145330Y130264D01*
X145175Y130257D01*
X145020Y130260D01*
X144857Y130242D01*
X144693Y130235D01*
X144540Y130208D01*
X144386Y130191D01*
X144227Y130153D01*
X144065Y130125D01*
X143917Y130080D01*
X143767Y130044D01*
X143613Y129987D01*
X143456Y129939D01*
X143315Y129875D01*
X143170Y129821D01*
X143025Y129744D01*
X142875Y129677D01*
X142743Y129596D01*
X142606Y129524D01*
X142472Y129430D01*
X142332Y129345D01*
X142210Y129248D01*
X142084Y129159D01*
X141962Y129049D01*
X141834Y128947D01*
X141726Y128835D01*
X141611Y128732D01*
X141505Y128608D01*
X141390Y128490D01*
X141297Y128366D01*
X141196Y128249D01*
X141139Y128162D01*
X140444Y127467D01*
X139563Y127103D01*
X139350Y126998D01*
X139135Y126901D01*
X139065Y126859D01*
X138991Y126822D01*
X138793Y126692D01*
X138591Y126569D01*
X138527Y126518D01*
X138458Y126473D01*
X138278Y126319D01*
X138093Y126171D01*
X138036Y126112D01*
X137974Y126059D01*
X137814Y125884D01*
X137649Y125714D01*
X137600Y125649D01*
X137545Y125588D01*
X137408Y125395D01*
X137266Y125205D01*
X137225Y125134D01*
X137178Y125067D01*
X137067Y124858D01*
X136949Y124652D01*
X136918Y124577D01*
X136879Y124504D01*
X136795Y124283D01*
X136704Y124064D01*
X136683Y123985D01*
X136654Y123908D01*
X136598Y123678D01*
X136535Y123450D01*
X136523Y123369D01*
X136504Y123289D01*
X136478Y123053D01*
X136444Y122819D01*
X136443Y122738D01*
X136433Y122656D01*
X136437Y122419D01*
X136433Y122182D01*
X136441Y122101D01*
X136443Y122019D01*
X136476Y121784D01*
X136501Y121549D01*
X136520Y121469D01*
X136531Y121388D01*
X136594Y121159D01*
X136648Y120929D01*
X136677Y120852D01*
X136699Y120773D01*
X136789Y120554D01*
X136872Y120332D01*
X136910Y120260D01*
X136941Y120184D01*
X137058Y119978D01*
X137168Y119769D01*
X137215Y119701D01*
X137256Y119630D01*
X137397Y119441D01*
X137533Y119246D01*
X137588Y119185D01*
X137637Y119120D01*
X137802Y118949D01*
X137961Y118774D01*
X138023Y118720D01*
X138080Y118661D01*
X138264Y118513D01*
X138444Y118358D01*
X138512Y118313D01*
X138576Y118262D01*
X138777Y118138D01*
X138975Y118007D01*
X139047Y117971D01*
X139118Y117927D01*
X139355Y117820D01*
X139563Y117717D01*
X140444Y117353D01*
X140873Y116924D01*
X141105Y116363D01*
X141105Y103057D01*
X140873Y102496D01*
X140444Y102067D01*
X139563Y101703D01*
X139350Y101598D01*
X139134Y101501D01*
X139065Y101458D01*
X138991Y101422D01*
X138793Y101292D01*
X138591Y101169D01*
X138527Y101118D01*
X138458Y101073D01*
X138278Y100919D01*
X138093Y100771D01*
X138036Y100712D01*
X137974Y100659D01*
X137814Y100484D01*
X137649Y100314D01*
X137600Y100249D01*
X137545Y100188D01*
X137408Y99994D01*
X137266Y99805D01*
X137225Y99734D01*
X137178Y99667D01*
X137067Y99458D01*
X136949Y99252D01*
X136918Y99177D01*
X136879Y99104D01*
X136795Y98883D01*
X136704Y98664D01*
X136683Y98585D01*
X136654Y98508D01*
X136598Y98278D01*
X136535Y98050D01*
X136523Y97969D01*
X136504Y97889D01*
X136478Y97653D01*
X136444Y97419D01*
X136443Y97337D01*
X136433Y97256D01*
X136437Y97019D01*
X136433Y96782D01*
X136441Y96701D01*
X136443Y96619D01*
X136476Y96384D01*
X136501Y96149D01*
X136520Y96069D01*
X136531Y95988D01*
X136593Y95760D01*
X136648Y95529D01*
X136677Y95452D01*
X136699Y95373D01*
X136789Y95154D01*
X136872Y94932D01*
X136910Y94860D01*
X136941Y94784D01*
X137058Y94578D01*
X137168Y94368D01*
X137215Y94301D01*
X137256Y94230D01*
X137398Y94040D01*
X137533Y93846D01*
X137588Y93785D01*
X137637Y93720D01*
X137802Y93549D01*
X137961Y93374D01*
X138023Y93320D01*
X138080Y93261D01*
X138264Y93113D01*
X138444Y92958D01*
X138512Y92913D01*
X138576Y92861D01*
X138777Y92738D01*
X138975Y92607D01*
X139048Y92571D01*
X139119Y92527D01*
X139355Y92420D01*
X139563Y92317D01*
X140444Y91953D01*
X140873Y91524D01*
X141105Y90963D01*
X141105Y77657D01*
X140873Y77096D01*
X140378Y76601D01*
X140318Y76572D01*
X140121Y76443D01*
X139918Y76319D01*
X139854Y76267D01*
X139786Y76223D01*
X139606Y76069D01*
X139421Y75921D01*
X139363Y75862D01*
X139301Y75809D01*
X139142Y75634D01*
X138977Y75464D01*
X138927Y75398D01*
X138872Y75338D01*
X138735Y75144D01*
X138593Y74955D01*
X138553Y74884D01*
X138505Y74817D01*
X138394Y74607D01*
X138277Y74402D01*
X138245Y74327D01*
X138207Y74254D01*
X138123Y74032D01*
X138032Y73814D01*
X138010Y73735D01*
X137981Y73658D01*
X137925Y73428D01*
X137863Y73200D01*
X137851Y73119D01*
X137832Y73039D01*
X137805Y72804D01*
X137771Y72569D01*
X137770Y72487D01*
X137761Y72406D01*
X137764Y72169D01*
X137760Y71932D01*
X137769Y71851D01*
X137770Y71769D01*
X137803Y71534D01*
X137829Y71299D01*
X137847Y71219D01*
X137859Y71138D01*
X137921Y70910D01*
X137976Y70679D01*
X138005Y70602D01*
X138026Y70523D01*
X138116Y70304D01*
X138199Y70082D01*
X138238Y70010D01*
X138269Y69934D01*
X138386Y69728D01*
X138496Y69518D01*
X138543Y69451D01*
X138583Y69380D01*
X138725Y69190D01*
X138861Y68996D01*
X138916Y68935D01*
X138965Y68870D01*
X139129Y68699D01*
X139288Y68523D01*
X139350Y68470D01*
X139407Y68411D01*
X139592Y68262D01*
X139771Y68108D01*
X139840Y68063D01*
X139903Y68011D01*
X140105Y67887D01*
X140303Y67756D01*
X140375Y67721D01*
X140446Y67677D01*
X140683Y67569D01*
X140736Y67543D01*
X141200Y67233D01*
X141553Y66880D01*
X141832Y66463D01*
X142023Y66001D01*
X142121Y65510D01*
X142121Y63989D01*
X126880Y63989D01*
X111639Y63989D01*
X111639Y65510D01*
X111737Y66001D01*
X111928Y66463D01*
X112207Y66880D01*
X112577Y67250D01*
X112741Y67385D01*
X112916Y67519D01*
X112986Y67588D01*
X113062Y67650D01*
X113213Y67811D01*
X113370Y67966D01*
X113431Y68043D01*
X113498Y68114D01*
X113628Y68293D01*
X113765Y68466D01*
X113815Y68550D01*
X113873Y68630D01*
X113980Y68823D01*
X114094Y69012D01*
X114133Y69102D01*
X114181Y69187D01*
X114262Y69392D01*
X114352Y69594D01*
X114380Y69688D01*
X114416Y69780D01*
X114471Y69993D01*
X114535Y70205D01*
X114551Y70301D01*
X114576Y70396D01*
X114604Y70615D01*
X114640Y70833D01*
X114644Y70931D01*
X114656Y71028D01*
X114657Y71249D01*
X114666Y71470D01*
X114657Y71567D01*
X114658Y71666D01*
X114630Y71885D01*
X114612Y72104D01*
X114591Y72200D01*
X114579Y72298D01*
X114524Y72512D01*
X114478Y72727D01*
X114446Y72820D01*
X114422Y72915D01*
X114341Y73120D01*
X114268Y73329D01*
X114225Y73417D01*
X114189Y73508D01*
X114082Y73702D01*
X113984Y73899D01*
X113930Y73981D01*
X113883Y74067D01*
X113753Y74246D01*
X113631Y74430D01*
X113567Y74504D01*
X113510Y74584D01*
X113359Y74745D01*
X113215Y74912D01*
X113142Y74978D01*
X113075Y75049D01*
X112905Y75190D01*
X112741Y75338D01*
X112660Y75394D01*
X112585Y75457D01*
X112399Y75575D01*
X112218Y75701D01*
X112131Y75747D01*
X112048Y75800D01*
X111848Y75894D01*
X111653Y75996D01*
X111561Y76031D01*
X111472Y76073D01*
X111263Y76142D01*
X111056Y76218D01*
X110960Y76241D01*
X110867Y76272D01*
X110650Y76314D01*
X110436Y76364D01*
X110338Y76374D01*
X110242Y76393D01*
X110031Y76407D01*
X109802Y76431D01*
X109693Y76428D01*
X109588Y76435D01*
X88624Y76435D01*
X85729Y77634D01*
X58626Y104738D01*
X58571Y104786D01*
X58521Y104839D01*
X58332Y104997D01*
X58148Y105159D01*
X58088Y105200D01*
X58032Y105247D01*
X57825Y105379D01*
X57621Y105517D01*
X57556Y105550D01*
X57495Y105590D01*
X57272Y105695D01*
X57054Y105807D01*
X56985Y105831D01*
X56919Y105863D01*
X56685Y105940D01*
X56454Y106023D01*
X56383Y106039D01*
X56314Y106062D01*
X56072Y106108D01*
X55832Y106162D01*
X55760Y106169D01*
X55688Y106183D01*
X55457Y106198D01*
X55198Y106223D01*
X55115Y106220D01*
X55034Y106225D01*
X48306Y106225D01*
X44713Y107713D01*
X41963Y110463D01*
X40475Y114056D01*
X40475Y117944D01*
X41963Y121537D01*
X44713Y124287D01*
X48306Y125775D01*
X68694Y125775D01*
X72287Y124287D01*
X75037Y121537D01*
X76525Y117944D01*
X76525Y114056D01*
X76375Y113695D01*
X76339Y113587D01*
X76293Y113483D01*
X76247Y113325D01*
X76246Y113322D01*
X76243Y113313D01*
X76235Y113287D01*
X76169Y113093D01*
X76146Y112981D01*
X76114Y112872D01*
X76089Y112714D01*
X76086Y112705D01*
X76083Y112678D01*
X76081Y112670D01*
X76040Y112469D01*
X76031Y112355D01*
X76013Y112243D01*
X76007Y112090D01*
X76005Y112073D01*
X76005Y112033D01*
X75989Y111834D01*
X75995Y111720D01*
X75991Y111606D01*
X76004Y111461D01*
X76004Y111436D01*
X76010Y111387D01*
X76019Y111197D01*
X76039Y111085D01*
X76049Y110971D01*
X76079Y110837D01*
X76083Y110804D01*
X76098Y110745D01*
X76128Y110569D01*
X76162Y110460D01*
X76186Y110349D01*
X76229Y110229D01*
X76240Y110187D01*
X76266Y110119D01*
X76315Y109960D01*
X76362Y109856D01*
X76400Y109749D01*
X76453Y109644D01*
X76473Y109594D01*
X76514Y109519D01*
X76577Y109379D01*
X76636Y109282D01*
X76688Y109180D01*
X76748Y109092D01*
X76779Y109035D01*
X76836Y108955D01*
X76909Y108836D01*
X76980Y108747D01*
X77044Y108652D01*
X77107Y108581D01*
X77152Y108518D01*
X77228Y108437D01*
X77307Y108338D01*
X77397Y108250D01*
X77477Y108160D01*
X91964Y93672D01*
X92019Y93624D01*
X92069Y93571D01*
X92258Y93414D01*
X92442Y93251D01*
X92503Y93210D01*
X92559Y93163D01*
X92765Y93031D01*
X92969Y92893D01*
X93034Y92860D01*
X93095Y92820D01*
X93317Y92715D01*
X93537Y92603D01*
X93605Y92579D01*
X93671Y92547D01*
X93905Y92471D01*
X94136Y92387D01*
X94207Y92371D01*
X94276Y92348D01*
X94518Y92302D01*
X94758Y92248D01*
X94830Y92241D01*
X94902Y92227D01*
X95133Y92212D01*
X95392Y92187D01*
X95475Y92190D01*
X95556Y92185D01*
X110987Y92185D01*
X111264Y92202D01*
X111542Y92215D01*
X111582Y92222D01*
X111623Y92225D01*
X111896Y92277D01*
X112169Y92324D01*
X112208Y92336D01*
X112249Y92344D01*
X112513Y92430D01*
X112778Y92511D01*
X112816Y92528D01*
X112855Y92541D01*
X113107Y92659D01*
X113359Y92773D01*
X113394Y92794D01*
X113431Y92812D01*
X113666Y92960D01*
X113903Y93105D01*
X113935Y93131D01*
X113970Y93153D01*
X114184Y93330D01*
X114401Y93503D01*
X114429Y93532D01*
X114461Y93558D01*
X114652Y93761D01*
X114845Y93960D01*
X114869Y93992D01*
X114897Y94022D01*
X115061Y94247D01*
X115228Y94469D01*
X115248Y94504D01*
X115272Y94537D01*
X115406Y94780D01*
X115544Y95022D01*
X115560Y95060D01*
X115580Y95095D01*
X115683Y95354D01*
X115789Y95610D01*
X115800Y95649D01*
X115815Y95688D01*
X115885Y95957D01*
X115959Y96224D01*
X115965Y96265D01*
X115975Y96304D01*
X116010Y96581D01*
X116050Y96855D01*
X116050Y96895D01*
X116056Y96936D01*
X116056Y97214D01*
X116061Y97492D01*
X116057Y97533D01*
X116057Y97574D01*
X116023Y97849D01*
X115993Y98125D01*
X115983Y98165D01*
X115978Y98206D01*
X115910Y98475D01*
X115846Y98745D01*
X115831Y98784D01*
X115821Y98823D01*
X115719Y99082D01*
X115622Y99342D01*
X115603Y99378D01*
X115588Y99416D01*
X115454Y99661D01*
X115325Y99906D01*
X115302Y99939D01*
X115282Y99975D01*
X115119Y100201D01*
X114960Y100428D01*
X114933Y100458D01*
X114909Y100492D01*
X114719Y100695D01*
X114533Y100900D01*
X114502Y100927D01*
X114474Y100957D01*
X114260Y101135D01*
X114050Y101316D01*
X114016Y101338D01*
X113984Y101365D01*
X113750Y101514D01*
X113519Y101667D01*
X113482Y101685D01*
X113447Y101708D01*
X113156Y101846D01*
X112931Y101957D01*
X110329Y103034D01*
X58626Y154738D01*
X58571Y154786D01*
X58521Y154839D01*
X58332Y154997D01*
X58148Y155159D01*
X58088Y155200D01*
X58032Y155247D01*
X57825Y155379D01*
X57621Y155517D01*
X57556Y155550D01*
X57495Y155590D01*
X57273Y155695D01*
X57054Y155807D01*
X56985Y155831D01*
X56919Y155863D01*
X56685Y155939D01*
X56454Y156023D01*
X56383Y156039D01*
X56314Y156062D01*
X56072Y156108D01*
X55832Y156162D01*
X55760Y156169D01*
X55688Y156183D01*
X55457Y156198D01*
X55198Y156223D01*
X55115Y156220D01*
X55034Y156225D01*
X48306Y156225D01*
X44713Y157713D01*
X41963Y160463D01*
X40475Y164056D01*
X40475Y167944D01*
X41963Y171537D01*
X44713Y174287D01*
X48306Y175775D01*
X68694Y175775D01*
X72287Y174287D01*
X75037Y171537D01*
X76525Y167944D01*
X76525Y164056D01*
X76375Y163695D01*
X76339Y163588D01*
X76293Y163483D01*
X76235Y163287D01*
X76169Y163093D01*
X76146Y162981D01*
X76114Y162872D01*
X76081Y162670D01*
X76040Y162469D01*
X76031Y162355D01*
X76013Y162243D01*
X76006Y162038D01*
X75989Y161834D01*
X75995Y161720D01*
X75991Y161606D01*
X76010Y161402D01*
X76019Y161197D01*
X76039Y161085D01*
X76049Y160971D01*
X76093Y160772D01*
X76128Y160569D01*
X76162Y160460D01*
X76186Y160349D01*
X76255Y160156D01*
X76315Y159960D01*
X76362Y159856D01*
X76400Y159749D01*
X76493Y159566D01*
X76577Y159379D01*
X76636Y159282D01*
X76688Y159180D01*
X76802Y159011D01*
X76909Y158836D01*
X76980Y158747D01*
X77044Y158652D01*
X77174Y158504D01*
X77307Y158338D01*
X77397Y158250D01*
X77477Y158160D01*
X103984Y131652D01*
X104162Y131496D01*
X104334Y131333D01*
X104401Y131285D01*
X104462Y131231D01*
X104658Y131098D01*
X104850Y130958D01*
X104921Y130919D01*
X104989Y130872D01*
X105200Y130765D01*
X105407Y130651D01*
X105484Y130620D01*
X105557Y130583D01*
X105780Y130503D01*
X106000Y130415D01*
X106079Y130395D01*
X106156Y130367D01*
X106387Y130315D01*
X106616Y130256D01*
X106698Y130245D01*
X106778Y130228D01*
X107013Y130205D01*
X107248Y130175D01*
X107331Y130175D01*
X107412Y130167D01*
X107648Y130174D01*
X107886Y130174D01*
X107967Y130184D01*
X108049Y130186D01*
X108283Y130223D01*
X108518Y130252D01*
X108597Y130273D01*
X108678Y130285D01*
X108906Y130351D01*
X109135Y130410D01*
X109211Y130440D01*
X109290Y130462D01*
X109508Y130556D01*
X109728Y130643D01*
X109800Y130682D01*
X109875Y130715D01*
X110079Y130835D01*
X110287Y130949D01*
X110354Y130997D01*
X110424Y131038D01*
X110612Y131183D01*
X110804Y131322D01*
X110863Y131378D01*
X110928Y131428D01*
X111096Y131595D01*
X111269Y131757D01*
X111322Y131820D01*
X111380Y131878D01*
X111525Y132064D01*
X111677Y132246D01*
X111721Y132315D01*
X111771Y132380D01*
X111892Y132584D01*
X112020Y132783D01*
X112055Y132858D01*
X112097Y132928D01*
X112191Y133145D01*
X112293Y133359D01*
X112318Y133437D01*
X112351Y133512D01*
X112418Y133739D01*
X112492Y133964D01*
X112507Y134045D01*
X112530Y134124D01*
X112568Y134357D01*
X112613Y134590D01*
X112618Y134670D01*
X112631Y134753D01*
X112640Y135013D01*
X112655Y135244D01*
X112655Y141763D01*
X112887Y142324D01*
X113316Y142753D01*
X114197Y143117D01*
X114410Y143222D01*
X114625Y143319D01*
X114695Y143361D01*
X114769Y143398D01*
X114967Y143528D01*
X115169Y143651D01*
X115233Y143702D01*
X115302Y143747D01*
X115482Y143901D01*
X115667Y144049D01*
X115724Y144108D01*
X115786Y144161D01*
X115946Y144336D01*
X116111Y144506D01*
X116160Y144571D01*
X116215Y144632D01*
X116352Y144825D01*
X116494Y145015D01*
X116535Y145086D01*
X116582Y145153D01*
X116693Y145362D01*
X116811Y145568D01*
X116842Y145643D01*
X116881Y145716D01*
X116965Y145937D01*
X117056Y146156D01*
X117077Y146235D01*
X117106Y146312D01*
X117162Y146542D01*
X117225Y146770D01*
X117237Y146851D01*
X117256Y146931D01*
X117282Y147167D01*
X117316Y147401D01*
X117317Y147482D01*
X117327Y147564D01*
X117323Y147801D01*
X117327Y148038D01*
X117319Y148119D01*
X117317Y148201D01*
X117284Y148436D01*
X117259Y148671D01*
X117240Y148751D01*
X117229Y148832D01*
X117166Y149061D01*
X117112Y149291D01*
X117083Y149368D01*
X117061Y149447D01*
X116971Y149666D01*
X116888Y149888D01*
X116850Y149960D01*
X116819Y150036D01*
X116702Y150242D01*
X116592Y150451D01*
X116545Y150519D01*
X116504Y150590D01*
X116363Y150779D01*
X116227Y150974D01*
X116172Y151035D01*
X116123Y151100D01*
X115958Y151271D01*
X115799Y151446D01*
X115737Y151500D01*
X115680Y151559D01*
X115496Y151707D01*
X115316Y151862D01*
X115248Y151907D01*
X115184Y151958D01*
X114983Y152082D01*
X114785Y152213D01*
X114713Y152249D01*
X114642Y152293D01*
X114405Y152400D01*
X114197Y152503D01*
X113316Y152867D01*
X112887Y153296D01*
X112655Y153857D01*
X112655Y167163D01*
X112887Y167724D01*
X113316Y168153D01*
X113915Y168401D01*
X114128Y168505D01*
X114344Y168602D01*
X114414Y168645D01*
X114488Y168681D01*
X114686Y168811D01*
X114888Y168934D01*
X114952Y168986D01*
X115020Y169031D01*
X115200Y169184D01*
X115385Y169332D01*
X115442Y169391D01*
X115505Y169444D01*
X115664Y169620D01*
X115829Y169789D01*
X115879Y169855D01*
X115934Y169915D01*
X116070Y170109D01*
X116213Y170298D01*
X116253Y170369D01*
X116301Y170436D01*
X116412Y170646D01*
X116529Y170851D01*
X116561Y170927D01*
X116599Y170999D01*
X116683Y171221D01*
X116774Y171439D01*
X116796Y171518D01*
X116825Y171595D01*
X116880Y171825D01*
X116943Y172053D01*
X116955Y172135D01*
X116974Y172214D01*
X117001Y172450D01*
X117034Y172684D01*
X117036Y172766D01*
X117045Y172848D01*
X117042Y173085D01*
X117046Y173321D01*
X117037Y173403D01*
X117036Y173485D01*
X117003Y173719D01*
X116977Y173955D01*
X116958Y174034D01*
X116947Y174116D01*
X116885Y174344D01*
X116830Y174574D01*
X116801Y174651D01*
X116780Y174730D01*
X116690Y174949D01*
X116607Y175171D01*
X116568Y175244D01*
X116537Y175320D01*
X116420Y175526D01*
X116310Y175735D01*
X116263Y175802D01*
X116222Y175874D01*
X116081Y176063D01*
X115945Y176257D01*
X115890Y176318D01*
X115841Y176384D01*
X115676Y176554D01*
X115518Y176730D01*
X115456Y176783D01*
X115399Y176842D01*
X115214Y176991D01*
X115035Y177145D01*
X114966Y177190D01*
X114902Y177242D01*
X114700Y177366D01*
X114503Y177497D01*
X114431Y177532D01*
X114360Y177576D01*
X114123Y177684D01*
X113915Y177786D01*
X110419Y179234D01*
X97324Y192329D01*
X96125Y195224D01*
X96125Y206418D01*
X96123Y206450D01*
X96125Y206482D01*
X96103Y206768D01*
X96085Y207054D01*
X96079Y207085D01*
X96077Y207117D01*
X96020Y207399D01*
X95966Y207680D01*
X95956Y207710D01*
X95950Y207742D01*
X95869Y207979D01*
X95769Y208286D01*
X95752Y208324D01*
X95739Y208362D01*
X94975Y210205D01*
X94975Y211896D01*
X94966Y212051D01*
X94966Y212206D01*
X94946Y212368D01*
X94935Y212532D01*
X94906Y212684D01*
X94887Y212838D01*
X94847Y212997D01*
X94816Y213158D01*
X94768Y213305D01*
X94730Y213455D01*
X94670Y213608D01*
X94619Y213764D01*
X94554Y213904D01*
X94497Y214048D01*
X94418Y214192D01*
X94348Y214340D01*
X94266Y214471D01*
X94191Y214607D01*
X94095Y214740D01*
X94007Y214879D01*
X93909Y214998D01*
X93818Y215124D01*
X93706Y215243D01*
X93602Y215370D01*
X93489Y215476D01*
X93383Y215589D01*
X93257Y215694D01*
X93138Y215806D01*
X93012Y215898D01*
X92893Y215997D01*
X92755Y216085D01*
X92623Y216181D01*
X92487Y216256D01*
X92356Y216340D01*
X92208Y216410D01*
X92065Y216489D01*
X91921Y216546D01*
X91781Y216613D01*
X91625Y216664D01*
X91472Y216724D01*
X91322Y216763D01*
X91175Y216812D01*
X91014Y216843D01*
X90856Y216884D01*
X90702Y216903D01*
X90550Y216933D01*
X90391Y216943D01*
X90224Y216965D01*
X90055Y216965D01*
X89896Y216975D01*
X48404Y216975D01*
X45454Y218197D01*
X26197Y237454D01*
X24975Y240404D01*
X24975Y298596D01*
X26197Y301546D01*
X28454Y303803D01*
X31404Y305025D01*
X37097Y305025D01*
X37253Y305035D01*
X37410Y305034D01*
X37571Y305055D01*
X37733Y305065D01*
X37887Y305094D01*
X38042Y305114D01*
X38199Y305154D01*
X38359Y305184D01*
X38508Y305232D01*
X38660Y305271D01*
X38810Y305331D01*
X38965Y305381D01*
X39107Y305447D01*
X39252Y305505D01*
X39395Y305583D01*
X39541Y305652D01*
X39674Y305735D01*
X39811Y305811D01*
X39943Y305906D01*
X40080Y305993D01*
X40200Y306092D01*
X40327Y306184D01*
X40446Y306295D01*
X40571Y306398D01*
X40678Y306513D01*
X40793Y306620D01*
X40896Y306744D01*
X41007Y306862D01*
X41100Y306989D01*
X41200Y307110D01*
X41287Y307247D01*
X41382Y307377D01*
X41458Y307515D01*
X41542Y307647D01*
X41612Y307794D01*
X41690Y307935D01*
X41748Y308081D01*
X41815Y308223D01*
X41866Y308377D01*
X41925Y308528D01*
X41965Y308679D01*
X42013Y308828D01*
X42044Y308987D01*
X42085Y309144D01*
X42105Y309300D01*
X42134Y309454D01*
X42145Y309615D01*
X42166Y309776D01*
X42166Y309933D01*
X42176Y310090D01*
X42166Y310251D01*
X42167Y310414D01*
X42147Y310569D01*
X42138Y310726D01*
X42108Y310884D01*
X42088Y311046D01*
X42049Y311198D01*
X42021Y311352D01*
X41971Y311506D01*
X41931Y311663D01*
X41873Y311809D01*
X41826Y311958D01*
X41757Y312105D01*
X41698Y312256D01*
X41622Y312394D01*
X41556Y312536D01*
X41472Y312669D01*
X41392Y312815D01*
X41292Y312954D01*
X41206Y313090D01*
X41021Y313344D01*
X40727Y313921D01*
X58500Y313921D01*
X76273Y313921D01*
X75979Y313344D01*
X75794Y313090D01*
X75710Y312957D01*
X75618Y312830D01*
X75539Y312689D01*
X75452Y312552D01*
X75386Y312410D01*
X75310Y312273D01*
X75250Y312122D01*
X75181Y311975D01*
X75133Y311826D01*
X75075Y311680D01*
X75034Y311523D01*
X74984Y311369D01*
X74955Y311216D01*
X74915Y311064D01*
X74895Y310903D01*
X74864Y310744D01*
X74854Y310587D01*
X74834Y310432D01*
X74834Y310269D01*
X74824Y310108D01*
X74834Y309951D01*
X74833Y309794D01*
X74853Y309633D01*
X74863Y309472D01*
X74892Y309318D01*
X74912Y309162D01*
X74952Y309005D01*
X74982Y308846D01*
X75030Y308697D01*
X75069Y308545D01*
X75128Y308394D01*
X75178Y308240D01*
X75245Y308098D01*
X75302Y307952D01*
X75380Y307809D01*
X75449Y307663D01*
X75533Y307531D01*
X75608Y307393D01*
X75703Y307261D01*
X75790Y307124D01*
X75889Y307003D01*
X75981Y306876D01*
X76092Y306758D01*
X76195Y306633D01*
X76309Y306525D01*
X76416Y306411D01*
X76541Y306307D01*
X76659Y306196D01*
X76785Y306104D01*
X76906Y306003D01*
X77043Y305916D01*
X77173Y305821D01*
X77311Y305745D01*
X77443Y305660D01*
X77589Y305591D01*
X77731Y305513D01*
X77877Y305455D01*
X78018Y305387D01*
X78173Y305337D01*
X78323Y305277D01*
X78475Y305237D01*
X78624Y305188D01*
X78783Y305158D01*
X78940Y305117D01*
X79095Y305097D01*
X79249Y305067D01*
X79407Y305057D01*
X79572Y305036D01*
X79742Y305035D01*
X79903Y305025D01*
X131175Y305025D01*
X131411Y305040D01*
X131648Y305047D01*
X131729Y305060D01*
X131811Y305065D01*
X132043Y305109D01*
X132277Y305146D01*
X132356Y305169D01*
X132436Y305184D01*
X132662Y305257D01*
X132889Y305323D01*
X132964Y305355D01*
X133042Y305381D01*
X133257Y305481D01*
X133474Y305575D01*
X133545Y305617D01*
X133619Y305652D01*
X133819Y305778D01*
X134023Y305899D01*
X134088Y305949D01*
X134157Y305993D01*
X134340Y306144D01*
X134527Y306288D01*
X134585Y306346D01*
X134648Y306398D01*
X134811Y306571D01*
X134978Y306738D01*
X135029Y306803D01*
X135085Y306862D01*
X135224Y307054D01*
X135370Y307241D01*
X135412Y307311D01*
X135460Y307377D01*
X135574Y307585D01*
X135695Y307788D01*
X135728Y307864D01*
X135768Y307935D01*
X135855Y308155D01*
X135950Y308373D01*
X135973Y308451D01*
X136003Y308528D01*
X136062Y308757D01*
X136129Y308984D01*
X136142Y309065D01*
X136162Y309144D01*
X136193Y309379D01*
X136230Y309613D01*
X136233Y309695D01*
X136243Y309776D01*
X136244Y310013D01*
X136252Y310250D01*
X136244Y310331D01*
X136244Y310414D01*
X136215Y310649D01*
X136194Y310884D01*
X136176Y310964D01*
X136166Y311046D01*
X136107Y311275D01*
X136056Y311506D01*
X136029Y311584D01*
X136009Y311663D01*
X135922Y311884D01*
X135842Y312107D01*
X135805Y312180D01*
X135775Y312256D01*
X135662Y312464D01*
X135555Y312675D01*
X135509Y312743D01*
X135470Y312815D01*
X135331Y313007D01*
X135199Y313203D01*
X135145Y313264D01*
X135097Y313332D01*
X134919Y313521D01*
X134766Y313696D01*
X132291Y316171D01*
X142120Y316171D01*
X151949Y316171D01*
X149474Y313696D01*
X149317Y313518D01*
X149155Y313346D01*
X149107Y313279D01*
X149052Y313218D01*
X148919Y313022D01*
X148780Y312830D01*
X148740Y312759D01*
X148694Y312691D01*
X148587Y312480D01*
X148472Y312273D01*
X148442Y312196D01*
X148405Y312123D01*
X148324Y311901D01*
X148237Y311680D01*
X148216Y311601D01*
X148189Y311524D01*
X148137Y311293D01*
X148078Y311064D01*
X148067Y310982D01*
X148049Y310902D01*
X148027Y310667D01*
X147997Y310432D01*
X147997Y310349D01*
X147989Y310268D01*
X147996Y310032D01*
X147996Y309794D01*
X148006Y309713D01*
X148008Y309631D01*
X148045Y309397D01*
X148074Y309162D01*
X148094Y309082D01*
X148107Y309002D01*
X148173Y308774D01*
X148231Y308545D01*
X148261Y308469D01*
X148284Y308390D01*
X148378Y308172D01*
X148465Y307952D01*
X148504Y307880D01*
X148536Y307805D01*
X148657Y307601D01*
X148770Y307393D01*
X148818Y307326D01*
X148860Y307256D01*
X149005Y307068D01*
X149143Y306876D01*
X149199Y306816D01*
X149250Y306752D01*
X149417Y306584D01*
X149578Y306411D01*
X149641Y306358D01*
X149699Y306300D01*
X149886Y306155D01*
X150068Y306003D01*
X150137Y305959D01*
X150202Y305909D01*
X150406Y305788D01*
X150605Y305660D01*
X150679Y305625D01*
X150750Y305583D01*
X150967Y305489D01*
X151181Y305387D01*
X151259Y305362D01*
X151334Y305329D01*
X151561Y305262D01*
X151786Y305188D01*
X151867Y305173D01*
X151945Y305150D01*
X152179Y305112D01*
X152412Y305067D01*
X152492Y305062D01*
X152574Y305049D01*
X152834Y305040D01*
X153065Y305025D01*
X196783Y305025D01*
X196938Y305034D01*
X197093Y305034D01*
X197255Y305054D01*
X197419Y305065D01*
X197571Y305094D01*
X197725Y305113D01*
X197884Y305153D01*
X198045Y305184D01*
X198192Y305232D01*
X198342Y305270D01*
X198495Y305330D01*
X198651Y305381D01*
X198791Y305446D01*
X198935Y305503D01*
X199079Y305582D01*
X199227Y305652D01*
X199358Y305734D01*
X199494Y305809D01*
X199627Y305905D01*
X199766Y305993D01*
X199885Y306091D01*
X200011Y306182D01*
X200130Y306294D01*
X200257Y306398D01*
X200363Y306511D01*
X200476Y306617D01*
X200581Y306743D01*
X200693Y306862D01*
X200785Y306988D01*
X200884Y307107D01*
X200972Y307245D01*
X201068Y307377D01*
X201143Y307513D01*
X201227Y307644D01*
X201297Y307792D01*
X201376Y307935D01*
X201433Y308079D01*
X201500Y308219D01*
X201551Y308375D01*
X201611Y308528D01*
X201650Y308678D01*
X201699Y308825D01*
X201730Y308986D01*
X201771Y309144D01*
X201790Y309298D01*
X201820Y309450D01*
X201830Y309609D01*
X201852Y309776D01*
X201852Y309945D01*
X201862Y310104D01*
X201862Y316140D01*
X201853Y316295D01*
X201853Y316450D01*
X201833Y316612D01*
X201822Y316776D01*
X201793Y316928D01*
X201774Y317082D01*
X201734Y317241D01*
X201703Y317402D01*
X201655Y317549D01*
X201617Y317699D01*
X201557Y317852D01*
X201506Y318008D01*
X201441Y318148D01*
X201384Y318292D01*
X201305Y318436D01*
X201235Y318584D01*
X201153Y318715D01*
X201078Y318851D01*
X200982Y318984D01*
X200894Y319123D01*
X200796Y319242D01*
X200705Y319368D01*
X200593Y319487D01*
X200489Y319614D01*
X200376Y319720D01*
X200270Y319833D01*
X200144Y319938D01*
X200025Y320050D01*
X199899Y320142D01*
X199780Y320241D01*
X199642Y320329D01*
X199510Y320425D01*
X199374Y320500D01*
X199269Y320567D01*
X199269Y324834D01*
X199358Y324890D01*
X199494Y324965D01*
X199627Y325061D01*
X199766Y325148D01*
X199885Y325247D01*
X200011Y325338D01*
X200130Y325450D01*
X200257Y325554D01*
X200363Y325667D01*
X200476Y325773D01*
X200581Y325899D01*
X200693Y326018D01*
X200785Y326144D01*
X200884Y326263D01*
X200972Y326401D01*
X201068Y326533D01*
X201143Y326669D01*
X201227Y326800D01*
X201297Y326948D01*
X201376Y327091D01*
X201433Y327235D01*
X201500Y327375D01*
X201551Y327531D01*
X201611Y327683D01*
X201650Y327833D01*
X201699Y327981D01*
X201730Y328141D01*
X201771Y328300D01*
X201790Y328454D01*
X201820Y328606D01*
X201830Y328765D01*
X201852Y328932D01*
X201852Y329101D01*
X201862Y329260D01*
X201853Y329415D01*
X201853Y329570D01*
X201833Y329733D01*
X201822Y329896D01*
X201793Y330048D01*
X201774Y330202D01*
X201734Y330361D01*
X201703Y330522D01*
X201655Y330669D01*
X201617Y330819D01*
X201557Y330972D01*
X201506Y331128D01*
X201441Y331268D01*
X201384Y331412D01*
X201305Y331556D01*
X201235Y331705D01*
X201153Y331835D01*
X201078Y331971D01*
X200982Y332104D01*
X200894Y332243D01*
X200796Y332362D01*
X200705Y332488D01*
X200593Y332607D01*
X200489Y332734D01*
X200376Y332840D01*
X200270Y332953D01*
X200144Y333058D01*
X200025Y333171D01*
X199899Y333262D01*
X199780Y333361D01*
X199642Y333449D01*
X199510Y333546D01*
X199374Y333620D01*
X199243Y333704D01*
X199095Y333774D01*
X198952Y333853D01*
X198808Y333910D01*
X198668Y333977D01*
X198512Y334028D01*
X198359Y334089D01*
X198209Y334127D01*
X198062Y334176D01*
X197901Y334207D01*
X197743Y334248D01*
X197589Y334268D01*
X197437Y334297D01*
X197278Y334307D01*
X197111Y334329D01*
X196942Y334329D01*
X196783Y334339D01*
X194190Y334339D01*
X186649Y334339D01*
X186649Y335010D01*
X186762Y335577D01*
X186763Y335580D01*
X186794Y335698D01*
X186834Y335815D01*
X186873Y336007D01*
X186922Y336196D01*
X186938Y336318D01*
X186963Y336439D01*
X186978Y336634D01*
X187003Y336828D01*
X187004Y336951D01*
X187013Y337074D01*
X187004Y337270D01*
X187004Y337466D01*
X186989Y337587D01*
X186984Y337710D01*
X186950Y337903D01*
X186926Y338098D01*
X186896Y338217D01*
X186874Y338338D01*
X186817Y338525D01*
X186769Y338715D01*
X186724Y338829D01*
X186688Y338947D01*
X186607Y339126D01*
X186535Y339308D01*
X186476Y339416D01*
X186426Y339528D01*
X186324Y339695D01*
X186230Y339867D01*
X186158Y339967D01*
X186094Y340072D01*
X185971Y340225D01*
X185857Y340384D01*
X185773Y340473D01*
X185696Y340569D01*
X185555Y340706D01*
X185422Y340849D01*
X185327Y340928D01*
X185239Y341013D01*
X185082Y341132D01*
X184932Y341257D01*
X184829Y341323D01*
X184730Y341397D01*
X184560Y341494D01*
X184395Y341600D01*
X184284Y341652D01*
X184177Y341713D01*
X183997Y341789D01*
X183819Y341873D01*
X183702Y341911D01*
X183589Y341958D01*
X183400Y342010D01*
X183214Y342072D01*
X183093Y342095D01*
X182975Y342128D01*
X182781Y342156D01*
X182589Y342193D01*
X182469Y342201D01*
X182344Y342219D01*
X182131Y342223D01*
X181935Y342235D01*
X153281Y342235D01*
X153208Y342231D01*
X153135Y342233D01*
X152890Y342211D01*
X152645Y342195D01*
X152573Y342182D01*
X152500Y342175D01*
X152260Y342122D01*
X152019Y342076D01*
X151949Y342053D01*
X151878Y342038D01*
X151647Y341955D01*
X151413Y341879D01*
X151347Y341848D01*
X151278Y341824D01*
X151059Y341713D01*
X150836Y341608D01*
X150774Y341569D01*
X150709Y341536D01*
X150506Y341399D01*
X150298Y341267D01*
X150242Y341221D01*
X150181Y341180D01*
X150008Y341027D01*
X149807Y340862D01*
X149749Y340801D01*
X149689Y340748D01*
X147201Y338260D01*
X147099Y338144D01*
X146989Y338034D01*
X146888Y337905D01*
X146780Y337782D01*
X146693Y337654D01*
X146598Y337532D01*
X146514Y337391D01*
X146422Y337255D01*
X146351Y337117D01*
X146272Y336984D01*
X146207Y336834D01*
X146132Y336688D01*
X146080Y336542D01*
X146018Y336400D01*
X145972Y336242D01*
X145916Y336088D01*
X145882Y335937D01*
X145839Y335788D01*
X145813Y335627D01*
X145777Y335467D01*
X145762Y335312D01*
X145738Y335159D01*
X145732Y334995D01*
X145716Y334832D01*
X145721Y334678D01*
X145716Y334523D01*
X145731Y334359D01*
X145736Y334195D01*
X145760Y334042D01*
X145774Y333888D01*
X145809Y333728D01*
X145835Y333566D01*
X145878Y333417D01*
X145911Y333266D01*
X145966Y333112D01*
X146012Y332954D01*
X146073Y332811D01*
X146125Y332666D01*
X146199Y332520D01*
X146264Y332369D01*
X146343Y332235D01*
X146413Y332097D01*
X146504Y331962D01*
X146588Y331820D01*
X146682Y331697D01*
X146769Y331569D01*
X146874Y331450D01*
X146977Y331316D01*
X147096Y331196D01*
X147201Y331077D01*
X151949Y326329D01*
X142120Y326329D01*
X132291Y326329D01*
X137039Y331077D01*
X137141Y331193D01*
X137251Y331302D01*
X137352Y331432D01*
X137460Y331555D01*
X137547Y331683D01*
X137642Y331805D01*
X137726Y331946D01*
X137818Y332082D01*
X137889Y332220D01*
X137968Y332353D01*
X138033Y332503D01*
X138108Y332649D01*
X138160Y332795D01*
X138222Y332937D01*
X138268Y333094D01*
X138324Y333249D01*
X138358Y333400D01*
X138401Y333548D01*
X138427Y333710D01*
X138463Y333870D01*
X138478Y334025D01*
X138502Y334177D01*
X138508Y334341D01*
X138524Y334505D01*
X138519Y334659D01*
X138524Y334814D01*
X138509Y334978D01*
X138504Y335141D01*
X138480Y335294D01*
X138466Y335449D01*
X138431Y335609D01*
X138405Y335771D01*
X138362Y335920D01*
X138329Y336071D01*
X138274Y336225D01*
X138228Y336383D01*
X138167Y336525D01*
X138115Y336671D01*
X138041Y336817D01*
X137976Y336968D01*
X137897Y337101D01*
X137827Y337240D01*
X137736Y337376D01*
X137652Y337517D01*
X137558Y337639D01*
X137471Y337768D01*
X137366Y337888D01*
X137263Y338021D01*
X137144Y338140D01*
X137039Y338260D01*
X134044Y341254D01*
X132594Y344755D01*
X132594Y348545D01*
X134044Y352046D01*
X136724Y354726D01*
X140225Y356176D01*
X143850Y356176D01*
X143923Y356180D01*
X143996Y356178D01*
X144241Y356200D01*
X144486Y356216D01*
X144557Y356229D01*
X144630Y356236D01*
X144870Y356289D01*
X145112Y356335D01*
X145181Y356358D01*
X145252Y356373D01*
X145483Y356456D01*
X145718Y356532D01*
X145784Y356563D01*
X145853Y356587D01*
X146072Y356698D01*
X146294Y356803D01*
X146356Y356842D01*
X146421Y356875D01*
X146625Y357012D01*
X146833Y357144D01*
X146889Y357190D01*
X146949Y357231D01*
X147123Y357384D01*
X147324Y357549D01*
X147381Y357610D01*
X147442Y357663D01*
X147460Y357682D01*
X148939Y358295D01*
X172114Y358295D01*
X172269Y358304D01*
X172424Y358304D01*
X172586Y358324D01*
X172750Y358335D01*
X172902Y358364D01*
X173056Y358383D01*
X173215Y358423D01*
X173376Y358454D01*
X173523Y358502D01*
X173673Y358540D01*
X173826Y358600D01*
X173982Y358651D01*
X174122Y358716D01*
X174266Y358773D01*
X174410Y358852D01*
X174558Y358922D01*
X174689Y359004D01*
X174825Y359079D01*
X174958Y359175D01*
X175097Y359263D01*
X175216Y359361D01*
X175342Y359452D01*
X175461Y359564D01*
X175588Y359668D01*
X175694Y359781D01*
X175807Y359887D01*
X175912Y360013D01*
X176024Y360132D01*
X176116Y360258D01*
X176215Y360377D01*
X176303Y360515D01*
X176399Y360647D01*
X176474Y360783D01*
X176558Y360914D01*
X176628Y361062D01*
X176707Y361205D01*
X176764Y361349D01*
X176831Y361489D01*
X176882Y361645D01*
X176942Y361798D01*
X176981Y361948D01*
X177030Y362095D01*
X177061Y362256D01*
X177102Y362414D01*
X177121Y362568D01*
X177151Y362720D01*
X177161Y362879D01*
X177183Y363046D01*
X177183Y363215D01*
X177193Y363374D01*
X177193Y364646D01*
X177184Y364801D01*
X177184Y364956D01*
X177164Y365118D01*
X177153Y365282D01*
X177124Y365434D01*
X177105Y365588D01*
X177065Y365747D01*
X177034Y365908D01*
X176986Y366055D01*
X176948Y366205D01*
X176888Y366358D01*
X176837Y366514D01*
X176772Y366654D01*
X176715Y366798D01*
X176636Y366942D01*
X176566Y367090D01*
X176484Y367221D01*
X176409Y367357D01*
X176313Y367490D01*
X176225Y367629D01*
X176127Y367748D01*
X176036Y367874D01*
X175924Y367993D01*
X175820Y368120D01*
X175707Y368226D01*
X175601Y368339D01*
X175475Y368444D01*
X175356Y368556D01*
X175230Y368648D01*
X175111Y368747D01*
X174973Y368835D01*
X174841Y368931D01*
X174705Y369006D01*
X174574Y369090D01*
X174426Y369160D01*
X174283Y369239D01*
X174139Y369296D01*
X173999Y369363D01*
X173843Y369414D01*
X173690Y369474D01*
X173540Y369513D01*
X173393Y369562D01*
X173232Y369593D01*
X173074Y369634D01*
X172920Y369653D01*
X172768Y369683D01*
X172609Y369693D01*
X172442Y369715D01*
X172273Y369715D01*
X172114Y369725D01*
X164257Y369725D01*
X163696Y369957D01*
X163267Y370386D01*
X163035Y370947D01*
X163035Y381553D01*
X163123Y381764D01*
X163205Y382004D01*
X163293Y382241D01*
X163308Y382305D01*
X163329Y382367D01*
X163381Y382615D01*
X163438Y382861D01*
X163445Y382927D01*
X163459Y382991D01*
X163478Y383242D01*
X163505Y383495D01*
X163504Y383560D01*
X163509Y383626D01*
X163497Y383879D01*
X163492Y384132D01*
X163482Y384197D01*
X163479Y384263D01*
X163436Y384511D01*
X163399Y384762D01*
X163381Y384825D01*
X163370Y384890D01*
X163296Y385132D01*
X163228Y385376D01*
X163202Y385436D01*
X163183Y385499D01*
X163079Y385730D01*
X162982Y385963D01*
X162949Y386019D01*
X162922Y386080D01*
X162775Y386320D01*
X162653Y386530D01*
X162308Y387047D01*
X162117Y387509D01*
X162019Y388000D01*
X162019Y388171D01*
X170060Y388171D01*
X178101Y388171D01*
X178101Y388000D01*
X178003Y387509D01*
X177916Y387298D01*
X177852Y387113D01*
X177780Y386930D01*
X177749Y386812D01*
X177709Y386695D01*
X177669Y386503D01*
X177620Y386314D01*
X177605Y386192D01*
X177580Y386071D01*
X177564Y385876D01*
X177540Y385682D01*
X177539Y385558D01*
X177530Y385436D01*
X177539Y385240D01*
X177538Y385044D01*
X177554Y384922D01*
X177559Y384800D01*
X177593Y384607D01*
X177617Y384412D01*
X177647Y384293D01*
X177668Y384172D01*
X177726Y383984D01*
X177774Y383795D01*
X177819Y383681D01*
X177855Y383563D01*
X177936Y383384D01*
X178007Y383202D01*
X178067Y383094D01*
X178117Y382982D01*
X178219Y382815D01*
X178313Y382643D01*
X178385Y382543D01*
X178449Y382438D01*
X178571Y382285D01*
X178686Y382126D01*
X178770Y382037D01*
X178847Y381941D01*
X178988Y381804D01*
X179121Y381661D01*
X179216Y381582D01*
X179304Y381497D01*
X179461Y381378D01*
X179611Y381253D01*
X179715Y381187D01*
X179813Y381113D01*
X179983Y381016D01*
X180148Y380910D01*
X180259Y380858D01*
X180366Y380797D01*
X180546Y380721D01*
X180724Y380637D01*
X180841Y380599D01*
X180954Y380552D01*
X181143Y380500D01*
X181329Y380438D01*
X181449Y380415D01*
X181568Y380382D01*
X181762Y380354D01*
X181954Y380317D01*
X182074Y380309D01*
X182199Y380291D01*
X182412Y380287D01*
X182608Y380275D01*
X184475Y380275D01*
X184670Y380287D01*
X184866Y380290D01*
X184988Y380307D01*
X185111Y380315D01*
X185303Y380351D01*
X185497Y380379D01*
X185616Y380411D01*
X185736Y380434D01*
X185923Y380494D01*
X186112Y380546D01*
X186225Y380593D01*
X186342Y380631D01*
X186520Y380714D01*
X186701Y380789D01*
X186808Y380849D01*
X186919Y380902D01*
X187085Y381007D01*
X187255Y381103D01*
X187353Y381177D01*
X187457Y381243D01*
X187608Y381367D01*
X187765Y381485D01*
X187854Y381570D01*
X187948Y381648D01*
X188083Y381791D01*
X188224Y381927D01*
X188301Y382023D01*
X188385Y382112D01*
X188500Y382271D01*
X188623Y382424D01*
X188688Y382528D01*
X188760Y382627D01*
X188855Y382799D01*
X188958Y382966D01*
X189008Y383078D01*
X189068Y383185D01*
X189140Y383368D01*
X189221Y383546D01*
X189258Y383663D01*
X189303Y383778D01*
X189352Y383967D01*
X189410Y384154D01*
X189432Y384275D01*
X189462Y384394D01*
X189487Y384589D01*
X189522Y384782D01*
X189528Y384904D01*
X189543Y385026D01*
X189544Y385223D01*
X189554Y385418D01*
X189544Y385541D01*
X189544Y385664D01*
X189520Y385858D01*
X189506Y386053D01*
X189481Y386174D01*
X189466Y386296D01*
X189418Y386486D01*
X189378Y386678D01*
X189340Y386791D01*
X189309Y386913D01*
X189303Y386927D01*
X189189Y387500D01*
X189189Y388171D01*
X196730Y388171D01*
X206608Y388171D01*
X206623Y388160D01*
X206831Y388045D01*
X207034Y387924D01*
X207110Y387892D01*
X207181Y387852D01*
X207402Y387765D01*
X207619Y387670D01*
X207697Y387647D01*
X207774Y387617D01*
X208003Y387557D01*
X208230Y387491D01*
X208311Y387478D01*
X208390Y387457D01*
X208625Y387427D01*
X208859Y387390D01*
X208941Y387387D01*
X209022Y387376D01*
X209259Y387376D01*
X209496Y387368D01*
X209577Y387375D01*
X209660Y387375D01*
X209894Y387404D01*
X210130Y387426D01*
X210210Y387444D01*
X210292Y387454D01*
X210521Y387512D01*
X210752Y387563D01*
X210830Y387591D01*
X210909Y387611D01*
X211130Y387698D01*
X211353Y387777D01*
X211426Y387814D01*
X211502Y387844D01*
X211711Y387958D01*
X211921Y388065D01*
X211989Y388110D01*
X212061Y388150D01*
X212254Y388289D01*
X212449Y388421D01*
X212510Y388474D01*
X212578Y388523D01*
X212768Y388701D01*
X212942Y388854D01*
X213761Y389673D01*
X215895Y390557D01*
X218205Y390557D01*
X220339Y389673D01*
X220345Y389667D01*
X220388Y389629D01*
X220426Y389587D01*
X220627Y389419D01*
X220823Y389246D01*
X220870Y389214D01*
X220914Y389177D01*
X221134Y389034D01*
X221350Y388888D01*
X221400Y388862D01*
X221448Y388831D01*
X221684Y388717D01*
X221917Y388598D01*
X221971Y388579D01*
X222022Y388554D01*
X222271Y388471D01*
X222516Y388382D01*
X222572Y388370D01*
X222626Y388351D01*
X222883Y388300D01*
X223138Y388243D01*
X223195Y388237D01*
X223251Y388226D01*
X223512Y388207D01*
X223772Y388182D01*
X223830Y388184D01*
X223887Y388180D01*
X224148Y388194D01*
X224409Y388202D01*
X224466Y388210D01*
X224523Y388214D01*
X224780Y388260D01*
X225039Y388301D01*
X225094Y388317D01*
X225150Y388327D01*
X225399Y388405D01*
X225651Y388478D01*
X225703Y388500D01*
X225758Y388517D01*
X225995Y388626D01*
X226236Y388730D01*
X226285Y388759D01*
X226337Y388783D01*
X226559Y388920D01*
X226785Y389053D01*
X226830Y389088D01*
X226878Y389118D01*
X227082Y389283D01*
X227289Y389443D01*
X227329Y389483D01*
X227374Y389519D01*
X227555Y389708D01*
X227740Y389893D01*
X227775Y389938D01*
X227815Y389979D01*
X227971Y390189D01*
X228132Y390395D01*
X228161Y390445D01*
X228195Y390490D01*
X228323Y390718D01*
X228457Y390943D01*
X228480Y390995D01*
X228508Y391045D01*
X228607Y391288D01*
X228711Y391527D01*
X228727Y391582D01*
X228749Y391635D01*
X228811Y391869D01*
X228891Y392139D01*
X228893Y392156D01*
X229089Y392629D01*
X229368Y393046D01*
X229721Y393399D01*
X230138Y393678D01*
X230600Y393869D01*
X231091Y393967D01*
X237509Y393967D01*
X237704Y393979D01*
X237900Y393982D01*
X238022Y393999D01*
X238145Y394007D01*
X238337Y394043D01*
X238531Y394071D01*
X238650Y394103D01*
X238771Y394126D01*
X238957Y394186D01*
X239146Y394238D01*
X239260Y394285D01*
X239377Y394323D01*
X239554Y394406D01*
X239735Y394481D01*
X239842Y394541D01*
X239953Y394594D01*
X240119Y394699D01*
X240289Y394795D01*
X240388Y394869D01*
X240492Y394935D01*
X240643Y395059D01*
X240800Y395177D01*
X240888Y395262D01*
X240983Y395340D01*
X241117Y395483D01*
X241258Y395619D01*
X241335Y395715D01*
X241419Y395804D01*
X241535Y395963D01*
X241658Y396115D01*
X241722Y396220D01*
X241795Y396319D01*
X241889Y396491D01*
X241992Y396658D01*
X242043Y396770D01*
X242102Y396877D01*
X242175Y397060D01*
X242256Y397238D01*
X242292Y397355D01*
X242337Y397470D01*
X242387Y397659D01*
X242445Y397846D01*
X242466Y397967D01*
X242497Y398086D01*
X242522Y398281D01*
X242556Y398474D01*
X242562Y398596D01*
X242578Y398718D01*
X242578Y398915D01*
X242588Y399110D01*
X242579Y399232D01*
X242579Y399356D01*
X242555Y399550D01*
X242540Y399745D01*
X242515Y399866D01*
X242500Y399988D01*
X242452Y400178D01*
X242413Y400370D01*
X242374Y400483D01*
X242343Y400605D01*
X242265Y400803D01*
X242202Y400990D01*
X241668Y402277D01*
X241668Y420446D01*
X241659Y420601D01*
X241659Y420756D01*
X241639Y420918D01*
X241628Y421082D01*
X241599Y421234D01*
X241580Y421388D01*
X241540Y421547D01*
X241509Y421708D01*
X241461Y421855D01*
X241423Y422005D01*
X241363Y422158D01*
X241312Y422314D01*
X241247Y422454D01*
X241190Y422598D01*
X241111Y422742D01*
X241041Y422890D01*
X240959Y423021D01*
X240884Y423157D01*
X240788Y423290D01*
X240700Y423429D01*
X240602Y423548D01*
X240511Y423674D01*
X240399Y423793D01*
X240295Y423920D01*
X240182Y424026D01*
X240076Y424139D01*
X239950Y424244D01*
X239831Y424356D01*
X239705Y424448D01*
X239586Y424547D01*
X239448Y424635D01*
X239316Y424731D01*
X239180Y424806D01*
X239049Y424890D01*
X238901Y424960D01*
X238758Y425039D01*
X238614Y425096D01*
X238474Y425163D01*
X238318Y425214D01*
X238165Y425274D01*
X238015Y425313D01*
X237868Y425362D01*
X237707Y425393D01*
X237549Y425434D01*
X237395Y425453D01*
X237243Y425483D01*
X237084Y425493D01*
X236917Y425515D01*
X236748Y425515D01*
X236589Y425525D01*
X233170Y425525D01*
X233030Y425554D01*
X232998Y425557D01*
X232967Y425563D01*
X232716Y425579D01*
X232395Y425605D01*
X232353Y425603D01*
X232313Y425605D01*
X229027Y425605D01*
X228466Y425837D01*
X227796Y426508D01*
X227741Y426556D01*
X227692Y426609D01*
X227502Y426767D01*
X227318Y426929D01*
X227258Y426970D01*
X227202Y427017D01*
X226995Y427149D01*
X226791Y427287D01*
X226726Y427320D01*
X226665Y427360D01*
X226443Y427465D01*
X226224Y427577D01*
X226155Y427601D01*
X226089Y427633D01*
X225855Y427709D01*
X225624Y427793D01*
X225553Y427809D01*
X225484Y427832D01*
X225243Y427878D01*
X225003Y427932D01*
X224930Y427939D01*
X224858Y427953D01*
X224627Y427968D01*
X224368Y427993D01*
X224285Y427990D01*
X224205Y427995D01*
X223414Y427995D01*
X223300Y427988D01*
X223186Y427990D01*
X222982Y427968D01*
X222778Y427955D01*
X222666Y427934D01*
X222553Y427922D01*
X222353Y427874D01*
X222152Y427836D01*
X222044Y427801D01*
X221933Y427775D01*
X221741Y427703D01*
X221546Y427639D01*
X221443Y427591D01*
X221336Y427551D01*
X221155Y427455D01*
X220969Y427368D01*
X220873Y427307D01*
X220772Y427254D01*
X220604Y427137D01*
X220431Y427027D01*
X220343Y426955D01*
X220250Y426890D01*
X220098Y426752D01*
X219940Y426622D01*
X219862Y426539D01*
X219777Y426462D01*
X219644Y426307D01*
X219503Y426158D01*
X219436Y426065D01*
X219362Y425979D01*
X219249Y425808D01*
X219128Y425643D01*
X219073Y425543D01*
X219010Y425448D01*
X218923Y425271D01*
X218821Y425085D01*
X218774Y424968D01*
X218721Y424860D01*
X218223Y423656D01*
X217794Y423227D01*
X217233Y422995D01*
X201627Y422995D01*
X201066Y423227D01*
X200637Y423656D01*
X200405Y424217D01*
X200405Y439823D01*
X200637Y440384D01*
X201066Y440813D01*
X201627Y441045D01*
X217233Y441045D01*
X217794Y440813D01*
X218223Y440384D01*
X218721Y439180D01*
X218771Y439078D01*
X218813Y438972D01*
X218911Y438792D01*
X219001Y438608D01*
X219064Y438513D01*
X219119Y438413D01*
X219239Y438246D01*
X219351Y438075D01*
X219425Y437989D01*
X219492Y437896D01*
X219632Y437747D01*
X219765Y437591D01*
X219849Y437514D01*
X219927Y437431D01*
X220084Y437300D01*
X220236Y437162D01*
X220329Y437096D01*
X220416Y437023D01*
X220589Y436913D01*
X220757Y436795D01*
X220857Y436742D01*
X220953Y436680D01*
X221138Y436593D01*
X221320Y436497D01*
X221426Y436456D01*
X221529Y436407D01*
X221724Y436343D01*
X221915Y436271D01*
X222026Y436244D01*
X222134Y436208D01*
X222335Y436169D01*
X222535Y436121D01*
X222648Y436109D01*
X222760Y436087D01*
X222956Y436074D01*
X223168Y436051D01*
X223180Y436051D01*
X223181Y436051D01*
X223296Y436052D01*
X223414Y436045D01*
X223427Y436045D01*
X223622Y436057D01*
X223818Y436060D01*
X223940Y436077D01*
X224063Y436085D01*
X224255Y436121D01*
X224449Y436149D01*
X224568Y436181D01*
X224689Y436204D01*
X224875Y436264D01*
X225064Y436316D01*
X225178Y436363D01*
X225295Y436401D01*
X225472Y436484D01*
X225653Y436559D01*
X225760Y436619D01*
X225871Y436672D01*
X226037Y436776D01*
X226207Y436873D01*
X226306Y436947D01*
X226410Y437013D01*
X226560Y437137D01*
X226718Y437255D01*
X226806Y437340D01*
X226901Y437418D01*
X227035Y437561D01*
X227176Y437697D01*
X227253Y437793D01*
X227337Y437882D01*
X227453Y438041D01*
X227576Y438193D01*
X227640Y438298D01*
X227712Y438397D01*
X227807Y438569D01*
X227910Y438736D01*
X227961Y438848D01*
X228020Y438955D01*
X228092Y439137D01*
X228174Y439316D01*
X228210Y439433D01*
X228255Y439548D01*
X228304Y439737D01*
X228363Y439924D01*
X228384Y440045D01*
X228415Y440164D01*
X228440Y440358D01*
X228474Y440552D01*
X228480Y440674D01*
X228496Y440796D01*
X228496Y440992D01*
X228506Y441188D01*
X228497Y441310D01*
X228497Y441434D01*
X228473Y441628D01*
X228458Y441823D01*
X228433Y441943D01*
X228418Y442066D01*
X228370Y442256D01*
X228331Y442448D01*
X228292Y442561D01*
X228261Y442683D01*
X228183Y442881D01*
X228120Y443068D01*
X227805Y443827D01*
X227805Y454433D01*
X228037Y454994D01*
X228750Y455707D01*
X228774Y455722D01*
X228861Y455796D01*
X228954Y455863D01*
X229103Y456003D01*
X229259Y456136D01*
X229336Y456220D01*
X229419Y456298D01*
X229550Y456456D01*
X229688Y456607D01*
X229754Y456700D01*
X229827Y456788D01*
X229937Y456960D01*
X230055Y457128D01*
X230108Y457229D01*
X230170Y457325D01*
X230257Y457510D01*
X230353Y457691D01*
X230394Y457797D01*
X230443Y457901D01*
X230507Y458095D01*
X230579Y458287D01*
X230606Y458398D01*
X230642Y458506D01*
X230680Y458707D01*
X230729Y458906D01*
X230741Y459019D01*
X230763Y459131D01*
X230776Y459328D01*
X230799Y459539D01*
X230798Y459665D01*
X230805Y459785D01*
X230805Y463899D01*
X230803Y463931D01*
X230805Y463962D01*
X230783Y464249D01*
X230765Y464534D01*
X230759Y464566D01*
X230757Y464598D01*
X230700Y464880D01*
X230646Y465160D01*
X230636Y465191D01*
X230630Y465222D01*
X230549Y465459D01*
X230449Y465766D01*
X230432Y465804D01*
X230419Y465842D01*
X230293Y466145D01*
X230293Y468455D01*
X231177Y470589D01*
X232811Y472223D01*
X234945Y473107D01*
X236589Y473107D01*
X236744Y473116D01*
X236899Y473116D01*
X237061Y473136D01*
X237225Y473147D01*
X237377Y473176D01*
X237531Y473195D01*
X237690Y473235D01*
X237851Y473266D01*
X237998Y473314D01*
X238148Y473352D01*
X238301Y473412D01*
X238457Y473463D01*
X238597Y473528D01*
X238741Y473585D01*
X238885Y473664D01*
X239033Y473734D01*
X239164Y473816D01*
X239300Y473891D01*
X239433Y473987D01*
X239572Y474075D01*
X239691Y474173D01*
X239817Y474264D01*
X239936Y474376D01*
X240063Y474480D01*
X240169Y474593D01*
X240282Y474699D01*
X240387Y474825D01*
X240499Y474944D01*
X240591Y475070D01*
X240690Y475189D01*
X240778Y475327D01*
X240874Y475459D01*
X240949Y475595D01*
X241033Y475726D01*
X241103Y475874D01*
X241182Y476017D01*
X241239Y476161D01*
X241306Y476301D01*
X241357Y476457D01*
X241417Y476610D01*
X241456Y476760D01*
X241505Y476907D01*
X241536Y477068D01*
X241577Y477226D01*
X241596Y477380D01*
X241626Y477532D01*
X241636Y477691D01*
X241658Y477858D01*
X241658Y478027D01*
X241668Y478186D01*
X241668Y494514D01*
X241659Y494669D01*
X241659Y494824D01*
X241639Y494986D01*
X241628Y495150D01*
X241599Y495302D01*
X241580Y495456D01*
X241540Y495615D01*
X241509Y495776D01*
X241461Y495923D01*
X241423Y496073D01*
X241363Y496226D01*
X241312Y496382D01*
X241247Y496522D01*
X241190Y496666D01*
X241111Y496810D01*
X241041Y496958D01*
X240959Y497089D01*
X240884Y497225D01*
X240788Y497358D01*
X240700Y497497D01*
X240602Y497616D01*
X240511Y497742D01*
X240399Y497861D01*
X240295Y497988D01*
X240182Y498094D01*
X240076Y498207D01*
X239950Y498312D01*
X239831Y498424D01*
X239705Y498516D01*
X239586Y498615D01*
X239448Y498703D01*
X239316Y498799D01*
X239180Y498874D01*
X239049Y498958D01*
X238901Y499028D01*
X238758Y499107D01*
X238614Y499164D01*
X238474Y499231D01*
X238318Y499282D01*
X238165Y499342D01*
X238015Y499381D01*
X237868Y499430D01*
X237707Y499461D01*
X237549Y499502D01*
X237395Y499521D01*
X237243Y499551D01*
X237084Y499561D01*
X236917Y499583D01*
X236748Y499583D01*
X236589Y499593D01*
X234945Y499593D01*
X232811Y500477D01*
X232401Y500888D01*
X232346Y500936D01*
X232296Y500989D01*
X232107Y501146D01*
X231923Y501309D01*
X231862Y501350D01*
X231806Y501397D01*
X231599Y501529D01*
X231396Y501667D01*
X231331Y501700D01*
X231269Y501740D01*
X231047Y501845D01*
X230828Y501957D01*
X230760Y501981D01*
X230694Y502013D01*
X230460Y502089D01*
X230229Y502173D01*
X230157Y502189D01*
X230088Y502212D01*
X229847Y502258D01*
X229607Y502312D01*
X229535Y502319D01*
X229463Y502333D01*
X229231Y502348D01*
X228973Y502373D01*
X228889Y502370D01*
X228809Y502375D01*
X217753Y502375D01*
X217517Y502360D01*
X217280Y502353D01*
X217199Y502340D01*
X217118Y502335D01*
X216886Y502291D01*
X216651Y502254D01*
X216572Y502231D01*
X216492Y502216D01*
X216267Y502143D01*
X216039Y502077D01*
X215964Y502045D01*
X215886Y502019D01*
X215671Y501919D01*
X215454Y501825D01*
X215383Y501783D01*
X215309Y501748D01*
X215109Y501621D01*
X214905Y501501D01*
X214840Y501451D01*
X214771Y501407D01*
X214588Y501257D01*
X214401Y501112D01*
X214343Y501054D01*
X214280Y501002D01*
X214117Y500829D01*
X213950Y500662D01*
X213899Y500597D01*
X213843Y500538D01*
X213704Y500346D01*
X213558Y500159D01*
X213516Y500089D01*
X213468Y500023D01*
X213354Y499815D01*
X213233Y499612D01*
X213200Y499536D01*
X213160Y499465D01*
X213073Y499245D01*
X212978Y499027D01*
X212955Y498949D01*
X212925Y498872D01*
X212866Y498644D01*
X212799Y498416D01*
X212786Y498335D01*
X212766Y498256D01*
X212736Y498021D01*
X212698Y497787D01*
X212695Y497705D01*
X212685Y497624D01*
X212684Y497387D01*
X212676Y497150D01*
X212684Y497069D01*
X212684Y496986D01*
X212713Y496752D01*
X212734Y496516D01*
X212752Y496436D01*
X212762Y496354D01*
X212821Y496125D01*
X212872Y495894D01*
X212899Y495816D01*
X212919Y495737D01*
X213006Y495516D01*
X213086Y495293D01*
X213122Y495220D01*
X213153Y495144D01*
X213267Y494935D01*
X213373Y494725D01*
X213419Y494657D01*
X213458Y494585D01*
X213597Y494393D01*
X213729Y494197D01*
X213783Y494136D01*
X213831Y494068D01*
X214009Y493879D01*
X214162Y493704D01*
X214723Y493144D01*
X214955Y492583D01*
X214955Y485977D01*
X214700Y485363D01*
X214683Y485342D01*
X214521Y485158D01*
X214480Y485098D01*
X214433Y485042D01*
X214301Y484835D01*
X214163Y484631D01*
X214130Y484566D01*
X214090Y484505D01*
X213985Y484283D01*
X213873Y484064D01*
X213849Y483995D01*
X213817Y483929D01*
X213741Y483695D01*
X213657Y483464D01*
X213641Y483393D01*
X213618Y483324D01*
X213572Y483083D01*
X213518Y482843D01*
X213511Y482770D01*
X213497Y482698D01*
X213482Y482467D01*
X213457Y482208D01*
X213460Y482125D01*
X213455Y482045D01*
X213455Y481004D01*
X213462Y480890D01*
X213460Y480776D01*
X213482Y480572D01*
X213495Y480368D01*
X213516Y480256D01*
X213528Y480143D01*
X213576Y479943D01*
X213614Y479742D01*
X213649Y479634D01*
X213675Y479523D01*
X213747Y479331D01*
X213811Y479136D01*
X213859Y479033D01*
X213899Y478926D01*
X213995Y478745D01*
X214082Y478559D01*
X214143Y478463D01*
X214196Y478362D01*
X214313Y478194D01*
X214423Y478021D01*
X214495Y477933D01*
X214560Y477840D01*
X214698Y477688D01*
X214828Y477530D01*
X214911Y477452D01*
X214988Y477367D01*
X215143Y477234D01*
X215292Y477093D01*
X215385Y477026D01*
X215471Y476952D01*
X215642Y476839D01*
X215807Y476718D01*
X215907Y476663D01*
X216002Y476600D01*
X216179Y476513D01*
X216365Y476411D01*
X216482Y476364D01*
X216590Y476311D01*
X217794Y475813D01*
X218223Y475384D01*
X218455Y474823D01*
X218455Y459217D01*
X218223Y458656D01*
X217794Y458227D01*
X217233Y457995D01*
X201627Y457995D01*
X201066Y458227D01*
X200637Y458656D01*
X200405Y459217D01*
X200405Y474823D01*
X200637Y475384D01*
X201066Y475813D01*
X202270Y476311D01*
X202372Y476361D01*
X202478Y476403D01*
X202658Y476501D01*
X202842Y476591D01*
X202937Y476654D01*
X203037Y476709D01*
X203204Y476829D01*
X203375Y476941D01*
X203461Y477015D01*
X203554Y477082D01*
X203703Y477222D01*
X203859Y477355D01*
X203936Y477439D01*
X204019Y477517D01*
X204150Y477674D01*
X204288Y477826D01*
X204354Y477919D01*
X204427Y478006D01*
X204537Y478179D01*
X204655Y478347D01*
X204708Y478447D01*
X204770Y478543D01*
X204857Y478728D01*
X204953Y478910D01*
X204994Y479016D01*
X205043Y479119D01*
X205107Y479314D01*
X205179Y479505D01*
X205206Y479616D01*
X205242Y479724D01*
X205281Y479925D01*
X205329Y480125D01*
X205341Y480238D01*
X205363Y480350D01*
X205376Y480546D01*
X205399Y480758D01*
X205398Y480884D01*
X205405Y481004D01*
X205405Y482045D01*
X205401Y482117D01*
X205403Y482190D01*
X205381Y482435D01*
X205365Y482680D01*
X205352Y482752D01*
X205345Y482825D01*
X205292Y483065D01*
X205246Y483306D01*
X205223Y483376D01*
X205208Y483447D01*
X205125Y483678D01*
X205049Y483912D01*
X205018Y483978D01*
X204994Y484047D01*
X204883Y484266D01*
X204778Y484489D01*
X204739Y484551D01*
X204706Y484616D01*
X204569Y484819D01*
X204437Y485027D01*
X204391Y485083D01*
X204350Y485144D01*
X204197Y485318D01*
X204159Y485364D01*
X203905Y485977D01*
X203905Y492583D01*
X204137Y493144D01*
X205182Y494188D01*
X205285Y494305D01*
X205394Y494414D01*
X205448Y494483D01*
X205490Y494527D01*
X205532Y494585D01*
X205604Y494666D01*
X205691Y494794D01*
X205786Y494917D01*
X205841Y495010D01*
X205865Y495042D01*
X205889Y495086D01*
X205962Y495193D01*
X206032Y495331D01*
X206111Y495464D01*
X206163Y495583D01*
X206172Y495600D01*
X206183Y495627D01*
X206251Y495761D01*
X206304Y495907D01*
X206366Y496049D01*
X206412Y496206D01*
X206467Y496360D01*
X206501Y496511D01*
X206545Y496660D01*
X206571Y496822D01*
X206607Y496982D01*
X206621Y497136D01*
X206646Y497289D01*
X206652Y497453D01*
X206667Y497616D01*
X206662Y497771D01*
X206668Y497926D01*
X206653Y498089D01*
X206648Y498253D01*
X206624Y498406D01*
X206610Y498560D01*
X206574Y498721D01*
X206549Y498882D01*
X206506Y499031D01*
X206472Y499183D01*
X206417Y499337D01*
X206372Y499494D01*
X206310Y499637D01*
X206258Y499783D01*
X206184Y499929D01*
X206120Y500079D01*
X206041Y500213D01*
X205971Y500351D01*
X205879Y500487D01*
X205796Y500628D01*
X205701Y500751D01*
X205615Y500879D01*
X205510Y500999D01*
X205406Y501132D01*
X205287Y501252D01*
X205182Y501372D01*
X204137Y502416D01*
X203905Y502977D01*
X203905Y509815D01*
X203932Y509920D01*
X203948Y510042D01*
X203973Y510163D01*
X203988Y510358D01*
X204013Y510552D01*
X204014Y510675D01*
X204023Y510798D01*
X204014Y510994D01*
X204014Y511190D01*
X203999Y511312D01*
X203994Y511434D01*
X203960Y511627D01*
X203936Y511822D01*
X203905Y511941D01*
X203884Y512062D01*
X203827Y512249D01*
X203779Y512439D01*
X203734Y512554D01*
X203698Y512671D01*
X203617Y512850D01*
X203545Y513032D01*
X203486Y513140D01*
X203436Y513252D01*
X203334Y513419D01*
X203240Y513591D01*
X203168Y513691D01*
X203104Y513796D01*
X202981Y513949D01*
X202867Y514108D01*
X202783Y514197D01*
X202706Y514294D01*
X202565Y514430D01*
X202432Y514573D01*
X202337Y514652D01*
X202249Y514738D01*
X202092Y514855D01*
X201942Y514981D01*
X201838Y515047D01*
X201740Y515121D01*
X201570Y515218D01*
X201405Y515324D01*
X201294Y515376D01*
X201187Y515437D01*
X201007Y515513D01*
X200829Y515597D01*
X200712Y515635D01*
X200599Y515682D01*
X200410Y515734D01*
X200224Y515796D01*
X200103Y515819D01*
X199985Y515852D01*
X199791Y515880D01*
X199598Y515917D01*
X199478Y515925D01*
X199354Y515943D01*
X199141Y515947D01*
X198945Y515959D01*
X195450Y515959D01*
X194959Y516057D01*
X194497Y516248D01*
X194080Y516527D01*
X193727Y516880D01*
X193448Y517297D01*
X193257Y517759D01*
X193159Y518250D01*
X193159Y518421D01*
X201200Y518421D01*
X201354Y518430D01*
X201509Y518430D01*
X201672Y518450D01*
X201836Y518461D01*
X201987Y518489D01*
X202141Y518509D01*
X202301Y518549D01*
X202461Y518580D01*
X202609Y518628D01*
X202759Y518666D01*
X202911Y518726D01*
X203067Y518776D01*
X203208Y518842D01*
X203352Y518899D01*
X203496Y518978D01*
X203644Y519047D01*
X203775Y519130D01*
X203911Y519205D01*
X204044Y519301D01*
X204182Y519388D01*
X204302Y519487D01*
X204427Y519578D01*
X204547Y519690D01*
X204673Y519794D01*
X204780Y519907D01*
X204893Y520013D01*
X204998Y520139D01*
X205060Y520205D01*
X205111Y520259D01*
X205202Y520384D01*
X205301Y520503D01*
X205389Y520641D01*
X205486Y520774D01*
X205560Y520909D01*
X205644Y521040D01*
X205714Y521188D01*
X205793Y521332D01*
X205850Y521476D01*
X205917Y521616D01*
X205968Y521772D01*
X206029Y521924D01*
X206067Y522074D01*
X206116Y522221D01*
X206147Y522382D01*
X206188Y522541D01*
X206208Y522694D01*
X206237Y522846D01*
X206247Y523005D01*
X206269Y523173D01*
X206269Y523341D01*
X206279Y523500D01*
X206279Y531041D01*
X206950Y531041D01*
X207441Y530943D01*
X207904Y530752D01*
X208037Y530662D01*
X208255Y530536D01*
X208471Y530403D01*
X208531Y530375D01*
X208588Y530342D01*
X208820Y530244D01*
X209051Y530139D01*
X209114Y530119D01*
X209175Y530094D01*
X209418Y530025D01*
X209659Y529950D01*
X209724Y529938D01*
X209788Y529921D01*
X210038Y529883D01*
X210287Y529839D01*
X210352Y529835D01*
X210418Y529825D01*
X210671Y529819D01*
X210923Y529807D01*
X210989Y529812D01*
X211055Y529810D01*
X211306Y529836D01*
X211558Y529855D01*
X211623Y529868D01*
X211689Y529874D01*
X211934Y529931D01*
X212183Y529982D01*
X212244Y530003D01*
X212309Y530018D01*
X212328Y530025D01*
X215683Y530025D01*
X215715Y530027D01*
X215747Y530025D01*
X216033Y530047D01*
X216319Y530065D01*
X216350Y530071D01*
X216382Y530073D01*
X216537Y530105D01*
X247708Y530105D01*
X247766Y530085D01*
X247797Y530078D01*
X247828Y530068D01*
X248110Y530014D01*
X248390Y529956D01*
X248421Y529953D01*
X248453Y529947D01*
X248704Y529931D01*
X249025Y529905D01*
X249067Y529907D01*
X249107Y529905D01*
X262644Y529905D01*
X265071Y528899D01*
X266929Y527041D01*
X268025Y524395D01*
X268039Y524366D01*
X268050Y524336D01*
X268179Y524081D01*
X268306Y523823D01*
X268323Y523796D01*
X268338Y523767D01*
X268498Y523530D01*
X268655Y523290D01*
X268676Y523266D01*
X268694Y523239D01*
X268860Y523050D01*
X269069Y522806D01*
X269100Y522778D01*
X269126Y522747D01*
X269617Y522257D01*
X271105Y518664D01*
X271105Y498276D01*
X270504Y496826D01*
X270494Y496796D01*
X270480Y496767D01*
X270391Y496494D01*
X270298Y496223D01*
X270291Y496192D01*
X270281Y496162D01*
X270227Y495880D01*
X270169Y495600D01*
X270166Y495568D01*
X270160Y495536D01*
X270144Y495286D01*
X270118Y494964D01*
X270120Y494923D01*
X270118Y494883D01*
X270118Y402278D01*
X267952Y397049D01*
X265905Y395003D01*
X265857Y394948D01*
X265804Y394898D01*
X265646Y394709D01*
X265484Y394525D01*
X265443Y394464D01*
X265396Y394408D01*
X265264Y394201D01*
X265126Y393998D01*
X265093Y393933D01*
X265053Y393871D01*
X264948Y393649D01*
X264836Y393430D01*
X264812Y393362D01*
X264780Y393296D01*
X264704Y393062D01*
X264620Y392831D01*
X264604Y392760D01*
X264581Y392690D01*
X264535Y392449D01*
X264481Y392209D01*
X264474Y392137D01*
X264460Y392065D01*
X264445Y391834D01*
X264420Y391575D01*
X264423Y391491D01*
X264418Y391411D01*
X264418Y329448D01*
X263120Y326314D01*
X260008Y323202D01*
X260007Y323202D01*
X256879Y320073D01*
X253722Y318766D01*
X253663Y318766D01*
X253501Y318746D01*
X253337Y318735D01*
X253185Y318706D01*
X253031Y318687D01*
X252872Y318647D01*
X252711Y318616D01*
X252564Y318568D01*
X252414Y318530D01*
X252261Y318470D01*
X252105Y318419D01*
X251965Y318354D01*
X251821Y318297D01*
X251677Y318218D01*
X251529Y318148D01*
X251398Y318066D01*
X251262Y317991D01*
X251129Y317895D01*
X250990Y317807D01*
X250871Y317709D01*
X250745Y317618D01*
X250626Y317506D01*
X250499Y317402D01*
X250393Y317289D01*
X250280Y317183D01*
X250175Y317057D01*
X250063Y316938D01*
X249971Y316812D01*
X249872Y316693D01*
X249784Y316555D01*
X249688Y316423D01*
X249613Y316287D01*
X249529Y316156D01*
X249459Y316008D01*
X249380Y315865D01*
X249323Y315721D01*
X249256Y315581D01*
X249205Y315425D01*
X249145Y315272D01*
X249106Y315122D01*
X249057Y314975D01*
X249026Y314814D01*
X248985Y314656D01*
X248966Y314502D01*
X248936Y314350D01*
X248926Y314191D01*
X248904Y314024D01*
X248904Y313855D01*
X248894Y313696D01*
X248894Y304258D01*
X248907Y304047D01*
X248911Y303835D01*
X248927Y303729D01*
X248934Y303622D01*
X248973Y303414D01*
X249004Y303205D01*
X249033Y303101D01*
X249053Y302996D01*
X249118Y302795D01*
X249175Y302591D01*
X249216Y302492D01*
X249250Y302390D01*
X249340Y302198D01*
X249422Y302003D01*
X249474Y301913D01*
X249521Y301814D01*
X249589Y301706D01*
X249799Y301198D01*
X249728Y301116D01*
X249614Y300944D01*
X249492Y300777D01*
X249438Y300679D01*
X249376Y300585D01*
X249285Y300400D01*
X249185Y300219D01*
X249143Y300114D01*
X249094Y300014D01*
X249026Y299819D01*
X248949Y299627D01*
X248921Y299518D01*
X248885Y299412D01*
X248842Y299210D01*
X248790Y299010D01*
X248776Y298899D01*
X248753Y298789D01*
X248735Y298583D01*
X248709Y298378D01*
X248709Y298266D01*
X248700Y298154D01*
X248708Y297947D01*
X248708Y297741D01*
X248722Y297629D01*
X248727Y297517D01*
X248761Y297313D01*
X248787Y297108D01*
X248814Y297000D01*
X248833Y296889D01*
X248893Y296691D01*
X248944Y296491D01*
X248985Y296387D01*
X249017Y296279D01*
X249101Y296091D01*
X249177Y295898D01*
X249231Y295799D01*
X249276Y295697D01*
X249379Y295528D01*
X249483Y295339D01*
X249502Y295312D01*
X249555Y295238D01*
X249617Y295137D01*
X249740Y294983D01*
X249856Y294822D01*
X249876Y294801D01*
X249868Y294792D01*
X249741Y294618D01*
X249617Y294463D01*
X249558Y294367D01*
X249493Y294277D01*
X249492Y294276D01*
X249393Y294095D01*
X249285Y293919D01*
X249239Y293816D01*
X249185Y293718D01*
X249108Y293526D01*
X249024Y293338D01*
X248991Y293230D01*
X248949Y293126D01*
X248898Y292926D01*
X248837Y292728D01*
X248818Y292618D01*
X248790Y292509D01*
X248764Y292304D01*
X248728Y292101D01*
X248723Y291989D01*
X248709Y291877D01*
X248709Y291671D01*
X248699Y291464D01*
X248708Y291352D01*
X248708Y291240D01*
X248733Y291035D01*
X248750Y290829D01*
X248773Y290719D01*
X248787Y290608D01*
X248838Y290407D01*
X248880Y290205D01*
X248916Y290099D01*
X248944Y289991D01*
X249020Y289798D01*
X249087Y289603D01*
X249136Y289502D01*
X249177Y289398D01*
X249276Y289216D01*
X249367Y289031D01*
X249429Y288937D01*
X249483Y288839D01*
X249604Y288671D01*
X249717Y288498D01*
X249790Y288413D01*
X249804Y288394D01*
X249745Y288095D01*
X249743Y288079D01*
X249739Y288064D01*
X249700Y287762D01*
X249660Y287464D01*
X249660Y287448D01*
X249658Y287432D01*
X249657Y287127D01*
X249655Y286826D01*
X249657Y286811D01*
X249657Y286794D01*
X249694Y286494D01*
X249729Y286194D01*
X249733Y286178D01*
X249735Y286162D01*
X249810Y285870D01*
X249883Y285575D01*
X249889Y285560D01*
X249892Y285545D01*
X250004Y285262D01*
X250112Y284981D01*
X250120Y284967D01*
X250126Y284952D01*
X250273Y284683D01*
X250414Y284420D01*
X250424Y284407D01*
X250431Y284393D01*
X250610Y284146D01*
X250784Y283901D01*
X250795Y283889D01*
X250805Y283876D01*
X251011Y283655D01*
X251216Y283433D01*
X251229Y283423D01*
X251239Y283411D01*
X251473Y283217D01*
X251703Y283022D01*
X251717Y283014D01*
X251729Y283003D01*
X251984Y282840D01*
X252238Y282676D01*
X252253Y282669D01*
X252266Y282660D01*
X252540Y282530D01*
X252812Y282399D01*
X252827Y282394D01*
X252842Y282387D01*
X253129Y282293D01*
X253416Y282197D01*
X253432Y282193D01*
X253447Y282188D01*
X253745Y282131D01*
X254041Y282071D01*
X254057Y282070D01*
X254073Y282067D01*
X254310Y282052D01*
X254676Y282025D01*
X254702Y282026D01*
X254726Y282025D01*
X319074Y282025D01*
X319089Y282026D01*
X319106Y282025D01*
X319410Y282046D01*
X319709Y282065D01*
X319725Y282068D01*
X319741Y282069D01*
X320039Y282128D01*
X320335Y282184D01*
X320351Y282189D01*
X320366Y282192D01*
X320653Y282287D01*
X320941Y282381D01*
X320956Y282387D01*
X320971Y282392D01*
X321244Y282523D01*
X321518Y282652D01*
X321531Y282660D01*
X321546Y282667D01*
X321801Y282831D01*
X322056Y282993D01*
X322068Y283003D01*
X322082Y283012D01*
X322314Y283206D01*
X322547Y283398D01*
X322558Y283410D01*
X322571Y283420D01*
X322777Y283642D01*
X322984Y283862D01*
X322993Y283875D01*
X323004Y283887D01*
X323182Y284134D01*
X323359Y284377D01*
X323367Y284391D01*
X323376Y284405D01*
X323521Y284671D01*
X323667Y284935D01*
X323673Y284950D01*
X323680Y284964D01*
X323790Y285246D01*
X323902Y285528D01*
X323906Y285543D01*
X323912Y285558D01*
X323986Y285852D01*
X324061Y286144D01*
X324063Y286160D01*
X324067Y286176D01*
X324103Y286471D01*
X324142Y286776D01*
X324142Y286793D01*
X324144Y286808D01*
X324143Y287106D01*
X324143Y287414D01*
X324141Y287430D01*
X324141Y287445D01*
X324110Y287678D01*
X324065Y288046D01*
X324058Y288071D01*
X324055Y288095D01*
X323996Y288395D01*
X323999Y288399D01*
X324072Y288484D01*
X324186Y288656D01*
X324308Y288823D01*
X324362Y288921D01*
X324424Y289015D01*
X324515Y289200D01*
X324615Y289381D01*
X324657Y289486D01*
X324706Y289586D01*
X324774Y289781D01*
X324851Y289973D01*
X324879Y290082D01*
X324915Y290188D01*
X324958Y290390D01*
X325010Y290590D01*
X325024Y290701D01*
X325047Y290811D01*
X325065Y291017D01*
X325091Y291222D01*
X325091Y291334D01*
X325100Y291446D01*
X325092Y291653D01*
X325092Y291859D01*
X325078Y291970D01*
X325073Y292083D01*
X325039Y292286D01*
X325013Y292492D01*
X324986Y292600D01*
X324967Y292711D01*
X324907Y292909D01*
X324856Y293109D01*
X324815Y293213D01*
X324783Y293321D01*
X324699Y293509D01*
X324623Y293702D01*
X324569Y293801D01*
X324524Y293903D01*
X324421Y294072D01*
X324317Y294261D01*
X324245Y294362D01*
X324183Y294463D01*
X324060Y294617D01*
X323944Y294778D01*
X323924Y294799D01*
X323932Y294808D01*
X323933Y294809D01*
X323959Y294845D01*
X323988Y294877D01*
X324146Y295101D01*
X324308Y295324D01*
X324329Y295363D01*
X324354Y295399D01*
X324483Y295641D01*
X324615Y295882D01*
X324632Y295923D01*
X324652Y295962D01*
X324749Y296219D01*
X324851Y296474D01*
X324862Y296516D01*
X324877Y296558D01*
X324941Y296825D01*
X325010Y297091D01*
X325016Y297135D01*
X325026Y297178D01*
X325056Y297449D01*
X325091Y297723D01*
X325091Y297767D01*
X325096Y297811D01*
X325092Y298084D01*
X325092Y298360D01*
X325087Y298404D01*
X325086Y298448D01*
X325047Y298718D01*
X325013Y298992D01*
X325002Y299035D01*
X324996Y299079D01*
X324924Y299343D01*
X324856Y299609D01*
X324840Y299651D01*
X324828Y299693D01*
X324724Y299946D01*
X324623Y300202D01*
X324602Y300241D01*
X324585Y300282D01*
X324450Y300519D01*
X324317Y300761D01*
X324291Y300797D01*
X324270Y300836D01*
X324106Y301054D01*
X324001Y301199D01*
X324209Y301702D01*
X324271Y301798D01*
X324317Y301894D01*
X324370Y301987D01*
X324453Y302181D01*
X324544Y302373D01*
X324577Y302475D01*
X324619Y302573D01*
X324676Y302777D01*
X324743Y302979D01*
X324763Y303084D01*
X324792Y303187D01*
X324824Y303396D01*
X324864Y303604D01*
X324871Y303709D01*
X324887Y303817D01*
X324893Y304047D01*
X324906Y304258D01*
X324906Y313696D01*
X324897Y313851D01*
X324897Y314006D01*
X324877Y314168D01*
X324866Y314332D01*
X324837Y314484D01*
X324818Y314638D01*
X324778Y314797D01*
X324747Y314958D01*
X324699Y315105D01*
X324661Y315255D01*
X324601Y315408D01*
X324550Y315564D01*
X324485Y315704D01*
X324428Y315848D01*
X324349Y315992D01*
X324279Y316140D01*
X324197Y316271D01*
X324122Y316407D01*
X324026Y316540D01*
X323938Y316679D01*
X323840Y316798D01*
X323749Y316924D01*
X323637Y317043D01*
X323533Y317170D01*
X323420Y317276D01*
X323314Y317389D01*
X323188Y317494D01*
X323069Y317606D01*
X322943Y317698D01*
X322824Y317797D01*
X322686Y317885D01*
X322554Y317981D01*
X322418Y318056D01*
X322287Y318140D01*
X322139Y318210D01*
X321996Y318289D01*
X321852Y318346D01*
X321712Y318413D01*
X321556Y318464D01*
X321403Y318524D01*
X321253Y318563D01*
X321106Y318612D01*
X320945Y318643D01*
X320787Y318684D01*
X320633Y318703D01*
X320481Y318733D01*
X320322Y318743D01*
X320155Y318765D01*
X320080Y318765D01*
X316921Y320073D01*
X310680Y326314D01*
X309382Y329448D01*
X309382Y392211D01*
X309378Y392284D01*
X309380Y392357D01*
X309358Y392602D01*
X309342Y392847D01*
X309329Y392918D01*
X309322Y392991D01*
X309269Y393231D01*
X309223Y393473D01*
X309200Y393542D01*
X309185Y393613D01*
X309102Y393844D01*
X309026Y394079D01*
X308995Y394145D01*
X308971Y394214D01*
X308860Y394433D01*
X308755Y394655D01*
X308716Y394717D01*
X308683Y394782D01*
X308546Y394986D01*
X308414Y395194D01*
X308368Y395250D01*
X308327Y395310D01*
X308174Y395484D01*
X308009Y395685D01*
X307948Y395742D01*
X307895Y395803D01*
X305848Y397849D01*
X303682Y403078D01*
X303682Y492130D01*
X303680Y492162D01*
X303682Y492194D01*
X303660Y492480D01*
X303642Y492766D01*
X303636Y492797D01*
X303634Y492829D01*
X303577Y493110D01*
X303523Y493392D01*
X303513Y493422D01*
X303507Y493454D01*
X303426Y493691D01*
X303326Y493998D01*
X303309Y494036D01*
X303296Y494074D01*
X301555Y498276D01*
X301555Y518664D01*
X303043Y522257D01*
X303238Y522451D01*
X303286Y522506D01*
X303339Y522556D01*
X303497Y522745D01*
X303659Y522929D01*
X303700Y522989D01*
X303747Y523046D01*
X303879Y523253D01*
X304017Y523456D01*
X304050Y523521D01*
X304090Y523582D01*
X304195Y523804D01*
X304307Y524024D01*
X304331Y524092D01*
X304363Y524158D01*
X304439Y524392D01*
X304523Y524623D01*
X304539Y524694D01*
X304562Y524763D01*
X304608Y525005D01*
X304656Y525216D01*
X305731Y527811D01*
X307589Y529669D01*
X310016Y530675D01*
X357344Y530675D01*
X357980Y530411D01*
X358010Y530401D01*
X358039Y530387D01*
X358312Y530298D01*
X358582Y530205D01*
X358614Y530198D01*
X358644Y530188D01*
X358926Y530134D01*
X359206Y530076D01*
X359238Y530073D01*
X359270Y530067D01*
X359520Y530051D01*
X359841Y530025D01*
X359883Y530027D01*
X359923Y530025D01*
X362468Y530025D01*
X362473Y530023D01*
X362537Y530008D01*
X362600Y529987D01*
X362847Y529935D01*
X363094Y529877D01*
X363159Y529871D01*
X363224Y529857D01*
X363476Y529837D01*
X363727Y529811D01*
X363793Y529812D01*
X363859Y529807D01*
X364111Y529819D01*
X364364Y529824D01*
X364430Y529834D01*
X364495Y529837D01*
X364745Y529880D01*
X364995Y529917D01*
X365058Y529934D01*
X365123Y529946D01*
X365365Y530020D01*
X365608Y530088D01*
X365669Y530113D01*
X365732Y530133D01*
X365963Y530237D01*
X366196Y530334D01*
X366252Y530367D01*
X366313Y530394D01*
X366553Y530541D01*
X366763Y530662D01*
X366896Y530752D01*
X367359Y530943D01*
X367850Y531041D01*
X368521Y531041D01*
X368521Y523500D01*
X368530Y523346D01*
X368530Y523191D01*
X368550Y523028D01*
X368561Y522864D01*
X368589Y522713D01*
X368609Y522559D01*
X368649Y522399D01*
X368680Y522239D01*
X368728Y522091D01*
X368766Y521941D01*
X368826Y521789D01*
X368876Y521633D01*
X368942Y521492D01*
X368999Y521348D01*
X369078Y521204D01*
X369147Y521056D01*
X369230Y520925D01*
X369305Y520789D01*
X369401Y520656D01*
X369488Y520518D01*
X369587Y520398D01*
X369678Y520273D01*
X369790Y520153D01*
X369894Y520027D01*
X369895Y520026D01*
X370007Y519920D01*
X370113Y519807D01*
X370239Y519702D01*
X370359Y519589D01*
X370484Y519498D01*
X370603Y519399D01*
X370741Y519311D01*
X370874Y519214D01*
X371009Y519140D01*
X371140Y519056D01*
X371288Y518986D01*
X371432Y518907D01*
X371576Y518850D01*
X371716Y518783D01*
X371872Y518732D01*
X372024Y518671D01*
X372174Y518633D01*
X372321Y518584D01*
X372482Y518553D01*
X372641Y518512D01*
X372794Y518492D01*
X372946Y518463D01*
X373105Y518453D01*
X373273Y518431D01*
X373441Y518431D01*
X373600Y518421D01*
X381641Y518421D01*
X381641Y518250D01*
X381543Y517759D01*
X381352Y517297D01*
X381073Y516880D01*
X380720Y516527D01*
X380303Y516248D01*
X379841Y516057D01*
X379350Y515959D01*
X374855Y515959D01*
X374660Y515947D01*
X374463Y515944D01*
X374342Y515927D01*
X374219Y515919D01*
X374027Y515883D01*
X373833Y515855D01*
X373714Y515823D01*
X373594Y515800D01*
X373407Y515739D01*
X373218Y515688D01*
X373104Y515641D01*
X372988Y515603D01*
X372810Y515520D01*
X372629Y515445D01*
X372522Y515385D01*
X372411Y515332D01*
X372245Y515227D01*
X372075Y515131D01*
X371977Y515057D01*
X371873Y514991D01*
X371722Y514866D01*
X371564Y514749D01*
X371476Y514664D01*
X371382Y514586D01*
X371247Y514443D01*
X371106Y514307D01*
X371029Y514211D01*
X370945Y514122D01*
X370829Y513963D01*
X370707Y513810D01*
X370642Y513706D01*
X370570Y513607D01*
X370475Y513435D01*
X370372Y513268D01*
X370322Y513156D01*
X370262Y513049D01*
X370190Y512866D01*
X370109Y512688D01*
X370072Y512570D01*
X370027Y512456D01*
X369978Y512266D01*
X369920Y512079D01*
X369898Y511959D01*
X369868Y511840D01*
X369843Y511645D01*
X369808Y511452D01*
X369802Y511330D01*
X369787Y511208D01*
X369786Y511011D01*
X369776Y510816D01*
X369786Y510693D01*
X369786Y510570D01*
X369810Y510376D01*
X369825Y510180D01*
X369849Y510060D01*
X369864Y509938D01*
X369895Y509818D01*
X369895Y502977D01*
X369663Y502416D01*
X368618Y501372D01*
X368515Y501255D01*
X368406Y501146D01*
X368305Y501017D01*
X368196Y500894D01*
X368109Y500766D01*
X368014Y500643D01*
X367930Y500502D01*
X367838Y500367D01*
X367768Y500229D01*
X367689Y500096D01*
X367623Y499945D01*
X367549Y499799D01*
X367496Y499653D01*
X367434Y499511D01*
X367388Y499354D01*
X367333Y499200D01*
X367299Y499049D01*
X367255Y498900D01*
X367229Y498738D01*
X367193Y498578D01*
X367179Y498424D01*
X367154Y498271D01*
X367148Y498107D01*
X367133Y497944D01*
X367138Y497789D01*
X367132Y497634D01*
X367147Y497471D01*
X367152Y497307D01*
X367176Y497154D01*
X367190Y497000D01*
X367226Y496840D01*
X367251Y496678D01*
X367294Y496529D01*
X367328Y496378D01*
X367383Y496223D01*
X367428Y496066D01*
X367490Y495923D01*
X367542Y495777D01*
X367609Y495643D01*
X367620Y495617D01*
X367629Y495600D01*
X367680Y495481D01*
X367759Y495347D01*
X367829Y495209D01*
X367902Y495101D01*
X367926Y495058D01*
X367949Y495026D01*
X368004Y494932D01*
X368099Y494809D01*
X368185Y494681D01*
X368256Y494600D01*
X368299Y494541D01*
X368340Y494497D01*
X368394Y494428D01*
X368513Y494308D01*
X368618Y494188D01*
X369663Y493144D01*
X369895Y492583D01*
X369895Y485977D01*
X369641Y485363D01*
X369624Y485343D01*
X369461Y485158D01*
X369420Y485098D01*
X369373Y485042D01*
X369241Y484835D01*
X369103Y484632D01*
X369070Y484567D01*
X369030Y484505D01*
X368925Y484282D01*
X368813Y484064D01*
X368789Y483996D01*
X368757Y483929D01*
X368680Y483695D01*
X368597Y483465D01*
X368581Y483393D01*
X368558Y483324D01*
X368512Y483083D01*
X368458Y482843D01*
X368451Y482770D01*
X368437Y482698D01*
X368422Y482467D01*
X368397Y482209D01*
X368400Y482125D01*
X368395Y482045D01*
X368395Y481004D01*
X368402Y480890D01*
X368400Y480776D01*
X368422Y480572D01*
X368435Y480368D01*
X368456Y480256D01*
X368468Y480143D01*
X368516Y479943D01*
X368554Y479742D01*
X368589Y479634D01*
X368615Y479523D01*
X368687Y479331D01*
X368751Y479136D01*
X368799Y479033D01*
X368839Y478926D01*
X368935Y478745D01*
X369022Y478559D01*
X369083Y478463D01*
X369136Y478362D01*
X369253Y478194D01*
X369363Y478021D01*
X369435Y477933D01*
X369500Y477840D01*
X369638Y477688D01*
X369768Y477530D01*
X369851Y477452D01*
X369928Y477367D01*
X370083Y477234D01*
X370232Y477093D01*
X370325Y477026D01*
X370411Y476952D01*
X370582Y476839D01*
X370747Y476718D01*
X370847Y476663D01*
X370942Y476600D01*
X371119Y476513D01*
X371305Y476411D01*
X371422Y476364D01*
X371530Y476311D01*
X372734Y475813D01*
X373163Y475384D01*
X373395Y474823D01*
X373395Y459217D01*
X373163Y458656D01*
X372734Y458227D01*
X372173Y457995D01*
X356567Y457995D01*
X356006Y458227D01*
X355577Y458656D01*
X355345Y459217D01*
X355345Y474823D01*
X355577Y475384D01*
X356006Y475813D01*
X357210Y476311D01*
X357312Y476361D01*
X357418Y476403D01*
X357598Y476501D01*
X357782Y476591D01*
X357877Y476654D01*
X357977Y476709D01*
X358144Y476829D01*
X358315Y476941D01*
X358401Y477015D01*
X358494Y477082D01*
X358643Y477222D01*
X358799Y477355D01*
X358876Y477439D01*
X358959Y477517D01*
X359090Y477674D01*
X359228Y477826D01*
X359294Y477919D01*
X359367Y478006D01*
X359477Y478179D01*
X359595Y478347D01*
X359648Y478447D01*
X359710Y478543D01*
X359797Y478728D01*
X359893Y478910D01*
X359934Y479016D01*
X359983Y479119D01*
X360047Y479314D01*
X360119Y479505D01*
X360146Y479616D01*
X360182Y479724D01*
X360221Y479925D01*
X360269Y480125D01*
X360281Y480238D01*
X360303Y480350D01*
X360316Y480546D01*
X360339Y480758D01*
X360338Y480884D01*
X360345Y481004D01*
X360345Y482045D01*
X360341Y482117D01*
X360343Y482191D01*
X360321Y482435D01*
X360305Y482680D01*
X360292Y482752D01*
X360285Y482825D01*
X360232Y483065D01*
X360186Y483306D01*
X360164Y483376D01*
X360148Y483447D01*
X360065Y483678D01*
X359989Y483912D01*
X359958Y483979D01*
X359934Y484047D01*
X359823Y484267D01*
X359718Y484489D01*
X359679Y484551D01*
X359646Y484616D01*
X359509Y484820D01*
X359377Y485027D01*
X359331Y485084D01*
X359290Y485144D01*
X359137Y485318D01*
X359099Y485364D01*
X358845Y485977D01*
X358845Y492583D01*
X359077Y493144D01*
X359638Y493704D01*
X359795Y493882D01*
X359957Y494054D01*
X360005Y494121D01*
X360060Y494182D01*
X360192Y494378D01*
X360332Y494570D01*
X360372Y494641D01*
X360418Y494709D01*
X360525Y494920D01*
X360640Y495127D01*
X360670Y495204D01*
X360707Y495277D01*
X360788Y495500D01*
X360875Y495720D01*
X360896Y495799D01*
X360923Y495876D01*
X360975Y496107D01*
X361034Y496336D01*
X361045Y496418D01*
X361063Y496498D01*
X361085Y496733D01*
X361115Y496968D01*
X361115Y497051D01*
X361123Y497132D01*
X361116Y497368D01*
X361116Y497606D01*
X361106Y497687D01*
X361104Y497769D01*
X361067Y498002D01*
X361038Y498238D01*
X361018Y498318D01*
X361005Y498398D01*
X360939Y498625D01*
X360881Y498855D01*
X360851Y498932D01*
X360828Y499010D01*
X360734Y499228D01*
X360647Y499448D01*
X360608Y499520D01*
X360576Y499595D01*
X360455Y499799D01*
X360342Y500007D01*
X360294Y500074D01*
X360252Y500144D01*
X360107Y500332D01*
X359969Y500524D01*
X359913Y500583D01*
X359862Y500648D01*
X359695Y500816D01*
X359534Y500989D01*
X359470Y501042D01*
X359413Y501100D01*
X359226Y501245D01*
X359044Y501397D01*
X358975Y501441D01*
X358910Y501491D01*
X358707Y501612D01*
X358507Y501740D01*
X358433Y501775D01*
X358362Y501817D01*
X358146Y501911D01*
X357931Y502013D01*
X357853Y502038D01*
X357778Y502071D01*
X357551Y502138D01*
X357326Y502212D01*
X357246Y502227D01*
X357167Y502250D01*
X356933Y502288D01*
X356700Y502333D01*
X356620Y502338D01*
X356538Y502351D01*
X356278Y502360D01*
X356047Y502375D01*
X344991Y502375D01*
X344918Y502371D01*
X344845Y502373D01*
X344600Y502351D01*
X344355Y502335D01*
X344284Y502322D01*
X344211Y502315D01*
X343971Y502262D01*
X343729Y502216D01*
X343660Y502193D01*
X343589Y502178D01*
X343358Y502095D01*
X343123Y502019D01*
X343057Y501988D01*
X342989Y501964D01*
X342770Y501853D01*
X342547Y501748D01*
X342485Y501709D01*
X342420Y501676D01*
X342216Y501539D01*
X342009Y501407D01*
X341952Y501361D01*
X341892Y501320D01*
X341718Y501167D01*
X341517Y501002D01*
X341460Y500941D01*
X341400Y500888D01*
X340989Y500477D01*
X338855Y499593D01*
X337211Y499593D01*
X337056Y499584D01*
X336901Y499584D01*
X336739Y499564D01*
X336575Y499553D01*
X336423Y499524D01*
X336269Y499505D01*
X336110Y499465D01*
X335949Y499434D01*
X335802Y499386D01*
X335652Y499348D01*
X335499Y499288D01*
X335343Y499237D01*
X335203Y499172D01*
X335059Y499115D01*
X334915Y499036D01*
X334767Y498966D01*
X334636Y498884D01*
X334500Y498809D01*
X334367Y498713D01*
X334228Y498625D01*
X334109Y498527D01*
X333983Y498436D01*
X333864Y498324D01*
X333737Y498220D01*
X333631Y498107D01*
X333518Y498001D01*
X333413Y497875D01*
X333301Y497756D01*
X333209Y497630D01*
X333110Y497511D01*
X333022Y497373D01*
X332926Y497241D01*
X332851Y497105D01*
X332767Y496974D01*
X332697Y496826D01*
X332618Y496683D01*
X332561Y496539D01*
X332494Y496399D01*
X332443Y496243D01*
X332383Y496090D01*
X332344Y495940D01*
X332295Y495793D01*
X332264Y495632D01*
X332223Y495474D01*
X332204Y495320D01*
X332174Y495168D01*
X332164Y495009D01*
X332142Y494842D01*
X332142Y494673D01*
X332132Y494514D01*
X332132Y478186D01*
X332141Y478031D01*
X332141Y477876D01*
X332161Y477714D01*
X332172Y477550D01*
X332201Y477398D01*
X332220Y477244D01*
X332260Y477085D01*
X332291Y476924D01*
X332339Y476777D01*
X332377Y476627D01*
X332437Y476474D01*
X332488Y476318D01*
X332553Y476178D01*
X332610Y476034D01*
X332689Y475890D01*
X332759Y475742D01*
X332841Y475611D01*
X332916Y475475D01*
X333012Y475342D01*
X333100Y475203D01*
X333198Y475084D01*
X333289Y474958D01*
X333401Y474839D01*
X333505Y474712D01*
X333618Y474606D01*
X333724Y474493D01*
X333850Y474388D01*
X333969Y474276D01*
X334095Y474184D01*
X334214Y474085D01*
X334352Y473997D01*
X334484Y473901D01*
X334620Y473826D01*
X334751Y473742D01*
X334899Y473672D01*
X335042Y473593D01*
X335186Y473536D01*
X335326Y473469D01*
X335482Y473418D01*
X335635Y473358D01*
X335785Y473319D01*
X335932Y473270D01*
X336093Y473239D01*
X336251Y473198D01*
X336405Y473179D01*
X336557Y473149D01*
X336716Y473139D01*
X336883Y473117D01*
X337052Y473117D01*
X337211Y473107D01*
X338855Y473107D01*
X340989Y472223D01*
X342623Y470589D01*
X343507Y468455D01*
X343507Y466145D01*
X343381Y465842D01*
X343371Y465812D01*
X343357Y465783D01*
X343268Y465510D01*
X343175Y465240D01*
X343168Y465208D01*
X343158Y465178D01*
X343104Y464897D01*
X343046Y464616D01*
X343043Y464584D01*
X343037Y464552D01*
X343021Y464302D01*
X342995Y463981D01*
X342997Y463939D01*
X342995Y463899D01*
X342995Y459785D01*
X343002Y459671D01*
X343000Y459557D01*
X343022Y459354D01*
X343035Y459149D01*
X343056Y459037D01*
X343068Y458924D01*
X343116Y458724D01*
X343154Y458524D01*
X343189Y458415D01*
X343216Y458304D01*
X343287Y458112D01*
X343351Y457917D01*
X343399Y457814D01*
X343439Y457707D01*
X343534Y457526D01*
X343622Y457341D01*
X343683Y457244D01*
X343736Y457144D01*
X343853Y456976D01*
X343963Y456803D01*
X344035Y456715D01*
X344101Y456621D01*
X344238Y456469D01*
X344368Y456311D01*
X344452Y456233D01*
X344528Y456149D01*
X344683Y456015D01*
X344832Y455875D01*
X344925Y455808D01*
X345011Y455733D01*
X345046Y455710D01*
X345763Y454994D01*
X345995Y454433D01*
X345995Y443827D01*
X345680Y443068D01*
X345617Y442882D01*
X345545Y442700D01*
X345514Y442581D01*
X345474Y442465D01*
X345434Y442273D01*
X345385Y442084D01*
X345370Y441962D01*
X345345Y441841D01*
X345329Y441646D01*
X345304Y441452D01*
X345304Y441329D01*
X345294Y441206D01*
X345303Y441010D01*
X345303Y440814D01*
X345318Y440692D01*
X345324Y440570D01*
X345358Y440377D01*
X345382Y440182D01*
X345412Y440063D01*
X345433Y439942D01*
X345491Y439755D01*
X345539Y439565D01*
X345584Y439450D01*
X345620Y439333D01*
X345700Y439154D01*
X345772Y438972D01*
X345831Y438864D01*
X345882Y438752D01*
X345984Y438585D01*
X346078Y438413D01*
X346150Y438313D01*
X346214Y438208D01*
X346336Y438055D01*
X346451Y437896D01*
X346535Y437807D01*
X346612Y437710D01*
X346752Y437574D01*
X346886Y437431D01*
X346980Y437352D01*
X347069Y437266D01*
X347225Y437149D01*
X347376Y437023D01*
X347479Y436957D01*
X347578Y436883D01*
X347748Y436786D01*
X347913Y436680D01*
X348024Y436628D01*
X348131Y436567D01*
X348311Y436491D01*
X348488Y436407D01*
X348605Y436369D01*
X348719Y436322D01*
X348907Y436270D01*
X349094Y436208D01*
X349214Y436185D01*
X349333Y436152D01*
X349527Y436124D01*
X349719Y436087D01*
X349839Y436079D01*
X349964Y436061D01*
X350176Y436057D01*
X350373Y436045D01*
X350386Y436045D01*
X350497Y436052D01*
X350601Y436050D01*
X350602Y436050D01*
X350614Y436050D01*
X350818Y436072D01*
X351022Y436085D01*
X351134Y436106D01*
X351247Y436118D01*
X351447Y436166D01*
X351648Y436204D01*
X351756Y436239D01*
X351867Y436265D01*
X352059Y436337D01*
X352254Y436401D01*
X352357Y436449D01*
X352464Y436489D01*
X352645Y436585D01*
X352831Y436672D01*
X352927Y436733D01*
X353028Y436786D01*
X353196Y436903D01*
X353369Y437013D01*
X353457Y437085D01*
X353550Y437150D01*
X353702Y437288D01*
X353860Y437418D01*
X353938Y437501D01*
X354023Y437578D01*
X354156Y437733D01*
X354297Y437882D01*
X354364Y437975D01*
X354438Y438061D01*
X354551Y438232D01*
X354672Y438397D01*
X354727Y438497D01*
X354790Y438592D01*
X354877Y438769D01*
X354979Y438955D01*
X355026Y439072D01*
X355079Y439180D01*
X355577Y440384D01*
X356006Y440813D01*
X356567Y441045D01*
X372173Y441045D01*
X372734Y440813D01*
X373163Y440384D01*
X373395Y439823D01*
X373395Y424217D01*
X373163Y423656D01*
X372734Y423227D01*
X372173Y422995D01*
X356567Y422995D01*
X356006Y423227D01*
X355577Y423656D01*
X355079Y424860D01*
X355029Y424962D01*
X354987Y425068D01*
X354889Y425248D01*
X354799Y425432D01*
X354736Y425527D01*
X354681Y425627D01*
X354561Y425794D01*
X354449Y425965D01*
X354375Y426051D01*
X354308Y426144D01*
X354168Y426293D01*
X354035Y426449D01*
X353951Y426526D01*
X353873Y426609D01*
X353716Y426740D01*
X353564Y426878D01*
X353471Y426944D01*
X353384Y427017D01*
X353211Y427127D01*
X353043Y427245D01*
X352943Y427298D01*
X352847Y427360D01*
X352662Y427447D01*
X352480Y427543D01*
X352374Y427584D01*
X352271Y427633D01*
X352076Y427697D01*
X351885Y427769D01*
X351774Y427796D01*
X351666Y427832D01*
X351465Y427871D01*
X351265Y427919D01*
X351152Y427931D01*
X351040Y427953D01*
X350844Y427966D01*
X350632Y427989D01*
X350506Y427988D01*
X350386Y427995D01*
X349595Y427995D01*
X349523Y427991D01*
X349450Y427993D01*
X349204Y427971D01*
X348960Y427955D01*
X348888Y427942D01*
X348815Y427935D01*
X348575Y427882D01*
X348334Y427836D01*
X348264Y427814D01*
X348193Y427798D01*
X347962Y427715D01*
X347728Y427639D01*
X347661Y427608D01*
X347593Y427584D01*
X347374Y427473D01*
X347151Y427368D01*
X347089Y427329D01*
X347024Y427296D01*
X346820Y427159D01*
X346613Y427027D01*
X346557Y426981D01*
X346496Y426940D01*
X346322Y426787D01*
X346122Y426622D01*
X346064Y426561D01*
X346004Y426508D01*
X345334Y425837D01*
X344773Y425605D01*
X341671Y425605D01*
X341639Y425603D01*
X341607Y425605D01*
X341321Y425583D01*
X341035Y425565D01*
X341004Y425559D01*
X340972Y425557D01*
X340689Y425499D01*
X340409Y425446D01*
X340379Y425436D01*
X340348Y425430D01*
X340246Y425395D01*
X337211Y425395D01*
X337056Y425386D01*
X336901Y425386D01*
X336739Y425366D01*
X336575Y425355D01*
X336423Y425326D01*
X336269Y425307D01*
X336110Y425267D01*
X335949Y425236D01*
X335802Y425188D01*
X335652Y425150D01*
X335499Y425090D01*
X335343Y425039D01*
X335203Y424974D01*
X335059Y424917D01*
X334915Y424838D01*
X334767Y424768D01*
X334636Y424686D01*
X334500Y424611D01*
X334367Y424515D01*
X334228Y424427D01*
X334109Y424329D01*
X333983Y424238D01*
X333864Y424126D01*
X333737Y424022D01*
X333631Y423909D01*
X333518Y423803D01*
X333413Y423677D01*
X333301Y423558D01*
X333209Y423432D01*
X333110Y423313D01*
X333022Y423175D01*
X332926Y423043D01*
X332851Y422907D01*
X332767Y422776D01*
X332697Y422628D01*
X332618Y422485D01*
X332561Y422341D01*
X332494Y422201D01*
X332443Y422045D01*
X332383Y421892D01*
X332344Y421742D01*
X332295Y421595D01*
X332264Y421434D01*
X332223Y421276D01*
X332204Y421122D01*
X332174Y420970D01*
X332164Y420811D01*
X332142Y420644D01*
X332142Y420475D01*
X332132Y420316D01*
X332132Y404620D01*
X332147Y404384D01*
X332154Y404147D01*
X332167Y404066D01*
X332172Y403984D01*
X332216Y403752D01*
X332253Y403518D01*
X332276Y403439D01*
X332291Y403358D01*
X332364Y403134D01*
X332430Y402906D01*
X332462Y402830D01*
X332488Y402752D01*
X332588Y402538D01*
X332682Y402321D01*
X332724Y402250D01*
X332759Y402176D01*
X332885Y401976D01*
X333006Y401772D01*
X333056Y401707D01*
X333100Y401638D01*
X333250Y401455D01*
X333395Y401268D01*
X333453Y401210D01*
X333505Y401146D01*
X333678Y400984D01*
X333845Y400816D01*
X333910Y400766D01*
X333969Y400710D01*
X334161Y400570D01*
X334348Y400425D01*
X334418Y400383D01*
X334484Y400335D01*
X334692Y400221D01*
X334895Y400100D01*
X334971Y400067D01*
X335042Y400027D01*
X335262Y399940D01*
X335480Y399845D01*
X335558Y399822D01*
X335635Y399792D01*
X335864Y399733D01*
X336091Y399666D01*
X336172Y399653D01*
X336251Y399632D01*
X336486Y399602D01*
X336720Y399565D01*
X336802Y399562D01*
X336883Y399552D01*
X337120Y399551D01*
X337357Y399543D01*
X337438Y399551D01*
X337521Y399550D01*
X337756Y399580D01*
X337991Y399601D01*
X338071Y399619D01*
X338153Y399629D01*
X338383Y399688D01*
X338613Y399738D01*
X338691Y399766D01*
X338770Y399786D01*
X338991Y399873D01*
X339214Y399952D01*
X339287Y399989D01*
X339363Y400019D01*
X339572Y400133D01*
X339782Y400240D01*
X339850Y400286D01*
X339922Y400325D01*
X340114Y400464D01*
X340310Y400596D01*
X340371Y400649D01*
X340439Y400698D01*
X340629Y400876D01*
X340803Y401029D01*
X341209Y401435D01*
X341230Y401459D01*
X341254Y401481D01*
X341441Y401699D01*
X341630Y401913D01*
X341648Y401939D01*
X341669Y401964D01*
X341674Y401970D01*
X343105Y403402D01*
X344584Y404015D01*
X346856Y404015D01*
X346970Y404022D01*
X347084Y404020D01*
X347288Y404042D01*
X347492Y404055D01*
X347604Y404076D01*
X347717Y404088D01*
X347917Y404136D01*
X348118Y404174D01*
X348226Y404209D01*
X348337Y404235D01*
X348529Y404307D01*
X348724Y404371D01*
X348827Y404419D01*
X348934Y404459D01*
X349115Y404555D01*
X349301Y404642D01*
X349397Y404703D01*
X349498Y404756D01*
X349666Y404873D01*
X349839Y404983D01*
X349927Y405055D01*
X350020Y405120D01*
X350172Y405258D01*
X350330Y405388D01*
X350408Y405471D01*
X350493Y405548D01*
X350626Y405703D01*
X350767Y405852D01*
X350834Y405945D01*
X350908Y406031D01*
X351021Y406202D01*
X351142Y406367D01*
X351197Y406467D01*
X351260Y406562D01*
X351347Y406739D01*
X351449Y406925D01*
X351496Y407042D01*
X351549Y407150D01*
X352047Y408354D01*
X352476Y408783D01*
X353037Y409015D01*
X368643Y409015D01*
X369204Y408783D01*
X369633Y408354D01*
X369865Y407793D01*
X369865Y392187D01*
X369633Y391626D01*
X369204Y391197D01*
X368643Y390965D01*
X362056Y390965D01*
X361901Y390956D01*
X361746Y390956D01*
X361584Y390936D01*
X361420Y390925D01*
X361268Y390896D01*
X361114Y390877D01*
X360955Y390837D01*
X360794Y390806D01*
X360647Y390758D01*
X360497Y390720D01*
X360344Y390660D01*
X360188Y390609D01*
X360048Y390544D01*
X359904Y390487D01*
X359760Y390408D01*
X359612Y390338D01*
X359481Y390256D01*
X359345Y390181D01*
X359212Y390085D01*
X359073Y389997D01*
X358954Y389899D01*
X358828Y389808D01*
X358709Y389696D01*
X358582Y389592D01*
X358476Y389479D01*
X358363Y389373D01*
X358258Y389247D01*
X358146Y389128D01*
X358054Y389002D01*
X357955Y388883D01*
X357867Y388745D01*
X357771Y388613D01*
X357696Y388477D01*
X357612Y388346D01*
X357542Y388198D01*
X357463Y388055D01*
X357406Y387911D01*
X357339Y387771D01*
X357288Y387615D01*
X357228Y387462D01*
X357189Y387312D01*
X357140Y387165D01*
X357109Y387004D01*
X357068Y386846D01*
X357049Y386692D01*
X357019Y386540D01*
X357009Y386381D01*
X356987Y386214D01*
X356987Y386045D01*
X356977Y385886D01*
X356977Y384964D01*
X356148Y382964D01*
X356103Y382906D01*
X355995Y382784D01*
X355908Y382656D01*
X355813Y382533D01*
X355729Y382392D01*
X355637Y382257D01*
X355566Y382119D01*
X355487Y381985D01*
X355422Y381835D01*
X355347Y381689D01*
X355295Y381543D01*
X355233Y381401D01*
X355187Y381244D01*
X355131Y381090D01*
X355097Y380939D01*
X355054Y380790D01*
X355028Y380628D01*
X354992Y380468D01*
X354977Y380314D01*
X354953Y380161D01*
X354947Y379997D01*
X354931Y379834D01*
X354936Y379679D01*
X354931Y379524D01*
X354946Y379361D01*
X354951Y379197D01*
X354975Y379044D01*
X354989Y378890D01*
X355024Y378730D01*
X355050Y378568D01*
X355093Y378419D01*
X355126Y378267D01*
X355181Y378113D01*
X355227Y377956D01*
X355288Y377813D01*
X355340Y377667D01*
X355414Y377521D01*
X355479Y377371D01*
X355558Y377237D01*
X355628Y377099D01*
X355719Y376963D01*
X355803Y376822D01*
X355897Y376699D01*
X355984Y376571D01*
X356089Y376451D01*
X356149Y376373D01*
X356378Y375820D01*
X356446Y375681D01*
X356506Y375538D01*
X356587Y375395D01*
X356659Y375248D01*
X356744Y375119D01*
X356820Y374984D01*
X356918Y374852D01*
X357008Y374716D01*
X357109Y374598D01*
X357202Y374473D01*
X357315Y374356D01*
X357422Y374231D01*
X357537Y374126D01*
X357644Y374015D01*
X357772Y373912D01*
X357893Y373802D01*
X358019Y373713D01*
X358140Y373615D01*
X358280Y373529D01*
X358414Y373435D01*
X358551Y373362D01*
X358683Y373281D01*
X358832Y373213D01*
X358977Y373137D01*
X359122Y373082D01*
X359263Y373017D01*
X359419Y372969D01*
X359573Y372911D01*
X359723Y372874D01*
X359871Y372828D01*
X360033Y372800D01*
X360192Y372761D01*
X360346Y372744D01*
X360499Y372717D01*
X360662Y372709D01*
X360825Y372691D01*
X360980Y372693D01*
X361135Y372685D01*
X361298Y372697D01*
X361462Y372700D01*
X361616Y372721D01*
X361770Y372733D01*
X361931Y372766D01*
X362093Y372789D01*
X362243Y372829D01*
X362395Y372860D01*
X362545Y372912D01*
X362708Y372956D01*
X362864Y373020D01*
X363015Y373071D01*
X364037Y373495D01*
X375643Y373495D01*
X376396Y373183D01*
X376465Y373159D01*
X376532Y373129D01*
X376766Y373056D01*
X376999Y372976D01*
X377070Y372962D01*
X377140Y372940D01*
X377382Y372897D01*
X377623Y372847D01*
X377695Y372841D01*
X377768Y372829D01*
X378013Y372816D01*
X378258Y372797D01*
X378331Y372800D01*
X378404Y372797D01*
X378649Y372815D01*
X378894Y372827D01*
X378966Y372839D01*
X379039Y372845D01*
X379280Y372894D01*
X379522Y372936D01*
X379592Y372957D01*
X379664Y372972D01*
X379882Y373046D01*
X380131Y373122D01*
X380208Y373157D01*
X380284Y373183D01*
X381037Y373495D01*
X392643Y373495D01*
X393204Y373263D01*
X393984Y372482D01*
X394039Y372434D01*
X394088Y372381D01*
X394277Y372224D01*
X394462Y372061D01*
X394522Y372020D01*
X394578Y371973D01*
X394785Y371841D01*
X394989Y371703D01*
X395054Y371670D01*
X395115Y371630D01*
X395337Y371525D01*
X395556Y371413D01*
X395625Y371389D01*
X395691Y371357D01*
X395924Y371281D01*
X396156Y371197D01*
X396227Y371181D01*
X396296Y371158D01*
X396538Y371112D01*
X396777Y371058D01*
X396850Y371051D01*
X396922Y371037D01*
X397153Y371022D01*
X397411Y370997D01*
X397495Y371000D01*
X397575Y370995D01*
X409621Y370995D01*
X411100Y370382D01*
X425088Y356393D01*
X425143Y356345D01*
X425193Y356292D01*
X425382Y356134D01*
X425566Y355972D01*
X425627Y355931D01*
X425683Y355884D01*
X425890Y355752D01*
X426093Y355614D01*
X426158Y355581D01*
X426220Y355541D01*
X426442Y355436D01*
X426661Y355324D01*
X426729Y355300D01*
X426795Y355268D01*
X427029Y355192D01*
X427260Y355108D01*
X427331Y355092D01*
X427401Y355069D01*
X427642Y355023D01*
X427882Y354969D01*
X427954Y354962D01*
X428026Y354948D01*
X428257Y354933D01*
X428516Y354908D01*
X428600Y354911D01*
X428680Y354906D01*
X432305Y354906D01*
X436036Y353360D01*
X436170Y353263D01*
X436241Y353224D01*
X436309Y353178D01*
X436520Y353070D01*
X436727Y352955D01*
X436803Y352925D01*
X436876Y352888D01*
X437100Y352808D01*
X437320Y352720D01*
X437399Y352700D01*
X437476Y352672D01*
X437707Y352620D01*
X437936Y352561D01*
X438018Y352550D01*
X438097Y352532D01*
X438333Y352510D01*
X438568Y352480D01*
X438650Y352480D01*
X438732Y352472D01*
X438968Y352479D01*
X439206Y352479D01*
X439287Y352489D01*
X439369Y352491D01*
X439602Y352528D01*
X439838Y352557D01*
X439917Y352578D01*
X439998Y352590D01*
X440226Y352656D01*
X440455Y352715D01*
X440531Y352744D01*
X440610Y352767D01*
X440827Y352861D01*
X441048Y352948D01*
X441120Y352987D01*
X441195Y353019D01*
X441399Y353139D01*
X441607Y353253D01*
X441674Y353301D01*
X441744Y353343D01*
X441931Y353488D01*
X442124Y353627D01*
X442183Y353682D01*
X442248Y353733D01*
X442416Y353900D01*
X442589Y354062D01*
X442641Y354124D01*
X442700Y354182D01*
X442845Y354369D01*
X442997Y354551D01*
X443041Y354620D01*
X443091Y354685D01*
X443212Y354889D01*
X443340Y355088D01*
X443375Y355162D01*
X443417Y355233D01*
X443511Y355450D01*
X443613Y355664D01*
X443638Y355742D01*
X443671Y355817D01*
X443738Y356044D01*
X443812Y356269D01*
X443827Y356349D01*
X443850Y356428D01*
X443888Y356662D01*
X443933Y356895D01*
X443938Y356975D01*
X443951Y357057D01*
X443960Y357317D01*
X443975Y357549D01*
X443975Y387886D01*
X443966Y388041D01*
X443966Y388196D01*
X443946Y388358D01*
X443935Y388522D01*
X443906Y388674D01*
X443887Y388828D01*
X443847Y388987D01*
X443816Y389148D01*
X443768Y389295D01*
X443730Y389445D01*
X443670Y389598D01*
X443619Y389754D01*
X443554Y389894D01*
X443497Y390038D01*
X443418Y390182D01*
X443348Y390330D01*
X443266Y390461D01*
X443191Y390597D01*
X443095Y390730D01*
X443007Y390869D01*
X442909Y390988D01*
X442818Y391114D01*
X442706Y391233D01*
X442602Y391360D01*
X442489Y391466D01*
X442383Y391579D01*
X442257Y391684D01*
X442138Y391796D01*
X442012Y391888D01*
X441893Y391987D01*
X441755Y392075D01*
X441623Y392171D01*
X441487Y392246D01*
X441356Y392330D01*
X441208Y392400D01*
X441065Y392479D01*
X440921Y392536D01*
X440781Y392603D01*
X440625Y392654D01*
X440472Y392714D01*
X440322Y392753D01*
X440175Y392802D01*
X440014Y392833D01*
X439856Y392874D01*
X439702Y392893D01*
X439550Y392923D01*
X439391Y392933D01*
X439224Y392955D01*
X439055Y392955D01*
X438896Y392965D01*
X428527Y392965D01*
X427274Y393484D01*
X427205Y393508D01*
X427138Y393538D01*
X426904Y393611D01*
X426671Y393691D01*
X426599Y393706D01*
X426530Y393727D01*
X426288Y393770D01*
X426047Y393820D01*
X425974Y393826D01*
X425902Y393839D01*
X425657Y393851D01*
X425412Y393870D01*
X425339Y393867D01*
X425266Y393871D01*
X425021Y393852D01*
X424776Y393841D01*
X424703Y393828D01*
X424631Y393823D01*
X424390Y393774D01*
X424148Y393731D01*
X424078Y393710D01*
X424006Y393695D01*
X423787Y393621D01*
X423539Y393545D01*
X423463Y393510D01*
X423386Y393484D01*
X422133Y392965D01*
X411527Y392965D01*
X410734Y393294D01*
X410626Y393330D01*
X410522Y393376D01*
X410325Y393434D01*
X410131Y393500D01*
X410020Y393523D01*
X409910Y393555D01*
X409708Y393588D01*
X409508Y393629D01*
X409394Y393638D01*
X409281Y393656D01*
X409077Y393663D01*
X408872Y393680D01*
X408758Y393674D01*
X408645Y393678D01*
X408441Y393659D01*
X408236Y393650D01*
X408124Y393630D01*
X408010Y393620D01*
X407810Y393576D01*
X407608Y393541D01*
X407499Y393507D01*
X407388Y393483D01*
X407195Y393414D01*
X406999Y393354D01*
X406895Y393307D01*
X406788Y393269D01*
X406605Y393176D01*
X406418Y393092D01*
X406321Y393033D01*
X406219Y392981D01*
X406049Y392867D01*
X405875Y392760D01*
X405786Y392689D01*
X405691Y392625D01*
X405543Y392495D01*
X405377Y392362D01*
X405289Y392272D01*
X405199Y392193D01*
X404204Y391197D01*
X403643Y390965D01*
X388037Y390965D01*
X387476Y391197D01*
X387047Y391626D01*
X386815Y392187D01*
X386815Y407793D01*
X387047Y408354D01*
X387476Y408783D01*
X388037Y409015D01*
X403643Y409015D01*
X404204Y408783D01*
X405199Y407787D01*
X405238Y407753D01*
X405261Y407728D01*
X405300Y407696D01*
X405363Y407630D01*
X405523Y407501D01*
X405677Y407366D01*
X405771Y407302D01*
X405860Y407231D01*
X406035Y407123D01*
X406204Y407008D01*
X406305Y406956D01*
X406402Y406896D01*
X406589Y406811D01*
X406771Y406718D01*
X406878Y406680D01*
X406982Y406633D01*
X407178Y406572D01*
X407371Y406502D01*
X407481Y406477D01*
X407591Y406444D01*
X407792Y406408D01*
X407992Y406363D01*
X408106Y406352D01*
X408218Y406332D01*
X408422Y406322D01*
X408627Y406302D01*
X408740Y406306D01*
X408854Y406300D01*
X409059Y406316D01*
X409263Y406322D01*
X409376Y406340D01*
X409490Y406348D01*
X409691Y406389D01*
X409893Y406421D01*
X410002Y406453D01*
X410114Y406475D01*
X410300Y406539D01*
X410505Y406598D01*
X410621Y406648D01*
X410734Y406686D01*
X411527Y407015D01*
X422133Y407015D01*
X423386Y406496D01*
X423455Y406472D01*
X423522Y406442D01*
X423757Y406369D01*
X423989Y406289D01*
X424060Y406275D01*
X424130Y406253D01*
X424372Y406210D01*
X424613Y406160D01*
X424686Y406154D01*
X424758Y406141D01*
X425002Y406129D01*
X425248Y406110D01*
X425321Y406113D01*
X425394Y406109D01*
X425639Y406128D01*
X425884Y406139D01*
X425956Y406152D01*
X426029Y406157D01*
X426270Y406206D01*
X426512Y406249D01*
X426582Y406270D01*
X426654Y406285D01*
X426873Y406359D01*
X427121Y406435D01*
X427197Y406470D01*
X427274Y406496D01*
X428527Y407015D01*
X439133Y407015D01*
X439694Y406783D01*
X440123Y406354D01*
X440345Y405818D01*
X440377Y405752D01*
X440402Y405684D01*
X440516Y405467D01*
X440625Y405246D01*
X440665Y405184D01*
X440699Y405120D01*
X440839Y404919D01*
X440974Y404713D01*
X441022Y404657D01*
X441064Y404598D01*
X441228Y404416D01*
X441388Y404229D01*
X441442Y404179D01*
X441491Y404125D01*
X441677Y403965D01*
X441859Y403800D01*
X441919Y403757D01*
X441975Y403710D01*
X441997Y403695D01*
X444135Y401557D01*
X444183Y401509D01*
X444362Y401351D01*
X444534Y401189D01*
X444600Y401141D01*
X444661Y401087D01*
X444858Y400953D01*
X445050Y400813D01*
X445121Y400774D01*
X445188Y400729D01*
X445400Y400620D01*
X445607Y400506D01*
X445683Y400476D01*
X445755Y400439D01*
X445979Y400358D01*
X446200Y400271D01*
X446278Y400250D01*
X446355Y400223D01*
X446587Y400171D01*
X446816Y400111D01*
X446897Y400101D01*
X446976Y400083D01*
X447212Y400060D01*
X447448Y400030D01*
X447530Y400030D01*
X447610Y400022D01*
X447848Y400030D01*
X448086Y400029D01*
X448166Y400039D01*
X448247Y400042D01*
X448482Y400078D01*
X448718Y400108D01*
X448797Y400128D01*
X448877Y400140D01*
X449105Y400206D01*
X449335Y400265D01*
X449411Y400295D01*
X449489Y400317D01*
X449707Y400411D01*
X449928Y400498D01*
X450000Y400537D01*
X450074Y400569D01*
X450278Y400690D01*
X450487Y400804D01*
X450553Y400851D01*
X450623Y400893D01*
X450811Y401038D01*
X451004Y401177D01*
X451063Y401232D01*
X451127Y401282D01*
X451296Y401450D01*
X451469Y401612D01*
X451521Y401674D01*
X451579Y401732D01*
X451725Y401919D01*
X451877Y402102D01*
X451920Y402170D01*
X451970Y402234D01*
X452092Y402439D01*
X452220Y402639D01*
X452254Y402712D01*
X452296Y402782D01*
X452391Y402999D01*
X452493Y403214D01*
X452518Y403292D01*
X452550Y403366D01*
X452617Y403594D01*
X452692Y403820D01*
X452707Y403899D01*
X452730Y403977D01*
X452768Y404212D01*
X452813Y404445D01*
X452818Y404525D01*
X452831Y404606D01*
X452840Y404868D01*
X452855Y405099D01*
X452855Y462359D01*
X452851Y462432D01*
X452853Y462505D01*
X452831Y462750D01*
X452815Y462995D01*
X452802Y463066D01*
X452795Y463139D01*
X452742Y463379D01*
X452696Y463621D01*
X452673Y463690D01*
X452658Y463761D01*
X452575Y463992D01*
X452499Y464227D01*
X452468Y464293D01*
X452444Y464362D01*
X452333Y464581D01*
X452228Y464803D01*
X452189Y464865D01*
X452156Y464930D01*
X452019Y465134D01*
X451887Y465342D01*
X451841Y465398D01*
X451800Y465458D01*
X451647Y465632D01*
X451482Y465833D01*
X451421Y465890D01*
X451368Y465951D01*
X426230Y491088D01*
X426145Y491163D01*
X426065Y491246D01*
X425906Y491374D01*
X425752Y491510D01*
X425658Y491574D01*
X425569Y491645D01*
X425395Y491753D01*
X425225Y491868D01*
X425124Y491920D01*
X425027Y491979D01*
X424840Y492064D01*
X424658Y492157D01*
X424551Y492196D01*
X424447Y492243D01*
X424251Y492304D01*
X424058Y492373D01*
X423947Y492398D01*
X423838Y492432D01*
X423637Y492468D01*
X423437Y492513D01*
X423323Y492524D01*
X423211Y492544D01*
X423006Y492554D01*
X422802Y492573D01*
X422688Y492570D01*
X422575Y492575D01*
X422370Y492560D01*
X422165Y492554D01*
X422053Y492536D01*
X421939Y492528D01*
X421738Y492487D01*
X421536Y492455D01*
X421427Y492423D01*
X421315Y492400D01*
X421129Y492337D01*
X420924Y492278D01*
X420808Y492228D01*
X420695Y492189D01*
X416484Y490445D01*
X412596Y490445D01*
X409003Y491933D01*
X406253Y494683D01*
X404765Y498276D01*
X404765Y518664D01*
X406253Y522257D01*
X409003Y525007D01*
X412596Y526495D01*
X416484Y526495D01*
X420077Y525007D01*
X422827Y522257D01*
X424315Y518664D01*
X424315Y506491D01*
X424319Y506418D01*
X424317Y506345D01*
X424339Y506100D01*
X424355Y505855D01*
X424368Y505784D01*
X424375Y505711D01*
X424428Y505471D01*
X424474Y505229D01*
X424497Y505160D01*
X424512Y505089D01*
X424595Y504858D01*
X424671Y504623D01*
X424702Y504557D01*
X424726Y504488D01*
X424837Y504269D01*
X424942Y504047D01*
X424981Y503985D01*
X425014Y503920D01*
X425151Y503716D01*
X425283Y503508D01*
X425329Y503452D01*
X425370Y503392D01*
X425523Y503218D01*
X425688Y503017D01*
X425749Y502960D01*
X425802Y502899D01*
X453654Y475047D01*
X453832Y474891D01*
X454004Y474729D01*
X454071Y474680D01*
X454132Y474626D01*
X454328Y474493D01*
X454520Y474353D01*
X454591Y474314D01*
X454659Y474268D01*
X454870Y474160D01*
X455077Y474046D01*
X455154Y474016D01*
X455227Y473978D01*
X455449Y473898D01*
X455670Y473811D01*
X455749Y473790D01*
X455826Y473762D01*
X456057Y473710D01*
X456286Y473651D01*
X456368Y473641D01*
X456448Y473623D01*
X456683Y473600D01*
X456918Y473570D01*
X457001Y473570D01*
X457082Y473562D01*
X457318Y473570D01*
X457556Y473569D01*
X457637Y473579D01*
X457719Y473582D01*
X457953Y473618D01*
X458188Y473648D01*
X458267Y473668D01*
X458348Y473681D01*
X458576Y473747D01*
X458805Y473805D01*
X458881Y473835D01*
X458960Y473858D01*
X459178Y473952D01*
X459398Y474038D01*
X459470Y474078D01*
X459545Y474110D01*
X459749Y474230D01*
X459957Y474344D01*
X460024Y474392D01*
X460094Y474433D01*
X460282Y474578D01*
X460474Y474717D01*
X460533Y474773D01*
X460598Y474823D01*
X460766Y474990D01*
X460939Y475152D01*
X460992Y475215D01*
X461050Y475273D01*
X461195Y475459D01*
X461347Y475642D01*
X461391Y475711D01*
X461441Y475776D01*
X461562Y475979D01*
X461690Y476179D01*
X461725Y476253D01*
X461767Y476323D01*
X461861Y476540D01*
X461963Y476754D01*
X461988Y476832D01*
X462021Y476907D01*
X462088Y477135D01*
X462162Y477360D01*
X462177Y477440D01*
X462200Y477519D01*
X462238Y477753D01*
X462283Y477985D01*
X462288Y478065D01*
X462301Y478148D01*
X462310Y478408D01*
X462325Y478639D01*
X462325Y487163D01*
X462318Y487277D01*
X462320Y487391D01*
X462298Y487595D01*
X462285Y487799D01*
X462264Y487911D01*
X462252Y488025D01*
X462204Y488224D01*
X462166Y488425D01*
X462131Y488534D01*
X462105Y488644D01*
X462033Y488836D01*
X461969Y489031D01*
X461921Y489134D01*
X461881Y489241D01*
X461786Y489422D01*
X461698Y489608D01*
X461637Y489704D01*
X461584Y489805D01*
X461467Y489973D01*
X461357Y490146D01*
X461285Y490234D01*
X461220Y490327D01*
X461082Y490479D01*
X460952Y490637D01*
X460869Y490715D01*
X460792Y490800D01*
X460637Y490934D01*
X460488Y491074D01*
X460396Y491141D01*
X460309Y491215D01*
X460138Y491328D01*
X459973Y491449D01*
X459873Y491504D01*
X459778Y491567D01*
X459601Y491654D01*
X459415Y491756D01*
X459298Y491803D01*
X459190Y491856D01*
X459003Y491933D01*
X456253Y494683D01*
X454765Y498276D01*
X454765Y518664D01*
X456253Y522257D01*
X459003Y525007D01*
X462596Y526495D01*
X466484Y526495D01*
X470077Y525007D01*
X472827Y522257D01*
X474315Y518664D01*
X474315Y498276D01*
X472827Y494683D01*
X471862Y493719D01*
X471814Y493664D01*
X471761Y493614D01*
X471603Y493425D01*
X471441Y493241D01*
X471400Y493181D01*
X471353Y493124D01*
X471221Y492917D01*
X471083Y492714D01*
X471050Y492649D01*
X471010Y492588D01*
X470905Y492366D01*
X470793Y492146D01*
X470769Y492078D01*
X470737Y492012D01*
X470661Y491778D01*
X470577Y491547D01*
X470561Y491476D01*
X470538Y491407D01*
X470492Y491165D01*
X470438Y490925D01*
X470431Y490853D01*
X470417Y490781D01*
X470402Y490550D01*
X470377Y490291D01*
X470380Y490208D01*
X470375Y490127D01*
X470375Y275379D01*
X469762Y273900D01*
X452392Y256531D01*
X452344Y256476D01*
X452291Y256426D01*
X452133Y256237D01*
X451971Y256053D01*
X451930Y255992D01*
X451883Y255936D01*
X451751Y255729D01*
X451613Y255526D01*
X451580Y255461D01*
X451540Y255399D01*
X451435Y255177D01*
X451323Y254958D01*
X451299Y254890D01*
X451267Y254824D01*
X451191Y254590D01*
X451107Y254359D01*
X451091Y254288D01*
X451068Y254218D01*
X451022Y253977D01*
X450968Y253737D01*
X450961Y253665D01*
X450947Y253593D01*
X450932Y253362D01*
X450907Y253103D01*
X450910Y253019D01*
X450905Y252939D01*
X450905Y249664D01*
X450914Y249509D01*
X450914Y249354D01*
X450934Y249192D01*
X450945Y249028D01*
X450974Y248876D01*
X450993Y248722D01*
X451033Y248563D01*
X451064Y248402D01*
X451112Y248255D01*
X451150Y248105D01*
X451210Y247952D01*
X451261Y247796D01*
X451326Y247656D01*
X451383Y247512D01*
X451462Y247368D01*
X451532Y247220D01*
X451614Y247089D01*
X451689Y246953D01*
X451785Y246820D01*
X451873Y246681D01*
X451971Y246562D01*
X452062Y246436D01*
X452174Y246317D01*
X452278Y246190D01*
X452391Y246084D01*
X452497Y245971D01*
X452623Y245866D01*
X452742Y245754D01*
X452868Y245662D01*
X452987Y245563D01*
X453125Y245475D01*
X453257Y245379D01*
X453393Y245304D01*
X453524Y245220D01*
X453672Y245150D01*
X453815Y245071D01*
X453959Y245014D01*
X454099Y244947D01*
X454255Y244896D01*
X454408Y244836D01*
X454558Y244797D01*
X454705Y244748D01*
X454866Y244717D01*
X455024Y244676D01*
X455178Y244657D01*
X455330Y244627D01*
X455489Y244617D01*
X455656Y244595D01*
X455825Y244595D01*
X455984Y244585D01*
X459883Y244585D01*
X460444Y244353D01*
X460873Y243924D01*
X461105Y243363D01*
X461105Y230057D01*
X460873Y229496D01*
X460444Y229067D01*
X459563Y228703D01*
X459350Y228598D01*
X459134Y228501D01*
X459065Y228458D01*
X458991Y228422D01*
X458793Y228292D01*
X458591Y228169D01*
X458527Y228118D01*
X458458Y228073D01*
X458278Y227919D01*
X458093Y227771D01*
X458036Y227712D01*
X457974Y227659D01*
X457814Y227484D01*
X457649Y227314D01*
X457600Y227249D01*
X457545Y227188D01*
X457408Y226994D01*
X457266Y226805D01*
X457225Y226734D01*
X457178Y226667D01*
X457067Y226458D01*
X456949Y226252D01*
X456918Y226177D01*
X456879Y226104D01*
X456795Y225883D01*
X456704Y225664D01*
X456683Y225585D01*
X456654Y225508D01*
X456598Y225278D01*
X456535Y225050D01*
X456523Y224969D01*
X456504Y224889D01*
X456478Y224653D01*
X456444Y224419D01*
X456443Y224337D01*
X456433Y224256D01*
X456437Y224019D01*
X456433Y223782D01*
X456441Y223701D01*
X456443Y223619D01*
X456476Y223384D01*
X456501Y223149D01*
X456520Y223069D01*
X456531Y222988D01*
X456593Y222760D01*
X456648Y222529D01*
X456677Y222452D01*
X456699Y222373D01*
X456789Y222154D01*
X456872Y221932D01*
X456910Y221860D01*
X456941Y221784D01*
X457058Y221578D01*
X457168Y221368D01*
X457215Y221301D01*
X457256Y221230D01*
X457398Y221040D01*
X457533Y220846D01*
X457588Y220785D01*
X457637Y220720D01*
X457802Y220549D01*
X457961Y220374D01*
X458023Y220320D01*
X458080Y220261D01*
X458264Y220113D01*
X458444Y219958D01*
X458512Y219913D01*
X458576Y219861D01*
X458777Y219738D01*
X458975Y219607D01*
X459048Y219571D01*
X459119Y219527D01*
X459355Y219420D01*
X459563Y219317D01*
X460444Y218953D01*
X460873Y218524D01*
X461105Y217963D01*
X461105Y204657D01*
X460873Y204096D01*
X460444Y203667D01*
X459563Y203303D01*
X459350Y203198D01*
X459134Y203101D01*
X459065Y203058D01*
X458991Y203022D01*
X458793Y202892D01*
X458591Y202769D01*
X458527Y202718D01*
X458458Y202673D01*
X458278Y202519D01*
X458093Y202371D01*
X458036Y202312D01*
X457974Y202259D01*
X457814Y202084D01*
X457649Y201914D01*
X457600Y201849D01*
X457545Y201788D01*
X457408Y201594D01*
X457266Y201405D01*
X457225Y201334D01*
X457178Y201267D01*
X457067Y201058D01*
X456949Y200852D01*
X456918Y200777D01*
X456879Y200704D01*
X456795Y200483D01*
X456704Y200264D01*
X456683Y200185D01*
X456654Y200108D01*
X456598Y199878D01*
X456535Y199650D01*
X456523Y199569D01*
X456504Y199489D01*
X456478Y199253D01*
X456444Y199019D01*
X456443Y198937D01*
X456433Y198856D01*
X456437Y198619D01*
X456433Y198382D01*
X456441Y198301D01*
X456443Y198219D01*
X456476Y197984D01*
X456501Y197749D01*
X456520Y197669D01*
X456531Y197588D01*
X456593Y197360D01*
X456648Y197129D01*
X456677Y197052D01*
X456699Y196973D01*
X456789Y196754D01*
X456872Y196532D01*
X456910Y196460D01*
X456941Y196384D01*
X457058Y196178D01*
X457168Y195968D01*
X457215Y195901D01*
X457256Y195830D01*
X457398Y195640D01*
X457533Y195446D01*
X457588Y195385D01*
X457637Y195320D01*
X457802Y195149D01*
X457961Y194974D01*
X458023Y194920D01*
X458080Y194861D01*
X458264Y194713D01*
X458444Y194558D01*
X458512Y194513D01*
X458576Y194461D01*
X458777Y194338D01*
X458975Y194207D01*
X459048Y194171D01*
X459119Y194127D01*
X459355Y194020D01*
X459563Y193917D01*
X460444Y193553D01*
X460873Y193124D01*
X461105Y192563D01*
X461105Y179257D01*
X460873Y178696D01*
X460444Y178267D01*
X459563Y177903D01*
X459350Y177798D01*
X459134Y177701D01*
X459065Y177658D01*
X458991Y177622D01*
X458793Y177492D01*
X458591Y177369D01*
X458527Y177318D01*
X458458Y177273D01*
X458278Y177119D01*
X458093Y176971D01*
X458036Y176912D01*
X457974Y176859D01*
X457814Y176684D01*
X457649Y176514D01*
X457600Y176449D01*
X457545Y176388D01*
X457408Y176194D01*
X457266Y176005D01*
X457225Y175934D01*
X457178Y175867D01*
X457067Y175658D01*
X456949Y175452D01*
X456918Y175377D01*
X456879Y175304D01*
X456795Y175083D01*
X456704Y174864D01*
X456683Y174785D01*
X456654Y174708D01*
X456598Y174478D01*
X456535Y174250D01*
X456523Y174169D01*
X456504Y174089D01*
X456478Y173853D01*
X456444Y173619D01*
X456443Y173537D01*
X456433Y173456D01*
X456437Y173219D01*
X456433Y172982D01*
X456441Y172901D01*
X456443Y172819D01*
X456476Y172584D01*
X456501Y172349D01*
X456520Y172269D01*
X456531Y172188D01*
X456593Y171960D01*
X456648Y171729D01*
X456677Y171652D01*
X456699Y171573D01*
X456789Y171354D01*
X456872Y171132D01*
X456910Y171060D01*
X456941Y170984D01*
X457058Y170778D01*
X457168Y170568D01*
X457215Y170501D01*
X457256Y170430D01*
X457398Y170240D01*
X457533Y170046D01*
X457588Y169985D01*
X457637Y169920D01*
X457802Y169749D01*
X457961Y169574D01*
X458023Y169520D01*
X458080Y169461D01*
X458264Y169313D01*
X458444Y169158D01*
X458512Y169113D01*
X458576Y169061D01*
X458777Y168938D01*
X458975Y168807D01*
X459048Y168771D01*
X459119Y168727D01*
X459355Y168620D01*
X459563Y168517D01*
X460444Y168153D01*
X460873Y167724D01*
X461105Y167163D01*
X461105Y153857D01*
X460873Y153296D01*
X460444Y152867D01*
X459563Y152503D01*
X459350Y152398D01*
X459134Y152301D01*
X459065Y152258D01*
X458991Y152222D01*
X458793Y152092D01*
X458591Y151969D01*
X458527Y151918D01*
X458458Y151873D01*
X458278Y151719D01*
X458093Y151571D01*
X458036Y151512D01*
X457974Y151459D01*
X457814Y151284D01*
X457649Y151114D01*
X457600Y151049D01*
X457545Y150988D01*
X457408Y150794D01*
X457266Y150605D01*
X457225Y150534D01*
X457178Y150467D01*
X457067Y150258D01*
X456949Y150052D01*
X456918Y149977D01*
X456879Y149904D01*
X456795Y149683D01*
X456704Y149464D01*
X456683Y149385D01*
X456654Y149308D01*
X456598Y149078D01*
X456535Y148850D01*
X456523Y148769D01*
X456504Y148689D01*
X456478Y148453D01*
X456444Y148219D01*
X456443Y148137D01*
X456433Y148056D01*
X456437Y147819D01*
X456433Y147582D01*
X456441Y147501D01*
X456443Y147419D01*
X456476Y147184D01*
X456501Y146949D01*
X456520Y146869D01*
X456531Y146788D01*
X456593Y146560D01*
X456648Y146329D01*
X456677Y146252D01*
X456699Y146173D01*
X456789Y145954D01*
X456872Y145732D01*
X456910Y145660D01*
X456941Y145584D01*
X457058Y145378D01*
X457168Y145168D01*
X457215Y145101D01*
X457256Y145030D01*
X457398Y144840D01*
X457533Y144646D01*
X457588Y144585D01*
X457637Y144520D01*
X457802Y144349D01*
X457961Y144174D01*
X458023Y144120D01*
X458080Y144061D01*
X458264Y143913D01*
X458444Y143758D01*
X458512Y143713D01*
X458576Y143661D01*
X458777Y143538D01*
X458975Y143407D01*
X459048Y143371D01*
X459119Y143327D01*
X459355Y143220D01*
X459563Y143117D01*
X460444Y142753D01*
X460873Y142324D01*
X461105Y141763D01*
X461105Y128457D01*
X460873Y127896D01*
X460444Y127467D01*
X459563Y127103D01*
X459350Y126998D01*
X459134Y126901D01*
X459065Y126858D01*
X458991Y126822D01*
X458793Y126692D01*
X458591Y126569D01*
X458527Y126518D01*
X458458Y126473D01*
X458278Y126319D01*
X458093Y126171D01*
X458036Y126112D01*
X457974Y126059D01*
X457814Y125884D01*
X457649Y125714D01*
X457600Y125649D01*
X457545Y125588D01*
X457408Y125394D01*
X457266Y125205D01*
X457225Y125134D01*
X457178Y125067D01*
X457067Y124858D01*
X456949Y124652D01*
X456918Y124577D01*
X456879Y124504D01*
X456795Y124283D01*
X456704Y124064D01*
X456683Y123985D01*
X456654Y123908D01*
X456598Y123678D01*
X456535Y123450D01*
X456523Y123369D01*
X456504Y123289D01*
X456478Y123053D01*
X456444Y122819D01*
X456443Y122737D01*
X456433Y122656D01*
X456437Y122419D01*
X456433Y122182D01*
X456441Y122101D01*
X456443Y122019D01*
X456476Y121784D01*
X456501Y121549D01*
X456520Y121469D01*
X456531Y121388D01*
X456593Y121160D01*
X456648Y120929D01*
X456677Y120852D01*
X456699Y120773D01*
X456789Y120554D01*
X456872Y120332D01*
X456910Y120260D01*
X456941Y120184D01*
X457058Y119978D01*
X457168Y119768D01*
X457215Y119701D01*
X457256Y119630D01*
X457398Y119440D01*
X457533Y119246D01*
X457588Y119185D01*
X457637Y119120D01*
X457802Y118949D01*
X457961Y118774D01*
X458023Y118720D01*
X458080Y118661D01*
X458264Y118513D01*
X458444Y118358D01*
X458512Y118313D01*
X458576Y118261D01*
X458777Y118138D01*
X458975Y118007D01*
X459048Y117971D01*
X459119Y117927D01*
X459355Y117820D01*
X459563Y117717D01*
X460444Y117353D01*
X460873Y116924D01*
X461105Y116363D01*
X461105Y103057D01*
X460873Y102496D01*
X460444Y102067D01*
X459563Y101703D01*
X459350Y101598D01*
X459134Y101501D01*
X459065Y101458D01*
X458991Y101422D01*
X458793Y101292D01*
X458591Y101169D01*
X458527Y101118D01*
X458458Y101073D01*
X458278Y100919D01*
X458093Y100771D01*
X458036Y100712D01*
X457974Y100659D01*
X457814Y100484D01*
X457649Y100314D01*
X457600Y100249D01*
X457545Y100188D01*
X457408Y99994D01*
X457266Y99805D01*
X457225Y99734D01*
X457178Y99667D01*
X457067Y99458D01*
X456949Y99252D01*
X456918Y99177D01*
X456879Y99104D01*
X456795Y98883D01*
X456704Y98664D01*
X456683Y98585D01*
X456654Y98508D01*
X456598Y98278D01*
X456535Y98050D01*
X456523Y97969D01*
X456504Y97889D01*
X456478Y97653D01*
X456444Y97419D01*
X456443Y97337D01*
X456433Y97256D01*
X456437Y97019D01*
X456433Y96782D01*
X456441Y96701D01*
X456443Y96619D01*
X456476Y96384D01*
X456501Y96149D01*
X456520Y96069D01*
X456531Y95988D01*
X456593Y95760D01*
X456648Y95529D01*
X456677Y95452D01*
X456699Y95373D01*
X456789Y95154D01*
X456872Y94932D01*
X456910Y94860D01*
X456941Y94784D01*
X457058Y94578D01*
X457168Y94368D01*
X457215Y94301D01*
X457256Y94230D01*
X457398Y94040D01*
X457533Y93846D01*
X457588Y93785D01*
X457637Y93720D01*
X457802Y93549D01*
X457961Y93374D01*
X458023Y93320D01*
X458080Y93261D01*
X458264Y93113D01*
X458444Y92958D01*
X458512Y92913D01*
X458576Y92861D01*
X458777Y92738D01*
X458975Y92607D01*
X459048Y92571D01*
X459119Y92527D01*
X459355Y92420D01*
X459563Y92317D01*
X460444Y91953D01*
X460873Y91524D01*
X461105Y90963D01*
X461105Y77657D01*
X460873Y77096D01*
X460444Y76667D01*
X459563Y76303D01*
X459350Y76198D01*
X459134Y76101D01*
X459065Y76058D01*
X458991Y76022D01*
X458793Y75892D01*
X458591Y75769D01*
X458527Y75718D01*
X458458Y75673D01*
X458278Y75519D01*
X458093Y75371D01*
X458036Y75312D01*
X457974Y75259D01*
X457814Y75084D01*
X457649Y74914D01*
X457600Y74849D01*
X457545Y74788D01*
X457408Y74594D01*
X457266Y74405D01*
X457225Y74334D01*
X457178Y74267D01*
X457067Y74058D01*
X456949Y73852D01*
X456918Y73777D01*
X456879Y73704D01*
X456795Y73483D01*
X456704Y73264D01*
X456683Y73185D01*
X456654Y73108D01*
X456598Y72878D01*
X456535Y72650D01*
X456523Y72569D01*
X456504Y72489D01*
X456478Y72253D01*
X456444Y72019D01*
X456443Y71937D01*
X456433Y71856D01*
X456437Y71619D01*
X456433Y71382D01*
X456441Y71301D01*
X456443Y71219D01*
X456476Y70984D01*
X456501Y70749D01*
X456520Y70669D01*
X456531Y70588D01*
X456593Y70360D01*
X456648Y70129D01*
X456677Y70052D01*
X456699Y69973D01*
X456789Y69754D01*
X456872Y69532D01*
X456910Y69460D01*
X456941Y69384D01*
X457058Y69178D01*
X457168Y68968D01*
X457215Y68901D01*
X457256Y68830D01*
X457398Y68640D01*
X457533Y68446D01*
X457588Y68385D01*
X457637Y68320D01*
X457802Y68149D01*
X457961Y67974D01*
X458023Y67920D01*
X458080Y67861D01*
X458264Y67713D01*
X458444Y67558D01*
X458512Y67513D01*
X458576Y67461D01*
X458777Y67338D01*
X458975Y67207D01*
X459048Y67171D01*
X459119Y67127D01*
X459355Y67020D01*
X459563Y66917D01*
X460444Y66553D01*
X460873Y66124D01*
X461105Y65563D01*
X461105Y52257D01*
X460873Y51696D01*
X460444Y51267D01*
X459883Y51035D01*
X449849Y51035D01*
X449817Y51033D01*
X449785Y51035D01*
X449498Y51013D01*
X449213Y50995D01*
X449182Y50989D01*
X449149Y50987D01*
X448868Y50930D01*
X448635Y50885D01*
X428284Y50885D01*
G37*
%LPD*%
G36*
X401683Y100929D02*
X401683Y100929D01*
X401838Y100929D01*
X402000Y100949D01*
X402164Y100960D01*
X402316Y100989D01*
X402470Y101008D01*
X402629Y101048D01*
X402790Y101079D01*
X402937Y101127D01*
X403087Y101165D01*
X403240Y101225D01*
X403396Y101276D01*
X403536Y101341D01*
X403680Y101398D01*
X403824Y101477D01*
X403972Y101547D01*
X404103Y101629D01*
X404239Y101704D01*
X404372Y101800D01*
X404511Y101888D01*
X404630Y101986D01*
X404756Y102077D01*
X404875Y102189D01*
X405002Y102293D01*
X405108Y102406D01*
X405221Y102512D01*
X405326Y102638D01*
X405438Y102757D01*
X405530Y102883D01*
X405629Y103002D01*
X405717Y103140D01*
X405813Y103272D01*
X405888Y103408D01*
X405972Y103539D01*
X406042Y103687D01*
X406121Y103830D01*
X406178Y103974D01*
X406245Y104114D01*
X406296Y104270D01*
X406356Y104423D01*
X406395Y104573D01*
X406444Y104720D01*
X406475Y104881D01*
X406516Y105039D01*
X406535Y105193D01*
X406565Y105345D01*
X406575Y105504D01*
X406597Y105671D01*
X406597Y105840D01*
X406607Y105999D01*
X406607Y249230D01*
X407220Y250709D01*
X409066Y252555D01*
X409067Y252556D01*
X442488Y285977D01*
X442536Y286031D01*
X442589Y286081D01*
X442716Y286233D01*
X442758Y286278D01*
X442779Y286307D01*
X442909Y286454D01*
X442950Y286515D01*
X442997Y286571D01*
X443129Y286778D01*
X443267Y286981D01*
X443300Y287046D01*
X443340Y287108D01*
X443445Y287330D01*
X443557Y287549D01*
X443581Y287618D01*
X443613Y287684D01*
X443689Y287917D01*
X443773Y288148D01*
X443789Y288219D01*
X443812Y288289D01*
X443858Y288530D01*
X443912Y288770D01*
X443919Y288843D01*
X443933Y288914D01*
X443948Y289146D01*
X443973Y289404D01*
X443970Y289488D01*
X443975Y289568D01*
X443975Y306375D01*
X443960Y306611D01*
X443953Y306848D01*
X443940Y306929D01*
X443935Y307011D01*
X443891Y307243D01*
X443854Y307477D01*
X443831Y307556D01*
X443816Y307636D01*
X443743Y307862D01*
X443677Y308089D01*
X443645Y308164D01*
X443619Y308242D01*
X443519Y308457D01*
X443425Y308674D01*
X443383Y308745D01*
X443348Y308819D01*
X443222Y309019D01*
X443101Y309223D01*
X443051Y309288D01*
X443007Y309357D01*
X442857Y309540D01*
X442712Y309727D01*
X442654Y309785D01*
X442602Y309848D01*
X442429Y310011D01*
X442262Y310178D01*
X442197Y310229D01*
X442138Y310285D01*
X441946Y310425D01*
X441759Y310570D01*
X441689Y310612D01*
X441623Y310660D01*
X441415Y310774D01*
X441212Y310895D01*
X441136Y310928D01*
X441065Y310968D01*
X440844Y311055D01*
X440627Y311150D01*
X440549Y311173D01*
X440472Y311203D01*
X440243Y311262D01*
X440016Y311329D01*
X439935Y311342D01*
X439856Y311362D01*
X439620Y311393D01*
X439387Y311430D01*
X439305Y311433D01*
X439224Y311443D01*
X438987Y311444D01*
X438750Y311452D01*
X438669Y311444D01*
X438586Y311444D01*
X438352Y311415D01*
X438116Y311394D01*
X438036Y311376D01*
X437954Y311366D01*
X437725Y311307D01*
X437494Y311256D01*
X437416Y311229D01*
X437337Y311209D01*
X437116Y311122D01*
X436893Y311042D01*
X436820Y311005D01*
X436744Y310975D01*
X436536Y310862D01*
X436325Y310755D01*
X436257Y310709D01*
X436185Y310670D01*
X435993Y310531D01*
X435797Y310399D01*
X435736Y310346D01*
X435668Y310297D01*
X435489Y310129D01*
X435489Y319980D01*
X435480Y320134D01*
X435480Y320289D01*
X435460Y320452D01*
X435449Y320616D01*
X435420Y320767D01*
X435401Y320921D01*
X435361Y321081D01*
X435330Y321241D01*
X435282Y321389D01*
X435244Y321539D01*
X435184Y321691D01*
X435134Y321847D01*
X435068Y321988D01*
X435011Y322132D01*
X434932Y322276D01*
X434863Y322424D01*
X434780Y322555D01*
X434705Y322691D01*
X434609Y322824D01*
X434521Y322962D01*
X434423Y323082D01*
X434332Y323207D01*
X434220Y323327D01*
X434116Y323453D01*
X434115Y323454D01*
X434003Y323560D01*
X433897Y323673D01*
X433771Y323778D01*
X433651Y323891D01*
X433526Y323982D01*
X433407Y324081D01*
X433269Y324169D01*
X433136Y324266D01*
X433001Y324340D01*
X432870Y324424D01*
X432722Y324494D01*
X432578Y324573D01*
X432434Y324630D01*
X432294Y324697D01*
X432138Y324748D01*
X431986Y324809D01*
X431836Y324847D01*
X431689Y324896D01*
X431528Y324927D01*
X431369Y324968D01*
X431216Y324988D01*
X431064Y325017D01*
X430905Y325027D01*
X430737Y325049D01*
X430569Y325049D01*
X430410Y325059D01*
X420581Y325059D01*
X425276Y329754D01*
X425433Y329932D01*
X425595Y330104D01*
X425643Y330171D01*
X425698Y330232D01*
X425831Y330428D01*
X425970Y330620D01*
X426010Y330691D01*
X426056Y330759D01*
X426163Y330970D01*
X426278Y331177D01*
X426308Y331254D01*
X426345Y331327D01*
X426426Y331549D01*
X426513Y331770D01*
X426534Y331849D01*
X426561Y331926D01*
X426613Y332157D01*
X426672Y332386D01*
X426683Y332468D01*
X426701Y332548D01*
X426723Y332783D01*
X426753Y333018D01*
X426753Y333101D01*
X426761Y333182D01*
X426754Y333418D01*
X426754Y333656D01*
X426744Y333737D01*
X426742Y333819D01*
X426705Y334053D01*
X426676Y334288D01*
X426656Y334367D01*
X426643Y334448D01*
X426577Y334676D01*
X426519Y334905D01*
X426489Y334981D01*
X426466Y335060D01*
X426372Y335278D01*
X426285Y335498D01*
X426246Y335570D01*
X426214Y335645D01*
X426094Y335849D01*
X425980Y336057D01*
X425932Y336124D01*
X425890Y336194D01*
X425745Y336382D01*
X425607Y336574D01*
X425551Y336634D01*
X425500Y336698D01*
X425333Y336866D01*
X425172Y337039D01*
X425109Y337092D01*
X425051Y337150D01*
X424864Y337295D01*
X424682Y337447D01*
X424613Y337491D01*
X424548Y337541D01*
X424345Y337662D01*
X424145Y337790D01*
X424071Y337825D01*
X424000Y337867D01*
X423784Y337961D01*
X423569Y338063D01*
X423491Y338088D01*
X423416Y338121D01*
X423189Y338188D01*
X422964Y338262D01*
X422883Y338277D01*
X422805Y338300D01*
X422571Y338338D01*
X422338Y338383D01*
X422258Y338388D01*
X422176Y338401D01*
X421916Y338410D01*
X421685Y338425D01*
X390960Y338425D01*
X390805Y338416D01*
X390650Y338416D01*
X390488Y338396D01*
X390324Y338385D01*
X390172Y338356D01*
X390018Y338337D01*
X389859Y338297D01*
X389698Y338266D01*
X389551Y338218D01*
X389401Y338180D01*
X389248Y338120D01*
X389092Y338069D01*
X388952Y338004D01*
X388808Y337947D01*
X388664Y337868D01*
X388516Y337798D01*
X388385Y337716D01*
X388249Y337641D01*
X388116Y337545D01*
X387977Y337457D01*
X387858Y337359D01*
X387732Y337268D01*
X387613Y337156D01*
X387486Y337052D01*
X387380Y336939D01*
X387267Y336833D01*
X387162Y336707D01*
X387050Y336588D01*
X386958Y336462D01*
X386859Y336343D01*
X386771Y336205D01*
X386675Y336073D01*
X386600Y335937D01*
X386516Y335806D01*
X386446Y335658D01*
X386367Y335515D01*
X386310Y335371D01*
X386243Y335231D01*
X386192Y335075D01*
X386132Y334922D01*
X386093Y334772D01*
X386044Y334625D01*
X386013Y334464D01*
X385972Y334306D01*
X385953Y334152D01*
X385923Y334000D01*
X385913Y333841D01*
X385891Y333674D01*
X385891Y333505D01*
X385881Y333346D01*
X385881Y333069D01*
X378340Y333069D01*
X378186Y333060D01*
X378031Y333060D01*
X377868Y333040D01*
X377704Y333029D01*
X377553Y333000D01*
X377399Y332981D01*
X377239Y332941D01*
X377079Y332910D01*
X376931Y332862D01*
X376781Y332824D01*
X376629Y332764D01*
X376473Y332714D01*
X376332Y332648D01*
X376188Y332591D01*
X376044Y332512D01*
X375896Y332443D01*
X375765Y332360D01*
X375629Y332285D01*
X375496Y332189D01*
X375358Y332101D01*
X375238Y332003D01*
X375113Y331912D01*
X374993Y331800D01*
X374867Y331696D01*
X374866Y331695D01*
X374760Y331582D01*
X374647Y331477D01*
X374542Y331351D01*
X374429Y331231D01*
X374338Y331106D01*
X374239Y330987D01*
X374151Y330849D01*
X374054Y330716D01*
X373980Y330581D01*
X373896Y330450D01*
X373826Y330302D01*
X373747Y330158D01*
X373690Y330014D01*
X373623Y329874D01*
X373572Y329718D01*
X373511Y329566D01*
X373473Y329416D01*
X373424Y329269D01*
X373393Y329108D01*
X373352Y328949D01*
X373332Y328796D01*
X373303Y328644D01*
X373293Y328485D01*
X373271Y328317D01*
X373271Y328149D01*
X373261Y327990D01*
X373261Y319026D01*
X373191Y318981D01*
X373071Y318883D01*
X372945Y318792D01*
X372826Y318680D01*
X372699Y318576D01*
X372593Y318463D01*
X372480Y318357D01*
X372375Y318231D01*
X372263Y318112D01*
X372171Y317986D01*
X372072Y317867D01*
X371984Y317729D01*
X371888Y317597D01*
X371813Y317461D01*
X371729Y317330D01*
X371659Y317182D01*
X371580Y317039D01*
X371523Y316895D01*
X371456Y316755D01*
X371405Y316599D01*
X371345Y316447D01*
X371306Y316297D01*
X371258Y316149D01*
X371226Y315989D01*
X371185Y315830D01*
X371166Y315676D01*
X371136Y315524D01*
X371126Y315365D01*
X371104Y315198D01*
X371104Y315029D01*
X371094Y314870D01*
X371094Y287359D01*
X371098Y287286D01*
X371096Y287213D01*
X371118Y286968D01*
X371134Y286723D01*
X371147Y286651D01*
X371154Y286579D01*
X371207Y286338D01*
X371253Y286097D01*
X371276Y286028D01*
X371291Y285956D01*
X371374Y285725D01*
X371450Y285491D01*
X371481Y285425D01*
X371505Y285356D01*
X371616Y285137D01*
X371721Y284914D01*
X371760Y284853D01*
X371793Y284788D01*
X371930Y284584D01*
X372062Y284376D01*
X372108Y284320D01*
X372149Y284259D01*
X372302Y284086D01*
X372467Y283885D01*
X372528Y283828D01*
X372581Y283767D01*
X373803Y282546D01*
X375025Y279596D01*
X375025Y276404D01*
X373803Y273454D01*
X353546Y253197D01*
X350596Y251975D01*
X253428Y251975D01*
X253355Y251971D01*
X253282Y251973D01*
X253037Y251951D01*
X252792Y251935D01*
X252720Y251922D01*
X252648Y251915D01*
X252407Y251862D01*
X252166Y251816D01*
X252097Y251793D01*
X252025Y251778D01*
X251794Y251695D01*
X251560Y251619D01*
X251494Y251588D01*
X251425Y251564D01*
X251206Y251453D01*
X250983Y251348D01*
X250922Y251309D01*
X250857Y251276D01*
X250653Y251139D01*
X250445Y251007D01*
X250389Y250961D01*
X250329Y250920D01*
X250155Y250767D01*
X249954Y250602D01*
X249897Y250541D01*
X249836Y250488D01*
X217546Y218197D01*
X214596Y216975D01*
X147200Y216975D01*
X147045Y216966D01*
X146890Y216966D01*
X146728Y216946D01*
X146564Y216935D01*
X146412Y216906D01*
X146258Y216887D01*
X146099Y216847D01*
X145938Y216816D01*
X145791Y216768D01*
X145641Y216730D01*
X145488Y216670D01*
X145332Y216619D01*
X145192Y216554D01*
X145048Y216497D01*
X144904Y216418D01*
X144843Y216389D01*
X126880Y216389D01*
X126726Y216380D01*
X126571Y216380D01*
X126408Y216360D01*
X126244Y216349D01*
X126093Y216320D01*
X125939Y216301D01*
X125779Y216261D01*
X125619Y216230D01*
X125471Y216182D01*
X125321Y216144D01*
X125169Y216084D01*
X125013Y216034D01*
X124872Y215968D01*
X124728Y215911D01*
X124584Y215832D01*
X124436Y215763D01*
X124305Y215680D01*
X124169Y215605D01*
X124036Y215509D01*
X123898Y215421D01*
X123778Y215323D01*
X123653Y215232D01*
X123533Y215120D01*
X123407Y215016D01*
X123300Y214903D01*
X123187Y214797D01*
X123082Y214671D01*
X122970Y214552D01*
X122879Y214426D01*
X122780Y214307D01*
X122691Y214169D01*
X122595Y214037D01*
X122520Y213901D01*
X122437Y213770D01*
X122366Y213622D01*
X122287Y213479D01*
X122230Y213335D01*
X122164Y213195D01*
X122112Y213039D01*
X122052Y212887D01*
X122013Y212737D01*
X121965Y212589D01*
X121934Y212429D01*
X121893Y212270D01*
X121873Y212116D01*
X121843Y211964D01*
X121833Y211805D01*
X121812Y211638D01*
X121811Y211469D01*
X121801Y211310D01*
X121811Y211155D01*
X121811Y211001D01*
X121811Y211000D01*
X121831Y210837D01*
X121841Y210674D01*
X121870Y210522D01*
X121889Y210368D01*
X121930Y210209D01*
X121960Y210048D01*
X122008Y209901D01*
X122046Y209751D01*
X122106Y209598D01*
X122157Y209442D01*
X122223Y209302D01*
X122280Y209158D01*
X122358Y209014D01*
X122428Y208865D01*
X122511Y208735D01*
X122585Y208599D01*
X122681Y208466D01*
X122769Y208327D01*
X122868Y208208D01*
X122958Y208082D01*
X123070Y207962D01*
X123175Y207836D01*
X123288Y207730D01*
X123393Y207617D01*
X123519Y207512D01*
X123639Y207399D01*
X123764Y207308D01*
X123883Y207209D01*
X124021Y207121D01*
X124154Y207024D01*
X124289Y206950D01*
X124420Y206866D01*
X124568Y206796D01*
X124712Y206717D01*
X124856Y206660D01*
X124996Y206593D01*
X125152Y206542D01*
X125304Y206481D01*
X125454Y206443D01*
X125601Y206394D01*
X125762Y206363D01*
X125921Y206322D01*
X126074Y206302D01*
X126226Y206273D01*
X126385Y206263D01*
X126553Y206241D01*
X126721Y206241D01*
X126880Y206231D01*
X142121Y206231D01*
X142121Y204710D01*
X142023Y204219D01*
X141832Y203757D01*
X141553Y203340D01*
X140979Y202766D01*
X140923Y202720D01*
X140772Y202559D01*
X140615Y202405D01*
X140554Y202328D01*
X140486Y202256D01*
X140357Y202078D01*
X140221Y201905D01*
X140170Y201820D01*
X140111Y201740D01*
X140005Y201548D01*
X139891Y201359D01*
X139851Y201269D01*
X139804Y201183D01*
X139722Y200978D01*
X139633Y200777D01*
X139605Y200682D01*
X139568Y200590D01*
X139513Y200377D01*
X139450Y200167D01*
X139434Y200069D01*
X139409Y199974D01*
X139381Y199755D01*
X139345Y199538D01*
X139341Y199440D01*
X139328Y199342D01*
X139328Y199121D01*
X139319Y198902D01*
X139327Y198803D01*
X139327Y198704D01*
X139354Y198486D01*
X139373Y198267D01*
X139393Y198170D01*
X139406Y198072D01*
X139460Y197859D01*
X139506Y197644D01*
X139538Y197551D01*
X139563Y197455D01*
X139643Y197250D01*
X139716Y197042D01*
X139760Y196954D01*
X139796Y196862D01*
X139902Y196668D01*
X139999Y196472D01*
X140054Y196390D01*
X140102Y196303D01*
X140231Y196124D01*
X140352Y195941D01*
X140417Y195867D01*
X140475Y195786D01*
X140625Y195625D01*
X140769Y195459D01*
X140842Y195393D01*
X140910Y195321D01*
X141079Y195180D01*
X141242Y195033D01*
X141324Y194976D01*
X141400Y194913D01*
X141585Y194795D01*
X141766Y194669D01*
X141853Y194624D01*
X141936Y194570D01*
X142136Y194476D01*
X142330Y194374D01*
X142423Y194340D01*
X142512Y194297D01*
X142722Y194229D01*
X142927Y194152D01*
X143023Y194129D01*
X143117Y194098D01*
X143334Y194057D01*
X143548Y194006D01*
X143646Y193996D01*
X143743Y193977D01*
X143953Y193963D01*
X144181Y193939D01*
X144291Y193942D01*
X144397Y193935D01*
X304476Y193935D01*
X307426Y192713D01*
X397731Y102407D01*
X397786Y102359D01*
X397836Y102306D01*
X398025Y102148D01*
X398209Y101986D01*
X398269Y101945D01*
X398326Y101898D01*
X398533Y101766D01*
X398736Y101628D01*
X398801Y101595D01*
X398863Y101555D01*
X399085Y101450D01*
X399304Y101338D01*
X399372Y101314D01*
X399438Y101282D01*
X399672Y101206D01*
X399903Y101122D01*
X399974Y101106D01*
X400044Y101083D01*
X400285Y101037D01*
X400525Y100983D01*
X400597Y100976D01*
X400669Y100962D01*
X400900Y100947D01*
X401159Y100922D01*
X401242Y100925D01*
X401323Y100920D01*
X401528Y100920D01*
X401683Y100929D01*
G37*
G36*
X95321Y218516D02*
X95321Y218516D01*
X95597Y218524D01*
X95681Y218536D01*
X95765Y218541D01*
X96038Y218586D01*
X96311Y218625D01*
X96393Y218646D01*
X96476Y218660D01*
X96742Y218736D01*
X97009Y218804D01*
X97088Y218834D01*
X97170Y218858D01*
X97425Y218962D01*
X97683Y219060D01*
X97758Y219098D01*
X97837Y219130D01*
X98079Y219263D01*
X98325Y219388D01*
X98395Y219435D01*
X98469Y219476D01*
X98476Y219480D01*
X102205Y221025D01*
X105570Y221025D01*
X105708Y221032D01*
X105846Y221031D01*
X106068Y221052D01*
X106290Y221065D01*
X106426Y221088D01*
X106564Y221101D01*
X106781Y221147D01*
X107000Y221184D01*
X107133Y221222D01*
X107269Y221251D01*
X107480Y221321D01*
X107694Y221382D01*
X107822Y221434D01*
X107953Y221477D01*
X108155Y221570D01*
X108361Y221654D01*
X108483Y221721D01*
X108608Y221779D01*
X108798Y221893D01*
X108994Y222000D01*
X109107Y222079D01*
X109225Y222150D01*
X109402Y222285D01*
X109584Y222413D01*
X109688Y222504D01*
X109798Y222588D01*
X109959Y222742D01*
X110126Y222889D01*
X110219Y222991D01*
X110319Y223087D01*
X110461Y223257D01*
X110611Y223422D01*
X110692Y223534D01*
X110781Y223640D01*
X110904Y223825D01*
X111034Y224005D01*
X111102Y224125D01*
X111179Y224241D01*
X111281Y224439D01*
X111390Y224632D01*
X111445Y224759D01*
X111508Y224882D01*
X111587Y225090D01*
X111675Y225294D01*
X111715Y225426D01*
X111764Y225556D01*
X111819Y225771D01*
X111884Y225984D01*
X111909Y226120D01*
X111944Y226254D01*
X111975Y226474D01*
X112016Y226692D01*
X112026Y226830D01*
X112045Y226967D01*
X112052Y227190D01*
X112068Y227411D01*
X112063Y227550D01*
X112067Y227688D01*
X112049Y227910D01*
X112041Y228132D01*
X112020Y228268D01*
X112009Y228406D01*
X111967Y228625D01*
X111934Y228844D01*
X111898Y228978D01*
X111872Y229114D01*
X111822Y229264D01*
X111765Y229479D01*
X111639Y230110D01*
X111639Y230211D01*
X126880Y230211D01*
X142121Y230211D01*
X142121Y230110D01*
X142023Y229619D01*
X141832Y229157D01*
X141467Y228611D01*
X141439Y228563D01*
X141407Y228519D01*
X141256Y228254D01*
X141100Y227990D01*
X141078Y227940D01*
X141051Y227892D01*
X140930Y227612D01*
X140805Y227333D01*
X140788Y227281D01*
X140766Y227230D01*
X140677Y226938D01*
X140584Y226647D01*
X140573Y226593D01*
X140557Y226540D01*
X140501Y226241D01*
X140440Y225941D01*
X140435Y225886D01*
X140425Y225832D01*
X140403Y225527D01*
X140375Y225223D01*
X140377Y225168D01*
X140373Y225113D01*
X140384Y224808D01*
X140391Y224502D01*
X140398Y224447D01*
X140400Y224392D01*
X140445Y224092D01*
X140486Y223788D01*
X140499Y223734D01*
X140507Y223680D01*
X140585Y223386D01*
X140659Y223088D01*
X140678Y223036D01*
X140692Y222983D01*
X140803Y222699D01*
X140909Y222412D01*
X140934Y222363D01*
X140954Y222311D01*
X141095Y222041D01*
X141232Y221768D01*
X141262Y221721D01*
X141288Y221673D01*
X141458Y221420D01*
X141625Y221163D01*
X141660Y221121D01*
X141691Y221075D01*
X141889Y220842D01*
X142082Y220606D01*
X142121Y220568D01*
X142157Y220525D01*
X142380Y220316D01*
X142598Y220103D01*
X142642Y220069D01*
X142682Y220031D01*
X142926Y219847D01*
X143167Y219660D01*
X143213Y219631D01*
X143258Y219598D01*
X143521Y219442D01*
X143781Y219282D01*
X143831Y219259D01*
X143878Y219231D01*
X144156Y219106D01*
X144433Y218975D01*
X144485Y218957D01*
X144535Y218935D01*
X144826Y218841D01*
X145115Y218742D01*
X145169Y218731D01*
X145221Y218714D01*
X145521Y218652D01*
X145819Y218586D01*
X145874Y218581D01*
X145928Y218570D01*
X146078Y218559D01*
X146536Y218509D01*
X146741Y218510D01*
X146871Y218501D01*
X213000Y218501D01*
X213276Y218516D01*
X213551Y218524D01*
X213635Y218536D01*
X213720Y218541D01*
X213992Y218586D01*
X214265Y218625D01*
X214347Y218646D01*
X214431Y218660D01*
X214696Y218736D01*
X214963Y218804D01*
X215042Y218834D01*
X215124Y218858D01*
X215379Y218962D01*
X215637Y219060D01*
X215713Y219098D01*
X215791Y219130D01*
X216033Y219263D01*
X216279Y219388D01*
X216349Y219435D01*
X216424Y219476D01*
X216649Y219633D01*
X216880Y219786D01*
X216933Y219832D01*
X217014Y219889D01*
X217556Y220365D01*
X217577Y220389D01*
X217596Y220404D01*
X250692Y253501D01*
X349000Y253501D01*
X349276Y253516D01*
X349551Y253524D01*
X349635Y253536D01*
X349720Y253541D01*
X349992Y253586D01*
X350265Y253625D01*
X350347Y253646D01*
X350431Y253660D01*
X350696Y253736D01*
X350963Y253804D01*
X351042Y253834D01*
X351124Y253858D01*
X351379Y253962D01*
X351637Y254060D01*
X351713Y254098D01*
X351791Y254130D01*
X352033Y254263D01*
X352279Y254388D01*
X352349Y254435D01*
X352424Y254476D01*
X352649Y254633D01*
X352880Y254786D01*
X352933Y254832D01*
X353014Y254889D01*
X353556Y255365D01*
X353577Y255389D01*
X353596Y255404D01*
X371596Y273404D01*
X371798Y273631D01*
X372005Y273854D01*
X372039Y273899D01*
X372076Y273942D01*
X372253Y274189D01*
X372433Y274434D01*
X372462Y274482D01*
X372495Y274529D01*
X372642Y274794D01*
X372795Y275057D01*
X372818Y275109D01*
X372845Y275158D01*
X372963Y275438D01*
X373085Y275717D01*
X373102Y275771D01*
X373124Y275823D01*
X373210Y276115D01*
X373301Y276405D01*
X373311Y276460D01*
X373327Y276515D01*
X373380Y276813D01*
X373438Y277113D01*
X373443Y277169D01*
X373453Y277224D01*
X373472Y277527D01*
X373497Y277831D01*
X373495Y277888D01*
X373499Y277944D01*
X373485Y278247D01*
X373476Y278551D01*
X373468Y278607D01*
X373465Y278664D01*
X373418Y278964D01*
X373375Y279265D01*
X373361Y279320D01*
X373352Y279375D01*
X373271Y279668D01*
X373196Y279963D01*
X373176Y280016D01*
X373161Y280070D01*
X373048Y280352D01*
X372940Y280637D01*
X372914Y280688D01*
X372894Y280740D01*
X372751Y281007D01*
X372612Y281279D01*
X372580Y281326D01*
X372554Y281376D01*
X372382Y281626D01*
X372214Y281880D01*
X372183Y281916D01*
X372146Y281970D01*
X371675Y282515D01*
X371627Y282560D01*
X371596Y282596D01*
X363596Y290596D01*
X363390Y290779D01*
X363189Y290969D01*
X363121Y291020D01*
X363059Y291076D01*
X362834Y291236D01*
X362613Y291402D01*
X362540Y291445D01*
X362471Y291495D01*
X362230Y291629D01*
X361993Y291769D01*
X361916Y291804D01*
X361842Y291845D01*
X361587Y291952D01*
X361336Y292065D01*
X361255Y292091D01*
X361177Y292124D01*
X360912Y292202D01*
X360650Y292286D01*
X360567Y292303D01*
X360485Y292327D01*
X360214Y292375D01*
X359943Y292430D01*
X359873Y292436D01*
X359776Y292453D01*
X359056Y292499D01*
X359024Y292498D01*
X359000Y292499D01*
X355000Y292499D01*
X354724Y292484D01*
X354449Y292476D01*
X354365Y292464D01*
X354280Y292459D01*
X354008Y292414D01*
X353735Y292375D01*
X353653Y292354D01*
X353570Y292340D01*
X353304Y292264D01*
X353037Y292196D01*
X352958Y292166D01*
X352876Y292142D01*
X352621Y292038D01*
X352363Y291940D01*
X352287Y291902D01*
X352209Y291870D01*
X351967Y291737D01*
X351721Y291612D01*
X351651Y291565D01*
X351576Y291524D01*
X351351Y291367D01*
X351120Y291214D01*
X351067Y291168D01*
X350986Y291111D01*
X350444Y290635D01*
X350423Y290611D01*
X350404Y290596D01*
X340308Y280499D01*
X233692Y280499D01*
X222499Y291692D01*
X222499Y297000D01*
X222482Y297304D01*
X222471Y297608D01*
X222462Y297663D01*
X222459Y297720D01*
X222409Y298020D01*
X222364Y298320D01*
X222349Y298375D01*
X222340Y298431D01*
X222256Y298724D01*
X222178Y299017D01*
X222158Y299069D01*
X222142Y299124D01*
X222027Y299405D01*
X221917Y299689D01*
X221891Y299739D01*
X221870Y299791D01*
X221724Y300058D01*
X221583Y300327D01*
X221551Y300374D01*
X221524Y300424D01*
X221350Y300673D01*
X221180Y300925D01*
X221144Y300968D01*
X221111Y301014D01*
X220911Y301243D01*
X220714Y301475D01*
X220673Y301513D01*
X220635Y301556D01*
X220411Y301760D01*
X220189Y301969D01*
X220144Y302003D01*
X220102Y302041D01*
X219857Y302219D01*
X219613Y302402D01*
X219565Y302431D01*
X219519Y302464D01*
X219255Y302614D01*
X218993Y302769D01*
X218941Y302792D01*
X218892Y302820D01*
X218613Y302940D01*
X218336Y303065D01*
X218282Y303082D01*
X218230Y303105D01*
X217939Y303193D01*
X217650Y303286D01*
X217594Y303298D01*
X217540Y303314D01*
X217242Y303370D01*
X216943Y303430D01*
X216896Y303434D01*
X216832Y303446D01*
X216113Y303498D01*
X216047Y303496D01*
X216000Y303499D01*
X33000Y303499D01*
X32696Y303482D01*
X32392Y303471D01*
X32337Y303462D01*
X32280Y303459D01*
X31980Y303409D01*
X31680Y303364D01*
X31625Y303349D01*
X31570Y303340D01*
X31276Y303256D01*
X30983Y303178D01*
X30931Y303158D01*
X30876Y303142D01*
X30595Y303027D01*
X30311Y302917D01*
X30261Y302891D01*
X30209Y302870D01*
X29942Y302724D01*
X29673Y302583D01*
X29626Y302551D01*
X29576Y302524D01*
X29327Y302350D01*
X29075Y302180D01*
X29032Y302144D01*
X28986Y302111D01*
X28757Y301911D01*
X28525Y301714D01*
X28487Y301673D01*
X28444Y301635D01*
X28240Y301411D01*
X28031Y301189D01*
X27997Y301144D01*
X27959Y301102D01*
X27781Y300857D01*
X27598Y300613D01*
X27569Y300565D01*
X27536Y300519D01*
X27386Y300255D01*
X27231Y299993D01*
X27208Y299941D01*
X27180Y299892D01*
X27060Y299613D01*
X26935Y299336D01*
X26918Y299282D01*
X26895Y299230D01*
X26807Y298939D01*
X26714Y298650D01*
X26702Y298594D01*
X26686Y298540D01*
X26630Y298242D01*
X26570Y297943D01*
X26566Y297896D01*
X26554Y297832D01*
X26502Y297113D01*
X26504Y297047D01*
X26501Y297000D01*
X26501Y270437D01*
X26517Y270142D01*
X26528Y269846D01*
X26537Y269782D01*
X26541Y269717D01*
X26590Y269425D01*
X26633Y269133D01*
X26649Y269070D01*
X26660Y269006D01*
X26664Y268991D01*
X26629Y268796D01*
X26570Y268506D01*
X26566Y268452D01*
X26552Y268378D01*
X26501Y267659D01*
X26504Y267611D01*
X26501Y267563D01*
X26501Y242000D01*
X26516Y241724D01*
X26524Y241449D01*
X26536Y241365D01*
X26541Y241280D01*
X26586Y241008D01*
X26625Y240735D01*
X26646Y240653D01*
X26660Y240570D01*
X26736Y240304D01*
X26804Y240037D01*
X26834Y239958D01*
X26858Y239876D01*
X26962Y239621D01*
X27060Y239363D01*
X27098Y239287D01*
X27130Y239209D01*
X27263Y238967D01*
X27388Y238721D01*
X27435Y238651D01*
X27476Y238576D01*
X27633Y238351D01*
X27786Y238120D01*
X27832Y238067D01*
X27889Y237986D01*
X28365Y237444D01*
X28389Y237423D01*
X28404Y237404D01*
X45404Y220404D01*
X45610Y220221D01*
X45811Y220031D01*
X45879Y219980D01*
X45942Y219924D01*
X46166Y219764D01*
X46387Y219598D01*
X46460Y219555D01*
X46529Y219506D01*
X46770Y219371D01*
X47007Y219231D01*
X47084Y219196D01*
X47158Y219155D01*
X47413Y219048D01*
X47664Y218935D01*
X47745Y218909D01*
X47823Y218876D01*
X48088Y218798D01*
X48350Y218714D01*
X48434Y218697D01*
X48515Y218673D01*
X48786Y218625D01*
X49057Y218570D01*
X49127Y218564D01*
X49224Y218547D01*
X49944Y218501D01*
X49976Y218503D01*
X50000Y218501D01*
X95046Y218501D01*
X95321Y218516D01*
G37*
%LPC*%
G36*
X265110Y20429D02*
X265110Y20429D01*
X257700Y23499D01*
X252029Y29170D01*
X248959Y36580D01*
X248959Y44600D01*
X251754Y51346D01*
X251777Y51415D01*
X251807Y51482D01*
X251880Y51716D01*
X251960Y51949D01*
X251975Y52021D01*
X251996Y52090D01*
X252039Y52332D01*
X252089Y52573D01*
X252095Y52646D01*
X252108Y52718D01*
X252120Y52963D01*
X252140Y53208D01*
X252136Y53281D01*
X252140Y53354D01*
X252121Y53599D01*
X252110Y53844D01*
X252097Y53916D01*
X252092Y53989D01*
X252043Y54230D01*
X252001Y54472D01*
X251979Y54542D01*
X251965Y54614D01*
X251890Y54832D01*
X251814Y55081D01*
X251779Y55158D01*
X251754Y55234D01*
X248959Y61980D01*
X248959Y70000D01*
X251754Y76746D01*
X251777Y76815D01*
X251807Y76882D01*
X251880Y77116D01*
X251960Y77349D01*
X251975Y77421D01*
X251996Y77490D01*
X252039Y77732D01*
X252089Y77973D01*
X252095Y78046D01*
X252108Y78118D01*
X252120Y78363D01*
X252140Y78608D01*
X252136Y78681D01*
X252140Y78754D01*
X252121Y78999D01*
X252110Y79244D01*
X252097Y79316D01*
X252092Y79389D01*
X252043Y79630D01*
X252001Y79872D01*
X251979Y79942D01*
X251965Y80014D01*
X251890Y80232D01*
X251814Y80481D01*
X251779Y80558D01*
X251754Y80634D01*
X248959Y87380D01*
X248959Y95400D01*
X252029Y102810D01*
X257700Y108481D01*
X265110Y111551D01*
X273130Y111551D01*
X279876Y108756D01*
X279945Y108733D01*
X280012Y108703D01*
X280246Y108630D01*
X280479Y108550D01*
X280551Y108535D01*
X280620Y108514D01*
X280862Y108471D01*
X281103Y108421D01*
X281176Y108415D01*
X281248Y108402D01*
X281493Y108390D01*
X281738Y108370D01*
X281811Y108374D01*
X281884Y108370D01*
X282129Y108389D01*
X282374Y108400D01*
X282446Y108413D01*
X282519Y108418D01*
X282760Y108467D01*
X283002Y108509D01*
X283072Y108531D01*
X283143Y108545D01*
X283362Y108620D01*
X283611Y108696D01*
X283688Y108731D01*
X283764Y108756D01*
X290510Y111551D01*
X298530Y111551D01*
X305940Y108481D01*
X311611Y102810D01*
X314681Y95400D01*
X314681Y87380D01*
X311886Y80634D01*
X311863Y80565D01*
X311833Y80498D01*
X311760Y80264D01*
X311680Y80031D01*
X311665Y79959D01*
X311644Y79890D01*
X311601Y79648D01*
X311551Y79407D01*
X311545Y79334D01*
X311532Y79262D01*
X311520Y79017D01*
X311500Y78772D01*
X311504Y78699D01*
X311500Y78626D01*
X311519Y78381D01*
X311530Y78136D01*
X311543Y78064D01*
X311548Y77991D01*
X311597Y77750D01*
X311639Y77508D01*
X311661Y77438D01*
X311675Y77367D01*
X311750Y77148D01*
X311826Y76899D01*
X311861Y76822D01*
X311886Y76746D01*
X314681Y70000D01*
X314681Y61980D01*
X311886Y55234D01*
X311863Y55165D01*
X311833Y55098D01*
X311760Y54864D01*
X311680Y54631D01*
X311665Y54559D01*
X311644Y54490D01*
X311601Y54248D01*
X311551Y54007D01*
X311545Y53934D01*
X311532Y53862D01*
X311520Y53617D01*
X311500Y53372D01*
X311504Y53299D01*
X311500Y53226D01*
X311519Y52981D01*
X311530Y52736D01*
X311543Y52664D01*
X311548Y52591D01*
X311597Y52350D01*
X311639Y52108D01*
X311661Y52038D01*
X311675Y51967D01*
X311750Y51748D01*
X311826Y51499D01*
X311861Y51422D01*
X311886Y51346D01*
X314681Y44600D01*
X314681Y36580D01*
X311611Y29170D01*
X305940Y23499D01*
X298530Y20429D01*
X290510Y20429D01*
X283764Y23224D01*
X283695Y23247D01*
X283628Y23277D01*
X283394Y23350D01*
X283161Y23430D01*
X283089Y23445D01*
X283020Y23466D01*
X282778Y23509D01*
X282537Y23559D01*
X282464Y23565D01*
X282392Y23578D01*
X282147Y23590D01*
X281902Y23610D01*
X281829Y23606D01*
X281756Y23610D01*
X281511Y23591D01*
X281266Y23580D01*
X281194Y23567D01*
X281121Y23562D01*
X280880Y23513D01*
X280638Y23471D01*
X280568Y23449D01*
X280496Y23435D01*
X280278Y23360D01*
X280029Y23284D01*
X279952Y23249D01*
X279876Y23224D01*
X273130Y20429D01*
X265110Y20429D01*
G37*
%LPD*%
%LPC*%
G36*
X106076Y490445D02*
X106076Y490445D01*
X102483Y491933D01*
X99733Y494683D01*
X98245Y498276D01*
X98245Y518664D01*
X99733Y522257D01*
X102483Y525007D01*
X106076Y526495D01*
X109964Y526495D01*
X113557Y525007D01*
X116307Y522257D01*
X117795Y518664D01*
X117795Y498276D01*
X116307Y494683D01*
X113557Y491933D01*
X109964Y490445D01*
X106076Y490445D01*
G37*
%LPD*%
%LPC*%
G36*
X49543Y258209D02*
X49543Y258209D01*
X48140Y258394D01*
X46774Y258760D01*
X45467Y259301D01*
X44242Y260009D01*
X43120Y260870D01*
X42120Y261870D01*
X41259Y262992D01*
X40551Y264217D01*
X40010Y265524D01*
X39644Y266890D01*
X39444Y268411D01*
X39389Y268702D01*
X39340Y268994D01*
X39333Y269017D01*
X39334Y269021D01*
X39430Y269494D01*
X39434Y269542D01*
X39444Y269589D01*
X39644Y271110D01*
X40010Y272476D01*
X40551Y273783D01*
X41259Y275008D01*
X42120Y276130D01*
X43120Y277130D01*
X44242Y277991D01*
X45467Y278699D01*
X46774Y279240D01*
X48140Y279606D01*
X49543Y279791D01*
X52001Y279791D01*
X52001Y269000D01*
X52001Y258209D01*
X49543Y258209D01*
G37*
%LPD*%
%LPC*%
G36*
X163099Y513549D02*
X163099Y513549D01*
X163099Y526243D01*
X163676Y525949D01*
X165050Y524951D01*
X166251Y523750D01*
X167249Y522376D01*
X168020Y520862D01*
X168545Y519247D01*
X168811Y517569D01*
X168811Y513549D01*
X163099Y513549D01*
G37*
%LPD*%
%LPC*%
G36*
X63579Y324079D02*
X63579Y324079D01*
X63579Y329791D01*
X67599Y329791D01*
X69277Y329525D01*
X70892Y329000D01*
X72406Y328229D01*
X73780Y327231D01*
X74981Y326030D01*
X75979Y324656D01*
X76273Y324079D01*
X63579Y324079D01*
G37*
%LPD*%
%LPC*%
G36*
X163099Y503391D02*
X163099Y503391D01*
X168811Y503391D01*
X168811Y499371D01*
X168545Y497693D01*
X168020Y496078D01*
X167249Y494564D01*
X166251Y493190D01*
X165050Y491989D01*
X163676Y490991D01*
X163099Y490697D01*
X163099Y503391D01*
G37*
%LPD*%
%LPC*%
G36*
X40727Y324079D02*
X40727Y324079D01*
X41021Y324656D01*
X42019Y326030D01*
X43220Y327231D01*
X44594Y328229D01*
X46108Y329000D01*
X47723Y329525D01*
X49401Y329791D01*
X53421Y329791D01*
X53421Y324079D01*
X40727Y324079D01*
G37*
%LPD*%
%LPC*%
G36*
X147229Y513549D02*
X147229Y513549D01*
X147229Y517569D01*
X147495Y519247D01*
X148020Y520862D01*
X148791Y522376D01*
X149789Y523750D01*
X150990Y524951D01*
X152364Y525949D01*
X152941Y526243D01*
X152941Y513549D01*
X147229Y513549D01*
G37*
%LPD*%
%LPC*%
G36*
X152364Y490991D02*
X152364Y490991D01*
X150990Y491989D01*
X149789Y493190D01*
X148791Y494564D01*
X148020Y496078D01*
X147495Y497693D01*
X147229Y499371D01*
X147229Y503391D01*
X152941Y503391D01*
X152941Y490697D01*
X152364Y490991D01*
G37*
%LPD*%
%LPC*%
G36*
X113930Y50019D02*
X113930Y50019D01*
X113439Y50117D01*
X112977Y50308D01*
X112560Y50587D01*
X112207Y50940D01*
X111928Y51357D01*
X111737Y51819D01*
X111639Y52310D01*
X111639Y53831D01*
X121801Y53831D01*
X121801Y50019D01*
X113930Y50019D01*
G37*
%LPD*%
%LPC*%
G36*
X131959Y50019D02*
X131959Y50019D01*
X131959Y53831D01*
X142121Y53831D01*
X142121Y52310D01*
X142023Y51819D01*
X141832Y51357D01*
X141553Y50940D01*
X141200Y50587D01*
X140783Y50308D01*
X140321Y50117D01*
X139830Y50019D01*
X131959Y50019D01*
G37*
%LPD*%
%LPC*%
G36*
X64999Y275499D02*
X64999Y275499D01*
X64999Y279791D01*
X67457Y279791D01*
X68860Y279606D01*
X70226Y279240D01*
X71533Y278699D01*
X72758Y277991D01*
X73880Y277130D01*
X74880Y276130D01*
X75364Y275499D01*
X64999Y275499D01*
G37*
%LPD*%
%LPC*%
G36*
X64999Y258209D02*
X64999Y258209D01*
X64999Y262501D01*
X75364Y262501D01*
X74880Y261870D01*
X73880Y260870D01*
X72758Y260009D01*
X71533Y259301D01*
X70226Y258760D01*
X68860Y258394D01*
X67457Y258209D01*
X64999Y258209D01*
G37*
%LPD*%
%LPC*%
G36*
X111639Y243209D02*
X111639Y243209D01*
X111639Y243310D01*
X111737Y243801D01*
X111928Y244263D01*
X112207Y244680D01*
X112560Y245033D01*
X112977Y245312D01*
X113439Y245503D01*
X113930Y245601D01*
X120381Y245601D01*
X120381Y243209D01*
X111639Y243209D01*
G37*
%LPD*%
%LPC*%
G36*
X133379Y243209D02*
X133379Y243209D01*
X133379Y245601D01*
X139830Y245601D01*
X140321Y245503D01*
X140783Y245312D01*
X141200Y245033D01*
X141553Y244680D01*
X141832Y244263D01*
X142023Y243801D01*
X142121Y243310D01*
X142121Y243209D01*
X133379Y243209D01*
G37*
%LPD*%
%LPC*%
G36*
X420581Y314901D02*
X420581Y314901D01*
X425331Y314901D01*
X425331Y310151D01*
X420581Y314901D01*
G37*
%LPD*%
%LPC*%
G36*
X378679Y528579D02*
X378679Y528579D01*
X378679Y531041D01*
X379350Y531041D01*
X379841Y530943D01*
X380303Y530752D01*
X380720Y530473D01*
X381073Y530120D01*
X381352Y529703D01*
X381543Y529241D01*
X381641Y528750D01*
X381641Y528579D01*
X378679Y528579D01*
G37*
%LPD*%
%LPC*%
G36*
X201809Y398329D02*
X201809Y398329D01*
X201809Y401291D01*
X201980Y401291D01*
X202471Y401193D01*
X202933Y401002D01*
X203350Y400723D01*
X203703Y400370D01*
X203982Y399953D01*
X204173Y399491D01*
X204271Y399000D01*
X204271Y398329D01*
X201809Y398329D01*
G37*
%LPD*%
%LPC*%
G36*
X175139Y398329D02*
X175139Y398329D01*
X175139Y400791D01*
X175810Y400791D01*
X176301Y400693D01*
X176763Y400502D01*
X177180Y400223D01*
X177533Y399870D01*
X177812Y399453D01*
X178003Y398991D01*
X178101Y398500D01*
X178101Y398329D01*
X175139Y398329D01*
G37*
%LPD*%
%LPC*%
G36*
X162019Y398329D02*
X162019Y398329D01*
X162019Y398500D01*
X162117Y398991D01*
X162308Y399453D01*
X162587Y399870D01*
X162940Y400223D01*
X163357Y400502D01*
X163819Y400693D01*
X164310Y400791D01*
X164981Y400791D01*
X164981Y398329D01*
X162019Y398329D01*
G37*
%LPD*%
%LPC*%
G36*
X383419Y319949D02*
X383419Y319949D01*
X383419Y322911D01*
X385881Y322911D01*
X385881Y322240D01*
X385783Y321749D01*
X385592Y321287D01*
X385313Y320870D01*
X384960Y320517D01*
X384543Y320238D01*
X384081Y320047D01*
X383590Y319949D01*
X383419Y319949D01*
G37*
%LPD*%
%LPC*%
G36*
X193159Y528579D02*
X193159Y528579D01*
X193159Y528750D01*
X193257Y529241D01*
X193448Y529703D01*
X193727Y530120D01*
X194080Y530473D01*
X194497Y530752D01*
X194959Y530943D01*
X195450Y531041D01*
X196121Y531041D01*
X196121Y528579D01*
X193159Y528579D01*
G37*
%LPD*%
%LPC*%
G36*
X189189Y398329D02*
X189189Y398329D01*
X189189Y399000D01*
X189287Y399491D01*
X189478Y399953D01*
X189757Y400370D01*
X190110Y400723D01*
X190527Y401002D01*
X190989Y401193D01*
X191480Y401291D01*
X191651Y401291D01*
X191651Y398329D01*
X189189Y398329D01*
G37*
%LPD*%
%LPC*%
G36*
X188940Y321219D02*
X188940Y321219D01*
X188449Y321317D01*
X187987Y321508D01*
X187570Y321787D01*
X187217Y322140D01*
X186938Y322557D01*
X186747Y323019D01*
X186649Y323510D01*
X186649Y324181D01*
X189111Y324181D01*
X189111Y321219D01*
X188940Y321219D01*
G37*
%LPD*%
D10*
X196730Y376250D03*
X196730Y393250D03*
X194190Y346260D03*
X194190Y329260D03*
D11*
X218200Y523500D03*
X201200Y523500D03*
D10*
X378340Y344990D03*
X378340Y327990D03*
D11*
X369840Y366970D03*
X386840Y366970D03*
X356600Y523500D03*
X373600Y523500D03*
D12*
X430410Y345380D03*
D13*
X430410Y319980D03*
D12*
X142120Y346650D03*
D13*
X142120Y321250D03*
D14*
X209430Y506280D03*
X209430Y489280D03*
X364370Y506280D03*
X364370Y489280D03*
D15*
X364370Y467020D03*
X364370Y432020D03*
X209430Y467020D03*
X209430Y432020D03*
X360840Y399990D03*
X395840Y399990D03*
D10*
X416830Y399990D03*
X433830Y399990D03*
D11*
X234830Y449130D03*
X234830Y432130D03*
X170060Y393250D03*
X170060Y376250D03*
X338970Y449130D03*
X338970Y432130D03*
D16*
X239355Y389050D03*
X239355Y382550D03*
X239355Y376050D03*
X239355Y369550D03*
X239355Y363050D03*
X239355Y356550D03*
X239355Y350050D03*
X239355Y343550D03*
X239355Y337050D03*
X239355Y330550D03*
X239355Y324050D03*
X239355Y317550D03*
X239355Y311050D03*
X239355Y304550D03*
X239355Y298050D03*
X239355Y291550D03*
X334445Y291550D03*
X334445Y298050D03*
X334445Y304550D03*
X334445Y311050D03*
X334445Y317550D03*
X334445Y324050D03*
X334445Y330550D03*
X334445Y337050D03*
X334445Y343550D03*
X334445Y350050D03*
X334445Y356550D03*
X334445Y363050D03*
X334445Y369550D03*
X334445Y376050D03*
X334445Y382550D03*
X334445Y389050D03*
D17*
X286900Y340300D03*
D18*
X126880Y58910D03*
X126880Y135110D03*
X126880Y160510D03*
X126880Y84310D03*
X126880Y109710D03*
X126880Y185910D03*
X126880Y211310D03*
X126880Y236710D03*
X446880Y58910D03*
X446880Y84310D03*
X446880Y109710D03*
X446880Y135110D03*
X446880Y160510D03*
X446880Y185910D03*
X446880Y211310D03*
X446880Y236710D03*
D19*
X311330Y500220D02*
X311330Y516720D01*
X261330Y516720D02*
X261330Y500220D01*
X158020Y500220D02*
X158020Y516720D01*
X108020Y516720D02*
X108020Y500220D01*
X464540Y500220D02*
X464540Y516720D01*
X414540Y516720D02*
X414540Y500220D01*
X66750Y319000D02*
X50250Y319000D01*
X50250Y269000D02*
X66750Y269000D01*
X66750Y166000D02*
X50250Y166000D01*
X50250Y116000D02*
X66750Y116000D01*
D20*
X239355Y291550D02*
X334445Y291550D01*
D21*
X286900Y298050D02*
X239355Y298050D01*
X286900Y298050D02*
X334445Y298050D01*
D22*
X286900Y298050D02*
X286900Y340300D01*
D21*
X334445Y298050D02*
X334445Y291550D01*
D23*
X126880Y211310D02*
X126650Y211080D01*
D24*
X210000Y393250D02*
X235155Y393250D01*
X210000Y393250D02*
X196730Y393250D01*
X235155Y393250D02*
X239355Y389050D01*
D25*
X286500Y164500D03*
X254000Y164500D03*
X219000Y164500D03*
X234000Y207000D03*
X269000Y207000D03*
X304000Y207000D03*
D21*
X195000Y329260D02*
X194190Y329260D01*
X195000Y329260D02*
X195000Y315000D01*
X185000Y315000D01*
X185000Y320070D01*
X194190Y329260D01*
X170060Y393250D02*
X168310Y395000D01*
X155000Y395000D01*
X155000Y400000D01*
X210000Y400000D01*
X210000Y393250D01*
X201200Y523500D02*
X199700Y525000D01*
X190000Y525000D01*
X195000Y530000D01*
X195000Y535000D01*
X195000Y530000D02*
X195000Y529700D01*
X201200Y523500D01*
X373600Y523500D02*
X373600Y533600D01*
X375000Y535000D01*
X385000Y525000D01*
X375100Y525000D01*
X373600Y523500D01*
X378340Y327990D02*
X378340Y321660D01*
X380000Y320000D01*
X385000Y320000D01*
X385000Y330000D01*
X382990Y327990D01*
X378340Y327990D01*
X420020Y319980D02*
X430410Y319980D01*
X420020Y319980D02*
X420000Y320000D01*
X420000Y315000D01*
X420000Y310000D01*
X425000Y310000D01*
X430000Y315000D01*
X425430Y315000D01*
X420000Y315000D01*
X425430Y315000D02*
X430410Y319980D01*
X142120Y321250D02*
X126250Y321250D01*
X125000Y320000D01*
X125000Y315000D01*
X155000Y315000D01*
X155000Y310000D01*
X125000Y310000D01*
X136250Y321250D01*
X142120Y321250D01*
X126880Y58910D02*
X106090Y58910D01*
X105000Y60000D01*
X105000Y58910D01*
X105000Y53500D02*
X105000Y50000D01*
X145750Y50000D01*
X145750Y53500D01*
X105000Y53500D01*
X105000Y58910D01*
X126880Y58910D01*
D26*
X310500Y291250D03*
X263000Y291500D03*
X280000Y441250D03*
X295000Y448500D03*
X280000Y423500D03*
X295000Y430750D03*
D27*
X351670Y386020D03*
D28*
X348200Y382550D01*
D29*
X334445Y382550D01*
D26*
X150000Y160000D03*
D21*
X129490Y160510D02*
X126880Y160510D01*
X130000Y160000D02*
X150000Y160000D01*
X130000Y160000D02*
X129490Y160510D01*
D27*
X351670Y373320D03*
D28*
X347900Y369550D01*
D29*
X334445Y369550D01*
D26*
X150000Y135000D03*
D21*
X129890Y135110D02*
X126880Y135110D01*
X130000Y135000D02*
X150000Y135000D01*
X130000Y135000D02*
X129890Y135110D01*
D20*
X126880Y109710D02*
X114790Y109710D01*
X58500Y166000D01*
X90190Y84310D02*
X126880Y84310D01*
X90190Y84310D02*
X58500Y116000D01*
D23*
X126880Y185910D02*
X302880Y185910D01*
X411895Y76895D02*
X429880Y58910D01*
X411895Y76895D02*
X410632Y78158D01*
X405395Y83395D02*
X399395Y89395D01*
X405395Y83395D02*
X410632Y78158D01*
X399395Y89395D02*
X391895Y96895D01*
X302880Y185910D01*
D28*
X448000Y392000D02*
X440010Y399990D01*
X433830Y399990D01*
X448000Y285797D02*
X410632Y248429D01*
X448000Y285797D02*
X448000Y392000D01*
X405395Y83395D02*
X405790Y83000D01*
X411895Y76895D02*
X414527Y76895D01*
D25*
X104000Y212000D03*
D20*
X104000Y196790D01*
X114880Y185910D02*
X126880Y185910D01*
X114880Y185910D02*
X104000Y196790D01*
D23*
X429880Y58910D02*
X446880Y58910D01*
D28*
X410632Y100000D02*
X410632Y248429D01*
X410632Y100000D02*
X410632Y78158D01*
X407527Y96895D02*
X410632Y100000D01*
X407527Y96895D02*
X391895Y96895D01*
X400027Y89395D02*
X407527Y96895D01*
X400027Y89395D02*
X399395Y89395D01*
X407527Y85527D02*
X407527Y96895D01*
X407527Y85527D02*
X405395Y83395D01*
X239355Y343550D02*
X239355Y350050D01*
X239255Y350150D01*
X229674Y350150D01*
X225554Y354270D01*
X239255Y343450D02*
X239355Y343550D01*
X239255Y343450D02*
X229674Y343450D01*
X225254Y339030D01*
X334445Y343550D02*
X334445Y350050D01*
X334545Y350150D01*
X344126Y350150D01*
X347330Y353355D01*
X422435Y353355D02*
X430410Y345380D01*
X422435Y353355D02*
X347330Y353355D01*
X427480Y342450D02*
X430410Y345380D01*
X427480Y342450D02*
X380880Y342450D01*
X378340Y344990D01*
X201420Y339030D02*
X199075Y341375D01*
X194190Y346260D01*
X210700Y339030D02*
X225254Y339030D01*
X210700Y339030D02*
X201420Y339030D01*
X334445Y343550D02*
X334545Y343450D01*
X194190Y346260D02*
X142510Y346260D01*
X142120Y346650D01*
X158630Y350460D02*
X162440Y354270D01*
X225554Y354270D01*
D30*
X210887Y284166D02*
X225063Y269990D01*
X348737Y269990D02*
X362069Y283322D01*
X210887Y338843D02*
X210700Y339030D01*
X210887Y338843D02*
X210887Y284166D01*
X362069Y283322D02*
X362069Y340061D01*
X245063Y269990D02*
X225063Y269990D01*
X245063Y269990D02*
X348737Y269990D01*
D28*
X386840Y366970D02*
X408820Y366970D01*
X430410Y345380D01*
X145930Y350460D02*
X142120Y346650D01*
X189990Y350460D02*
X194190Y346260D01*
X189990Y350460D02*
X158630Y350460D01*
X145930Y350460D01*
X194190Y346260D02*
X198080Y350150D01*
X229674Y350150D01*
X236645Y346260D02*
X194190Y346260D01*
X236645Y346260D02*
X239355Y343550D01*
X201250Y343550D01*
X199075Y341375D01*
X334445Y350050D02*
X425740Y350050D01*
X430410Y345380D01*
X376900Y343550D02*
X334445Y343550D01*
X376900Y343550D02*
X378340Y344990D01*
X380000Y345380D02*
X430410Y345380D01*
X380000Y345380D02*
X345000Y345380D01*
X339115Y345380D01*
X334445Y350050D01*
X149740Y354270D02*
X142120Y346650D01*
X149740Y354270D02*
X162440Y354270D01*
X344126Y350150D02*
X361260Y350150D01*
X358680Y343450D02*
X362069Y340061D01*
X358680Y343450D02*
X334545Y343450D01*
D23*
X126880Y236710D02*
X126650Y236480D01*
X211553Y236480D02*
X245063Y269990D01*
X211553Y236480D02*
X126650Y236480D01*
D31*
X64500Y263000D02*
X58500Y269000D01*
X64500Y263000D02*
X219000Y263000D01*
D23*
X225063Y269063D01*
X225063Y269990D01*
D32*
X134000Y287000D03*
X146500Y267000D03*
X159000Y287000D03*
X171500Y267000D03*
X184000Y287000D03*
X196500Y267000D03*
X209000Y287000D03*
D21*
X350319Y340061D02*
X362069Y340061D01*
X350319Y340061D02*
X345000Y345380D01*
X362069Y340061D02*
X374681Y340061D01*
X380000Y345380D01*
X141710Y236710D02*
X126880Y236710D01*
X141710Y236710D02*
X150000Y245000D01*
X118130Y245000D01*
X100000Y245000D01*
X118130Y245000D02*
X126650Y236480D01*
D26*
X217050Y363160D03*
D28*
X217069Y363158D01*
X217088Y363153D01*
X217105Y363145D01*
X217121Y363134D01*
X217134Y363121D01*
X217145Y363105D01*
X217153Y363088D01*
X217158Y363069D01*
X217160Y363050D01*
X239355Y363050D01*
D26*
X425000Y110000D03*
D21*
X446880Y110000D02*
X446880Y109710D01*
X446880Y110000D02*
X425000Y110000D01*
D28*
X235220Y431740D02*
X234830Y432130D01*
X234720Y432020D02*
X209430Y432020D01*
X234720Y432020D02*
X234830Y432130D01*
D33*
X255893Y331143D02*
X252050Y327300D01*
D34*
X246300Y523500D02*
X218200Y523500D01*
X246300Y523500D02*
X246500Y523300D01*
X249000Y520800D01*
X261330Y508470D01*
D33*
X254000Y407000D02*
X255893Y405107D01*
X255893Y331143D01*
D35*
X255893Y405107D02*
X255893Y432000D01*
X255893Y503033D01*
D30*
X261330Y508470D01*
D34*
X255763Y432130D02*
X234830Y432130D01*
X255763Y432130D02*
X255893Y432000D01*
X249000Y497000D02*
X249000Y520800D01*
X255893Y331143D02*
X256010Y331026D01*
X256010Y330550D01*
X261330Y523300D02*
X246500Y523300D01*
X261330Y523300D02*
X261330Y508470D01*
D21*
X239355Y330550D02*
X239355Y324050D01*
X242605Y327300D01*
X252050Y327300D01*
X248800Y324050D02*
X239355Y324050D01*
X248800Y324050D02*
X252050Y327300D01*
X255300Y330550D02*
X239355Y330550D01*
X255300Y330550D02*
X255893Y331143D01*
D28*
X339080Y432020D02*
X364370Y432020D01*
X339080Y432020D02*
X338970Y432130D01*
D33*
X317907Y331143D02*
X321750Y327300D01*
D34*
X356600Y523500D02*
X356030Y524070D01*
X326930Y524070D01*
X324430Y521570D01*
X311330Y508470D01*
D33*
X319000Y407000D02*
X317907Y405907D01*
X317907Y331143D01*
D35*
X317907Y405907D02*
X317907Y432000D01*
X317907Y501893D01*
D30*
X311330Y508470D01*
D34*
X338970Y432130D02*
X338840Y432000D01*
X317907Y432000D01*
X324430Y492430D02*
X324430Y521570D01*
X324430Y492430D02*
X324000Y492000D01*
X326930Y524070D02*
X311330Y524070D01*
X311330Y508470D01*
D21*
X334445Y330550D02*
X334445Y324050D01*
X331195Y327300D01*
X321750Y327300D01*
X325000Y324050D02*
X334445Y324050D01*
X325000Y324050D02*
X321750Y327300D01*
X318500Y330550D02*
X334445Y330550D01*
X318500Y330550D02*
X317907Y331143D01*
D28*
X360950Y366970D02*
X369840Y366970D01*
X360950Y366970D02*
X357006Y363026D01*
D29*
X356982Y363050D02*
X334445Y363050D01*
D28*
X356982Y363050D02*
X357006Y363026D01*
D26*
X217050Y384750D03*
D29*
X219250Y382550D02*
X239355Y382550D01*
D28*
X219250Y382550D02*
X217050Y384750D01*
D26*
X425000Y135000D03*
D21*
X446880Y135110D02*
X446880Y135000D01*
X425000Y135000D01*
D29*
X239355Y376050D02*
X196930Y376050D01*
D28*
X196730Y376250D01*
X170060Y376250D01*
D26*
X183000Y364000D03*
D28*
X184480Y364000D02*
X196730Y376250D01*
X184480Y364000D02*
X183000Y364000D01*
D26*
X425000Y160000D03*
D21*
X446880Y160000D02*
X446880Y160510D01*
X446880Y160000D02*
X425000Y160000D01*
D28*
X416830Y399990D02*
X395840Y399990D01*
X360840Y399990D02*
X345385Y399990D01*
D29*
X334445Y389050D01*
D28*
X364370Y467020D02*
X364370Y489280D01*
X209430Y489280D02*
X209430Y467020D01*
D26*
X236100Y505400D03*
X337700Y467300D03*
D28*
X236100Y505400D02*
X235100Y506400D01*
X209550Y506400D01*
X209430Y506280D01*
X338970Y466030D02*
X338970Y449130D01*
X338970Y466030D02*
X337700Y467300D01*
D26*
X236100Y467300D03*
X337700Y505400D03*
D28*
X236100Y467300D02*
X234830Y466030D01*
X234830Y449130D01*
X364250Y506400D02*
X364370Y506280D01*
X364250Y506400D02*
X338700Y506400D01*
X337700Y505400D01*
X466350Y276180D02*
X446880Y256710D01*
X446880Y236710D01*
X466350Y506660D02*
X464540Y508470D01*
X466350Y506660D02*
X466350Y276180D01*
X456880Y466130D02*
X414540Y508470D01*
X430156Y254727D02*
X430156Y218693D01*
X456880Y281451D02*
X456880Y466130D01*
X446880Y211310D02*
X437539Y211310D01*
X430156Y218693D01*
X430156Y254727D02*
X456880Y281451D01*
M02*
