M48
;GenerationSoftware,Autodesk,EAGLE,9.2.0*%
;CreationDate,2019-05-03T13:52:03Z*%
FMAT,2
ICI,OFF
METRIC,TZ,000.000
T8C0.350
T7C0.400
T6C0.450
T5C0.813
T4C1.000
T3C1.100
T2C2.000
T1C3.400
%
G90
M71
T1
X4000Y52000
X52000Y52000
X4000Y4000
T2
X37773Y2578
X37773Y7658
X37773Y5118
X35233Y7658
X35233Y2578
X35233Y5118
T3
X41454Y50847
X31133Y50847
X26133Y50847
X15802Y50847
X10802Y50847
X46454Y50847
X4850Y42400
X4850Y37400
X4850Y16600
X4850Y11600
T4
X13875Y12555
X18000Y17500
X13875Y15095
T5
X43041Y34538
X43041Y31998
X14212Y34665
X14212Y32125
T6
X33770Y50540
X50500Y12000
X28000Y44125
X29500Y44850
X28000Y42350
X29500Y43075
X23500Y14500
X23500Y12000
X21705Y36316
X50500Y9500
X21705Y38475
X18300Y36400
X50500Y14500
X23610Y50540
X33770Y46730
X23610Y46730
T7
X31500Y25500
X29500Y25500
X33500Y27500
X27500Y25500
X23000Y27500
X23000Y25500
X21000Y25500
X27500Y27500
X31500Y27500
X29500Y27500
T8
X35167Y37332
X35167Y38602
M30