G04 EAGLE Gerber RS-274X export*
G75*
%MOMM*%
%FSLAX34Y34*%
%LPD*%
%IN*%
%IPPOS*%
%AMOC8*
5,1,8,0,0,1.08239X$1,22.5*%
G01*
%ADD10C,0.254000*%


D10*
X0Y0D02*
X560000Y0D01*
X560000Y560000D01*
X0Y560000D01*
X0Y0D01*
X57000Y39443D02*
X56927Y38333D01*
X56782Y37229D01*
X56565Y36138D01*
X56277Y35063D01*
X55919Y34009D01*
X55493Y32980D01*
X55001Y31982D01*
X54444Y31018D01*
X53826Y30093D01*
X53148Y29210D01*
X52414Y28373D01*
X51627Y27586D01*
X50790Y26852D01*
X49907Y26174D01*
X48982Y25556D01*
X48018Y24999D01*
X47020Y24507D01*
X45991Y24081D01*
X44937Y23723D01*
X43862Y23435D01*
X42771Y23218D01*
X41667Y23073D01*
X40557Y23000D01*
X39443Y23000D01*
X38333Y23073D01*
X37229Y23218D01*
X36138Y23435D01*
X35063Y23723D01*
X34009Y24081D01*
X32980Y24507D01*
X31982Y24999D01*
X31018Y25556D01*
X30093Y26174D01*
X29210Y26852D01*
X28373Y27586D01*
X27586Y28373D01*
X26852Y29210D01*
X26174Y30093D01*
X25556Y31018D01*
X24999Y31982D01*
X24507Y32980D01*
X24081Y34009D01*
X23723Y35063D01*
X23435Y36138D01*
X23218Y37229D01*
X23073Y38333D01*
X23000Y39443D01*
X23000Y40557D01*
X23073Y41667D01*
X23218Y42771D01*
X23435Y43862D01*
X23723Y44937D01*
X24081Y45991D01*
X24507Y47020D01*
X24999Y48018D01*
X25556Y48982D01*
X26174Y49907D01*
X26852Y50790D01*
X27586Y51627D01*
X28373Y52414D01*
X29210Y53148D01*
X30093Y53826D01*
X31018Y54444D01*
X31982Y55001D01*
X32980Y55493D01*
X34009Y55919D01*
X35063Y56277D01*
X36138Y56565D01*
X37229Y56782D01*
X38333Y56927D01*
X39443Y57000D01*
X40557Y57000D01*
X41667Y56927D01*
X42771Y56782D01*
X43862Y56565D01*
X44937Y56277D01*
X45991Y55919D01*
X47020Y55493D01*
X48018Y55001D01*
X48982Y54444D01*
X49907Y53826D01*
X50790Y53148D01*
X51627Y52414D01*
X52414Y51627D01*
X53148Y50790D01*
X53826Y49907D01*
X54444Y48982D01*
X55001Y48018D01*
X55493Y47020D01*
X55919Y45991D01*
X56277Y44937D01*
X56565Y43862D01*
X56782Y42771D01*
X56927Y41667D01*
X57000Y40557D01*
X57000Y39443D01*
X537000Y519443D02*
X536927Y518333D01*
X536782Y517229D01*
X536565Y516138D01*
X536277Y515063D01*
X535919Y514009D01*
X535493Y512980D01*
X535001Y511982D01*
X534444Y511018D01*
X533826Y510093D01*
X533148Y509210D01*
X532414Y508373D01*
X531627Y507586D01*
X530790Y506852D01*
X529907Y506174D01*
X528982Y505556D01*
X528018Y504999D01*
X527020Y504507D01*
X525991Y504081D01*
X524937Y503723D01*
X523862Y503435D01*
X522771Y503218D01*
X521667Y503073D01*
X520557Y503000D01*
X519443Y503000D01*
X518333Y503073D01*
X517229Y503218D01*
X516138Y503435D01*
X515063Y503723D01*
X514009Y504081D01*
X512980Y504507D01*
X511982Y504999D01*
X511018Y505556D01*
X510093Y506174D01*
X509210Y506852D01*
X508373Y507586D01*
X507586Y508373D01*
X506852Y509210D01*
X506174Y510093D01*
X505556Y511018D01*
X504999Y511982D01*
X504507Y512980D01*
X504081Y514009D01*
X503723Y515063D01*
X503435Y516138D01*
X503218Y517229D01*
X503073Y518333D01*
X503000Y519443D01*
X503000Y520557D01*
X503073Y521667D01*
X503218Y522771D01*
X503435Y523862D01*
X503723Y524937D01*
X504081Y525991D01*
X504507Y527020D01*
X504999Y528018D01*
X505556Y528982D01*
X506174Y529907D01*
X506852Y530790D01*
X507586Y531627D01*
X508373Y532414D01*
X509210Y533148D01*
X510093Y533826D01*
X511018Y534444D01*
X511982Y535001D01*
X512980Y535493D01*
X514009Y535919D01*
X515063Y536277D01*
X516138Y536565D01*
X517229Y536782D01*
X518333Y536927D01*
X519443Y537000D01*
X520557Y537000D01*
X521667Y536927D01*
X522771Y536782D01*
X523862Y536565D01*
X524937Y536277D01*
X525991Y535919D01*
X527020Y535493D01*
X528018Y535001D01*
X528982Y534444D01*
X529907Y533826D01*
X530790Y533148D01*
X531627Y532414D01*
X532414Y531627D01*
X533148Y530790D01*
X533826Y529907D01*
X534444Y528982D01*
X535001Y528018D01*
X535493Y527020D01*
X535919Y525991D01*
X536277Y524937D01*
X536565Y523862D01*
X536782Y522771D01*
X536927Y521667D01*
X537000Y520557D01*
X537000Y519443D01*
X57000Y519443D02*
X56927Y518333D01*
X56782Y517229D01*
X56565Y516138D01*
X56277Y515063D01*
X55919Y514009D01*
X55493Y512980D01*
X55001Y511982D01*
X54444Y511018D01*
X53826Y510093D01*
X53148Y509210D01*
X52414Y508373D01*
X51627Y507586D01*
X50790Y506852D01*
X49907Y506174D01*
X48982Y505556D01*
X48018Y504999D01*
X47020Y504507D01*
X45991Y504081D01*
X44937Y503723D01*
X43862Y503435D01*
X42771Y503218D01*
X41667Y503073D01*
X40557Y503000D01*
X39443Y503000D01*
X38333Y503073D01*
X37229Y503218D01*
X36138Y503435D01*
X35063Y503723D01*
X34009Y504081D01*
X32980Y504507D01*
X31982Y504999D01*
X31018Y505556D01*
X30093Y506174D01*
X29210Y506852D01*
X28373Y507586D01*
X27586Y508373D01*
X26852Y509210D01*
X26174Y510093D01*
X25556Y511018D01*
X24999Y511982D01*
X24507Y512980D01*
X24081Y514009D01*
X23723Y515063D01*
X23435Y516138D01*
X23218Y517229D01*
X23073Y518333D01*
X23000Y519443D01*
X23000Y520557D01*
X23073Y521667D01*
X23218Y522771D01*
X23435Y523862D01*
X23723Y524937D01*
X24081Y525991D01*
X24507Y527020D01*
X24999Y528018D01*
X25556Y528982D01*
X26174Y529907D01*
X26852Y530790D01*
X27586Y531627D01*
X28373Y532414D01*
X29210Y533148D01*
X30093Y533826D01*
X31018Y534444D01*
X31982Y535001D01*
X32980Y535493D01*
X34009Y535919D01*
X35063Y536277D01*
X36138Y536565D01*
X37229Y536782D01*
X38333Y536927D01*
X39443Y537000D01*
X40557Y537000D01*
X41667Y536927D01*
X42771Y536782D01*
X43862Y536565D01*
X44937Y536277D01*
X45991Y535919D01*
X47020Y535493D01*
X48018Y535001D01*
X48982Y534444D01*
X49907Y533826D01*
X50790Y533148D01*
X51627Y532414D01*
X52414Y531627D01*
X53148Y530790D01*
X53826Y529907D01*
X54444Y528982D01*
X55001Y528018D01*
X55493Y527020D01*
X55919Y525991D01*
X56277Y524937D01*
X56565Y523862D01*
X56782Y522771D01*
X56927Y521667D01*
X57000Y520557D01*
X57000Y519443D01*
X362330Y76143D02*
X362254Y75274D01*
X362102Y74414D01*
X361876Y73570D01*
X361578Y72750D01*
X361209Y71958D01*
X360772Y71202D01*
X360271Y70487D01*
X359710Y69818D01*
X359092Y69200D01*
X358423Y68639D01*
X357708Y68138D01*
X356952Y67701D01*
X356160Y67332D01*
X355340Y67034D01*
X354496Y66808D01*
X353637Y66656D01*
X352767Y66580D01*
X351893Y66580D01*
X351024Y66656D01*
X350164Y66808D01*
X349320Y67034D01*
X348500Y67332D01*
X347708Y67701D01*
X346952Y68138D01*
X346237Y68639D01*
X345568Y69200D01*
X344950Y69818D01*
X344389Y70487D01*
X343888Y71202D01*
X343451Y71958D01*
X343082Y72750D01*
X342784Y73570D01*
X342558Y74414D01*
X342406Y75274D01*
X342330Y76143D01*
X342330Y77017D01*
X342406Y77887D01*
X342558Y78746D01*
X342784Y79590D01*
X343082Y80410D01*
X343451Y81202D01*
X343888Y81958D01*
X344389Y82673D01*
X344950Y83342D01*
X345568Y83960D01*
X346237Y84521D01*
X346952Y85022D01*
X347708Y85459D01*
X348500Y85828D01*
X349320Y86126D01*
X350164Y86352D01*
X351024Y86504D01*
X351893Y86580D01*
X352767Y86580D01*
X353637Y86504D01*
X354496Y86352D01*
X355340Y86126D01*
X356160Y85828D01*
X356952Y85459D01*
X357708Y85022D01*
X358423Y84521D01*
X359092Y83960D01*
X359710Y83342D01*
X360271Y82673D01*
X360772Y81958D01*
X361209Y81202D01*
X361578Y80410D01*
X361876Y79590D01*
X362102Y78746D01*
X362254Y77887D01*
X362330Y77017D01*
X362330Y76143D01*
X387730Y76143D02*
X387654Y75274D01*
X387502Y74414D01*
X387276Y73570D01*
X386978Y72750D01*
X386609Y71958D01*
X386172Y71202D01*
X385671Y70487D01*
X385110Y69818D01*
X384492Y69200D01*
X383823Y68639D01*
X383108Y68138D01*
X382352Y67701D01*
X381560Y67332D01*
X380740Y67034D01*
X379896Y66808D01*
X379037Y66656D01*
X378167Y66580D01*
X377293Y66580D01*
X376424Y66656D01*
X375564Y66808D01*
X374720Y67034D01*
X373900Y67332D01*
X373108Y67701D01*
X372352Y68138D01*
X371637Y68639D01*
X370968Y69200D01*
X370350Y69818D01*
X369789Y70487D01*
X369288Y71202D01*
X368851Y71958D01*
X368482Y72750D01*
X368184Y73570D01*
X367958Y74414D01*
X367806Y75274D01*
X367730Y76143D01*
X367730Y77017D01*
X367806Y77887D01*
X367958Y78746D01*
X368184Y79590D01*
X368482Y80410D01*
X368851Y81202D01*
X369288Y81958D01*
X369789Y82673D01*
X370350Y83342D01*
X370968Y83960D01*
X371637Y84521D01*
X372352Y85022D01*
X373108Y85459D01*
X373900Y85828D01*
X374720Y86126D01*
X375564Y86352D01*
X376424Y86504D01*
X377293Y86580D01*
X378167Y86580D01*
X379037Y86504D01*
X379896Y86352D01*
X380740Y86126D01*
X381560Y85828D01*
X382352Y85459D01*
X383108Y85022D01*
X383823Y84521D01*
X384492Y83960D01*
X385110Y83342D01*
X385671Y82673D01*
X386172Y81958D01*
X386609Y81202D01*
X386978Y80410D01*
X387276Y79590D01*
X387502Y78746D01*
X387654Y77887D01*
X387730Y77017D01*
X387730Y76143D01*
X387730Y50743D02*
X387654Y49874D01*
X387502Y49014D01*
X387276Y48170D01*
X386978Y47350D01*
X386609Y46558D01*
X386172Y45802D01*
X385671Y45087D01*
X385110Y44418D01*
X384492Y43800D01*
X383823Y43239D01*
X383108Y42738D01*
X382352Y42301D01*
X381560Y41932D01*
X380740Y41634D01*
X379896Y41408D01*
X379037Y41256D01*
X378167Y41180D01*
X377293Y41180D01*
X376424Y41256D01*
X375564Y41408D01*
X374720Y41634D01*
X373900Y41932D01*
X373108Y42301D01*
X372352Y42738D01*
X371637Y43239D01*
X370968Y43800D01*
X370350Y44418D01*
X369789Y45087D01*
X369288Y45802D01*
X368851Y46558D01*
X368482Y47350D01*
X368184Y48170D01*
X367958Y49014D01*
X367806Y49874D01*
X367730Y50743D01*
X367730Y51617D01*
X367806Y52487D01*
X367958Y53346D01*
X368184Y54190D01*
X368482Y55010D01*
X368851Y55802D01*
X369288Y56558D01*
X369789Y57273D01*
X370350Y57942D01*
X370968Y58560D01*
X371637Y59121D01*
X372352Y59622D01*
X373108Y60059D01*
X373900Y60428D01*
X374720Y60726D01*
X375564Y60952D01*
X376424Y61104D01*
X377293Y61180D01*
X378167Y61180D01*
X379037Y61104D01*
X379896Y60952D01*
X380740Y60726D01*
X381560Y60428D01*
X382352Y60059D01*
X383108Y59622D01*
X383823Y59121D01*
X384492Y58560D01*
X385110Y57942D01*
X385671Y57273D01*
X386172Y56558D01*
X386609Y55802D01*
X386978Y55010D01*
X387276Y54190D01*
X387502Y53346D01*
X387654Y52487D01*
X387730Y51617D01*
X387730Y50743D01*
X362330Y50743D02*
X362254Y49874D01*
X362102Y49014D01*
X361876Y48170D01*
X361578Y47350D01*
X361209Y46558D01*
X360772Y45802D01*
X360271Y45087D01*
X359710Y44418D01*
X359092Y43800D01*
X358423Y43239D01*
X357708Y42738D01*
X356952Y42301D01*
X356160Y41932D01*
X355340Y41634D01*
X354496Y41408D01*
X353637Y41256D01*
X352767Y41180D01*
X351893Y41180D01*
X351024Y41256D01*
X350164Y41408D01*
X349320Y41634D01*
X348500Y41932D01*
X347708Y42301D01*
X346952Y42738D01*
X346237Y43239D01*
X345568Y43800D01*
X344950Y44418D01*
X344389Y45087D01*
X343888Y45802D01*
X343451Y46558D01*
X343082Y47350D01*
X342784Y48170D01*
X342558Y49014D01*
X342406Y49874D01*
X342330Y50743D01*
X342330Y51617D01*
X342406Y52487D01*
X342558Y53346D01*
X342784Y54190D01*
X343082Y55010D01*
X343451Y55802D01*
X343888Y56558D01*
X344389Y57273D01*
X344950Y57942D01*
X345568Y58560D01*
X346237Y59121D01*
X346952Y59622D01*
X347708Y60059D01*
X348500Y60428D01*
X349320Y60726D01*
X350164Y60952D01*
X351024Y61104D01*
X351893Y61180D01*
X352767Y61180D01*
X353637Y61104D01*
X354496Y60952D01*
X355340Y60726D01*
X356160Y60428D01*
X356952Y60059D01*
X357708Y59622D01*
X358423Y59121D01*
X359092Y58560D01*
X359710Y57942D01*
X360271Y57273D01*
X360772Y56558D01*
X361209Y55802D01*
X361578Y55010D01*
X361876Y54190D01*
X362102Y53346D01*
X362254Y52487D01*
X362330Y51617D01*
X362330Y50743D01*
X362330Y25343D02*
X362254Y24474D01*
X362102Y23614D01*
X361876Y22770D01*
X361578Y21950D01*
X361209Y21158D01*
X360772Y20402D01*
X360271Y19687D01*
X359710Y19018D01*
X359092Y18400D01*
X358423Y17839D01*
X357708Y17338D01*
X356952Y16901D01*
X356160Y16532D01*
X355340Y16234D01*
X354496Y16008D01*
X353637Y15856D01*
X352767Y15780D01*
X351893Y15780D01*
X351024Y15856D01*
X350164Y16008D01*
X349320Y16234D01*
X348500Y16532D01*
X347708Y16901D01*
X346952Y17338D01*
X346237Y17839D01*
X345568Y18400D01*
X344950Y19018D01*
X344389Y19687D01*
X343888Y20402D01*
X343451Y21158D01*
X343082Y21950D01*
X342784Y22770D01*
X342558Y23614D01*
X342406Y24474D01*
X342330Y25343D01*
X342330Y26217D01*
X342406Y27087D01*
X342558Y27946D01*
X342784Y28790D01*
X343082Y29610D01*
X343451Y30402D01*
X343888Y31158D01*
X344389Y31873D01*
X344950Y32542D01*
X345568Y33160D01*
X346237Y33721D01*
X346952Y34222D01*
X347708Y34659D01*
X348500Y35028D01*
X349320Y35326D01*
X350164Y35552D01*
X351024Y35704D01*
X351893Y35780D01*
X352767Y35780D01*
X353637Y35704D01*
X354496Y35552D01*
X355340Y35326D01*
X356160Y35028D01*
X356952Y34659D01*
X357708Y34222D01*
X358423Y33721D01*
X359092Y33160D01*
X359710Y32542D01*
X360271Y31873D01*
X360772Y31158D01*
X361209Y30402D01*
X361578Y29610D01*
X361876Y28790D01*
X362102Y27946D01*
X362254Y27087D01*
X362330Y26217D01*
X362330Y25343D01*
X387730Y25343D02*
X387654Y24474D01*
X387502Y23614D01*
X387276Y22770D01*
X386978Y21950D01*
X386609Y21158D01*
X386172Y20402D01*
X385671Y19687D01*
X385110Y19018D01*
X384492Y18400D01*
X383823Y17839D01*
X383108Y17338D01*
X382352Y16901D01*
X381560Y16532D01*
X380740Y16234D01*
X379896Y16008D01*
X379037Y15856D01*
X378167Y15780D01*
X377293Y15780D01*
X376424Y15856D01*
X375564Y16008D01*
X374720Y16234D01*
X373900Y16532D01*
X373108Y16901D01*
X372352Y17338D01*
X371637Y17839D01*
X370968Y18400D01*
X370350Y19018D01*
X369789Y19687D01*
X369288Y20402D01*
X368851Y21158D01*
X368482Y21950D01*
X368184Y22770D01*
X367958Y23614D01*
X367806Y24474D01*
X367730Y25343D01*
X367730Y26217D01*
X367806Y27087D01*
X367958Y27946D01*
X368184Y28790D01*
X368482Y29610D01*
X368851Y30402D01*
X369288Y31158D01*
X369789Y31873D01*
X370350Y32542D01*
X370968Y33160D01*
X371637Y33721D01*
X372352Y34222D01*
X373108Y34659D01*
X373900Y35028D01*
X374720Y35326D01*
X375564Y35552D01*
X376424Y35704D01*
X377293Y35780D01*
X378167Y35780D01*
X379037Y35704D01*
X379896Y35552D01*
X380740Y35326D01*
X381560Y35028D01*
X382352Y34659D01*
X383108Y34222D01*
X383823Y33721D01*
X384492Y33160D01*
X385110Y32542D01*
X385671Y31873D01*
X386172Y31158D01*
X386609Y30402D01*
X386978Y29610D01*
X387276Y28790D01*
X387502Y27946D01*
X387654Y27087D01*
X387730Y26217D01*
X387730Y25343D01*
M02*
