G04 EAGLE Gerber RS-274X export*
G75*
%MOMM*%
%FSLAX34Y34*%
%LPD*%
%INSoldermask Top*%
%IPNEG*%
%AMOC8*
5,1,8,0,0,1.08239X$1,22.5*%
G01*
%ADD10C,3.603200*%
%ADD11C,2.203200*%
%ADD12R,1.203200X1.303200*%
%ADD13R,1.303200X1.203200*%
%ADD14C,1.803400*%
%ADD15P,1.951982X8X292.500000*%
%ADD16R,1.003200X0.803200*%
%ADD17R,1.703200X1.703200*%
%ADD18R,1.806000X0.678400*%
%ADD19R,4.648200X8.585200*%
%ADD20R,2.743200X1.473200*%
%ADD21C,1.853200*%
%ADD22R,1.803200X3.203200*%
%ADD23R,6.003200X6.403200*%
%ADD24C,1.711200*%
%ADD25C,1.059600*%
%ADD26C,0.959600*%
%ADD27C,1.703200*%
%ADD28C,1.009600*%


D10*
X40000Y40000D03*
X520000Y520000D03*
X40000Y520000D03*
D11*
X352330Y76580D03*
X377730Y76580D03*
X377730Y51180D03*
X352330Y51180D03*
X352330Y25780D03*
X377730Y25780D03*
D12*
X196730Y376250D03*
X196730Y393250D03*
X194190Y346260D03*
X194190Y329260D03*
D13*
X218200Y523500D03*
X201200Y523500D03*
D12*
X378340Y344990D03*
X378340Y327990D03*
D13*
X369840Y366970D03*
X386840Y366970D03*
X356600Y523500D03*
X373600Y523500D03*
D14*
X430410Y345380D03*
D15*
X430410Y319980D03*
D14*
X142120Y346650D03*
D15*
X142120Y321250D03*
D16*
X209430Y506280D03*
X209430Y489280D03*
X364370Y506280D03*
X364370Y489280D03*
D17*
X364370Y467020D03*
X364370Y432020D03*
X209430Y467020D03*
X209430Y432020D03*
X360840Y399990D03*
X395840Y399990D03*
D12*
X416830Y399990D03*
X433830Y399990D03*
D13*
X234830Y449130D03*
X234830Y432130D03*
X170060Y393250D03*
X170060Y376250D03*
X338970Y449130D03*
X338970Y432130D03*
D18*
X239355Y389050D03*
X239355Y382550D03*
X239355Y376050D03*
X239355Y369550D03*
X239355Y363050D03*
X239355Y356550D03*
X239355Y350050D03*
X239355Y343550D03*
X239355Y337050D03*
X239355Y330550D03*
X239355Y324050D03*
X239355Y317550D03*
X239355Y311050D03*
X239355Y304550D03*
X239355Y298050D03*
X239355Y291550D03*
X334445Y291550D03*
X334445Y298050D03*
X334445Y304550D03*
X334445Y311050D03*
X334445Y317550D03*
X334445Y324050D03*
X334445Y330550D03*
X334445Y337050D03*
X334445Y343550D03*
X334445Y350050D03*
X334445Y356550D03*
X334445Y363050D03*
X334445Y369550D03*
X334445Y376050D03*
X334445Y382550D03*
X334445Y389050D03*
D19*
X286900Y340300D03*
D20*
X210000Y44100D03*
X210000Y120300D03*
X210000Y145700D03*
X210000Y69500D03*
X210000Y94900D03*
X210000Y171100D03*
X210000Y196500D03*
X210000Y221900D03*
X530000Y44100D03*
X530000Y69500D03*
X530000Y94900D03*
X530000Y120300D03*
X530000Y145700D03*
X530000Y171100D03*
X530000Y196500D03*
X530000Y221900D03*
D21*
X311330Y500220D02*
X311330Y516720D01*
X261330Y516720D02*
X261330Y500220D01*
X158020Y500220D02*
X158020Y516720D01*
X108020Y516720D02*
X108020Y500220D01*
X464540Y500220D02*
X464540Y516720D01*
X414540Y516720D02*
X414540Y500220D01*
X56750Y424000D02*
X40250Y424000D01*
X40250Y374000D02*
X56750Y374000D01*
X56750Y166000D02*
X40250Y166000D01*
X40250Y116000D02*
X56750Y116000D01*
D22*
X95000Y305000D03*
X49300Y305000D03*
D23*
X72150Y233200D03*
D24*
X131210Y150950D02*
X146290Y150950D01*
X146290Y125550D02*
X131210Y125550D01*
D13*
X478000Y453500D03*
X478000Y436500D03*
X445000Y453500D03*
X445000Y436500D03*
D25*
X280000Y441250D03*
X295000Y448500D03*
X280000Y423500D03*
X295000Y430750D03*
D26*
X351670Y386020D03*
D25*
X235000Y145000D03*
D26*
X351670Y373320D03*
D25*
X235000Y120000D03*
D27*
X180000Y175000D03*
D25*
X217050Y363160D03*
X505000Y95000D03*
X217050Y384750D03*
X505000Y120000D03*
X183000Y364000D03*
X505000Y145000D03*
X236100Y505400D03*
X337700Y467300D03*
X236100Y467300D03*
X337700Y505400D03*
D28*
X210000Y255000D03*
X230000Y275000D03*
X230000Y255000D03*
X275000Y255000D03*
X295000Y255000D03*
X315000Y255000D03*
X295000Y275000D03*
X315000Y275000D03*
X335000Y275000D03*
X275000Y275000D03*
M02*
