M48
;GenerationSoftware,Autodesk,EAGLE,9.2.0*%
;CreationDate,2019-03-12T15:17:32Z*%
FMAT,2
ICI,OFF
METRIC,TZ,000.000
T8C0.350
T7C0.450
T6C0.600
T5C0.813
T4C1.000
T3C1.100
T2C2.000
T1C3.400
%
G90
M71
T1
X4000Y4000
X3900Y51500
X51000Y4000
X51900Y51500
T2
X29452Y4059
X26912Y4059
X26912Y6599
X29452Y6599
X29452Y9139
X26912Y9139
T3
X31133Y50847
X15802Y50847
X26133Y50847
X10802Y50847
X46454Y50847
X41454Y50847
X5850Y31900
X5850Y26900
X5850Y16600
X5850Y11600
T4
X28650Y16450
X25400Y16450
X21900Y16450
X23400Y20700
X26900Y20700
X30400Y20700
X10400Y21200
T5
X14212Y32125
X14212Y34665
X43041Y31998
X43041Y34538
T6
X14650Y26700
X15900Y28700
X17150Y26700
X18400Y28700
X20900Y28700
X19650Y26700
X13400Y28700
T7
X42500Y11000
X21705Y36316
X15000Y13500
X15000Y16000
X29500Y43075
X28000Y42350
X29500Y44850
X28000Y44125
X31050Y29125
X23610Y50540
X26300Y29150
X33770Y46730
X23610Y46730
X33770Y50540
X18300Y36400
X42500Y13500
X42500Y16000
X21705Y38475
T8
X35167Y37332
X35167Y38602
M30