G04 EAGLE Gerber RS-274X export*
G75*
%MOMM*%
%FSLAX34Y34*%
%LPD*%
%IN*%
%IPPOS*%
%AMOC8*
5,1,8,0,0,1.08239X$1,22.5*%
G01*
%ADD10C,0.254000*%


D10*
X0Y0D02*
X560000Y0D01*
X560000Y560000D01*
X0Y560000D01*
X0Y0D01*
X57000Y39443D02*
X56927Y38333D01*
X56782Y37229D01*
X56565Y36138D01*
X56277Y35063D01*
X55919Y34009D01*
X55493Y32980D01*
X55001Y31982D01*
X54444Y31018D01*
X53826Y30093D01*
X53148Y29210D01*
X52414Y28373D01*
X51627Y27586D01*
X50790Y26852D01*
X49907Y26174D01*
X48982Y25556D01*
X48018Y24999D01*
X47020Y24507D01*
X45991Y24081D01*
X44937Y23723D01*
X43862Y23435D01*
X42771Y23218D01*
X41667Y23073D01*
X40557Y23000D01*
X39443Y23000D01*
X38333Y23073D01*
X37229Y23218D01*
X36138Y23435D01*
X35063Y23723D01*
X34009Y24081D01*
X32980Y24507D01*
X31982Y24999D01*
X31018Y25556D01*
X30093Y26174D01*
X29210Y26852D01*
X28373Y27586D01*
X27586Y28373D01*
X26852Y29210D01*
X26174Y30093D01*
X25556Y31018D01*
X24999Y31982D01*
X24507Y32980D01*
X24081Y34009D01*
X23723Y35063D01*
X23435Y36138D01*
X23218Y37229D01*
X23073Y38333D01*
X23000Y39443D01*
X23000Y40557D01*
X23073Y41667D01*
X23218Y42771D01*
X23435Y43862D01*
X23723Y44937D01*
X24081Y45991D01*
X24507Y47020D01*
X24999Y48018D01*
X25556Y48982D01*
X26174Y49907D01*
X26852Y50790D01*
X27586Y51627D01*
X28373Y52414D01*
X29210Y53148D01*
X30093Y53826D01*
X31018Y54444D01*
X31982Y55001D01*
X32980Y55493D01*
X34009Y55919D01*
X35063Y56277D01*
X36138Y56565D01*
X37229Y56782D01*
X38333Y56927D01*
X39443Y57000D01*
X40557Y57000D01*
X41667Y56927D01*
X42771Y56782D01*
X43862Y56565D01*
X44937Y56277D01*
X45991Y55919D01*
X47020Y55493D01*
X48018Y55001D01*
X48982Y54444D01*
X49907Y53826D01*
X50790Y53148D01*
X51627Y52414D01*
X52414Y51627D01*
X53148Y50790D01*
X53826Y49907D01*
X54444Y48982D01*
X55001Y48018D01*
X55493Y47020D01*
X55919Y45991D01*
X56277Y44937D01*
X56565Y43862D01*
X56782Y42771D01*
X56927Y41667D01*
X57000Y40557D01*
X57000Y39443D01*
X527000Y39443D02*
X526927Y38333D01*
X526782Y37229D01*
X526565Y36138D01*
X526277Y35063D01*
X525919Y34009D01*
X525493Y32980D01*
X525001Y31982D01*
X524444Y31018D01*
X523826Y30093D01*
X523148Y29210D01*
X522414Y28373D01*
X521627Y27586D01*
X520790Y26852D01*
X519907Y26174D01*
X518982Y25556D01*
X518018Y24999D01*
X517020Y24507D01*
X515991Y24081D01*
X514937Y23723D01*
X513862Y23435D01*
X512771Y23218D01*
X511667Y23073D01*
X510557Y23000D01*
X509443Y23000D01*
X508333Y23073D01*
X507229Y23218D01*
X506138Y23435D01*
X505063Y23723D01*
X504009Y24081D01*
X502980Y24507D01*
X501982Y24999D01*
X501018Y25556D01*
X500093Y26174D01*
X499210Y26852D01*
X498373Y27586D01*
X497586Y28373D01*
X496852Y29210D01*
X496174Y30093D01*
X495556Y31018D01*
X494999Y31982D01*
X494507Y32980D01*
X494081Y34009D01*
X493723Y35063D01*
X493435Y36138D01*
X493218Y37229D01*
X493073Y38333D01*
X493000Y39443D01*
X493000Y40557D01*
X493073Y41667D01*
X493218Y42771D01*
X493435Y43862D01*
X493723Y44937D01*
X494081Y45991D01*
X494507Y47020D01*
X494999Y48018D01*
X495556Y48982D01*
X496174Y49907D01*
X496852Y50790D01*
X497586Y51627D01*
X498373Y52414D01*
X499210Y53148D01*
X500093Y53826D01*
X501018Y54444D01*
X501982Y55001D01*
X502980Y55493D01*
X504009Y55919D01*
X505063Y56277D01*
X506138Y56565D01*
X507229Y56782D01*
X508333Y56927D01*
X509443Y57000D01*
X510557Y57000D01*
X511667Y56927D01*
X512771Y56782D01*
X513862Y56565D01*
X514937Y56277D01*
X515991Y55919D01*
X517020Y55493D01*
X518018Y55001D01*
X518982Y54444D01*
X519907Y53826D01*
X520790Y53148D01*
X521627Y52414D01*
X522414Y51627D01*
X523148Y50790D01*
X523826Y49907D01*
X524444Y48982D01*
X525001Y48018D01*
X525493Y47020D01*
X525919Y45991D01*
X526277Y44937D01*
X526565Y43862D01*
X526782Y42771D01*
X526927Y41667D01*
X527000Y40557D01*
X527000Y39443D01*
X536000Y514443D02*
X535927Y513333D01*
X535782Y512229D01*
X535565Y511138D01*
X535277Y510063D01*
X534919Y509009D01*
X534493Y507980D01*
X534001Y506982D01*
X533444Y506018D01*
X532826Y505093D01*
X532148Y504210D01*
X531414Y503373D01*
X530627Y502586D01*
X529790Y501852D01*
X528907Y501174D01*
X527982Y500556D01*
X527018Y499999D01*
X526020Y499507D01*
X524991Y499081D01*
X523937Y498723D01*
X522862Y498435D01*
X521771Y498218D01*
X520667Y498073D01*
X519557Y498000D01*
X518443Y498000D01*
X517333Y498073D01*
X516229Y498218D01*
X515138Y498435D01*
X514063Y498723D01*
X513009Y499081D01*
X511980Y499507D01*
X510982Y499999D01*
X510018Y500556D01*
X509093Y501174D01*
X508210Y501852D01*
X507373Y502586D01*
X506586Y503373D01*
X505852Y504210D01*
X505174Y505093D01*
X504556Y506018D01*
X503999Y506982D01*
X503507Y507980D01*
X503081Y509009D01*
X502723Y510063D01*
X502435Y511138D01*
X502218Y512229D01*
X502073Y513333D01*
X502000Y514443D01*
X502000Y515557D01*
X502073Y516667D01*
X502218Y517771D01*
X502435Y518862D01*
X502723Y519937D01*
X503081Y520991D01*
X503507Y522020D01*
X503999Y523018D01*
X504556Y523982D01*
X505174Y524907D01*
X505852Y525790D01*
X506586Y526627D01*
X507373Y527414D01*
X508210Y528148D01*
X509093Y528826D01*
X510018Y529444D01*
X510982Y530001D01*
X511980Y530493D01*
X513009Y530919D01*
X514063Y531277D01*
X515138Y531565D01*
X516229Y531782D01*
X517333Y531927D01*
X518443Y532000D01*
X519557Y532000D01*
X520667Y531927D01*
X521771Y531782D01*
X522862Y531565D01*
X523937Y531277D01*
X524991Y530919D01*
X526020Y530493D01*
X527018Y530001D01*
X527982Y529444D01*
X528907Y528826D01*
X529790Y528148D01*
X530627Y527414D01*
X531414Y526627D01*
X532148Y525790D01*
X532826Y524907D01*
X533444Y523982D01*
X534001Y523018D01*
X534493Y522020D01*
X534919Y520991D01*
X535277Y519937D01*
X535565Y518862D01*
X535782Y517771D01*
X535927Y516667D01*
X536000Y515557D01*
X536000Y514443D01*
X56000Y514443D02*
X55927Y513333D01*
X55782Y512229D01*
X55565Y511138D01*
X55277Y510063D01*
X54919Y509009D01*
X54493Y507980D01*
X54001Y506982D01*
X53444Y506018D01*
X52826Y505093D01*
X52148Y504210D01*
X51414Y503373D01*
X50627Y502586D01*
X49790Y501852D01*
X48907Y501174D01*
X47982Y500556D01*
X47018Y499999D01*
X46020Y499507D01*
X44991Y499081D01*
X43937Y498723D01*
X42862Y498435D01*
X41771Y498218D01*
X40667Y498073D01*
X39557Y498000D01*
X38443Y498000D01*
X37333Y498073D01*
X36229Y498218D01*
X35138Y498435D01*
X34063Y498723D01*
X33009Y499081D01*
X31980Y499507D01*
X30982Y499999D01*
X30018Y500556D01*
X29093Y501174D01*
X28210Y501852D01*
X27373Y502586D01*
X26586Y503373D01*
X25852Y504210D01*
X25174Y505093D01*
X24556Y506018D01*
X23999Y506982D01*
X23507Y507980D01*
X23081Y509009D01*
X22723Y510063D01*
X22435Y511138D01*
X22218Y512229D01*
X22073Y513333D01*
X22000Y514443D01*
X22000Y515557D01*
X22073Y516667D01*
X22218Y517771D01*
X22435Y518862D01*
X22723Y519937D01*
X23081Y520991D01*
X23507Y522020D01*
X23999Y523018D01*
X24556Y523982D01*
X25174Y524907D01*
X25852Y525790D01*
X26586Y526627D01*
X27373Y527414D01*
X28210Y528148D01*
X29093Y528826D01*
X30018Y529444D01*
X30982Y530001D01*
X31980Y530493D01*
X33009Y530919D01*
X34063Y531277D01*
X35138Y531565D01*
X36229Y531782D01*
X37333Y531927D01*
X38443Y532000D01*
X39557Y532000D01*
X40667Y531927D01*
X41771Y531782D01*
X42862Y531565D01*
X43937Y531277D01*
X44991Y530919D01*
X46020Y530493D01*
X47018Y530001D01*
X47982Y529444D01*
X48907Y528826D01*
X49790Y528148D01*
X50627Y527414D01*
X51414Y526627D01*
X52148Y525790D01*
X52826Y524907D01*
X53444Y523982D01*
X54001Y523018D01*
X54493Y522020D01*
X54919Y520991D01*
X55277Y519937D01*
X55565Y518862D01*
X55782Y517771D01*
X55927Y516667D01*
X56000Y515557D01*
X56000Y514443D01*
X279120Y90953D02*
X279044Y90084D01*
X278892Y89224D01*
X278666Y88380D01*
X278368Y87560D01*
X277999Y86768D01*
X277562Y86012D01*
X277061Y85297D01*
X276500Y84628D01*
X275882Y84010D01*
X275213Y83449D01*
X274498Y82948D01*
X273742Y82511D01*
X272950Y82142D01*
X272130Y81844D01*
X271286Y81618D01*
X270427Y81466D01*
X269557Y81390D01*
X268683Y81390D01*
X267814Y81466D01*
X266954Y81618D01*
X266110Y81844D01*
X265290Y82142D01*
X264498Y82511D01*
X263742Y82948D01*
X263027Y83449D01*
X262358Y84010D01*
X261740Y84628D01*
X261179Y85297D01*
X260678Y86012D01*
X260241Y86768D01*
X259872Y87560D01*
X259574Y88380D01*
X259348Y89224D01*
X259196Y90084D01*
X259120Y90953D01*
X259120Y91827D01*
X259196Y92697D01*
X259348Y93556D01*
X259574Y94400D01*
X259872Y95220D01*
X260241Y96012D01*
X260678Y96768D01*
X261179Y97483D01*
X261740Y98152D01*
X262358Y98770D01*
X263027Y99331D01*
X263742Y99832D01*
X264498Y100269D01*
X265290Y100638D01*
X266110Y100936D01*
X266954Y101162D01*
X267814Y101314D01*
X268683Y101390D01*
X269557Y101390D01*
X270427Y101314D01*
X271286Y101162D01*
X272130Y100936D01*
X272950Y100638D01*
X273742Y100269D01*
X274498Y99832D01*
X275213Y99331D01*
X275882Y98770D01*
X276500Y98152D01*
X277061Y97483D01*
X277562Y96768D01*
X277999Y96012D01*
X278368Y95220D01*
X278666Y94400D01*
X278892Y93556D01*
X279044Y92697D01*
X279120Y91827D01*
X279120Y90953D01*
X304520Y90953D02*
X304444Y90084D01*
X304292Y89224D01*
X304066Y88380D01*
X303768Y87560D01*
X303399Y86768D01*
X302962Y86012D01*
X302461Y85297D01*
X301900Y84628D01*
X301282Y84010D01*
X300613Y83449D01*
X299898Y82948D01*
X299142Y82511D01*
X298350Y82142D01*
X297530Y81844D01*
X296686Y81618D01*
X295827Y81466D01*
X294957Y81390D01*
X294083Y81390D01*
X293214Y81466D01*
X292354Y81618D01*
X291510Y81844D01*
X290690Y82142D01*
X289898Y82511D01*
X289142Y82948D01*
X288427Y83449D01*
X287758Y84010D01*
X287140Y84628D01*
X286579Y85297D01*
X286078Y86012D01*
X285641Y86768D01*
X285272Y87560D01*
X284974Y88380D01*
X284748Y89224D01*
X284596Y90084D01*
X284520Y90953D01*
X284520Y91827D01*
X284596Y92697D01*
X284748Y93556D01*
X284974Y94400D01*
X285272Y95220D01*
X285641Y96012D01*
X286078Y96768D01*
X286579Y97483D01*
X287140Y98152D01*
X287758Y98770D01*
X288427Y99331D01*
X289142Y99832D01*
X289898Y100269D01*
X290690Y100638D01*
X291510Y100936D01*
X292354Y101162D01*
X293214Y101314D01*
X294083Y101390D01*
X294957Y101390D01*
X295827Y101314D01*
X296686Y101162D01*
X297530Y100936D01*
X298350Y100638D01*
X299142Y100269D01*
X299898Y99832D01*
X300613Y99331D01*
X301282Y98770D01*
X301900Y98152D01*
X302461Y97483D01*
X302962Y96768D01*
X303399Y96012D01*
X303768Y95220D01*
X304066Y94400D01*
X304292Y93556D01*
X304444Y92697D01*
X304520Y91827D01*
X304520Y90953D01*
X304520Y65553D02*
X304444Y64684D01*
X304292Y63824D01*
X304066Y62980D01*
X303768Y62160D01*
X303399Y61368D01*
X302962Y60612D01*
X302461Y59897D01*
X301900Y59228D01*
X301282Y58610D01*
X300613Y58049D01*
X299898Y57548D01*
X299142Y57111D01*
X298350Y56742D01*
X297530Y56444D01*
X296686Y56218D01*
X295827Y56066D01*
X294957Y55990D01*
X294083Y55990D01*
X293214Y56066D01*
X292354Y56218D01*
X291510Y56444D01*
X290690Y56742D01*
X289898Y57111D01*
X289142Y57548D01*
X288427Y58049D01*
X287758Y58610D01*
X287140Y59228D01*
X286579Y59897D01*
X286078Y60612D01*
X285641Y61368D01*
X285272Y62160D01*
X284974Y62980D01*
X284748Y63824D01*
X284596Y64684D01*
X284520Y65553D01*
X284520Y66427D01*
X284596Y67297D01*
X284748Y68156D01*
X284974Y69000D01*
X285272Y69820D01*
X285641Y70612D01*
X286078Y71368D01*
X286579Y72083D01*
X287140Y72752D01*
X287758Y73370D01*
X288427Y73931D01*
X289142Y74432D01*
X289898Y74869D01*
X290690Y75238D01*
X291510Y75536D01*
X292354Y75762D01*
X293214Y75914D01*
X294083Y75990D01*
X294957Y75990D01*
X295827Y75914D01*
X296686Y75762D01*
X297530Y75536D01*
X298350Y75238D01*
X299142Y74869D01*
X299898Y74432D01*
X300613Y73931D01*
X301282Y73370D01*
X301900Y72752D01*
X302461Y72083D01*
X302962Y71368D01*
X303399Y70612D01*
X303768Y69820D01*
X304066Y69000D01*
X304292Y68156D01*
X304444Y67297D01*
X304520Y66427D01*
X304520Y65553D01*
X279120Y65553D02*
X279044Y64684D01*
X278892Y63824D01*
X278666Y62980D01*
X278368Y62160D01*
X277999Y61368D01*
X277562Y60612D01*
X277061Y59897D01*
X276500Y59228D01*
X275882Y58610D01*
X275213Y58049D01*
X274498Y57548D01*
X273742Y57111D01*
X272950Y56742D01*
X272130Y56444D01*
X271286Y56218D01*
X270427Y56066D01*
X269557Y55990D01*
X268683Y55990D01*
X267814Y56066D01*
X266954Y56218D01*
X266110Y56444D01*
X265290Y56742D01*
X264498Y57111D01*
X263742Y57548D01*
X263027Y58049D01*
X262358Y58610D01*
X261740Y59228D01*
X261179Y59897D01*
X260678Y60612D01*
X260241Y61368D01*
X259872Y62160D01*
X259574Y62980D01*
X259348Y63824D01*
X259196Y64684D01*
X259120Y65553D01*
X259120Y66427D01*
X259196Y67297D01*
X259348Y68156D01*
X259574Y69000D01*
X259872Y69820D01*
X260241Y70612D01*
X260678Y71368D01*
X261179Y72083D01*
X261740Y72752D01*
X262358Y73370D01*
X263027Y73931D01*
X263742Y74432D01*
X264498Y74869D01*
X265290Y75238D01*
X266110Y75536D01*
X266954Y75762D01*
X267814Y75914D01*
X268683Y75990D01*
X269557Y75990D01*
X270427Y75914D01*
X271286Y75762D01*
X272130Y75536D01*
X272950Y75238D01*
X273742Y74869D01*
X274498Y74432D01*
X275213Y73931D01*
X275882Y73370D01*
X276500Y72752D01*
X277061Y72083D01*
X277562Y71368D01*
X277999Y70612D01*
X278368Y69820D01*
X278666Y69000D01*
X278892Y68156D01*
X279044Y67297D01*
X279120Y66427D01*
X279120Y65553D01*
X279120Y40153D02*
X279044Y39284D01*
X278892Y38424D01*
X278666Y37580D01*
X278368Y36760D01*
X277999Y35968D01*
X277562Y35212D01*
X277061Y34497D01*
X276500Y33828D01*
X275882Y33210D01*
X275213Y32649D01*
X274498Y32148D01*
X273742Y31711D01*
X272950Y31342D01*
X272130Y31044D01*
X271286Y30818D01*
X270427Y30666D01*
X269557Y30590D01*
X268683Y30590D01*
X267814Y30666D01*
X266954Y30818D01*
X266110Y31044D01*
X265290Y31342D01*
X264498Y31711D01*
X263742Y32148D01*
X263027Y32649D01*
X262358Y33210D01*
X261740Y33828D01*
X261179Y34497D01*
X260678Y35212D01*
X260241Y35968D01*
X259872Y36760D01*
X259574Y37580D01*
X259348Y38424D01*
X259196Y39284D01*
X259120Y40153D01*
X259120Y41027D01*
X259196Y41897D01*
X259348Y42756D01*
X259574Y43600D01*
X259872Y44420D01*
X260241Y45212D01*
X260678Y45968D01*
X261179Y46683D01*
X261740Y47352D01*
X262358Y47970D01*
X263027Y48531D01*
X263742Y49032D01*
X264498Y49469D01*
X265290Y49838D01*
X266110Y50136D01*
X266954Y50362D01*
X267814Y50514D01*
X268683Y50590D01*
X269557Y50590D01*
X270427Y50514D01*
X271286Y50362D01*
X272130Y50136D01*
X272950Y49838D01*
X273742Y49469D01*
X274498Y49032D01*
X275213Y48531D01*
X275882Y47970D01*
X276500Y47352D01*
X277061Y46683D01*
X277562Y45968D01*
X277999Y45212D01*
X278368Y44420D01*
X278666Y43600D01*
X278892Y42756D01*
X279044Y41897D01*
X279120Y41027D01*
X279120Y40153D01*
X304520Y40153D02*
X304444Y39284D01*
X304292Y38424D01*
X304066Y37580D01*
X303768Y36760D01*
X303399Y35968D01*
X302962Y35212D01*
X302461Y34497D01*
X301900Y33828D01*
X301282Y33210D01*
X300613Y32649D01*
X299898Y32148D01*
X299142Y31711D01*
X298350Y31342D01*
X297530Y31044D01*
X296686Y30818D01*
X295827Y30666D01*
X294957Y30590D01*
X294083Y30590D01*
X293214Y30666D01*
X292354Y30818D01*
X291510Y31044D01*
X290690Y31342D01*
X289898Y31711D01*
X289142Y32148D01*
X288427Y32649D01*
X287758Y33210D01*
X287140Y33828D01*
X286579Y34497D01*
X286078Y35212D01*
X285641Y35968D01*
X285272Y36760D01*
X284974Y37580D01*
X284748Y38424D01*
X284596Y39284D01*
X284520Y40153D01*
X284520Y41027D01*
X284596Y41897D01*
X284748Y42756D01*
X284974Y43600D01*
X285272Y44420D01*
X285641Y45212D01*
X286078Y45968D01*
X286579Y46683D01*
X287140Y47352D01*
X287758Y47970D01*
X288427Y48531D01*
X289142Y49032D01*
X289898Y49469D01*
X290690Y49838D01*
X291510Y50136D01*
X292354Y50362D01*
X293214Y50514D01*
X294083Y50590D01*
X294957Y50590D01*
X295827Y50514D01*
X296686Y50362D01*
X297530Y50136D01*
X298350Y49838D01*
X299142Y49469D01*
X299898Y49032D01*
X300613Y48531D01*
X301282Y47970D01*
X301900Y47352D01*
X302461Y46683D01*
X302962Y45968D01*
X303399Y45212D01*
X303768Y44420D01*
X304066Y43600D01*
X304292Y42756D01*
X304444Y41897D01*
X304520Y41027D01*
X304520Y40153D01*
M02*
