G04 EAGLE Gerber RS-274X export*
G75*
%MOMM*%
%FSLAX34Y34*%
%LPD*%
%INBottom Copper*%
%IPPOS*%
%AMOC8*
5,1,8,0,0,1.08239X$1,22.5*%
G01*
%ADD10C,1.600200*%
%ADD11P,1.732040X8X292.500000*%
%ADD12C,1.650000*%
%ADD13C,1.500000*%
%ADD14C,0.856400*%
%ADD15C,0.756400*%
%ADD16C,0.508000*%
%ADD17C,1.270000*%
%ADD18C,1.006400*%
%ADD19C,0.500000*%

G36*
X489402Y10176D02*
X489402Y10176D01*
X489639Y10183D01*
X489720Y10196D01*
X489802Y10201D01*
X490034Y10245D01*
X490268Y10282D01*
X490347Y10305D01*
X490428Y10320D01*
X490653Y10393D01*
X490880Y10459D01*
X490955Y10491D01*
X491034Y10517D01*
X491248Y10617D01*
X491465Y10711D01*
X491536Y10753D01*
X491610Y10788D01*
X491810Y10914D01*
X492014Y11035D01*
X492079Y11085D01*
X492148Y11129D01*
X492331Y11280D01*
X492518Y11424D01*
X492576Y11482D01*
X492640Y11534D01*
X492802Y11707D01*
X492970Y11874D01*
X493020Y11939D01*
X493076Y11998D01*
X493215Y12190D01*
X493361Y12377D01*
X493403Y12447D01*
X493451Y12513D01*
X493565Y12721D01*
X493687Y12924D01*
X493719Y13000D01*
X493759Y13071D01*
X493846Y13291D01*
X493941Y13509D01*
X493964Y13587D01*
X493994Y13664D01*
X494053Y13893D01*
X494120Y14120D01*
X494133Y14201D01*
X494154Y14280D01*
X494184Y14515D01*
X494221Y14749D01*
X494224Y14831D01*
X494234Y14912D01*
X494235Y15149D01*
X494243Y15386D01*
X494235Y15467D01*
X494236Y15550D01*
X494206Y15785D01*
X494185Y16020D01*
X494167Y16100D01*
X494157Y16182D01*
X494099Y16411D01*
X494048Y16642D01*
X494020Y16720D01*
X494000Y16799D01*
X493913Y17020D01*
X493834Y17243D01*
X493797Y17316D01*
X493767Y17392D01*
X493653Y17600D01*
X493546Y17811D01*
X493500Y17879D01*
X493461Y17951D01*
X493322Y18143D01*
X493190Y18339D01*
X493137Y18400D01*
X493088Y18468D01*
X492910Y18658D01*
X492757Y18832D01*
X488266Y23323D01*
X484690Y29516D01*
X482839Y36424D01*
X482839Y43576D01*
X484690Y50484D01*
X488266Y56677D01*
X493323Y61734D01*
X499516Y65310D01*
X506424Y67161D01*
X513576Y67161D01*
X520484Y65310D01*
X526677Y61734D01*
X531734Y56677D01*
X535310Y50484D01*
X537161Y43576D01*
X537161Y36424D01*
X535310Y29516D01*
X531734Y23323D01*
X527243Y18832D01*
X527086Y18654D01*
X526924Y18482D01*
X526875Y18415D01*
X526821Y18354D01*
X526688Y18158D01*
X526549Y17966D01*
X526509Y17895D01*
X526463Y17827D01*
X526355Y17616D01*
X526241Y17409D01*
X526211Y17332D01*
X526174Y17259D01*
X526093Y17037D01*
X526006Y16816D01*
X525985Y16737D01*
X525957Y16660D01*
X525906Y16429D01*
X525846Y16200D01*
X525836Y16118D01*
X525818Y16038D01*
X525796Y15803D01*
X525766Y15568D01*
X525765Y15485D01*
X525758Y15404D01*
X525765Y15168D01*
X525764Y14930D01*
X525775Y14849D01*
X525777Y14767D01*
X525814Y14533D01*
X525843Y14298D01*
X525863Y14219D01*
X525876Y14138D01*
X525942Y13910D01*
X526000Y13681D01*
X526030Y13605D01*
X526053Y13526D01*
X526147Y13308D01*
X526233Y13088D01*
X526273Y13016D01*
X526305Y12941D01*
X526425Y12737D01*
X526539Y12529D01*
X526587Y12462D01*
X526629Y12392D01*
X526773Y12204D01*
X526912Y12012D01*
X526968Y11952D01*
X527018Y11888D01*
X527186Y11720D01*
X527347Y11547D01*
X527410Y11494D01*
X527468Y11436D01*
X527655Y11291D01*
X527837Y11139D01*
X527906Y11095D01*
X527971Y11045D01*
X528174Y10924D01*
X528374Y10796D01*
X528448Y10761D01*
X528519Y10719D01*
X528735Y10625D01*
X528950Y10523D01*
X529028Y10498D01*
X529103Y10465D01*
X529330Y10398D01*
X529555Y10324D01*
X529635Y10309D01*
X529714Y10286D01*
X529948Y10248D01*
X530180Y10203D01*
X530261Y10198D01*
X530343Y10185D01*
X530603Y10176D01*
X530834Y10161D01*
X544760Y10161D01*
X544915Y10170D01*
X545070Y10170D01*
X545232Y10190D01*
X545396Y10201D01*
X545548Y10230D01*
X545702Y10249D01*
X545861Y10289D01*
X546022Y10320D01*
X546169Y10368D01*
X546319Y10406D01*
X546472Y10466D01*
X546628Y10517D01*
X546768Y10582D01*
X546912Y10639D01*
X547056Y10718D01*
X547204Y10788D01*
X547335Y10870D01*
X547471Y10945D01*
X547604Y11041D01*
X547743Y11129D01*
X547862Y11227D01*
X547988Y11318D01*
X548107Y11430D01*
X548234Y11534D01*
X548340Y11647D01*
X548453Y11753D01*
X548558Y11879D01*
X548670Y11998D01*
X548762Y12124D01*
X548861Y12243D01*
X548949Y12381D01*
X549045Y12513D01*
X549120Y12649D01*
X549204Y12780D01*
X549274Y12928D01*
X549353Y13071D01*
X549410Y13215D01*
X549477Y13355D01*
X549528Y13511D01*
X549588Y13664D01*
X549627Y13814D01*
X549676Y13961D01*
X549707Y14122D01*
X549748Y14280D01*
X549767Y14434D01*
X549797Y14586D01*
X549807Y14745D01*
X549829Y14912D01*
X549829Y15081D01*
X549839Y15240D01*
X549839Y495166D01*
X549824Y495402D01*
X549817Y495639D01*
X549804Y495720D01*
X549799Y495802D01*
X549755Y496034D01*
X549718Y496268D01*
X549695Y496347D01*
X549680Y496428D01*
X549607Y496653D01*
X549541Y496880D01*
X549509Y496955D01*
X549483Y497034D01*
X549383Y497248D01*
X549289Y497465D01*
X549247Y497536D01*
X549212Y497610D01*
X549086Y497810D01*
X548965Y498014D01*
X548915Y498079D01*
X548871Y498148D01*
X548720Y498331D01*
X548576Y498518D01*
X548518Y498576D01*
X548466Y498640D01*
X548293Y498802D01*
X548126Y498970D01*
X548061Y499020D01*
X548002Y499076D01*
X547810Y499215D01*
X547623Y499361D01*
X547553Y499403D01*
X547487Y499451D01*
X547279Y499565D01*
X547076Y499687D01*
X547000Y499719D01*
X546929Y499759D01*
X546709Y499846D01*
X546491Y499941D01*
X546413Y499964D01*
X546336Y499994D01*
X546107Y500053D01*
X545880Y500120D01*
X545799Y500133D01*
X545720Y500154D01*
X545485Y500184D01*
X545251Y500221D01*
X545169Y500224D01*
X545088Y500234D01*
X544851Y500235D01*
X544614Y500243D01*
X544533Y500235D01*
X544450Y500236D01*
X544215Y500206D01*
X543980Y500185D01*
X543900Y500167D01*
X543818Y500157D01*
X543589Y500099D01*
X543358Y500048D01*
X543280Y500020D01*
X543201Y500000D01*
X542980Y499913D01*
X542757Y499834D01*
X542684Y499797D01*
X542608Y499767D01*
X542400Y499653D01*
X542189Y499546D01*
X542121Y499500D01*
X542049Y499461D01*
X541857Y499322D01*
X541661Y499190D01*
X541600Y499137D01*
X541532Y499088D01*
X541342Y498910D01*
X541168Y498757D01*
X535677Y493266D01*
X529484Y489690D01*
X522576Y487839D01*
X515424Y487839D01*
X508516Y489690D01*
X502323Y493266D01*
X497266Y498323D01*
X493690Y504516D01*
X491839Y511424D01*
X491839Y518576D01*
X493690Y525484D01*
X497266Y531677D01*
X502323Y536734D01*
X508606Y540361D01*
X508825Y540507D01*
X509048Y540649D01*
X509091Y540684D01*
X509136Y540714D01*
X509336Y540886D01*
X509540Y541054D01*
X509577Y541094D01*
X509619Y541130D01*
X509795Y541326D01*
X509976Y541518D01*
X510008Y541563D01*
X510045Y541603D01*
X510196Y541820D01*
X510351Y542034D01*
X510378Y542081D01*
X510409Y542126D01*
X510532Y542361D01*
X510659Y542591D01*
X510679Y542642D01*
X510705Y542691D01*
X510797Y542938D01*
X510894Y543184D01*
X510908Y543237D01*
X510927Y543288D01*
X510988Y543545D01*
X511054Y543800D01*
X511061Y543855D01*
X511073Y543908D01*
X511101Y544171D01*
X511135Y544432D01*
X511135Y544487D01*
X511140Y544542D01*
X511135Y544805D01*
X511136Y545070D01*
X511129Y545124D01*
X511128Y545179D01*
X511090Y545439D01*
X511057Y545702D01*
X511044Y545755D01*
X511036Y545809D01*
X510965Y546063D01*
X510900Y546319D01*
X510880Y546370D01*
X510865Y546423D01*
X510764Y546666D01*
X510667Y546912D01*
X510640Y546960D01*
X510619Y547011D01*
X510488Y547239D01*
X510361Y547471D01*
X510329Y547516D01*
X510302Y547563D01*
X510143Y547773D01*
X509988Y547988D01*
X509951Y548028D01*
X509918Y548071D01*
X509733Y548260D01*
X509553Y548453D01*
X509511Y548488D01*
X509473Y548527D01*
X509266Y548692D01*
X509063Y548861D01*
X509017Y548890D01*
X508974Y548924D01*
X508748Y549062D01*
X508526Y549204D01*
X508477Y549227D01*
X508430Y549256D01*
X508189Y549363D01*
X507951Y549477D01*
X507898Y549494D01*
X507849Y549516D01*
X507596Y549593D01*
X507345Y549676D01*
X507292Y549686D01*
X507239Y549702D01*
X506979Y549747D01*
X506720Y549797D01*
X506666Y549800D01*
X506611Y549810D01*
X506314Y549823D01*
X506066Y549839D01*
X51934Y549839D01*
X51671Y549823D01*
X51407Y549812D01*
X51353Y549803D01*
X51298Y549799D01*
X51039Y549750D01*
X50778Y549706D01*
X50726Y549690D01*
X50672Y549680D01*
X50421Y549598D01*
X50168Y549522D01*
X50118Y549500D01*
X50066Y549483D01*
X49827Y549371D01*
X49586Y549264D01*
X49539Y549236D01*
X49490Y549212D01*
X49267Y549071D01*
X49041Y548935D01*
X48998Y548901D01*
X48952Y548871D01*
X48748Y548703D01*
X48541Y548539D01*
X48502Y548500D01*
X48460Y548466D01*
X48279Y548273D01*
X48094Y548085D01*
X48061Y548041D01*
X48024Y548002D01*
X47868Y547788D01*
X47708Y547578D01*
X47681Y547531D01*
X47649Y547487D01*
X47521Y547255D01*
X47389Y547027D01*
X47367Y546976D01*
X47341Y546929D01*
X47243Y546683D01*
X47141Y546440D01*
X47126Y546387D01*
X47106Y546336D01*
X47040Y546081D01*
X46968Y545827D01*
X46960Y545772D01*
X46946Y545720D01*
X46913Y545458D01*
X46874Y545197D01*
X46872Y545142D01*
X46865Y545088D01*
X46865Y544822D01*
X46859Y544560D01*
X46864Y544505D01*
X46864Y544450D01*
X46897Y544188D01*
X46924Y543926D01*
X46936Y543873D01*
X46943Y543818D01*
X47008Y543562D01*
X47068Y543305D01*
X47087Y543254D01*
X47100Y543201D01*
X47197Y542955D01*
X47288Y542707D01*
X47313Y542659D01*
X47333Y542608D01*
X47460Y542376D01*
X47582Y542142D01*
X47613Y542097D01*
X47639Y542049D01*
X47794Y541835D01*
X47944Y541618D01*
X47980Y541577D01*
X48012Y541532D01*
X48193Y541339D01*
X48368Y541143D01*
X48410Y541107D01*
X48447Y541067D01*
X48650Y540898D01*
X48849Y540725D01*
X48894Y540695D01*
X48937Y540659D01*
X49188Y540499D01*
X49394Y540361D01*
X55677Y536734D01*
X60734Y531677D01*
X64310Y525484D01*
X66161Y518576D01*
X66161Y511424D01*
X64310Y504516D01*
X60734Y498323D01*
X55677Y493266D01*
X49484Y489690D01*
X42576Y487839D01*
X35424Y487839D01*
X28516Y489690D01*
X22323Y493266D01*
X18832Y496757D01*
X18654Y496914D01*
X18482Y497076D01*
X18415Y497125D01*
X18354Y497179D01*
X18158Y497312D01*
X17966Y497451D01*
X17895Y497491D01*
X17827Y497537D01*
X17616Y497645D01*
X17409Y497759D01*
X17332Y497789D01*
X17259Y497826D01*
X17037Y497907D01*
X16816Y497994D01*
X16737Y498015D01*
X16660Y498043D01*
X16429Y498094D01*
X16200Y498154D01*
X16118Y498164D01*
X16038Y498182D01*
X15803Y498204D01*
X15568Y498234D01*
X15485Y498235D01*
X15404Y498242D01*
X15168Y498235D01*
X14930Y498236D01*
X14849Y498225D01*
X14767Y498223D01*
X14533Y498186D01*
X14298Y498157D01*
X14219Y498137D01*
X14138Y498124D01*
X13910Y498058D01*
X13681Y498000D01*
X13604Y497970D01*
X13526Y497947D01*
X13308Y497853D01*
X13088Y497767D01*
X13016Y497727D01*
X12941Y497695D01*
X12737Y497575D01*
X12529Y497461D01*
X12462Y497413D01*
X12392Y497371D01*
X12204Y497227D01*
X12012Y497088D01*
X11952Y497032D01*
X11888Y496982D01*
X11720Y496814D01*
X11547Y496653D01*
X11494Y496590D01*
X11436Y496532D01*
X11291Y496345D01*
X11139Y496163D01*
X11095Y496094D01*
X11045Y496029D01*
X10924Y495826D01*
X10796Y495626D01*
X10761Y495552D01*
X10719Y495481D01*
X10625Y495265D01*
X10523Y495050D01*
X10498Y494972D01*
X10465Y494897D01*
X10398Y494670D01*
X10324Y494445D01*
X10309Y494365D01*
X10286Y494286D01*
X10248Y494052D01*
X10203Y493820D01*
X10198Y493739D01*
X10185Y493657D01*
X10176Y493397D01*
X10161Y493166D01*
X10161Y60834D01*
X10170Y60683D01*
X10170Y60644D01*
X10175Y60602D01*
X10176Y60597D01*
X10183Y60361D01*
X10196Y60280D01*
X10201Y60198D01*
X10245Y59966D01*
X10282Y59732D01*
X10305Y59653D01*
X10320Y59572D01*
X10393Y59347D01*
X10459Y59120D01*
X10491Y59045D01*
X10517Y58966D01*
X10617Y58752D01*
X10711Y58535D01*
X10753Y58464D01*
X10788Y58390D01*
X10914Y58190D01*
X11035Y57986D01*
X11085Y57921D01*
X11129Y57852D01*
X11280Y57669D01*
X11424Y57482D01*
X11482Y57424D01*
X11534Y57360D01*
X11707Y57198D01*
X11874Y57030D01*
X11939Y56980D01*
X11998Y56924D01*
X12190Y56785D01*
X12377Y56639D01*
X12447Y56597D01*
X12513Y56549D01*
X12721Y56435D01*
X12924Y56313D01*
X13000Y56281D01*
X13071Y56241D01*
X13291Y56154D01*
X13509Y56059D01*
X13587Y56036D01*
X13664Y56006D01*
X13893Y55947D01*
X14120Y55880D01*
X14201Y55867D01*
X14280Y55846D01*
X14515Y55816D01*
X14749Y55779D01*
X14831Y55776D01*
X14912Y55766D01*
X15149Y55765D01*
X15386Y55757D01*
X15467Y55765D01*
X15550Y55764D01*
X15785Y55794D01*
X16020Y55815D01*
X16100Y55833D01*
X16182Y55843D01*
X16411Y55901D01*
X16642Y55952D01*
X16720Y55980D01*
X16799Y56000D01*
X17020Y56087D01*
X17243Y56166D01*
X17316Y56203D01*
X17392Y56233D01*
X17600Y56347D01*
X17811Y56454D01*
X17879Y56500D01*
X17951Y56539D01*
X18143Y56678D01*
X18339Y56810D01*
X18400Y56863D01*
X18468Y56912D01*
X18658Y57090D01*
X18832Y57243D01*
X23323Y61734D01*
X29516Y65310D01*
X36424Y67161D01*
X43576Y67161D01*
X50484Y65310D01*
X56677Y61734D01*
X61734Y56677D01*
X65310Y50484D01*
X67161Y43576D01*
X67161Y36424D01*
X65310Y29516D01*
X61734Y23323D01*
X57243Y18832D01*
X57086Y18654D01*
X56924Y18482D01*
X56875Y18415D01*
X56821Y18354D01*
X56688Y18158D01*
X56549Y17966D01*
X56509Y17895D01*
X56463Y17827D01*
X56355Y17616D01*
X56241Y17409D01*
X56211Y17332D01*
X56174Y17259D01*
X56093Y17037D01*
X56006Y16816D01*
X55985Y16737D01*
X55957Y16660D01*
X55906Y16429D01*
X55846Y16200D01*
X55836Y16118D01*
X55818Y16038D01*
X55796Y15803D01*
X55766Y15568D01*
X55765Y15485D01*
X55758Y15404D01*
X55765Y15168D01*
X55764Y14930D01*
X55775Y14849D01*
X55777Y14767D01*
X55814Y14533D01*
X55843Y14298D01*
X55863Y14219D01*
X55876Y14138D01*
X55942Y13910D01*
X56000Y13681D01*
X56030Y13605D01*
X56053Y13526D01*
X56147Y13308D01*
X56233Y13088D01*
X56273Y13016D01*
X56305Y12941D01*
X56425Y12737D01*
X56539Y12529D01*
X56587Y12462D01*
X56629Y12392D01*
X56773Y12204D01*
X56912Y12012D01*
X56968Y11952D01*
X57018Y11888D01*
X57186Y11720D01*
X57347Y11547D01*
X57410Y11494D01*
X57468Y11436D01*
X57655Y11291D01*
X57837Y11139D01*
X57906Y11095D01*
X57971Y11045D01*
X58174Y10924D01*
X58374Y10796D01*
X58448Y10761D01*
X58519Y10719D01*
X58735Y10625D01*
X58950Y10523D01*
X59028Y10498D01*
X59103Y10465D01*
X59330Y10398D01*
X59555Y10324D01*
X59635Y10309D01*
X59714Y10286D01*
X59948Y10248D01*
X60180Y10203D01*
X60261Y10198D01*
X60343Y10185D01*
X60603Y10176D01*
X60834Y10161D01*
X489166Y10161D01*
X489402Y10176D01*
G37*
%LPC*%
G36*
X423845Y104193D02*
X423845Y104193D01*
X421711Y105077D01*
X420077Y106711D01*
X419997Y106905D01*
X419983Y106934D01*
X419972Y106964D01*
X419844Y107218D01*
X419717Y107477D01*
X419699Y107504D01*
X419685Y107532D01*
X419525Y107769D01*
X419367Y108010D01*
X419346Y108034D01*
X419328Y108060D01*
X419163Y108248D01*
X418953Y108494D01*
X418922Y108522D01*
X418896Y108553D01*
X371554Y155894D01*
X370935Y157388D01*
X370935Y159493D01*
X370949Y159710D01*
X370975Y160030D01*
X370973Y160072D01*
X370975Y160112D01*
X370975Y378455D01*
X370971Y378528D01*
X370973Y378601D01*
X370951Y378846D01*
X370935Y379091D01*
X370922Y379163D01*
X370915Y379236D01*
X370862Y379476D01*
X370816Y379717D01*
X370794Y379786D01*
X370778Y379858D01*
X370695Y380089D01*
X370619Y380323D01*
X370588Y380389D01*
X370564Y380458D01*
X370453Y380677D01*
X370348Y380900D01*
X370309Y380961D01*
X370276Y381027D01*
X370139Y381230D01*
X370007Y381438D01*
X369961Y381494D01*
X369920Y381555D01*
X369767Y381729D01*
X369602Y381929D01*
X369541Y381986D01*
X369488Y382047D01*
X365162Y386373D01*
X365015Y386502D01*
X364874Y386639D01*
X364776Y386713D01*
X364684Y386794D01*
X364522Y386904D01*
X364365Y387022D01*
X364259Y387083D01*
X364157Y387152D01*
X363982Y387242D01*
X363812Y387339D01*
X363699Y387386D01*
X363589Y387442D01*
X363405Y387508D01*
X363224Y387584D01*
X363106Y387616D01*
X362990Y387658D01*
X362799Y387701D01*
X362610Y387753D01*
X362489Y387770D01*
X362368Y387797D01*
X362173Y387816D01*
X361979Y387844D01*
X361857Y387846D01*
X361734Y387858D01*
X361539Y387852D01*
X361342Y387855D01*
X361220Y387842D01*
X361097Y387838D01*
X360904Y387808D01*
X360709Y387787D01*
X360589Y387759D01*
X360468Y387739D01*
X360280Y387685D01*
X360089Y387640D01*
X359974Y387597D01*
X359856Y387562D01*
X359676Y387485D01*
X359492Y387416D01*
X359384Y387359D01*
X359271Y387310D01*
X359102Y387211D01*
X358929Y387120D01*
X358828Y387049D01*
X358722Y386987D01*
X358567Y386867D01*
X358406Y386755D01*
X358315Y386672D01*
X358218Y386597D01*
X358079Y386459D01*
X357934Y386327D01*
X357853Y386234D01*
X357766Y386147D01*
X357646Y385993D01*
X357518Y385844D01*
X357450Y385742D01*
X357375Y385645D01*
X357275Y385476D01*
X357167Y385313D01*
X357114Y385205D01*
X357049Y385097D01*
X356964Y384902D01*
X356878Y384725D01*
X356148Y382964D01*
X356104Y382907D01*
X355995Y382784D01*
X355908Y382656D01*
X355813Y382533D01*
X355729Y382392D01*
X355637Y382257D01*
X355567Y382119D01*
X355487Y381986D01*
X355422Y381835D01*
X355347Y381689D01*
X355295Y381544D01*
X355233Y381401D01*
X355187Y381244D01*
X355131Y381090D01*
X355097Y380939D01*
X355054Y380790D01*
X355028Y380628D01*
X354992Y380468D01*
X354977Y380314D01*
X354953Y380161D01*
X354947Y379997D01*
X354931Y379834D01*
X354936Y379679D01*
X354931Y379524D01*
X354946Y379361D01*
X354951Y379197D01*
X354975Y379044D01*
X354989Y378890D01*
X355024Y378730D01*
X355050Y378568D01*
X355093Y378419D01*
X355126Y378268D01*
X355181Y378113D01*
X355227Y377956D01*
X355288Y377813D01*
X355340Y377667D01*
X355414Y377521D01*
X355479Y377371D01*
X355558Y377237D01*
X355628Y377099D01*
X355719Y376963D01*
X355802Y376822D01*
X355897Y376699D01*
X355984Y376571D01*
X356089Y376451D01*
X356149Y376373D01*
X356977Y374376D01*
X356977Y372264D01*
X356121Y370199D01*
X356111Y370169D01*
X356097Y370140D01*
X356008Y369867D01*
X355915Y369597D01*
X355908Y369565D01*
X355898Y369535D01*
X355844Y369253D01*
X355786Y368973D01*
X355783Y368941D01*
X355777Y368909D01*
X355761Y368659D01*
X355735Y368338D01*
X355737Y368296D01*
X355735Y368256D01*
X355735Y349058D01*
X355116Y347564D01*
X168052Y160501D01*
X168004Y160446D01*
X167951Y160396D01*
X167793Y160207D01*
X167631Y160023D01*
X167590Y159963D01*
X167543Y159907D01*
X167411Y159699D01*
X167273Y159496D01*
X167240Y159431D01*
X167200Y159370D01*
X167095Y159148D01*
X166983Y158929D01*
X166959Y158860D01*
X166927Y158794D01*
X166851Y158560D01*
X166767Y158329D01*
X166751Y158258D01*
X166728Y158189D01*
X166682Y157947D01*
X166628Y157708D01*
X166621Y157635D01*
X166607Y157563D01*
X166592Y157332D01*
X166567Y157073D01*
X166570Y156990D01*
X166565Y156909D01*
X166565Y146691D01*
X165946Y145197D01*
X157294Y136546D01*
X157246Y136491D01*
X157193Y136441D01*
X157035Y136252D01*
X156873Y136068D01*
X156832Y136008D01*
X156785Y135952D01*
X156653Y135744D01*
X156515Y135541D01*
X156482Y135476D01*
X156442Y135415D01*
X156337Y135193D01*
X156225Y134974D01*
X156201Y134905D01*
X156169Y134839D01*
X156093Y134605D01*
X156009Y134374D01*
X155993Y134303D01*
X155981Y134265D01*
X154923Y131711D01*
X153289Y130077D01*
X151155Y129193D01*
X148845Y129193D01*
X146711Y130077D01*
X145077Y131711D01*
X144193Y133845D01*
X144193Y136155D01*
X145077Y138289D01*
X146711Y139923D01*
X149277Y140986D01*
X149285Y140988D01*
X149357Y141004D01*
X149588Y141087D01*
X149822Y141163D01*
X149888Y141194D01*
X149957Y141218D01*
X150176Y141329D01*
X150399Y141434D01*
X150460Y141473D01*
X150526Y141506D01*
X150729Y141643D01*
X150937Y141775D01*
X150993Y141821D01*
X151054Y141862D01*
X151227Y142014D01*
X151428Y142180D01*
X151485Y142241D01*
X151546Y142294D01*
X154774Y145522D01*
X154931Y145700D01*
X155093Y145872D01*
X155141Y145939D01*
X155195Y146000D01*
X155329Y146196D01*
X155468Y146388D01*
X155507Y146459D01*
X155554Y146527D01*
X155661Y146738D01*
X155776Y146945D01*
X155806Y147022D01*
X155843Y147095D01*
X155923Y147317D01*
X156011Y147538D01*
X156031Y147617D01*
X156059Y147694D01*
X156111Y147925D01*
X156170Y148154D01*
X156181Y148236D01*
X156199Y148316D01*
X156221Y148551D01*
X156251Y148786D01*
X156251Y148869D01*
X156259Y148950D01*
X156252Y149186D01*
X156252Y149424D01*
X156242Y149505D01*
X156240Y149587D01*
X156203Y149821D01*
X156174Y150056D01*
X156153Y150135D01*
X156141Y150216D01*
X156075Y150444D01*
X156016Y150673D01*
X155986Y150750D01*
X155964Y150828D01*
X155870Y151046D01*
X155783Y151266D01*
X155744Y151338D01*
X155711Y151413D01*
X155592Y151617D01*
X155478Y151825D01*
X155430Y151892D01*
X155388Y151962D01*
X155243Y152149D01*
X155104Y152342D01*
X155048Y152402D01*
X154998Y152466D01*
X154831Y152634D01*
X154669Y152807D01*
X154606Y152860D01*
X154549Y152918D01*
X154361Y153063D01*
X154180Y153215D01*
X154111Y153259D01*
X154046Y153309D01*
X153842Y153430D01*
X153643Y153558D01*
X153569Y153593D01*
X153498Y153635D01*
X153281Y153729D01*
X153067Y153831D01*
X152989Y153856D01*
X152914Y153889D01*
X152686Y153956D01*
X152462Y154030D01*
X152381Y154045D01*
X152303Y154068D01*
X152069Y154106D01*
X151836Y154151D01*
X151756Y154156D01*
X151673Y154169D01*
X151413Y154178D01*
X151182Y154193D01*
X148845Y154193D01*
X146711Y155077D01*
X145077Y156711D01*
X144193Y158845D01*
X144193Y161155D01*
X145077Y163289D01*
X146711Y164923D01*
X148933Y165843D01*
X148990Y165847D01*
X149062Y165860D01*
X149135Y165867D01*
X149375Y165920D01*
X149616Y165966D01*
X149686Y165989D01*
X149757Y166004D01*
X149988Y166087D01*
X150222Y166163D01*
X150288Y166194D01*
X150357Y166218D01*
X150576Y166329D01*
X150799Y166434D01*
X150861Y166473D01*
X150926Y166506D01*
X151129Y166643D01*
X151337Y166775D01*
X151393Y166821D01*
X151454Y166862D01*
X151627Y167015D01*
X151828Y167180D01*
X151886Y167241D01*
X151946Y167294D01*
X337618Y352966D01*
X337666Y353021D01*
X337719Y353071D01*
X337877Y353260D01*
X338039Y353444D01*
X338080Y353504D01*
X338127Y353560D01*
X338259Y353768D01*
X338397Y353971D01*
X338430Y354036D01*
X338470Y354097D01*
X338575Y354319D01*
X338687Y354538D01*
X338711Y354607D01*
X338743Y354673D01*
X338819Y354907D01*
X338903Y355138D01*
X338919Y355209D01*
X338942Y355278D01*
X338988Y355519D01*
X339042Y355759D01*
X339049Y355832D01*
X339063Y355904D01*
X339078Y356135D01*
X339103Y356394D01*
X339100Y356477D01*
X339105Y356558D01*
X339105Y378329D01*
X339724Y379823D01*
X341582Y381680D01*
X345215Y385313D01*
X345236Y385337D01*
X345260Y385359D01*
X345447Y385577D01*
X345636Y385791D01*
X345654Y385817D01*
X345675Y385842D01*
X345833Y386081D01*
X345994Y386318D01*
X346009Y386347D01*
X346027Y386373D01*
X346137Y386598D01*
X346284Y386886D01*
X346298Y386925D01*
X346316Y386961D01*
X346924Y388428D01*
X346987Y388614D01*
X347059Y388796D01*
X347090Y388915D01*
X347130Y389031D01*
X347170Y389223D01*
X347219Y389412D01*
X347234Y389535D01*
X347259Y389655D01*
X347275Y389850D01*
X347300Y390044D01*
X347300Y390168D01*
X347310Y390290D01*
X347300Y390486D01*
X347301Y390682D01*
X347286Y390804D01*
X347280Y390927D01*
X347246Y391119D01*
X347222Y391314D01*
X347192Y391433D01*
X347171Y391554D01*
X347113Y391742D01*
X347065Y391931D01*
X347020Y392046D01*
X346984Y392163D01*
X346903Y392342D01*
X346832Y392524D01*
X346773Y392632D01*
X346722Y392744D01*
X346620Y392911D01*
X346526Y393083D01*
X346454Y393183D01*
X346390Y393288D01*
X346268Y393441D01*
X346153Y393600D01*
X346069Y393689D01*
X345992Y393786D01*
X345851Y393922D01*
X345718Y394065D01*
X345624Y394144D01*
X345535Y394230D01*
X345379Y394348D01*
X345228Y394473D01*
X345125Y394539D01*
X345026Y394613D01*
X344856Y394710D01*
X344691Y394816D01*
X344580Y394868D01*
X344473Y394930D01*
X344293Y395005D01*
X344116Y395089D01*
X343999Y395127D01*
X343885Y395174D01*
X343696Y395226D01*
X343510Y395288D01*
X343389Y395311D01*
X343271Y395344D01*
X343077Y395372D01*
X342885Y395409D01*
X342765Y395417D01*
X342640Y395435D01*
X342428Y395439D01*
X342231Y395451D01*
X248137Y395451D01*
X248064Y395447D01*
X247991Y395449D01*
X247746Y395427D01*
X247501Y395411D01*
X247430Y395398D01*
X247357Y395391D01*
X247117Y395338D01*
X246875Y395292D01*
X246806Y395269D01*
X246735Y395254D01*
X246504Y395171D01*
X246269Y395095D01*
X246203Y395064D01*
X246134Y395040D01*
X245915Y394929D01*
X245693Y394824D01*
X245631Y394785D01*
X245566Y394752D01*
X245362Y394615D01*
X245154Y394483D01*
X245098Y394437D01*
X245038Y394396D01*
X244864Y394243D01*
X244663Y394078D01*
X244606Y394017D01*
X244545Y393964D01*
X222925Y372343D01*
X222850Y372258D01*
X222768Y372179D01*
X222639Y372019D01*
X222504Y371865D01*
X222440Y371771D01*
X222368Y371682D01*
X222261Y371508D01*
X222146Y371339D01*
X222094Y371237D01*
X222034Y371140D01*
X221949Y370953D01*
X221856Y370771D01*
X221817Y370664D01*
X221770Y370560D01*
X221709Y370364D01*
X221640Y370172D01*
X221615Y370061D01*
X221581Y369952D01*
X221545Y369750D01*
X221501Y369550D01*
X221490Y369436D01*
X221470Y369324D01*
X221460Y369120D01*
X221440Y368916D01*
X221444Y368802D01*
X221438Y368688D01*
X221453Y368484D01*
X221460Y368279D01*
X221477Y368166D01*
X221486Y368053D01*
X221527Y367852D01*
X221559Y367649D01*
X221590Y367540D01*
X221613Y367428D01*
X221676Y367242D01*
X221736Y367037D01*
X221785Y366922D01*
X221824Y366808D01*
X222857Y364315D01*
X222857Y362005D01*
X221973Y359871D01*
X220339Y358237D01*
X218205Y357353D01*
X215895Y357353D01*
X213761Y358237D01*
X212127Y359871D01*
X211243Y362005D01*
X211243Y364315D01*
X212271Y366797D01*
X212317Y366864D01*
X212350Y366929D01*
X212390Y366991D01*
X212495Y367213D01*
X212607Y367432D01*
X212631Y367501D01*
X212663Y367567D01*
X212739Y367800D01*
X212823Y368031D01*
X212839Y368102D01*
X212862Y368172D01*
X212908Y368413D01*
X212962Y368653D01*
X212969Y368726D01*
X212983Y368797D01*
X212998Y369029D01*
X213023Y369287D01*
X213020Y369371D01*
X213025Y369451D01*
X213025Y372961D01*
X213953Y375201D01*
X213990Y375309D01*
X214036Y375413D01*
X214093Y375609D01*
X214160Y375803D01*
X214183Y375915D01*
X214215Y376024D01*
X214247Y376227D01*
X214289Y376427D01*
X214298Y376541D01*
X214316Y376653D01*
X214323Y376858D01*
X214339Y377062D01*
X214334Y377176D01*
X214338Y377290D01*
X214319Y377494D01*
X214309Y377699D01*
X214290Y377811D01*
X214279Y377925D01*
X214235Y378125D01*
X214200Y378327D01*
X214167Y378436D01*
X214142Y378547D01*
X214074Y378739D01*
X214013Y378936D01*
X213967Y379040D01*
X213928Y379147D01*
X213836Y379329D01*
X213752Y379517D01*
X213692Y379614D01*
X213641Y379716D01*
X213527Y379885D01*
X213419Y380060D01*
X213348Y380149D01*
X213285Y380244D01*
X213155Y380392D01*
X213022Y380558D01*
X212931Y380646D01*
X212852Y380736D01*
X212731Y380857D01*
X212616Y380959D01*
X212506Y381069D01*
X212376Y381170D01*
X212254Y381278D01*
X212126Y381365D01*
X212003Y381460D01*
X211862Y381544D01*
X211727Y381636D01*
X211589Y381707D01*
X211456Y381786D01*
X211306Y381851D01*
X211159Y381926D01*
X211013Y381978D01*
X210871Y382040D01*
X210714Y382086D01*
X210560Y382142D01*
X210409Y382176D01*
X210260Y382219D01*
X210098Y382245D01*
X209938Y382281D01*
X209784Y382296D01*
X209631Y382320D01*
X209467Y382326D01*
X209304Y382342D01*
X209149Y382337D01*
X208994Y382342D01*
X208831Y382327D01*
X208667Y382322D01*
X208514Y382298D01*
X208360Y382284D01*
X208200Y382249D01*
X208038Y382223D01*
X207889Y382180D01*
X207737Y382147D01*
X207583Y382092D01*
X207426Y382046D01*
X207283Y381985D01*
X207137Y381933D01*
X206991Y381859D01*
X206840Y381794D01*
X206707Y381715D01*
X206569Y381645D01*
X206433Y381554D01*
X206292Y381470D01*
X206169Y381376D01*
X206041Y381289D01*
X205921Y381184D01*
X205787Y381081D01*
X205668Y380962D01*
X205548Y380857D01*
X190294Y365603D01*
X190246Y365548D01*
X190193Y365498D01*
X190036Y365309D01*
X189873Y365125D01*
X189832Y365064D01*
X189785Y365008D01*
X189653Y364801D01*
X189515Y364598D01*
X189482Y364533D01*
X189442Y364471D01*
X189337Y364249D01*
X189225Y364030D01*
X189201Y363962D01*
X189169Y363896D01*
X189093Y363662D01*
X189009Y363431D01*
X188993Y363360D01*
X188970Y363290D01*
X188952Y363196D01*
X187923Y360711D01*
X186289Y359077D01*
X184155Y358193D01*
X181845Y358193D01*
X179711Y359077D01*
X178077Y360711D01*
X177193Y362845D01*
X177193Y365155D01*
X178077Y367289D01*
X179711Y368923D01*
X182192Y369951D01*
X182273Y369966D01*
X182342Y369989D01*
X182413Y370004D01*
X182644Y370087D01*
X182879Y370163D01*
X182945Y370194D01*
X183014Y370218D01*
X183233Y370329D01*
X183455Y370434D01*
X183517Y370473D01*
X183582Y370506D01*
X183786Y370643D01*
X183994Y370775D01*
X184050Y370821D01*
X184110Y370862D01*
X184284Y371015D01*
X184485Y371180D01*
X184542Y371241D01*
X184603Y371294D01*
X229244Y415936D01*
X230723Y416549D01*
X364503Y416549D01*
X365982Y415936D01*
X392236Y389682D01*
X392849Y388203D01*
X392849Y199528D01*
X392853Y199455D01*
X392851Y199382D01*
X392873Y199137D01*
X392889Y198892D01*
X392902Y198820D01*
X392909Y198747D01*
X392962Y198507D01*
X393008Y198266D01*
X393031Y198196D01*
X393046Y198125D01*
X393129Y197894D01*
X393205Y197660D01*
X393236Y197594D01*
X393260Y197525D01*
X393371Y197306D01*
X393476Y197083D01*
X393515Y197021D01*
X393548Y196956D01*
X393685Y196753D01*
X393817Y196545D01*
X393863Y196489D01*
X393904Y196428D01*
X394057Y196255D01*
X394222Y196054D01*
X394283Y195996D01*
X394336Y195936D01*
X422978Y167294D01*
X423033Y167246D01*
X423083Y167193D01*
X423272Y167035D01*
X423456Y166873D01*
X423516Y166832D01*
X423572Y166785D01*
X423780Y166653D01*
X423983Y166515D01*
X424048Y166482D01*
X424109Y166442D01*
X424331Y166337D01*
X424550Y166225D01*
X424619Y166201D01*
X424685Y166169D01*
X424919Y166093D01*
X425150Y166009D01*
X425221Y165993D01*
X425290Y165970D01*
X425532Y165924D01*
X425771Y165870D01*
X425844Y165863D01*
X425916Y165849D01*
X426078Y165838D01*
X428289Y164923D01*
X429923Y163289D01*
X430807Y161155D01*
X430807Y158845D01*
X429923Y156711D01*
X428289Y155077D01*
X426155Y154193D01*
X423278Y154193D01*
X423041Y154178D01*
X422805Y154171D01*
X422723Y154158D01*
X422642Y154153D01*
X422409Y154109D01*
X422175Y154072D01*
X422096Y154049D01*
X422016Y154034D01*
X421790Y153961D01*
X421563Y153895D01*
X421488Y153863D01*
X421410Y153837D01*
X421195Y153736D01*
X420978Y153643D01*
X420907Y153601D01*
X420833Y153566D01*
X420633Y153439D01*
X420429Y153319D01*
X420364Y153269D01*
X420295Y153225D01*
X420112Y153074D01*
X419925Y152930D01*
X419867Y152872D01*
X419804Y152820D01*
X419641Y152647D01*
X419474Y152480D01*
X419423Y152415D01*
X419367Y152356D01*
X419228Y152164D01*
X419082Y151977D01*
X419040Y151907D01*
X418992Y151841D01*
X418878Y151633D01*
X418757Y151430D01*
X418724Y151354D01*
X418684Y151283D01*
X418597Y151063D01*
X418502Y150845D01*
X418479Y150767D01*
X418449Y150690D01*
X418390Y150461D01*
X418323Y150234D01*
X418310Y150153D01*
X418290Y150074D01*
X418260Y149839D01*
X418222Y149605D01*
X418219Y149523D01*
X418209Y149442D01*
X418208Y149205D01*
X418200Y148968D01*
X418208Y148887D01*
X418208Y148804D01*
X418237Y148570D01*
X418259Y148334D01*
X418276Y148254D01*
X418286Y148172D01*
X418345Y147943D01*
X418396Y147712D01*
X418423Y147634D01*
X418444Y147555D01*
X418530Y147334D01*
X418610Y147111D01*
X418647Y147038D01*
X418677Y146962D01*
X418790Y146754D01*
X418897Y146543D01*
X418943Y146475D01*
X418982Y146403D01*
X419121Y146211D01*
X419253Y146015D01*
X419307Y145954D01*
X419356Y145886D01*
X419533Y145697D01*
X419686Y145522D01*
X422914Y142294D01*
X422969Y142246D01*
X423019Y142193D01*
X423207Y142036D01*
X423392Y141873D01*
X423452Y141832D01*
X423508Y141785D01*
X423715Y141653D01*
X423919Y141515D01*
X423984Y141482D01*
X424045Y141442D01*
X424268Y141337D01*
X424486Y141225D01*
X424555Y141201D01*
X424621Y141169D01*
X424855Y141093D01*
X425086Y141009D01*
X425157Y140993D01*
X425226Y140970D01*
X425467Y140924D01*
X425707Y140870D01*
X425780Y140863D01*
X425852Y140849D01*
X426083Y140834D01*
X426091Y140833D01*
X428289Y139923D01*
X429923Y138289D01*
X430807Y136155D01*
X430807Y133845D01*
X429923Y131711D01*
X428289Y130077D01*
X426155Y129193D01*
X423845Y129193D01*
X423378Y129387D01*
X423116Y129476D01*
X422854Y129571D01*
X422814Y129580D01*
X422775Y129593D01*
X422503Y129649D01*
X422233Y129710D01*
X422192Y129714D01*
X422152Y129722D01*
X421874Y129744D01*
X421598Y129771D01*
X421557Y129769D01*
X421516Y129773D01*
X421238Y129760D01*
X420962Y129751D01*
X420921Y129745D01*
X420880Y129743D01*
X420606Y129695D01*
X420332Y129652D01*
X420293Y129641D01*
X420252Y129634D01*
X419987Y129552D01*
X419720Y129475D01*
X419682Y129459D01*
X419643Y129447D01*
X419390Y129333D01*
X419135Y129223D01*
X419100Y129202D01*
X419062Y129185D01*
X418826Y129041D01*
X418586Y128899D01*
X418554Y128874D01*
X418519Y128853D01*
X418302Y128680D01*
X418082Y128510D01*
X418053Y128481D01*
X418021Y128455D01*
X417828Y128256D01*
X417631Y128060D01*
X417605Y128028D01*
X417577Y127998D01*
X417410Y127777D01*
X417239Y127557D01*
X417218Y127522D01*
X417194Y127489D01*
X417056Y127249D01*
X416914Y127010D01*
X416897Y126972D01*
X416877Y126936D01*
X416770Y126680D01*
X416659Y126425D01*
X416648Y126386D01*
X416632Y126348D01*
X416558Y126080D01*
X416480Y125814D01*
X416474Y125774D01*
X416463Y125734D01*
X416423Y125459D01*
X416379Y125185D01*
X416378Y125144D01*
X416372Y125103D01*
X416367Y124826D01*
X416357Y124548D01*
X416361Y124507D01*
X416360Y124466D01*
X416390Y124190D01*
X416416Y123914D01*
X416424Y123874D01*
X416429Y123833D01*
X416493Y123562D01*
X416553Y123292D01*
X416566Y123253D01*
X416576Y123213D01*
X416674Y122952D01*
X416767Y122691D01*
X416785Y122655D01*
X416800Y122616D01*
X416929Y122370D01*
X417054Y122123D01*
X417077Y122089D01*
X417096Y122052D01*
X417256Y121824D01*
X417410Y121595D01*
X417437Y121564D01*
X417461Y121530D01*
X417677Y121291D01*
X417843Y121102D01*
X421651Y117294D01*
X421706Y117246D01*
X421755Y117193D01*
X421945Y117035D01*
X422129Y116873D01*
X422189Y116832D01*
X422245Y116785D01*
X422452Y116653D01*
X422656Y116515D01*
X422721Y116482D01*
X422782Y116442D01*
X423004Y116337D01*
X423223Y116225D01*
X423292Y116201D01*
X423358Y116169D01*
X423592Y116093D01*
X423823Y116009D01*
X423894Y115993D01*
X423963Y115970D01*
X424204Y115924D01*
X424444Y115870D01*
X424517Y115863D01*
X424589Y115849D01*
X424820Y115834D01*
X425079Y115809D01*
X425162Y115812D01*
X425242Y115807D01*
X426155Y115807D01*
X428289Y114923D01*
X429923Y113289D01*
X430807Y111155D01*
X430807Y108845D01*
X429923Y106711D01*
X428289Y105077D01*
X426155Y104193D01*
X423845Y104193D01*
G37*
%LPD*%
%LPC*%
G36*
X265110Y20429D02*
X265110Y20429D01*
X257700Y23499D01*
X252029Y29170D01*
X248959Y36580D01*
X248959Y44600D01*
X251754Y51346D01*
X251777Y51415D01*
X251807Y51482D01*
X251880Y51716D01*
X251960Y51949D01*
X251975Y52021D01*
X251996Y52090D01*
X252039Y52332D01*
X252089Y52573D01*
X252095Y52646D01*
X252108Y52718D01*
X252120Y52963D01*
X252140Y53208D01*
X252136Y53281D01*
X252140Y53354D01*
X252121Y53599D01*
X252110Y53844D01*
X252097Y53916D01*
X252092Y53989D01*
X252043Y54230D01*
X252001Y54472D01*
X251979Y54542D01*
X251965Y54614D01*
X251890Y54832D01*
X251814Y55081D01*
X251779Y55158D01*
X251754Y55234D01*
X248959Y61980D01*
X248959Y70000D01*
X251754Y76746D01*
X251777Y76815D01*
X251807Y76882D01*
X251880Y77116D01*
X251960Y77349D01*
X251975Y77421D01*
X251996Y77490D01*
X252039Y77732D01*
X252089Y77973D01*
X252095Y78046D01*
X252108Y78118D01*
X252120Y78363D01*
X252140Y78608D01*
X252136Y78681D01*
X252140Y78754D01*
X252121Y78999D01*
X252110Y79244D01*
X252097Y79316D01*
X252092Y79389D01*
X252043Y79630D01*
X252001Y79872D01*
X251979Y79942D01*
X251965Y80014D01*
X251890Y80232D01*
X251814Y80481D01*
X251779Y80558D01*
X251754Y80634D01*
X248959Y87380D01*
X248959Y95400D01*
X252029Y102810D01*
X257700Y108481D01*
X265110Y111551D01*
X273130Y111551D01*
X279876Y108756D01*
X279945Y108733D01*
X280012Y108703D01*
X280246Y108630D01*
X280479Y108550D01*
X280551Y108535D01*
X280620Y108514D01*
X280862Y108471D01*
X281103Y108421D01*
X281176Y108415D01*
X281248Y108402D01*
X281493Y108390D01*
X281738Y108370D01*
X281811Y108374D01*
X281884Y108370D01*
X282129Y108389D01*
X282374Y108400D01*
X282446Y108413D01*
X282519Y108418D01*
X282760Y108467D01*
X283002Y108509D01*
X283072Y108531D01*
X283143Y108545D01*
X283362Y108620D01*
X283611Y108696D01*
X283688Y108731D01*
X283764Y108756D01*
X290510Y111551D01*
X298530Y111551D01*
X305940Y108481D01*
X311611Y102810D01*
X314681Y95400D01*
X314681Y87380D01*
X311886Y80634D01*
X311863Y80565D01*
X311833Y80498D01*
X311760Y80264D01*
X311680Y80031D01*
X311665Y79959D01*
X311644Y79890D01*
X311601Y79648D01*
X311551Y79407D01*
X311545Y79334D01*
X311532Y79262D01*
X311520Y79017D01*
X311500Y78772D01*
X311504Y78699D01*
X311500Y78626D01*
X311519Y78381D01*
X311530Y78136D01*
X311543Y78064D01*
X311548Y77991D01*
X311597Y77750D01*
X311639Y77508D01*
X311661Y77438D01*
X311675Y77367D01*
X311750Y77148D01*
X311826Y76899D01*
X311861Y76822D01*
X311886Y76746D01*
X314681Y70000D01*
X314681Y61980D01*
X311886Y55234D01*
X311863Y55165D01*
X311833Y55098D01*
X311760Y54864D01*
X311680Y54631D01*
X311665Y54559D01*
X311644Y54490D01*
X311601Y54248D01*
X311551Y54007D01*
X311545Y53934D01*
X311532Y53862D01*
X311520Y53617D01*
X311500Y53372D01*
X311504Y53299D01*
X311500Y53226D01*
X311519Y52981D01*
X311530Y52736D01*
X311543Y52664D01*
X311548Y52591D01*
X311597Y52350D01*
X311639Y52108D01*
X311661Y52038D01*
X311675Y51967D01*
X311750Y51748D01*
X311826Y51499D01*
X311861Y51422D01*
X311886Y51346D01*
X314681Y44600D01*
X314681Y36580D01*
X311611Y29170D01*
X305940Y23499D01*
X298530Y20429D01*
X290510Y20429D01*
X283764Y23224D01*
X283695Y23247D01*
X283628Y23277D01*
X283394Y23350D01*
X283161Y23430D01*
X283089Y23445D01*
X283020Y23466D01*
X282778Y23509D01*
X282537Y23559D01*
X282464Y23565D01*
X282392Y23578D01*
X282147Y23590D01*
X281902Y23610D01*
X281829Y23606D01*
X281756Y23610D01*
X281511Y23591D01*
X281266Y23580D01*
X281194Y23567D01*
X281121Y23562D01*
X280880Y23513D01*
X280638Y23471D01*
X280568Y23449D01*
X280496Y23435D01*
X280278Y23360D01*
X280029Y23284D01*
X279952Y23249D01*
X279876Y23224D01*
X273130Y20429D01*
X265110Y20429D01*
G37*
%LPD*%
%LPC*%
G36*
X102205Y202975D02*
X102205Y202975D01*
X98888Y204349D01*
X96349Y206888D01*
X94975Y210205D01*
X94975Y213795D01*
X95739Y215638D01*
X95749Y215668D01*
X95763Y215697D01*
X95852Y215970D01*
X95945Y216241D01*
X95952Y216272D01*
X95962Y216303D01*
X96016Y216584D01*
X96074Y216865D01*
X96077Y216897D01*
X96083Y216928D01*
X96099Y217179D01*
X96125Y217500D01*
X96123Y217542D01*
X96125Y217582D01*
X96125Y506016D01*
X97456Y509230D01*
X97537Y509348D01*
X97570Y509414D01*
X97610Y509475D01*
X97715Y509698D01*
X97826Y509916D01*
X97851Y509985D01*
X97883Y510051D01*
X97959Y510284D01*
X98043Y510515D01*
X98059Y510587D01*
X98082Y510656D01*
X98128Y510897D01*
X98182Y511137D01*
X98189Y511210D01*
X98203Y511282D01*
X98218Y511513D01*
X98243Y511771D01*
X98240Y511855D01*
X98245Y511936D01*
X98245Y518664D01*
X99733Y522257D01*
X102483Y525007D01*
X106076Y526495D01*
X109964Y526495D01*
X113557Y525007D01*
X116307Y522257D01*
X117795Y518664D01*
X117795Y498276D01*
X116307Y494683D01*
X113362Y491739D01*
X113314Y491684D01*
X113261Y491634D01*
X113103Y491445D01*
X112941Y491261D01*
X112900Y491201D01*
X112853Y491144D01*
X112721Y490937D01*
X112583Y490734D01*
X112550Y490669D01*
X112510Y490608D01*
X112405Y490386D01*
X112293Y490166D01*
X112269Y490098D01*
X112237Y490032D01*
X112160Y489798D01*
X112077Y489567D01*
X112061Y489496D01*
X112038Y489427D01*
X111992Y489185D01*
X111938Y488945D01*
X111931Y488873D01*
X111917Y488801D01*
X111902Y488570D01*
X111877Y488311D01*
X111880Y488228D01*
X111875Y488147D01*
X111875Y217582D01*
X111877Y217550D01*
X111875Y217518D01*
X111897Y217232D01*
X111915Y216946D01*
X111921Y216915D01*
X111923Y216883D01*
X111980Y216601D01*
X112034Y216320D01*
X112044Y216290D01*
X112050Y216258D01*
X112131Y216021D01*
X112231Y215714D01*
X112248Y215676D01*
X112261Y215638D01*
X113025Y213795D01*
X113025Y210205D01*
X111651Y206888D01*
X109112Y204349D01*
X105795Y202975D01*
X102205Y202975D01*
G37*
%LPD*%
%LPC*%
G36*
X262479Y454969D02*
X262479Y454969D01*
X261000Y455582D01*
X254794Y461788D01*
X254740Y461836D01*
X254690Y461889D01*
X254500Y462047D01*
X254316Y462209D01*
X254256Y462250D01*
X254200Y462297D01*
X253993Y462429D01*
X253789Y462567D01*
X253724Y462600D01*
X253663Y462640D01*
X253441Y462745D01*
X253222Y462857D01*
X253153Y462881D01*
X253087Y462913D01*
X252853Y462989D01*
X252622Y463073D01*
X252551Y463089D01*
X252482Y463112D01*
X252241Y463158D01*
X252001Y463212D01*
X251928Y463219D01*
X251856Y463233D01*
X251625Y463248D01*
X251367Y463273D01*
X251283Y463270D01*
X251203Y463275D01*
X242391Y463275D01*
X242318Y463271D01*
X242245Y463273D01*
X242000Y463251D01*
X241755Y463235D01*
X241684Y463222D01*
X241611Y463215D01*
X241371Y463162D01*
X241129Y463116D01*
X241060Y463093D01*
X240989Y463078D01*
X240758Y462995D01*
X240523Y462919D01*
X240457Y462888D01*
X240389Y462864D01*
X240170Y462753D01*
X239947Y462648D01*
X239885Y462609D01*
X239820Y462576D01*
X239740Y462523D01*
X237255Y461493D01*
X234945Y461493D01*
X232811Y462377D01*
X231177Y464011D01*
X230293Y466145D01*
X230293Y468455D01*
X231177Y470589D01*
X232811Y472223D01*
X234945Y473107D01*
X237255Y473107D01*
X240032Y471956D01*
X240295Y471866D01*
X240556Y471772D01*
X240596Y471763D01*
X240635Y471750D01*
X240907Y471694D01*
X241178Y471633D01*
X241219Y471629D01*
X241259Y471621D01*
X241536Y471599D01*
X241812Y471572D01*
X241853Y471574D01*
X241894Y471570D01*
X242172Y471583D01*
X242449Y471592D01*
X242490Y471598D01*
X242531Y471600D01*
X242804Y471648D01*
X243078Y471691D01*
X243118Y471702D01*
X243158Y471709D01*
X243424Y471791D01*
X243691Y471868D01*
X243728Y471884D01*
X243767Y471896D01*
X244020Y472010D01*
X244276Y472120D01*
X244311Y472141D01*
X244348Y472158D01*
X244585Y472302D01*
X244824Y472444D01*
X244857Y472469D01*
X244892Y472490D01*
X245109Y472664D01*
X245329Y472833D01*
X245358Y472862D01*
X245390Y472888D01*
X245583Y473087D01*
X245780Y473283D01*
X245805Y473315D01*
X245834Y473345D01*
X246001Y473567D01*
X246171Y473786D01*
X246192Y473821D01*
X246217Y473854D01*
X246355Y474095D01*
X246497Y474333D01*
X246513Y474371D01*
X246534Y474407D01*
X246640Y474663D01*
X246751Y474918D01*
X246763Y474957D01*
X246778Y474995D01*
X246852Y475263D01*
X246930Y475529D01*
X246937Y475569D01*
X246948Y475609D01*
X246987Y475884D01*
X247032Y476158D01*
X247033Y476199D01*
X247039Y476240D01*
X247044Y476517D01*
X247053Y476795D01*
X247050Y476836D01*
X247050Y476877D01*
X247020Y477153D01*
X246995Y477429D01*
X246986Y477469D01*
X246982Y477510D01*
X246918Y477779D01*
X246858Y478051D01*
X246844Y478090D01*
X246835Y478130D01*
X246737Y478390D01*
X246644Y478652D01*
X246625Y478688D01*
X246611Y478727D01*
X246482Y478972D01*
X246356Y479220D01*
X246334Y479254D01*
X246314Y479290D01*
X246155Y479518D01*
X246000Y479748D01*
X245974Y479779D01*
X245950Y479813D01*
X245733Y480052D01*
X245568Y480241D01*
X234535Y491274D01*
X232688Y493120D01*
X232075Y494599D01*
X232075Y499109D01*
X232071Y499182D01*
X232073Y499255D01*
X232051Y499500D01*
X232035Y499745D01*
X232022Y499816D01*
X232015Y499889D01*
X231962Y500129D01*
X231916Y500371D01*
X231893Y500440D01*
X231878Y500511D01*
X231795Y500742D01*
X231719Y500977D01*
X231688Y501043D01*
X231664Y501111D01*
X231553Y501330D01*
X231448Y501553D01*
X231409Y501615D01*
X231376Y501680D01*
X231323Y501760D01*
X230293Y504245D01*
X230293Y506555D01*
X231177Y508689D01*
X232811Y510323D01*
X234945Y511207D01*
X237255Y511207D01*
X239389Y510323D01*
X241023Y508689D01*
X241783Y506853D01*
X241905Y506604D01*
X242024Y506352D01*
X242046Y506317D01*
X242064Y506281D01*
X242216Y506049D01*
X242365Y505814D01*
X242391Y505782D01*
X242413Y505748D01*
X242593Y505537D01*
X242770Y505323D01*
X242800Y505295D01*
X242827Y505263D01*
X243032Y505076D01*
X243234Y504886D01*
X243268Y504862D01*
X243298Y504834D01*
X243525Y504675D01*
X243750Y504511D01*
X243785Y504491D01*
X243819Y504468D01*
X244064Y504338D01*
X244307Y504203D01*
X244346Y504188D01*
X244382Y504169D01*
X244641Y504071D01*
X244900Y503968D01*
X244939Y503958D01*
X244978Y503943D01*
X245247Y503878D01*
X245516Y503809D01*
X245557Y503803D01*
X245597Y503794D01*
X245873Y503763D01*
X246148Y503728D01*
X246189Y503728D01*
X246230Y503723D01*
X246508Y503727D01*
X246786Y503727D01*
X246826Y503732D01*
X246867Y503732D01*
X247142Y503771D01*
X247418Y503805D01*
X247458Y503815D01*
X247498Y503821D01*
X247766Y503894D01*
X248035Y503962D01*
X248073Y503978D01*
X248113Y503988D01*
X248369Y504094D01*
X248628Y504196D01*
X248664Y504215D01*
X248702Y504231D01*
X248943Y504368D01*
X249187Y504501D01*
X249220Y504525D01*
X249256Y504546D01*
X249479Y504712D01*
X249704Y504875D01*
X249734Y504903D01*
X249766Y504927D01*
X249967Y505120D01*
X250169Y505309D01*
X250195Y505341D01*
X250225Y505369D01*
X250400Y505586D01*
X250577Y505799D01*
X250599Y505834D01*
X250624Y505866D01*
X250771Y506103D01*
X250920Y506336D01*
X250937Y506373D01*
X250959Y506408D01*
X251073Y506660D01*
X251193Y506912D01*
X251206Y506951D01*
X251222Y506988D01*
X251305Y507253D01*
X251392Y507517D01*
X251399Y507557D01*
X251412Y507597D01*
X251460Y507870D01*
X251513Y508143D01*
X251516Y508183D01*
X251523Y508224D01*
X251539Y508545D01*
X251555Y508796D01*
X251555Y518664D01*
X253043Y522257D01*
X255793Y525007D01*
X259386Y526495D01*
X263274Y526495D01*
X266867Y525007D01*
X269617Y522257D01*
X271105Y518664D01*
X271105Y498276D01*
X269617Y494683D01*
X266867Y491933D01*
X263274Y490445D01*
X259009Y490445D01*
X258773Y490430D01*
X258536Y490423D01*
X258455Y490410D01*
X258373Y490405D01*
X258141Y490361D01*
X257907Y490324D01*
X257828Y490301D01*
X257747Y490286D01*
X257522Y490213D01*
X257295Y490147D01*
X257219Y490115D01*
X257141Y490089D01*
X256927Y489989D01*
X256709Y489895D01*
X256639Y489853D01*
X256565Y489818D01*
X256364Y489692D01*
X256161Y489571D01*
X256096Y489521D01*
X256026Y489477D01*
X255844Y489326D01*
X255656Y489182D01*
X255598Y489124D01*
X255535Y489072D01*
X255373Y488899D01*
X255205Y488732D01*
X255155Y488667D01*
X255099Y488608D01*
X254959Y488416D01*
X254814Y488229D01*
X254772Y488159D01*
X254723Y488093D01*
X254609Y487885D01*
X254488Y487682D01*
X254455Y487606D01*
X254416Y487535D01*
X254328Y487315D01*
X254234Y487097D01*
X254211Y487019D01*
X254181Y486942D01*
X254121Y486713D01*
X254055Y486486D01*
X254042Y486405D01*
X254021Y486326D01*
X253991Y486091D01*
X253953Y485857D01*
X253951Y485775D01*
X253940Y485694D01*
X253940Y485457D01*
X253932Y485220D01*
X253939Y485139D01*
X253939Y485056D01*
X253968Y484821D01*
X253990Y484586D01*
X254008Y484506D01*
X254018Y484424D01*
X254076Y484194D01*
X254127Y483964D01*
X254155Y483886D01*
X254175Y483807D01*
X254262Y483586D01*
X254341Y483363D01*
X254378Y483290D01*
X254408Y483214D01*
X254522Y483006D01*
X254629Y482795D01*
X254674Y482727D01*
X254714Y482655D01*
X254853Y482463D01*
X254985Y482267D01*
X255038Y482206D01*
X255087Y482138D01*
X255264Y481948D01*
X255417Y481774D01*
X264379Y472812D01*
X264434Y472764D01*
X264484Y472711D01*
X264673Y472554D01*
X264857Y472391D01*
X264918Y472350D01*
X264974Y472303D01*
X265181Y472171D01*
X265384Y472033D01*
X265449Y472000D01*
X265511Y471960D01*
X265733Y471855D01*
X265952Y471743D01*
X266020Y471719D01*
X266086Y471687D01*
X266320Y471610D01*
X266551Y471527D01*
X266622Y471511D01*
X266692Y471488D01*
X266933Y471442D01*
X267173Y471388D01*
X267245Y471381D01*
X267317Y471367D01*
X267548Y471352D01*
X267807Y471327D01*
X267891Y471330D01*
X267971Y471325D01*
X331409Y471325D01*
X331482Y471329D01*
X331555Y471327D01*
X331800Y471349D01*
X332045Y471365D01*
X332116Y471378D01*
X332189Y471385D01*
X332429Y471438D01*
X332671Y471484D01*
X332740Y471507D01*
X332811Y471522D01*
X333042Y471605D01*
X333277Y471681D01*
X333343Y471712D01*
X333411Y471736D01*
X333630Y471847D01*
X333853Y471952D01*
X333915Y471991D01*
X333980Y472024D01*
X334060Y472077D01*
X336545Y473107D01*
X336902Y473107D01*
X337057Y473116D01*
X337212Y473116D01*
X337374Y473136D01*
X337538Y473147D01*
X337690Y473176D01*
X337844Y473195D01*
X338003Y473235D01*
X338164Y473266D01*
X338311Y473314D01*
X338461Y473352D01*
X338614Y473412D01*
X338770Y473463D01*
X338910Y473528D01*
X339054Y473585D01*
X339198Y473664D01*
X339346Y473734D01*
X339477Y473816D01*
X339613Y473891D01*
X339746Y473987D01*
X339885Y474075D01*
X340004Y474173D01*
X340130Y474264D01*
X340249Y474376D01*
X340376Y474480D01*
X340482Y474593D01*
X340595Y474699D01*
X340700Y474825D01*
X340812Y474944D01*
X340904Y475070D01*
X341003Y475189D01*
X341091Y475327D01*
X341187Y475459D01*
X341262Y475595D01*
X341346Y475726D01*
X341416Y475874D01*
X341495Y476017D01*
X341552Y476161D01*
X341619Y476301D01*
X341670Y476457D01*
X341730Y476610D01*
X341769Y476760D01*
X341818Y476907D01*
X341849Y477068D01*
X341890Y477226D01*
X341909Y477380D01*
X341939Y477532D01*
X341949Y477691D01*
X341971Y477858D01*
X341971Y478027D01*
X341981Y478186D01*
X341981Y493323D01*
X341977Y493396D01*
X341979Y493469D01*
X341957Y493714D01*
X341941Y493959D01*
X341928Y494030D01*
X341921Y494103D01*
X341868Y494343D01*
X341822Y494585D01*
X341799Y494654D01*
X341784Y494725D01*
X341701Y494956D01*
X341625Y495191D01*
X341594Y495257D01*
X341570Y495326D01*
X341459Y495545D01*
X341354Y495767D01*
X341315Y495829D01*
X341282Y495894D01*
X341145Y496098D01*
X341013Y496306D01*
X340967Y496362D01*
X340926Y496422D01*
X340773Y496596D01*
X340608Y496797D01*
X340547Y496854D01*
X340494Y496915D01*
X339303Y498106D01*
X339248Y498154D01*
X339198Y498207D01*
X339009Y498365D01*
X338825Y498527D01*
X338764Y498568D01*
X338708Y498615D01*
X338501Y498747D01*
X338298Y498885D01*
X338233Y498918D01*
X338171Y498958D01*
X337949Y499063D01*
X337730Y499175D01*
X337662Y499199D01*
X337596Y499231D01*
X337362Y499307D01*
X337131Y499391D01*
X337060Y499407D01*
X336990Y499430D01*
X336896Y499448D01*
X334411Y500477D01*
X332777Y502111D01*
X331893Y504245D01*
X331893Y506555D01*
X332777Y508689D01*
X334411Y510323D01*
X336545Y511207D01*
X338855Y511207D01*
X340989Y510323D01*
X342623Y508689D01*
X343651Y506208D01*
X343666Y506127D01*
X343689Y506058D01*
X343704Y505987D01*
X343787Y505756D01*
X343863Y505521D01*
X343894Y505455D01*
X343918Y505386D01*
X344029Y505167D01*
X344134Y504945D01*
X344173Y504883D01*
X344206Y504818D01*
X344343Y504614D01*
X344475Y504406D01*
X344521Y504350D01*
X344562Y504290D01*
X344715Y504116D01*
X344880Y503915D01*
X344941Y503858D01*
X344994Y503797D01*
X349418Y499374D01*
X350031Y497895D01*
X350031Y463059D01*
X349418Y461580D01*
X343420Y455582D01*
X341941Y454969D01*
X262479Y454969D01*
G37*
%LPD*%
%LPC*%
G36*
X462596Y490445D02*
X462596Y490445D01*
X459003Y491933D01*
X456253Y494683D01*
X454765Y498276D01*
X454765Y518664D01*
X456253Y522257D01*
X459003Y525007D01*
X462596Y526495D01*
X466484Y526495D01*
X470077Y525007D01*
X472827Y522257D01*
X474315Y518664D01*
X474315Y498276D01*
X472827Y494683D01*
X470077Y491933D01*
X466484Y490445D01*
X462596Y490445D01*
G37*
%LPD*%
%LPC*%
G36*
X412596Y490445D02*
X412596Y490445D01*
X409003Y491933D01*
X406253Y494683D01*
X404765Y498276D01*
X404765Y518664D01*
X406253Y522257D01*
X409003Y525007D01*
X412596Y526495D01*
X416484Y526495D01*
X420077Y525007D01*
X422827Y522257D01*
X424315Y518664D01*
X424315Y498276D01*
X422827Y494683D01*
X420077Y491933D01*
X416484Y490445D01*
X412596Y490445D01*
G37*
%LPD*%
%LPC*%
G36*
X309386Y490445D02*
X309386Y490445D01*
X305793Y491933D01*
X303043Y494683D01*
X301555Y498276D01*
X301555Y518664D01*
X303043Y522257D01*
X305793Y525007D01*
X309386Y526495D01*
X313274Y526495D01*
X316867Y525007D01*
X319617Y522257D01*
X321105Y518664D01*
X321105Y498276D01*
X319617Y494683D01*
X316867Y491933D01*
X313274Y490445D01*
X309386Y490445D01*
G37*
%LPD*%
%LPC*%
G36*
X48306Y259225D02*
X48306Y259225D01*
X44713Y260713D01*
X41963Y263463D01*
X40475Y267056D01*
X40475Y270944D01*
X41963Y274537D01*
X44713Y277287D01*
X48306Y278775D01*
X68694Y278775D01*
X72287Y277287D01*
X75037Y274537D01*
X76525Y270944D01*
X76525Y267056D01*
X75037Y263463D01*
X72287Y260713D01*
X68694Y259225D01*
X48306Y259225D01*
G37*
%LPD*%
%LPC*%
G36*
X48306Y156225D02*
X48306Y156225D01*
X44713Y157713D01*
X41963Y160463D01*
X40475Y164056D01*
X40475Y167944D01*
X41963Y171537D01*
X44713Y174287D01*
X48306Y175775D01*
X68694Y175775D01*
X72287Y174287D01*
X75037Y171537D01*
X76525Y167944D01*
X76525Y164056D01*
X75037Y160463D01*
X72287Y157713D01*
X68694Y156225D01*
X48306Y156225D01*
G37*
%LPD*%
%LPC*%
G36*
X48306Y106225D02*
X48306Y106225D01*
X44713Y107713D01*
X41963Y110463D01*
X40475Y114056D01*
X40475Y117944D01*
X41963Y121537D01*
X44713Y124287D01*
X48306Y125775D01*
X68694Y125775D01*
X72287Y124287D01*
X75037Y121537D01*
X76525Y117944D01*
X76525Y114056D01*
X75037Y110463D01*
X72287Y107713D01*
X68694Y106225D01*
X48306Y106225D01*
G37*
%LPD*%
%LPC*%
G36*
X430410Y325059D02*
X430410Y325059D01*
X420581Y325059D01*
X425329Y329807D01*
X425431Y329923D01*
X425541Y330032D01*
X425642Y330162D01*
X425750Y330285D01*
X425837Y330413D01*
X425932Y330535D01*
X426016Y330676D01*
X426108Y330812D01*
X426179Y330950D01*
X426258Y331083D01*
X426323Y331233D01*
X426398Y331379D01*
X426450Y331525D01*
X426512Y331667D01*
X426558Y331824D01*
X426614Y331979D01*
X426648Y332130D01*
X426691Y332278D01*
X426717Y332440D01*
X426753Y332600D01*
X426768Y332755D01*
X426792Y332907D01*
X426798Y333071D01*
X426814Y333235D01*
X426809Y333389D01*
X426814Y333544D01*
X426799Y333708D01*
X426794Y333871D01*
X426770Y334024D01*
X426756Y334179D01*
X426721Y334339D01*
X426695Y334501D01*
X426652Y334650D01*
X426619Y334801D01*
X426564Y334955D01*
X426518Y335113D01*
X426457Y335255D01*
X426405Y335401D01*
X426331Y335547D01*
X426266Y335698D01*
X426187Y335831D01*
X426117Y335970D01*
X426026Y336106D01*
X425942Y336247D01*
X425848Y336369D01*
X425761Y336498D01*
X425656Y336618D01*
X425553Y336751D01*
X425434Y336870D01*
X425329Y336990D01*
X422334Y339984D01*
X420884Y343485D01*
X420884Y347275D01*
X422334Y350776D01*
X425014Y353456D01*
X428515Y354906D01*
X432305Y354906D01*
X435806Y353456D01*
X438486Y350776D01*
X439936Y347275D01*
X439936Y343485D01*
X438486Y339984D01*
X435491Y336990D01*
X435389Y336874D01*
X435279Y336764D01*
X435179Y336635D01*
X435070Y336512D01*
X434983Y336384D01*
X434888Y336262D01*
X434804Y336121D01*
X434712Y335985D01*
X434641Y335847D01*
X434562Y335714D01*
X434497Y335564D01*
X434422Y335418D01*
X434370Y335272D01*
X434308Y335130D01*
X434262Y334972D01*
X434206Y334818D01*
X434172Y334667D01*
X434129Y334518D01*
X434103Y334357D01*
X434067Y334197D01*
X434052Y334042D01*
X434028Y333889D01*
X434022Y333725D01*
X434006Y333562D01*
X434011Y333408D01*
X434006Y333253D01*
X434021Y333089D01*
X434026Y332925D01*
X434050Y332772D01*
X434064Y332618D01*
X434099Y332458D01*
X434125Y332296D01*
X434168Y332147D01*
X434201Y331996D01*
X434256Y331842D01*
X434302Y331684D01*
X434363Y331542D01*
X434415Y331396D01*
X434489Y331250D01*
X434554Y331099D01*
X434633Y330965D01*
X434703Y330827D01*
X434794Y330691D01*
X434878Y330550D01*
X434972Y330427D01*
X435059Y330299D01*
X435164Y330179D01*
X435267Y330046D01*
X435386Y329926D01*
X435491Y329807D01*
X440239Y325059D01*
X430410Y325059D01*
X430410Y325059D01*
G37*
%LPD*%
%LPC*%
G36*
X142120Y326329D02*
X142120Y326329D01*
X132291Y326329D01*
X137039Y331077D01*
X137141Y331193D01*
X137251Y331302D01*
X137351Y331432D01*
X137460Y331555D01*
X137547Y331683D01*
X137642Y331805D01*
X137726Y331946D01*
X137818Y332082D01*
X137889Y332220D01*
X137968Y332353D01*
X138033Y332503D01*
X138108Y332649D01*
X138160Y332795D01*
X138222Y332937D01*
X138268Y333094D01*
X138324Y333249D01*
X138358Y333400D01*
X138401Y333548D01*
X138427Y333710D01*
X138463Y333870D01*
X138478Y334024D01*
X138502Y334177D01*
X138508Y334341D01*
X138524Y334504D01*
X138519Y334659D01*
X138524Y334814D01*
X138509Y334977D01*
X138504Y335141D01*
X138480Y335294D01*
X138466Y335449D01*
X138431Y335609D01*
X138405Y335771D01*
X138362Y335920D01*
X138329Y336071D01*
X138274Y336225D01*
X138228Y336383D01*
X138167Y336525D01*
X138115Y336671D01*
X138041Y336817D01*
X137976Y336968D01*
X137897Y337101D01*
X137827Y337240D01*
X137736Y337375D01*
X137652Y337517D01*
X137558Y337639D01*
X137471Y337768D01*
X137366Y337887D01*
X137263Y338021D01*
X137144Y338140D01*
X137039Y338260D01*
X134044Y341254D01*
X132594Y344755D01*
X132594Y348545D01*
X134044Y352046D01*
X136724Y354726D01*
X140225Y356176D01*
X144015Y356176D01*
X147516Y354726D01*
X150196Y352046D01*
X151646Y348545D01*
X151646Y344755D01*
X150196Y341254D01*
X147201Y338260D01*
X147099Y338144D01*
X146989Y338034D01*
X146889Y337905D01*
X146780Y337782D01*
X146693Y337654D01*
X146598Y337532D01*
X146514Y337391D01*
X146422Y337255D01*
X146351Y337117D01*
X146272Y336984D01*
X146207Y336834D01*
X146132Y336688D01*
X146080Y336542D01*
X146018Y336400D01*
X145972Y336242D01*
X145916Y336088D01*
X145882Y335937D01*
X145839Y335788D01*
X145813Y335627D01*
X145777Y335467D01*
X145762Y335312D01*
X145738Y335159D01*
X145732Y334995D01*
X145716Y334832D01*
X145721Y334678D01*
X145716Y334523D01*
X145731Y334359D01*
X145736Y334195D01*
X145760Y334042D01*
X145774Y333888D01*
X145809Y333728D01*
X145835Y333566D01*
X145878Y333417D01*
X145911Y333266D01*
X145966Y333112D01*
X146012Y332954D01*
X146073Y332812D01*
X146125Y332666D01*
X146199Y332520D01*
X146264Y332369D01*
X146343Y332235D01*
X146413Y332097D01*
X146504Y331961D01*
X146588Y331820D01*
X146682Y331697D01*
X146769Y331569D01*
X146874Y331449D01*
X146977Y331316D01*
X147096Y331196D01*
X147201Y331077D01*
X151949Y326329D01*
X142120Y326329D01*
X142120Y326329D01*
G37*
%LPD*%
%LPC*%
G36*
X182696Y280443D02*
X182696Y280443D01*
X180286Y281442D01*
X178442Y283286D01*
X177443Y285696D01*
X177443Y288304D01*
X178442Y290714D01*
X180286Y292558D01*
X182696Y293557D01*
X185304Y293557D01*
X187714Y292558D01*
X189558Y290714D01*
X190557Y288304D01*
X190557Y285696D01*
X189558Y283286D01*
X187714Y281442D01*
X185304Y280443D01*
X182696Y280443D01*
G37*
%LPD*%
%LPC*%
G36*
X157696Y280443D02*
X157696Y280443D01*
X155286Y281442D01*
X153442Y283286D01*
X152443Y285696D01*
X152443Y288304D01*
X153442Y290714D01*
X155286Y292558D01*
X157696Y293557D01*
X160304Y293557D01*
X162714Y292558D01*
X164558Y290714D01*
X165557Y288304D01*
X165557Y285696D01*
X164558Y283286D01*
X162714Y281442D01*
X160304Y280443D01*
X157696Y280443D01*
G37*
%LPD*%
%LPC*%
G36*
X170196Y260443D02*
X170196Y260443D01*
X167786Y261442D01*
X165942Y263286D01*
X164943Y265696D01*
X164943Y268304D01*
X165942Y270714D01*
X167786Y272558D01*
X170196Y273557D01*
X172804Y273557D01*
X175214Y272558D01*
X177058Y270714D01*
X178057Y268304D01*
X178057Y265696D01*
X177058Y263286D01*
X175214Y261442D01*
X172804Y260443D01*
X170196Y260443D01*
G37*
%LPD*%
%LPC*%
G36*
X145196Y260443D02*
X145196Y260443D01*
X142786Y261442D01*
X140942Y263286D01*
X139943Y265696D01*
X139943Y268304D01*
X140942Y270714D01*
X142786Y272558D01*
X145196Y273557D01*
X147804Y273557D01*
X150214Y272558D01*
X152058Y270714D01*
X153057Y268304D01*
X153057Y265696D01*
X152058Y263286D01*
X150214Y261442D01*
X147804Y260443D01*
X145196Y260443D01*
G37*
%LPD*%
%LPC*%
G36*
X132696Y280443D02*
X132696Y280443D01*
X130286Y281442D01*
X128442Y283286D01*
X127443Y285696D01*
X127443Y288304D01*
X128442Y290714D01*
X130286Y292558D01*
X132696Y293557D01*
X135304Y293557D01*
X137714Y292558D01*
X139558Y290714D01*
X140557Y288304D01*
X140557Y285696D01*
X139558Y283286D01*
X137714Y281442D01*
X135304Y280443D01*
X132696Y280443D01*
G37*
%LPD*%
%LPC*%
G36*
X195196Y260443D02*
X195196Y260443D01*
X192786Y261442D01*
X190942Y263286D01*
X189943Y265696D01*
X189943Y268304D01*
X190942Y270714D01*
X192786Y272558D01*
X195196Y273557D01*
X197804Y273557D01*
X200214Y272559D01*
X202059Y270714D01*
X203057Y268304D01*
X203057Y265696D01*
X202058Y263286D01*
X200214Y261442D01*
X197804Y260443D01*
X195196Y260443D01*
G37*
%LPD*%
%LPC*%
G36*
X207696Y280443D02*
X207696Y280443D01*
X205286Y281441D01*
X203441Y283286D01*
X202443Y285696D01*
X202443Y288304D01*
X203442Y290714D01*
X205286Y292558D01*
X207696Y293557D01*
X210304Y293557D01*
X212714Y292558D01*
X214558Y290714D01*
X215557Y288304D01*
X215557Y285696D01*
X214558Y283286D01*
X212714Y281442D01*
X210304Y280443D01*
X207696Y280443D01*
G37*
%LPD*%
%LPC*%
G36*
X163099Y513549D02*
X163099Y513549D01*
X163099Y526243D01*
X163676Y525949D01*
X165050Y524951D01*
X166251Y523750D01*
X167249Y522376D01*
X168020Y520862D01*
X168545Y519247D01*
X168811Y517569D01*
X168811Y513549D01*
X163099Y513549D01*
G37*
%LPD*%
%LPC*%
G36*
X63579Y324079D02*
X63579Y324079D01*
X63579Y329791D01*
X67599Y329791D01*
X69277Y329525D01*
X70892Y329000D01*
X72406Y328229D01*
X73780Y327231D01*
X74981Y326030D01*
X75979Y324656D01*
X76273Y324079D01*
X63579Y324079D01*
G37*
%LPD*%
%LPC*%
G36*
X163099Y503391D02*
X163099Y503391D01*
X168811Y503391D01*
X168811Y499371D01*
X168545Y497693D01*
X168020Y496078D01*
X167249Y494564D01*
X166251Y493190D01*
X165050Y491989D01*
X163676Y490991D01*
X163099Y490697D01*
X163099Y503391D01*
G37*
%LPD*%
%LPC*%
G36*
X40727Y324079D02*
X40727Y324079D01*
X41021Y324656D01*
X42019Y326030D01*
X43220Y327231D01*
X44594Y328229D01*
X46108Y329000D01*
X47723Y329525D01*
X49401Y329791D01*
X53421Y329791D01*
X53421Y324079D01*
X40727Y324079D01*
G37*
%LPD*%
%LPC*%
G36*
X147229Y513549D02*
X147229Y513549D01*
X147229Y517569D01*
X147495Y519247D01*
X148020Y520862D01*
X148791Y522376D01*
X149789Y523750D01*
X150990Y524951D01*
X152364Y525949D01*
X152941Y526243D01*
X152941Y513549D01*
X147229Y513549D01*
G37*
%LPD*%
%LPC*%
G36*
X63579Y308209D02*
X63579Y308209D01*
X63579Y313921D01*
X76273Y313921D01*
X75979Y313344D01*
X74981Y311970D01*
X73780Y310769D01*
X72406Y309771D01*
X70892Y309000D01*
X69277Y308475D01*
X67599Y308209D01*
X63579Y308209D01*
G37*
%LPD*%
%LPC*%
G36*
X152364Y490991D02*
X152364Y490991D01*
X150990Y491989D01*
X149789Y493190D01*
X148791Y494564D01*
X148020Y496078D01*
X147495Y497693D01*
X147229Y499371D01*
X147229Y503391D01*
X152941Y503391D01*
X152941Y490697D01*
X152364Y490991D01*
G37*
%LPD*%
%LPC*%
G36*
X49401Y308209D02*
X49401Y308209D01*
X47723Y308475D01*
X46108Y309000D01*
X44594Y309771D01*
X43220Y310769D01*
X42019Y311970D01*
X41021Y313344D01*
X40727Y313921D01*
X53421Y313921D01*
X53421Y308209D01*
X49401Y308209D01*
G37*
%LPD*%
%LPC*%
G36*
X147199Y316171D02*
X147199Y316171D01*
X151949Y316171D01*
X147199Y311421D01*
X147199Y316171D01*
G37*
%LPD*%
%LPC*%
G36*
X435489Y314901D02*
X435489Y314901D01*
X440239Y314901D01*
X435489Y310151D01*
X435489Y314901D01*
G37*
%LPD*%
%LPC*%
G36*
X132291Y316171D02*
X132291Y316171D01*
X137041Y316171D01*
X137041Y311421D01*
X132291Y316171D01*
G37*
%LPD*%
%LPC*%
G36*
X420581Y314901D02*
X420581Y314901D01*
X425331Y314901D01*
X425331Y310151D01*
X420581Y314901D01*
G37*
%LPD*%
D10*
X430410Y345380D03*
D11*
X430410Y319980D03*
D10*
X142120Y346650D03*
D11*
X142120Y321250D03*
D12*
X311330Y500220D02*
X311330Y516720D01*
X261330Y516720D02*
X261330Y500220D01*
X158020Y500220D02*
X158020Y516720D01*
X108020Y516720D02*
X108020Y500220D01*
X464540Y500220D02*
X464540Y516720D01*
X414540Y516720D02*
X414540Y500220D01*
X66750Y319000D02*
X50250Y319000D01*
X50250Y269000D02*
X66750Y269000D01*
X66750Y166000D02*
X50250Y166000D01*
X50250Y116000D02*
X66750Y116000D01*
D13*
X286500Y164500D03*
X254000Y164500D03*
X219000Y164500D03*
X234000Y207000D03*
X269000Y207000D03*
X304000Y207000D03*
D14*
X310500Y291250D03*
X263000Y291500D03*
X280000Y441250D03*
X295000Y448500D03*
X280000Y423500D03*
X295000Y430750D03*
D15*
X351670Y386020D03*
D14*
X150000Y160000D03*
D16*
X343170Y377520D02*
X351670Y386020D01*
X343170Y377520D02*
X343170Y352770D01*
X150400Y160000D01*
X150000Y160000D01*
D15*
X351670Y373320D03*
D14*
X150000Y135000D03*
D16*
X351670Y349867D02*
X351670Y373320D01*
X351670Y349867D02*
X162500Y160697D01*
X162500Y147500D01*
X150000Y135000D01*
D13*
X104000Y212000D03*
D17*
X104000Y504450D01*
X108020Y508470D01*
D18*
X134000Y287000D03*
X146500Y267000D03*
X159000Y287000D03*
X171500Y267000D03*
X184000Y287000D03*
X196500Y267000D03*
X209000Y287000D03*
D14*
X217050Y363160D03*
D19*
X217050Y372160D02*
X244366Y399476D01*
X217050Y372160D02*
X217050Y363160D01*
X357750Y399476D02*
X375000Y382226D01*
X357750Y399476D02*
X244366Y399476D01*
X375000Y382226D02*
X375000Y158197D01*
D14*
X425000Y110000D03*
D16*
X423197Y110000D01*
X375000Y158197D01*
D14*
X217050Y384750D03*
D19*
X238300Y406000D01*
X361000Y406000D01*
X382000Y385000D01*
X382000Y177460D01*
D14*
X425000Y135000D03*
D16*
X424460Y135000D01*
X382000Y177460D01*
D14*
X183000Y364000D03*
D19*
X231524Y412524D01*
X363702Y412524D02*
X388824Y387402D01*
X388824Y195700D01*
X363702Y412524D02*
X231524Y412524D01*
D14*
X425000Y160000D03*
D16*
X424524Y160000D02*
X388824Y195700D01*
X424524Y160000D02*
X425000Y160000D01*
D14*
X236100Y505400D03*
X337700Y467300D03*
D19*
X264200Y467300D02*
X236100Y495400D01*
X236100Y505400D01*
X264200Y467300D02*
X337700Y467300D01*
D14*
X236100Y467300D03*
X337700Y505400D03*
D19*
X346006Y463860D02*
X341141Y458994D01*
X254974Y467300D02*
X236100Y467300D01*
X263280Y458994D02*
X341141Y458994D01*
X263280Y458994D02*
X254974Y467300D01*
X337700Y505400D02*
X346006Y497094D01*
X346006Y463860D01*
M02*
