G04 EAGLE Gerber RS-274X export*
G75*
%MOMM*%
%FSLAX34Y34*%
%LPD*%
%INSoldermask Top*%
%IPNEG*%
%AMOC8*
5,1,8,0,0,1.08239X$1,22.5*%
G01*
%ADD10C,3.603200*%
%ADD11C,2.203200*%
%ADD12R,1.203200X1.303200*%
%ADD13R,1.303200X1.203200*%
%ADD14C,1.803400*%
%ADD15P,1.951982X8X292.500000*%
%ADD16R,1.003200X0.803200*%
%ADD17R,1.703200X1.703200*%
%ADD18R,1.806000X0.678400*%
%ADD19R,4.648200X8.585200*%
%ADD20R,2.743200X1.473200*%
%ADD21C,1.853200*%
%ADD22C,1.703200*%
%ADD23C,1.059600*%
%ADD24C,0.959600*%
%ADD25C,1.209600*%


D10*
X40000Y40000D03*
X510000Y40000D03*
X519000Y515000D03*
X39000Y515000D03*
D11*
X269120Y91390D03*
X294520Y91390D03*
X294520Y65990D03*
X269120Y65990D03*
X269120Y40590D03*
X294520Y40590D03*
D12*
X196730Y376250D03*
X196730Y393250D03*
X194190Y346260D03*
X194190Y329260D03*
D13*
X218200Y523500D03*
X201200Y523500D03*
D12*
X378340Y344990D03*
X378340Y327990D03*
D13*
X369840Y366970D03*
X386840Y366970D03*
X356600Y523500D03*
X373600Y523500D03*
D14*
X430410Y345380D03*
D15*
X430410Y319980D03*
D14*
X142120Y346650D03*
D15*
X142120Y321250D03*
D16*
X209430Y506280D03*
X209430Y489280D03*
X364370Y506280D03*
X364370Y489280D03*
D17*
X364370Y467020D03*
X364370Y432020D03*
X209430Y467020D03*
X209430Y432020D03*
X360840Y399990D03*
X395840Y399990D03*
D12*
X416830Y399990D03*
X433830Y399990D03*
D13*
X234830Y449130D03*
X234830Y432130D03*
X170060Y393250D03*
X170060Y376250D03*
X338970Y449130D03*
X338970Y432130D03*
D18*
X239355Y389050D03*
X239355Y382550D03*
X239355Y376050D03*
X239355Y369550D03*
X239355Y363050D03*
X239355Y356550D03*
X239355Y350050D03*
X239355Y343550D03*
X239355Y337050D03*
X239355Y330550D03*
X239355Y324050D03*
X239355Y317550D03*
X239355Y311050D03*
X239355Y304550D03*
X239355Y298050D03*
X239355Y291550D03*
X334445Y291550D03*
X334445Y298050D03*
X334445Y304550D03*
X334445Y311050D03*
X334445Y317550D03*
X334445Y324050D03*
X334445Y330550D03*
X334445Y337050D03*
X334445Y343550D03*
X334445Y350050D03*
X334445Y356550D03*
X334445Y363050D03*
X334445Y369550D03*
X334445Y376050D03*
X334445Y382550D03*
X334445Y389050D03*
D19*
X286900Y340300D03*
D20*
X126880Y58910D03*
X126880Y135110D03*
X126880Y160510D03*
X126880Y84310D03*
X126880Y109710D03*
X126880Y185910D03*
X126880Y211310D03*
X126880Y236710D03*
X446880Y58910D03*
X446880Y84310D03*
X446880Y109710D03*
X446880Y135110D03*
X446880Y160510D03*
X446880Y185910D03*
X446880Y211310D03*
X446880Y236710D03*
D21*
X311330Y500220D02*
X311330Y516720D01*
X261330Y516720D02*
X261330Y500220D01*
X158020Y500220D02*
X158020Y516720D01*
X108020Y516720D02*
X108020Y500220D01*
X464540Y500220D02*
X464540Y516720D01*
X414540Y516720D02*
X414540Y500220D01*
X66750Y319000D02*
X50250Y319000D01*
X50250Y269000D02*
X66750Y269000D01*
X66750Y166000D02*
X50250Y166000D01*
X50250Y116000D02*
X66750Y116000D01*
D22*
X286500Y164500D03*
X254000Y164500D03*
X219000Y164500D03*
X234000Y207000D03*
X269000Y207000D03*
X304000Y207000D03*
D23*
X310500Y291250D03*
X263000Y291500D03*
X280000Y441250D03*
X295000Y448500D03*
X280000Y423500D03*
X295000Y430750D03*
D24*
X351670Y386020D03*
D23*
X150000Y160000D03*
D24*
X351670Y373320D03*
D23*
X150000Y135000D03*
D22*
X104000Y212000D03*
D25*
X134000Y287000D03*
X146500Y267000D03*
X159000Y287000D03*
X171500Y267000D03*
X184000Y287000D03*
X196500Y267000D03*
X209000Y287000D03*
D23*
X217050Y363160D03*
X425000Y110000D03*
X217050Y384750D03*
X425000Y135000D03*
X183000Y364000D03*
X425000Y160000D03*
X236100Y505400D03*
X337700Y467300D03*
X236100Y467300D03*
X337700Y505400D03*
M02*
