M48
; DRILL file {KiCad (5.1.6)-1} date 08/24/20 11:42:26
; FORMAT={-:-/ absolute / inch / decimal}
; #@! TF.CreationDate,2020-08-24T11:42:26+02:00
; #@! TF.GenerationSoftware,Kicad,Pcbnew,(5.1.6)-1
; #@! TF.FileFunction,Plated,1,2,PTH
FMAT,2
INCH
T1C0.0118
T2C0.0157
T3C0.0197
T4C0.0236
T5C0.0315
T6C0.0433
T7C0.0571
T8C0.0709
T9C0.0717
T10C0.0728
T11C0.0866
T12C0.1260
%
G90
G05
T1
X1.4675Y-5.7175
X1.4843Y-4.539
X1.5679Y-5.7175
X1.6358Y-4.7923
X1.6673Y-5.7175
X1.6674Y-5.249
X1.6989Y-5.2497
X1.7047Y-3.4203
X1.7264Y-3.1476
X1.7293Y-3.3248
X1.7313Y-5.249
X1.7441Y-3.0496
X1.7628Y-5.249
X1.7638Y-3.1772
X1.7677Y-5.7175
X1.7943Y-5.249
X1.8002Y-3.0581
X1.8219Y-3.4852
X1.8258Y-5.249
X1.8327Y-5.2156
X1.8366Y-4.7923
X1.8406Y-3.0591
X1.8543Y-5.4685
X1.8681Y-5.7175
X1.9512Y-4.539
X1.9675Y-5.7175
X2.0679Y-5.7175
X2.1004Y-4.7913
X2.1191Y-3.4222
X2.1415Y-3.0539
X2.1752Y-5.3868
X2.1805Y-3.4208
X2.1858Y-3.1474
X2.1888Y-3.3246
X2.2067Y-5.3868
X2.2232Y-3.177
X2.2392Y-5.3868
X2.248Y-3.4852
X2.2601Y-3.0583
X2.2717Y-5.3866
X2.2815Y-3.485
X2.2992Y-3.0551
X2.3041Y-4.7913
X2.3044Y-5.386
X2.3278Y-3.1201
X2.3484Y-5.3858
X2.3947Y-5.3858
X2.4181Y-4.539
X2.5689Y-4.7923
X2.6081Y-3.0539
X2.6307Y-3.4201
X2.6524Y-3.1474
X2.6553Y-3.3246
X2.6898Y-3.177
X2.7266Y-3.0591
X2.7478Y-3.485
X2.7717Y-4.7923
X2.7961Y-3.0579
X2.885Y-4.5394
X3.0049Y-1.3681
X3.0335Y-4.7923
X3.0381Y-1.368
X3.0696Y-1.3691
X3.0738Y-3.0531
X3.0965Y-3.4193
X3.1011Y-1.3699
X3.1181Y-3.1467
X3.1211Y-3.3238
X3.1326Y-1.369
X3.1329Y-1.2105
X3.1555Y-3.1762
X3.1641Y-1.3692
X3.1919Y-3.0571
X3.1956Y-1.3689
X3.2136Y-3.4843
X3.2185Y-1.8415
X3.2193Y-1.9231
X3.2195Y-1.875
X3.2268Y-1.9555
X3.2271Y-1.3687
X3.2274Y-1.2105
X3.2382Y-4.7923
X3.2539Y-3.0551
X3.2585Y-1.3701
X3.29Y-1.3714
X3.3228Y-1.2105
X3.3524Y-4.539
X3.4321Y-1.564
X3.4626Y-1.3483
X3.4636Y-1.2105
X3.4852Y-2.0866
X3.4921Y-4.7884
X3.5108Y-1.5638
X3.5246Y-3.4203
X3.531Y-1.9936
X3.5364Y-1.8376
X3.5384Y-3.0531
X3.5581Y-1.3483
X3.5591Y-1.2105
X3.5781Y-3.4199
X3.5807Y-2.1585
X3.5827Y-3.1467
X3.5856Y-3.3238
X3.6046Y-1.5633
X3.6201Y-3.1762
X3.6427Y-3.4843
X3.6526Y-1.3483
X3.6535Y-1.2105
X3.6565Y-3.0571
X3.6781Y-3.4843
X3.6991Y-1.5643
X3.7057Y-4.7884
X3.7096Y-3.0482
X3.7254Y-3.1201
X3.748Y-1.2105
X3.748Y-1.3483
X3.7965Y-1.5633
X3.8081Y-2.4469
X3.8181Y-4.539
X3.8425Y-1.3483
X3.8435Y-1.2105
X3.893Y-1.5633
X3.9094Y-1.6335
X3.938Y-1.3483
X3.939Y-1.2114
X3.95Y-1.6571
X3.9636Y-4.7884
X3.9855Y-1.5635
X4.0069Y-3.0531
X4.0236Y-2.435
X4.0295Y-3.4193
X4.0325Y-1.3483
X4.0335Y-1.2105
X4.0512Y-3.1467
X4.0541Y-3.3238
X4.0886Y-3.1762
X4.1024Y-2.0433
X4.104Y-2.0748
X4.125Y-3.0571
X4.1263Y-1.5586
X4.1467Y-3.4843
X4.1713Y-1.2114
X4.1722Y-4.7884
X4.1742Y-1.3483
X4.1939Y-3.1201
X4.2234Y-1.5581
X4.2638Y-1.2114
X4.2697Y-1.3483
X4.2858Y-4.5386
X4.3169Y-1.5581
X4.3445Y-2.125
X4.3553Y-1.2114
X4.3642Y-1.3483
X4.4168Y-1.5564
X4.4242Y-4.7884
X4.4469Y-1.2124
X4.4596Y-1.3483
X4.473Y-3.0533
X4.4957Y-3.4195
X4.512Y-1.4305
X4.5146Y-1.7567
X4.5173Y-3.1469
X4.5203Y-3.324
X4.5343Y-1.7843
X4.5384Y-1.2134
X4.5547Y-3.1764
X4.5911Y-3.0573
X4.6128Y-3.4844
X4.6368Y-4.5945
X4.6447Y-4.7244
X4.6594Y-3.1201
X4.6748Y-1.4142
X4.6811Y-1.2134
X4.7047Y-3.3455
X4.7252Y-1.4138
X4.729Y-3.3236
X4.753Y-3.4242
X4.7677Y-3.5226
X4.7746Y-1.2134
X4.7776Y-3.3927
X4.9197Y-1.4685
X4.9303Y-1.5846
X5.001Y-3.4488
X5.0315Y-3.2579
X5.0689Y-3.2539
X5.1575Y-3.2746
X5.1614Y-4.5778
X5.2524Y-1.5846
X5.2728Y-1.5598
X5.4429Y-3.4291
X5.4587Y-3.9951
X5.4862Y-3.4301
X5.4931Y-4.0108
X5.5364Y-4.1378
X5.5709Y-3.8858
X5.6063Y-3.8917
X5.6565Y-4.1388
X5.6575Y-4.2274
T2
X1.3812Y-1.8521
X1.3812Y-1.9308
X1.3812Y-2.0096
X1.3812Y-2.0883
X1.3812Y-2.167
X1.3812Y-2.2458
X1.3812Y-2.3245
X1.3812Y-2.4033
X1.3812Y-2.482
X1.3812Y-2.5607
X1.3812Y-2.6395
X1.3812Y-2.7182
X1.3812Y-2.797
X1.3812Y-2.8757
X1.3812Y-2.9544
X1.3812Y-3.0332
X1.3812Y-3.1119
X1.3812Y-3.1907
X1.3812Y-3.2694
X1.3812Y-3.3481
X1.3812Y-3.4269
X1.3812Y-3.5056
X1.3812Y-3.5844
X1.3812Y-3.6631
X1.3812Y-3.7418
X1.3812Y-3.8206
X1.3812Y-3.8993
X1.3812Y-3.9781
X1.3812Y-4.0568
X1.3812Y-4.1356
X1.3812Y-4.2143
X1.3812Y-4.293
X1.3812Y-4.3718
X1.3812Y-4.4505
X1.3812Y-4.5293
X1.3812Y-4.608
X1.3812Y-4.6867
X1.3812Y-4.7655
X1.3812Y-4.8442
X1.3812Y-4.923
X1.3812Y-5.3167
X1.3812Y-5.3954
X1.3812Y-5.6316
X1.3812Y-5.7104
X1.4246Y-5.7918
X1.4697Y-3.6272
X1.4697Y-3.6961
X1.4697Y-3.765
X1.4697Y-3.8339
X1.4697Y-3.9028
X1.4697Y-3.9717
X1.4697Y-4.0406
X1.4697Y-4.1539
X1.4697Y-4.2228
X1.4697Y-4.2917
X1.4697Y-4.3606
X1.4697Y-4.4295
X1.5034Y-5.7918
X1.5386Y-3.6272
X1.5386Y-3.6961
X1.5386Y-3.765
X1.5386Y-3.8339
X1.5386Y-3.9028
X1.5386Y-3.9717
X1.5386Y-4.0406
X1.5386Y-4.1539
X1.5386Y-4.2228
X1.5386Y-4.2917
X1.5386Y-4.3606
X1.5386Y-4.4295
X1.5821Y-5.7918
X1.6075Y-3.6272
X1.6075Y-3.6961
X1.6075Y-3.765
X1.6075Y-3.8339
X1.6075Y-3.9028
X1.6075Y-3.9717
X1.6075Y-4.0406
X1.6075Y-4.1539
X1.6075Y-4.2228
X1.6075Y-4.2917
X1.6075Y-4.3606
X1.6075Y-4.4295
X1.6609Y-5.7918
X1.6764Y-3.6272
X1.6764Y-3.6961
X1.6764Y-3.765
X1.6764Y-3.8339
X1.6764Y-3.9028
X1.6764Y-3.9717
X1.6764Y-4.0406
X1.6764Y-4.1539
X1.6764Y-4.2228
X1.6764Y-4.2917
X1.6764Y-4.3606
X1.6764Y-4.4295
X1.7396Y-5.7918
X1.7453Y-3.6272
X1.7453Y-3.6961
X1.7453Y-3.765
X1.7453Y-3.8339
X1.7453Y-3.9028
X1.7453Y-3.9717
X1.7453Y-4.0406
X1.7453Y-4.1539
X1.7453Y-4.2228
X1.7453Y-4.2917
X1.7453Y-4.3606
X1.7453Y-4.4295
X1.7559Y-2.7677
X1.7559Y-2.8465
X1.7559Y-2.9252
X1.8142Y-3.6272
X1.8142Y-3.6961
X1.8142Y-3.765
X1.8142Y-3.8339
X1.8142Y-3.9028
X1.8142Y-3.9717
X1.8142Y-4.0406
X1.8142Y-4.1539
X1.8142Y-4.2228
X1.8142Y-4.2917
X1.8142Y-4.3606
X1.8142Y-4.4295
X1.8183Y-5.7918
X1.8346Y-2.7677
X1.8346Y-2.8465
X1.8346Y-2.9252
X1.8815Y-1.9364
X1.8815Y-2.0152
X1.8894Y-2.278
X1.8894Y-2.3567
X1.8894Y-2.4354
X1.8971Y-5.7918
X1.9134Y-2.7677
X1.9134Y-2.8465
X1.9134Y-2.9252
X1.9295Y-3.628
X1.9295Y-3.6969
X1.9295Y-3.7657
X1.9295Y-3.8346
X1.9295Y-3.9035
X1.9295Y-3.9724
X1.9295Y-4.0413
X1.9295Y-4.1547
X1.9295Y-4.2236
X1.9295Y-4.2925
X1.9295Y-4.3614
X1.9295Y-4.4303
X1.9602Y-1.8577
X1.9602Y-1.9364
X1.9602Y-2.0152
X1.9681Y-2.278
X1.9681Y-2.3567
X1.9681Y-2.4354
X1.9758Y-5.7918
X1.9921Y-2.7677
X1.9921Y-2.8465
X1.9921Y-2.9252
X1.9984Y-3.628
X1.9984Y-3.6969
X1.9984Y-3.7657
X1.9984Y-3.8346
X1.9984Y-3.9035
X1.9984Y-3.9724
X1.9984Y-4.0413
X1.9984Y-4.1547
X1.9984Y-4.2236
X1.9984Y-4.2925
X1.9984Y-4.3614
X1.9984Y-4.4303
X2.0546Y-5.7918
X2.0673Y-3.628
X2.0673Y-3.6969
X2.0673Y-3.7657
X2.0673Y-3.8346
X2.0673Y-3.9035
X2.0673Y-3.9724
X2.0673Y-4.0413
X2.0673Y-4.1547
X2.0673Y-4.2236
X2.0673Y-4.2925
X2.0673Y-4.3614
X2.0673Y-4.4303
X2.0709Y-2.7677
X2.0709Y-2.8465
X2.0709Y-2.9252
X2.0941Y-1.6972
X2.0941Y-1.776
X2.0941Y-1.8547
X2.0941Y-1.9335
X2.0941Y-2.0122
X2.0941Y-2.0909
X2.0941Y-2.1697
X2.0941Y-2.2484
X2.0941Y-2.3272
X2.0941Y-2.4059
X2.0941Y-2.4846
X2.0941Y-2.5634
X2.1333Y-5.7918
X2.1362Y-3.628
X2.1362Y-3.6969
X2.1362Y-3.7657
X2.1362Y-3.8346
X2.1362Y-3.9035
X2.1362Y-3.9724
X2.1362Y-4.0413
X2.1362Y-4.1547
X2.1362Y-4.2236
X2.1362Y-4.2925
X2.1362Y-4.3614
X2.1362Y-4.4303
X2.1449Y-5.7189
X2.1496Y-2.7677
X2.1496Y-2.8465
X2.1496Y-2.9252
X2.1728Y-1.6972
X2.1728Y-1.776
X2.1728Y-1.8547
X2.1728Y-1.9335
X2.1728Y-2.0122
X2.1728Y-2.0909
X2.1728Y-2.1697
X2.1728Y-2.2484
X2.1728Y-2.3272
X2.1728Y-2.4059
X2.1728Y-2.4846
X2.1728Y-2.5634
X2.2051Y-3.628
X2.2051Y-3.6969
X2.2051Y-3.7657
X2.2051Y-3.8346
X2.2051Y-3.9035
X2.2051Y-3.9724
X2.2051Y-4.0413
X2.2051Y-4.1547
X2.2051Y-4.2236
X2.2051Y-4.2925
X2.2051Y-4.3614
X2.2051Y-4.4303
X2.212Y-5.7918
X2.2283Y-2.7677
X2.2283Y-2.8465
X2.2283Y-2.9252
X2.2382Y-1.6972
X2.2382Y-1.776
X2.2382Y-1.8547
X2.2382Y-1.9335
X2.2382Y-2.0122
X2.2382Y-2.0909
X2.2382Y-2.1697
X2.2382Y-2.2484
X2.2382Y-2.3272
X2.2382Y-2.4059
X2.2382Y-2.4846
X2.2382Y-2.5634
X2.274Y-4.1547
X2.274Y-4.2236
X2.274Y-4.2925
X2.274Y-4.3614
X2.274Y-4.4303
X2.2908Y-5.7918
X2.3071Y-2.6567
X2.3071Y-2.7
X2.3071Y-2.7677
X2.3071Y-2.8465
X2.3071Y-2.9252
X2.3297Y-2.312
X2.3504Y-2.6567
X2.3504Y-2.7
X2.3652Y-2.4173
X2.3652Y-2.4606
X2.3652Y-2.5039
X2.3695Y-5.7918
X2.375Y-1.0866
X2.3858Y-2.7677
X2.3858Y-2.8465
X2.3858Y-2.9252
X2.3937Y-2.6567
X2.3937Y-2.7
X2.3988Y-3.6276
X2.3988Y-3.6965
X2.3988Y-3.7654
X2.3988Y-3.8343
X2.3988Y-3.9031
X2.3988Y-3.972
X2.3988Y-4.0409
X2.3988Y-4.1543
X2.3988Y-4.2232
X2.3988Y-4.2921
X2.3988Y-4.361
X2.3988Y-4.4299
X2.4085Y-2.312
X2.4085Y-2.4173
X2.4085Y-2.4606
X2.4085Y-2.5039
X2.437Y-2.6567
X2.437Y-2.7
X2.4483Y-5.7918
X2.4518Y-2.4173
X2.4518Y-2.4606
X2.4518Y-2.5039
X2.4646Y-2.7677
X2.4646Y-2.8465
X2.4646Y-2.9252
X2.4677Y-3.6276
X2.4677Y-3.6965
X2.4677Y-3.7654
X2.4677Y-3.8343
X2.4677Y-3.9031
X2.4677Y-3.972
X2.4677Y-4.0409
X2.4677Y-4.1543
X2.4677Y-4.2232
X2.4677Y-4.2921
X2.4677Y-4.361
X2.4677Y-4.4299
X2.4803Y-2.6567
X2.4803Y-2.7
X2.4872Y-2.312
X2.4931Y-1.0866
X2.5236Y-2.6567
X2.5236Y-2.7
X2.527Y-5.7918
X2.5366Y-3.6276
X2.5366Y-3.6965
X2.5366Y-3.7654
X2.5366Y-3.8343
X2.5366Y-3.9031
X2.5366Y-3.972
X2.5366Y-4.0409
X2.5366Y-4.1543
X2.5366Y-4.2232
X2.5366Y-4.2921
X2.5366Y-4.361
X2.5366Y-4.4299
X2.5433Y-2.7677
X2.5433Y-2.8465
X2.5433Y-2.9252
X2.5659Y-2.312
X2.5669Y-2.6567
X2.5669Y-2.7
X2.5817Y-2.4173
X2.5817Y-2.4606
X2.5817Y-2.5039
X2.6055Y-3.6276
X2.6055Y-3.6965
X2.6055Y-3.7654
X2.6055Y-3.8343
X2.6055Y-3.9031
X2.6055Y-3.972
X2.6055Y-4.0409
X2.6055Y-4.1543
X2.6055Y-4.2232
X2.6055Y-4.2921
X2.6055Y-4.361
X2.6055Y-4.4299
X2.6057Y-5.7918
X2.6102Y-2.6567
X2.6102Y-2.7
X2.6112Y-1.0866
X2.622Y-2.7677
X2.622Y-2.8465
X2.622Y-2.9252
X2.625Y-2.4173
X2.625Y-2.4606
X2.625Y-2.5039
X2.6447Y-2.312
X2.6535Y-2.6567
X2.6535Y-2.7
X2.6683Y-2.4173
X2.6683Y-2.4606
X2.6683Y-2.5039
X2.6744Y-3.6276
X2.6744Y-3.6965
X2.6744Y-3.7654
X2.6744Y-3.8343
X2.6744Y-3.9031
X2.6744Y-3.972
X2.6744Y-4.0409
X2.6744Y-4.1543
X2.6744Y-4.2232
X2.6744Y-4.2921
X2.6744Y-4.361
X2.6744Y-4.4299
X2.6845Y-5.7918
X2.6969Y-2.6567
X2.6969Y-2.7
X2.7008Y-2.7677
X2.7008Y-2.8465
X2.7008Y-2.9252
X2.7234Y-2.312
X2.7293Y-1.0866
X2.7402Y-2.6567
X2.7402Y-2.7
X2.7433Y-3.6276
X2.7433Y-3.6965
X2.7433Y-3.7654
X2.7433Y-3.8343
X2.7433Y-3.9031
X2.7433Y-3.972
X2.7433Y-4.0409
X2.7433Y-4.1543
X2.7433Y-4.2232
X2.7433Y-4.2921
X2.7433Y-4.361
X2.7433Y-4.4299
X2.7632Y-5.7918
X2.7795Y-2.7677
X2.7795Y-2.8465
X2.7795Y-2.9252
X2.7835Y-2.6567
X2.7835Y-2.7
X2.8022Y-2.312
X2.8022Y-2.4169
X2.8022Y-2.4602
X2.8022Y-2.5035
X2.8268Y-2.6567
X2.8268Y-2.7
X2.842Y-5.7918
X2.8455Y-2.4169
X2.8455Y-2.4602
X2.8455Y-2.5035
X2.8474Y-1.0866
X2.8583Y-2.7677
X2.8583Y-2.8465
X2.8583Y-2.9252
X2.8606Y-3.6268
X2.8606Y-3.6957
X2.8606Y-3.7646
X2.8606Y-3.8335
X2.8606Y-3.9024
X2.8606Y-3.9713
X2.8606Y-4.0402
X2.8606Y-4.1535
X2.8606Y-4.2224
X2.8606Y-4.2913
X2.8606Y-4.3602
X2.8606Y-4.4291
X2.8701Y-2.6567
X2.8701Y-2.7
X2.8809Y-2.312
X2.8888Y-2.4169
X2.8888Y-2.4602
X2.8888Y-2.5035
X2.9134Y-2.6567
X2.9134Y-2.7
X2.9207Y-5.7918
X2.9295Y-3.6268
X2.9295Y-3.6957
X2.9295Y-3.7646
X2.9295Y-3.8335
X2.9295Y-3.9024
X2.9295Y-3.9713
X2.9295Y-4.0402
X2.9295Y-4.1535
X2.9295Y-4.2224
X2.9295Y-4.2913
X2.9295Y-4.3602
X2.9295Y-4.4291
X2.937Y-2.7677
X2.937Y-2.8465
X2.937Y-2.9252
X2.9567Y-2.6567
X2.9567Y-2.7
X2.9596Y-2.312
X2.9656Y-1.0866
X2.9984Y-3.6268
X2.9984Y-3.6957
X2.9984Y-3.7646
X2.9984Y-3.8335
X2.9984Y-3.9024
X2.9984Y-3.9713
X2.9984Y-4.0402
X2.9984Y-4.1535
X2.9984Y-4.2224
X2.9984Y-4.2913
X2.9984Y-4.3602
X2.9984Y-4.4291
X2.9994Y-5.7918
X3.0Y-2.6567
X3.0Y-2.7
X3.0157Y-2.7677
X3.0157Y-2.9252
X3.0222Y-2.4165
X3.0222Y-2.4598
X3.0222Y-2.5031
X3.0384Y-2.312
X3.0433Y-2.6567
X3.0433Y-2.7
X3.0656Y-2.4165
X3.0656Y-2.4598
X3.0656Y-2.5031
X3.0673Y-3.6268
X3.0673Y-3.6957
X3.0673Y-3.7646
X3.0673Y-3.8335
X3.0673Y-3.9024
X3.0673Y-3.9713
X3.0673Y-4.0402
X3.0673Y-4.1535
X3.0673Y-4.2224
X3.0673Y-4.2913
X3.0673Y-4.3602
X3.0673Y-4.4291
X3.0782Y-5.7918
X3.0837Y-1.0866
X3.0866Y-2.6567
X3.0866Y-2.7
X3.1089Y-2.4165
X3.1089Y-2.4598
X3.1089Y-2.5031
X3.1171Y-2.312
X3.1299Y-2.6567
X3.1299Y-2.7
X3.1362Y-3.6268
X3.1362Y-3.6957
X3.1362Y-3.7646
X3.1362Y-3.8335
X3.1362Y-3.9024
X3.1362Y-3.9713
X3.1362Y-4.0402
X3.1362Y-4.1535
X3.1362Y-4.2224
X3.1362Y-4.2913
X3.1362Y-4.3602
X3.1362Y-4.4291
X3.1569Y-5.7918
X3.1732Y-2.6567
X3.1732Y-2.7
X3.1959Y-2.312
X3.2018Y-1.0866
X3.2051Y-3.6268
X3.2051Y-3.6957
X3.2051Y-3.7646
X3.2051Y-3.8335
X3.2051Y-3.9024
X3.2051Y-3.9713
X3.2051Y-4.0402
X3.2051Y-4.1535
X3.2051Y-4.2224
X3.2051Y-4.2913
X3.2051Y-4.3602
X3.2051Y-4.4291
X3.2165Y-2.6567
X3.2165Y-2.7
X3.2357Y-5.7918
X3.2467Y-2.4165
X3.2467Y-2.4598
X3.2467Y-2.5031
X3.2598Y-2.6567
X3.2598Y-2.7
X3.2746Y-2.312
X3.29Y-2.4165
X3.29Y-2.4598
X3.29Y-2.5031
X3.3031Y-2.6567
X3.3031Y-2.7
X3.3144Y-5.7918
X3.3199Y-1.0866
X3.3295Y-3.628
X3.3295Y-3.6969
X3.3295Y-3.7657
X3.3295Y-3.8346
X3.3295Y-3.9035
X3.3295Y-3.9724
X3.3295Y-4.0413
X3.3295Y-4.1547
X3.3295Y-4.2236
X3.3295Y-4.2925
X3.3295Y-4.3614
X3.3295Y-4.4303
X3.3333Y-2.4165
X3.3333Y-2.4598
X3.3333Y-2.5031
X3.3465Y-2.6567
X3.3465Y-2.7
X3.3533Y-2.312
X3.3898Y-2.6567
X3.3898Y-2.7
X3.3931Y-5.7918
X3.3984Y-3.628
X3.3984Y-3.6969
X3.3984Y-3.7657
X3.3984Y-3.8346
X3.3984Y-3.9035
X3.3984Y-3.9724
X3.3984Y-4.0413
X3.3984Y-4.1547
X3.3984Y-4.2236
X3.3984Y-4.2925
X3.3984Y-4.3614
X3.3984Y-4.4303
X3.438Y-1.0866
X3.4673Y-3.628
X3.4673Y-3.6969
X3.4673Y-3.7657
X3.4673Y-3.8346
X3.4673Y-3.9035
X3.4673Y-3.9724
X3.4673Y-4.0413
X3.4673Y-4.1547
X3.4673Y-4.2236
X3.4673Y-4.2925
X3.4673Y-4.3614
X3.4673Y-4.4303
X3.4719Y-5.7918
X3.5362Y-3.628
X3.5362Y-3.6969
X3.5362Y-3.7657
X3.5362Y-3.8346
X3.5362Y-3.9035
X3.5362Y-3.9724
X3.5362Y-4.0413
X3.5362Y-4.1547
X3.5362Y-4.2236
X3.5362Y-4.2925
X3.5362Y-4.3614
X3.5362Y-4.4303
X3.5506Y-5.7918
X3.5561Y-1.0866
X3.6051Y-3.628
X3.6051Y-3.6969
X3.6051Y-3.7657
X3.6051Y-3.8346
X3.6051Y-3.9035
X3.6051Y-3.9724
X3.6051Y-4.0413
X3.6051Y-4.1547
X3.6051Y-4.2236
X3.6051Y-4.2925
X3.6051Y-4.3614
X3.6051Y-4.4303
X3.6126Y-2.3035
X3.6294Y-5.7918
X3.6476Y-1.6768
X3.6575Y-1.8868
X3.674Y-4.1547
X3.674Y-4.2236
X3.674Y-4.2925
X3.674Y-4.3614
X3.674Y-4.4303
X3.6742Y-1.0866
X3.69Y-1.9144
X3.7081Y-5.7918
X3.7868Y-5.7918
X3.7923Y-1.0866
X3.7965Y-3.628
X3.7965Y-3.6969
X3.7965Y-3.7657
X3.7965Y-3.8346
X3.7965Y-3.9035
X3.7965Y-3.9724
X3.7965Y-4.0413
X3.7965Y-4.1547
X3.7965Y-4.2236
X3.7965Y-4.2925
X3.7965Y-4.3614
X3.7965Y-4.4303
X3.812Y-1.873
X3.8128Y-2.6457
X3.8128Y-2.7244
X3.8179Y-2.0069
X3.8189Y-1.9154
X3.8219Y-2.2313
X3.8654Y-3.628
X3.8654Y-3.6969
X3.8654Y-3.7657
X3.8654Y-3.8346
X3.8654Y-3.9035
X3.8654Y-3.9724
X3.8654Y-4.0413
X3.8654Y-4.1547
X3.8654Y-4.2236
X3.8654Y-4.2925
X3.8654Y-4.3614
X3.8654Y-4.4303
X3.8656Y-5.7918
X3.8878Y-4.9341
X3.8915Y-2.6457
X3.8915Y-2.7244
X3.9104Y-1.0866
X3.9343Y-3.628
X3.9343Y-3.6969
X3.9343Y-3.7657
X3.9343Y-3.8346
X3.9343Y-3.9035
X3.9343Y-3.9724
X3.9343Y-4.0413
X3.9343Y-4.1547
X3.9343Y-4.2236
X3.9343Y-4.2925
X3.9343Y-4.3614
X3.9343Y-4.4303
X3.938Y-1.9173
X3.9419Y-1.7343
X3.9443Y-5.7918
X3.9459Y-2.1467
X3.9616Y-2.0935
X3.9703Y-2.6457
X3.9703Y-2.7244
X3.9703Y-2.8031
X3.9703Y-2.8819
X3.998Y-2.3445
X4.0031Y-3.628
X4.0031Y-3.6969
X4.0031Y-3.7657
X4.0031Y-3.8346
X4.0031Y-3.9035
X4.0031Y-3.9724
X4.0031Y-4.0413
X4.0031Y-4.1547
X4.0031Y-4.2236
X4.0031Y-4.2925
X4.0031Y-4.3614
X4.0031Y-4.4303
X4.0138Y-2.3829
X4.0231Y-5.7918
X4.0285Y-1.0866
X4.049Y-2.6457
X4.049Y-2.7244
X4.049Y-2.8031
X4.049Y-2.8819
X4.049Y-2.9606
X4.072Y-3.628
X4.072Y-3.6969
X4.072Y-3.7657
X4.072Y-3.8346
X4.072Y-3.9035
X4.072Y-3.9724
X4.072Y-4.0413
X4.072Y-4.1547
X4.072Y-4.2236
X4.072Y-4.2925
X4.072Y-4.3614
X4.072Y-4.4303
X4.0866Y-2.1954
X4.0889Y-2.1561
X4.0906Y-1.7874
X4.1018Y-5.7918
X4.1278Y-2.7244
X4.1278Y-2.8031
X4.1278Y-2.8819
X4.1278Y-2.9606
X4.1409Y-3.628
X4.1409Y-3.6969
X4.1409Y-3.7657
X4.1409Y-3.8346
X4.1409Y-3.9035
X4.1409Y-3.9724
X4.1409Y-4.0413
X4.1409Y-4.1547
X4.1409Y-4.2236
X4.1409Y-4.2925
X4.1409Y-4.3614
X4.1409Y-4.4303
X4.1467Y-1.0866
X4.1555Y-1.8661
X4.1806Y-5.7918
X4.1841Y-1.9035
X4.2005Y-2.5561
X4.2018Y-2.4941
X4.2065Y-2.7244
X4.2065Y-2.8031
X4.2065Y-2.8819
X4.2065Y-2.9606
X4.2283Y-2.5256
X4.2337Y-2.587
X4.2382Y-4.9577
X4.2593Y-5.7918
X4.2626Y-3.6283
X4.2626Y-3.6972
X4.2626Y-3.7661
X4.2626Y-3.835
X4.2626Y-3.9039
X4.2626Y-3.9728
X4.2626Y-4.0417
X4.2626Y-4.1551
X4.2626Y-4.224
X4.2626Y-4.2929
X4.2626Y-4.3618
X4.2626Y-4.4307
X4.2648Y-1.0866
X4.2852Y-2.7244
X4.2852Y-2.8031
X4.2852Y-2.8819
X4.2852Y-2.9606
X4.3315Y-3.6283
X4.3315Y-3.6972
X4.3315Y-3.7661
X4.3315Y-3.835
X4.3315Y-3.9039
X4.3315Y-3.9728
X4.3315Y-4.0417
X4.3315Y-4.1551
X4.3315Y-4.224
X4.3315Y-4.2929
X4.3315Y-4.3618
X4.3315Y-4.4307
X4.338Y-5.7918
X4.364Y-2.8031
X4.364Y-2.8819
X4.364Y-2.9606
X4.3652Y-1.7746
X4.374Y-2.0177
X4.3829Y-1.0866
X4.3967Y-1.94
X4.4004Y-3.6283
X4.4004Y-3.6972
X4.4004Y-3.7661
X4.4004Y-3.835
X4.4004Y-3.9039
X4.4004Y-3.9728
X4.4004Y-4.0417
X4.4004Y-4.1551
X4.4004Y-4.224
X4.4004Y-4.2929
X4.4004Y-4.3618
X4.4004Y-4.4307
X4.4168Y-5.7918
X4.4427Y-2.8819
X4.4427Y-2.9606
X4.4693Y-3.6283
X4.4693Y-3.6972
X4.4693Y-3.7661
X4.4693Y-3.835
X4.4693Y-3.9039
X4.4693Y-3.9728
X4.4693Y-4.0417
X4.4693Y-4.1551
X4.4693Y-4.224
X4.4693Y-4.2929
X4.4693Y-4.3618
X4.4693Y-4.4307
X4.4955Y-5.7918
X4.4961Y-5.0817
X4.501Y-1.0866
X4.5205Y-5.1701
X4.5215Y-2.9606
X4.5382Y-3.6283
X4.5382Y-3.6972
X4.5382Y-3.7661
X4.5382Y-3.835
X4.5382Y-3.9039
X4.5382Y-3.9728
X4.5382Y-4.0417
X4.5382Y-4.1551
X4.5382Y-4.224
X4.5382Y-4.2929
X4.5382Y-4.3618
X4.5382Y-4.4307
X4.5579Y-2.522
X4.5743Y-5.7918
X4.5965Y-1.9402
X4.5965Y-2.0189
X4.5965Y-2.0976
X4.5965Y-2.1764
X4.6071Y-3.6283
X4.6071Y-3.6972
X4.6071Y-3.7661
X4.6071Y-3.835
X4.6071Y-3.9039
X4.6071Y-3.9728
X4.6071Y-4.0417
X4.6071Y-4.1551
X4.6071Y-4.224
X4.6071Y-4.2929
X4.6071Y-4.3618
X4.6071Y-4.4307
X4.6191Y-1.0866
X4.6366Y-2.522
X4.6366Y-2.6008
X4.653Y-5.7918
X4.6604Y-3.19
X4.6752Y-1.8614
X4.6752Y-1.9402
X4.6752Y-2.0189
X4.6752Y-2.0976
X4.6752Y-2.1764
X4.688Y-3.2224
X4.7154Y-2.522
X4.7154Y-2.6008
X4.7154Y-2.6795
X4.72Y-5.7515
X4.7372Y-1.0866
X4.7539Y-1.8614
X4.7539Y-1.9402
X4.7539Y-2.0189
X4.7539Y-2.0976
X4.7539Y-2.1764
X4.7941Y-2.522
X4.7941Y-2.6008
X4.7941Y-2.6795
X4.7941Y-2.7583
X4.8091Y-1.3994
X4.8327Y-1.8614
X4.8327Y-1.9402
X4.8327Y-2.0189
X4.8327Y-2.0976
X4.8327Y-2.1764
X4.8553Y-1.0866
X4.8573Y-3.2608
X4.8706Y-5.033
X4.8728Y-2.522
X4.8728Y-2.6008
X4.8728Y-2.6795
X4.8728Y-2.7583
X4.8728Y-2.837
X4.882Y-4.102
X4.8976Y-3.2608
X4.8976Y-5.0059
X4.9114Y-1.7827
X4.9114Y-1.8614
X4.9114Y-1.9402
X4.9114Y-2.0189
X4.9114Y-2.0976
X4.9114Y-2.1764
X4.9262Y-4.9774
X4.9301Y-5.1821
X4.9508Y-1.3994
X4.9516Y-2.522
X4.9516Y-2.6008
X4.9516Y-2.6795
X4.9516Y-2.7583
X4.9516Y-2.837
X4.9516Y-2.9157
X4.9567Y-4.9469
X4.9734Y-1.0866
X4.9902Y-1.7039
X4.9902Y-1.7827
X4.9902Y-1.8614
X4.9902Y-1.9402
X4.9902Y-2.0189
X4.9902Y-2.0976
X4.9902Y-2.1764
X4.9956Y-5.1088
X5.0108Y-3.9557
X5.0315Y-3.6043
X5.0407Y-3.9258
X5.0535Y-5.0524
X5.0915Y-1.0866
X5.0994Y-1.3984
X5.1013Y-5.2066
X5.1043Y-5.0035
X5.1083Y-5.7215
X5.1485Y-5.1593
X5.1496Y-4.9591
X5.1781Y-5.7618
X5.1992Y-5.1086
X5.2096Y-1.0866
X5.2146Y-4.7961
X5.2346Y-4.0283
X5.249Y-1.3984
X5.2528Y-5.055
X5.2628Y-5.7598
X5.2728Y-4.0276
X5.2782Y-5.46
X5.3122Y-4.028
X5.3232Y-5.2228
X5.3278Y-1.0866
X5.3383Y-5.4417
X5.3388Y-5.05
X5.3426Y-5.62
X5.3445Y-3.8453
X5.3543Y-5.7598
X5.3758Y-5.1703
X5.3826Y-5.3974
X5.3957Y-1.3975
X5.4213Y-5.6201
X5.4269Y-5.3531
X5.4341Y-5.7598
X5.4362Y-5.05
X5.4459Y-1.0866
X5.4488Y-5.1703
X5.497Y-5.3159
X5.5098Y-5.6201
X5.5157Y-5.7598
X5.5217Y-5.1703
X5.5356Y-5.05
X5.564Y-1.0866
X5.5728Y-5.3159
X5.5797Y-5.62
X5.5965Y-5.7598
X5.6083Y-5.1703
X5.6216Y-5.032
X5.6329Y-4.002
X5.6467Y-5.5994
X5.6506Y-5.3159
X5.6526Y-3.9616
X5.6722Y-5.7569
X5.6791Y-4.0089
X5.6821Y-1.0866
X5.685Y-1.7746
X5.685Y-4.9685
X5.687Y-2.9281
X5.687Y-5.1437
X5.688Y-3.9272
X5.6909Y-2.4321
X5.6934Y-2.6708
X5.6978Y-5.5482
X5.7008Y-3.9715
X5.7028Y-2.2175
X5.7126Y-3.0118
X5.7126Y-3.0906
X5.7126Y-3.1693
X5.7126Y-3.248
X5.7126Y-3.3268
X5.7126Y-3.4055
X5.7126Y-3.4843
X5.7126Y-3.563
X5.7126Y-3.6417
X5.7126Y-3.7205
X5.7126Y-3.7992
X5.7126Y-3.878
X5.7158Y-1.9968
X5.7224Y-5.2904
X5.7303Y-3.937
X5.7313Y-5.6978
X5.7436Y-5.0871
X5.749Y-2.7264
X5.751Y-5.498
X5.7549Y-1.7766
X5.7559Y-2.4498
X5.7628Y-4.8907
X5.7744Y-2.2168
X5.7746Y-5.2382
X5.783Y-5.6462
X5.7987Y-5.4473
X5.8002Y-1.0866
X5.8022Y-2.7795
X5.8054Y-1.9968
X5.814Y-2.5049
X5.8145Y-5.0162
X5.8189Y-2.8543
X5.8189Y-2.9331
X5.8189Y-3.0118
X5.8189Y-3.0906
X5.8189Y-3.1693
X5.8189Y-3.248
X5.8189Y-3.3268
X5.8189Y-3.4055
X5.8189Y-3.4843
X5.8189Y-3.563
X5.8189Y-3.6417
X5.8189Y-3.7205
X5.8189Y-3.7992
X5.8189Y-3.878
X5.8189Y-3.9567
X5.8189Y-4.0354
X5.8189Y-4.1142
X5.8189Y-4.1929
X5.8189Y-4.2717
X5.8189Y-4.3504
X5.8189Y-4.4291
X5.8189Y-4.5079
X5.8189Y-4.5866
X5.8189Y-4.6654
X5.8189Y-4.7441
X5.8189Y-4.8228
X5.8238Y-1.7766
X5.8317Y-5.1811
X5.8445Y-5.5846
X5.8469Y-2.2357
X5.8504Y-5.3996
X5.8745Y-4.9562
X5.877Y-2.5591
X5.8824Y-5.1304
X5.8967Y-5.3514
X5.9035Y-2.002
X5.9035Y-2.2904
X5.9055Y-1.7764
X5.9144Y-5.5148
X5.9183Y-1.0866
X5.9252Y-2.6181
X5.9252Y-2.6969
X5.9252Y-2.7756
X5.9252Y-2.8543
X5.9252Y-2.9331
X5.9252Y-3.0118
X5.9252Y-3.0906
X5.9252Y-3.1693
X5.9252Y-3.248
X5.9252Y-3.3268
X5.9252Y-3.4055
X5.9252Y-3.4843
X5.9252Y-3.563
X5.9252Y-3.6417
X5.9252Y-3.7205
X5.9252Y-3.7992
X5.9252Y-3.878
X5.9252Y-3.9567
X5.9252Y-4.0354
X5.9252Y-4.1142
X5.9252Y-4.1929
X5.9252Y-4.2717
X5.9252Y-4.3504
X5.9252Y-4.4291
X5.9252Y-4.5079
X5.9252Y-4.5866
X5.9252Y-4.6654
X5.9252Y-4.7441
X5.9252Y-4.8228
X5.9252Y-4.9016
X5.9311Y-5.0817
X5.9459Y-5.3022
X5.9528Y-2.3445
X5.9665Y-5.4626
X5.967Y-2.0586
X5.9823Y-1.7776
X5.9877Y-5.0251
X5.998Y-5.251
X6.0044Y-2.3932
X6.0187Y-2.1181
X6.0261Y-5.4031
X6.0266Y-4.9744
X6.0305Y-2.4616
X6.0305Y-2.5404
X6.0305Y-2.6191
X6.0305Y-2.6978
X6.0305Y-2.7766
X6.0305Y-2.8553
X6.0305Y-2.9341
X6.0305Y-3.0128
X6.0305Y-3.0915
X6.0305Y-3.1703
X6.0305Y-3.249
X6.0305Y-3.3278
X6.0305Y-3.4065
X6.0305Y-3.4852
X6.0305Y-3.564
X6.0305Y-3.6427
X6.0305Y-3.7215
X6.0305Y-3.8002
X6.0305Y-3.8789
X6.0305Y-3.9577
X6.0305Y-4.0364
X6.0305Y-4.1152
X6.0305Y-4.1939
X6.0305Y-4.2726
X6.0305Y-4.3514
X6.0305Y-4.4301
X6.0305Y-4.5089
X6.0305Y-4.5876
X6.0305Y-4.6663
X6.0305Y-4.7451
X6.0305Y-4.8238
X6.0305Y-4.9026
X6.0364Y-1.0866
X6.0428Y-1.8204
X6.0512Y-5.2018
X6.0768Y-2.1683
X6.095Y-5.3342
X6.1014Y-1.8799
X6.1024Y-5.1437
X6.1378Y-2.2274
X6.1398Y-2.3041
X6.1398Y-2.3829
X6.1398Y-2.4616
X6.1398Y-2.5404
X6.1398Y-2.6191
X6.1398Y-2.6978
X6.1398Y-2.7766
X6.1398Y-2.8553
X6.1398Y-2.9341
X6.1398Y-3.0128
X6.1398Y-3.0915
X6.1398Y-3.1703
X6.1398Y-3.249
X6.1398Y-3.3278
X6.1398Y-3.4065
X6.1398Y-3.4852
X6.1398Y-3.564
X6.1398Y-3.6427
X6.1398Y-3.7215
X6.1398Y-3.8002
X6.1398Y-3.8789
X6.1398Y-3.9577
X6.1398Y-4.0364
X6.1398Y-4.1152
X6.1398Y-4.1939
X6.1398Y-4.2726
X6.1398Y-4.3514
X6.1398Y-4.4301
X6.1398Y-4.5089
X6.1398Y-4.5876
X6.1398Y-4.6663
X6.1398Y-4.7451
X6.1398Y-4.8238
X6.1398Y-4.9026
X6.1398Y-4.9813
X6.1398Y-5.06
X6.1585Y-1.935
X6.1619Y-5.2672
X6.2121Y-1.9897
X6.2185Y-5.2106
X6.2441Y-2.0679
X6.2441Y-2.1467
X6.2441Y-2.2254
X6.2441Y-2.3041
X6.2441Y-2.3829
X6.2441Y-2.4616
X6.2441Y-2.5404
X6.2441Y-2.6191
X6.2441Y-2.6978
X6.2441Y-2.7766
X6.2441Y-2.8553
X6.2441Y-2.9341
X6.2441Y-3.0128
X6.2441Y-3.0915
X6.2441Y-3.1703
X6.2441Y-3.249
X6.2441Y-3.3278
X6.2441Y-3.4065
X6.2441Y-3.4852
X6.2441Y-3.564
X6.2441Y-3.6427
X6.2441Y-3.7215
X6.2441Y-3.8002
X6.2441Y-3.8789
X6.2441Y-3.9577
X6.2441Y-4.0364
X6.2441Y-4.1152
X6.2441Y-4.1939
X6.2441Y-4.2726
X6.2441Y-4.3514
X6.2441Y-4.4301
X6.2441Y-4.5089
X6.2441Y-4.5876
X6.2441Y-4.6663
X6.2441Y-4.7451
X6.2441Y-4.8238
X6.2441Y-4.9026
X6.2441Y-4.9813
X6.2441Y-5.06
X6.2441Y-5.1388
T3
X1.376Y-5.5167
X1.7156Y-2.3189
X1.7943Y-5.1368
X4.0965Y-1.8652
X4.565Y-1.2853
X4.6447Y-4.6565
X4.6929Y-3.2667
X6.1204Y-1.1944
X6.148Y-1.1276
X6.148Y-1.2612
X6.2149Y-1.0999
X6.2149Y-1.2889
X6.2817Y-1.1276
X6.2817Y-1.2612
X6.3093Y-1.1944
X6.1192Y-5.5644
X6.1469Y-5.4976
X6.1469Y-5.6312
X6.2137Y-5.4699
X6.2137Y-5.6589
X6.2805Y-5.4976
X6.2805Y-5.6312
X6.3082Y-5.5644
X1.3959Y-1.1944
X1.4236Y-1.1276
X1.4236Y-1.2612
X1.4904Y-1.0999
X1.4904Y-1.2889
X1.5572Y-1.1276
X1.5572Y-1.2612
X1.5849Y-1.1944
X1.4213Y-5.0915
X1.4489Y-5.0247
X1.4489Y-5.1583
X1.5157Y-4.997
X1.5157Y-5.186
X1.5826Y-5.0247
X1.5826Y-5.1583
X1.6102Y-5.0915
T4
X5.094Y-3.44
T5
X3.4996Y-2.2795
X3.4996Y-2.5795
T6
X5.7579Y-1.6545
X5.7579Y-2.5994
X5.8858Y-1.6476
X5.8858Y-2.435
X6.002Y-1.6496
X6.002Y-2.2402
X6.124Y-1.6516
X6.124Y-2.065
T7
X4.973Y-4.6224
X4.973Y-4.2209
X5.1699Y-4.7209
X5.3667Y-4.2209
X5.3667Y-4.6224
X4.9068Y-3.7699
X4.9068Y-3.3683
X5.1036Y-3.8683
X5.3005Y-3.3683
X5.3005Y-3.7699
T8
X3.5113Y-5.3025
X3.5113Y-5.6175
X3.59Y-5.46
X3.6687Y-5.3025
X3.6687Y-5.6175
X3.7475Y-5.46
X3.8262Y-5.3025
X3.8262Y-5.6175
X3.905Y-5.46
X3.9837Y-5.3025
X3.9837Y-5.6175
X4.0624Y-5.46
X4.1412Y-5.3025
X4.1412Y-5.6175
X4.2199Y-5.46
X4.2987Y-5.3025
X4.2987Y-5.6175
X4.3774Y-5.46
X4.4561Y-5.3025
X4.4561Y-5.6175
X4.5349Y-5.46
X4.6136Y-5.3025
X4.6136Y-5.6175
X4.6924Y-5.46
X4.7711Y-5.3025
X4.7711Y-5.6175
X4.8498Y-5.46
X4.9286Y-5.3025
X4.9286Y-5.6175
X5.0073Y-5.46
X5.0861Y-5.3025
X5.0861Y-5.6175
X5.1648Y-5.46
X5.2435Y-5.3025
X5.2435Y-5.6175
T9
X2.837Y-2.0069
T10
X2.4878Y-1.8323
X2.4878Y-2.0069
X2.4878Y-2.1815
X2.6624Y-1.8323
X2.6624Y-2.1815
X2.837Y-1.8323
X2.837Y-2.1815
T11
X5.108Y-2.8432
X5.2536Y-2.8432
X5.4229Y-2.8432
X5.5686Y-2.8432
X5.1079Y-1.9968
X5.2536Y-1.9968
X5.4229Y-1.9968
X5.5685Y-1.9968
X5.1075Y-1.7764
X5.2532Y-1.7764
X5.4225Y-1.7764
X5.5681Y-1.7764
X5.108Y-3.0582
X5.2537Y-3.0582
X5.423Y-3.0582
X5.5686Y-3.0582
X5.1079Y-2.6564
X5.2536Y-2.6564
X5.4229Y-2.6564
X5.5685Y-2.6564
X5.1079Y-2.2168
X5.2536Y-2.2168
X5.4229Y-2.2168
X5.5685Y-2.2168
X5.1079Y-2.4368
X5.2536Y-2.4368
X5.4229Y-2.4368
X5.5685Y-2.4368
T12
X6.2137Y-5.5644
X1.4904Y-1.1944
X1.5157Y-5.0915
X6.2149Y-1.1944
T0
M30
