M48
; DRILL file {KiCad (5.1.5)-3} date 22.08.2020 16:57:32
; FORMAT={-:-/ absolute / metric / decimal}
; #@! TF.CreationDate,2020-08-22T16:57:32+02:00
; #@! TF.GenerationSoftware,Kicad,Pcbnew,(5.1.5)-3
FMAT,2
METRIC
T1C0.300
T2C0.400
T3C0.500
T4C0.600
T5C0.800
T6C1.100
T7C1.450
T8C1.800
T9C1.820
T10C1.850
T11C2.200
T12C3.200
T13C0.700
T14C2.200
T15C2.850
T16C5.100
%
G90
G05
T1
X37.275Y-145.225
X37.7Y-115.29
X39.825Y-145.225
X41.55Y-121.725
X42.35Y-145.225
X42.352Y-133.324
X43.151Y-133.343
X43.3Y-86.875
X43.85Y-79.95
X43.925Y-84.45
X43.975Y-133.325
X44.3Y-77.46
X44.775Y-133.325
X44.8Y-80.7
X44.9Y-145.225
X45.575Y-133.325
X45.725Y-77.675
X46.275Y-88.525
X46.375Y-133.325
X46.55Y-132.475
X46.65Y-121.725
X46.75Y-77.7
X47.1Y-138.9
X47.45Y-145.225
X49.56Y-115.29
X49.975Y-145.225
X52.525Y-145.225
X53.35Y-121.7
X53.825Y-86.925
X54.395Y-77.57
X55.25Y-136.825
X55.385Y-86.887
X55.52Y-79.945
X55.595Y-84.445
X56.05Y-136.825
X56.47Y-80.695
X56.875Y-136.824
X57.1Y-88.525
X57.406Y-77.681
X57.7Y-136.82
X57.95Y-88.52
X58.4Y-77.6
X58.525Y-121.7
X58.532Y-136.804
X59.125Y-79.25
X59.65Y-136.8
X60.825Y-136.8
X61.42Y-115.29
X65.25Y-121.725
X66.245Y-77.57
X66.82Y-86.87
X67.37Y-79.945
X67.445Y-84.445
X68.32Y-80.695
X69.256Y-77.7
X69.795Y-88.52
X70.4Y-121.725
X71.02Y-77.67
X73.28Y-115.3
X76.325Y-34.75
X77.05Y-121.725
X77.168Y-34.747
X77.968Y-34.776
X78.075Y-77.55
X78.65Y-86.85
X78.768Y-34.795
X79.2Y-79.925
X79.275Y-84.425
X79.567Y-34.772
X79.575Y-30.746
X80.15Y-80.675
X80.367Y-34.778
X81.075Y-77.65
X81.167Y-34.769
X81.625Y-88.5
X81.75Y-46.775
X81.775Y-47.625
X81.967Y-34.766
X81.975Y-30.746
X82.25Y-121.725
X82.65Y-77.6
X82.766Y-34.8
X83.566Y-34.835
X84.4Y-30.746
X85.15Y-115.29
X87.175Y-39.725
X87.95Y-34.246
X87.975Y-30.746
X88.525Y-53.0
X88.7Y-121.625
X89.175Y-39.721
X89.525Y-86.875
X89.688Y-50.637
X89.825Y-46.675
X89.875Y-77.55
X90.375Y-34.246
X90.4Y-30.746
X90.884Y-86.866
X90.95Y-54.825
X91.0Y-79.925
X91.075Y-84.425
X91.556Y-39.708
X91.95Y-80.675
X92.525Y-88.5
X92.775Y-34.246
X92.8Y-30.746
X92.875Y-77.65
X93.425Y-88.5
X93.956Y-39.733
X94.125Y-121.625
X94.225Y-77.425
X94.625Y-79.25
X95.2Y-30.746
X95.2Y-34.246
X96.431Y-39.708
X96.725Y-62.15
X96.98Y-115.29
X97.6Y-34.246
X97.625Y-30.746
X98.881Y-39.708
X100.025Y-34.246
X100.05Y-30.771
X100.675Y-121.625
X101.232Y-39.714
X101.775Y-77.55
X102.2Y-61.85
X102.35Y-86.85
X102.425Y-34.246
X102.45Y-30.746
X102.9Y-79.925
X102.975Y-84.425
X103.85Y-80.675
X104.2Y-51.9
X104.241Y-52.699
X104.775Y-77.65
X104.807Y-39.589
X105.325Y-88.5
X105.95Y-30.771
X105.975Y-121.625
X106.025Y-34.246
X106.525Y-79.25
X107.275Y-39.575
X108.3Y-30.771
X108.45Y-34.246
X108.86Y-115.28
X109.65Y-39.575
X110.35Y-53.975
X110.625Y-30.771
X110.85Y-34.246
X112.188Y-39.533
X112.375Y-121.625
X112.95Y-30.796
X113.275Y-34.246
X113.615Y-77.555
X114.19Y-86.855
X114.74Y-79.93
X114.815Y-84.43
X115.275Y-30.821
X115.69Y-80.68
X116.615Y-77.655
X117.165Y-88.505
X117.775Y-116.7
X117.975Y-120.0
X118.35Y-79.25
X118.9Y-30.821
X119.5Y-84.975
X120.117Y-84.418
X120.725Y-86.975
X121.1Y-89.475
X121.275Y-30.821
X121.35Y-86.175
X127.025Y-87.6
X127.8Y-82.75
X128.75Y-82.65
X131.0Y-83.175
X131.1Y-116.275
X138.25Y-87.1
X138.65Y-101.475
X139.35Y-87.125
X139.525Y-101.875
X140.625Y-105.1
X141.5Y-98.7
X142.4Y-98.85
X143.675Y-105.125
X143.7Y-107.375
T2
X35.082Y-47.043
X35.082Y-49.043
X35.082Y-51.043
X35.082Y-53.043
X35.082Y-55.043
X35.082Y-57.043
X35.082Y-59.043
X35.082Y-61.043
X35.082Y-63.043
X35.082Y-65.043
X35.082Y-67.043
X35.082Y-69.043
X35.082Y-71.043
X35.082Y-73.043
X35.082Y-75.043
X35.082Y-77.043
X35.082Y-79.043
X35.082Y-81.043
X35.082Y-83.043
X35.082Y-85.043
X35.082Y-87.043
X35.082Y-89.043
X35.082Y-91.043
X35.082Y-93.043
X35.082Y-95.043
X35.082Y-97.043
X35.082Y-99.043
X35.082Y-101.043
X35.082Y-103.043
X35.082Y-105.043
X35.082Y-107.043
X35.082Y-109.043
X35.082Y-111.043
X35.082Y-113.043
X35.082Y-115.043
X35.082Y-117.043
X35.082Y-119.043
X35.082Y-121.043
X35.082Y-123.043
X35.082Y-125.043
X35.082Y-135.043
X35.082Y-137.043
X35.082Y-143.043
X35.082Y-145.043
X36.186Y-147.111
X37.33Y-92.13
X37.33Y-93.88
X37.33Y-95.63
X37.33Y-97.38
X37.33Y-99.13
X37.33Y-100.88
X37.33Y-102.63
X37.33Y-105.51
X37.33Y-107.26
X37.33Y-109.01
X37.33Y-110.76
X37.33Y-112.51
X38.186Y-147.111
X39.08Y-92.13
X39.08Y-93.88
X39.08Y-95.63
X39.08Y-97.38
X39.08Y-99.13
X39.08Y-100.88
X39.08Y-102.63
X39.08Y-105.51
X39.08Y-107.26
X39.08Y-109.01
X39.08Y-110.76
X39.08Y-112.51
X40.186Y-147.111
X40.83Y-92.13
X40.83Y-93.88
X40.83Y-95.63
X40.83Y-97.38
X40.83Y-99.13
X40.83Y-100.88
X40.83Y-102.63
X40.83Y-105.51
X40.83Y-107.26
X40.83Y-109.01
X40.83Y-110.76
X40.83Y-112.51
X42.186Y-147.111
X42.58Y-92.13
X42.58Y-93.88
X42.58Y-95.63
X42.58Y-97.38
X42.58Y-99.13
X42.58Y-100.88
X42.58Y-102.63
X42.58Y-105.51
X42.58Y-107.26
X42.58Y-109.01
X42.58Y-110.76
X42.58Y-112.51
X44.186Y-147.111
X44.33Y-92.13
X44.33Y-93.88
X44.33Y-95.63
X44.33Y-97.38
X44.33Y-99.13
X44.33Y-100.88
X44.33Y-102.63
X44.33Y-105.51
X44.33Y-107.26
X44.33Y-109.01
X44.33Y-110.76
X44.33Y-112.51
X44.6Y-70.3
X44.6Y-72.3
X44.6Y-74.3
X46.08Y-92.13
X46.08Y-93.88
X46.08Y-95.63
X46.08Y-97.38
X46.08Y-99.13
X46.08Y-100.88
X46.08Y-102.63
X46.08Y-105.51
X46.08Y-107.26
X46.08Y-109.01
X46.08Y-110.76
X46.08Y-112.51
X46.186Y-147.111
X46.6Y-70.3
X46.6Y-72.3
X46.6Y-74.3
X47.79Y-49.185
X47.79Y-51.185
X47.99Y-57.86
X47.99Y-59.86
X47.99Y-61.86
X48.186Y-147.111
X48.6Y-70.3
X48.6Y-72.3
X48.6Y-74.3
X49.01Y-92.15
X49.01Y-93.9
X49.01Y-95.65
X49.01Y-97.4
X49.01Y-99.15
X49.01Y-100.9
X49.01Y-102.65
X49.01Y-105.53
X49.01Y-107.28
X49.01Y-109.03
X49.01Y-110.78
X49.01Y-112.53
X49.79Y-47.185
X49.79Y-49.185
X49.79Y-51.185
X49.99Y-57.86
X49.99Y-59.86
X49.99Y-61.86
X50.186Y-147.111
X50.6Y-70.3
X50.6Y-72.3
X50.6Y-74.3
X50.76Y-92.15
X50.76Y-93.9
X50.76Y-95.65
X50.76Y-97.4
X50.76Y-99.15
X50.76Y-100.9
X50.76Y-102.65
X50.76Y-105.53
X50.76Y-107.28
X50.76Y-109.03
X50.76Y-110.78
X50.76Y-112.53
X52.186Y-147.111
X52.51Y-92.15
X52.51Y-93.9
X52.51Y-95.65
X52.51Y-97.4
X52.51Y-99.15
X52.51Y-100.9
X52.51Y-102.65
X52.51Y-105.53
X52.51Y-107.28
X52.51Y-109.03
X52.51Y-110.78
X52.51Y-112.53
X52.6Y-70.3
X52.6Y-72.3
X52.6Y-74.3
X53.19Y-43.11
X53.19Y-45.11
X53.19Y-47.11
X53.19Y-49.11
X53.19Y-51.11
X53.19Y-53.11
X53.19Y-55.11
X53.19Y-57.11
X53.19Y-59.11
X53.19Y-61.11
X53.19Y-63.11
X53.19Y-65.11
X54.186Y-147.111
X54.26Y-92.15
X54.26Y-93.9
X54.26Y-95.65
X54.26Y-97.4
X54.26Y-99.15
X54.26Y-100.9
X54.26Y-102.65
X54.26Y-105.53
X54.26Y-107.28
X54.26Y-109.03
X54.26Y-110.78
X54.26Y-112.53
X54.48Y-145.26
X54.6Y-70.3
X54.6Y-72.3
X54.6Y-74.3
X55.19Y-43.11
X55.19Y-45.11
X55.19Y-47.11
X55.19Y-49.11
X55.19Y-51.11
X55.19Y-53.11
X55.19Y-55.11
X55.19Y-57.11
X55.19Y-59.11
X55.19Y-61.11
X55.19Y-63.11
X55.19Y-65.11
X56.01Y-92.15
X56.01Y-93.9
X56.01Y-95.65
X56.01Y-97.4
X56.01Y-99.15
X56.01Y-100.9
X56.01Y-102.65
X56.01Y-105.53
X56.01Y-107.28
X56.01Y-109.03
X56.01Y-110.78
X56.01Y-112.53
X56.186Y-147.111
X56.6Y-70.3
X56.6Y-72.3
X56.6Y-74.3
X56.85Y-43.11
X56.85Y-45.11
X56.85Y-47.11
X56.85Y-49.11
X56.85Y-51.11
X56.85Y-53.11
X56.85Y-55.11
X56.85Y-57.11
X56.85Y-59.11
X56.85Y-61.11
X56.85Y-63.11
X56.85Y-65.11
X57.76Y-105.53
X57.76Y-107.28
X57.76Y-109.03
X57.76Y-110.78
X57.76Y-112.53
X58.186Y-147.111
X58.6Y-67.48
X58.6Y-68.58
X58.6Y-70.3
X58.6Y-72.3
X58.6Y-74.3
X59.175Y-58.725
X59.7Y-67.48
X59.7Y-68.58
X60.075Y-61.4
X60.075Y-62.5
X60.075Y-63.6
X60.186Y-147.111
X60.325Y-27.6
X60.6Y-70.3
X60.6Y-72.3
X60.6Y-74.3
X60.8Y-67.48
X60.8Y-68.58
X60.93Y-92.14
X60.93Y-93.89
X60.93Y-95.64
X60.93Y-97.39
X60.93Y-99.14
X60.93Y-100.89
X60.93Y-102.64
X60.93Y-105.52
X60.93Y-107.27
X60.93Y-109.02
X60.93Y-110.77
X60.93Y-112.52
X61.175Y-58.725
X61.175Y-61.4
X61.175Y-62.5
X61.175Y-63.6
X61.9Y-67.48
X61.9Y-68.58
X62.186Y-147.111
X62.275Y-61.4
X62.275Y-62.5
X62.275Y-63.6
X62.6Y-70.3
X62.6Y-72.3
X62.6Y-74.3
X62.68Y-92.14
X62.68Y-93.89
X62.68Y-95.64
X62.68Y-97.39
X62.68Y-99.14
X62.68Y-100.89
X62.68Y-102.64
X62.68Y-105.52
X62.68Y-107.27
X62.68Y-109.02
X62.68Y-110.77
X62.68Y-112.52
X63.0Y-67.48
X63.0Y-68.58
X63.175Y-58.725
X63.325Y-27.6
X64.1Y-67.48
X64.1Y-68.58
X64.186Y-147.111
X64.43Y-92.14
X64.43Y-93.89
X64.43Y-95.64
X64.43Y-97.39
X64.43Y-99.14
X64.43Y-100.89
X64.43Y-102.64
X64.43Y-105.52
X64.43Y-107.27
X64.43Y-109.02
X64.43Y-110.77
X64.43Y-112.52
X64.6Y-70.3
X64.6Y-72.3
X64.6Y-74.3
X65.175Y-58.725
X65.2Y-67.48
X65.2Y-68.58
X65.575Y-61.4
X65.575Y-62.5
X65.575Y-63.6
X66.18Y-92.14
X66.18Y-93.89
X66.18Y-95.64
X66.18Y-97.39
X66.18Y-99.14
X66.18Y-100.89
X66.18Y-102.64
X66.18Y-105.52
X66.18Y-107.27
X66.18Y-109.02
X66.18Y-110.77
X66.18Y-112.52
X66.186Y-147.111
X66.3Y-67.48
X66.3Y-68.58
X66.325Y-27.6
X66.6Y-70.3
X66.6Y-72.3
X66.6Y-74.3
X66.675Y-61.4
X66.675Y-62.5
X66.675Y-63.6
X67.175Y-58.725
X67.4Y-67.48
X67.4Y-68.58
X67.775Y-61.4
X67.775Y-62.5
X67.775Y-63.6
X67.93Y-92.14
X67.93Y-93.89
X67.93Y-95.64
X67.93Y-97.39
X67.93Y-99.14
X67.93Y-100.89
X67.93Y-102.64
X67.93Y-105.52
X67.93Y-107.27
X67.93Y-109.02
X67.93Y-110.77
X67.93Y-112.52
X68.186Y-147.111
X68.5Y-67.48
X68.5Y-68.58
X68.6Y-70.3
X68.6Y-72.3
X68.6Y-74.3
X69.175Y-58.725
X69.325Y-27.6
X69.6Y-67.48
X69.6Y-68.58
X69.68Y-92.14
X69.68Y-93.89
X69.68Y-95.64
X69.68Y-97.39
X69.68Y-99.14
X69.68Y-100.89
X69.68Y-102.64
X69.68Y-105.52
X69.68Y-107.27
X69.68Y-109.02
X69.68Y-110.77
X69.68Y-112.52
X70.186Y-147.111
X70.6Y-70.3
X70.6Y-72.3
X70.6Y-74.3
X70.7Y-67.48
X70.7Y-68.58
X71.175Y-58.725
X71.175Y-61.39
X71.175Y-62.49
X71.175Y-63.59
X71.8Y-67.48
X71.8Y-68.58
X72.186Y-147.111
X72.275Y-61.39
X72.275Y-62.49
X72.275Y-63.59
X72.325Y-27.6
X72.6Y-70.3
X72.6Y-72.3
X72.6Y-74.3
X72.66Y-92.12
X72.66Y-93.87
X72.66Y-95.62
X72.66Y-97.37
X72.66Y-99.12
X72.66Y-100.87
X72.66Y-102.62
X72.66Y-105.5
X72.66Y-107.25
X72.66Y-109.0
X72.66Y-110.75
X72.66Y-112.5
X72.9Y-67.48
X72.9Y-68.58
X73.175Y-58.725
X73.375Y-61.39
X73.375Y-62.49
X73.375Y-63.59
X74.0Y-67.48
X74.0Y-68.58
X74.186Y-147.111
X74.41Y-92.12
X74.41Y-93.87
X74.41Y-95.62
X74.41Y-97.37
X74.41Y-99.12
X74.41Y-100.87
X74.41Y-102.62
X74.41Y-105.5
X74.41Y-107.25
X74.41Y-109.0
X74.41Y-110.75
X74.41Y-112.5
X74.6Y-70.3
X74.6Y-72.3
X74.6Y-74.3
X75.1Y-67.48
X75.1Y-68.58
X75.175Y-58.725
X75.325Y-27.6
X76.16Y-92.12
X76.16Y-93.87
X76.16Y-95.62
X76.16Y-97.37
X76.16Y-99.12
X76.16Y-100.87
X76.16Y-102.62
X76.16Y-105.5
X76.16Y-107.25
X76.16Y-109.0
X76.16Y-110.75
X76.16Y-112.5
X76.186Y-147.111
X76.2Y-67.48
X76.2Y-68.58
X76.6Y-70.3
X76.6Y-74.3
X76.765Y-61.38
X76.765Y-62.48
X76.765Y-63.58
X77.175Y-58.725
X77.3Y-67.48
X77.3Y-68.58
X77.865Y-61.38
X77.865Y-62.48
X77.865Y-63.58
X77.91Y-92.12
X77.91Y-93.87
X77.91Y-95.62
X77.91Y-97.37
X77.91Y-99.12
X77.91Y-100.87
X77.91Y-102.62
X77.91Y-105.5
X77.91Y-107.25
X77.91Y-109.0
X77.91Y-110.75
X77.91Y-112.5
X78.186Y-147.111
X78.325Y-27.6
X78.4Y-67.48
X78.4Y-68.58
X78.965Y-61.38
X78.965Y-62.48
X78.965Y-63.58
X79.175Y-58.725
X79.5Y-67.48
X79.5Y-68.58
X79.66Y-92.12
X79.66Y-93.87
X79.66Y-95.62
X79.66Y-97.37
X79.66Y-99.12
X79.66Y-100.87
X79.66Y-102.62
X79.66Y-105.5
X79.66Y-107.25
X79.66Y-109.0
X79.66Y-110.75
X79.66Y-112.5
X80.186Y-147.111
X80.6Y-67.48
X80.6Y-68.58
X81.175Y-58.725
X81.325Y-27.6
X81.41Y-92.12
X81.41Y-93.87
X81.41Y-95.62
X81.41Y-97.37
X81.41Y-99.12
X81.41Y-100.87
X81.41Y-102.62
X81.41Y-105.5
X81.41Y-107.25
X81.41Y-109.0
X81.41Y-110.75
X81.41Y-112.5
X81.7Y-67.48
X81.7Y-68.58
X82.186Y-147.111
X82.465Y-61.38
X82.465Y-62.48
X82.465Y-63.58
X82.8Y-67.48
X82.8Y-68.58
X83.175Y-58.725
X83.565Y-61.38
X83.565Y-62.48
X83.565Y-63.58
X83.9Y-67.48
X83.9Y-68.58
X84.186Y-147.111
X84.325Y-27.6
X84.57Y-92.15
X84.57Y-93.9
X84.57Y-95.65
X84.57Y-97.4
X84.57Y-99.15
X84.57Y-100.9
X84.57Y-102.65
X84.57Y-105.53
X84.57Y-107.28
X84.57Y-109.03
X84.57Y-110.78
X84.57Y-112.53
X84.665Y-61.38
X84.665Y-62.48
X84.665Y-63.58
X85.0Y-67.48
X85.0Y-68.58
X85.175Y-58.725
X86.1Y-67.48
X86.1Y-68.58
X86.186Y-147.111
X86.32Y-92.15
X86.32Y-93.9
X86.32Y-95.65
X86.32Y-97.4
X86.32Y-99.15
X86.32Y-100.9
X86.32Y-102.65
X86.32Y-105.53
X86.32Y-107.28
X86.32Y-109.03
X86.32Y-110.78
X86.32Y-112.53
X87.325Y-27.6
X88.07Y-92.15
X88.07Y-93.9
X88.07Y-95.65
X88.07Y-97.4
X88.07Y-99.15
X88.07Y-100.9
X88.07Y-102.65
X88.07Y-105.53
X88.07Y-107.28
X88.07Y-109.03
X88.07Y-110.78
X88.07Y-112.53
X88.186Y-147.111
X89.82Y-92.15
X89.82Y-93.9
X89.82Y-95.65
X89.82Y-97.4
X89.82Y-99.15
X89.82Y-100.9
X89.82Y-102.65
X89.82Y-105.53
X89.82Y-107.28
X89.82Y-109.03
X89.82Y-110.78
X89.82Y-112.53
X90.186Y-147.111
X90.325Y-27.6
X91.57Y-92.15
X91.57Y-93.9
X91.57Y-95.65
X91.57Y-97.4
X91.57Y-99.15
X91.57Y-100.9
X91.57Y-102.65
X91.57Y-105.53
X91.57Y-107.28
X91.57Y-109.03
X91.57Y-110.78
X91.57Y-112.53
X91.76Y-58.51
X92.186Y-147.111
X92.65Y-42.575
X92.9Y-47.925
X93.32Y-105.53
X93.32Y-107.28
X93.32Y-109.03
X93.32Y-110.78
X93.32Y-112.53
X93.325Y-27.6
X93.725Y-48.625
X94.186Y-147.111
X96.186Y-147.111
X96.325Y-27.6
X96.43Y-92.15
X96.43Y-93.9
X96.43Y-95.65
X96.43Y-97.4
X96.43Y-99.15
X96.43Y-100.9
X96.43Y-102.65
X96.43Y-105.53
X96.43Y-107.28
X96.43Y-109.03
X96.43Y-110.78
X96.43Y-112.53
X96.825Y-47.575
X96.845Y-67.2
X96.845Y-69.2
X96.975Y-50.975
X97.0Y-48.65
X97.075Y-56.675
X98.18Y-92.15
X98.18Y-93.9
X98.18Y-95.65
X98.18Y-97.4
X98.18Y-99.15
X98.18Y-100.9
X98.18Y-102.65
X98.18Y-105.53
X98.18Y-107.28
X98.18Y-109.03
X98.18Y-110.78
X98.18Y-112.53
X98.186Y-147.111
X98.75Y-125.325
X98.845Y-67.2
X98.845Y-69.2
X99.325Y-27.6
X99.93Y-92.15
X99.93Y-93.9
X99.93Y-95.65
X99.93Y-97.4
X99.93Y-99.15
X99.93Y-100.9
X99.93Y-102.65
X99.93Y-105.53
X99.93Y-107.28
X99.93Y-109.03
X99.93Y-110.78
X99.93Y-112.53
X100.025Y-48.7
X100.125Y-44.05
X100.186Y-147.111
X100.225Y-54.525
X100.625Y-53.175
X100.845Y-67.2
X100.845Y-69.2
X100.845Y-71.2
X100.845Y-73.2
X101.55Y-59.55
X101.68Y-92.15
X101.68Y-93.9
X101.68Y-95.65
X101.68Y-97.4
X101.68Y-99.15
X101.68Y-100.9
X101.68Y-102.65
X101.68Y-105.53
X101.68Y-107.28
X101.68Y-109.03
X101.68Y-110.78
X101.68Y-112.53
X101.95Y-60.525
X102.186Y-147.111
X102.325Y-27.6
X102.845Y-67.2
X102.845Y-69.2
X102.845Y-71.2
X102.845Y-73.2
X102.845Y-75.2
X103.43Y-92.15
X103.43Y-93.9
X103.43Y-95.65
X103.43Y-97.4
X103.43Y-99.15
X103.43Y-100.9
X103.43Y-102.65
X103.43Y-105.53
X103.43Y-107.28
X103.43Y-109.03
X103.43Y-110.78
X103.43Y-112.53
X103.799Y-55.764
X103.859Y-54.766
X103.9Y-45.4
X104.186Y-147.111
X104.845Y-69.2
X104.845Y-71.2
X104.845Y-73.2
X104.845Y-75.2
X105.18Y-92.15
X105.18Y-93.9
X105.18Y-95.65
X105.18Y-97.4
X105.18Y-99.15
X105.18Y-100.9
X105.18Y-102.65
X105.18Y-105.53
X105.18Y-107.28
X105.18Y-109.03
X105.18Y-110.78
X105.18Y-112.53
X105.325Y-27.6
X105.55Y-47.4
X106.186Y-147.111
X106.275Y-48.35
X106.693Y-64.925
X106.725Y-63.35
X106.845Y-69.2
X106.845Y-71.2
X106.845Y-73.2
X106.845Y-75.2
X107.4Y-64.15
X107.537Y-65.71
X107.65Y-125.925
X108.175Y-42.1
X108.186Y-147.111
X108.27Y-92.16
X108.27Y-93.91
X108.27Y-95.66
X108.27Y-97.41
X108.27Y-99.16
X108.27Y-100.91
X108.27Y-102.66
X108.27Y-105.54
X108.27Y-107.29
X108.27Y-109.04
X108.27Y-110.79
X108.27Y-112.54
X108.325Y-27.6
X108.845Y-69.2
X108.845Y-71.2
X108.845Y-73.2
X108.845Y-75.2
X110.02Y-92.16
X110.02Y-93.91
X110.02Y-95.66
X110.02Y-97.41
X110.02Y-99.16
X110.02Y-100.91
X110.02Y-102.66
X110.02Y-105.54
X110.02Y-107.29
X110.02Y-109.04
X110.02Y-110.79
X110.02Y-112.54
X110.186Y-147.111
X110.845Y-71.2
X110.845Y-73.2
X110.845Y-75.2
X110.875Y-45.075
X111.1Y-51.25
X111.325Y-27.6
X111.675Y-49.275
X111.77Y-92.16
X111.77Y-93.91
X111.77Y-95.66
X111.77Y-97.41
X111.77Y-99.16
X111.77Y-100.91
X111.77Y-102.66
X111.77Y-105.54
X111.77Y-107.29
X111.77Y-109.04
X111.77Y-110.79
X111.77Y-112.54
X112.186Y-147.111
X112.845Y-73.2
X112.845Y-75.2
X113.52Y-92.16
X113.52Y-93.91
X113.52Y-95.66
X113.52Y-97.41
X113.52Y-99.16
X113.52Y-100.91
X113.52Y-102.66
X113.52Y-105.54
X113.52Y-107.29
X113.52Y-109.04
X113.52Y-110.79
X113.52Y-112.54
X114.186Y-147.111
X114.2Y-129.075
X114.325Y-27.6
X114.82Y-131.32
X114.845Y-75.2
X115.27Y-92.16
X115.27Y-93.91
X115.27Y-95.66
X115.27Y-97.41
X115.27Y-99.16
X115.27Y-100.91
X115.27Y-102.66
X115.27Y-105.54
X115.27Y-107.29
X115.27Y-109.04
X115.27Y-110.79
X115.27Y-112.54
X115.77Y-64.06
X116.186Y-147.111
X116.75Y-49.28
X116.75Y-51.28
X116.75Y-53.28
X116.75Y-55.28
X117.02Y-92.16
X117.02Y-93.91
X117.02Y-95.66
X117.02Y-97.41
X117.02Y-99.16
X117.02Y-100.91
X117.02Y-102.66
X117.02Y-105.54
X117.02Y-107.29
X117.02Y-109.04
X117.02Y-110.79
X117.02Y-112.54
X117.325Y-27.6
X117.77Y-64.06
X117.77Y-66.06
X118.186Y-147.111
X118.375Y-81.025
X118.75Y-47.28
X118.75Y-49.28
X118.75Y-51.28
X118.75Y-53.28
X118.75Y-55.28
X119.075Y-81.85
X119.77Y-64.06
X119.77Y-66.06
X119.77Y-68.06
X119.887Y-146.088
X120.325Y-27.6
X120.75Y-47.28
X120.75Y-49.28
X120.75Y-51.28
X120.75Y-53.28
X120.75Y-55.28
X121.77Y-64.06
X121.77Y-66.06
X121.77Y-68.06
X121.77Y-70.06
X122.15Y-35.546
X122.75Y-47.28
X122.75Y-49.28
X122.75Y-51.28
X122.75Y-53.28
X122.75Y-55.28
X123.325Y-27.6
X123.375Y-82.825
X123.712Y-127.837
X123.77Y-64.06
X123.77Y-66.06
X123.77Y-68.06
X123.77Y-70.06
X123.77Y-72.06
X124.002Y-104.192
X124.4Y-82.825
X124.4Y-127.15
X124.75Y-45.28
X124.75Y-47.28
X124.75Y-49.28
X124.75Y-51.28
X124.75Y-53.28
X124.75Y-55.28
X125.125Y-126.425
X125.225Y-131.625
X125.75Y-35.546
X125.77Y-64.06
X125.77Y-66.06
X125.77Y-68.06
X125.77Y-70.06
X125.77Y-72.06
X125.77Y-74.06
X125.9Y-125.65
X126.325Y-27.6
X126.75Y-43.28
X126.75Y-45.28
X126.75Y-47.28
X126.75Y-49.28
X126.75Y-51.28
X126.75Y-53.28
X126.75Y-55.28
X126.887Y-129.762
X127.275Y-100.475
X127.8Y-91.55
X128.035Y-99.715
X128.36Y-128.33
X129.325Y-27.6
X129.525Y-35.521
X129.572Y-132.247
X129.65Y-127.09
X129.75Y-145.325
X130.772Y-131.047
X130.8Y-125.96
X131.525Y-146.35
X132.06Y-129.76
X132.325Y-27.6
X132.45Y-121.82
X132.96Y-102.32
X133.325Y-35.521
X133.422Y-128.397
X133.675Y-146.3
X133.93Y-102.3
X134.066Y-138.684
X134.93Y-102.31
X135.21Y-132.66
X135.325Y-27.6
X135.594Y-138.219
X135.605Y-128.27
X135.702Y-142.748
X135.75Y-97.67
X136.0Y-146.3
X136.545Y-131.325
X136.719Y-137.094
X137.05Y-35.496
X137.7Y-142.75
X137.844Y-135.969
X138.025Y-146.3
X138.08Y-128.27
X138.325Y-27.6
X138.4Y-131.325
X139.625Y-135.025
X139.95Y-142.75
X140.1Y-146.3
X140.25Y-131.325
X140.605Y-128.27
X141.325Y-27.6
X141.55Y-135.025
X141.725Y-142.748
X142.15Y-146.3
X142.45Y-131.325
X142.787Y-127.812
X143.075Y-101.65
X143.425Y-142.225
X143.525Y-135.025
X143.575Y-100.625
X144.075Y-146.225
X144.25Y-101.825
X144.325Y-27.6
X144.4Y-45.075
X144.4Y-126.2
X144.45Y-74.375
X144.45Y-130.65
X144.475Y-99.75
X144.55Y-61.775
X144.612Y-67.837
X144.725Y-140.925
X144.8Y-100.875
X144.85Y-56.325
X145.1Y-76.5
X145.1Y-78.5
X145.1Y-80.5
X145.1Y-82.5
X145.1Y-84.5
X145.1Y-86.5
X145.1Y-88.5
X145.1Y-90.5
X145.1Y-92.5
X145.1Y-94.5
X145.1Y-96.5
X145.1Y-98.5
X145.182Y-50.718
X145.35Y-134.375
X145.55Y-100.0
X145.575Y-144.725
X145.887Y-129.213
X146.025Y-69.25
X146.075Y-139.65
X146.175Y-45.125
X146.2Y-62.225
X146.375Y-124.225
X146.669Y-56.306
X146.675Y-133.05
X146.887Y-143.412
X147.287Y-138.362
X147.325Y-27.6
X147.375Y-70.6
X147.457Y-50.718
X147.675Y-63.625
X147.688Y-127.412
X147.8Y-72.5
X147.8Y-74.5
X147.8Y-76.5
X147.8Y-78.5
X147.8Y-80.5
X147.8Y-82.5
X147.8Y-84.5
X147.8Y-86.5
X147.8Y-88.5
X147.8Y-90.5
X147.8Y-92.5
X147.8Y-94.5
X147.8Y-96.5
X147.8Y-98.5
X147.8Y-100.5
X147.8Y-102.5
X147.8Y-104.5
X147.8Y-106.5
X147.8Y-108.5
X147.8Y-110.5
X147.8Y-112.5
X147.8Y-114.5
X147.8Y-116.5
X147.8Y-118.5
X147.8Y-120.5
X147.8Y-122.5
X147.925Y-45.125
X148.125Y-131.6
X148.45Y-141.85
X148.512Y-56.787
X148.6Y-137.15
X149.213Y-125.887
X149.275Y-65.0
X149.412Y-130.312
X149.775Y-135.925
X149.95Y-50.85
X149.95Y-58.175
X150.0Y-45.121
X150.225Y-140.075
X150.325Y-27.6
X150.5Y-66.5
X150.5Y-68.5
X150.5Y-70.5
X150.5Y-72.5
X150.5Y-74.5
X150.5Y-76.5
X150.5Y-78.5
X150.5Y-80.5
X150.5Y-82.5
X150.5Y-84.5
X150.5Y-86.5
X150.5Y-88.5
X150.5Y-90.5
X150.5Y-92.5
X150.5Y-94.5
X150.5Y-96.5
X150.5Y-98.5
X150.5Y-100.5
X150.5Y-102.5
X150.5Y-104.5
X150.5Y-106.5
X150.5Y-108.5
X150.5Y-110.5
X150.5Y-112.5
X150.5Y-114.5
X150.5Y-116.5
X150.5Y-118.5
X150.5Y-120.5
X150.5Y-122.5
X150.5Y-124.5
X150.65Y-129.075
X151.025Y-134.675
X151.2Y-59.55
X151.55Y-138.75
X151.562Y-52.287
X151.95Y-45.15
X152.088Y-127.637
X152.35Y-133.375
X152.512Y-60.787
X152.875Y-53.8
X153.062Y-137.237
X153.075Y-126.35
X153.175Y-62.525
X153.175Y-64.525
X153.175Y-66.525
X153.175Y-68.525
X153.175Y-70.525
X153.175Y-72.525
X153.175Y-74.525
X153.175Y-76.525
X153.175Y-78.525
X153.175Y-80.525
X153.175Y-82.525
X153.175Y-84.525
X153.175Y-86.525
X153.175Y-88.525
X153.175Y-90.525
X153.175Y-92.525
X153.175Y-94.525
X153.175Y-96.525
X153.175Y-98.525
X153.175Y-100.525
X153.175Y-102.525
X153.175Y-104.525
X153.175Y-106.525
X153.175Y-108.525
X153.175Y-110.525
X153.175Y-112.525
X153.175Y-114.525
X153.175Y-116.525
X153.175Y-118.525
X153.175Y-120.525
X153.175Y-122.525
X153.175Y-124.525
X153.325Y-27.6
X153.487Y-46.237
X153.7Y-132.125
X154.35Y-55.075
X154.812Y-135.487
X154.975Y-47.75
X155.0Y-130.65
X155.9Y-56.575
X155.95Y-58.525
X155.95Y-60.525
X155.95Y-62.525
X155.95Y-64.525
X155.95Y-66.525
X155.95Y-68.525
X155.95Y-70.525
X155.95Y-72.525
X155.95Y-74.525
X155.95Y-76.525
X155.95Y-78.525
X155.95Y-80.525
X155.95Y-82.525
X155.95Y-84.525
X155.95Y-86.525
X155.95Y-88.525
X155.95Y-90.525
X155.95Y-92.525
X155.95Y-94.525
X155.95Y-96.525
X155.95Y-98.525
X155.95Y-100.525
X155.95Y-102.525
X155.95Y-104.525
X155.95Y-106.525
X155.95Y-108.525
X155.95Y-110.525
X155.95Y-112.525
X155.95Y-114.525
X155.95Y-116.525
X155.95Y-118.525
X155.95Y-120.525
X155.95Y-122.525
X155.95Y-124.525
X155.95Y-126.525
X155.95Y-128.525
X156.425Y-49.15
X156.512Y-133.787
X157.787Y-50.537
X157.95Y-132.35
X158.6Y-52.525
X158.6Y-54.525
X158.6Y-56.525
X158.6Y-58.525
X158.6Y-60.525
X158.6Y-62.525
X158.6Y-64.525
X158.6Y-66.525
X158.6Y-68.525
X158.6Y-70.525
X158.6Y-72.525
X158.6Y-74.525
X158.6Y-76.525
X158.6Y-78.525
X158.6Y-80.525
X158.6Y-82.525
X158.6Y-84.525
X158.6Y-86.525
X158.6Y-88.525
X158.6Y-90.525
X158.6Y-92.525
X158.6Y-94.525
X158.6Y-96.525
X158.6Y-98.525
X158.6Y-100.525
X158.6Y-102.525
X158.6Y-104.525
X158.6Y-106.525
X158.6Y-108.525
X158.6Y-110.525
X158.6Y-112.525
X158.6Y-114.525
X158.6Y-116.525
X158.6Y-118.525
X158.6Y-120.525
X158.6Y-122.525
X158.6Y-124.525
X158.6Y-126.525
X158.6Y-128.525
X158.6Y-130.525
T3
X34.95Y-140.125
X43.575Y-58.9
X45.575Y-130.475
X104.05Y-47.375
X115.95Y-32.646
X117.975Y-118.275
X119.2Y-82.975
X155.457Y-30.337
X156.16Y-28.64
X156.16Y-32.034
X157.857Y-27.937
X157.857Y-32.737
X159.554Y-28.64
X159.554Y-32.034
X160.257Y-30.337
X36.1Y-129.325
X36.803Y-127.628
X36.803Y-131.022
X38.5Y-126.925
X38.5Y-131.725
X40.197Y-127.628
X40.197Y-131.022
X40.9Y-129.325
X155.428Y-141.336
X156.131Y-139.639
X156.131Y-143.033
X157.828Y-138.936
X157.828Y-143.736
X159.525Y-139.639
X159.525Y-143.033
X160.228Y-141.336
X35.457Y-30.337
X36.16Y-28.64
X36.16Y-32.034
X37.857Y-27.937
X37.857Y-32.737
X39.554Y-28.64
X39.554Y-32.034
X40.257Y-30.337
T4
X129.388Y-87.376
T5
X88.89Y-57.9
X88.89Y-65.52
T6
X155.55Y-41.95
X155.55Y-52.45
X149.5Y-41.85
X149.5Y-61.85
X152.45Y-41.9
X152.45Y-56.9
X146.25Y-42.025
X146.25Y-66.025
T7
X126.314Y-117.41
X126.314Y-107.21
X131.314Y-119.91
X136.314Y-107.21
X136.314Y-117.41
X124.632Y-95.755
X124.632Y-85.555
X129.632Y-98.255
X134.632Y-85.555
X134.632Y-95.755
T8
X89.186Y-134.684
X89.186Y-142.684
X91.186Y-138.684
X93.186Y-134.684
X93.186Y-142.684
X95.186Y-138.684
X97.186Y-134.684
X97.186Y-142.684
X99.186Y-138.684
X101.186Y-134.684
X101.186Y-142.684
X103.186Y-138.684
X105.186Y-134.684
X105.186Y-142.684
X107.186Y-138.684
X109.186Y-134.684
X109.186Y-142.684
X111.186Y-138.684
X113.186Y-134.684
X113.186Y-142.684
X115.186Y-138.684
X117.186Y-134.684
X117.186Y-142.684
X119.186Y-138.684
X121.186Y-134.684
X121.186Y-142.684
X123.186Y-138.684
X125.186Y-134.684
X125.186Y-142.684
X127.186Y-138.684
X129.186Y-134.684
X129.186Y-142.684
X131.186Y-138.684
X133.186Y-134.684
X133.186Y-142.684
T9
X72.06Y-50.975
T10
X63.19Y-46.54
X63.19Y-50.975
X63.19Y-55.41
X67.625Y-46.54
X67.625Y-55.41
X72.06Y-46.54
X72.06Y-55.41
T11
X129.74Y-67.472
X133.44Y-67.472
X137.74Y-67.472
X141.44Y-67.472
X129.743Y-77.679
X133.443Y-77.679
X137.743Y-77.679
X141.443Y-77.679
X129.74Y-61.894
X133.44Y-61.894
X137.74Y-61.894
X141.44Y-61.894
X129.73Y-45.121
X133.43Y-45.121
X137.73Y-45.121
X141.43Y-45.121
X129.74Y-50.718
X133.44Y-50.718
X137.74Y-50.718
X141.44Y-50.718
X129.74Y-56.306
X133.44Y-56.306
X137.74Y-56.306
X141.44Y-56.306
X129.742Y-72.216
X133.442Y-72.216
X137.742Y-72.216
X141.442Y-72.216
T12
X38.5Y-129.325
X157.828Y-141.336
X37.857Y-30.337
X157.857Y-30.337
T13
X99.15Y-45.25
X101.75Y-58.25
T14
X80.538Y-43.328
T15
X82.686Y-139.184
X139.686Y-139.184
T16
X67.625Y-50.975
T0
M30
