M48
; DRILL file {KiCad (5.1.4)-1} date 09.03.2020 10:16:11
; FORMAT={-:-/ absolute / metric / decimal}
; #@! TF.CreationDate,2020-03-09T10:16:11+01:00
; #@! TF.GenerationSoftware,Kicad,Pcbnew,(5.1.4)-1
; #@! TF.FileFunction,Plated,1,2,PTH
FMAT,2
METRIC
T1C0.300
T2C0.400
T3C0.500
T4C1.200
T5C1.400
T6C1.450
T7C1.600
T8C1.800
T9C1.820
T10C1.850
T11C2.200
T12C3.200
%
G90
G05
T1
X38.925Y-126.435
X39.078Y-125.273
X41.618Y-120.955
X42.901Y-119.888
X53.302Y-120.955
X54.585Y-119.888
X64.986Y-120.955
X66.269Y-119.888
X75.654Y-53.95
X76.416Y-56.693
X76.517Y-120.447
X77.787Y-80.874
X77.953Y-119.888
X78.295Y-80.213
X78.803Y-79.502
X79.21Y-76.489
X79.21Y-77.251
X79.21Y-78.842
X79.21Y-78.022
X80.023Y-61.417
X81.915Y-62.484
X83.058Y-69.787
X83.058Y-70.548
X83.058Y-71.31
X83.058Y-72.072
X83.058Y-72.834
X83.058Y-73.596
X83.058Y-74.358
X83.058Y-75.12
X83.058Y-75.911
X87.032Y-81.179
X87.757Y-81.343
X88.201Y-120.396
X89.637Y-119.888
X90.297Y-81.725
X91.63Y-81.216
X96.012Y-55.499
X96.584Y-81.331
X96.647Y-56.388
X96.675Y-53.093
X97.091Y-66.294
X97.155Y-54.483
X98.158Y-81.331
X99.822Y-72.453
X99.987Y-120.142
X100.965Y-122.676
X101.321Y-119.888
X102.768Y-75.972
X104.512Y-61.503
X104.521Y-59.055
X104.521Y-60.706
X104.521Y-62.293
X104.521Y-63.055
X104.521Y-59.88
X108.077Y-57.594
X111.468Y-119.583
X113.005Y-119.888
X114.491Y-51.181
X114.554Y-48.133
X115.189Y-131.826
X130.874Y-104.204
X131.191Y-103.441
X131.508Y-102.616
X131.826Y-101.79
X132.08Y-98.615
X132.143Y-100.965
X132.461Y-100.203
X133.096Y-112.141
X133.096Y-112.928
X133.096Y-113.69
X133.096Y-114.452
X133.096Y-116.014
X133.096Y-116.84
X133.109Y-115.214
T2
X37.655Y-83.464
X38.062Y-82.144
X39.027Y-82.906
X42.1Y-114.173
X42.862Y-113.221
X43.864Y-114.046
X45.085Y-109.601
X45.085Y-109.601
X47.625Y-109.284
X48.819Y-68.002
X48.819Y-70.002
X48.819Y-72.002
X48.819Y-74.002
X48.819Y-76.002
X48.819Y-82.002
X48.819Y-84.002
X48.819Y-86.002
X48.819Y-88.002
X48.819Y-90.002
X48.819Y-92.002
X48.819Y-94.002
X48.819Y-96.002
X49.657Y-119.253
X50.165Y-109.516
X50.819Y-68.002
X50.819Y-70.002
X50.819Y-72.002
X50.819Y-74.002
X50.819Y-76.002
X50.819Y-82.002
X50.819Y-84.002
X50.819Y-86.002
X50.819Y-88.002
X50.819Y-90.002
X50.819Y-92.002
X50.819Y-94.002
X50.819Y-96.002
X52.819Y-68.002
X52.819Y-70.002
X52.819Y-72.002
X52.819Y-74.002
X52.819Y-76.002
X52.819Y-82.002
X52.819Y-84.002
X52.819Y-86.002
X52.819Y-88.002
X52.819Y-90.002
X52.819Y-92.002
X52.819Y-94.002
X52.819Y-96.002
X53.911Y-116.014
X54.546Y-113.221
X54.819Y-66.002
X54.819Y-68.002
X54.819Y-70.002
X54.819Y-72.002
X54.819Y-74.002
X54.819Y-76.002
X54.819Y-78.002
X54.819Y-80.002
X54.819Y-82.002
X54.819Y-84.002
X54.819Y-86.002
X54.819Y-88.002
X54.819Y-90.002
X54.819Y-92.002
X54.819Y-94.002
X54.819Y-96.002
X55.548Y-114.046
X56.261Y-116.078
X56.769Y-109.601
X56.769Y-109.601
X56.819Y-66.002
X56.819Y-68.002
X56.819Y-70.002
X56.819Y-72.002
X56.819Y-74.002
X56.819Y-76.002
X56.819Y-78.002
X56.819Y-80.002
X56.819Y-82.002
X58.819Y-66.002
X58.819Y-68.002
X58.819Y-70.002
X58.819Y-72.002
X58.819Y-74.002
X58.819Y-76.002
X58.819Y-78.002
X58.819Y-80.002
X58.819Y-82.002
X59.309Y-109.41
X60.819Y-66.002
X60.819Y-68.002
X60.819Y-70.002
X60.819Y-72.002
X60.819Y-76.002
X60.819Y-78.002
X60.819Y-80.002
X60.819Y-82.002
X61.341Y-119.253
X61.849Y-109.347
X62.819Y-66.002
X62.819Y-68.002
X62.819Y-70.002
X62.819Y-72.002
X62.819Y-76.002
X62.819Y-78.002
X62.819Y-80.002
X62.819Y-82.002
X64.819Y-66.002
X64.819Y-68.002
X64.819Y-70.002
X64.819Y-72.002
X64.819Y-76.002
X64.819Y-78.002
X64.819Y-80.002
X64.819Y-82.002
X65.596Y-116.014
X66.23Y-113.221
X66.819Y-66.002
X66.819Y-68.002
X66.819Y-70.002
X66.819Y-72.002
X66.819Y-76.002
X66.819Y-78.002
X66.819Y-80.002
X66.819Y-82.002
X67.232Y-114.046
X67.373Y-52.019
X68.453Y-109.601
X68.453Y-109.601
X68.453Y-109.601
X69.837Y-86.449
X69.837Y-88.449
X69.837Y-90.449
X69.837Y-92.449
X69.837Y-94.449
X69.837Y-96.449
X70.993Y-109.347
X71.615Y-86.449
X71.615Y-88.449
X71.615Y-90.449
X71.615Y-92.449
X71.615Y-94.449
X71.615Y-96.449
X73.025Y-119.253
X73.165Y-51.867
X73.533Y-109.347
X73.615Y-86.449
X73.615Y-88.449
X73.615Y-90.449
X73.615Y-92.449
X73.615Y-94.449
X73.615Y-96.449
X75.615Y-86.449
X75.615Y-88.449
X75.615Y-90.449
X75.615Y-92.449
X75.615Y-94.449
X75.615Y-96.449
X77.267Y-113.221
X77.279Y-116.014
X77.615Y-88.449
X77.615Y-90.449
X77.615Y-92.449
X77.615Y-94.449
X77.615Y-96.449
X78.092Y-114.071
X79.615Y-88.449
X79.615Y-90.449
X79.615Y-92.449
X79.615Y-94.449
X79.615Y-96.449
X79.629Y-116.078
X79.629Y-44.831
X80.137Y-109.601
X80.137Y-109.601
X81.615Y-88.449
X81.615Y-90.449
X81.615Y-92.449
X81.615Y-94.449
X81.615Y-96.449
X82.042Y-44.831
X82.677Y-109.347
X83.384Y-58.733
X83.615Y-88.449
X83.615Y-90.449
X83.615Y-92.449
X83.615Y-94.449
X83.615Y-96.449
X84.455Y-44.831
X84.455Y-61.849
X84.709Y-119.253
X85.217Y-109.347
X85.471Y-61.849
X85.615Y-88.449
X85.615Y-90.449
X85.615Y-92.449
X85.615Y-94.449
X85.615Y-96.449
X86.868Y-44.831
X87.615Y-88.449
X87.615Y-90.449
X87.615Y-92.449
X87.615Y-94.449
X87.615Y-96.449
X88.9Y-61.976
X88.963Y-116.014
X89.281Y-44.831
X89.599Y-113.221
X89.615Y-88.449
X89.615Y-90.449
X89.615Y-92.449
X89.615Y-94.449
X89.615Y-96.449
X90.297Y-61.976
X90.6Y-114.046
X91.313Y-116.078
X91.44Y-61.976
X91.615Y-88.449
X91.615Y-90.449
X91.615Y-92.449
X91.615Y-94.449
X91.615Y-96.449
X91.694Y-44.831
X91.821Y-109.601
X91.821Y-109.601
X92.456Y-116.459
X93.615Y-88.449
X93.615Y-90.449
X93.615Y-92.449
X93.615Y-94.449
X93.615Y-96.449
X93.789Y-78.892
X94.107Y-44.831
X94.424Y-109.347
X94.501Y-81.585
X95.615Y-88.449
X95.615Y-90.449
X95.615Y-92.449
X95.615Y-94.449
X95.615Y-96.449
X96.393Y-119.253
X96.901Y-109.347
X97.615Y-88.449
X97.615Y-90.449
X97.615Y-92.449
X97.615Y-94.449
X97.615Y-96.449
X98.108Y-60.706
X98.158Y-64.351
X98.209Y-41.961
X99.615Y-88.449
X99.615Y-90.449
X99.615Y-92.449
X99.615Y-94.449
X99.615Y-96.449
X100.546Y-41.961
X101.282Y-113.221
X101.562Y-60.858
X101.615Y-88.449
X101.615Y-90.449
X101.615Y-92.449
X101.615Y-94.449
X101.615Y-96.449
X102.284Y-114.046
X102.883Y-41.91
X103.505Y-109.601
X103.505Y-109.601
X103.615Y-88.449
X103.615Y-90.449
X103.615Y-92.449
X103.615Y-94.449
X103.615Y-96.449
X104.14Y-116.459
X105.27Y-41.961
X105.615Y-88.449
X105.615Y-90.449
X105.615Y-92.449
X105.615Y-94.449
X105.615Y-96.449
X106.045Y-109.347
X107.615Y-88.449
X107.615Y-90.449
X107.615Y-92.449
X107.615Y-94.449
X107.615Y-96.449
X107.658Y-41.91
X108.077Y-119.253
X108.267Y-49.835
X108.585Y-109.347
X109.615Y-88.449
X109.615Y-90.449
X109.615Y-92.449
X109.615Y-94.449
X109.615Y-96.449
X111.366Y-51.867
X111.459Y-48.599
X111.615Y-90.449
X111.615Y-92.449
X111.615Y-94.449
X111.615Y-96.449
X112.331Y-116.014
X112.382Y-41.91
X112.687Y-49.327
X112.9Y-48.133
X112.966Y-113.221
X113.615Y-92.449
X113.615Y-94.449
X113.615Y-96.449
X113.968Y-114.046
X114.336Y-41.852
X115.189Y-109.601
X115.615Y-92.449
X115.615Y-94.449
X115.615Y-96.449
X115.824Y-116.459
X116.802Y-43.942
X117.615Y-92.449
X117.615Y-94.449
X117.615Y-96.449
X117.729Y-109.347
X117.818Y-43.392
X118.834Y-42.833
X119.126Y-109.347
X119.615Y-92.449
X119.615Y-94.449
X119.615Y-96.449
X119.697Y-42.172
X119.761Y-119.253
X120.612Y-41.554
X124.574Y-94.894
X125.4Y-93.942
X129.476Y-91.44
X129.616Y-90.322
X129.731Y-108.267
X129.921Y-87.122
X131.064Y-91.821
X132.461Y-91.338
X132.817Y-87.122
X132.918Y-90.424
X133.393Y-88.908
X134.264Y-85.395
X134.518Y-91.338
X134.557Y-87.122
X135.653Y-91.821
X136.906Y-91.567
X137.927Y-92.46
X137.935Y-49.022
X139.408Y-48.616
X140.678Y-53.569
X141.662Y-52.303
X142.735Y-55.905
X143.675Y-54.508
X144.463Y-57.379
X145.351Y-56.185
X146.418Y-59.436
X146.876Y-57.76
X147.625Y-55.715
X147.688Y-53.302
X147.688Y-54.508
T3
X49.543Y-130.15
X51.168Y-132.588
X77.94Y-136.398
X79.362Y-136.398
X96.266Y-71.628
X97.32Y-48.082
X98.084Y-70.876
X99.695Y-62.992
X100.584Y-61.976
X101.155Y-69.24
X102.73Y-69.19
X129.032Y-105.346
X129.984Y-106.236
X140.335Y-40.513
X141.732Y-41.783
X143.129Y-43.18
X145.428Y-137.336
X146.131Y-135.639
X146.131Y-139.033
X147.828Y-134.936
X147.828Y-139.736
X149.525Y-135.639
X149.525Y-139.033
X150.228Y-137.336
X35.457Y-141.336
X36.16Y-139.639
X36.16Y-143.033
X37.857Y-138.936
X37.857Y-143.736
X39.554Y-139.639
X39.554Y-143.033
X40.257Y-141.336
X145.457Y-40.337
X146.16Y-38.64
X146.16Y-42.034
X147.857Y-37.937
X147.857Y-42.737
X149.554Y-38.64
X149.554Y-42.034
X150.257Y-40.337
X35.457Y-40.337
X36.16Y-38.64
X36.16Y-42.034
X37.857Y-37.937
X37.857Y-42.737
X39.554Y-38.64
X39.554Y-42.034
X40.257Y-40.337
T4
X39.525Y-70.33
X39.525Y-72.806
X41.084Y-100.521
X41.084Y-108.204
X41.084Y-109.982
X45.123Y-98.044
X55.944Y-98.095
X67.831Y-98.044
X79.718Y-97.993
X91.402Y-98.095
X102.933Y-98.044
X114.668Y-97.892
X125.793Y-116.586
X125.793Y-118.364
X127.521Y-126.695
X134.747Y-119.634
X134.747Y-121.539
X134.747Y-123.38
X137.16Y-119.38
X137.16Y-121.221
X137.16Y-123.063
T5
X44.704Y-41.656
X54.864Y-41.656
X44.704Y-51.054
X54.864Y-51.054
X44.704Y-46.228
X54.864Y-46.228
X44.704Y-55.626
X54.864Y-55.626
T6
X56.769Y-136.271
X56.769Y-146.471
X61.769Y-133.771
X66.769Y-146.471
X66.769Y-136.271
X42.926Y-136.271
X42.926Y-146.471
X47.926Y-133.771
X52.926Y-146.471
X52.926Y-136.271
T7
X73.279Y-40.513
X73.279Y-43.053
X138.811Y-146.177
X140.97Y-146.177
X143.129Y-146.177
T8
X89.186Y-134.684
X89.186Y-142.684
X91.186Y-138.684
X93.186Y-134.684
X93.186Y-142.684
X95.186Y-138.684
X97.186Y-134.684
X97.186Y-142.684
X99.186Y-138.684
X101.186Y-134.684
X101.186Y-142.684
X103.186Y-138.684
X105.186Y-134.684
X105.186Y-142.684
X107.186Y-138.684
X109.186Y-134.684
X109.186Y-142.684
X111.186Y-138.684
X113.186Y-134.684
X113.186Y-142.684
X115.186Y-138.684
X117.186Y-134.684
X117.186Y-142.684
X119.186Y-138.684
X121.186Y-134.684
X121.186Y-142.684
X123.186Y-138.684
X125.186Y-134.684
X125.186Y-142.684
X127.186Y-138.684
X129.186Y-134.684
X129.186Y-142.684
X131.186Y-138.684
X133.186Y-134.684
X133.186Y-142.684
T9
X66.294Y-89.535
T10
X57.424Y-85.1
X57.424Y-89.535
X57.424Y-93.97
X61.859Y-85.1
X61.859Y-93.97
X66.294Y-85.1
X66.294Y-93.97
T11
X119.546Y-80.381
X123.246Y-80.381
X127.546Y-80.381
X131.246Y-80.381
X119.618Y-69.977
X123.318Y-69.977
X127.618Y-69.977
X131.318Y-69.977
X119.618Y-47.381
X123.318Y-47.381
X127.618Y-47.381
X131.318Y-47.381
X119.546Y-74.793
X123.246Y-74.793
X127.546Y-74.793
X131.246Y-74.793
X119.618Y-58.811
X123.318Y-58.811
X127.618Y-58.811
X131.318Y-58.811
X119.618Y-53.223
X123.318Y-53.223
X127.618Y-53.223
X131.318Y-53.223
X119.618Y-64.399
X123.318Y-64.399
X127.618Y-64.399
X131.318Y-64.399
T12
X147.828Y-137.336
X37.857Y-141.336
X147.857Y-40.337
X37.857Y-40.337
T0
M30
