M48
; DRILL file {KiCad (5.1.4)-1} date 29.01.2020 10:38:08
; FORMAT={-:-/ absolute / metric / decimal}
; #@! TF.CreationDate,2020-01-29T10:38:08+01:00
; #@! TF.GenerationSoftware,Kicad,Pcbnew,(5.1.4)-1
; #@! TF.FileFunction,Plated,1,2,PTH
FMAT,2
METRIC
T1C0.300
T2C0.400
T3C0.500
T4C1.400
T5C1.450
T6C1.600
T7C1.800
T8C1.820
T9C1.850
T10C2.200
T11C3.200
%
G90
G05
T1
X96.012Y-55.499
X96.647Y-56.388
X96.675Y-53.093
X97.155Y-54.483
T2
X38.608Y-84.836
X39.751Y-84.328
X41.148Y-84.074
X43.752Y-124.015
X44.577Y-98.298
X44.704Y-124.587
X45.085Y-109.601
X45.085Y-109.601
X45.466Y-116.713
X45.72Y-124.587
X46.355Y-116.205
X47.371Y-124.587
X47.625Y-109.601
X48.387Y-136.652
X48.895Y-116.205
X49.657Y-124.841
X50.165Y-109.347
X53.975Y-124.841
X54.102Y-114.046
X55.245Y-112.903
X55.372Y-124.841
X55.753Y-116.586
X56.261Y-98.298
X56.769Y-109.601
X56.769Y-109.601
X56.896Y-124.714
X57.15Y-116.713
X58.039Y-116.205
X59.055Y-124.587
X59.309Y-109.601
X60.071Y-124.587
X61.849Y-109.347
X65.786Y-114.046
X66.167Y-121.031
X66.802Y-41.402
X66.929Y-112.903
X67.437Y-116.586
X67.691Y-61.087
X68.453Y-109.601
X68.453Y-109.601
X68.453Y-109.601
X68.58Y-123.804
X68.834Y-116.713
X69.723Y-116.205
X70.739Y-124.587
X70.993Y-109.601
X71.374Y-98.044
X71.755Y-124.587
X72.263Y-80.264
X73.172Y-79.355
X73.251Y-55.972
X73.279Y-52.07
X73.475Y-137.668
X73.533Y-109.347
X74.803Y-77.343
X75.67Y-78.058
X76.327Y-83.058
X76.708Y-78.359
X76.825Y-84.596
X76.835Y-56.007
X77.343Y-124.714
X77.47Y-114.046
X77.597Y-138.176
X77.636Y-78.359
X78.105Y-49.149
X78.613Y-112.903
X78.74Y-124.777
X79.121Y-116.586
X79.629Y-44.831
X79.629Y-98.298
X80.137Y-109.601
X80.137Y-109.601
X80.264Y-78.74
X80.264Y-123.888
X80.518Y-116.713
X80.899Y-66.167
X80.899Y-67.183
X80.899Y-68.199
X80.899Y-69.215
X80.899Y-70.231
X80.899Y-71.247
X80.899Y-72.263
X80.899Y-73.279
X80.899Y-74.295
X81.026Y-124.714
X81.28Y-78.74
X81.407Y-116.205
X81.534Y-60.452
X81.915Y-62.484
X82.042Y-44.831
X82.296Y-78.74
X82.423Y-124.587
X82.677Y-109.601
X83.439Y-84.582
X83.439Y-124.587
X84.455Y-44.831
X84.455Y-61.849
X84.455Y-83.439
X85.217Y-109.347
X85.471Y-61.849
X86.868Y-44.831
X88.138Y-120.142
X88.265Y-83.566
X88.265Y-84.582
X88.773Y-121.412
X88.9Y-61.976
X89.154Y-114.046
X89.281Y-44.831
X90.297Y-61.976
X90.297Y-112.903
X90.805Y-116.586
X91.313Y-98.298
X91.44Y-61.976
X91.694Y-44.831
X91.821Y-109.601
X91.821Y-109.601
X91.948Y-124.697
X92.202Y-116.713
X92.837Y-76.327
X93.091Y-116.205
X93.472Y-77.47
X93.726Y-83.566
X93.726Y-84.582
X93.98Y-76.327
X94.107Y-44.831
X94.107Y-124.587
X94.361Y-109.601
X95.758Y-124.46
X96.393Y-80.518
X96.901Y-109.347
X98.044Y-124.714
X98.552Y-83.439
X98.552Y-84.582
X99.187Y-71.12
X100.838Y-114.046
X100.965Y-121.158
X101.219Y-57.023
X101.473Y-47.752
X101.473Y-64.389
X101.981Y-83.439
X101.981Y-112.903
X102.489Y-116.586
X102.616Y-47.752
X102.997Y-98.298
X103.505Y-109.601
X103.505Y-109.601
X103.632Y-124.714
X103.759Y-47.752
X103.759Y-75.946
X103.886Y-116.713
X104.504Y-59.58
X104.521Y-58.547
X104.521Y-60.579
X104.521Y-61.595
X104.521Y-62.611
X104.521Y-63.627
X104.775Y-74.93
X104.775Y-116.205
X105.791Y-124.587
X106.045Y-109.601
X106.172Y-47.752
X106.934Y-130.048
X107.442Y-124.206
X108.204Y-47.752
X108.585Y-109.347
X110.49Y-47.752
X112.141Y-40.132
X112.522Y-114.046
X112.84Y-124.714
X112.9Y-48.133
X113.411Y-38.963
X113.665Y-98.298
X113.665Y-112.903
X114.173Y-116.459
X114.173Y-124.714
X114.554Y-48.133
X114.935Y-51.054
X115.189Y-109.601
X115.189Y-131.826
X115.422Y-124.058
X115.57Y-116.713
X116.459Y-116.205
X117.729Y-109.601
X119.126Y-109.347
X119.634Y-127.127
X123.698Y-91.821
X123.698Y-92.9
X123.698Y-93.98
X123.698Y-95.123
X123.698Y-96.266
X123.698Y-97.409
X128.27Y-99.314
X129.286Y-98.831
X129.616Y-90.322
X129.921Y-87.122
X130.302Y-99.441
X131.064Y-91.491
X131.191Y-103.759
X131.319Y-102.487
X131.826Y-114.554
X131.826Y-115.57
X131.826Y-116.586
X131.826Y-117.602
X131.826Y-118.618
X131.826Y-119.634
X131.843Y-120.65
X132.08Y-101.6
X132.461Y-91.338
X132.817Y-87.122
X132.918Y-90.424
X133.096Y-100.838
X133.393Y-88.908
X133.934Y-83.566
X134.264Y-85.395
X134.493Y-87.122
X134.518Y-91.338
X135.653Y-91.821
X136.017Y-44.577
X136.906Y-91.567
X137.16Y-45.212
X137.927Y-92.46
X138.176Y-51.054
X138.43Y-45.847
X139.573Y-46.609
X140.716Y-47.244
T3
X38.862Y-131.445
X43.688Y-127.635
X48.197Y-128.46
X96.266Y-71.628
X97.79Y-71.247
X99.695Y-62.992
X100.584Y-61.976
X102.743Y-71.755
X103.124Y-70.485
X103.124Y-84.455
X126.365Y-121.539
X128.397Y-108.585
X129.286Y-110.109
X140.335Y-40.513
X141.732Y-41.783
X143.129Y-43.18
X146.558Y-57.404
X146.685Y-144.272
X147.828Y-56.769
X148.082Y-144.272
X145.428Y-137.336
X146.131Y-135.639
X146.131Y-139.033
X147.828Y-134.936
X147.828Y-139.736
X149.525Y-135.639
X149.525Y-139.033
X150.228Y-137.336
X35.457Y-40.337
X36.16Y-38.64
X36.16Y-42.034
X37.857Y-37.937
X37.857Y-42.737
X39.554Y-38.64
X39.554Y-42.034
X40.257Y-40.337
X145.457Y-40.337
X146.16Y-38.64
X146.16Y-42.034
X147.857Y-37.937
X147.857Y-42.737
X149.554Y-38.64
X149.554Y-42.034
X150.257Y-40.337
X35.457Y-141.336
X36.16Y-139.639
X36.16Y-143.033
X37.857Y-138.936
X37.857Y-143.736
X39.554Y-139.639
X39.554Y-143.033
X40.257Y-141.336
T4
X44.704Y-41.656
X54.864Y-41.656
X44.704Y-55.626
X54.864Y-55.626
X44.704Y-46.228
X54.864Y-46.228
X44.704Y-51.054
X54.864Y-51.054
T5
X56.769Y-136.271
X56.769Y-146.471
X61.769Y-133.771
X66.769Y-146.471
X66.769Y-136.271
X42.926Y-136.271
X42.926Y-146.471
X47.926Y-133.771
X52.926Y-146.471
X52.926Y-136.271
T6
X39.624Y-69.342
X39.624Y-72.136
X39.624Y-74.93
X73.251Y-67.056
X73.251Y-69.624
X73.279Y-40.513
X73.279Y-43.053
X73.279Y-64.516
X126.365Y-106.172
X126.365Y-108.331
X126.365Y-110.49
X134.747Y-120.142
X134.747Y-122.174
X134.747Y-124.206
X137.16Y-118.999
X137.16Y-121.031
X137.16Y-123.063
X138.811Y-146.177
X140.97Y-146.177
X143.129Y-146.177
T7
X89.186Y-134.684
X89.186Y-142.684
X91.186Y-138.684
X93.186Y-134.684
X93.186Y-142.684
X95.186Y-138.684
X97.186Y-134.684
X97.186Y-142.684
X99.186Y-138.684
X101.186Y-134.684
X101.186Y-142.684
X103.186Y-138.684
X105.186Y-134.684
X105.186Y-142.684
X107.186Y-138.684
X109.186Y-134.684
X109.186Y-142.684
X111.186Y-138.684
X113.186Y-134.684
X113.186Y-142.684
X115.186Y-138.684
X117.186Y-134.684
X117.186Y-142.684
X119.186Y-138.684
X121.186Y-134.684
X121.186Y-142.684
X123.186Y-138.684
X125.186Y-134.684
X125.186Y-142.684
X127.186Y-138.684
X129.186Y-134.684
X129.186Y-142.684
X131.186Y-138.684
X133.186Y-134.684
X133.186Y-142.684
T8
X66.294Y-89.535
T9
X57.424Y-85.1
X57.424Y-89.535
X57.424Y-93.97
X61.859Y-85.1
X61.859Y-93.97
X66.294Y-85.1
X66.294Y-93.97
T10
X119.618Y-69.977
X123.318Y-69.977
X127.618Y-69.977
X131.318Y-69.977
X119.618Y-47.381
X123.318Y-47.381
X127.618Y-47.381
X131.318Y-47.381
X119.546Y-80.381
X123.246Y-80.381
X127.546Y-80.381
X131.246Y-80.381
X119.618Y-58.811
X123.318Y-58.811
X127.618Y-58.811
X131.318Y-58.811
X119.618Y-53.223
X123.318Y-53.223
X127.618Y-53.223
X131.318Y-53.223
X119.618Y-64.399
X123.318Y-64.399
X127.618Y-64.399
X131.318Y-64.399
X119.546Y-74.793
X123.246Y-74.793
X127.546Y-74.793
X131.246Y-74.793
T11
X147.828Y-137.336
X37.857Y-40.337
X147.857Y-40.337
X37.857Y-141.336
T0
M30
