G04 #@! TF.GenerationSoftware,KiCad,Pcbnew,(5.1.4)-1*
G04 #@! TF.CreationDate,2020-01-29T10:38:12+01:00*
G04 #@! TF.ProjectId,AR20_PDM_v1,41523230-5f50-4444-9d5f-76312e6b6963,rev?*
G04 #@! TF.SameCoordinates,Original*
G04 #@! TF.FileFunction,Legend,Bot*
G04 #@! TF.FilePolarity,Positive*
%FSLAX46Y46*%
G04 Gerber Fmt 4.6, Leading zero omitted, Abs format (unit mm)*
G04 Created by KiCad (PCBNEW (5.1.4)-1) date 2020-01-29 10:38:12*
%MOMM*%
%LPD*%
G04 APERTURE LIST*
%ADD10C,0.300000*%
%ADD11C,0.150000*%
%ADD12C,0.120000*%
%ADD13C,0.200000*%
%ADD14C,0.127000*%
G04 APERTURE END LIST*
D10*
X92173000Y-89528000D02*
X92123000Y-89208000D01*
X92098254Y-89005818D02*
X92082018Y-88755258D01*
X92137672Y-89236894D02*
G75*
G02X92098254Y-89005818I1797031J425442D01*
G01*
X111254019Y-76789773D02*
X111358586Y-76908328D01*
X111403101Y-76621002D02*
X111306395Y-76343672D01*
X108828594Y-74461926D02*
G75*
G02X109989551Y-75439442I-5835669J-8108972D01*
G01*
X88278477Y-89324000D02*
X88243893Y-89501263D01*
X88323821Y-89499000D02*
X88278477Y-89324000D01*
X88446424Y-89891767D02*
G75*
G02X88323821Y-89499000I3940522J1445555D01*
G01*
X88581036Y-90142437D02*
G75*
G02X88446424Y-89891768I814344J598789D01*
G01*
X88729213Y-90263707D02*
G75*
G02X88581035Y-90142437I162484J349699D01*
G01*
X88891397Y-90270898D02*
G75*
G02X88729213Y-90263707I-72362J200506D01*
G01*
X89008409Y-90194635D02*
G75*
G02X88891397Y-90270898I-220444J210335D01*
G01*
X89120071Y-90049406D02*
G75*
G02X89008408Y-90194635I-735313J449824D01*
G01*
X89195031Y-89891018D02*
G75*
G02X89120072Y-90049406I-774885J269788D01*
G01*
X89193249Y-89777469D02*
G75*
G02X89195030Y-89891018I-154295J-59209D01*
G01*
X89169290Y-89728047D02*
G75*
G02X89193249Y-89777469I-278069J-165321D01*
G01*
X89145485Y-89713727D02*
G75*
G02X89169290Y-89728047I-1429J-29322D01*
G01*
X89111370Y-89722091D02*
G75*
G02X89145485Y-89713727I31118J-53164D01*
G01*
X89034490Y-89769736D02*
X89111370Y-89722092D01*
X88974249Y-89806341D02*
X89034490Y-89769736D01*
X88974248Y-89806341D02*
G75*
G02X88938208Y-89818601I-50943J90654D01*
G01*
X88938208Y-89818601D02*
G75*
G02X88918808Y-89810960I-3012J20802D01*
G01*
X88918808Y-89810960D02*
G75*
G02X88910765Y-89787653I28475J22868D01*
G01*
X88910766Y-89787653D02*
G75*
G02X88949372Y-89670447I204690J-2462D01*
G01*
X88949373Y-89670447D02*
G75*
G02X89054593Y-89573748I287262J-206981D01*
G01*
X89054593Y-89573748D02*
G75*
G02X89189034Y-89526807I180616J-301301D01*
G01*
X89189034Y-89526807D02*
G75*
G02X89309409Y-89548685I26227J-197795D01*
G01*
X89309409Y-89548685D02*
G75*
G02X89396665Y-89628723I-112524J-210253D01*
G01*
X89396665Y-89628723D02*
G75*
G02X89440553Y-89745261I-241766J-157581D01*
G01*
X89440553Y-89745261D02*
G75*
G02X89435784Y-89891218I-414262J-59521D01*
G01*
X89435784Y-89891218D02*
G75*
G02X89382190Y-90055231I-784552J165603D01*
G01*
X89382190Y-90055231D02*
G75*
G02X89198576Y-90328176I-893831J403061D01*
G01*
X89198575Y-90328175D02*
G75*
G02X88955237Y-90481753I-426102J405575D01*
G01*
X88955237Y-90481754D02*
G75*
G02X88703513Y-90485583I-132037J403957D01*
G01*
X88703513Y-90485582D02*
G75*
G02X88490677Y-90346629I123961J422349D01*
G01*
X88490678Y-90346629D02*
G75*
G02X88375848Y-90167850I634038J533509D01*
G01*
X88375848Y-90167850D02*
G75*
G02X88286844Y-89933670I1431331J678004D01*
G01*
X88286843Y-89933670D02*
G75*
G02X88237288Y-89694318I1470277J429212D01*
G01*
X88237288Y-89694318D02*
G75*
G02X88243893Y-89501263I607279J75863D01*
G01*
X96776130Y-78059598D02*
X96660000Y-78105605D01*
X96776130Y-78059597D02*
G75*
G02X96800047Y-78056978I16824J-43114D01*
G01*
X96800046Y-78056978D02*
G75*
G02X96804443Y-78067756I-1040J-6710D01*
G01*
X96762122Y-78121443D02*
X96804443Y-78067756D01*
X96762122Y-78121442D02*
G75*
G02X96671070Y-78192745I-209786J174106D01*
G01*
X96671069Y-78192745D02*
G75*
G02X96518329Y-78252240I-451233J932645D01*
G01*
X96518330Y-78252239D02*
G75*
G02X96353539Y-78287831I-305686J1016047D01*
G01*
X96353538Y-78287831D02*
G75*
G02X96221319Y-78284148I-54772J408820D01*
G01*
X96154316Y-78280298D02*
G75*
G02X96221319Y-78284148I18944J-255258D01*
G01*
X96084793Y-78293422D02*
G75*
G02X96154316Y-78280297I92844J-301109D01*
G01*
X96012585Y-78323855D02*
G75*
G02X96084794Y-78293422I188109J-345455D01*
G01*
X95937563Y-78371640D02*
G75*
G02X96012584Y-78323854I385621J-522617D01*
G01*
X95872968Y-78416908D02*
X95937563Y-78371641D01*
X95805049Y-78459839D02*
X95872968Y-78416908D01*
X95743200Y-78495037D02*
X95805049Y-78459839D01*
X95743201Y-78495037D02*
G75*
G02X95700691Y-78513813I-140957J261623D01*
G01*
X95700691Y-78513813D02*
G75*
G02X95610809Y-78511564I-41978J119562D01*
G01*
X95610809Y-78511564D02*
G75*
G02X95497319Y-78446886I190018J465337D01*
G01*
X95497318Y-78446887D02*
G75*
G02X95396781Y-78348810I340909J450032D01*
G01*
X95396781Y-78348810D02*
G75*
G02X95344128Y-78243709I221868J176890D01*
G01*
X95330533Y-78181708D02*
X95344128Y-78243709D01*
X95330533Y-78181709D02*
G75*
G02X95340763Y-78171867I8410J1496D01*
G01*
X95340763Y-78171867D02*
G75*
G02X95365603Y-78184851I-11323J-51917D01*
G01*
X95453217Y-78267503D02*
X95365603Y-78184851D01*
X95568761Y-78364590D02*
G75*
G02X95453217Y-78267503I686109J933834D01*
G01*
X95648126Y-78389973D02*
G75*
G02X95568761Y-78364590I-1904J130813D01*
G01*
X95731390Y-78363563D02*
G75*
G02X95648126Y-78389974I-85467J124990D01*
G01*
X95865756Y-78261501D02*
G75*
G02X95731390Y-78363563I-1090200J1295781D01*
G01*
X95865755Y-78261500D02*
G75*
G02X95963317Y-78189199I634154J-753737D01*
G01*
X95963318Y-78189199D02*
G75*
G02X96045280Y-78151600I168827J-259896D01*
G01*
X96045280Y-78151601D02*
G75*
G02X96139923Y-78137012I102623J-351465D01*
G01*
X96282092Y-78139936D02*
X96139923Y-78137012D01*
X96388089Y-78142341D02*
X96282092Y-78139936D01*
X96497427Y-78136424D02*
X96388089Y-78142341D01*
X96594832Y-78123902D02*
X96497427Y-78136424D01*
X96660000Y-78105605D02*
G75*
G02X96594832Y-78123902I-116484J289670D01*
G01*
X87051338Y-69303408D02*
X87031340Y-69376608D01*
X87051338Y-69303407D02*
G75*
G02X87069023Y-69275285I60756J-18585D01*
G01*
X87069022Y-69275285D02*
G75*
G02X87088559Y-69274618I10156J-11013D01*
G01*
X87088559Y-69274618D02*
G75*
G02X87112669Y-69301608I-68980J-85884D01*
G01*
X87112669Y-69301608D02*
G75*
G02X87154878Y-69439093I-230995J-146139D01*
G01*
X87154878Y-69439094D02*
G75*
G02X87128614Y-69597029I-409917J-12983D01*
G01*
X87128614Y-69597028D02*
G75*
G02X87039911Y-69744619I-450070J170044D01*
G01*
X87039911Y-69744620D02*
G75*
G02X86904803Y-69851782I-363417J319438D01*
G01*
X86842267Y-69882348D02*
X86904803Y-69851782D01*
X86842267Y-69882349D02*
G75*
G02X86829538Y-69874369I-3676J8279D01*
G01*
X86829537Y-69874369D02*
G75*
G02X86835777Y-69845140I61984J2048D01*
G01*
X86900272Y-69714668D02*
X86835777Y-69845140D01*
X86939456Y-69630887D02*
X86900272Y-69714668D01*
X86978182Y-69536713D02*
X86939456Y-69630887D01*
X87011029Y-69446538D02*
X86978182Y-69536713D01*
X87031339Y-69376608D02*
G75*
G02X87011029Y-69446538I-767816J185090D01*
G01*
X89225318Y-71604865D02*
G75*
G02X89330910Y-71629350I-34999J-390858D01*
G01*
X89096754Y-71604173D02*
G75*
G02X89225318Y-71604865I60171J-764478D01*
G01*
X88961414Y-71625798D02*
G75*
G02X89096754Y-71604173I202717J-834407D01*
G01*
X88834999Y-71668382D02*
G75*
G02X88961414Y-71625797I308461J-706743D01*
G01*
X88611319Y-71818407D02*
G75*
G02X88835000Y-71668383I525801J-542192D01*
G01*
X88406491Y-72065124D02*
G75*
G02X88611318Y-71818407I1241779J-822555D01*
G01*
X88259654Y-72349238D02*
G75*
G02X88406491Y-72065124I1383316J-534930D01*
G01*
X88210279Y-72611500D02*
G75*
G02X88259654Y-72349238I733621J-2338D01*
G01*
X88291796Y-72695088D02*
G75*
G02X88210278Y-72611500I1824J83322D01*
G01*
X88534589Y-72666125D02*
G75*
G02X88291796Y-72695088I-223702J843142D01*
G01*
X88827234Y-72552988D02*
G75*
G02X88534590Y-72666125I-660585J1273647D01*
G01*
X89056821Y-72386896D02*
G75*
G02X88827234Y-72552989I-672473J687821D01*
G01*
X89244725Y-72163045D02*
G75*
G02X89056820Y-72386896I-1228168J840154D01*
G01*
X89367171Y-71924103D02*
G75*
G02X89244725Y-72163045I-1001384J362314D01*
G01*
X89400342Y-71729309D02*
G75*
G02X89367170Y-71924103I-556473J-5457D01*
G01*
X89330910Y-71629350D02*
G75*
G02X89400342Y-71729309I-38765J-101020D01*
G01*
X88469516Y-70937432D02*
X88408121Y-71121947D01*
X88517573Y-70778346D02*
X88469516Y-70937432D01*
X88555195Y-70642305D02*
X88517573Y-70778346D01*
X88549810Y-70622145D02*
G75*
G02X88555195Y-70642305I-14735J-14735D01*
G01*
X88534593Y-70620014D02*
G75*
G02X88549810Y-70622145I6196J-11151D01*
G01*
X88499903Y-70642098D02*
G75*
G02X88534593Y-70620014I201994J-278999D01*
G01*
X88457663Y-70676654D02*
G75*
G02X88499903Y-70642099I313650J-340322D01*
G01*
X88411861Y-70722020D02*
X88457662Y-70676653D01*
X88354157Y-70778454D02*
X88411861Y-70722020D01*
X88273908Y-70847842D02*
X88354157Y-70778454D01*
X88186198Y-70918074D02*
X88273908Y-70847842D01*
X88104005Y-70978155D02*
X88186198Y-70918074D01*
X87911350Y-71111665D02*
X88104005Y-70978155D01*
X88048175Y-71355282D02*
X87911350Y-71111665D01*
X88102736Y-71448652D02*
X88048175Y-71355282D01*
X88153426Y-71527351D02*
X88102736Y-71448652D01*
X88197959Y-71590588D02*
X88153426Y-71527351D01*
X88214342Y-71598949D02*
G75*
G02X88197959Y-71590588I34J20297D01*
G01*
X88229713Y-71588751D02*
G75*
G02X88214341Y-71598950I-15343J6442D01*
G01*
X88283367Y-71458851D02*
X88229713Y-71588751D01*
X88342966Y-71304833D02*
X88283367Y-71458851D01*
X88408121Y-71121947D02*
X88342966Y-71304833D01*
X85977410Y-68548987D02*
G75*
G02X86156896Y-68499397I621373J-1899392D01*
G01*
X86156896Y-68499397D02*
G75*
G02X86325277Y-68471798I312037J-1376274D01*
G01*
X86325277Y-68471797D02*
G75*
G02X86521494Y-68461372I204640J-1999814D01*
G01*
X86794722Y-68465352D02*
X86521494Y-68461372D01*
X87097094Y-68480820D02*
X86794722Y-68465352D01*
X87097093Y-68480820D02*
G75*
G02X87277108Y-68506826I-84033J-1217728D01*
G01*
X87277108Y-68506826D02*
G75*
G02X87434245Y-68556871I-197848J-892945D01*
G01*
X87642405Y-68653172D02*
X87434245Y-68556871D01*
X87845134Y-68765857D02*
X87642405Y-68653172D01*
X87845135Y-68765857D02*
G75*
G02X87988136Y-68870738I-535415J-879950D01*
G01*
X87988136Y-68870738D02*
G75*
G02X88064435Y-68958312I-283995J-324456D01*
G01*
X88064436Y-68958311D02*
G75*
G02X88058231Y-69017143I-38986J-25632D01*
G01*
X88058231Y-69017143D02*
G75*
G02X88038238Y-69022668I-14942J15132D01*
G01*
X87931668Y-68995447D02*
X88038238Y-69022668D01*
X87805417Y-68958867D02*
X87931668Y-68995447D01*
X87660000Y-68911074D02*
X87805417Y-68958867D01*
X87239641Y-68801703D02*
G75*
G02X87660000Y-68911074I-500485J-2786076D01*
G01*
X86789860Y-68752130D02*
G75*
G02X87239641Y-68801703I-139217J-3328369D01*
G01*
X86380225Y-68764086D02*
G75*
G02X86789860Y-68752130I288897J-2874655D01*
G01*
X86092233Y-68845500D02*
G75*
G02X86380225Y-68764087I373768J-772102D01*
G01*
X85910665Y-68966211D02*
G75*
G02X86092233Y-68845499I532194J-603585D01*
G01*
X85787985Y-69121641D02*
G75*
G02X85910665Y-68966212I488442J-259397D01*
G01*
X85727522Y-69310968D02*
G75*
G02X85787985Y-69121641I553192J-72345D01*
G01*
X85728201Y-69530968D02*
G75*
G02X85727522Y-69310968I821051J112537D01*
G01*
X85906412Y-70040657D02*
G75*
G02X85728202Y-69530968I1167170J694094D01*
G01*
X86277526Y-70476236D02*
G75*
G02X85906411Y-70040657I1089635J1304260D01*
G01*
X86779740Y-70770565D02*
G75*
G02X86277527Y-70476236I627965J1647124D01*
G01*
X87335000Y-70873351D02*
G75*
G02X86779740Y-70770564I2901J1566824D01*
G01*
X87533667Y-70867310D02*
X87335000Y-70873352D01*
X87671566Y-70846146D02*
G75*
G02X87533667Y-70867310I-186700J756658D01*
G01*
X87798764Y-70801566D02*
G75*
G02X87671566Y-70846147I-297048J643789D01*
G01*
X87960000Y-70719138D02*
X87798764Y-70801566D01*
X88203438Y-70545909D02*
G75*
G02X87960000Y-70719138I-938917J1061785D01*
G01*
X88442227Y-70302299D02*
G75*
G02X88203437Y-70545909I-1824224J1549297D01*
G01*
X88671554Y-69994710D02*
G75*
G02X88442228Y-70302299I-2536166J1651586D01*
G01*
X88886422Y-69628318D02*
G75*
G02X88671554Y-69994711I-4015899J2108896D01*
G01*
X88965953Y-69484456D02*
X88886423Y-69628318D01*
X89040547Y-69365708D02*
X88965953Y-69484456D01*
X89105897Y-69273774D02*
X89040547Y-69365708D01*
X89105898Y-69273774D02*
G75*
G02X89132249Y-69265338I19079J-14224D01*
G01*
X89132248Y-69265338D02*
G75*
G02X89209649Y-69330986I-40498J-126201D01*
G01*
X89362267Y-69642558D02*
X89209649Y-69330986D01*
X89503532Y-69973426D02*
X89362267Y-69642558D01*
X89503532Y-69973426D02*
G75*
G02X89591127Y-70249000I-2147542J-834332D01*
G01*
X89591126Y-70249001D02*
G75*
G02X89650725Y-70617189I-2143854J-535941D01*
G01*
X89675471Y-71152140D02*
X89650725Y-70617189D01*
X89669510Y-71677523D02*
X89675471Y-71152140D01*
X89669509Y-71677523D02*
G75*
G02X89619661Y-71981867I-1253952J49130D01*
G01*
X89619661Y-71981867D02*
G75*
G02X89520948Y-72226670I-1297475J380885D01*
G01*
X89520948Y-72226670D02*
G75*
G02X89372538Y-72460284I-1446604J755048D01*
G01*
X89372538Y-72460284D02*
G75*
G02X89194392Y-72655841I-1197613J912063D01*
G01*
X89194392Y-72655841D02*
G75*
G02X89007088Y-72786226I-570513J619846D01*
G01*
X89007088Y-72786226D02*
G75*
G02X88726773Y-72897219I-721196J1411925D01*
G01*
X88726772Y-72897219D02*
G75*
G02X88415550Y-72960372I-541756J1871358D01*
G01*
X88415550Y-72960372D02*
G75*
G02X88101429Y-72971773I-226142J1897649D01*
G01*
X88101429Y-72971774D02*
G75*
G02X87812547Y-72928579I65793J1427629D01*
G01*
X87812547Y-72928579D02*
G75*
G02X87586476Y-72859282I629294J2456381D01*
G01*
X87342781Y-72762421D02*
X87586476Y-72859282D01*
X87124190Y-72661981D02*
X87342781Y-72762421D01*
X87124190Y-72661981D02*
G75*
G02X87117824Y-72624509I10112J20995D01*
G01*
X87117824Y-72624510D02*
G75*
G02X87133335Y-72618474I14617J-14616D01*
G01*
X87222686Y-72623044D02*
X87133335Y-72618474D01*
X87328259Y-72631156D02*
X87222686Y-72623044D01*
X87450206Y-72644119D02*
X87328259Y-72631156D01*
X87572558Y-72655605D02*
X87450206Y-72644119D01*
X87679446Y-72659228D02*
X87572558Y-72655605D01*
X87765891Y-72656807D02*
X87679446Y-72659228D01*
X87788448Y-72643421D02*
G75*
G02X87765891Y-72656807I-24083J14885D01*
G01*
X87807952Y-72555849D02*
G75*
G02X87788448Y-72643421I-135758J-15722D01*
G01*
X87758520Y-72160822D02*
X87807951Y-72555848D01*
X87698884Y-71776539D02*
X87758520Y-72160822D01*
X87636885Y-71516325D02*
G75*
G02X87698884Y-71776539I-2147352J-649131D01*
G01*
X87558991Y-71258651D02*
X87636885Y-71516326D01*
X87366496Y-71284470D02*
X87558991Y-71258651D01*
X87366495Y-71284470D02*
G75*
G02X86859904Y-71250470I-169580J1264323D01*
G01*
X86859904Y-71250470D02*
G75*
G02X86289399Y-71021007I707602J2583226D01*
G01*
X86289399Y-71021008D02*
G75*
G02X85781151Y-70664434I1298571J2391451D01*
G01*
X85781151Y-70664434D02*
G75*
G02X85460163Y-70249321I939634J1058235D01*
G01*
X85460164Y-70249321D02*
G75*
G02X85383090Y-70036898I815799J416190D01*
G01*
X85383090Y-70036898D02*
G75*
G02X85330854Y-69736851I2855886J651758D01*
G01*
X85330854Y-69736851D02*
G75*
G02X85309694Y-69426794I2955695J357464D01*
G01*
X85309694Y-69426795D02*
G75*
G02X85330735Y-69179148I1236173J19687D01*
G01*
X85330734Y-69179148D02*
G75*
G02X85403676Y-68978862I642326J-120501D01*
G01*
X85403677Y-68978861D02*
G75*
G02X85539933Y-68801730I684852J-385842D01*
G01*
X85539933Y-68801730D02*
G75*
G02X85734154Y-68656167I656852J-674068D01*
G01*
X85734154Y-68656168D02*
G75*
G02X85977411Y-68548987I662023J-1172890D01*
G01*
X104865475Y-92766786D02*
X104895016Y-92968270D01*
X104822273Y-92623716D02*
G75*
G02X104865475Y-92766786I-657560J-276617D01*
G01*
X104778685Y-92581273D02*
G75*
G02X104822273Y-92623716I-28328J-72696D01*
G01*
X104739674Y-92599000D02*
G75*
G02X104778684Y-92581273I28146J-10152D01*
G01*
X104513245Y-93240974D02*
X104739674Y-92599000D01*
X104469800Y-93452450D02*
G75*
G02X104513245Y-93240974I834289J-61192D01*
G01*
X104526290Y-93521233D02*
G75*
G02X104469800Y-93452450I7882J64062D01*
G01*
X104673337Y-93503434D02*
G75*
G02X104526290Y-93521232I-109441J287852D01*
G01*
X104791696Y-93430993D02*
G75*
G02X104673337Y-93503435I-251757J278423D01*
G01*
X104866942Y-93324286D02*
G75*
G02X104791696Y-93430993I-274577J113737D01*
G01*
X104900662Y-93173703D02*
G75*
G02X104866942Y-93324286I-449226J21530D01*
G01*
X104895016Y-92968270D02*
G75*
G02X104900662Y-93173703I-1357489J-140105D01*
G01*
X104561159Y-89462710D02*
X104848897Y-89649529D01*
X104480220Y-89450096D02*
G75*
G02X104561159Y-89462710I25893J-99841D01*
G01*
X104458489Y-89498221D02*
G75*
G02X104480220Y-89450097I30241J15313D01*
G01*
X104578683Y-89719608D02*
X104458488Y-89498220D01*
X104578684Y-89719607D02*
G75*
G02X104659708Y-89879220I-1374472J-798102D01*
G01*
X104758718Y-90117513D02*
X104659708Y-89879220D01*
X104857832Y-90385028D02*
X104758718Y-90117513D01*
X104941988Y-90644758D02*
X104857832Y-90385028D01*
X104963442Y-90664741D02*
G75*
G02X104941988Y-90644758I6338J28313D01*
G01*
X104998271Y-90660479D02*
G75*
G02X104963443Y-90664740I-23400J46798D01*
G01*
X105053345Y-90623717D02*
G75*
G02X104998271Y-90660479I-173920J200921D01*
G01*
X105136599Y-90547450D02*
X105053345Y-90623718D01*
X105287571Y-90328588D02*
G75*
G02X105136599Y-90547450I-623288J268444D01*
G01*
X105297897Y-90114979D02*
G75*
G02X105287571Y-90328588I-290317J-93020D01*
G01*
X105157819Y-89894097D02*
G75*
G02X105297897Y-90114979I-353469J-379018D01*
G01*
X104848897Y-89649529D02*
G75*
G02X105157819Y-89894097I-1354163J-2027872D01*
G01*
X102937146Y-87629411D02*
G75*
G02X103086605Y-87671449I-97284J-632578D01*
G01*
X102697677Y-87601079D02*
X102937147Y-87629411D01*
X102477128Y-87589313D02*
X102697677Y-87601079D01*
X102464166Y-87619711D02*
G75*
G02X102477128Y-87589313I12541J12615D01*
G01*
X102600900Y-87734571D02*
G75*
G02X102464166Y-87619711I615541J871578D01*
G01*
X102875137Y-87922087D02*
X102600900Y-87734572D01*
X103174796Y-88118354D02*
X102875137Y-87922087D01*
X103218375Y-88118824D02*
G75*
G02X103174796Y-88118354I-21418J34657D01*
G01*
X103234541Y-88098408D02*
G75*
G02X103218376Y-88118824I-36265J12107D01*
G01*
X103247773Y-88049367D02*
G75*
G02X103234541Y-88098408I-424097J88120D01*
G01*
X103256954Y-87987239D02*
G75*
G02X103247773Y-88049367I-538180J47789D01*
G01*
X103260000Y-87918498D02*
G75*
G02X103256954Y-87987238I-777201J0D01*
G01*
X103253172Y-87820643D02*
G75*
G02X103260000Y-87918498I-697847J-97856D01*
G01*
X103229899Y-87761631D02*
G75*
G02X103253172Y-87820643I-110883J-77825D01*
G01*
X103181458Y-87717772D02*
G75*
G02X103229899Y-87761631I-72478J-128727D01*
G01*
X103086606Y-87671449D02*
G75*
G02X103181459Y-87717771I-347975J-832820D01*
G01*
X100639035Y-85871309D02*
G75*
G02X100859853Y-85936578I-72852J-652637D01*
G01*
X100299632Y-85853305D02*
G75*
G02X100639035Y-85871309I15129J-2922968D01*
G01*
X99975517Y-85869472D02*
G75*
G02X100299632Y-85853305I342919J-3617662D01*
G01*
X99910000Y-85941494D02*
G75*
G02X99975517Y-85869473I72344J0D01*
G01*
X99931321Y-85982258D02*
G75*
G02X99910000Y-85941494I28309J40764D01*
G01*
X100367645Y-86283994D02*
X99931320Y-85982259D01*
X100797938Y-86578512D02*
X100367645Y-86283994D01*
X100864906Y-86599060D02*
G75*
G02X100797938Y-86578512I-233J118642D01*
G01*
X100911639Y-86569008D02*
G75*
G02X100864906Y-86599059I-46834J21470D01*
G01*
X100985747Y-86393931D02*
X100911639Y-86569008D01*
X101047017Y-86215461D02*
X100985747Y-86393931D01*
X101052194Y-86117604D02*
G75*
G02X101047017Y-86215461I-204664J-38238D01*
G01*
X101033462Y-86075589D02*
G75*
G02X101052194Y-86117604I-78498J-60181D01*
G01*
X100988480Y-86025817D02*
G75*
G02X101033462Y-86075589I-284798J-302600D01*
G01*
X100928053Y-85976940D02*
G75*
G02X100988480Y-86025816I-295073J-426598D01*
G01*
X100859852Y-85936578D02*
G75*
G02X100928053Y-85976940I-250672J-501370D01*
G01*
X98941171Y-84598617D02*
G75*
G02X98997500Y-84628852I-161461J-368400D01*
G01*
X98862968Y-84567617D02*
X98941171Y-84598617D01*
X98777528Y-84540555D02*
X98862968Y-84567617D01*
X98697500Y-84522135D02*
G75*
G02X98777528Y-84540555I-162333J-888340D01*
G01*
X98555378Y-84516274D02*
G75*
G02X98697500Y-84522135I50195J-508907D01*
G01*
X98512195Y-84568202D02*
G75*
G02X98555377Y-84516274I47901J4085D01*
G01*
X98554933Y-84675916D02*
G75*
G02X98512194Y-84568203I157378J124780D01*
G01*
X98728033Y-84880152D02*
X98554933Y-84675916D01*
X98946067Y-85120977D02*
X98728033Y-84880152D01*
X99028033Y-84962472D02*
X98946067Y-85120977D01*
X99091642Y-84826341D02*
X99028033Y-84962472D01*
X99103365Y-84750244D02*
G75*
G02X99091642Y-84826341I-158609J-14517D01*
G01*
X99075802Y-84691754D02*
G75*
G02X99103365Y-84750244I-66561J-67105D01*
G01*
X98997499Y-84628852D02*
G75*
G02X99075803Y-84691754I-260473J-404441D01*
G01*
X94479418Y-75386426D02*
X94795890Y-75583124D01*
X94364068Y-75347936D02*
G75*
G02X94479418Y-75386426I-27965J-275895D01*
G01*
X94261816Y-75372846D02*
G75*
G02X94364068Y-75347936I86339J-132090D01*
G01*
X94070441Y-75509593D02*
X94261816Y-75372845D01*
X93970638Y-75589991D02*
X94070441Y-75509593D01*
X93886504Y-75663585D02*
X93970638Y-75589991D01*
X93819111Y-75727281D02*
X93886504Y-75663585D01*
X93809999Y-75748849D02*
G75*
G02X93819111Y-75727281I30083J0D01*
G01*
X93826951Y-75827154D02*
G75*
G02X93810000Y-75748849I172390J78305D01*
G01*
X93963234Y-76121763D02*
X93826950Y-75827154D01*
X94105459Y-76419414D02*
X93963234Y-76121763D01*
X94148082Y-76466634D02*
G75*
G02X94105459Y-76419414I59891J96906D01*
G01*
X94176731Y-76472953D02*
G75*
G02X94148081Y-76466635I-5294J44108D01*
G01*
X94260520Y-76460925D02*
X94176732Y-76472953D01*
X94361746Y-76440757D02*
X94260520Y-76460925D01*
X94474095Y-76412122D02*
X94361746Y-76440757D01*
X94644047Y-76357425D02*
X94474095Y-76412122D01*
X94739040Y-76304182D02*
G75*
G02X94644047Y-76357425I-212887J268460D01*
G01*
X94813588Y-76223231D02*
G75*
G02X94739040Y-76304182I-294461J196367D01*
G01*
X94909846Y-76066572D02*
X94813588Y-76223231D01*
X94967388Y-75962860D02*
X94909846Y-76066572D01*
X95015892Y-75871555D02*
X94967388Y-75962860D01*
X95055986Y-75793135D02*
X95015892Y-75871555D01*
X95059999Y-75776294D02*
G75*
G02X95055986Y-75793135I-37340J0D01*
G01*
X95052910Y-75762030D02*
G75*
G02X95060000Y-75776294I-10804J-14264D01*
G01*
X94982417Y-75709560D02*
X95052910Y-75762031D01*
X94897121Y-75649631D02*
X94982417Y-75709560D01*
X94795890Y-75583124D02*
X94897121Y-75649631D01*
X93577067Y-74859243D02*
X93712483Y-74925284D01*
X93530776Y-74859322D02*
G75*
G02X93577067Y-74859243I23232J-50165D01*
G01*
X93511597Y-74893346D02*
G75*
G02X93530776Y-74859322I33229J3686D01*
G01*
X93529687Y-75009938D02*
X93511596Y-74893346D01*
X93567780Y-75153252D02*
G75*
G02X93529687Y-75009938I1127893J376511D01*
G01*
X93616251Y-75219141D02*
G75*
G02X93567780Y-75153252I77884J108068D01*
G01*
X93678245Y-75226247D02*
G75*
G02X93616251Y-75219141I-24650J58924D01*
G01*
X93758818Y-75175070D02*
G75*
G02X93678245Y-75226248I-189644J209555D01*
G01*
X93837404Y-75093025D02*
G75*
G02X93758818Y-75175070I-613123J508611D01*
G01*
X93851674Y-75038180D02*
G75*
G02X93837404Y-75093025I-65694J-12186D01*
G01*
X93819088Y-74988498D02*
G75*
G02X93851673Y-75038180I-42943J-63693D01*
G01*
X93712483Y-74925285D02*
G75*
G02X93819089Y-74988499I-491172J-949819D01*
G01*
X102798475Y-70484046D02*
G75*
G02X103253990Y-70576157I-700545J-4636790D01*
G01*
X102303846Y-70429648D02*
X102798474Y-70484046D01*
X101835262Y-70416719D02*
X102303846Y-70429648D01*
X101463995Y-70452225D02*
G75*
G02X101835262Y-70416719I403277J-2258027D01*
G01*
X100590798Y-70738288D02*
G75*
G02X101463995Y-70452225I1452659J-2958460D01*
G01*
X99588064Y-71322045D02*
G75*
G02X100590798Y-70738288I4619125J-6781306D01*
G01*
X98538165Y-72139120D02*
G75*
G02X99588063Y-71322045I6963705J-7864924D01*
G01*
X97516751Y-73140915D02*
G75*
G02X98538165Y-72139119I10322765J-9503306D01*
G01*
X97048504Y-73649539D02*
X97516752Y-73140915D01*
X97291752Y-73754939D02*
X97048504Y-73649539D01*
X97927291Y-74046780D02*
X97291752Y-73754939D01*
X97927291Y-74046781D02*
G75*
G02X98171477Y-74230445I-348297J-717226D01*
G01*
X98171477Y-74230444D02*
G75*
G02X98294681Y-74471549I-390265J-351455D01*
G01*
X98294680Y-74471549D02*
G75*
G02X98372734Y-74955293I-4633868J-995860D01*
G01*
X98426393Y-75449000D02*
X98372734Y-74955293D01*
X98909385Y-75449000D02*
X98426393Y-75449000D01*
X98909385Y-75449001D02*
G75*
G02X99382358Y-75470339I-3J-5252532D01*
G01*
X99869731Y-75534288D02*
X99382358Y-75470339D01*
X100362771Y-75639417D02*
X99869731Y-75534288D01*
X100852732Y-75784118D02*
X100362771Y-75639417D01*
X101053690Y-75847919D02*
X100852732Y-75784118D01*
X101228596Y-75894885D02*
X101053690Y-75847919D01*
X101374020Y-75927288D02*
X101228596Y-75894885D01*
X101405240Y-75916268D02*
G75*
G02X101374020Y-75927288I-24739J20354D01*
G01*
X101424150Y-75886236D02*
G75*
G02X101405240Y-75916268I-127516J59323D01*
G01*
X101464049Y-75798292D02*
X101424150Y-75886236D01*
X101509414Y-75691986D02*
X101464049Y-75798292D01*
X101556607Y-75574000D02*
X101509414Y-75691986D01*
X101616824Y-75433555D02*
X101556607Y-75574000D01*
X101703548Y-75256603D02*
X101616824Y-75433555D01*
X101800381Y-75074220D02*
X101703548Y-75256603D01*
X101893109Y-74914776D02*
X101800381Y-75074220D01*
X101893110Y-74914776D02*
G75*
G02X102528237Y-74201391I2299088J-1407461D01*
G01*
X102528237Y-74201391D02*
G75*
G02X103327466Y-73821914I1240299J-1580855D01*
G01*
X103327466Y-73821914D02*
G75*
G02X104257843Y-73808248I497785J-2212395D01*
G01*
X104257843Y-73808249D02*
G75*
G02X105271074Y-74154740I-744826J-3832782D01*
G01*
X105382543Y-74210023D02*
X105271074Y-74154740D01*
X105480578Y-74256624D02*
X105382543Y-74210023D01*
X105564715Y-74295150D02*
X105480578Y-74256624D01*
X105582558Y-74299000D02*
G75*
G02X105564715Y-74295150I-1J43266D01*
G01*
X105596414Y-74291670D02*
G75*
G02X105582557Y-74299000I-13857J9433D01*
G01*
X105631514Y-74238213D02*
X105596415Y-74291671D01*
X105671239Y-74171374D02*
X105631514Y-74238213D01*
X105713538Y-74092065D02*
X105671239Y-74171374D01*
X105713537Y-74092066D02*
G75*
G02X105864689Y-73858535I1208624J-616595D01*
G01*
X105864689Y-73858535D02*
G75*
G02X106077398Y-73630311I1664710J-1338303D01*
G01*
X106077398Y-73630311D02*
G75*
G02X106313168Y-73442332I1379093J-1487869D01*
G01*
X106313169Y-73442332D02*
G75*
G02X106533166Y-73332360I514357J-753929D01*
G01*
X106533165Y-73332361D02*
G75*
G02X107040705Y-73254793I470919J-1382067D01*
G01*
X107040706Y-73254792D02*
G75*
G02X107623668Y-73339000I-62546J-2493018D01*
G01*
X107623668Y-73339000D02*
G75*
G02X108252762Y-73578901I-851667J-3178121D01*
G01*
X108252761Y-73578901D02*
G75*
G02X108897416Y-73965927I-2292602J-4549110D01*
G01*
X109093571Y-74089541D02*
G75*
G02X108897416Y-73965927I1084114J1937751D01*
G01*
X109113915Y-74065838D02*
G75*
G02X109093571Y-74089540I-12564J-9798D01*
G01*
X108965695Y-73908449D02*
G75*
G02X109113914Y-74065837I-769467J-873129D01*
G01*
X108623069Y-73614172D02*
X108965695Y-73908449D01*
X107237787Y-72548906D02*
X108623069Y-73614172D01*
X105849001Y-71669363D02*
G75*
G02X107237787Y-72548906I-8157587J-14416910D01*
G01*
X104504632Y-71001752D02*
G75*
G02X105849001Y-71669362I-5503509J-12769828D01*
G01*
X103253989Y-70576156D02*
G75*
G02X104504631Y-71001752I-2065621J-8120321D01*
G01*
X100774861Y-68371799D02*
X101217202Y-68401218D01*
X100148894Y-68359412D02*
X100774861Y-68371799D01*
X99517840Y-68362816D02*
X100148894Y-68359412D01*
X99053139Y-68385522D02*
X99517840Y-68362816D01*
X98821278Y-68404019D02*
X99053139Y-68385522D01*
X98785296Y-68789010D02*
X98821278Y-68404019D01*
X98785297Y-68789010D02*
G75*
G02X98585283Y-69773999I-4678825J437288D01*
G01*
X98585283Y-69773999D02*
G75*
G02X98164439Y-70811802I-6869672J2181516D01*
G01*
X98164440Y-70811802D02*
G75*
G02X97536349Y-71875441I-7856146J3921873D01*
G01*
X97536349Y-71875440D02*
G75*
G02X96714110Y-72937929I-10095604J6963389D01*
G01*
X96578643Y-73099611D02*
X96714110Y-72937929D01*
X96468671Y-73242520D02*
X96578643Y-73099611D01*
X96382386Y-73364111D02*
X96468671Y-73242520D01*
X96381644Y-73393571D02*
G75*
G02X96382386Y-73364111I22914J14162D01*
G01*
X96403145Y-73413102D02*
G75*
G02X96381644Y-73393571I23240J47183D01*
G01*
X96464977Y-73441264D02*
X96403144Y-73413102D01*
X96542339Y-73470538D02*
X96464977Y-73441264D01*
X96629130Y-73497357D02*
X96542339Y-73470538D01*
X96850836Y-73559431D02*
X96629130Y-73497357D01*
X97038368Y-73341716D02*
X96850836Y-73559431D01*
X97449582Y-72898494D02*
X97038368Y-73341716D01*
X98042004Y-72322800D02*
X97449582Y-72898494D01*
X98646252Y-71769387D02*
X98042004Y-72322800D01*
X99090863Y-71405632D02*
X98646252Y-71769387D01*
X99090863Y-71405632D02*
G75*
G02X99607901Y-71052984I4086790J-5436532D01*
G01*
X100191842Y-70722362D02*
X99607901Y-71052984D01*
X100762001Y-70454314D02*
X100191842Y-70722362D01*
X100762001Y-70454313D02*
G75*
G02X101230498Y-70297628I1231985J-2904926D01*
G01*
X101230498Y-70297628D02*
G75*
G02X102003046Y-70200450I791758J-3174953D01*
G01*
X102003046Y-70200450D02*
G75*
G02X102859037Y-70271938I28312J-4821555D01*
G01*
X102859037Y-70271938D02*
G75*
G02X103813009Y-70514497I-1105839J-6346450D01*
G01*
X103813009Y-70514496D02*
G75*
G02X104881867Y-70933862I-3791385J-11235105D01*
G01*
X104881867Y-70933862D02*
G75*
G02X106019434Y-71519101I-4965608J-11050182D01*
G01*
X107239228Y-72292020D02*
X106019434Y-71519101D01*
X108423676Y-73170050D02*
X107239228Y-72292020D01*
X108423676Y-73170049D02*
G75*
G02X109455974Y-74074000I-9520433J-11913598D01*
G01*
X109653817Y-74259286D02*
X109455974Y-74074000D01*
X109814004Y-74399040D02*
X109653817Y-74259286D01*
X109928130Y-74488961D02*
X109814004Y-74399040D01*
X109942270Y-74478389D02*
G75*
G02X109928130Y-74488961I-8635J-3193D01*
G01*
X109837134Y-74260630D02*
G75*
G02X109942269Y-74478389I-1082830J-657056D01*
G01*
X109575399Y-73842466D02*
X109837134Y-74260630D01*
X109266908Y-73381292D02*
X109575399Y-73842466D01*
X108958343Y-72953785D02*
X109266908Y-73381292D01*
X107325495Y-71143299D02*
G75*
G02X108958343Y-72953785I-9272332J-10004135D01*
G01*
X105488917Y-69777204D02*
G75*
G02X107325494Y-71143300I-5386612J-9159347D01*
G01*
X103449947Y-68865374D02*
G75*
G02X105488917Y-69777205I-3067284J-9594447D01*
G01*
X101217202Y-68401218D02*
G75*
G02X103449947Y-68865373I-1097251J-10880372D01*
G01*
X98062712Y-67440877D02*
X97981906Y-67460125D01*
X98137524Y-67423673D02*
X98062712Y-67440877D01*
X98200368Y-67409736D02*
X98137524Y-67423673D01*
X98226472Y-67405005D02*
X98200368Y-67409736D01*
X98226473Y-67405005D02*
G75*
G02X98273449Y-67460116I6131J-42350D01*
G01*
X98131710Y-67881202D02*
X98273449Y-67460116D01*
X97930906Y-68383987D02*
X98131710Y-67881202D01*
X97680554Y-68916608D02*
X97930906Y-68383987D01*
X97680553Y-68916608D02*
G75*
G02X97034391Y-69979949I-6903044J3466788D01*
G01*
X97034391Y-69979949D02*
G75*
G02X96206736Y-70962690I-7107645J5146098D01*
G01*
X96206736Y-70962690D02*
G75*
G02X95250982Y-71807410I-6192656J6043594D01*
G01*
X95250982Y-71807411D02*
G75*
G02X94223092Y-72459345I-4347992J5719088D01*
G01*
X94065151Y-72543721D02*
X94223092Y-72459345D01*
X93932008Y-72619460D02*
X94065151Y-72543721D01*
X93820122Y-72686452D02*
X93932008Y-72619460D01*
X93810593Y-72702985D02*
G75*
G02X93820122Y-72686452I19809J-405D01*
G01*
X93820660Y-72716859D02*
G75*
G02X93810592Y-72702985I4125J13583D01*
G01*
X93931345Y-72749440D02*
X93820660Y-72716859D01*
X94064395Y-72784426D02*
X93931345Y-72749440D01*
X94222500Y-72820426D02*
X94064395Y-72784426D01*
X94422577Y-72866410D02*
X94222500Y-72820426D01*
X94690078Y-72933788D02*
X94422577Y-72866410D01*
X94975091Y-73009316D02*
X94690078Y-72933788D01*
X95235000Y-73082123D02*
X94975091Y-73009316D01*
X95835000Y-73255363D02*
X95235000Y-73082123D01*
X96026669Y-73039682D02*
X95835000Y-73255363D01*
X96746180Y-72171608D02*
X96026669Y-73039682D01*
X97334906Y-71332650D02*
G75*
G02X96746180Y-72171608I-9452095J6006819D01*
G01*
X97789856Y-70529390D02*
G75*
G02X97334906Y-71332650I-8129408J4073867D01*
G01*
X98105047Y-69769221D02*
G75*
G02X97789856Y-70529391I-5464888J1820494D01*
G01*
X98219828Y-69364321D02*
G75*
G02X98105047Y-69769221I-4520439J1062742D01*
G01*
X98302400Y-68935635D02*
X98219829Y-69364321D01*
X98345107Y-68540337D02*
X98302400Y-68935635D01*
X98334657Y-68246513D02*
G75*
G02X98345107Y-68540337I-1442554J-198402D01*
G01*
X98302245Y-68010846D02*
X98334658Y-68246514D01*
X98493622Y-67981471D02*
X98302245Y-68010846D01*
X98493622Y-67981472D02*
G75*
G02X98971878Y-67936332I626489J-4081547D01*
G01*
X99843375Y-67914770D02*
X98971878Y-67936332D01*
X100720334Y-67913286D02*
X99843375Y-67914770D01*
X100720334Y-67913287D02*
G75*
G02X101261306Y-67943920I-59507J-5842871D01*
G01*
X101261306Y-67943920D02*
G75*
G02X102609822Y-68164210I-1191113J-11529080D01*
G01*
X102609822Y-68164210D02*
G75*
G02X103909304Y-68540241I-2440368J-10866779D01*
G01*
X103909304Y-68540241D02*
G75*
G02X105137413Y-69065296I-3644549J-10223431D01*
G01*
X105137413Y-69065297D02*
G75*
G02X106272866Y-69730491I-4592755J-9141275D01*
G01*
X106272866Y-69730490D02*
G75*
G02X107862813Y-71016447I-6682181J-9887676D01*
G01*
X107862813Y-71016447D02*
G75*
G02X109272263Y-72598518I-9525519J-9905052D01*
G01*
X109272263Y-72598518D02*
G75*
G02X110438985Y-74401141I-11228014J-8546055D01*
G01*
X110438985Y-74401141D02*
G75*
G02X111306395Y-76343672I-11945352J-6498959D01*
G01*
X111481374Y-76857711D02*
X111403101Y-76621002D01*
X111547099Y-77064949D02*
X111481374Y-76857711D01*
X111547099Y-77064949D02*
G75*
G02X111542680Y-77082987I-17081J-5375D01*
G01*
X111542681Y-77082987D02*
G75*
G02X111528042Y-77083059I-7356J7356D01*
G01*
X111449783Y-77004958D02*
X111528042Y-77083059D01*
X111358586Y-76908328D02*
X111449783Y-77004958D01*
X109989551Y-75439442D02*
X111254019Y-76789773D01*
X107804863Y-73864452D02*
G75*
G02X108828593Y-74461926I-2606645J-5642086D01*
G01*
X106973038Y-73708942D02*
G75*
G02X107804864Y-73864452I108803J-1720496D01*
G01*
X106642211Y-73786923D02*
G75*
G02X106973038Y-73708943I394848J-934376D01*
G01*
X106364775Y-73968857D02*
G75*
G02X106642211Y-73786923I636919J-668753D01*
G01*
X106138850Y-74263076D02*
G75*
G02X106364775Y-73968857I1054891J-576179D01*
G01*
X105960118Y-74673646D02*
G75*
G02X106138850Y-74263075I2381187J-792407D01*
G01*
X105850362Y-75003463D02*
X105960118Y-74673646D01*
X105642681Y-74875502D02*
X105850362Y-75003463D01*
X105109319Y-74573391D02*
X105642681Y-74875502D01*
X104654785Y-74376083D02*
G75*
G02X105109319Y-74573391I-1200338J-3387410D01*
G01*
X104234886Y-74264885D02*
G75*
G02X104654785Y-74376083I-469323J-2620630D01*
G01*
X103809999Y-74226089D02*
G75*
G02X104234886Y-74264886I-12177J-2479302D01*
G01*
X103568677Y-74230470D02*
X103810000Y-74226088D01*
X103409945Y-74249012D02*
G75*
G02X103568677Y-74230470I202643J-1046102D01*
G01*
X103270629Y-74289132D02*
G75*
G02X103409944Y-74249011I294308J-760001D01*
G01*
X103101121Y-74363406D02*
X103270630Y-74289132D01*
X102691631Y-74649965D02*
G75*
G02X103101121Y-74363406I1127118J-1174781D01*
G01*
X102317422Y-75089621D02*
G75*
G02X102691631Y-74649965I2357419J-1627415D01*
G01*
X102015887Y-75629603D02*
G75*
G02X102317423Y-75089621I2986369J-1313459D01*
G01*
X101822323Y-76215829D02*
G75*
G02X102015887Y-75629603I3158644J-717872D01*
G01*
X101786401Y-76362719D02*
X101822323Y-76215829D01*
X101750480Y-76486444D02*
X101786401Y-76362719D01*
X101716825Y-76587091D02*
X101750480Y-76486444D01*
X101716824Y-76587091D02*
G75*
G02X101700041Y-76599000I-16783J5871D01*
G01*
X101700041Y-76599001D02*
G75*
G02X101675179Y-76594306I0J68177D01*
G01*
X101560643Y-76548905D02*
X101675179Y-76594306D01*
X101426891Y-76493814D02*
X101560643Y-76548905D01*
X101274921Y-76428463D02*
X101426891Y-76493814D01*
X100642521Y-76182064D02*
X101274921Y-76428463D01*
X100057169Y-76017414D02*
G75*
G02X100642521Y-76182064I-1161071J-5250598D01*
G01*
X99493954Y-75928444D02*
G75*
G02X100057169Y-76017414I-447259J-4658524D01*
G01*
X98928592Y-75909617D02*
G75*
G02X99493954Y-75928445I132064J-4531956D01*
G01*
X98435000Y-75924000D02*
X98928592Y-75909616D01*
X98421340Y-76844640D02*
X98435000Y-75924000D01*
X98407681Y-77765279D02*
X98421340Y-76844640D01*
X98543442Y-77961183D02*
X98407681Y-77765279D01*
X98543442Y-77961183D02*
G75*
G02X98687994Y-78299678I-752426J-521431D01*
G01*
X98687994Y-78299677D02*
G75*
G02X98700600Y-78691216I-1141028J-232709D01*
G01*
X98700600Y-78691217D02*
G75*
G02X98580083Y-79088061I-1305480J179738D01*
G01*
X98580083Y-79088061D02*
G75*
G02X98339710Y-79440949I-1327550J645961D01*
G01*
X98339710Y-79440949D02*
G75*
G02X98060295Y-79677339I-1076259J988815D01*
G01*
X98060295Y-79677340D02*
G75*
G02X97768802Y-79794005I-439645J675984D01*
G01*
X97768802Y-79794005D02*
G75*
G02X97488610Y-79781526I-113361J606509D01*
G01*
X97488610Y-79781525D02*
G75*
G02X97239822Y-79646527I172749J615101D01*
G01*
X97127934Y-79551228D02*
X97239822Y-79646527D01*
X97082835Y-79528847D02*
G75*
G02X97127934Y-79551228I-25282J-107575D01*
G01*
X97049873Y-79539578D02*
G75*
G02X97082835Y-79528848I25320J-21788D01*
G01*
X97013083Y-79593241D02*
G75*
G02X97049873Y-79539577I262250J-140352D01*
G01*
X96972238Y-79690530D02*
G75*
G02X97013082Y-79593240I536813J-168145D01*
G01*
X96967590Y-79765964D02*
G75*
G02X96972238Y-79690531I155123J28301D01*
G01*
X96998653Y-79845936D02*
G75*
G02X96967590Y-79765963I192350J120732D01*
G01*
X97080876Y-79964837D02*
G75*
G02X96998653Y-79845937I1293938J982675D01*
G01*
X97080875Y-79964837D02*
G75*
G02X97243508Y-80217707I-1536890J-1167178D01*
G01*
X97432416Y-80594879D02*
X97243508Y-80217707D01*
X97607322Y-81002236D02*
X97432416Y-80594879D01*
X97607321Y-81002236D02*
G75*
G02X97729856Y-81361090I-3754707J-1482433D01*
G01*
X97784483Y-81583670D02*
X97729856Y-81361090D01*
X97840414Y-81887610D02*
X97784483Y-81583670D01*
X97891622Y-82230400D02*
X97840414Y-81887610D01*
X97932230Y-82578751D02*
X97891622Y-82230400D01*
X97995226Y-83158247D02*
X97932230Y-82578751D01*
X98049684Y-83534537D02*
X97995226Y-83158247D01*
X98108161Y-83805354D02*
X98049684Y-83534537D01*
X98182071Y-84024705D02*
G75*
G02X98108161Y-83805354I1510060J630945D01*
G01*
X98232383Y-84127154D02*
G75*
G02X98182071Y-84024705I817493J465042D01*
G01*
X98279262Y-84173646D02*
G75*
G02X98232383Y-84127154I59802J107179D01*
G01*
X98348715Y-84194244D02*
G75*
G02X98279262Y-84173646I11193J165134D01*
G01*
X98494948Y-84199279D02*
X98348715Y-84194244D01*
X98494948Y-84199279D02*
G75*
G02X98985853Y-84273430I-1945J-1674930D01*
G01*
X98985853Y-84273430D02*
G75*
G02X99306976Y-84491272I-194830J-632808D01*
G01*
X99306976Y-84491272D02*
G75*
G02X99404693Y-84809348I-350154J-281620D01*
G01*
X99404693Y-84809349D02*
G75*
G02X99276949Y-85171589I-750764J61113D01*
G01*
X99143898Y-85367390D02*
X99276949Y-85171589D01*
X99314449Y-85510928D02*
X99143898Y-85367390D01*
X99401627Y-85577127D02*
G75*
G02X99314449Y-85510928I615901J901590D01*
G01*
X99474721Y-85615704D02*
G75*
G02X99401627Y-85577127I132387J339372D01*
G01*
X99541895Y-85631110D02*
G75*
G02X99474721Y-85615705I18605J235300D01*
G01*
X99610000Y-85626220D02*
G75*
G02X99541896Y-85631109I-50165J221993D01*
G01*
X99610000Y-85626219D02*
G75*
G02X99685330Y-85613462I154636J-684315D01*
G01*
X99841163Y-85596960D02*
X99685330Y-85613462D01*
X100026013Y-85580482D02*
X99841163Y-85596960D01*
X100221406Y-85566276D02*
X100026013Y-85580482D01*
X100482531Y-85553676D02*
X100221406Y-85566276D01*
X100482531Y-85553676D02*
G75*
G02X100656864Y-85557595I50802J-1619358D01*
G01*
X100656864Y-85557595D02*
G75*
G02X100795518Y-85578742I-71335J-932842D01*
G01*
X100795518Y-85578742D02*
G75*
G02X100933369Y-85620720I-233835J-1015224D01*
G01*
X100933368Y-85620720D02*
G75*
G02X101190642Y-85774251I-310075J-811921D01*
G01*
X101190642Y-85774252D02*
G75*
G02X101333586Y-85987390I-315435J-366052D01*
G01*
X101333586Y-85987390D02*
G75*
G02X101353151Y-86256167I-518018J-172809D01*
G01*
X101353151Y-86256167D02*
G75*
G02X101250569Y-86571566I-1188450J212157D01*
G01*
X101210206Y-86659219D02*
X101250569Y-86571566D01*
X101179726Y-86735994D02*
X101210206Y-86659219D01*
X101158443Y-86799370D02*
X101179726Y-86735994D01*
X101163070Y-86815027D02*
G75*
G02X101158443Y-86799370I9372J11282D01*
G01*
X101180274Y-86827768D02*
G75*
G02X101163069Y-86815026I105506J160442D01*
G01*
X101288714Y-86898958D02*
X101180274Y-86827769D01*
X101414697Y-86981133D02*
X101288714Y-86898958D01*
X101560000Y-87075164D02*
X101414697Y-86981133D01*
X101935000Y-87317082D02*
X101560000Y-87075164D01*
X102492048Y-87304244D02*
X101935000Y-87317082D01*
X102808717Y-87300913D02*
X102492048Y-87304244D01*
X102808716Y-87300913D02*
G75*
G02X102988920Y-87312095I-3022J-1506337D01*
G01*
X102988920Y-87312095D02*
G75*
G02X103122566Y-87341785I-86269J-703975D01*
G01*
X103122565Y-87341785D02*
G75*
G02X103258330Y-87398149I-291590J-894050D01*
G01*
X103258330Y-87398149D02*
G75*
G02X103443332Y-87528331I-364604J-714683D01*
G01*
X103443332Y-87528332D02*
G75*
G02X103552294Y-87688937I-304549J-323885D01*
G01*
X103552294Y-87688937D02*
G75*
G02X103586059Y-87887683I-454455J-179447D01*
G01*
X103586058Y-87887683D02*
G75*
G02X103547858Y-88131384I-1065023J42100D01*
G01*
X103475304Y-88392057D02*
X103547858Y-88131384D01*
X103780152Y-88687532D02*
X103475304Y-88392057D01*
X103932875Y-88826720D02*
X103780152Y-88687532D01*
X104066271Y-88928437D02*
G75*
G02X103932875Y-88826720I826558J1222314D01*
G01*
X104189343Y-88999810D02*
G75*
G02X104066271Y-88928437I454382J925314D01*
G01*
X104310000Y-89045828D02*
G75*
G02X104189343Y-88999810I188795J676195D01*
G01*
X104310000Y-89045828D02*
G75*
G02X104578819Y-89142493I-527179J-1888167D01*
G01*
X104578818Y-89142493D02*
G75*
G02X104865216Y-89287825I-1267349J-2852355D01*
G01*
X104865217Y-89287824D02*
G75*
G02X105131854Y-89459815I-1524744J-2656499D01*
G01*
X105131854Y-89459815D02*
G75*
G02X105340281Y-89637177I-997055J-1382842D01*
G01*
X105340281Y-89637177D02*
G75*
G02X105499074Y-89826717I-994274J-994273D01*
G01*
X105499074Y-89826716D02*
G75*
G02X105597035Y-90017212I-655746J-457649D01*
G01*
X105597035Y-90017213D02*
G75*
G02X105633413Y-90208020I-603615J-213951D01*
G01*
X105633413Y-90208020D02*
G75*
G02X105610138Y-90398516I-610512J-22078D01*
G01*
X105610138Y-90398516D02*
G75*
G02X105541198Y-90549126I-532824J152812D01*
G01*
X105541199Y-90549126D02*
G75*
G02X105411924Y-90718793I-1243328J813246D01*
G01*
X105411923Y-90718794D02*
G75*
G02X105254523Y-90873491I-1164505J1027430D01*
G01*
X105254524Y-90873490D02*
G75*
G02X105097500Y-90979550I-551845J647747D01*
G01*
X105024539Y-91027118D02*
G75*
G02X105097500Y-90979550I285344J-357925D01*
G01*
X104984574Y-91077461D02*
G75*
G02X105024539Y-91027119I129071J-61429D01*
G01*
X104965317Y-91148077D02*
G75*
G02X104984575Y-91077461I205929J-18227D01*
G01*
X104959999Y-91268460D02*
G75*
G02X104965316Y-91148078I1365452J0D01*
G01*
X104956518Y-91370088D02*
X104960000Y-91268460D01*
X104945531Y-91497934D02*
X104956518Y-91370088D01*
X104929617Y-91629819D02*
X104945531Y-91497934D01*
X104910744Y-91745076D02*
X104929617Y-91629819D01*
X104887798Y-91902667D02*
X104910744Y-91745076D01*
X104891481Y-92008674D02*
G75*
G02X104887798Y-91902667I384110J66410D01*
G01*
X104923924Y-92116965D02*
G75*
G02X104891480Y-92008674I433230J188803D01*
G01*
X105004853Y-92289401D02*
X104923924Y-92116965D01*
X105004854Y-92289401D02*
G75*
G02X105213357Y-92893714I-2130363J-1073154D01*
G01*
X105213357Y-92893713D02*
G75*
G02X105180103Y-93396804I-947814J-189996D01*
G01*
X105180103Y-93396804D02*
G75*
G02X104915679Y-93724941I-583853J199879D01*
G01*
X104915679Y-93724941D02*
G75*
G02X104470934Y-93849000I-444745J735163D01*
G01*
X104278656Y-93849000D02*
X104470934Y-93849000D01*
X103945390Y-94683396D02*
X104278656Y-93849000D01*
X103819188Y-95004873D02*
X103945390Y-94683396D01*
X103716432Y-95279099D02*
X103819188Y-95004873D01*
X103629482Y-95519668D02*
X103716432Y-95279099D01*
X103633950Y-95539618D02*
G75*
G02X103629482Y-95519668I13498J13498D01*
G01*
X103649814Y-95542091D02*
G75*
G02X103633950Y-95539618I-6239J12098D01*
G01*
X103695179Y-95516482D02*
X103649814Y-95542090D01*
X103750380Y-95478939D02*
G75*
G02X103695179Y-95516482I-438987J586111D01*
G01*
X103811741Y-95430207D02*
X103750381Y-95478939D01*
X103811741Y-95430208D02*
G75*
G02X104028418Y-95292062I628886J-747386D01*
G01*
X104028418Y-95292061D02*
G75*
G02X104233061Y-95251417I185510J-398524D01*
G01*
X104233061Y-95251417D02*
G75*
G02X104400564Y-95312073I-12956J-297388D01*
G01*
X104400564Y-95312072D02*
G75*
G02X104515437Y-95460864I-219967J-288562D01*
G01*
X104515437Y-95460864D02*
G75*
G02X104566082Y-95686699I-613963J-256281D01*
G01*
X104576746Y-96172771D02*
X104566082Y-95686699D01*
X104560136Y-96710689D02*
X104576746Y-96172771D01*
X104512125Y-97199000D02*
X104560136Y-96710689D01*
X104370515Y-98039195D02*
X104512125Y-97199000D01*
X104370515Y-98039195D02*
G75*
G02X104192159Y-98749128I-7422238J1487313D01*
G01*
X104192160Y-98749128D02*
G75*
G02X103988738Y-99305364I-5054114J1533029D01*
G01*
X103988738Y-99305365D02*
G75*
G02X103768444Y-99650771I-1173304J505359D01*
G01*
X103768444Y-99650771D02*
G75*
G02X103394701Y-99863476I-502909J448954D01*
G01*
X103394701Y-99863477D02*
G75*
G02X102956284Y-99814946I-141601J725357D01*
G01*
X102956285Y-99814946D02*
G75*
G02X102454905Y-99472177I658148J1500773D01*
G01*
X102454905Y-99472177D02*
G75*
G02X101902043Y-98832280I4148356J4142900D01*
G01*
X101902042Y-98832280D02*
G75*
G02X101654829Y-98464733I3680421J2742378D01*
G01*
X101407583Y-98023989D02*
X101654829Y-98464733D01*
X101205724Y-97604272D02*
X101407583Y-98023989D01*
X101205724Y-97604271D02*
G75*
G02X101127129Y-97338820I975247J433110D01*
G01*
X101127129Y-97338820D02*
G75*
G02X101117496Y-97233507I785184J124917D01*
G01*
X101117496Y-97233507D02*
G75*
G02X101129215Y-97160241I203502J5020D01*
G01*
X101129215Y-97160241D02*
G75*
G02X101167069Y-97092849I215344J-76630D01*
G01*
X101167069Y-97092849D02*
G75*
G02X101245705Y-97005603I879730J-713848D01*
G01*
X101245704Y-97005603D02*
G75*
G02X101414535Y-96888681I406242J-406241D01*
G01*
X101414535Y-96888680D02*
G75*
G02X101633233Y-96822354I360006J-793322D01*
G01*
X101633233Y-96822354D02*
G75*
G02X101905181Y-96806931I208262J-1266962D01*
G01*
X101905181Y-96806931D02*
G75*
G02X102234377Y-96843086I-137499J-2768736D01*
G01*
X102513197Y-96896737D02*
X102234377Y-96843086D01*
X102513197Y-96896737D02*
G75*
G02X102614067Y-96944978I-50286J-234725D01*
G01*
X102614067Y-96944978D02*
G75*
G02X102608951Y-96992516I-17926J-22115D01*
G01*
X102608952Y-96992516D02*
G75*
G02X102478860Y-97041252I-289179J573912D01*
G01*
X102342324Y-97074233D02*
X102478860Y-97041252D01*
X102215008Y-97101020D02*
X102342324Y-97074233D01*
X102055136Y-97130012D02*
X102215008Y-97101020D01*
X101797500Y-97172896D02*
X102055136Y-97130012D01*
X101663822Y-97223395D02*
G75*
G02X101797500Y-97172896I191888J-305772D01*
G01*
X101612849Y-97311301D02*
G75*
G02X101663822Y-97223396I108915J-4425D01*
G01*
X101640457Y-97461652D02*
G75*
G02X101612848Y-97311301I318915J136273D01*
G01*
X101774095Y-97749000D02*
X101640458Y-97461652D01*
X102080543Y-98281727D02*
G75*
G02X101774095Y-97749000I4666957J3039133D01*
G01*
X102442712Y-98775252D02*
G75*
G02X102080542Y-98281728I4231713J3485074D01*
G01*
X102807681Y-99168926D02*
G75*
G02X102442713Y-98775252I3170649J3305466D01*
G01*
X103113788Y-99375710D02*
G75*
G02X102807681Y-99168927I447546J992480D01*
G01*
X103322320Y-99469743D02*
X103113789Y-99375709D01*
X103436648Y-99336829D02*
X103322320Y-99469743D01*
X103601520Y-99064534D02*
G75*
G02X103436648Y-99336829I-895461J356132D01*
G01*
X103762638Y-98595788D02*
G75*
G02X103601520Y-99064535I-5015073J1461720D01*
G01*
X103910085Y-97996946D02*
X103762638Y-98595788D01*
X104032475Y-97292584D02*
X103910085Y-97996946D01*
X104082401Y-96845162D02*
X104032475Y-97292584D01*
X104107305Y-96357147D02*
X104082401Y-96845162D01*
X104113957Y-95895175D02*
X104107305Y-96357147D01*
X104067975Y-95849000D02*
G75*
G02X104113957Y-95895175I0J-45982D01*
G01*
X104041915Y-95859988D02*
G75*
G02X104067975Y-95849000I26060J-25409D01*
G01*
X103941210Y-95964984D02*
X104041916Y-95859988D01*
X103825155Y-96092511D02*
X103941210Y-95964984D01*
X103695445Y-96243837D02*
X103825155Y-96092511D01*
X103557200Y-96403332D02*
X103695445Y-96243837D01*
X103415134Y-96556080D02*
X103557200Y-96403332D01*
X103287614Y-96683866D02*
X103415134Y-96556080D01*
X103287614Y-96683865D02*
G75*
G02X103205310Y-96752340I-495850J512295D01*
G01*
X103045680Y-96866006D02*
X103205310Y-96752340D01*
X103085089Y-96670003D02*
X103045680Y-96866006D01*
X103099581Y-96568686D02*
G75*
G02X103085089Y-96670003I-905438J77817D01*
G01*
X103109786Y-96417622D02*
X103099581Y-96568686D01*
X103115019Y-96248968D02*
X103109786Y-96417622D01*
X103113825Y-96086072D02*
X103115019Y-96248968D01*
X103113825Y-96086072D02*
G75*
G02X103129566Y-95731683I2468319J67907D01*
G01*
X103129567Y-95731683D02*
G75*
G02X103196344Y-95396802I2107804J-246210D01*
G01*
X103196344Y-95396802D02*
G75*
G02X103347538Y-94942498I5245519J-1493424D01*
G01*
X103686672Y-94074000D02*
X103347538Y-94942498D01*
X104188963Y-92710911D02*
X103686672Y-94074000D01*
X104437133Y-91739529D02*
G75*
G02X104188963Y-92710911I-6451419J1130827D01*
G01*
X104483044Y-90987475D02*
G75*
G02X104437133Y-91739529I-3349842J-172929D01*
G01*
X104340571Y-90343483D02*
G75*
G02X104483044Y-90987475I-1848873J-746792D01*
G01*
X103941632Y-89613040D02*
G75*
G02X104340571Y-90343483I-2934594J-2076918D01*
G01*
X103369253Y-88957029D02*
G75*
G02X103941633Y-89613040I-2933560J-3137292D01*
G01*
X102501496Y-88254029D02*
G75*
G02X103369252Y-88957029I-4511289J-6455615D01*
G01*
X101135000Y-87346080D02*
X102501497Y-88254029D01*
X100052783Y-86641468D02*
X101135000Y-87346080D01*
X99313137Y-86102514D02*
X100052783Y-86641468D01*
X99313137Y-86102514D02*
G75*
G02X98764326Y-85620807I4331024J5487846D01*
G01*
X98764326Y-85620806D02*
G75*
G02X98304098Y-85111927I3807428J3905972D01*
G01*
X98304098Y-85111927D02*
G75*
G02X97943960Y-84588245I3560974J2834565D01*
G01*
X97943960Y-84588245D02*
G75*
G02X97711277Y-84080801I2347563J1383520D01*
G01*
X97711277Y-84080801D02*
G75*
G02X97562442Y-83474895I3421296J1161640D01*
G01*
X97460588Y-82627600D02*
X97562442Y-83474895D01*
X97393723Y-82034783D02*
X97460588Y-82627600D01*
X97302248Y-81566073D02*
G75*
G02X97393723Y-82034783I-4375628J-1097243D01*
G01*
X97171011Y-81150217D02*
G75*
G02X97302248Y-81566073I-3395921J-1300330D01*
G01*
X96983238Y-80724001D02*
G75*
G02X97171011Y-81150217I-4226519J-2116490D01*
G01*
X96787171Y-80347726D02*
X96983238Y-80724000D01*
X96663910Y-80164838D02*
G75*
G02X96787171Y-80347726I-882376J-727675D01*
G01*
X96564276Y-80091181D02*
G75*
G02X96663910Y-80164838I-97739J-236426D01*
G01*
X96465423Y-80096098D02*
G75*
G02X96564276Y-80091182I54625J-102069D01*
G01*
X96465422Y-80096099D02*
G75*
G02X96276310Y-80147726I-207398J387527D01*
G01*
X96276310Y-80147726D02*
G75*
G02X96052682Y-80123107I-31058J745865D01*
G01*
X96052682Y-80123107D02*
G75*
G02X95820115Y-80026282I243941J913646D01*
G01*
X95820114Y-80026282D02*
G75*
G02X95605354Y-79866463I605306J1037600D01*
G01*
X95475709Y-79745342D02*
X95605354Y-79866463D01*
X95346154Y-79941114D02*
X95475709Y-79745342D01*
X95346153Y-79941114D02*
G75*
G02X95219375Y-80085196I-585952J387765D01*
G01*
X95219375Y-80085196D02*
G75*
G02X95035050Y-80219499I-904062J1047146D01*
G01*
X95035050Y-80219499D02*
G75*
G02X94838542Y-80317808I-687095J1127869D01*
G01*
X94838541Y-80317808D02*
G75*
G02X94676607Y-80349000I-161933J404740D01*
G01*
X94676608Y-80349000D02*
G75*
G02X94541553Y-80316333I0J295508D01*
G01*
X94541552Y-80316334D02*
G75*
G02X94385437Y-80214612I414782J807240D01*
G01*
X94385438Y-80214611D02*
G75*
G02X94237767Y-80069574I678569J838580D01*
G01*
X94237767Y-80069574D02*
G75*
G02X94126224Y-79903636I720452J604747D01*
G01*
X94126224Y-79903636D02*
G75*
G02X94043786Y-79667424I742582J391651D01*
G01*
X94043786Y-79667423D02*
G75*
G02X94008726Y-79352739I2068935J389801D01*
G01*
X94008726Y-79352740D02*
G75*
G02X94021364Y-79025688I2202805J78649D01*
G01*
X94021364Y-79025687D02*
G75*
G02X94085000Y-78749000I1249521J-141718D01*
G01*
X94148349Y-78566337D02*
X94085000Y-78749000D01*
X94152961Y-78524822D02*
G75*
G02X94148349Y-78566337I-96082J-10339D01*
G01*
X94134613Y-78513836D02*
G75*
G02X94152961Y-78524821I5027J-12419D01*
G01*
X94063287Y-78547242D02*
G75*
G02X94134613Y-78513836I348227J-650669D01*
G01*
X94022193Y-78567053D02*
X94063287Y-78547241D01*
X93978706Y-78583796D02*
X94022193Y-78567053D01*
X93938981Y-78595545D02*
X93978706Y-78583796D01*
X93938980Y-78595545D02*
G75*
G02X93911163Y-78599000I-27817J110249D01*
G01*
X93911163Y-78598999D02*
G75*
G02X93826523Y-78546155I0J94205D01*
G01*
X93697842Y-78258364D02*
X93826523Y-78546155D01*
X93697842Y-78258365D02*
G75*
G02X93586590Y-77940038I3113848J1266860D01*
G01*
X93586590Y-77940037D02*
G75*
G02X93532556Y-77668408I1483359J436270D01*
G01*
X93518530Y-77480078D02*
X93532556Y-77668408D01*
X93518530Y-77480078D02*
G75*
G02X93526463Y-77355546I591379J24845D01*
G01*
X93526463Y-77355546D02*
G75*
G02X93560218Y-77236905I564174J-96394D01*
G01*
X93634816Y-77069900D02*
X93560218Y-77236905D01*
X93771297Y-76790943D02*
X93634816Y-77069900D01*
X93545281Y-76307472D02*
X93771297Y-76790943D01*
X93380064Y-75927521D02*
X93545281Y-76307472D01*
X93211551Y-75486155D02*
X93380064Y-75927521D01*
X93068011Y-75064621D02*
X93211551Y-75486155D01*
X93068012Y-75064621D02*
G75*
G02X92986496Y-74759296I3064177J981620D01*
G01*
X92965266Y-74689075D02*
G75*
G02X92986496Y-74759296I-417503J-164545D01*
G01*
X92930651Y-74614246D02*
G75*
G02X92965265Y-74689075I-628923J-336339D01*
G01*
X92888911Y-74546126D02*
G75*
G02X92930652Y-74614246I-559047J-389412D01*
G01*
X92846115Y-74496796D02*
G75*
G02X92888911Y-74546126I-210027J-225437D01*
G01*
X92741143Y-74399000D02*
X92846114Y-74496796D01*
X92942744Y-74399000D02*
X92741143Y-74399000D01*
X92942744Y-74399000D02*
G75*
G02X93262076Y-74449138I-1J-1042000D01*
G01*
X93758242Y-74630648D02*
X93262076Y-74449138D01*
X94356738Y-74902131D02*
X93758242Y-74630648D01*
X95026886Y-75255532D02*
X94356738Y-74902131D01*
X95318773Y-75418343D02*
X95026886Y-75255532D01*
X95484728Y-75221172D02*
X95318773Y-75418343D01*
X95550789Y-75147982D02*
X95484728Y-75221172D01*
X95550789Y-75147982D02*
G75*
G02X95611874Y-75091716I518662J-501786D01*
G01*
X95611874Y-75091716D02*
G75*
G02X95662289Y-75055040I341804J-416857D01*
G01*
X95662289Y-75055039D02*
G75*
G02X95684523Y-75057349I9673J-15056D01*
G01*
X95684522Y-75057349D02*
G75*
G02X95696717Y-75111265I-35934J-36465D01*
G01*
X95548062Y-75514449D02*
X95696717Y-75111265D01*
X95392441Y-75907132D02*
X95548062Y-75514449D01*
X95250293Y-76215822D02*
X95392441Y-75907132D01*
X95153558Y-76407643D02*
X95250293Y-76215822D01*
X95325186Y-76574326D02*
X95153558Y-76407643D01*
X95325186Y-76574326D02*
G75*
G02X95392691Y-76647618I-623535J-642034D01*
G01*
X95392691Y-76647618D02*
G75*
G02X95453642Y-76729938I-771403J-634881D01*
G01*
X95453642Y-76729938D02*
G75*
G02X95500270Y-76808978I-720641J-478400D01*
G01*
X95500270Y-76808979D02*
G75*
G02X95521473Y-76870005I-197611J-102855D01*
G01*
X95521473Y-76870004D02*
G75*
G02X95532039Y-76966643I-597546J-114229D01*
G01*
X95532039Y-76966643D02*
G75*
G02X95507232Y-76993910I-26545J-768D01*
G01*
X95507232Y-76993910D02*
G75*
G02X95462494Y-76974346I-3475J52987D01*
G01*
X95462494Y-76974346D02*
G75*
G02X95392521Y-76878463I915672J741703D01*
G01*
X95173732Y-76712703D02*
G75*
G02X95392521Y-76878463I-123132J-389795D01*
G01*
X94848366Y-76681952D02*
G75*
G02X95173732Y-76712703I91156J-772184D01*
G01*
X94489296Y-76791461D02*
G75*
G02X94848366Y-76681952I482996J-940269D01*
G01*
X94180177Y-77021579D02*
G75*
G02X94489296Y-76791461I843863J-810888D01*
G01*
X94099440Y-77114854D02*
G75*
G02X94180176Y-77021579I936290J-728844D01*
G01*
X94026187Y-77218789D02*
G75*
G02X94099441Y-77114854I1129781J-718505D01*
G01*
X93969747Y-77317940D02*
G75*
G02X94026186Y-77218789I1039897J-526296D01*
G01*
X93943578Y-77393609D02*
G75*
G02X93969747Y-77317940I290466J-58093D01*
G01*
X93934078Y-77552982D02*
G75*
G02X93943578Y-77393609I579119J45449D01*
G01*
X93963130Y-77782653D02*
G75*
G02X93934078Y-77552982I2400884J420370D01*
G01*
X94010120Y-78003539D02*
X93963130Y-77782653D01*
X94063036Y-78075877D02*
G75*
G02X94010120Y-78003539I62628J101336D01*
G01*
X94143391Y-78086946D02*
G75*
G02X94063035Y-78075877I-27674J96310D01*
G01*
X94354448Y-78018690D02*
X94143391Y-78086945D01*
X94562342Y-77933083D02*
G75*
G02X94354448Y-78018690I-1057322J2272450D01*
G01*
X94685000Y-77851830D02*
G75*
G02X94562342Y-77933083I-330900J366311D01*
G01*
X94685000Y-77851830D02*
G75*
G02X94796318Y-77764129I705538J-781039D01*
G01*
X94796318Y-77764130D02*
G75*
G02X94909399Y-77700535I418543J-611902D01*
G01*
X94909399Y-77700534D02*
G75*
G02X95022407Y-77661990I256681J-567623D01*
G01*
X95022406Y-77661990D02*
G75*
G02X95133535Y-77649000I111129J-468859D01*
G01*
X95133535Y-77649000D02*
G75*
G02X95199369Y-77659554I0J-210613D01*
G01*
X95199370Y-77659554D02*
G75*
G02X95213091Y-77688804I-6944J-21101D01*
G01*
X95213091Y-77688804D02*
G75*
G02X95177158Y-77750362I-217881J85917D01*
G01*
X95016364Y-77946138D02*
X95177158Y-77750362D01*
X94775463Y-78272874D02*
G75*
G02X95016364Y-77946138I2897928J-1884461D01*
G01*
X94591928Y-78605067D02*
G75*
G02X94775463Y-78272874I2400689J-1109571D01*
G01*
X94471065Y-78931465D02*
G75*
G02X94591928Y-78605067I2140287J-606958D01*
G01*
X94417973Y-79240830D02*
G75*
G02X94471065Y-78931465I1475229J-93935D01*
G01*
X94433952Y-79581621D02*
G75*
G02X94417973Y-79240830I1528560J242442D01*
G01*
X94534251Y-79822863D02*
G75*
G02X94433952Y-79581621I449852J328501D01*
G01*
X94694933Y-79920394D02*
G75*
G02X94534250Y-79822863I36782J241728D01*
G01*
X94884118Y-79879175D02*
G75*
G02X94694932Y-79920393I-148441J226549D01*
G01*
X95017424Y-79766510D02*
G75*
G02X94884118Y-79879176I-527452J488878D01*
G01*
X95152313Y-79599998D02*
G75*
G02X95017424Y-79766509I-1315726J927968D01*
G01*
X95278272Y-79396093D02*
G75*
G02X95152313Y-79599998I-1734647J930685D01*
G01*
X95384915Y-79169117D02*
G75*
G02X95278271Y-79396093I-2184480J887838D01*
G01*
X95499474Y-78887253D02*
X95384916Y-79169117D01*
X95535839Y-79055627D02*
X95499474Y-78887253D01*
X95644505Y-79371412D02*
G75*
G02X95535839Y-79055627I1269454J613426D01*
G01*
X95813917Y-79597438D02*
G75*
G02X95644504Y-79371412I493361J546292D01*
G01*
X96031518Y-79717302D02*
G75*
G02X95813917Y-79597437I145978J522450D01*
G01*
X96280506Y-79728143D02*
G75*
G02X96031518Y-79717303I-101237J539640D01*
G01*
X96534899Y-79621891D02*
G75*
G02X96280506Y-79728142I-376207J543073D01*
G01*
X96736677Y-79417287D02*
G75*
G02X96534900Y-79621892I-642984J432300D01*
G01*
X96865950Y-79131577D02*
G75*
G02X96736677Y-79417286I-912020J240557D01*
G01*
X96909999Y-78791859D02*
G75*
G02X96865950Y-79131577I-1332013J0D01*
G01*
X96909999Y-78791860D02*
G75*
G02X96920381Y-78690901I496090J0D01*
G01*
X96920381Y-78690900D02*
G75*
G02X96951916Y-78679152I19463J-4046D01*
G01*
X96951916Y-78679152D02*
G75*
G02X96997228Y-78739447I-84706J-110831D01*
G01*
X97054901Y-78902605D02*
X96997228Y-78739447D01*
X97147590Y-79092082D02*
G75*
G02X97054901Y-78902605I597371J409633D01*
G01*
X97296243Y-79260871D02*
G75*
G02X97147590Y-79092082I619915J695815D01*
G01*
X97469547Y-79379359D02*
G75*
G02X97296243Y-79260871I373397J732124D01*
G01*
X97634524Y-79419001D02*
G75*
G02X97469547Y-79379359I0J363114D01*
G01*
X97872740Y-79345201D02*
G75*
G02X97634524Y-79419000I-238217J347573D01*
G01*
X98095498Y-79131145D02*
G75*
G02X97872740Y-79345202I-755581J563362D01*
G01*
X98255023Y-78832544D02*
G75*
G02X98095499Y-79131145I-1067501J378387D01*
G01*
X98309670Y-78513492D02*
G75*
G02X98255023Y-78832544I-951058J-1309D01*
G01*
X98275337Y-78278489D02*
G75*
G02X98309670Y-78513492I-794918J-236145D01*
G01*
X98176037Y-78078973D02*
G75*
G02X98275337Y-78278489I-521078J-383810D01*
G01*
X98000216Y-77901976D02*
G75*
G02X98176037Y-78078973I-508888J-681333D01*
G01*
X97734999Y-77733293D02*
G75*
G02X98000216Y-77901976I-989374J-1848411D01*
G01*
X97585000Y-77653004D02*
X97735000Y-77733293D01*
X97793234Y-77651002D02*
X97585000Y-77653004D01*
X98001468Y-77649000D02*
X97793234Y-77651002D01*
X98035291Y-77286500D02*
X98001468Y-77649000D01*
X98053014Y-76754674D02*
G75*
G02X98035291Y-77286500I-4455915J-117717D01*
G01*
X98016501Y-75795273D02*
X98053014Y-76754674D01*
X97960866Y-74796823D02*
X98016501Y-75795273D01*
X97899869Y-74562158D02*
G75*
G02X97960866Y-74796823I-571025J-273686D01*
G01*
X97773034Y-74426336D02*
G75*
G02X97899869Y-74562158I-152855J-269874D01*
G01*
X97434462Y-74254382D02*
G75*
G02X97773034Y-74426336I-1722669J-3811183D01*
G01*
X96932217Y-74049720D02*
X97434462Y-74254382D01*
X96202633Y-73795000D02*
X96932217Y-74049720D01*
X94880193Y-73394771D02*
X96202633Y-73795000D01*
X93663859Y-73114219D02*
X94880193Y-73394771D01*
X92657779Y-72957742D02*
X93663859Y-73114219D01*
X92228512Y-73038776D02*
G75*
G02X92657779Y-72957742I342382J-636213D01*
G01*
X92143719Y-73116403D02*
G75*
G02X92228512Y-73038776I195935J-128897D01*
G01*
X92053045Y-73276590D02*
G75*
G02X92143720Y-73116404I1242746J-597710D01*
G01*
X91982330Y-73454102D02*
G75*
G02X92053045Y-73276590I1315900J-421370D01*
G01*
X91959999Y-73597061D02*
G75*
G02X91982330Y-73454101I468781J0D01*
G01*
X91959999Y-73597062D02*
G75*
G02X91945913Y-73685280I-283286J1D01*
G01*
X91945913Y-73685279D02*
G75*
G02X91904156Y-73720063I-48644J15940D01*
G01*
X91904156Y-73720062D02*
G75*
G02X91845121Y-73701006I-9650J71076D01*
G01*
X91845121Y-73701006D02*
G75*
G02X91778863Y-73621652I308385J324830D01*
G01*
X91778863Y-73621652D02*
G75*
G02X91698300Y-73393256I424496J278141D01*
G01*
X91698300Y-73393256D02*
G75*
G02X91714582Y-73111846I902935J88934D01*
G01*
X91714582Y-73111847D02*
G75*
G02X91816763Y-72847585I895626J-194423D01*
G01*
X91816763Y-72847584D02*
G75*
G02X91985673Y-72668961I460303J-266099D01*
G01*
X91985673Y-72668960D02*
G75*
G02X92064641Y-72632566I161398J-246327D01*
G01*
X92064641Y-72632566D02*
G75*
G02X92191011Y-72602096I386443J-1325418D01*
G01*
X92352717Y-72577801D02*
X92191011Y-72602096D01*
X92547133Y-72561268D02*
X92352717Y-72577801D01*
X92791015Y-72538972D02*
X92547133Y-72561268D01*
X92982950Y-72503950D02*
G75*
G02X92791015Y-72538972I-392008J1604890D01*
G01*
X93173076Y-72445780D02*
G75*
G02X92982950Y-72503950I-601707J1626853D01*
G01*
X93412293Y-72349945D02*
X93173075Y-72445780D01*
X94769815Y-71586649D02*
G75*
G02X93412293Y-72349945I-4321416J6096813D01*
G01*
X95972494Y-70543645D02*
G75*
G02X94769815Y-71586649I-5916227J5607044D01*
G01*
X96949181Y-69287108D02*
G75*
G02X95972493Y-70543644I-6889364J4347152D01*
G01*
X97637625Y-67891621D02*
G75*
G02X96949180Y-69287108I-6990689J2581201D01*
G01*
X97730521Y-67651929D02*
X97637625Y-67891620D01*
X97730521Y-67651930D02*
G75*
G02X97787301Y-67554935I363234J-147518D01*
G01*
X97787301Y-67554934D02*
G75*
G02X97857876Y-67501256I141683J-113047D01*
G01*
X97857875Y-67501257D02*
G75*
G02X97981906Y-67460125I309429J-725501D01*
G01*
X94781156Y-65086174D02*
X93935000Y-65226872D01*
X95499765Y-64966721D02*
X94781156Y-65086174D01*
X96142319Y-64859933D02*
X95499765Y-64966721D01*
X96172500Y-64855007D02*
X96142319Y-64859933D01*
X96172500Y-64855008D02*
G75*
G02X96200454Y-64865911I4688J-29267D01*
G01*
X96200455Y-64865911D02*
G75*
G02X96207791Y-64897592I-29925J-23619D01*
G01*
X96207791Y-64897592D02*
G75*
G02X96186040Y-64946315I-126999J27477D01*
G01*
X96186040Y-64946315D02*
G75*
G02X96142734Y-64992581I-204705J148207D01*
G01*
X96142734Y-64992582D02*
G75*
G02X96106295Y-65016186I-117849J142000D01*
G01*
X96049600Y-65041134D02*
X96106295Y-65016186D01*
X95984541Y-65063478D02*
X96049600Y-65041134D01*
X95984541Y-65063478D02*
G75*
G02X95920138Y-65079473I-205782J690901D01*
G01*
X95829322Y-65102447D02*
G75*
G02X95920138Y-65079473I273226J-889075D01*
G01*
X95793635Y-65129562D02*
G75*
G02X95829322Y-65102447I54803J-35087D01*
G01*
X95783650Y-65173559D02*
G75*
G02X95793634Y-65129562I65950J8165D01*
G01*
X95799904Y-65267270D02*
G75*
G02X95783650Y-65173559I956120J214100D01*
G01*
X95799903Y-65267269D02*
G75*
G02X95836766Y-65565139I-1509538J-338027D01*
G01*
X95833341Y-65997838D02*
X95836766Y-65565139D01*
X95800854Y-66427675D02*
X95833341Y-65997838D01*
X95800854Y-66427674D02*
G75*
G02X95739443Y-66713088I-1413262J154770D01*
G01*
X95701104Y-66825256D02*
X95739443Y-66713088D01*
X95663767Y-66922940D02*
X95701104Y-66825256D01*
X95629921Y-67003181D02*
X95663767Y-66922940D01*
X95629921Y-67003181D02*
G75*
G02X95614006Y-67021524I-37338J16320D01*
G01*
X95614006Y-67021524D02*
G75*
G02X95601417Y-67015029I-4344J7028D01*
G01*
X95592234Y-66856461D02*
X95601417Y-67015029D01*
X95585649Y-66664428D02*
X95592234Y-66856461D01*
X95583850Y-66432436D02*
X95585649Y-66664428D01*
X95569349Y-65945003D02*
X95583850Y-66432436D01*
X95522073Y-65550113D02*
G75*
G02X95569349Y-65945003I-3389630J-606077D01*
G01*
X95453028Y-65265254D02*
G75*
G02X95522074Y-65550113I-2302587J-708914D01*
G01*
X95363307Y-65199000D02*
G75*
G02X95453028Y-65265254I0J-93877D01*
G01*
X95218866Y-65213233D02*
G75*
G02X95363307Y-65199000I144442J-725817D01*
G01*
X93790660Y-65498186D02*
X95218867Y-65213233D01*
X92320809Y-65792471D02*
X93790660Y-65498186D01*
X92275721Y-65816613D02*
G75*
G02X92320809Y-65792471I62439J-62439D01*
G01*
X92271032Y-65830691D02*
G75*
G02X92275721Y-65816613I16415J2352D01*
G01*
X92278309Y-65870901D02*
X92271031Y-65830691D01*
X92291447Y-65920323D02*
G75*
G02X92278309Y-65870901I554825J173947D01*
G01*
X92310538Y-65975418D02*
X92291447Y-65920323D01*
X92310538Y-65975418D02*
G75*
G02X92313578Y-66121048I-202733J-77079D01*
G01*
X92313578Y-66121048D02*
G75*
G02X92221982Y-66200154I-112254J37396D01*
G01*
X92221981Y-66200154D02*
G75*
G02X92062371Y-66173849I-42484J239602D01*
G01*
X92062371Y-66173849D02*
G75*
G02X91908977Y-66046620I253614J461856D01*
G01*
X91827457Y-65956616D02*
G75*
G02X91908977Y-66046620I-898712J-895917D01*
G01*
X91770210Y-65922104D02*
G75*
G02X91827457Y-65956616I-40560J-132015D01*
G01*
X91700838Y-65916879D02*
G75*
G02X91770211Y-65922104I23160J-155636D01*
G01*
X91567584Y-65941730D02*
X91700837Y-65916879D01*
X91387733Y-65987871D02*
X91567584Y-65941730D01*
X91326668Y-66029911D02*
G75*
G02X91387733Y-65987871I93609J-70601D01*
G01*
X91318066Y-66089876D02*
G75*
G02X91326668Y-66029911I58704J22178D01*
G01*
X91371113Y-66202228D02*
G75*
G02X91318066Y-66089876I675029J387413D01*
G01*
X91423497Y-66296675D02*
X91371113Y-66202228D01*
X91423497Y-66296675D02*
G75*
G02X91429925Y-66328523I-49645J-26593D01*
G01*
X91429925Y-66328523D02*
G75*
G02X91414318Y-66344922I-18213J1707D01*
G01*
X91414318Y-66344922D02*
G75*
G02X91357358Y-66349000I-56960J395737D01*
G01*
X91304505Y-66369060D02*
G75*
G02X91357358Y-66349000I52853J-59597D01*
G01*
X91275118Y-66420219D02*
G75*
G02X91304506Y-66369060I90891J-18192D01*
G01*
X91263694Y-66531789D02*
G75*
G02X91275118Y-66420220I588093J-3849D01*
G01*
X91264251Y-66814196D02*
X91263693Y-66531788D01*
X91255099Y-67164831D02*
X91264251Y-66814196D01*
X91255099Y-67164831D02*
G75*
G02X91218116Y-67447901I-2120849J133132D01*
G01*
X91218116Y-67447901D02*
G75*
G02X91161732Y-67647316I-1297010J259047D01*
G01*
X91161732Y-67647316D02*
G75*
G02X91087533Y-67699000I-74199J27419D01*
G01*
X91087533Y-67699002D02*
G75*
G02X90978279Y-67628496I0J119902D01*
G01*
X90824298Y-67252348D02*
X90978279Y-67628496D01*
X90824299Y-67252348D02*
G75*
G02X90698875Y-66847740I3832621J1409812D01*
G01*
X90698875Y-66847740D02*
G75*
G02X90660000Y-66536736I1224592J311004D01*
G01*
X90657194Y-66456876D02*
X90660000Y-66536736D01*
X90643522Y-66428368D02*
G75*
G02X90657194Y-66456876I-29170J-31522D01*
G01*
X90617492Y-66423094D02*
G75*
G02X90643521Y-66428368I8681J-24021D01*
G01*
X90563287Y-66447241D02*
G75*
G02X90617492Y-66423093I193803J-362125D01*
G01*
X90563286Y-66447241D02*
G75*
G02X90512764Y-66467169I-110992J207390D01*
G01*
X90437593Y-66483796D02*
X90512764Y-66467169D01*
X90353097Y-66495196D02*
X90437593Y-66483796D01*
X90353097Y-66495196D02*
G75*
G02X90271203Y-66499000I-81894J879604D01*
G01*
X90147725Y-66506804D02*
G75*
G02X90271203Y-66499000I123478J-972935D01*
G01*
X90088902Y-66536507D02*
G75*
G02X90147725Y-66506805I71215J-67940D01*
G01*
X90047973Y-66603853D02*
G75*
G02X90088902Y-66536506I174084J-59686D01*
G01*
X89985000Y-66799000D02*
X90047973Y-66603853D01*
X89912739Y-67011728D02*
X89985000Y-66799000D01*
X89912738Y-67011728D02*
G75*
G02X89853042Y-67089438I-158118J59682D01*
G01*
X89853043Y-67089437D02*
G75*
G02X89816732Y-67070807I-13364J18654D01*
G01*
X89816732Y-67070806D02*
G75*
G02X89827956Y-66911500I1120061J1134D01*
G01*
X89884880Y-66499053D02*
X89827956Y-66911500D01*
X89895477Y-66348428D02*
G75*
G02X89884880Y-66499053I-1211286J9539D01*
G01*
X89878869Y-66275835D02*
G75*
G02X89895478Y-66348428I-144783J-71322D01*
G01*
X89833239Y-66240637D02*
G75*
G02X89878869Y-66275836I-13064J-64112D01*
G01*
X89833239Y-66240637D02*
G75*
G02X89804704Y-66207024I7125J34967D01*
G01*
X89804704Y-66207024D02*
G75*
G02X89815367Y-66131744I213768J8117D01*
G01*
X89815367Y-66131743D02*
G75*
G02X89871175Y-65993587I1096707J-362663D01*
G01*
X90004082Y-65724000D02*
X89871175Y-65993587D01*
X90260686Y-65225386D02*
X90004082Y-65724000D01*
X90260686Y-65225385D02*
G75*
G02X90385963Y-65024639I1398922J-733544D01*
G01*
X90385963Y-65024639D02*
G75*
G02X90488363Y-64931999I276802J-203050D01*
G01*
X90488363Y-64931999D02*
G75*
G02X90609265Y-64899000I120902J-204983D01*
G01*
X90609265Y-64899001D02*
G75*
G02X90667014Y-64902457I-1J-484199D01*
G01*
X90667014Y-64902457D02*
G75*
G02X90715721Y-64912969I-31990J-266302D01*
G01*
X90715721Y-64912970D02*
G75*
G02X90749649Y-64928258I-47641J-151012D01*
G01*
X90749650Y-64928258D02*
G75*
G02X90760000Y-64946554I-10996J-18296D01*
G01*
X90759999Y-64946554D02*
G75*
G02X90753359Y-64978188I-78670J0D01*
G01*
X90705997Y-65083522D02*
X90753359Y-64978188D01*
X90646594Y-65207757D02*
X90705997Y-65083522D01*
X90576161Y-65346049D02*
X90646594Y-65207757D01*
X90508232Y-65483472D02*
X90576161Y-65346049D01*
X90456613Y-65604895D02*
X90508232Y-65483472D01*
X90420746Y-65705178D02*
X90456613Y-65604895D01*
X90427345Y-65733012D02*
G75*
G02X90420746Y-65705178I19267J19267D01*
G01*
X90509510Y-65760650D02*
G75*
G02X90427344Y-65733012I-13255J96548D01*
G01*
X91243656Y-65657287D02*
X90509510Y-65760650D01*
X92265050Y-65500919D02*
X91243656Y-65657287D01*
X93935000Y-65226872D02*
X92265050Y-65500919D01*
X95140962Y-91649000D02*
X95191373Y-91953816D01*
X94903431Y-91649000D02*
X95140962Y-91649000D01*
X94810119Y-91652800D02*
X94903431Y-91649000D01*
X94726236Y-91664273D02*
G75*
G02X94810119Y-91652800I147027J-762580D01*
G01*
X94659987Y-91680759D02*
G75*
G02X94726237Y-91664273I187273J-611219D01*
G01*
X94633768Y-91700992D02*
G75*
G02X94659986Y-91680759I39990J-24715D01*
G01*
X94623831Y-91737620D02*
G75*
G02X94633769Y-91700992I66649J1578D01*
G01*
X94628574Y-91841458D02*
X94623831Y-91737620D01*
X94640730Y-91967091D02*
X94628574Y-91841458D01*
X94661208Y-92106164D02*
X94640730Y-91967091D01*
X94720779Y-92459345D02*
X94661208Y-92106164D01*
X94875276Y-92428445D02*
X94720779Y-92459345D01*
X94942177Y-92411551D02*
G75*
G02X94875276Y-92428445I-202385J660522D01*
G01*
X95015528Y-92386219D02*
X94942177Y-92411551D01*
X95084140Y-92356939D02*
X95015528Y-92386219D01*
X95135778Y-92328087D02*
G75*
G02X95084140Y-92356939I-230015J351046D01*
G01*
X95193442Y-92277580D02*
G75*
G02X95135778Y-92328088I-208954J180390D01*
G01*
X95218315Y-92223318D02*
G75*
G02X95193442Y-92277580I-105959J15739D01*
G01*
X95218991Y-92139541D02*
G75*
G02X95218316Y-92223318I-298873J-39483D01*
G01*
X95191373Y-91953816D02*
X95218991Y-92139541D01*
X96438725Y-91330386D02*
X96463142Y-91411500D01*
X96412439Y-91262781D02*
G75*
G02X96438725Y-91330386I-688886J-306770D01*
G01*
X96387315Y-91212127D02*
X96412438Y-91262781D01*
X96370573Y-91203626D02*
G75*
G02X96387315Y-91212127I2146J-16510D01*
G01*
X96345563Y-91210554D02*
G75*
G02X96370572Y-91203626I36915J-84643D01*
G01*
X96231781Y-91260612D02*
X96345564Y-91210554D01*
X96098901Y-91320714D02*
X96231781Y-91260612D01*
X95948043Y-91391126D02*
X96098901Y-91320714D01*
X95756366Y-91486409D02*
X95948043Y-91391126D01*
X95643582Y-91556734D02*
G75*
G02X95756366Y-91486409I515842J-701684D01*
G01*
X95581225Y-91616964D02*
G75*
G02X95643582Y-91556734I254365J-200952D01*
G01*
X95560542Y-91675996D02*
G75*
G02X95581224Y-91616964I96053J-512D01*
G01*
X95601056Y-91965641D02*
G75*
G02X95560543Y-91675996I976383J284223D01*
G01*
X95752707Y-92425840D02*
X95601056Y-91965641D01*
X95932452Y-92884816D02*
X95752707Y-92425840D01*
X96029328Y-92946870D02*
G75*
G02X95932452Y-92884816I-3850J100635D01*
G01*
X96101839Y-92911340D02*
G75*
G02X96029328Y-92946871I-76319J63995D01*
G01*
X96267210Y-92704953D02*
X96101839Y-92911340D01*
X96431102Y-92473781D02*
X96267210Y-92704953D01*
X96554721Y-92260364D02*
G75*
G02X96431102Y-92473781I-1993258J1012052D01*
G01*
X96615622Y-92129190D02*
X96554721Y-92260363D01*
X96635990Y-92047069D02*
G75*
G02X96615622Y-92129190I-270572J23520D01*
G01*
X96629542Y-91964793D02*
G75*
G02X96635989Y-92047069I-243986J-60507D01*
G01*
X96591666Y-91835363D02*
X96629543Y-91964792D01*
X96560144Y-91739053D02*
X96591666Y-91835363D01*
X96524407Y-91623666D02*
X96560144Y-91739053D01*
X96490128Y-91508148D02*
X96524407Y-91623666D01*
X96463142Y-91411500D02*
X96490128Y-91508148D01*
X83228516Y-73213606D02*
X83650659Y-73501910D01*
X82858212Y-72971211D02*
X83228516Y-73213606D01*
X82538150Y-72769155D02*
X82858212Y-72971211D01*
X82475659Y-72752552D02*
G75*
G02X82538150Y-72769155I4298J-109727D01*
G01*
X82304891Y-72779023D02*
G75*
G02X82475659Y-72752552I200335J-728336D01*
G01*
X81962203Y-72879261D02*
X82304891Y-72779023D01*
X81566589Y-73010077D02*
X81962203Y-72879261D01*
X81166589Y-73158517D02*
X81566589Y-73010077D01*
X80137487Y-73622807D02*
G75*
G02X81166589Y-73158517I5052583J-9826438D01*
G01*
X79058085Y-74231724D02*
X80137487Y-73622807D01*
X77963567Y-74962861D02*
X79058085Y-74231724D01*
X76888661Y-75794988D02*
X77963567Y-74962861D01*
X76456057Y-76159870D02*
X76888661Y-75794988D01*
X76289226Y-76329819D02*
G75*
G02X76456057Y-76159870I1077110J-890485D01*
G01*
X76310080Y-76354751D02*
G75*
G02X76289226Y-76329819I-8115J14400D01*
G01*
X76547500Y-76207649D02*
X76310081Y-76354751D01*
X76867511Y-76008124D02*
X76547500Y-76207649D01*
X77221943Y-75820575D02*
X76867511Y-76008124D01*
X77564756Y-75666894D02*
X77221943Y-75820575D01*
X77564756Y-75666894D02*
G75*
G02X77845533Y-75573358I839833J-2052824D01*
G01*
X77845532Y-75573358D02*
G75*
G02X78385384Y-75503242I547471J-2101887D01*
G01*
X78385384Y-75503242D02*
G75*
G02X78865150Y-75585920I4926J-1404753D01*
G01*
X78865150Y-75585920D02*
G75*
G02X79275353Y-75823708I-446303J-1242620D01*
G01*
X79275353Y-75823708D02*
G75*
G02X79611704Y-76207702I-1141496J-1339174D01*
G01*
X79689883Y-76327909D02*
X79611704Y-76207702D01*
X79758822Y-76432275D02*
X79689883Y-76327909D01*
X79818496Y-76521449D02*
X79758822Y-76432275D01*
X79831090Y-76536758D02*
G75*
G02X79818496Y-76521449I72385J72384D01*
G01*
X79846760Y-76540227D02*
G75*
G02X79831091Y-76536758I-5114J14024D01*
G01*
X79917007Y-76513403D02*
X79846759Y-76540227D01*
X80000937Y-76477204D02*
X79917007Y-76513403D01*
X80096941Y-76430618D02*
X80000937Y-76477204D01*
X80369543Y-76306909D02*
X80096941Y-76430618D01*
X80669430Y-76198315D02*
X80369543Y-76306909D01*
X80977965Y-76110787D02*
X80669430Y-76198315D01*
X81276583Y-76050345D02*
X80977965Y-76110787D01*
X81276583Y-76050346D02*
G75*
G02X82098911Y-76080972I333892J-2090072D01*
G01*
X82098911Y-76080972D02*
G75*
G02X82839249Y-76423615I-472396J-1991825D01*
G01*
X82839249Y-76423615D02*
G75*
G02X83459915Y-77075200I-1525493J-2074505D01*
G01*
X83459915Y-77075200D02*
G75*
G02X83931977Y-78002999I-3787006J-2510814D01*
G01*
X84017092Y-78231997D02*
X83931977Y-78002999D01*
X84576046Y-78042178D02*
X84017092Y-78231997D01*
X85067878Y-77895424D02*
X84576046Y-78042178D01*
X85563985Y-77787648D02*
X85067878Y-77895424D01*
X86050321Y-77721405D02*
X85563985Y-77787648D01*
X86050321Y-77721405D02*
G75*
G02X86512801Y-77699202I464772J-4853128D01*
G01*
X86940602Y-77699000D02*
X86512801Y-77699202D01*
X87122120Y-76986500D02*
X86940602Y-77699000D01*
X87193803Y-76706292D02*
X87122120Y-76986500D01*
X87258995Y-76453922D02*
X87193803Y-76706292D01*
X87314242Y-76242010D02*
X87258995Y-76453922D01*
X87333181Y-76174000D02*
X87314242Y-76242010D01*
X87310254Y-76090452D02*
G75*
G02X87333181Y-76174000I-55902J-60260D01*
G01*
X87119319Y-75927315D02*
X87310254Y-76090453D01*
X86774823Y-75671027D02*
X87119319Y-75927315D01*
X86048861Y-75164410D02*
X86774823Y-75671027D01*
X85466791Y-74761280D02*
X86048861Y-75164410D01*
X84802421Y-74300844D02*
X85466791Y-74761280D01*
X84159786Y-73855231D02*
X84802421Y-74300844D01*
X83650659Y-73501910D02*
X84159786Y-73855231D01*
X81301314Y-71876302D02*
X81535000Y-72039474D01*
X81095961Y-71733637D02*
X81301314Y-71876302D01*
X80920352Y-71612167D02*
X81095961Y-71733637D01*
X80882955Y-71587845D02*
X80920352Y-71612167D01*
X80791987Y-71583987D02*
G75*
G02X80882955Y-71587845I42006J-83934D01*
G01*
X80328146Y-71821186D02*
X80791986Y-71583987D01*
X79851847Y-72084030D02*
X80328146Y-71821186D01*
X79433681Y-72344933D02*
X79851847Y-72084030D01*
X78735099Y-72860495D02*
G75*
G02X79433681Y-72344933I5799847J-7127673D01*
G01*
X77993779Y-73505124D02*
X78735099Y-72860494D01*
X77291516Y-74201267D02*
X77993779Y-73505124D01*
X76710988Y-74873499D02*
G75*
G02X77291516Y-74201267I7775712J-6128186D01*
G01*
X76333525Y-75379935D02*
X76710988Y-74873500D01*
X75908195Y-76004664D02*
X76333525Y-75379935D01*
X75502495Y-76629751D02*
X75908195Y-76004664D01*
X75460000Y-76774941D02*
G75*
G02X75502495Y-76629751I269279J-1D01*
G01*
X75471809Y-76780418D02*
G75*
G02X75460000Y-76774942I-4635J5476D01*
G01*
X75588515Y-76680068D02*
X75471808Y-76780418D01*
X75729658Y-76552549D02*
X75588515Y-76680068D01*
X75897500Y-76392771D02*
X75729658Y-76552549D01*
X75897499Y-76392772D02*
G75*
G02X77299898Y-75183749I10999785J-11341273D01*
G01*
X77299898Y-75183749D02*
G75*
G02X78908828Y-74076210I11876032J-15529981D01*
G01*
X78908828Y-74076210D02*
G75*
G02X80521608Y-73192676I9339543J-15134432D01*
G01*
X80521608Y-73192677D02*
G75*
G02X81925091Y-72673104I3431144J-7112953D01*
G01*
X82166185Y-72596384D02*
G75*
G02X81925091Y-72673104I-912122J2449176D01*
G01*
X82188446Y-72531652D02*
G75*
G02X82166185Y-72596384I-37720J-23222D01*
G01*
X82101542Y-72438843D02*
G75*
G02X82188446Y-72531652I-184638J-259982D01*
G01*
X81535000Y-72039474D02*
X82101542Y-72438843D01*
X76210403Y-64827586D02*
G75*
G02X76334163Y-64887668I-554458J-1299609D01*
G01*
X76090976Y-64785204D02*
G75*
G02X76210403Y-64827587I-280386J-979518D01*
G01*
X75974601Y-64760138D02*
G75*
G02X76090976Y-64785203I-129582J-884306D01*
G01*
X75859999Y-64751941D02*
G75*
G02X75974600Y-64760138I2084J-776050D01*
G01*
X75622974Y-64776630D02*
G75*
G02X75860000Y-64751940I240194J-1155805D01*
G01*
X75475716Y-64853789D02*
G75*
G02X75622973Y-64776630I208941J-219660D01*
G01*
X75366941Y-65012354D02*
G75*
G02X75475717Y-64853790I427945J-176980D01*
G01*
X75251242Y-65330990D02*
G75*
G02X75366941Y-65012354I3690021J-1159553D01*
G01*
X75197819Y-65503224D02*
X75251241Y-65330990D01*
X75152625Y-65653857D02*
X75197819Y-65503224D01*
X75114896Y-65783272D02*
X75152625Y-65653857D01*
X75111014Y-65808010D02*
G75*
G02X75114896Y-65783272I99748J-2977D01*
G01*
X75120380Y-65818413D02*
G75*
G02X75111015Y-65808010I759J10101D01*
G01*
X75157935Y-65818367D02*
G75*
G02X75120380Y-65818413I-19075J245926D01*
G01*
X75210042Y-65810913D02*
G75*
G02X75157935Y-65818367I-83598J398543D01*
G01*
X75272169Y-65795510D02*
X75210042Y-65810914D01*
X75272170Y-65795510D02*
G75*
G02X75458475Y-65760425I280915J-979500D01*
G01*
X75458475Y-65760425D02*
G75*
G02X75687762Y-65751259I200985J-2155350D01*
G01*
X75687762Y-65751259D02*
G75*
G02X75927232Y-65766800I-30339J-2320300D01*
G01*
X75927232Y-65766801D02*
G75*
G02X76145792Y-65806934I-198678J-1697144D01*
G01*
X76145792Y-65806934D02*
G75*
G02X76359518Y-65896529I-188989J-750545D01*
G01*
X76359517Y-65896529D02*
G75*
G02X76558928Y-66052333I-568724J-933410D01*
G01*
X76558928Y-66052333D02*
G75*
G02X76740146Y-66271876I-987501J-999677D01*
G01*
X76740146Y-66271876D02*
G75*
G02X76899496Y-66551460I-1898416J-1267216D01*
G01*
X77049895Y-66864822D02*
X76899496Y-66551460D01*
X77150773Y-66667086D02*
X77049895Y-66864822D01*
X77225236Y-66493467D02*
G75*
G02X77150773Y-66667086I-1338996J471499D01*
G01*
X77281174Y-66300965D02*
G75*
G02X77225236Y-66493467I-1751862J404681D01*
G01*
X77312039Y-66133480D02*
G75*
G02X77281173Y-66300965I-1884500J260706D01*
G01*
X77282001Y-66099000D02*
G75*
G02X77312039Y-66133480I0J-30324D01*
G01*
X77261281Y-66104008D02*
G75*
G02X77282001Y-66099000I20720J-40359D01*
G01*
X77227417Y-66123389D02*
G75*
G02X77261281Y-66104008I229680J-362033D01*
G01*
X77189125Y-66150243D02*
G75*
G02X77227418Y-66123390I309526J-400678D01*
G01*
X77151130Y-66182027D02*
X77189124Y-66150242D01*
X77151130Y-66182028D02*
G75*
G02X77114194Y-66212054I-301559J333220D01*
G01*
X77114194Y-66212054D02*
G75*
G02X77079116Y-66233445I-147703J202751D01*
G01*
X77079116Y-66233446D02*
G75*
G02X77050279Y-66244555I-70980J141263D01*
G01*
X77050280Y-66244555D02*
G75*
G02X77034808Y-66240476I-4236J15315D01*
G01*
X77034808Y-66240475D02*
G75*
G02X77022105Y-66219480I36312J36311D01*
G01*
X76988210Y-66108791D02*
X77022105Y-66219480D01*
X76950615Y-65977624D02*
X76988210Y-66108791D01*
X76910690Y-65826701D02*
X76950615Y-65977624D01*
X76800449Y-65461404D02*
X76910690Y-65826701D01*
X76681404Y-65210628D02*
G75*
G02X76800449Y-65461404I-1103354J-677414D01*
G01*
X76532731Y-65030079D02*
G75*
G02X76681404Y-65210629I-574466J-624526D01*
G01*
X76334163Y-64887669D02*
G75*
G02X76532731Y-65030079I-483849J-884292D01*
G01*
X76174898Y-63281268D02*
G75*
G02X76393589Y-63370377I-802359J-2282076D01*
G01*
X76026713Y-63256871D02*
G75*
G02X76174898Y-63281269I5060J-431471D01*
G01*
X75901209Y-63287560D02*
G75*
G02X76026713Y-63256870I128854J-254967D01*
G01*
X75764658Y-63377753D02*
G75*
G02X75901209Y-63287561I456016J-541943D01*
G01*
X75648456Y-63516042D02*
G75*
G02X75764658Y-63377753I455041J-264398D01*
G01*
X75549980Y-63724473D02*
G75*
G02X75648457Y-63516042I1272568J-473767D01*
G01*
X75482637Y-63963151D02*
G75*
G02X75549980Y-63724473I1496711J-293463D01*
G01*
X75460190Y-64195576D02*
G75*
G02X75482636Y-63963151I1201318J1281D01*
G01*
X75460380Y-64374000D02*
X75460190Y-64195576D01*
X75935190Y-64377529D02*
X75460380Y-64374000D01*
X76410000Y-64381057D02*
X75935190Y-64377529D01*
X76411186Y-64227529D02*
X76410000Y-64381057D01*
X76411187Y-64227529D02*
G75*
G02X76419549Y-64149066I401405J-3103D01*
G01*
X76447246Y-64033438D02*
X76419549Y-64149066D01*
X76486291Y-63905298D02*
X76447246Y-64033438D01*
X76532276Y-63782388D02*
X76486291Y-63905298D01*
X76652179Y-63490777D02*
X76532276Y-63782388D01*
X76393589Y-63370377D02*
X76652179Y-63490777D01*
X87421221Y-49684703D02*
X87547188Y-49742533D01*
X87281219Y-49631381D02*
X87421221Y-49684703D01*
X87148286Y-49589587D02*
X87281219Y-49631381D01*
X87046855Y-49568635D02*
G75*
G02X87148286Y-49589587I-96547J-723372D01*
G01*
X86921534Y-49558577D02*
G75*
G02X87046856Y-49568635I-32853J-1195160D01*
G01*
X86843330Y-49571573D02*
G75*
G02X86921534Y-49558577I72500J-194485D01*
G01*
X86773281Y-49613380D02*
G75*
G02X86843329Y-49571573I149083J-170206D01*
G01*
X86675207Y-49707179D02*
G75*
G02X86773281Y-49613379I1119446J-1072288D01*
G01*
X86462115Y-50010494D02*
G75*
G02X86675207Y-49707179I1100224J-546443D01*
G01*
X86259085Y-50486641D02*
G75*
G02X86462115Y-50010495I4207452J-1512712D01*
G01*
X86080178Y-51078183D02*
G75*
G02X86259085Y-50486641I5833462J-1441457D01*
G01*
X85941106Y-51749000D02*
X86080178Y-51078183D01*
X85776025Y-53683643D02*
G75*
G02X85941106Y-51749000I11929765J-43590D01*
G01*
X85903074Y-55784891D02*
G75*
G02X85776025Y-53683643I16318736J2041160D01*
G01*
X86306919Y-57924308D02*
G75*
G02X85903075Y-55784891I16992068J4315310D01*
G01*
X86969902Y-59974001D02*
G75*
G02X86306919Y-57924308I15626856J6186651D01*
G01*
X87165022Y-60444659D02*
X86969902Y-59974000D01*
X87387818Y-60940578D02*
X87165022Y-60444659D01*
X87613749Y-61422697D02*
X87387818Y-60940578D01*
X87655042Y-61446718D02*
G75*
G02X87613749Y-61422697I-3199J42002D01*
G01*
X87673333Y-61437373D02*
G75*
G02X87655043Y-61446718I-20310J17178D01*
G01*
X87749072Y-61346636D02*
X87673332Y-61437373D01*
X87835827Y-61237866D02*
X87749072Y-61346636D01*
X87933075Y-61109218D02*
X87835827Y-61237866D01*
X88426136Y-60458286D02*
X87933075Y-61109218D01*
X88906020Y-59855965D02*
X88426136Y-60458286D01*
X89339639Y-59341675D02*
X88906020Y-59855965D01*
X89684740Y-58969698D02*
X89339639Y-59341675D01*
X89684740Y-58969698D02*
G75*
G02X90720768Y-58092753I5519882J-5470762D01*
G01*
X90720768Y-58092754D02*
G75*
G02X91789962Y-57517821I2886538J-4086407D01*
G01*
X91789963Y-57517821D02*
G75*
G02X92853734Y-57264074I1448168J-3714416D01*
G01*
X92853734Y-57264074D02*
G75*
G02X93875129Y-57335963I297255J-3068531D01*
G01*
X94099809Y-57391253D02*
X93875129Y-57335963D01*
X94099810Y-57391253D02*
G75*
G02X94149676Y-57411873I-44884J-179154D01*
G01*
X94149676Y-57411871D02*
G75*
G02X94146746Y-57426974I-4196J-7022D01*
G01*
X94047500Y-57438981D02*
X94146746Y-57426974D01*
X93975745Y-57447625D02*
X94047500Y-57438981D01*
X93915549Y-57460449D02*
G75*
G02X93975745Y-57447625I145422J-534906D01*
G01*
X93870918Y-57475184D02*
G75*
G02X93915550Y-57460450I160163J-410226D01*
G01*
X93861607Y-57489519D02*
G75*
G02X93870917Y-57475183I14641J683D01*
G01*
X93873028Y-57509368D02*
G75*
G02X93861606Y-57489519I13561J21014D01*
G01*
X93995549Y-57587309D02*
X93873027Y-57509368D01*
X94141905Y-57675682D02*
X93995549Y-57587309D01*
X94315323Y-57774000D02*
X94141905Y-57675682D01*
X94315322Y-57774001D02*
G75*
G02X95361991Y-58473728I-3623267J-6552443D01*
G01*
X95361991Y-58473728D02*
G75*
G02X96341526Y-59376468I-5842912J-7322763D01*
G01*
X96341527Y-59376468D02*
G75*
G02X97174995Y-60400186I-6709601J-6313823D01*
G01*
X97174995Y-60400186D02*
G75*
G02X97785000Y-61461167I-5585288J-3917078D01*
G01*
X97863663Y-61627617D02*
X97785000Y-61461167D01*
X97934374Y-61768147D02*
X97863663Y-61627617D01*
X97997249Y-61886998D02*
X97934374Y-61768147D01*
X98012658Y-61896998D02*
G75*
G02X97997249Y-61886998I1375J18991D01*
G01*
X98057774Y-61863518D02*
G75*
G02X98012658Y-61896998I-42006J9468D01*
G01*
X98166974Y-61366749D02*
X98057775Y-61863518D01*
X98258833Y-60895219D02*
X98166974Y-61366749D01*
X98296120Y-60574000D02*
G75*
G02X98258833Y-60895219I-2776392J159510D01*
G01*
X98291471Y-60283922D02*
G75*
G02X98296120Y-60574000I-1969676J-176646D01*
G01*
X98237556Y-60063921D02*
G75*
G02X98291471Y-60283922I-696517J-287302D01*
G01*
X98138573Y-59921698D02*
G75*
G02X98237555Y-60063922I-273371J-295813D01*
G01*
X98000995Y-59858516D02*
G75*
G02X98138573Y-59921698I-28003J-242356D01*
G01*
X97923286Y-59860846D02*
G75*
G02X98000995Y-59858517I46830J-264911D01*
G01*
X97874220Y-59889116D02*
G75*
G02X97923286Y-59860846I63529J-53547D01*
G01*
X97834906Y-59957125D02*
G75*
G02X97874220Y-59889116I210650J-76404D01*
G01*
X97779137Y-60121736D02*
X97834906Y-59957126D01*
X97738323Y-60234797D02*
X97779137Y-60121736D01*
X97688390Y-60344062D02*
X97738323Y-60234797D01*
X97637039Y-60435516D02*
X97688390Y-60344062D01*
X97637039Y-60435517D02*
G75*
G02X97593578Y-60487220I-198091J122393D01*
G01*
X97530253Y-60540881D02*
X97593578Y-60487220D01*
X97530252Y-60540881D02*
G75*
G02X97513118Y-60538809I-7561J9356D01*
G01*
X97513118Y-60538810D02*
G75*
G02X97507204Y-60515445I24480J18627D01*
G01*
X97526454Y-60399000D02*
X97507204Y-60515445D01*
X97541083Y-60285267D02*
G75*
G02X97526454Y-60399000I-1267734J105256D01*
G01*
X97564560Y-59989000D02*
X97541083Y-60285268D01*
X97589476Y-59635184D02*
X97564560Y-59989000D01*
X97613230Y-59249000D02*
X97589476Y-59635184D01*
X97637708Y-57617615D02*
X97613230Y-59249000D01*
X97485636Y-56391354D02*
G75*
G02X97637708Y-57617615I-6303233J-1404240D01*
G01*
X97184997Y-55606646D02*
G75*
G02X97485637Y-56391355I-2505544J-1409875D01*
G01*
X96744385Y-55349000D02*
G75*
G02X97184997Y-55606646I0J-505579D01*
G01*
X96539532Y-55398589D02*
G75*
G02X96744385Y-55349000I204853J-398333D01*
G01*
X96296534Y-55554965D02*
G75*
G02X96539532Y-55398589I926629J-1172937D01*
G01*
X96035478Y-55797761D02*
G75*
G02X96296534Y-55554964I1634196J-1495343D01*
G01*
X95773720Y-56115831D02*
G75*
G02X96035478Y-55797762I3158829J-2332845D01*
G01*
X95678182Y-56260836D02*
G75*
G02X95773720Y-56115831I1400775J-818931D01*
G01*
X95616683Y-56392186D02*
G75*
G02X95678183Y-56260837I749350J-270786D01*
G01*
X95572863Y-56549406D02*
G75*
G02X95616683Y-56392185I1068858J-213190D01*
G01*
X95532078Y-56784529D02*
X95572863Y-56549406D01*
X95502675Y-56953250D02*
X95532078Y-56784529D01*
X95466426Y-57107130D02*
X95502675Y-56953250D01*
X95428594Y-57232409D02*
X95466426Y-57107130D01*
X95428595Y-57232409D02*
G75*
G02X95397115Y-57283314I-123688J41303D01*
G01*
X95397115Y-57283315D02*
G75*
G02X95359700Y-57290894I-24423J24424D01*
G01*
X95359701Y-57290894D02*
G75*
G02X95331814Y-57259030I17714J43638D01*
G01*
X95331814Y-57259030D02*
G75*
G02X95312824Y-57147988I655518J169251D01*
G01*
X95291347Y-56873668D02*
X95312824Y-57147988D01*
X95154042Y-55815515D02*
G75*
G02X95291347Y-56873668I-8909542J-1694081D01*
G01*
X94877757Y-54616035D02*
X95154042Y-55815515D01*
X94511099Y-53444932D02*
X94877757Y-54616035D01*
X94097932Y-52474000D02*
G75*
G02X94511099Y-53444932I-7826265J-3903741D01*
G01*
X93798933Y-51945472D02*
G75*
G02X94097931Y-52474000I-4913855J-3128701D01*
G01*
X93480077Y-51521555D02*
G75*
G02X93798933Y-51945472I-2555528J-2254063D01*
G01*
X93175802Y-51234220D02*
G75*
G02X93480076Y-51521556I-1418404J-1806793D01*
G01*
X92929238Y-51149001D02*
G75*
G02X93175802Y-51234221I0J-399298D01*
G01*
X92659126Y-51272386D02*
G75*
G02X92929237Y-51149000I270111J-233965D01*
G01*
X92350247Y-51703647D02*
G75*
G02X92659126Y-51272386I2484388J-1453134D01*
G01*
X92027937Y-52359386D02*
G75*
G02X92350247Y-51703647I4681551J-1894006D01*
G01*
X91710169Y-53233210D02*
X92027937Y-52359386D01*
X91457077Y-54014884D02*
X91710169Y-53233210D01*
X91580940Y-54394442D02*
X91457077Y-54014884D01*
X91691014Y-54769086D02*
X91580940Y-54394442D01*
X91691014Y-54769086D02*
G75*
G02X91762319Y-55101517I-3671657J-961420D01*
G01*
X91762319Y-55101517D02*
G75*
G02X91797965Y-55406807I-3017123J-507009D01*
G01*
X91797965Y-55406806D02*
G75*
G02X91800164Y-55699000I-2495259J-164882D01*
G01*
X91782666Y-55921098D02*
X91800164Y-55699000D01*
X91782665Y-55921099D02*
G75*
G02X91752059Y-55929257I-16870J1801D01*
G01*
X91752059Y-55929257D02*
G75*
G02X91701979Y-55837472I331852J240620D01*
G01*
X91473877Y-55249000D02*
X91701979Y-55837472D01*
X91196377Y-54591814D02*
X91473877Y-55249000D01*
X90796826Y-53755589D02*
X91196377Y-54591814D01*
X90378748Y-52942352D02*
X90796826Y-53755589D01*
X90045605Y-52368853D02*
X90378748Y-52942352D01*
X89414526Y-51451396D02*
X90045605Y-52368853D01*
X88788456Y-50709868D02*
G75*
G02X89414526Y-51451396I-5934871J-5645851D01*
G01*
X88166319Y-50139715D02*
G75*
G02X88788456Y-50709867I-3842459J-4817317D01*
G01*
X87547188Y-49742534D02*
G75*
G02X88166318Y-50139716I-1613390J-3196107D01*
G01*
X86709999Y-49132274D02*
G75*
G02X86754499Y-49121646I55748J-134940D01*
G01*
X86839774Y-49117491D02*
X86754499Y-49121646D01*
X86940864Y-49118480D02*
X86839774Y-49117491D01*
X87046467Y-49125460D02*
X86940864Y-49118480D01*
X87046467Y-49125460D02*
G75*
G02X87950638Y-49434515I-187177J-2024754D01*
G01*
X87950638Y-49434515D02*
G75*
G02X88934351Y-50220894I-3140199J-4936677D01*
G01*
X88934351Y-50220893D02*
G75*
G02X89933219Y-51406271I-6189813J-6229436D01*
G01*
X89933219Y-51406272D02*
G75*
G02X90885000Y-52939585I-13122441J-9207612D01*
G01*
X90983012Y-53115375D02*
X90885000Y-52939585D01*
X91070426Y-53263526D02*
X90983012Y-53115375D01*
X91147712Y-53388676D02*
X91070426Y-53263526D01*
X91165176Y-53398535D02*
G75*
G02X91147712Y-53388676I324J20970D01*
G01*
X91180843Y-53387959D02*
G75*
G02X91165176Y-53398535I-15412J5939D01*
G01*
X91239489Y-53233629D02*
X91180843Y-53387958D01*
X91304434Y-53052123D02*
X91239489Y-53233629D01*
X91375782Y-52836500D02*
X91304434Y-53052123D01*
X91548149Y-52354939D02*
X91375782Y-52836500D01*
X91756084Y-51873963D02*
X91548149Y-52354939D01*
X91969512Y-51454760D02*
X91756084Y-51873963D01*
X91969513Y-51454760D02*
G75*
G02X92154226Y-51178921I1668709J-917672D01*
G01*
X92154226Y-51178921D02*
G75*
G02X92515029Y-50840779I1375991J-1106646D01*
G01*
X92515029Y-50840779D02*
G75*
G02X92882546Y-50712415I409956J-583438D01*
G01*
X92882546Y-50712415D02*
G75*
G02X93265136Y-50795707I43074J-722477D01*
G01*
X93265136Y-50795707D02*
G75*
G02X93670926Y-51088493I-860920J-1620799D01*
G01*
X93670925Y-51088493D02*
G75*
G02X94201725Y-51748745I-2223217J-2330811D01*
G01*
X94201726Y-51748745D02*
G75*
G02X94683441Y-52684521I-6446560J-3910412D01*
G01*
X94683441Y-52684522D02*
G75*
G02X95081791Y-53803146I-8605292J-3694645D01*
G01*
X95081791Y-53803145D02*
G75*
G02X95360623Y-55024000I-11127720J-3183739D01*
G01*
X95460386Y-55594526D02*
X95360623Y-55024000D01*
X95497340Y-55734771D02*
G75*
G02X95460386Y-55594526I836495J295407D01*
G01*
X95539966Y-55752049D02*
G75*
G02X95497341Y-55734771I-13665J27505D01*
G01*
X95598999Y-55699000D02*
G75*
G02X95539967Y-55752049I-125003J79733D01*
G01*
X95599000Y-55699001D02*
G75*
G02X95648189Y-55632336I514758J-328339D01*
G01*
X95744356Y-55522145D02*
X95648189Y-55632336D01*
X95859966Y-55397081D02*
X95744356Y-55522145D01*
X95981865Y-55272472D02*
X95859966Y-55397081D01*
X95981865Y-55272472D02*
G75*
G02X96244582Y-55042431I1938540J-1948863D01*
G01*
X96244582Y-55042431D02*
G75*
G02X96473379Y-54914578I549018J-713832D01*
G01*
X96473379Y-54914578D02*
G75*
G02X96702429Y-54870735I238931J-628017D01*
G01*
X96702428Y-54870735D02*
G75*
G02X96962156Y-54899518I15403J-1047245D01*
G01*
X96962156Y-54899518D02*
G75*
G02X97363781Y-55119551I-203380J-847785D01*
G01*
X97363781Y-55119551D02*
G75*
G02X97667855Y-55544497I-997584J-1035095D01*
G01*
X97667855Y-55544497D02*
G75*
G02X97880716Y-56201940I-2505109J-1174263D01*
G01*
X97880716Y-56201940D02*
G75*
G02X98007946Y-57130542I-8902036J-1692704D01*
G01*
X98007946Y-57130542D02*
G75*
G02X98027351Y-57608329I-5437136J-460120D01*
G01*
X98014393Y-58288059D02*
X98027351Y-57608329D01*
X97981841Y-58951935D02*
X98014393Y-58288059D01*
X97981841Y-58951934D02*
G75*
G02X97931833Y-59311500I-2414841J152592D01*
G01*
X97919889Y-59395659D02*
G75*
G02X97931833Y-59311500I586953J-40373D01*
G01*
X97936972Y-59430717D02*
G75*
G02X97919889Y-59395660I21924J32374D01*
G01*
X97984876Y-59446344D02*
G75*
G02X97936972Y-59430717I3228J91132D01*
G01*
X98134873Y-59449000D02*
X97984876Y-59446344D01*
X98134873Y-59449001D02*
G75*
G02X98333070Y-59482066I0J-610546D01*
G01*
X98333071Y-59482065D02*
G75*
G02X98497662Y-59577308I-160130J-466563D01*
G01*
X98497661Y-59577308D02*
G75*
G02X98624445Y-59735734I-378584J-432914D01*
G01*
X98624445Y-59735735D02*
G75*
G02X98711884Y-59953600I-891952J-484457D01*
G01*
X98711883Y-59953599D02*
G75*
G02X98758156Y-60361194I-1300884J-354107D01*
G01*
X98758156Y-60361195D02*
G75*
G02X98701946Y-60929469I-4845687J192391D01*
G01*
X98701946Y-60929468D02*
G75*
G02X98565267Y-61561047I-5740345J911680D01*
G01*
X98565267Y-61561048D02*
G75*
G02X98358735Y-62177184I-5730188J1578101D01*
G01*
X98211570Y-62547651D02*
X98358735Y-62177184D01*
X98334738Y-63007892D02*
X98211570Y-62547651D01*
X98457907Y-63468133D02*
X98334738Y-63007892D01*
X98274774Y-63795606D02*
X98457907Y-63468133D01*
X98091640Y-64123078D02*
X98274774Y-63795606D01*
X98025125Y-63723539D02*
X98091640Y-64123078D01*
X97470306Y-61894002D02*
G75*
G02X98025125Y-63723539I-6748401J-3045387D01*
G01*
X96457320Y-60225936D02*
G75*
G02X97470307Y-61894002I-6304743J-4970375D01*
G01*
X95062411Y-58839424D02*
G75*
G02X96457320Y-60225935I-5012574J-6437870D01*
G01*
X93385000Y-57837698D02*
G75*
G02X95062411Y-58839425I-3205764J-7273401D01*
G01*
X93027591Y-57701994D02*
G75*
G02X93385000Y-57837697I-1118302J-3483865D01*
G01*
X92778521Y-57667083D02*
G75*
G02X93027591Y-57701994I23662J-737125D01*
G01*
X92509560Y-57715017D02*
G75*
G02X92778521Y-57667084I299444J-901668D01*
G01*
X92057707Y-57880304D02*
X92509560Y-57715017D01*
X91596781Y-58095773D02*
G75*
G02X92057707Y-57880304I2132785J-3961649D01*
G01*
X91139268Y-58371728D02*
G75*
G02X91596781Y-58095774I3049269J-4538231D01*
G01*
X90686817Y-58707142D02*
G75*
G02X91139268Y-58371728I3845526J-4714486D01*
G01*
X90241076Y-59100912D02*
X90686817Y-58707142D01*
X89866272Y-59475258D02*
X90241076Y-59100912D01*
X89526933Y-59847847D02*
X89866272Y-59475258D01*
X89158467Y-60292136D02*
X89526933Y-59847847D01*
X88685138Y-60899000D02*
X89158467Y-60292136D01*
X88293174Y-61401730D02*
X88685138Y-60899000D01*
X87935348Y-61840928D02*
X88293174Y-61401730D01*
X87613967Y-62222489D02*
X87935348Y-61840928D01*
X87613967Y-62222489D02*
G75*
G02X87556694Y-62249000I-57273J48609D01*
G01*
X87556694Y-62249001D02*
G75*
G02X87499275Y-62213289I0J64017D01*
G01*
X87126325Y-61452914D02*
X87499275Y-62213289D01*
X86788441Y-60740729D02*
X87126325Y-61452914D01*
X86568471Y-60224000D02*
X86788441Y-60740729D01*
X86481691Y-59996355D02*
X86568471Y-60224000D01*
X86382208Y-59724000D02*
X86481691Y-59996355D01*
X86285919Y-59451588D02*
X86382208Y-59724000D01*
X86209110Y-59224000D02*
X86285919Y-59451588D01*
X86144003Y-59029692D02*
X86209110Y-59224000D01*
X86083871Y-58859854D02*
X86144003Y-59029692D01*
X86030753Y-58716730D02*
X86083871Y-58859854D01*
X86012672Y-58686480D02*
G75*
G02X86030753Y-58716730I-74863J-65274D01*
G01*
X85948217Y-58681177D02*
G75*
G02X86012673Y-58686479I29503J-35778D01*
G01*
X85621463Y-58956932D02*
X85948218Y-58681177D01*
X85292846Y-59257384D02*
X85621463Y-58956932D01*
X85023706Y-59540553D02*
X85292846Y-59257384D01*
X84763688Y-59855958D02*
X85023706Y-59540553D01*
X84483114Y-60231555D02*
X84763688Y-59855958D01*
X84216071Y-60619054D02*
X84483114Y-60231555D01*
X83997191Y-60970932D02*
X84216071Y-60619054D01*
X83603106Y-61755558D02*
G75*
G02X83997191Y-60970932I6401874J-2724114D01*
G01*
X83262256Y-62671153D02*
G75*
G02X83603106Y-61755559I10130274J-3249979D01*
G01*
X83008721Y-63607899D02*
G75*
G02X83262255Y-62671153I10274255J-2278078D01*
G01*
X82879121Y-64455995D02*
G75*
G02X83008722Y-63607899I6426741J-548146D01*
G01*
X82862472Y-64682404D02*
X82879121Y-64455995D01*
X82866805Y-64781474D02*
G75*
G02X82862472Y-64682404I465962J70008D01*
G01*
X82891363Y-64834498D02*
G75*
G02X82866805Y-64781473I78346J68485D01*
G01*
X82940770Y-64866326D02*
G75*
G02X82891364Y-64834499I30601J101766D01*
G01*
X83637198Y-65062259D02*
X82940770Y-64866325D01*
X84968114Y-65406846D02*
X83637198Y-65062259D01*
X86427559Y-65778812D02*
X84968114Y-65406846D01*
X86588998Y-65799001D02*
G75*
G02X86427559Y-65778812I0J655566D01*
G01*
X86629703Y-65789363D02*
G75*
G02X86588998Y-65799000I-40705J81149D01*
G01*
X86651002Y-65763433D02*
G75*
G02X86629704Y-65789364I-39819J10992D01*
G01*
X86655056Y-65712280D02*
G75*
G02X86651001Y-65763433I-134844J-15049D01*
G01*
X86640757Y-65611500D02*
X86655056Y-65712280D01*
X86573240Y-65207778D02*
X86640757Y-65611500D01*
X86573240Y-65207777D02*
G75*
G02X86566897Y-65087375I551856J89441D01*
G01*
X86566897Y-65087375D02*
G75*
G02X86599429Y-65041737I52352J-2904D01*
G01*
X86599429Y-65041737D02*
G75*
G02X86672766Y-65034424I48999J-120004D01*
G01*
X86672766Y-65034424D02*
G75*
G02X86743050Y-65063983I-34464J-180285D01*
G01*
X86743049Y-65063983D02*
G75*
G02X86790176Y-65118195I-83542J-120214D01*
G01*
X86790176Y-65118195D02*
G75*
G02X86828073Y-65220818I-429302J-216842D01*
G01*
X86878199Y-65441138D02*
X86828073Y-65220818D01*
X86911424Y-65603301D02*
X86878199Y-65441138D01*
X86944554Y-65773957D02*
X86911424Y-65603301D01*
X86973104Y-65928976D02*
X86944554Y-65773957D01*
X86990820Y-66036500D02*
X86973104Y-65928976D01*
X87007960Y-66169399D02*
X86990820Y-66036500D01*
X87007960Y-66169399D02*
G75*
G02X87000124Y-66218781I-95044J-10231D01*
G01*
X87000124Y-66218781D02*
G75*
G02X86969758Y-66242456I-37559J16862D01*
G01*
X86969758Y-66242456D02*
G75*
G02X86895420Y-66249000I-74338J418929D01*
G01*
X86819927Y-66253949D02*
G75*
G02X86895420Y-66249000I75493J-573368D01*
G01*
X86793016Y-66274099D02*
G75*
G02X86819927Y-66253949I31391J-13878D01*
G01*
X86789051Y-66314946D02*
G75*
G02X86793017Y-66274099I63721J14429D01*
G01*
X86817024Y-66426332D02*
X86789051Y-66314946D01*
X86817024Y-66426333D02*
G75*
G02X86834428Y-66505903I-726407J-200569D01*
G01*
X86846111Y-66598622D02*
X86834428Y-66505903D01*
X86850965Y-66689725D02*
X86846111Y-66598622D01*
X86850964Y-66689725D02*
G75*
G02X86847285Y-66763832I-557082J-9489D01*
G01*
X86828583Y-66924000D02*
X86847285Y-66763832D01*
X86764400Y-66761500D02*
X86828583Y-66924000D01*
X86735521Y-66699284D02*
G75*
G02X86764400Y-66761500I-517470J-278010D01*
G01*
X86701815Y-66646735D02*
G75*
G02X86735521Y-66699284I-322299J-243812D01*
G01*
X86668340Y-66609598D02*
G75*
G02X86701814Y-66646735I-198853J-212889D01*
G01*
X86641472Y-66599000D02*
G75*
G02X86668341Y-66609597I0J-39363D01*
G01*
X86641472Y-66599001D02*
G75*
G02X86617483Y-66585568I0J28136D01*
G01*
X86617484Y-66585568D02*
G75*
G02X86598853Y-66543406I147325J90300D01*
G01*
X86598852Y-66543406D02*
G75*
G02X86586621Y-66479181I334090J96906D01*
G01*
X86586621Y-66479181D02*
G75*
G02X86582727Y-66396474I876417J82706D01*
G01*
X86577791Y-66309714D02*
G75*
G02X86582727Y-66396474I-760002J-86761D01*
G01*
X86562783Y-66236012D02*
G75*
G02X86577791Y-66309715I-413989J-122676D01*
G01*
X86539434Y-66179823D02*
G75*
G02X86562783Y-66236012I-253020J-138084D01*
G01*
X86508863Y-66147210D02*
G75*
G02X86539435Y-66179823I-47647J-75301D01*
G01*
X86412915Y-66103800D02*
G75*
G02X86508863Y-66147210I-106839J-363888D01*
G01*
X86268625Y-66069465D02*
G75*
G02X86412915Y-66103800I-257960J-1404382D01*
G01*
X86126604Y-66049111D02*
X86268625Y-66069465D01*
X86074845Y-66067489D02*
G75*
G02X86126604Y-66049111I45186J-45186D01*
G01*
X86058814Y-66149448D02*
G75*
G02X86074845Y-66067489I68923J29066D01*
G01*
X86147851Y-66324626D02*
G75*
G02X86058814Y-66149449I1184650J712339D01*
G01*
X86268887Y-66494228D02*
G75*
G02X86147852Y-66324626I1018334J854714D01*
G01*
X86383213Y-66580319D02*
G75*
G02X86268886Y-66494228I129114J290417D01*
G01*
X86535000Y-66647800D02*
X86383213Y-66580319D01*
X86335000Y-66619482D02*
X86535000Y-66647800D01*
X86135000Y-66591164D02*
X86335000Y-66619482D01*
X86127626Y-66966300D02*
X86135000Y-66591164D01*
X86110517Y-67236880D02*
X86127626Y-66966300D01*
X86110516Y-67236880D02*
G75*
G02X86070137Y-67475761I-1981758J212137D01*
G01*
X86070137Y-67475761D02*
G75*
G02X86016595Y-67657380I-1579657J366983D01*
G01*
X86016595Y-67657380D02*
G75*
G02X85957406Y-67699000I-59189J21277D01*
G01*
X85957406Y-67699001D02*
G75*
G02X85889700Y-67658593I0J76927D01*
G01*
X85889701Y-67658593D02*
G75*
G02X85812676Y-67491054I1274307J687328D01*
G01*
X85812675Y-67491054D02*
G75*
G02X85741767Y-67264981I1748764J672661D01*
G01*
X85741767Y-67264981D02*
G75*
G02X85689322Y-67002046I2974295J729953D01*
G01*
X85630991Y-66624000D02*
X85689322Y-67002046D01*
X85188979Y-66609459D02*
X85630991Y-66624000D01*
X84746967Y-66594917D02*
X85188979Y-66609459D01*
X84778148Y-66367428D02*
X84746967Y-66594917D01*
X84778148Y-66367428D02*
G75*
G02X84797154Y-66264243I1131653J-155109D01*
G01*
X84829073Y-66141421D02*
X84797154Y-66264243D01*
X84867757Y-66019179D02*
X84829073Y-66141421D01*
X84907726Y-65917495D02*
X84867757Y-66019179D01*
X85006123Y-65695052D02*
X84907726Y-65917495D01*
X84895561Y-65653780D02*
X85006123Y-65695052D01*
X84516643Y-65523766D02*
X84895561Y-65653780D01*
X83925013Y-65343305D02*
X84516643Y-65523766D01*
X83271593Y-65150271D02*
X83925013Y-65343305D01*
X83231958Y-65160376D02*
G75*
G02X83271593Y-65150271I28327J-28326D01*
G01*
X83177074Y-65268053D02*
G75*
G02X83231958Y-65160375I193221J-30659D01*
G01*
X83119197Y-65672487D02*
X83177075Y-65268053D01*
X83078234Y-66078627D02*
X83119197Y-65672487D01*
X83078528Y-66362716D02*
G75*
G02X83078234Y-66078627I1886325J143999D01*
G01*
X83094269Y-66630248D02*
X83078528Y-66362716D01*
X83094269Y-66630247D02*
G75*
G02X83060889Y-66664444I-32816J-1358D01*
G01*
X83060889Y-66664443D02*
G75*
G02X83017646Y-66629823I778J45288D01*
G01*
X82956994Y-66360629D02*
X83017646Y-66629823D01*
X82956993Y-66360629D02*
G75*
G02X82925370Y-66097364I1512575J315222D01*
G01*
X82923553Y-65710301D02*
X82925370Y-66097364D01*
X82942450Y-65331435D02*
X82923553Y-65710301D01*
X82942450Y-65331435D02*
G75*
G02X82986679Y-65136500I677260J-51180D01*
G01*
X82997801Y-65093452D02*
G75*
G02X82986679Y-65136500I-187177J25400D01*
G01*
X82989763Y-65067420D02*
G75*
G02X82997802Y-65093453I-24037J-21680D01*
G01*
X82962672Y-65052957D02*
G75*
G02X82989763Y-65067420I-6481J-44743D01*
G01*
X82907758Y-65049001D02*
G75*
G02X82962672Y-65052957I0J-383086D01*
G01*
X82794817Y-65049000D02*
X82907758Y-65049000D01*
X82824743Y-65786500D02*
X82794817Y-65049000D01*
X82881854Y-66554373D02*
X82824743Y-65786500D01*
X82988970Y-67272271D02*
X82881854Y-66554373D01*
X83121980Y-67864588D02*
X82988970Y-67272271D01*
X83258705Y-68063716D02*
G75*
G02X83121980Y-67864588I205910J287886D01*
G01*
X83258706Y-68063716D02*
G75*
G02X83297275Y-68096376I-180019J-251688D01*
G01*
X83344451Y-68146682D02*
X83297275Y-68096376D01*
X83391896Y-68204437D02*
X83344451Y-68146682D01*
X83432246Y-68261500D02*
X83391896Y-68204437D01*
X83521501Y-68399000D02*
X83432246Y-68261500D01*
X83203250Y-68399279D02*
X83521501Y-68399000D01*
X82918750Y-68413699D02*
G75*
G02X83203250Y-68399279I287011J-2848827D01*
G01*
X82692434Y-68457959D02*
G75*
G02X82918750Y-68413699I351148J-1194807D01*
G01*
X82504370Y-68536364D02*
G75*
G02X82692433Y-68457959I451772J-818880D01*
G01*
X82337146Y-68653824D02*
G75*
G02X82504371Y-68536364I624312J-711053D01*
G01*
X82210007Y-68796752D02*
G75*
G02X82337145Y-68653824I640404J-441648D01*
G01*
X82142058Y-68949004D02*
G75*
G02X82210006Y-68796752I443083J-106455D01*
G01*
X82126845Y-69135115D02*
G75*
G02X82142058Y-68949004I606180J44126D01*
G01*
X82161353Y-69385499D02*
G75*
G02X82126844Y-69135115I1927187J393181D01*
G01*
X82415343Y-70049666D02*
G75*
G02X82161353Y-69385499I1879677J1099472D01*
G01*
X82889753Y-70667554D02*
G75*
G02X82415343Y-70049666I2210954J2188623D01*
G01*
X83591823Y-71242217D02*
G75*
G02X82889753Y-70667554I2387509J3633035D01*
G01*
X84528695Y-71776998D02*
G75*
G02X83591824Y-71242217I3789796J7727289D01*
G01*
X85019687Y-71996541D02*
X84528694Y-71776998D01*
X85647350Y-72237540D02*
X85019687Y-71996541D01*
X86283174Y-72455235D02*
X85647350Y-72237540D01*
X86799722Y-72601457D02*
X86283174Y-72455235D01*
X86799723Y-72601457D02*
G75*
G02X86904938Y-72633660I-230578J-941349D01*
G01*
X86904937Y-72633659D02*
G75*
G02X86979710Y-72672369I-118029J-319562D01*
G01*
X86979710Y-72672369D02*
G75*
G02X87033271Y-72722534I-137989J-201006D01*
G01*
X87033271Y-72722534D02*
G75*
G02X87072951Y-72789026I-236408J-186166D01*
G01*
X87103581Y-72854196D02*
X87072951Y-72789026D01*
X87148968Y-72940928D02*
X87103581Y-72854196D01*
X87200065Y-73032977D02*
X87148968Y-72940928D01*
X87249574Y-73116599D02*
X87200065Y-73032977D01*
X87367691Y-73309198D02*
X87249574Y-73116599D01*
X87226345Y-73231006D02*
X87367691Y-73309198D01*
X87138470Y-73191985D02*
G75*
G02X87226345Y-73231006I-178741J-520977D01*
G01*
X86950270Y-73130003D02*
X87138471Y-73191984D01*
X86725084Y-73062368D02*
X86950270Y-73130003D01*
X86485000Y-72996970D02*
X86725084Y-73062368D01*
X86485000Y-72996970D02*
G75*
G02X84845028Y-72439551I2964071J11411710D01*
G01*
X84845028Y-72439551D02*
G75*
G02X83448052Y-71683195I3267477J7703251D01*
G01*
X83448052Y-71683195D02*
G75*
G02X82398755Y-70798415I3509040J5226107D01*
G01*
X82398754Y-70798415D02*
G75*
G02X81806578Y-69855666I2027283J1930771D01*
G01*
X81806579Y-69855666D02*
G75*
G02X81727197Y-69573164I1584408J597615D01*
G01*
X81727197Y-69573165D02*
G75*
G02X81676998Y-69216419I3736562J707689D01*
G01*
X81659383Y-68879746D02*
X81676998Y-69216419D01*
X81659382Y-68879746D02*
G75*
G02X81701228Y-68718919I315281J3825D01*
G01*
X81696861Y-68629808D02*
G75*
G02X81701228Y-68718919I-67301J-47961D01*
G01*
X81552560Y-68448908D02*
G75*
G02X81696861Y-68629808I-1595755J-1420903D01*
G01*
X81268353Y-68147780D02*
X81552561Y-68448908D01*
X80614980Y-67499000D02*
X81268353Y-68147780D01*
X80148103Y-67035995D02*
X80614980Y-67499000D01*
X79688591Y-66575105D02*
X80148103Y-67035995D01*
X79292624Y-66173439D02*
X79688591Y-66575105D01*
X79063218Y-65933613D02*
X79292624Y-66173439D01*
X78842620Y-65702370D02*
X79063218Y-65933613D01*
X78718231Y-65590234D02*
G75*
G02X78842620Y-65702370I-807445J-1020728D01*
G01*
X78636968Y-65543351D02*
G75*
G02X78718231Y-65590233I-118803J-299794D01*
G01*
X78581101Y-65552235D02*
G75*
G02X78636968Y-65543351I35429J-42690D01*
G01*
X78581102Y-65552235D02*
G75*
G02X78545583Y-65568336I-47176J56843D01*
G01*
X78545583Y-65568336D02*
G75*
G02X78522902Y-65555366I-3287J20568D01*
G01*
X78522903Y-65555366D02*
G75*
G02X78511643Y-65501376I153751J60234D01*
G01*
X78508777Y-65367623D02*
X78511643Y-65501376D01*
X78491095Y-65105664D02*
G75*
G02X78508777Y-65367623I-2088212J-272523D01*
G01*
X78440978Y-64855257D02*
G75*
G02X78491096Y-65105664I-1819752J-494433D01*
G01*
X78350909Y-64587681D02*
G75*
G02X78440978Y-64855257I-2204692J-891068D01*
G01*
X78210974Y-64271561D02*
X78350910Y-64587681D01*
X78033105Y-63963755D02*
G75*
G02X78210974Y-64271561I-1970299J-1343852D01*
G01*
X77806725Y-63676255D02*
G75*
G02X78033105Y-63963754I-1984052J-1795137D01*
G01*
X77580320Y-63457198D02*
G75*
G02X77806725Y-63676255I-1532916J-1810863D01*
G01*
X77421496Y-63399001D02*
G75*
G02X77580320Y-63457198I0J-245819D01*
G01*
X77250589Y-63474829D02*
G75*
G02X77421496Y-63399000I170907J-154686D01*
G01*
X77054501Y-63737301D02*
G75*
G02X77250590Y-63474829I1490254J-908864D01*
G01*
X76898132Y-64058873D02*
G75*
G02X77054501Y-63737301I1764745J-659332D01*
G01*
X76843777Y-64346280D02*
G75*
G02X76898131Y-64058873I861118J-14010D01*
G01*
X76851111Y-64434363D02*
G75*
G02X76843777Y-64346280I438240J80834D01*
G01*
X76875807Y-64527328D02*
G75*
G02X76851110Y-64434363I588013J205979D01*
G01*
X76916785Y-64621841D02*
G75*
G02X76875808Y-64527327I633410J330750D01*
G01*
X76972784Y-64714561D02*
G75*
G02X76916784Y-64621842I717447J496592D01*
G01*
X76972784Y-64714560D02*
G75*
G02X77029083Y-64807199I-751160J-519927D01*
G01*
X77089448Y-64930017D02*
X77029083Y-64807199D01*
X77144463Y-65061102D02*
X77089448Y-64930017D01*
X77184719Y-65180435D02*
X77144463Y-65061102D01*
X77221527Y-65292253D02*
X77184719Y-65180435D01*
X77259321Y-65375245D02*
G75*
G02X77221527Y-65292253I539127J295615D01*
G01*
X77295147Y-65427578D02*
G75*
G02X77259321Y-65375245I246220J206986D01*
G01*
X77324877Y-65436048D02*
G75*
G02X77295147Y-65427578I-8597J26236D01*
G01*
X77404322Y-65362485D02*
G75*
G02X77324877Y-65436048I-119853J49757D01*
G01*
X77463014Y-65175348D02*
G75*
G02X77404323Y-65362485I-1071050J233140D01*
G01*
X77495890Y-64930903D02*
G75*
G02X77463014Y-65175348I-1528766J81171D01*
G01*
X77493477Y-64661500D02*
G75*
G02X77495890Y-64930903I-2168536J-154136D01*
G01*
X77486654Y-64522506D02*
X77493477Y-64661500D01*
X77487769Y-64405485D02*
X77486654Y-64522506D01*
X77494391Y-64313365D02*
X77487769Y-64405485D01*
X77494390Y-64313364D02*
G75*
G02X77510226Y-64299000I15836J-1547D01*
G01*
X77510226Y-64299001D02*
G75*
G02X77576021Y-64329037I0J-87080D01*
G01*
X77576021Y-64329036D02*
G75*
G02X77666084Y-64447723I-864482J-749509D01*
G01*
X77666083Y-64447723D02*
G75*
G02X77745795Y-64589783I-936285J-618753D01*
G01*
X77745795Y-64589783D02*
G75*
G02X77787191Y-64718098I-483265J-226742D01*
G01*
X77787191Y-64718098D02*
G75*
G02X77796667Y-64815713I-544208J-102094D01*
G01*
X77796016Y-65028192D02*
X77796667Y-64815713D01*
X77789123Y-65281013D02*
X77796016Y-65028192D01*
X77775358Y-65550526D02*
X77789123Y-65281013D01*
X77752549Y-65973761D02*
X77775358Y-65550526D01*
X77756121Y-66167839D02*
G75*
G02X77752549Y-65973761I1505014J124773D01*
G01*
X77785192Y-66313978D02*
G75*
G02X77756121Y-66167839I625652J200419D01*
G01*
X77853494Y-66493002D02*
G75*
G02X77785192Y-66313977I1607546J715858D01*
G01*
X77853494Y-66493002D02*
G75*
G02X77917082Y-66655216I-1755197J-781608D01*
G01*
X77917082Y-66655217D02*
G75*
G02X77948239Y-66786680I-670434J-228317D01*
G01*
X77948240Y-66786680D02*
G75*
G02X77957175Y-66937553I-960379J-132580D01*
G01*
X77947557Y-67174372D02*
X77957175Y-66937553D01*
X77918990Y-67505737D02*
X77947557Y-67174372D01*
X77918990Y-67505737D02*
G75*
G02X77875827Y-67670541I-580179J63897D01*
G01*
X77875827Y-67670541D02*
G75*
G02X77831396Y-67671665I-22472J9570D01*
G01*
X77831396Y-67671665D02*
G75*
G02X77790896Y-67542229I408095J198745D01*
G01*
X77772249Y-67441016D02*
X77790896Y-67542229D01*
X77743449Y-67315820D02*
X77772249Y-67441016D01*
X77709997Y-67188032D02*
X77743449Y-67315820D01*
X77676722Y-67077924D02*
X77709997Y-67188032D01*
X77596266Y-66831848D02*
X77676722Y-67077924D01*
X77492014Y-66977924D02*
X77596266Y-66831848D01*
X77442097Y-67043434D02*
X77492014Y-66977924D01*
X77377590Y-67120030D02*
X77442097Y-67043434D01*
X77309639Y-67195211D02*
X77377590Y-67120030D01*
X77248881Y-67256561D02*
X77309639Y-67195211D01*
X77180824Y-67332060D02*
G75*
G02X77248881Y-67256561I535858J-414609D01*
G01*
X77139056Y-67404264D02*
G75*
G02X77180825Y-67332060I288552J-118740D01*
G01*
X77117059Y-67486676D02*
G75*
G02X77139056Y-67404264I327295J-43219D01*
G01*
X77110000Y-67594061D02*
G75*
G02X77117059Y-67486676I820281J1D01*
G01*
X77109999Y-67594061D02*
G75*
G02X77101288Y-67729098I-1050976J-1D01*
G01*
X77101289Y-67729098D02*
G75*
G02X77067839Y-67791008I-97366J12615D01*
G01*
X77067838Y-67791008D02*
G75*
G02X77026205Y-67785295I-18283J21318D01*
G01*
X77026206Y-67785295D02*
G75*
G02X76985565Y-67700782I277592J185517D01*
G01*
X76844423Y-67491246D02*
G75*
G02X76985565Y-67700782I-286428J-345241D01*
G01*
X76507665Y-67251239D02*
G75*
G02X76844422Y-67491246I-1464523J-2411151D01*
G01*
X76128563Y-67058614D02*
G75*
G02X76507665Y-67251239I-1079803J-2594521D01*
G01*
X75830173Y-66999001D02*
G75*
G02X76128562Y-67058615I0J-776576D01*
G01*
X75830172Y-66999000D02*
G75*
G02X75783846Y-66995659I1J322849D01*
G01*
X75783846Y-66995660D02*
G75*
G02X75749685Y-66985162I16700J115174D01*
G01*
X75749685Y-66985162D02*
G75*
G02X75732991Y-66969694I17106J35205D01*
G01*
X75732991Y-66969694D02*
G75*
G02X75733214Y-66951889I14927J8717D01*
G01*
X75733213Y-66951889D02*
G75*
G02X75808190Y-66899878I97204J-60076D01*
G01*
X75808190Y-66899878D02*
G75*
G02X76010795Y-66870297I392287J-1978219D01*
G01*
X76010794Y-66870297D02*
G75*
G02X76231909Y-66862951I170707J-1806936D01*
G01*
X76231909Y-66862951D02*
G75*
G02X76411002Y-66887856I-22791J-820265D01*
G01*
X76561068Y-66915712D02*
G75*
G02X76411002Y-66887856I138790J1165859D01*
G01*
X76602716Y-66883730D02*
G75*
G02X76561068Y-66915712I-37205J5340D01*
G01*
X76587328Y-66806078D02*
G75*
G02X76602716Y-66883730I-102708J-60703D01*
G01*
X76453837Y-66589396D02*
X76587328Y-66806077D01*
X76305312Y-66383501D02*
G75*
G02X76453837Y-66589396I-1816198J-1466655D01*
G01*
X76177827Y-66271626D02*
G75*
G02X76305312Y-66383501I-259803J-424626D01*
G01*
X76029256Y-66216403D02*
G75*
G02X76177827Y-66271626I-66845J-407302D01*
G01*
X75815769Y-66199001D02*
G75*
G02X76029257Y-66216403I1J-1318203D01*
G01*
X75573627Y-66218937D02*
G75*
G02X75815769Y-66199000I242141J-1460463D01*
G01*
X75296536Y-66279794D02*
G75*
G02X75573627Y-66218938I724409J-2637147D01*
G01*
X75048423Y-66358580D02*
X75296535Y-66279794D01*
X74975890Y-66429710D02*
G75*
G02X75048423Y-66358580I114069J-43772D01*
G01*
X74970439Y-66464988D02*
G75*
G02X74975890Y-66429710I84241J5043D01*
G01*
X74977025Y-66534650D02*
X74970439Y-66464988D01*
X74990846Y-66617416D02*
X74977025Y-66534650D01*
X75011445Y-66704369D02*
X74990846Y-66617416D01*
X75132925Y-66946649D02*
G75*
G02X75011445Y-66704369I531583J418132D01*
G01*
X75394065Y-67233033D02*
G75*
G02X75132925Y-66946649I1832287J1933029D01*
G01*
X75759804Y-67538681D02*
G75*
G02X75394065Y-67233033I2258435J3074104D01*
G01*
X76213761Y-67844026D02*
X75759805Y-67538681D01*
X76582555Y-68083482D02*
X76213761Y-67844026D01*
X78124073Y-69142293D02*
X76582555Y-68083482D01*
X79935600Y-70392434D02*
X78124073Y-69142293D01*
X81985000Y-71814258D02*
X79935600Y-70392434D01*
X84007043Y-73220135D02*
X81985000Y-71814258D01*
X85731082Y-74418810D02*
X84007043Y-73220135D01*
X87261564Y-75482905D02*
X85731082Y-74418810D01*
X87365281Y-75554997D02*
X87261564Y-75482905D01*
X87495563Y-75645530D02*
X87365281Y-75554997D01*
X87636801Y-75284765D02*
X87495563Y-75645530D01*
X87801965Y-74885143D02*
X87636801Y-75284765D01*
X87998437Y-74450667D02*
X87801965Y-74885143D01*
X88200207Y-74024147D02*
X87998437Y-74450667D01*
X88200207Y-74024147D02*
G75*
G02X88240061Y-73999000I39854J-19008D01*
G01*
X88240061Y-73999001D02*
G75*
G02X88327207Y-74011768I0J-303806D01*
G01*
X88482258Y-74062744D02*
X88327207Y-74011768D01*
X88641267Y-74122205D02*
X88482258Y-74062744D01*
X88641267Y-74122205D02*
G75*
G02X88660000Y-74149603I-10669J-27398D01*
G01*
X88659999Y-74149603D02*
G75*
G02X88654643Y-74174945I-62626J0D01*
G01*
X88580490Y-74341544D02*
X88654643Y-74174945D01*
X88493072Y-74533277D02*
X88580490Y-74341544D01*
X88389329Y-74754188D02*
X88493072Y-74533277D01*
X87637924Y-76792896D02*
G75*
G02X88389329Y-74754188I11628453J-3128066D01*
G01*
X87250565Y-78965029D02*
G75*
G02X87637924Y-76792896I12746558J-1152503D01*
G01*
X87240700Y-81185666D02*
G75*
G02X87250565Y-78965029I12924610J1052928D01*
G01*
X87610457Y-83368392D02*
G75*
G02X87240700Y-81185665I12397634J3222857D01*
G01*
X87942653Y-84379448D02*
G75*
G02X87610457Y-83368392I7831873J3133373D01*
G01*
X88371831Y-85225782D02*
G75*
G02X87942653Y-84379448I4541623J2835056D01*
G01*
X88907774Y-85923349D02*
G75*
G02X88371831Y-85225781I3314237J3101000D01*
G01*
X89558738Y-86489440D02*
G75*
G02X88907774Y-85923349I2416795J3436468D01*
G01*
X89707956Y-86599843D02*
X89558738Y-86489440D01*
X89888483Y-86743950D02*
X89707956Y-86599843D01*
X90069925Y-86896414D02*
X89888483Y-86743950D01*
X90223120Y-87033648D02*
X90069925Y-86896414D01*
X90367269Y-87163879D02*
X90223120Y-87033648D01*
X90520784Y-87294899D02*
X90367269Y-87163879D01*
X90661918Y-87408992D02*
X90520784Y-87294899D01*
X90761636Y-87481019D02*
X90661918Y-87408992D01*
X90836851Y-87533510D02*
X90761636Y-87481019D01*
X90896475Y-87581369D02*
X90836851Y-87533510D01*
X90939272Y-87621494D02*
X90896475Y-87581369D01*
X90939272Y-87621495D02*
G75*
G02X90939255Y-87636412I-7484J-7450D01*
G01*
X90939254Y-87636412D02*
G75*
G02X90893601Y-87647710I-32191J32192D01*
G01*
X90647227Y-87568674D02*
X90893601Y-87647710D01*
X90378255Y-87472021D02*
X90647227Y-87568674D01*
X90111469Y-87361473D02*
X90378255Y-87472021D01*
X90111469Y-87361473D02*
G75*
G02X89895745Y-87251085I866518J1959355D01*
G01*
X89549832Y-87042328D02*
X89895745Y-87251085D01*
X89195626Y-86814801D02*
X89549832Y-87042328D01*
X88927539Y-86625105D02*
X89195626Y-86814801D01*
X88869689Y-86614924D02*
G75*
G02X88927539Y-86625105I18949J-61773D01*
G01*
X88807554Y-86654102D02*
G75*
G02X88869688Y-86614924I103270J-94919D01*
G01*
X88712956Y-86772418D02*
G75*
G02X88807554Y-86654102I905458J-626972D01*
G01*
X88481674Y-87110197D02*
X88712957Y-86772418D01*
X88196479Y-87604881D02*
G75*
G02X88481674Y-87110197I3563446J-1724845D01*
G01*
X87998185Y-88116724D02*
G75*
G02X88196479Y-87604880I3244378J-962578D01*
G01*
X87890956Y-88635030D02*
G75*
G02X87998185Y-88116724I3116350J-374476D01*
G01*
X87876779Y-89149000D02*
G75*
G02X87890956Y-88635030I2792061J180165D01*
G01*
X87994370Y-89815800D02*
G75*
G02X87876779Y-89149000I2956601J865169D01*
G01*
X88252156Y-90399563D02*
G75*
G02X87994370Y-89815800I2083585J1268901D01*
G01*
X88661989Y-90913394D02*
G75*
G02X88252157Y-90399563I1818975J1871173D01*
G01*
X89231096Y-91372839D02*
G75*
G02X88661989Y-90913393I2203401J3311510D01*
G01*
X89595437Y-91599134D02*
X89231096Y-91372839D01*
X89929679Y-91772428D02*
G75*
G02X89595437Y-91599134I1708328J3703932D01*
G01*
X90294685Y-91922018D02*
X89929678Y-91772427D01*
X90756381Y-92076331D02*
X90294685Y-91922018D01*
X91277762Y-92237247D02*
X90756381Y-92076331D01*
X91131381Y-92312212D02*
X91277762Y-92237247D01*
X91131380Y-92312212D02*
G75*
G02X91060170Y-92343494I-298709J583284D01*
G01*
X90965386Y-92375559D02*
X91060170Y-92343494D01*
X90864161Y-92403563D02*
X90965386Y-92375559D01*
X90771848Y-92422593D02*
X90864161Y-92403563D01*
X90617305Y-92466163D02*
G75*
G02X90771848Y-92422593I274269J-676973D01*
G01*
X90529489Y-92537143D02*
G75*
G02X90617305Y-92466163I160771J-109093D01*
G01*
X90468216Y-92670958D02*
G75*
G02X90529488Y-92537143I428028J-115052D01*
G01*
X90390987Y-92983871D02*
X90468216Y-92670958D01*
X90313621Y-93562644D02*
G75*
G02X90390987Y-92983871I3301074J-146704D01*
G01*
X90337203Y-94156054D02*
G75*
G02X90313621Y-93562644I3506699J436526D01*
G01*
X90459962Y-94738240D02*
G75*
G02X90337202Y-94156054I3397155J1020364D01*
G01*
X90677275Y-95283661D02*
G75*
G02X90459963Y-94738240I3004929J1513255D01*
G01*
X90838510Y-95587083D02*
X90677275Y-95283661D01*
X90933941Y-95694688D02*
G75*
G02X90838510Y-95587083I198495J272158D01*
G01*
X91023507Y-95701524D02*
G75*
G02X90933941Y-95694688I-39257J75816D01*
G01*
X91133267Y-95616234D02*
G75*
G02X91023507Y-95701525I-285526J254170D01*
G01*
X91180165Y-95556274D02*
G75*
G02X91133267Y-95616234I-494194J338216D01*
G01*
X91216463Y-95493751D02*
G75*
G02X91180165Y-95556274I-438807J212946D01*
G01*
X91238393Y-95437419D02*
G75*
G02X91216462Y-95493750I-359899J107679D01*
G01*
X91238687Y-95399000D02*
G75*
G02X91238393Y-95437419I-66188J-18704D01*
G01*
X91223918Y-95351633D02*
X91238687Y-95399000D01*
X91184064Y-95235875D02*
X91223918Y-95351633D01*
X91135745Y-95098090D02*
X91184064Y-95235875D01*
X91082500Y-94949000D02*
X91135745Y-95098090D01*
X91082500Y-94949001D02*
G75*
G02X90982247Y-94586751I2342855J843384D01*
G01*
X90982247Y-94586751D02*
G75*
G02X90938973Y-94217215I2346197J462050D01*
G01*
X90938973Y-94217215D02*
G75*
G02X90954268Y-93878040I2027568J78503D01*
G01*
X90954268Y-93878040D02*
G75*
G02X91030608Y-93608740I945018J-122419D01*
G01*
X91112117Y-93443334D02*
X91030608Y-93608740D01*
X91112117Y-93443334D02*
G75*
G02X91164461Y-93408390I58922J-31586D01*
G01*
X91164461Y-93408391D02*
G75*
G02X91201737Y-93438654I3357J-33953D01*
G01*
X91201738Y-93438653D02*
G75*
G02X91210000Y-93591002I-1400424J-152348D01*
G01*
X91238919Y-93872368D02*
G75*
G02X91210000Y-93591002I1354319J281366D01*
G01*
X91333532Y-94250273D02*
X91238918Y-93872369D01*
X91471252Y-94659175D02*
X91333532Y-94250273D01*
X91637287Y-95045133D02*
X91471252Y-94659175D01*
X91864037Y-95516265D02*
X91637287Y-95045133D01*
X92118219Y-95270133D02*
X91864037Y-95516265D01*
X92724190Y-94563202D02*
G75*
G02X92118219Y-95270133I-4099491J2900840D01*
G01*
X93212954Y-93732789D02*
G75*
G02X92724189Y-94563201I-5185560J2493077D01*
G01*
X93547604Y-92850894D02*
G75*
G02X93212954Y-93732789I-5313975J1512031D01*
G01*
X93694720Y-91991031D02*
G75*
G02X93547603Y-92850894I-4047833J250041D01*
G01*
X93724554Y-91508060D02*
X93694720Y-91991030D01*
X93457460Y-91372713D02*
X93724554Y-91508060D01*
X93457460Y-91372713D02*
G75*
G02X93047363Y-91092662I864947J1706888D01*
G01*
X93047363Y-91092662D02*
G75*
G02X92688299Y-90696848I1702589J1905279D01*
G01*
X92688300Y-90696848D02*
G75*
G02X92402108Y-90211489I2294882J1680229D01*
G01*
X92402108Y-90211489D02*
G75*
G02X92207999Y-89666178I2871726J1329423D01*
G01*
X92169519Y-89520346D02*
X92207999Y-89666178D01*
X92124951Y-88266209D02*
X92094587Y-88708418D01*
X92124951Y-88266210D02*
G75*
G02X92204014Y-87690473I4271613J-293301D01*
G01*
X92204013Y-87690472D02*
G75*
G02X92360074Y-87134062I4099815J-849815D01*
G01*
X92360074Y-87134063D02*
G75*
G02X92596233Y-86590150I4164463J-1484922D01*
G01*
X92596233Y-86590150D02*
G75*
G02X92914578Y-86051705I4859702J-2509873D01*
G01*
X92914578Y-86051705D02*
G75*
G02X93571166Y-85222942I5573572J-3741191D01*
G01*
X93571166Y-85222942D02*
G75*
G02X94321999Y-84549284I4079389J-3791475D01*
G01*
X94321998Y-84549284D02*
G75*
G02X95087351Y-84090840I2646593J-3550292D01*
G01*
X95087352Y-84090839D02*
G75*
G02X95785000Y-83911931I819691J-1746676D01*
G01*
X96135000Y-83889748D02*
X95785000Y-83911931D01*
X95746821Y-84114897D02*
X96135000Y-83889748D01*
X94858264Y-84702662D02*
G75*
G02X95746821Y-84114897I5435582J-7251743D01*
G01*
X94085600Y-85367261D02*
G75*
G02X94858265Y-84702662I5328627J-5413632D01*
G01*
X93455701Y-86083063D02*
G75*
G02X94085600Y-85367261I5300602J-4029421D01*
G01*
X92994500Y-86824000D02*
G75*
G02X93455701Y-86083063I4193280J-2096126D01*
G01*
X92788586Y-87283577D02*
X92994500Y-86824000D01*
X92667004Y-87674954D02*
G75*
G02X92788586Y-87283577I2573622J-584925D01*
G01*
X92605016Y-88089517D02*
G75*
G02X92667004Y-87674954I2787472J-204880D01*
G01*
X92585401Y-88624000D02*
X92605017Y-88089518D01*
X92590018Y-89009258D02*
X92585401Y-88624000D01*
X92606254Y-89259818D02*
X92590018Y-89009258D01*
X92639375Y-89463360D02*
G75*
G02X92606254Y-89259818I1803328J397908D01*
G01*
X92697166Y-89680002D02*
X92639375Y-89463360D01*
X92818631Y-89987635D02*
G75*
G02X92697166Y-89680002I2076468J997662D01*
G01*
X92992699Y-90303793D02*
G75*
G02X92818630Y-89987635I2763987J1727778D01*
G01*
X93188096Y-90580201D02*
G75*
G02X92992699Y-90303794I2338051J1860072D01*
G01*
X93372854Y-90760926D02*
G75*
G02X93188095Y-90580201I630240J829109D01*
G01*
X93500151Y-90849635D02*
X93372855Y-90760926D01*
X93661447Y-90947214D02*
X93500151Y-90849635D01*
X93819450Y-91035007D02*
X93661447Y-90947214D01*
X93875007Y-91049000D02*
G75*
G02X93819450Y-91035007I0J117283D01*
G01*
X93882597Y-91041400D02*
G75*
G02X93875007Y-91049000I-7590J-10D01*
G01*
X93881907Y-90936699D02*
X93882598Y-91041400D01*
X93878419Y-90813292D02*
X93881907Y-90936699D01*
X93870446Y-90666696D02*
X93878419Y-90813292D01*
X93858793Y-90386629D02*
X93870446Y-90666696D01*
X93858792Y-90386628D02*
G75*
G02X93894022Y-90314361I88282J1684D01*
G01*
X93894022Y-90314361D02*
G75*
G02X93937564Y-90331209I16524J-21984D01*
G01*
X93978635Y-90585378D02*
X93937564Y-90331209D01*
X94028690Y-90809965D02*
G75*
G02X93978635Y-90585378I1266270J400095D01*
G01*
X94113113Y-90987625D02*
G75*
G02X94028690Y-90809965I599425J393732D01*
G01*
X94227495Y-91110801D02*
G75*
G02X94113113Y-90987625I307673J400402D01*
G01*
X94366161Y-91175353D02*
G75*
G02X94227496Y-91110801I75351J343071D01*
G01*
X94460297Y-91188415D02*
G75*
G02X94366161Y-91175354I36115J606088D01*
G01*
X94525576Y-91177888D02*
G75*
G02X94460297Y-91188414I-56243J141114D01*
G01*
X94586594Y-91139254D02*
G75*
G02X94525575Y-91177888I-133633J143558D01*
G01*
X94669797Y-91054337D02*
G75*
G02X94586594Y-91139254I-964210J861521D01*
G01*
X94765071Y-90925146D02*
G75*
G02X94669797Y-91054336I-734442J441906D01*
G01*
X94806295Y-90808980D02*
G75*
G02X94765071Y-90925147I-306188J43259D01*
G01*
X94786462Y-90732144D02*
G75*
G02X94806296Y-90808979I-82759J-62341D01*
G01*
X94719999Y-90698999D02*
G75*
G02X94786462Y-90732144I0J-83210D01*
G01*
X94681145Y-90703395D02*
G75*
G02X94720000Y-90699000I38854J-169538D01*
G01*
X94638812Y-90716626D02*
G75*
G02X94681144Y-90703396I106229J-265572D01*
G01*
X94599542Y-90736018D02*
G75*
G02X94638812Y-90716625I143387J-240900D01*
G01*
X94570000Y-90759000D02*
G75*
G02X94599542Y-90736018I106776J-106777D01*
G01*
X94569999Y-90759000D02*
G75*
G02X94539086Y-90786990I-297437J297436D01*
G01*
X94539086Y-90786989D02*
G75*
G02X94522500Y-90790407I-11550J14101D01*
G01*
X94522500Y-90790406D02*
G75*
G02X94512437Y-90778728I3888J13525D01*
G01*
X94512437Y-90778728D02*
G75*
G02X94510000Y-90741750I279329J36978D01*
G01*
X94509999Y-90741750D02*
G75*
G02X94538018Y-90651769I158495J0D01*
G01*
X94538019Y-90651768D02*
G75*
G02X94618274Y-90570707I267150J-184237D01*
G01*
X94618274Y-90570707D02*
G75*
G02X94728438Y-90517513I215924J-306504D01*
G01*
X94728438Y-90517513D02*
G75*
G02X94842158Y-90507753I80892J-275122D01*
G01*
X94842158Y-90507752D02*
G75*
G02X94963965Y-90557292I-28061J-243516D01*
G01*
X94963965Y-90557292D02*
G75*
G02X95036459Y-90660898I-129775J-167970D01*
G01*
X95036459Y-90660898D02*
G75*
G02X95046677Y-90808596I-297966J-94817D01*
G01*
X95046677Y-90808596D02*
G75*
G02X94992342Y-90979718I-645418J110746D01*
G01*
X94960920Y-91051100D02*
X94992342Y-90979718D01*
X94938338Y-91115194D02*
G75*
G02X94960920Y-91051100I712883J-215141D01*
G01*
X94924755Y-91167391D02*
X94938338Y-91115195D01*
X94930145Y-91185813D02*
G75*
G02X94924755Y-91167391I14137J14136D01*
G01*
X94951269Y-91193066D02*
G75*
G02X94930145Y-91185813I-3143J25234D01*
G01*
X95056828Y-91178723D02*
X94951269Y-91193066D01*
X95182556Y-91157365D02*
X95056828Y-91178723D01*
X95327098Y-91127367D02*
X95182556Y-91157365D01*
X95695920Y-91018702D02*
G75*
G02X95327098Y-91127367I-986846J2669233D01*
G01*
X96089190Y-90850855D02*
G75*
G02X95695920Y-91018702I-1898730J3904139D01*
G01*
X96452728Y-90650996D02*
G75*
G02X96089190Y-90850855I-2178630J3532300D01*
G01*
X96729149Y-90445495D02*
G75*
G02X96452728Y-90650996I-1321437J1488822D01*
G01*
X96973299Y-90228795D02*
X96729149Y-90445496D01*
X96935399Y-90426398D02*
X96973299Y-90228795D01*
X96892247Y-90862832D02*
G75*
G02X96935399Y-90426398I2414387J-18370D01*
G01*
X96931276Y-91286613D02*
G75*
G02X96892247Y-90862831I2104215J407478D01*
G01*
X97061244Y-91743727D02*
G75*
G02X96931275Y-91286614I2594375J984679D01*
G01*
X97295330Y-92285075D02*
G75*
G02X97061244Y-91743726I5842665J2847730D01*
G01*
X97467402Y-92623347D02*
X97295330Y-92285075D01*
X97552238Y-92704807D02*
G75*
G02X97467402Y-92623347I81282J169557D01*
G01*
X97628354Y-92682539D02*
G75*
G02X97552238Y-92704807I-50459J31254D01*
G01*
X97728336Y-92492650D02*
G75*
G02X97628354Y-92682540I-1405543J618791D01*
G01*
X97925763Y-91952748D02*
G75*
G02X97728337Y-92492649I-4301050J1266725D01*
G01*
X98064855Y-91362975D02*
G75*
G02X97925763Y-91952749I-5444106J972641D01*
G01*
X98147140Y-90714731D02*
G75*
G02X98064854Y-91362974I-6449710J489360D01*
G01*
X98173852Y-89999000D02*
X98147140Y-90714731D01*
X98086135Y-88823181D02*
G75*
G02X98173852Y-89999000I-7957861J-1184844D01*
G01*
X97819601Y-87896060D02*
G75*
G02X98086135Y-88823182I-3354626J-1466276D01*
G01*
X97407104Y-87288242D02*
G75*
G02X97819601Y-87896059I-1425045J-1410992D01*
G01*
X96884305Y-87048709D02*
G75*
G02X97407104Y-87288242I-56091J-812714D01*
G01*
X96662174Y-87052627D02*
G75*
G02X96884305Y-87048709I133645J-1278147D01*
G01*
X96528612Y-87107614D02*
G75*
G02X96662175Y-87052627I160151J-199299D01*
G01*
X96399259Y-87247039D02*
G75*
G02X96528612Y-87107614I538959J-370308D01*
G01*
X96121720Y-87661500D02*
X96399259Y-87247040D01*
X95956356Y-87918003D02*
X96121720Y-87661500D01*
X95789966Y-88182204D02*
X95956356Y-87918003D01*
X95644585Y-88418359D02*
X95789966Y-88182204D01*
X95553540Y-88574000D02*
X95644585Y-88418359D01*
X95385000Y-88874000D02*
X95553540Y-88574000D01*
X95369754Y-88607669D02*
X95385000Y-88874000D01*
X95369753Y-88607669D02*
G75*
G02X95395454Y-88267684I1287020J73673D01*
G01*
X95395454Y-88267684D02*
G75*
G02X95509087Y-87919037I1680002J-354712D01*
G01*
X95509087Y-87919037D02*
G75*
G02X95761863Y-87427887I4733301J-2125427D01*
G01*
X96322872Y-86485090D02*
X95761863Y-87427887D01*
X96519890Y-86150179D02*
X96322872Y-86485090D01*
X96716388Y-85796254D02*
X96519890Y-86150179D01*
X96885931Y-85473249D02*
X96716388Y-85796254D01*
X96990919Y-85247949D02*
X96885931Y-85473249D01*
X97066353Y-85078677D02*
X96990919Y-85247949D01*
X97135767Y-84942297D02*
X97066353Y-85078677D01*
X97195577Y-84839403D02*
X97135767Y-84942297D01*
X97195577Y-84839404D02*
G75*
G02X97217491Y-84836860I11954J-7318D01*
G01*
X97217491Y-84836859D02*
G75*
G02X97234377Y-84862624I-55018J-54475D01*
G01*
X97257186Y-84924420D02*
X97234377Y-84862624D01*
X97280402Y-85000120D02*
X97257186Y-84924420D01*
X97300982Y-85082783D02*
X97280402Y-85000120D01*
X97300981Y-85082783D02*
G75*
G02X97323545Y-85322890I-933164J-208805D01*
G01*
X97323545Y-85322891D02*
G75*
G02X97290107Y-85589219I-1457602J47742D01*
G01*
X97290107Y-85589219D02*
G75*
G02X97201654Y-85876425I-1797903J396491D01*
G01*
X97201655Y-85876425D02*
G75*
G02X97059217Y-86179076I-2615170J1045939D01*
G01*
X96865563Y-86534152D02*
X97059217Y-86179076D01*
X97167589Y-86618123D02*
X96865563Y-86534152D01*
X97167589Y-86618123D02*
G75*
G02X97954325Y-87208399I-361946J-1301841D01*
G01*
X97954325Y-87208399D02*
G75*
G02X98475773Y-88451162I-3656211J-2264879D01*
G01*
X98475773Y-88451162D02*
G75*
G02X98655741Y-90075667I-6141576J-1502606D01*
G01*
X98655742Y-90075666D02*
G75*
G02X98433875Y-91793780I-7950691J153320D01*
G01*
X98433875Y-91793781D02*
G75*
G02X98311301Y-92214245I-4619017J1118442D01*
G01*
X98142426Y-92653679D02*
X98311301Y-92214245D01*
X97964580Y-93034612D02*
X98142426Y-92653679D01*
X97964579Y-93034612D02*
G75*
G02X97830235Y-93205586I-496729J252040D01*
G01*
X97830235Y-93205587D02*
G75*
G02X97638579Y-93303029I-296666J346300D01*
G01*
X97638580Y-93303029D02*
G75*
G02X97452521Y-93281580I-63388J267855D01*
G01*
X97452521Y-93281580D02*
G75*
G02X97263206Y-93126724I245692J493512D01*
G01*
X97263205Y-93126724D02*
G75*
G02X97058502Y-92821384I2047163J1593729D01*
G01*
X96997716Y-92716962D02*
X97058502Y-92821384D01*
X96944193Y-92629013D02*
X96997716Y-92716962D01*
X96896757Y-92553702D02*
X96944193Y-92629013D01*
X96888205Y-92549000D02*
G75*
G02X96896757Y-92553702I0J-10129D01*
G01*
X96879004Y-92553455D02*
G75*
G02X96888205Y-92549000I9201J-7274D01*
G01*
X96802051Y-92651131D02*
X96879004Y-92553456D01*
X96715372Y-92763386D02*
X96802051Y-92651131D01*
X96615214Y-92896677D02*
X96715372Y-92763386D01*
X96615214Y-92896678D02*
G75*
G02X96304342Y-93278446I-4490823J3339401D01*
G01*
X96304342Y-93278445D02*
G75*
G02X96086051Y-93430173I-424624J378018D01*
G01*
X96086052Y-93430172D02*
G75*
G02X95899991Y-93415489I-77839J199844D01*
G01*
X95899991Y-93415489D02*
G75*
G02X95714625Y-93247451I306442J524302D01*
G01*
X95652039Y-93154073D02*
X95714625Y-93247451D01*
X95584541Y-93039391D02*
X95652039Y-93154073D01*
X95522493Y-92922438D02*
X95584541Y-93039391D01*
X95476811Y-92822189D02*
X95522493Y-92922438D01*
X95429416Y-92717458D02*
X95476811Y-92822189D01*
X95388821Y-92656600D02*
G75*
G02X95429416Y-92717458I-216544J-188415D01*
G01*
X95350091Y-92629637D02*
G75*
G02X95388821Y-92656600I-34193J-90413D01*
G01*
X95310000Y-92630472D02*
G75*
G02X95350091Y-92629637I21084J-49422D01*
G01*
X95115508Y-92706863D02*
X95310000Y-92630473D01*
X95115508Y-92706863D02*
G75*
G02X94946405Y-92758750I-629757J1750913D01*
G01*
X94946405Y-92758751D02*
G75*
G02X94803206Y-92786809I-318866J1247911D01*
G01*
X94803206Y-92786809D02*
G75*
G02X94689354Y-92789061I-66502J483041D01*
G01*
X94689353Y-92789061D02*
G75*
G02X94549767Y-92726966I23490J240744D01*
G01*
X94549767Y-92726966D02*
G75*
G02X94440106Y-92579388I324979J356013D01*
G01*
X94440107Y-92579388D02*
G75*
G02X94361707Y-92342238I882966J423435D01*
G01*
X94361706Y-92342238D02*
G75*
G02X94316115Y-92010766I3003291J581951D01*
G01*
X94299114Y-91851323D02*
X94316115Y-92010766D01*
X94276601Y-91727849D02*
G75*
G02X94299114Y-91851323I-1225732J-287283D01*
G01*
X94250798Y-91639176D02*
G75*
G02X94276600Y-91727849I-823838J-287810D01*
G01*
X94222500Y-91611344D02*
G75*
G02X94250798Y-91639176I-14109J-42647D01*
G01*
X94194753Y-91617330D02*
G75*
G02X94222500Y-91611343I18959J-20577D01*
G01*
X94174817Y-91649044D02*
G75*
G02X94194753Y-91617330I68375J-20859D01*
G01*
X94163236Y-91712914D02*
G75*
G02X94174817Y-91649044I278136J-17447D01*
G01*
X94160000Y-91816216D02*
X94163236Y-91712913D01*
X94159999Y-91816216D02*
G75*
G02X94122752Y-92318906I-3410806J3D01*
G01*
X94122753Y-92318906D02*
G75*
G02X94009010Y-92894895I-6174512J920073D01*
G01*
X94009010Y-92894894D02*
G75*
G02X93839023Y-93467447I-6224133J1536396D01*
G01*
X93839022Y-93467447D02*
G75*
G02X93630608Y-93960855I-3926045J1367635D01*
G01*
X93630608Y-93960855D02*
G75*
G02X93254679Y-94596432I-4720291J2362977D01*
G01*
X93254679Y-94596432D02*
G75*
G02X92736794Y-95278856I-7830184J5404527D01*
G01*
X92210397Y-95863780D02*
X92736794Y-95278856D01*
X92210398Y-95863780D02*
G75*
G02X91875057Y-96069812I-573662J557780D01*
G01*
X91875057Y-96069813D02*
G75*
G02X91819157Y-96079112I-61530J197204D01*
G01*
X91819158Y-96079112D02*
G75*
G02X91766867Y-96071649I-4279J156943D01*
G01*
X91766867Y-96071648D02*
G75*
G02X91715594Y-96046138I58253J181363D01*
G01*
X91715593Y-96046139D02*
G75*
G02X91662557Y-96001558I230785J328402D01*
G01*
X91621037Y-95962280D02*
X91662557Y-96001558D01*
X91581106Y-95929127D02*
X91621037Y-95962280D01*
X91546601Y-95904281D02*
X91581106Y-95929127D01*
X91529294Y-95899000D02*
G75*
G02X91546601Y-95904281I-1J-31006D01*
G01*
X91510634Y-95906243D02*
G75*
G02X91529293Y-95899000I18659J-20411D01*
G01*
X91453841Y-95959586D02*
X91510635Y-95906244D01*
X91387918Y-96026217D02*
X91453841Y-95959586D01*
X91315556Y-96105250D02*
X91387918Y-96026217D01*
X91315556Y-96105251D02*
G75*
G02X91137323Y-96266985I-834509J740563D01*
G01*
X91137323Y-96266984D02*
G75*
G02X90982824Y-96315776I-150146J206431D01*
G01*
X90982823Y-96315776D02*
G75*
G02X90827086Y-96262301I4552J266774D01*
G01*
X90827086Y-96262301D02*
G75*
G02X90644281Y-96093798I746059J992797D01*
G01*
X90644281Y-96093799D02*
G75*
G02X90443358Y-95815553I1280377J1136234D01*
G01*
X90229874Y-95407757D02*
X90443358Y-95815553D01*
X90045327Y-94967341D02*
X90229874Y-95407757D01*
X90045327Y-94967341D02*
G75*
G02X89932369Y-94579867I2691586J994866D01*
G01*
X89932369Y-94579867D02*
G75*
G02X89873894Y-94142447I2685623J581638D01*
G01*
X89868945Y-93598603D02*
X89873894Y-94142447D01*
X89910443Y-93065342D02*
X89868945Y-93598603D01*
X89910443Y-93065342D02*
G75*
G02X89998081Y-92665413I2148809J-261310D01*
G01*
X90097078Y-92356826D02*
X89998081Y-92665413D01*
X89541039Y-92078100D02*
X90097078Y-92356826D01*
X89541038Y-92078100D02*
G75*
G02X88618123Y-91486610I2337212J4662575D01*
G01*
X88618123Y-91486611D02*
G75*
G02X87949570Y-90768507I2109372J2634086D01*
G01*
X87949570Y-90768507D02*
G75*
G02X87547949Y-89931099I2451062J1690543D01*
G01*
X87547950Y-89931099D02*
G75*
G02X87410000Y-88988373I3152235J942724D01*
G01*
X87409999Y-88988372D02*
G75*
G02X87478457Y-88328242I3217012J0D01*
G01*
X87478457Y-88328242D02*
G75*
G02X87682506Y-87644295I4199538J-880478D01*
G01*
X87682505Y-87644295D02*
G75*
G02X88003573Y-86987417I4184956J-1638612D01*
G01*
X88003573Y-86987417D02*
G75*
G02X88420463Y-86407681I3517693J-2089820D01*
G01*
X88563652Y-86241361D02*
X88420463Y-86407681D01*
X88414834Y-86071867D02*
X88563652Y-86241361D01*
X88414833Y-86071868D02*
G75*
G02X88124448Y-85696306I2862830J2513593D01*
G01*
X87841709Y-85238193D02*
X88124448Y-85696306D01*
X87590184Y-84740899D02*
X87841709Y-85238193D01*
X87590185Y-84740899D02*
G75*
G02X87393528Y-84246344I5051175J2294946D01*
G01*
X87393528Y-84246344D02*
G75*
G02X87019737Y-82871503I10369174J3557394D01*
G01*
X87019737Y-82871503D02*
G75*
G02X86796194Y-81364154I14040753J2852529D01*
G01*
X86796193Y-81364154D02*
G75*
G02X86733269Y-79832976I14412752J1359177D01*
G01*
X86733269Y-79832975D02*
G75*
G02X86840923Y-78386500I11628061J-138174D01*
G01*
X86873592Y-78149000D02*
X86840923Y-78386500D01*
X86473345Y-78149000D02*
X86873592Y-78149000D01*
X85878728Y-78190542D02*
G75*
G02X86473345Y-78149000I594617J-4234823D01*
G01*
X85222685Y-78316165D02*
G75*
G02X85878728Y-78190542I1590895J-6532350D01*
G01*
X84576271Y-78507847D02*
G75*
G02X85222684Y-78316165I2262438J-6443867D01*
G01*
X84010291Y-78748854D02*
G75*
G02X84576272Y-78507847I2136760J-4232892D01*
G01*
X83867051Y-78817480D02*
X84010291Y-78748853D01*
X83867051Y-78817481D02*
G75*
G02X83773575Y-78851404I-263850J581283D01*
G01*
X83773575Y-78851404D02*
G75*
G02X83715424Y-78858193I-50955J183997D01*
G01*
X83715424Y-78858194D02*
G75*
G02X83689231Y-78837767I1071J28380D01*
G01*
X83677845Y-78796704D02*
X83689231Y-78837767D01*
X83650577Y-78692506D02*
X83677845Y-78796704D01*
X83618389Y-78568131D02*
X83650577Y-78692506D01*
X83583762Y-78432806D02*
X83618389Y-78568131D01*
X83460601Y-78050815D02*
G75*
G02X83583762Y-78432806I-2985895J-1173553D01*
G01*
X83282670Y-77657503D02*
G75*
G02X83460602Y-78050815I-3812946J-1961855D01*
G01*
X83075125Y-77300715D02*
G75*
G02X83282670Y-77657502I-3346341J-2185351D01*
G01*
X82862858Y-77031699D02*
G75*
G02X83075124Y-77300715I-1392667J-1317128D01*
G01*
X82279594Y-76616586D02*
G75*
G02X82862858Y-77031699I-760739J-1686213D01*
G01*
X81599278Y-76469713D02*
G75*
G02X82279595Y-76616586I-2392J-1660127D01*
G01*
X80823203Y-76607529D02*
G75*
G02X81599278Y-76469712I772857J-2098089D01*
G01*
X79959757Y-77027517D02*
G75*
G02X80823203Y-76607529I2529367J-4102509D01*
G01*
X79820883Y-77112420D02*
X79959758Y-77027517D01*
X79701294Y-77183940D02*
X79820883Y-77112420D01*
X79596100Y-77245807D02*
X79701294Y-77183940D01*
X79596100Y-77245806D02*
G75*
G02X79584338Y-77249000I-11762J20061D01*
G01*
X79584338Y-77249001D02*
G75*
G02X79575854Y-77243216I0J9114D01*
G01*
X79541476Y-77154550D02*
X79575854Y-77243216D01*
X79503341Y-77050740D02*
X79541476Y-77154550D01*
X79461153Y-76927468D02*
X79503341Y-77050740D01*
X79355929Y-76665711D02*
G75*
G02X79461153Y-76927468I-2091296J-992710D01*
G01*
X79225073Y-76435469D02*
G75*
G02X79355929Y-76665710I-1495360J-1002183D01*
G01*
X79072405Y-76242726D02*
G75*
G02X79225073Y-76435469I-1134032J-1055081D01*
G01*
X78901946Y-76093071D02*
G75*
G02X79072405Y-76242726I-653483J-916233D01*
G01*
X78795946Y-76030423D02*
G75*
G02X78901946Y-76093071I-311368J-647829D01*
G01*
X78692288Y-75995316D02*
G75*
G02X78795946Y-76030423I-91951J-442090D01*
G01*
X78556151Y-75978545D02*
G75*
G02X78692288Y-75995317I-33361J-831695D01*
G01*
X78329470Y-75974000D02*
X78556151Y-75978545D01*
X78074039Y-75982177D02*
X78329470Y-75974000D01*
X77907940Y-76010531D02*
G75*
G02X78074039Y-75982177I217477J-773306D01*
G01*
X77730598Y-76076374D02*
G75*
G02X77907940Y-76010531I492452J-1054626D01*
G01*
X77404470Y-76234138D02*
X77730598Y-76076374D01*
X77172923Y-76358302D02*
X77404470Y-76234138D01*
X76905407Y-76517585D02*
X77172923Y-76358302D01*
X76644812Y-76684921D02*
X76905407Y-76517585D01*
X76435000Y-76833767D02*
X76644812Y-76684921D01*
X75968499Y-77216375D02*
X76435000Y-76833767D01*
X75401879Y-77741206D02*
X75968499Y-77216375D01*
X74826806Y-78317058D02*
X75401879Y-77741206D01*
X74327833Y-78863798D02*
X74826806Y-78317058D01*
X74148371Y-79068258D02*
X74327833Y-78863798D01*
X73997426Y-79234313D02*
X74148371Y-79068258D01*
X73869509Y-79370889D02*
X73997426Y-79234313D01*
X73869509Y-79370888D02*
G75*
G02X73860000Y-79367110I-4004J3778D01*
G01*
X73859999Y-79367110D02*
G75*
G02X73894631Y-79177359I537156J-1D01*
G01*
X74181015Y-78431497D02*
X73894631Y-79177359D01*
X74475146Y-77704093D02*
X74181015Y-78431497D01*
X74706338Y-77199000D02*
X74475146Y-77704093D01*
X74706339Y-77199000D02*
G75*
G02X75723579Y-75458513I13527155J-6738536D01*
G01*
X75723579Y-75458513D02*
G75*
G02X76946826Y-73902218I11633269J-7884861D01*
G01*
X76946826Y-73902218D02*
G75*
G02X78322758Y-72592429I9595542J-8702502D01*
G01*
X78322758Y-72592429D02*
G75*
G02X79795498Y-71587592I6389346J-7782870D01*
G01*
X80010506Y-71464916D02*
X79795498Y-71587592D01*
X80191939Y-71356087D02*
X80010506Y-71464916D01*
X80346208Y-71259812D02*
X80191939Y-71356087D01*
X80357998Y-71239853D02*
G75*
G02X80346208Y-71259812I-25298J1482D01*
G01*
X80331691Y-71185774D02*
G75*
G02X80357998Y-71239853I-35042J-50484D01*
G01*
X78342604Y-69805610D02*
X80331692Y-71185773D01*
X76563623Y-68577125D02*
X78342604Y-69805610D01*
X75901824Y-68149000D02*
X76563623Y-68577125D01*
X75482885Y-67869063D02*
X75901824Y-68149000D01*
X75482885Y-67869063D02*
G75*
G02X75129503Y-67577892I2367861J3233793D01*
G01*
X75129503Y-67577892D02*
G75*
G02X74855767Y-67289793I2089017J2258963D01*
G01*
X74855767Y-67289793D02*
G75*
G02X74680749Y-67019790I1031162J860132D01*
G01*
X74606569Y-66851699D02*
X74680749Y-67019790D01*
X74606569Y-66851699D02*
G75*
G02X74572207Y-66726727I559844J221145D01*
G01*
X74572207Y-66726727D02*
G75*
G02X74562745Y-66587033I745513J120663D01*
G01*
X74573833Y-66359211D02*
X74562745Y-66587033D01*
X74573834Y-66359211D02*
G75*
G02X74596892Y-66164631I2130201J-153783D01*
G01*
X74642196Y-65927140D02*
X74596892Y-66164631D01*
X74703949Y-65670901D02*
X74642196Y-65927140D01*
X74777646Y-65417550D02*
X74703949Y-65670901D01*
X74852306Y-65158609D02*
X74777646Y-65417550D01*
X74920179Y-64874956D02*
X74852306Y-65158609D01*
X74974891Y-64596597D02*
X74920179Y-64874956D01*
X75009402Y-64354433D02*
X74974891Y-64596597D01*
X75035793Y-64143700D02*
X75009402Y-64354433D01*
X75068971Y-63929501D02*
X75035793Y-64143700D01*
X75103725Y-63740482D02*
X75068971Y-63929501D01*
X75103726Y-63740481D02*
G75*
G02X75133899Y-63619345I1270333J-252097D01*
G01*
X75133899Y-63619346D02*
G75*
G02X75354675Y-63178458I1379996J-415318D01*
G01*
X75354675Y-63178459D02*
G75*
G02X75686349Y-62916756I644954J-476367D01*
G01*
X75686349Y-62916756D02*
G75*
G02X76110790Y-62856670I324800J-765210D01*
G01*
X76110791Y-62856671D02*
G75*
G02X76598828Y-62997545I-190072J-1574272D01*
G01*
X76912656Y-63146011D02*
X76598828Y-62997545D01*
X77107402Y-63044503D02*
X76912656Y-63146011D01*
X77107402Y-63044503D02*
G75*
G02X77583020Y-63010664I276795J-531044D01*
G01*
X77583020Y-63010664D02*
G75*
G02X78090544Y-63329156I-451759J-1283511D01*
G01*
X78090543Y-63329156D02*
G75*
G02X78522135Y-63934625I-1557378J-1566692D01*
G01*
X78522135Y-63934625D02*
G75*
G02X78771865Y-64699072I-2701295J-1305472D01*
G01*
X78836791Y-65053215D02*
X78771865Y-64699072D01*
X79610895Y-65879101D02*
X78836791Y-65053215D01*
X80278746Y-66571520D02*
X79610895Y-65879101D01*
X81096838Y-67382103D02*
X80278746Y-66571520D01*
X81950739Y-68211728D02*
X81096838Y-67382103D01*
X82042935Y-68248769D02*
G75*
G02X81950739Y-68211728I-724J131459D01*
G01*
X82146417Y-68227818D02*
G75*
G02X82042934Y-68248769I-104988J252527D01*
G01*
X82397198Y-68118686D02*
X82146417Y-68227818D01*
X82658175Y-67997400D02*
X82397198Y-68118686D01*
X82676090Y-67960765D02*
G75*
G02X82658175Y-67997400I-31946J-7076D01*
G01*
X82669714Y-67932617D02*
X82676089Y-67960766D01*
X82645950Y-67830050D02*
X82669714Y-67932617D01*
X82617749Y-67708618D02*
X82645950Y-67830050D01*
X82586001Y-67572269D02*
X82617749Y-67708618D01*
X82586002Y-67572268D02*
G75*
G02X82419479Y-66599576I8088618J1885352D01*
G01*
X82419478Y-66599577D02*
G75*
G02X82359836Y-65570652I9815287J1085141D01*
G01*
X82359836Y-65570652D02*
G75*
G02X82407696Y-64521050I10253227J58368D01*
G01*
X82407696Y-64521050D02*
G75*
G02X82562741Y-63486439I10030862J-974283D01*
G01*
X82562740Y-63486439D02*
G75*
G02X82984146Y-62054035I8572223J-1743712D01*
G01*
X82984146Y-62054034D02*
G75*
G02X83653681Y-60665268I9257540J-3607354D01*
G01*
X83653681Y-60665268D02*
G75*
G02X84507620Y-59434416I8138043J-4734353D01*
G01*
X84507620Y-59434416D02*
G75*
G02X85478749Y-58474000I5052490J-4137660D01*
G01*
X85622538Y-58353198D02*
X85478749Y-58474000D01*
X85744361Y-58238396D02*
X85622538Y-58353198D01*
X85838247Y-58138820D02*
X85744361Y-58238396D01*
X85856741Y-58093220D02*
G75*
G02X85838247Y-58138820I-72696J2933D01*
G01*
X85853074Y-58039183D02*
G75*
G02X85856741Y-58093220I-247183J-43917D01*
G01*
X85823076Y-57876304D02*
X85853074Y-58039183D01*
X85784223Y-57682568D02*
X85823076Y-57876304D01*
X85737560Y-57468220D02*
X85784223Y-57682568D01*
X85556085Y-56570937D02*
X85737560Y-57468220D01*
X85453731Y-55833010D02*
X85556085Y-56570937D01*
X85403367Y-55029721D02*
X85453731Y-55833010D01*
X85387241Y-53899000D02*
X85403367Y-55029721D01*
X85389831Y-52966307D02*
X85387241Y-53899000D01*
X85404192Y-52471091D02*
X85389831Y-52966307D01*
X85437447Y-52095132D02*
X85404192Y-52471091D01*
X85501478Y-51674000D02*
X85437447Y-52095132D01*
X85501478Y-51674001D02*
G75*
G02X85720761Y-50715029I10055420J-1794770D01*
G01*
X85720761Y-50715029D02*
G75*
G02X86004964Y-49956308I4571896J-1279959D01*
G01*
X86004965Y-49956308D02*
G75*
G02X86338330Y-49415356I2650828J-1260396D01*
G01*
X86338330Y-49415355D02*
G75*
G02X86710000Y-49132274I719748J-559457D01*
G01*
D11*
X103516000Y-88361971D02*
G75*
G02X103537247Y-88289376I134639J0D01*
G01*
X103521904Y-88364709D02*
G75*
G02X103516000Y-88361971I-2317J2738D01*
G01*
X103580257Y-88314534D02*
X103521904Y-88364709D01*
X109207665Y-74760287D02*
G75*
G02X109246767Y-74753789I36250J-97242D01*
G01*
X109172640Y-74781191D02*
G75*
G02X109207664Y-74760287I74542J-85102D01*
G01*
X111321213Y-76606263D02*
X111277506Y-76532188D01*
X111359856Y-76668838D02*
X111321213Y-76606263D01*
X111368588Y-76673768D02*
G75*
G02X111359856Y-76668838I162J10485D01*
G01*
X111376422Y-76668479D02*
G75*
G02X111368588Y-76673768I-7707J2969D01*
G01*
X111405744Y-76591315D02*
X111376421Y-76668479D01*
X111438217Y-76500562D02*
X111405744Y-76591315D01*
D12*
X114171000Y-100903721D02*
X114171000Y-101229279D01*
X115191000Y-100903721D02*
X115191000Y-101229279D01*
X112451000Y-62101000D02*
X112451000Y-60641000D01*
X109291000Y-62101000D02*
X109291000Y-59941000D01*
X109291000Y-62101000D02*
X110221000Y-62101000D01*
X112451000Y-62101000D02*
X111521000Y-62101000D01*
X108841000Y-53812221D02*
X108841000Y-54137779D01*
X107821000Y-53812221D02*
X107821000Y-54137779D01*
X112451000Y-51052000D02*
X112451000Y-49592000D01*
X109291000Y-51052000D02*
X109291000Y-48892000D01*
X109291000Y-51052000D02*
X110221000Y-51052000D01*
X112451000Y-51052000D02*
X111521000Y-51052000D01*
X100894000Y-105281000D02*
X99964000Y-105281000D01*
X97734000Y-105281000D02*
X98664000Y-105281000D01*
X97734000Y-105281000D02*
X97734000Y-103121000D01*
X100894000Y-105281000D02*
X100894000Y-103821000D01*
X47055500Y-105064779D02*
X47055500Y-104739221D01*
X46035500Y-105064779D02*
X46035500Y-104739221D01*
X43667000Y-105504064D02*
X43667000Y-104299936D01*
X45487000Y-105504064D02*
X45487000Y-104299936D01*
X117096000Y-105064779D02*
X117096000Y-104739221D01*
X116076000Y-105064779D02*
X116076000Y-104739221D01*
X115591000Y-105504064D02*
X115591000Y-104299936D01*
X113771000Y-105504064D02*
X113771000Y-104299936D01*
X70360000Y-105064779D02*
X70360000Y-104739221D01*
X69340000Y-105064779D02*
X69340000Y-104739221D01*
X92708000Y-105064779D02*
X92708000Y-104739221D01*
X93728000Y-105064779D02*
X93728000Y-104739221D01*
X105412000Y-105064779D02*
X105412000Y-104739221D01*
X104392000Y-105064779D02*
X104392000Y-104739221D01*
X57656000Y-105064779D02*
X57656000Y-104739221D01*
X58676000Y-105064779D02*
X58676000Y-104739221D01*
X81024000Y-105064779D02*
X81024000Y-104739221D01*
X82044000Y-105064779D02*
X82044000Y-104739221D01*
X67035000Y-105504064D02*
X67035000Y-104299936D01*
X68855000Y-105504064D02*
X68855000Y-104299936D01*
X92223000Y-105504064D02*
X92223000Y-104299936D01*
X90403000Y-105504064D02*
X90403000Y-104299936D01*
X102087000Y-105504064D02*
X102087000Y-104299936D01*
X103907000Y-105504064D02*
X103907000Y-104299936D01*
X55351000Y-105504064D02*
X55351000Y-104299936D01*
X57171000Y-105504064D02*
X57171000Y-104299936D01*
X80539000Y-105504064D02*
X80539000Y-104299936D01*
X78719000Y-105504064D02*
X78719000Y-104299936D01*
D13*
X47352333Y-142192454D02*
G75*
G03X47352333Y-142192454I-99999J0D01*
G01*
D14*
X47598816Y-140771170D02*
X49225162Y-139144824D01*
X50299964Y-140219626D02*
X48673618Y-141845972D01*
X49042728Y-138962389D02*
X47416382Y-140588735D01*
X46341580Y-139513933D02*
X47967926Y-137887587D01*
D13*
X46095097Y-140935217D02*
G75*
G03X46095097Y-140935217I-99999J0D01*
G01*
D12*
X79431000Y-132713000D02*
X78501000Y-132713000D01*
X76271000Y-132713000D02*
X77201000Y-132713000D01*
X76271000Y-132713000D02*
X76271000Y-130553000D01*
X79431000Y-132713000D02*
X79431000Y-131253000D01*
X83241000Y-132713000D02*
X83241000Y-131253000D01*
X80081000Y-132713000D02*
X80081000Y-130553000D01*
X80081000Y-132713000D02*
X81011000Y-132713000D01*
X83241000Y-132713000D02*
X82311000Y-132713000D01*
X54158000Y-105281000D02*
X54158000Y-103821000D01*
X50998000Y-105281000D02*
X50998000Y-103121000D01*
X50998000Y-105281000D02*
X51928000Y-105281000D01*
X54158000Y-105281000D02*
X53228000Y-105281000D01*
X65842000Y-105281000D02*
X65842000Y-103821000D01*
X62682000Y-105281000D02*
X62682000Y-103121000D01*
X62682000Y-105281000D02*
X63612000Y-105281000D01*
X65842000Y-105281000D02*
X64912000Y-105281000D01*
X77526000Y-105281000D02*
X76596000Y-105281000D01*
X74366000Y-105281000D02*
X75296000Y-105281000D01*
X74366000Y-105281000D02*
X74366000Y-103121000D01*
X77526000Y-105281000D02*
X77526000Y-103821000D01*
X89210000Y-105281000D02*
X88280000Y-105281000D01*
X86050000Y-105281000D02*
X86980000Y-105281000D01*
X86050000Y-105281000D02*
X86050000Y-103121000D01*
X89210000Y-105281000D02*
X89210000Y-103821000D01*
X112578000Y-105281000D02*
X111648000Y-105281000D01*
X109418000Y-105281000D02*
X110348000Y-105281000D01*
X109418000Y-105281000D02*
X109418000Y-103121000D01*
X112578000Y-105281000D02*
X112578000Y-103821000D01*
X123754000Y-106551000D02*
X122824000Y-106551000D01*
X120594000Y-106551000D02*
X121524000Y-106551000D01*
X120594000Y-106551000D02*
X120594000Y-104391000D01*
X123754000Y-106551000D02*
X123754000Y-105091000D01*
X77688221Y-128776000D02*
X78013779Y-128776000D01*
X77688221Y-129796000D02*
X78013779Y-129796000D01*
X81823779Y-128776000D02*
X81498221Y-128776000D01*
X81823779Y-129796000D02*
X81498221Y-129796000D01*
X48512000Y-121249221D02*
X48512000Y-121574779D01*
X49532000Y-121249221D02*
X49532000Y-121574779D01*
X45087000Y-100903721D02*
X45087000Y-101229279D01*
X44067000Y-100903721D02*
X44067000Y-101229279D01*
X69852000Y-121223721D02*
X69852000Y-121549279D01*
X68832000Y-121223721D02*
X68832000Y-121549279D01*
X93220000Y-122392221D02*
X93220000Y-122717779D01*
X92200000Y-122392221D02*
X92200000Y-122717779D01*
X103884000Y-122392221D02*
X103884000Y-122717779D01*
X104904000Y-122392221D02*
X104904000Y-122717779D01*
X57148000Y-122366721D02*
X57148000Y-122692279D01*
X58168000Y-122366721D02*
X58168000Y-122692279D01*
X81536000Y-121249221D02*
X81536000Y-121574779D01*
X80516000Y-121249221D02*
X80516000Y-121574779D01*
X116203000Y-122392221D02*
X116203000Y-122717779D01*
X117223000Y-122392221D02*
X117223000Y-122717779D01*
X108841000Y-50129221D02*
X108841000Y-50454779D01*
X107821000Y-50129221D02*
X107821000Y-50454779D01*
X79119000Y-47081221D02*
X79119000Y-47406779D01*
X80139000Y-47081221D02*
X80139000Y-47406779D01*
X81532000Y-47081221D02*
X81532000Y-47406779D01*
X82552000Y-47081221D02*
X82552000Y-47406779D01*
X84965000Y-47081221D02*
X84965000Y-47406779D01*
X83945000Y-47081221D02*
X83945000Y-47406779D01*
X87378000Y-47081221D02*
X87378000Y-47406779D01*
X86358000Y-47081221D02*
X86358000Y-47406779D01*
X88771000Y-47081221D02*
X88771000Y-47406779D01*
X89791000Y-47081221D02*
X89791000Y-47406779D01*
X108841000Y-57495221D02*
X108841000Y-57820779D01*
X107821000Y-57495221D02*
X107821000Y-57820779D01*
X92204000Y-47106721D02*
X92204000Y-47432279D01*
X91184000Y-47106721D02*
X91184000Y-47432279D01*
X93597000Y-47081221D02*
X93597000Y-47406779D01*
X94617000Y-47081221D02*
X94617000Y-47406779D01*
X107821000Y-61178221D02*
X107821000Y-61503779D01*
X108841000Y-61178221D02*
X108841000Y-61503779D01*
X108841000Y-64861221D02*
X108841000Y-65186779D01*
X107821000Y-64861221D02*
X107821000Y-65186779D01*
X107821000Y-68544221D02*
X107821000Y-68869779D01*
X108841000Y-68544221D02*
X108841000Y-68869779D01*
X107821000Y-72227221D02*
X107821000Y-72552779D01*
X108841000Y-72227221D02*
X108841000Y-72552779D01*
X67435000Y-100903721D02*
X67435000Y-101229279D01*
X68455000Y-100903721D02*
X68455000Y-101229279D01*
X90803000Y-100903721D02*
X90803000Y-101229279D01*
X91823000Y-100903721D02*
X91823000Y-101229279D01*
X103507000Y-100903721D02*
X103507000Y-101229279D01*
X102487000Y-100903721D02*
X102487000Y-101229279D01*
X56771000Y-100903721D02*
X56771000Y-101229279D01*
X55751000Y-100903721D02*
X55751000Y-101229279D01*
X79119000Y-100903721D02*
X79119000Y-101229279D01*
X80139000Y-100903721D02*
X80139000Y-101229279D01*
X52740779Y-102491000D02*
X52415221Y-102491000D01*
X52740779Y-101471000D02*
X52415221Y-101471000D01*
X64424779Y-101471000D02*
X64099221Y-101471000D01*
X64424779Y-102491000D02*
X64099221Y-102491000D01*
X76108779Y-102491000D02*
X75783221Y-102491000D01*
X76108779Y-101471000D02*
X75783221Y-101471000D01*
X87792779Y-102491000D02*
X87467221Y-102491000D01*
X87792779Y-101471000D02*
X87467221Y-101471000D01*
X99476779Y-102491000D02*
X99151221Y-102491000D01*
X99476779Y-101471000D02*
X99151221Y-101471000D01*
X111160779Y-101471000D02*
X110835221Y-101471000D01*
X111160779Y-102491000D02*
X110835221Y-102491000D01*
X122336779Y-103761000D02*
X122011221Y-103761000D01*
X122336779Y-102741000D02*
X122011221Y-102741000D01*
X132774000Y-89641936D02*
X132774000Y-93746064D01*
X129354000Y-89641936D02*
X129354000Y-93746064D01*
X112451000Y-54735000D02*
X111521000Y-54735000D01*
X109291000Y-54735000D02*
X110221000Y-54735000D01*
X109291000Y-54735000D02*
X109291000Y-52575000D01*
X112451000Y-54735000D02*
X112451000Y-53275000D01*
X112451000Y-58418000D02*
X112451000Y-56958000D01*
X109291000Y-58418000D02*
X109291000Y-56258000D01*
X109291000Y-58418000D02*
X110221000Y-58418000D01*
X112451000Y-58418000D02*
X111521000Y-58418000D01*
X112451000Y-65784000D02*
X112451000Y-64324000D01*
X109291000Y-65784000D02*
X109291000Y-63624000D01*
X109291000Y-65784000D02*
X110221000Y-65784000D01*
X112451000Y-65784000D02*
X111521000Y-65784000D01*
X112451000Y-69467000D02*
X111521000Y-69467000D01*
X109291000Y-69467000D02*
X110221000Y-69467000D01*
X109291000Y-69467000D02*
X109291000Y-67307000D01*
X112451000Y-69467000D02*
X112451000Y-68007000D01*
X112451000Y-73150000D02*
X112451000Y-71690000D01*
X109291000Y-73150000D02*
X109291000Y-70990000D01*
X109291000Y-73150000D02*
X110221000Y-73150000D01*
X112451000Y-73150000D02*
X111521000Y-73150000D01*
X86924000Y-132713000D02*
X85994000Y-132713000D01*
X83764000Y-132713000D02*
X84694000Y-132713000D01*
X83764000Y-132713000D02*
X83764000Y-130553000D01*
X86924000Y-132713000D02*
X86924000Y-131253000D01*
X85206721Y-128776000D02*
X85532279Y-128776000D01*
X85206721Y-129796000D02*
X85532279Y-129796000D01*
X75621000Y-133729000D02*
X74691000Y-133729000D01*
X72461000Y-133729000D02*
X73391000Y-133729000D01*
X72461000Y-133729000D02*
X72461000Y-131569000D01*
X75621000Y-133729000D02*
X75621000Y-132269000D01*
X74330779Y-128776000D02*
X74005221Y-128776000D01*
X74330779Y-129796000D02*
X74005221Y-129796000D01*
X134053000Y-89641936D02*
X134053000Y-93746064D01*
X137473000Y-89641936D02*
X137473000Y-93746064D01*
M02*
