G04 #@! TF.GenerationSoftware,KiCad,Pcbnew,(5.1.5)-3*
G04 #@! TF.CreationDate,2020-08-22T16:57:34+02:00*
G04 #@! TF.ProjectId,AR20_PDM_v1,41523230-5f50-4444-9d5f-76312e6b6963,rev?*
G04 #@! TF.SameCoordinates,Original*
G04 #@! TF.FileFunction,Legend,Top*
G04 #@! TF.FilePolarity,Positive*
%FSLAX46Y46*%
G04 Gerber Fmt 4.6, Leading zero omitted, Abs format (unit mm)*
G04 Created by KiCad (PCBNEW (5.1.5)-3) date 2020-08-22 16:57:34*
%MOMM*%
%LPD*%
G04 APERTURE LIST*
%ADD10C,0.000120*%
G04 #@! TA.AperFunction,Profile*
%ADD11C,0.050000*%
G04 #@! TD*
%ADD12C,0.200000*%
%ADD13C,0.060000*%
%ADD14C,0.250000*%
%ADD15C,0.300000*%
%ADD16C,0.150000*%
%ADD17C,0.152400*%
%ADD18C,0.120000*%
%ADD19C,1.000000*%
%ADD20C,0.400000*%
%ADD21C,0.127000*%
%ADD22C,0.100000*%
G04 APERTURE END LIST*
D10*
X114280000Y-78470000D02*
X115250000Y-78470000D01*
X102440000Y-78480000D02*
X103410000Y-78480000D01*
X78770000Y-78600000D02*
X79740000Y-78600000D01*
X66940000Y-78630000D02*
X67910000Y-78630000D01*
X55080000Y-78850000D02*
X56050000Y-78850000D01*
X43420000Y-78560000D02*
X44390000Y-78560000D01*
D11*
X161857400Y-26337000D02*
X33857000Y-26337000D01*
D12*
X114084285Y-41045714D02*
X114255714Y-41102857D01*
X114541428Y-41102857D01*
X114655714Y-41045714D01*
X114712857Y-40988571D01*
X114770000Y-40874285D01*
X114770000Y-40760000D01*
X114712857Y-40645714D01*
X114655714Y-40588571D01*
X114541428Y-40531428D01*
X114312857Y-40474285D01*
X114198571Y-40417142D01*
X114141428Y-40360000D01*
X114084285Y-40245714D01*
X114084285Y-40131428D01*
X114141428Y-40017142D01*
X114198571Y-39960000D01*
X114312857Y-39902857D01*
X114598571Y-39902857D01*
X114770000Y-39960000D01*
X115284285Y-40302857D02*
X115284285Y-41502857D01*
X115284285Y-40360000D02*
X115398571Y-40302857D01*
X115627142Y-40302857D01*
X115741428Y-40360000D01*
X115798571Y-40417142D01*
X115855714Y-40531428D01*
X115855714Y-40874285D01*
X115798571Y-40988571D01*
X115741428Y-41045714D01*
X115627142Y-41102857D01*
X115398571Y-41102857D01*
X115284285Y-41045714D01*
X116827142Y-41045714D02*
X116712857Y-41102857D01*
X116484285Y-41102857D01*
X116370000Y-41045714D01*
X116312857Y-40931428D01*
X116312857Y-40474285D01*
X116370000Y-40360000D01*
X116484285Y-40302857D01*
X116712857Y-40302857D01*
X116827142Y-40360000D01*
X116884285Y-40474285D01*
X116884285Y-40588571D01*
X116312857Y-40702857D01*
X117912857Y-41045714D02*
X117798571Y-41102857D01*
X117570000Y-41102857D01*
X117455714Y-41045714D01*
X117398571Y-40988571D01*
X117341428Y-40874285D01*
X117341428Y-40531428D01*
X117398571Y-40417142D01*
X117455714Y-40360000D01*
X117570000Y-40302857D01*
X117798571Y-40302857D01*
X117912857Y-40360000D01*
X118427142Y-41102857D02*
X118427142Y-40302857D01*
X118427142Y-39902857D02*
X118370000Y-39960000D01*
X118427142Y-40017142D01*
X118484285Y-39960000D01*
X118427142Y-39902857D01*
X118427142Y-40017142D01*
X119512857Y-41102857D02*
X119512857Y-40474285D01*
X119455714Y-40360000D01*
X119341428Y-40302857D01*
X119112857Y-40302857D01*
X118998571Y-40360000D01*
X119512857Y-41045714D02*
X119398571Y-41102857D01*
X119112857Y-41102857D01*
X118998571Y-41045714D01*
X118941428Y-40931428D01*
X118941428Y-40817142D01*
X118998571Y-40702857D01*
X119112857Y-40645714D01*
X119398571Y-40645714D01*
X119512857Y-40588571D01*
X120255714Y-41102857D02*
X120141428Y-41045714D01*
X120084285Y-40931428D01*
X120084285Y-39902857D01*
X121455714Y-40302857D02*
X121912857Y-40302857D01*
X121627142Y-39902857D02*
X121627142Y-40931428D01*
X121684285Y-41045714D01*
X121798571Y-41102857D01*
X121912857Y-41102857D01*
X122312857Y-41102857D02*
X122312857Y-39902857D01*
X122827142Y-41102857D02*
X122827142Y-40474285D01*
X122770000Y-40360000D01*
X122655714Y-40302857D01*
X122484285Y-40302857D01*
X122370000Y-40360000D01*
X122312857Y-40417142D01*
X123912857Y-41102857D02*
X123912857Y-40474285D01*
X123855714Y-40360000D01*
X123741428Y-40302857D01*
X123512857Y-40302857D01*
X123398571Y-40360000D01*
X123912857Y-41045714D02*
X123798571Y-41102857D01*
X123512857Y-41102857D01*
X123398571Y-41045714D01*
X123341428Y-40931428D01*
X123341428Y-40817142D01*
X123398571Y-40702857D01*
X123512857Y-40645714D01*
X123798571Y-40645714D01*
X123912857Y-40588571D01*
X124484285Y-40302857D02*
X124484285Y-41102857D01*
X124484285Y-40417142D02*
X124541428Y-40360000D01*
X124655714Y-40302857D01*
X124827142Y-40302857D01*
X124941428Y-40360000D01*
X124998571Y-40474285D01*
X124998571Y-41102857D01*
X125570000Y-41102857D02*
X125570000Y-39902857D01*
X125684285Y-40645714D02*
X126027142Y-41102857D01*
X126027142Y-40302857D02*
X125570000Y-40760000D01*
X126484285Y-41045714D02*
X126598571Y-41102857D01*
X126827142Y-41102857D01*
X126941428Y-41045714D01*
X126998571Y-40931428D01*
X126998571Y-40874285D01*
X126941428Y-40760000D01*
X126827142Y-40702857D01*
X126655714Y-40702857D01*
X126541428Y-40645714D01*
X126484285Y-40531428D01*
X126484285Y-40474285D01*
X126541428Y-40360000D01*
X126655714Y-40302857D01*
X126827142Y-40302857D01*
X126941428Y-40360000D01*
X128255714Y-40302857D02*
X128712857Y-40302857D01*
X128427142Y-39902857D02*
X128427142Y-40931428D01*
X128484285Y-41045714D01*
X128598571Y-41102857D01*
X128712857Y-41102857D01*
X129284285Y-41102857D02*
X129170000Y-41045714D01*
X129112857Y-40988571D01*
X129055714Y-40874285D01*
X129055714Y-40531428D01*
X129112857Y-40417142D01*
X129170000Y-40360000D01*
X129284285Y-40302857D01*
X129455714Y-40302857D01*
X129570000Y-40360000D01*
X129627142Y-40417142D01*
X129684285Y-40531428D01*
X129684285Y-40874285D01*
X129627142Y-40988571D01*
X129570000Y-41045714D01*
X129455714Y-41102857D01*
X129284285Y-41102857D01*
X131627142Y-41102857D02*
X131627142Y-40474285D01*
X131570000Y-40360000D01*
X131455714Y-40302857D01*
X131227142Y-40302857D01*
X131112857Y-40360000D01*
X131627142Y-41045714D02*
X131512857Y-41102857D01*
X131227142Y-41102857D01*
X131112857Y-41045714D01*
X131055714Y-40931428D01*
X131055714Y-40817142D01*
X131112857Y-40702857D01*
X131227142Y-40645714D01*
X131512857Y-40645714D01*
X131627142Y-40588571D01*
X132370000Y-41102857D02*
X132255714Y-41045714D01*
X132198571Y-40931428D01*
X132198571Y-39902857D01*
X132998571Y-41102857D02*
X132884285Y-41045714D01*
X132827142Y-40931428D01*
X132827142Y-39902857D01*
X134370000Y-41102857D02*
X134370000Y-40302857D01*
X134370000Y-39902857D02*
X134312857Y-39960000D01*
X134370000Y-40017142D01*
X134427142Y-39960000D01*
X134370000Y-39902857D01*
X134370000Y-40017142D01*
X134941428Y-40302857D02*
X134941428Y-41102857D01*
X134941428Y-40417142D02*
X134998571Y-40360000D01*
X135112857Y-40302857D01*
X135284285Y-40302857D01*
X135398571Y-40360000D01*
X135455714Y-40474285D01*
X135455714Y-41102857D01*
X135912857Y-40302857D02*
X136198571Y-41102857D01*
X136484285Y-40302857D01*
X137112857Y-41102857D02*
X136998571Y-41045714D01*
X136941428Y-40988571D01*
X136884285Y-40874285D01*
X136884285Y-40531428D01*
X136941428Y-40417142D01*
X136998571Y-40360000D01*
X137112857Y-40302857D01*
X137284285Y-40302857D01*
X137398571Y-40360000D01*
X137455714Y-40417142D01*
X137512857Y-40531428D01*
X137512857Y-40874285D01*
X137455714Y-40988571D01*
X137398571Y-41045714D01*
X137284285Y-41102857D01*
X137112857Y-41102857D01*
X138198571Y-41102857D02*
X138084285Y-41045714D01*
X138027142Y-40931428D01*
X138027142Y-39902857D01*
X138541428Y-40302857D02*
X138827142Y-41102857D01*
X139112857Y-40302857D01*
X140027142Y-41045714D02*
X139912857Y-41102857D01*
X139684285Y-41102857D01*
X139570000Y-41045714D01*
X139512857Y-40931428D01*
X139512857Y-40474285D01*
X139570000Y-40360000D01*
X139684285Y-40302857D01*
X139912857Y-40302857D01*
X140027142Y-40360000D01*
X140084285Y-40474285D01*
X140084285Y-40588571D01*
X139512857Y-40702857D01*
X141112857Y-41102857D02*
X141112857Y-39902857D01*
X141112857Y-41045714D02*
X140998571Y-41102857D01*
X140770000Y-41102857D01*
X140655714Y-41045714D01*
X140598571Y-40988571D01*
X140541428Y-40874285D01*
X140541428Y-40531428D01*
X140598571Y-40417142D01*
X140655714Y-40360000D01*
X140770000Y-40302857D01*
X140998571Y-40302857D01*
X141112857Y-40360000D01*
X142598571Y-40988571D02*
X142655714Y-41045714D01*
X142598571Y-41102857D01*
X142541428Y-41045714D01*
X142598571Y-40988571D01*
X142598571Y-41102857D01*
X142598571Y-40645714D02*
X142541428Y-39960000D01*
X142598571Y-39902857D01*
X142655714Y-39960000D01*
X142598571Y-40645714D01*
X142598571Y-39902857D01*
X114475714Y-39252857D02*
X114475714Y-38052857D01*
X114475714Y-38624285D02*
X115161428Y-38624285D01*
X115161428Y-39252857D02*
X115161428Y-38052857D01*
X116190000Y-39195714D02*
X116075714Y-39252857D01*
X115847142Y-39252857D01*
X115732857Y-39195714D01*
X115675714Y-39081428D01*
X115675714Y-38624285D01*
X115732857Y-38510000D01*
X115847142Y-38452857D01*
X116075714Y-38452857D01*
X116190000Y-38510000D01*
X116247142Y-38624285D01*
X116247142Y-38738571D01*
X115675714Y-38852857D01*
X117275714Y-39252857D02*
X117275714Y-38624285D01*
X117218571Y-38510000D01*
X117104285Y-38452857D01*
X116875714Y-38452857D01*
X116761428Y-38510000D01*
X117275714Y-39195714D02*
X117161428Y-39252857D01*
X116875714Y-39252857D01*
X116761428Y-39195714D01*
X116704285Y-39081428D01*
X116704285Y-38967142D01*
X116761428Y-38852857D01*
X116875714Y-38795714D01*
X117161428Y-38795714D01*
X117275714Y-38738571D01*
X118361428Y-39252857D02*
X118361428Y-38052857D01*
X118361428Y-39195714D02*
X118247142Y-39252857D01*
X118018571Y-39252857D01*
X117904285Y-39195714D01*
X117847142Y-39138571D01*
X117790000Y-39024285D01*
X117790000Y-38681428D01*
X117847142Y-38567142D01*
X117904285Y-38510000D01*
X118018571Y-38452857D01*
X118247142Y-38452857D01*
X118361428Y-38510000D01*
X120018571Y-39252857D02*
X119904285Y-39195714D01*
X119847142Y-39138571D01*
X119790000Y-39024285D01*
X119790000Y-38681428D01*
X119847142Y-38567142D01*
X119904285Y-38510000D01*
X120018571Y-38452857D01*
X120190000Y-38452857D01*
X120304285Y-38510000D01*
X120361428Y-38567142D01*
X120418571Y-38681428D01*
X120418571Y-39024285D01*
X120361428Y-39138571D01*
X120304285Y-39195714D01*
X120190000Y-39252857D01*
X120018571Y-39252857D01*
X120761428Y-38452857D02*
X121218571Y-38452857D01*
X120932857Y-39252857D02*
X120932857Y-38224285D01*
X120990000Y-38110000D01*
X121104285Y-38052857D01*
X121218571Y-38052857D01*
X123047142Y-39252857D02*
X123047142Y-38052857D01*
X123047142Y-39195714D02*
X122932857Y-39252857D01*
X122704285Y-39252857D01*
X122590000Y-39195714D01*
X122532857Y-39138571D01*
X122475714Y-39024285D01*
X122475714Y-38681428D01*
X122532857Y-38567142D01*
X122590000Y-38510000D01*
X122704285Y-38452857D01*
X122932857Y-38452857D01*
X123047142Y-38510000D01*
X124075714Y-39195714D02*
X123961428Y-39252857D01*
X123732857Y-39252857D01*
X123618571Y-39195714D01*
X123561428Y-39081428D01*
X123561428Y-38624285D01*
X123618571Y-38510000D01*
X123732857Y-38452857D01*
X123961428Y-38452857D01*
X124075714Y-38510000D01*
X124132857Y-38624285D01*
X124132857Y-38738571D01*
X123561428Y-38852857D01*
X124590000Y-39195714D02*
X124704285Y-39252857D01*
X124932857Y-39252857D01*
X125047142Y-39195714D01*
X125104285Y-39081428D01*
X125104285Y-39024285D01*
X125047142Y-38910000D01*
X124932857Y-38852857D01*
X124761428Y-38852857D01*
X124647142Y-38795714D01*
X124590000Y-38681428D01*
X124590000Y-38624285D01*
X124647142Y-38510000D01*
X124761428Y-38452857D01*
X124932857Y-38452857D01*
X125047142Y-38510000D01*
X125618571Y-39252857D02*
X125618571Y-38452857D01*
X125618571Y-38052857D02*
X125561428Y-38110000D01*
X125618571Y-38167142D01*
X125675714Y-38110000D01*
X125618571Y-38052857D01*
X125618571Y-38167142D01*
X126704285Y-38452857D02*
X126704285Y-39424285D01*
X126647142Y-39538571D01*
X126590000Y-39595714D01*
X126475714Y-39652857D01*
X126304285Y-39652857D01*
X126190000Y-39595714D01*
X126704285Y-39195714D02*
X126590000Y-39252857D01*
X126361428Y-39252857D01*
X126247142Y-39195714D01*
X126190000Y-39138571D01*
X126132857Y-39024285D01*
X126132857Y-38681428D01*
X126190000Y-38567142D01*
X126247142Y-38510000D01*
X126361428Y-38452857D01*
X126590000Y-38452857D01*
X126704285Y-38510000D01*
X127275714Y-38452857D02*
X127275714Y-39252857D01*
X127275714Y-38567142D02*
X127332857Y-38510000D01*
X127447142Y-38452857D01*
X127618571Y-38452857D01*
X127732857Y-38510000D01*
X127790000Y-38624285D01*
X127790000Y-39252857D01*
X128361428Y-39138571D02*
X128418571Y-39195714D01*
X128361428Y-39252857D01*
X128304285Y-39195714D01*
X128361428Y-39138571D01*
X128361428Y-39252857D01*
X128361428Y-38510000D02*
X128418571Y-38567142D01*
X128361428Y-38624285D01*
X128304285Y-38567142D01*
X128361428Y-38510000D01*
X128361428Y-38624285D01*
X130532857Y-39138571D02*
X130475714Y-39195714D01*
X130304285Y-39252857D01*
X130190000Y-39252857D01*
X130018571Y-39195714D01*
X129904285Y-39081428D01*
X129847142Y-38967142D01*
X129790000Y-38738571D01*
X129790000Y-38567142D01*
X129847142Y-38338571D01*
X129904285Y-38224285D01*
X130018571Y-38110000D01*
X130190000Y-38052857D01*
X130304285Y-38052857D01*
X130475714Y-38110000D01*
X130532857Y-38167142D01*
X131047142Y-39252857D02*
X131047142Y-38052857D01*
X131561428Y-39252857D02*
X131561428Y-38624285D01*
X131504285Y-38510000D01*
X131390000Y-38452857D01*
X131218571Y-38452857D01*
X131104285Y-38510000D01*
X131047142Y-38567142D01*
X132132857Y-39252857D02*
X132132857Y-38452857D01*
X132132857Y-38681428D02*
X132190000Y-38567142D01*
X132247142Y-38510000D01*
X132361428Y-38452857D01*
X132475714Y-38452857D01*
X132875714Y-39252857D02*
X132875714Y-38452857D01*
X132875714Y-38052857D02*
X132818571Y-38110000D01*
X132875714Y-38167142D01*
X132932857Y-38110000D01*
X132875714Y-38052857D01*
X132875714Y-38167142D01*
X133390000Y-39195714D02*
X133504285Y-39252857D01*
X133732857Y-39252857D01*
X133847142Y-39195714D01*
X133904285Y-39081428D01*
X133904285Y-39024285D01*
X133847142Y-38910000D01*
X133732857Y-38852857D01*
X133561428Y-38852857D01*
X133447142Y-38795714D01*
X133390000Y-38681428D01*
X133390000Y-38624285D01*
X133447142Y-38510000D01*
X133561428Y-38452857D01*
X133732857Y-38452857D01*
X133847142Y-38510000D01*
X134247142Y-38452857D02*
X134704285Y-38452857D01*
X134418571Y-38052857D02*
X134418571Y-39081428D01*
X134475714Y-39195714D01*
X134590000Y-39252857D01*
X134704285Y-39252857D01*
X135104285Y-39252857D02*
X135104285Y-38452857D01*
X135104285Y-38052857D02*
X135047142Y-38110000D01*
X135104285Y-38167142D01*
X135161428Y-38110000D01*
X135104285Y-38052857D01*
X135104285Y-38167142D01*
X136190000Y-39252857D02*
X136190000Y-38624285D01*
X136132857Y-38510000D01*
X136018571Y-38452857D01*
X135790000Y-38452857D01*
X135675714Y-38510000D01*
X136190000Y-39195714D02*
X136075714Y-39252857D01*
X135790000Y-39252857D01*
X135675714Y-39195714D01*
X135618571Y-39081428D01*
X135618571Y-38967142D01*
X135675714Y-38852857D01*
X135790000Y-38795714D01*
X136075714Y-38795714D01*
X136190000Y-38738571D01*
X136761428Y-38452857D02*
X136761428Y-39252857D01*
X136761428Y-38567142D02*
X136818571Y-38510000D01*
X136932857Y-38452857D01*
X137104285Y-38452857D01*
X137218571Y-38510000D01*
X137275714Y-38624285D01*
X137275714Y-39252857D01*
X138704285Y-39195714D02*
X138875714Y-39252857D01*
X139161428Y-39252857D01*
X139275714Y-39195714D01*
X139332857Y-39138571D01*
X139390000Y-39024285D01*
X139390000Y-38910000D01*
X139332857Y-38795714D01*
X139275714Y-38738571D01*
X139161428Y-38681428D01*
X138932857Y-38624285D01*
X138818571Y-38567142D01*
X138761428Y-38510000D01*
X138704285Y-38395714D01*
X138704285Y-38281428D01*
X138761428Y-38167142D01*
X138818571Y-38110000D01*
X138932857Y-38052857D01*
X139218571Y-38052857D01*
X139390000Y-38110000D01*
X139904285Y-39138571D02*
X139961428Y-39195714D01*
X139904285Y-39252857D01*
X139847142Y-39195714D01*
X139904285Y-39138571D01*
X139904285Y-39252857D01*
D13*
X84434721Y-40884374D02*
G75*
G02X84360320Y-40621083I2811614J936670D01*
G01*
X83808643Y-42806345D02*
G75*
G02X83762317Y-42750915I172009J190830D01*
G01*
X84683219Y-40709844D02*
X84673867Y-41063370D01*
X83780612Y-42467178D02*
X83799842Y-42581858D01*
X85112838Y-38053505D02*
X85193706Y-38349552D01*
X83830003Y-42797178D02*
G75*
G02X83808642Y-42806345I-12793J338D01*
G01*
X83828517Y-42771243D02*
G75*
G02X83830001Y-42797178I-154144J-21828D01*
G01*
X84306581Y-39657110D02*
X84307339Y-39586005D01*
X83762317Y-42750915D02*
G75*
G02X83703862Y-42640865I792867J491692D01*
G01*
X84290706Y-40095751D02*
G75*
G02X84296660Y-39842500I2293507J72778D01*
G01*
X84709038Y-41372411D02*
X84715433Y-41418070D01*
X84291670Y-39584814D02*
X84246578Y-39644988D01*
X84713276Y-40365854D02*
X84683219Y-40709844D01*
X84301355Y-39580001D02*
G75*
G02X84307339Y-39586005I0J-5984D01*
G01*
X83780612Y-42467178D02*
G75*
G02X83741430Y-42108880I2873209J495496D01*
G01*
X85263164Y-38654523D02*
X85320366Y-38965000D01*
X84360320Y-40621084D02*
G75*
G02X84312085Y-40356740I2685489J626597D01*
G01*
X83815905Y-42684638D02*
X83828518Y-42771243D01*
X83732676Y-41043640D02*
X83726795Y-41572892D01*
X83916777Y-40234068D02*
X83829482Y-40485581D01*
X84766523Y-40255000D02*
G75*
G02X84823316Y-40255291I28253J-28171D01*
G01*
X84596340Y-41273267D02*
X84504914Y-41071186D01*
X83726795Y-41572892D02*
X83741430Y-42108880D01*
X83799842Y-42581858D02*
X83815905Y-42684638D01*
X85357452Y-39319474D02*
X85375326Y-39886325D01*
X85193706Y-38349552D02*
X85263164Y-38654523D01*
X84719463Y-41456317D02*
G75*
G02X84716616Y-41464280I-9958J-931D01*
G01*
X85375666Y-40455376D02*
G75*
G02X85350419Y-40823967I-3459324J51789D01*
G01*
X84291670Y-39584813D02*
G75*
G02X84301355Y-39580000I9685J-7337D01*
G01*
X83610497Y-42355000D02*
X83581903Y-42475000D01*
X84959508Y-40407112D02*
G75*
G02X85100077Y-40598503I-1661882J-1367908D01*
G01*
X85320365Y-38965000D02*
G75*
G02X85357452Y-39319474I-3067525J-500117D01*
G01*
X84959507Y-40407112D02*
X84823316Y-40255291D01*
X85100076Y-40598503D02*
G75*
G02X85210151Y-40793967I-1436870J-937892D01*
G01*
X84713276Y-40365854D02*
G75*
G02X84766523Y-40255000I185256J-20770D01*
G01*
X84303450Y-39741843D02*
X84306581Y-39657110D01*
X84195246Y-39716430D02*
X84137370Y-39801234D01*
X83703862Y-42640864D02*
G75*
G02X83660549Y-42523930I853701J382706D01*
G01*
X84716616Y-41464280D02*
G75*
G02X84689932Y-41460194I-11859J11727D01*
G01*
X84689932Y-41460194D02*
X84596340Y-41273267D01*
X83916777Y-40234068D02*
G75*
G02X84021900Y-39999457I2705958J-1071614D01*
G01*
X84715433Y-41418070D02*
X84719463Y-41456317D01*
X83660549Y-42523930D02*
X83610497Y-42355000D01*
X84021901Y-39999456D02*
G75*
G02X84137370Y-39801234I1653322J-830357D01*
G01*
X84504914Y-41071186D02*
X84434722Y-40884374D01*
X84699703Y-41320000D02*
X84709038Y-41372411D01*
X85350419Y-40823967D02*
X85324839Y-41032933D01*
X84246578Y-39644988D02*
X84195246Y-39716430D01*
X85375326Y-39886325D02*
X85375666Y-40455376D01*
X83767580Y-40735001D02*
G75*
G02X83829482Y-40485581I2638124J-522355D01*
G01*
D14*
X116348571Y-36880000D02*
X117062857Y-36880000D01*
X116205714Y-37308571D02*
X116705714Y-35808571D01*
X117205714Y-37308571D01*
X117920000Y-37308571D02*
X117777142Y-37237142D01*
X117705714Y-37094285D01*
X117705714Y-35808571D01*
X118491428Y-37308571D02*
X118491428Y-36308571D01*
X118491428Y-35808571D02*
X118420000Y-35880000D01*
X118491428Y-35951428D01*
X118562857Y-35880000D01*
X118491428Y-35808571D01*
X118491428Y-35951428D01*
X119848571Y-36308571D02*
X119848571Y-37522857D01*
X119777142Y-37665714D01*
X119705714Y-37737142D01*
X119562857Y-37808571D01*
X119348571Y-37808571D01*
X119205714Y-37737142D01*
X119848571Y-37237142D02*
X119705714Y-37308571D01*
X119420000Y-37308571D01*
X119277142Y-37237142D01*
X119205714Y-37165714D01*
X119134285Y-37022857D01*
X119134285Y-36594285D01*
X119205714Y-36451428D01*
X119277142Y-36380000D01*
X119420000Y-36308571D01*
X119705714Y-36308571D01*
X119848571Y-36380000D01*
X120562857Y-36308571D02*
X120562857Y-37308571D01*
X120562857Y-36451428D02*
X120634285Y-36380000D01*
X120777142Y-36308571D01*
X120991428Y-36308571D01*
X121134285Y-36380000D01*
X121205714Y-36522857D01*
X121205714Y-37308571D01*
X123920000Y-37308571D02*
X123420000Y-36594285D01*
X123062857Y-37308571D02*
X123062857Y-35808571D01*
X123634285Y-35808571D01*
X123777142Y-35880000D01*
X123848571Y-35951428D01*
X123920000Y-36094285D01*
X123920000Y-36308571D01*
X123848571Y-36451428D01*
X123777142Y-36522857D01*
X123634285Y-36594285D01*
X123062857Y-36594285D01*
X125205714Y-37308571D02*
X125205714Y-36522857D01*
X125134285Y-36380000D01*
X124991428Y-36308571D01*
X124705714Y-36308571D01*
X124562857Y-36380000D01*
X125205714Y-37237142D02*
X125062857Y-37308571D01*
X124705714Y-37308571D01*
X124562857Y-37237142D01*
X124491428Y-37094285D01*
X124491428Y-36951428D01*
X124562857Y-36808571D01*
X124705714Y-36737142D01*
X125062857Y-36737142D01*
X125205714Y-36665714D01*
X126562857Y-37237142D02*
X126420000Y-37308571D01*
X126134285Y-37308571D01*
X125991428Y-37237142D01*
X125920000Y-37165714D01*
X125848571Y-37022857D01*
X125848571Y-36594285D01*
X125920000Y-36451428D01*
X125991428Y-36380000D01*
X126134285Y-36308571D01*
X126420000Y-36308571D01*
X126562857Y-36380000D01*
X127205714Y-37308571D02*
X127205714Y-36308571D01*
X127205714Y-35808571D02*
X127134285Y-35880000D01*
X127205714Y-35951428D01*
X127277142Y-35880000D01*
X127205714Y-35808571D01*
X127205714Y-35951428D01*
X127920000Y-36308571D02*
X127920000Y-37308571D01*
X127920000Y-36451428D02*
X127991428Y-36380000D01*
X128134285Y-36308571D01*
X128348571Y-36308571D01*
X128491428Y-36380000D01*
X128562857Y-36522857D01*
X128562857Y-37308571D01*
X129920000Y-36308571D02*
X129920000Y-37522857D01*
X129848571Y-37665714D01*
X129777142Y-37737142D01*
X129634285Y-37808571D01*
X129420000Y-37808571D01*
X129277142Y-37737142D01*
X129920000Y-37237142D02*
X129777142Y-37308571D01*
X129491428Y-37308571D01*
X129348571Y-37237142D01*
X129277142Y-37165714D01*
X129205714Y-37022857D01*
X129205714Y-36594285D01*
X129277142Y-36451428D01*
X129348571Y-36380000D01*
X129491428Y-36308571D01*
X129777142Y-36308571D01*
X129920000Y-36380000D01*
D15*
X58708571Y-55650000D02*
X60208571Y-56792857D01*
X60208571Y-56364285D02*
X60137142Y-56507142D01*
X59994285Y-56650000D01*
X59708571Y-56721428D01*
X59208571Y-56721428D01*
X58922857Y-56650000D01*
X58780000Y-56507142D01*
X58708571Y-56364285D01*
X58708571Y-56078571D01*
X58780000Y-55935714D01*
X58922857Y-55792857D01*
X59208571Y-55721428D01*
X59708571Y-55721428D01*
X59994285Y-55792857D01*
X60137142Y-55935714D01*
X60208571Y-56078571D01*
X60208571Y-56364285D01*
X60208571Y-55078571D02*
X59208571Y-55078571D01*
X59494285Y-55078571D02*
X59351428Y-55007142D01*
X59280000Y-54935714D01*
X59208571Y-54792857D01*
X59208571Y-54650000D01*
X59208571Y-54150000D02*
X60494285Y-54150000D01*
X60637142Y-54221428D01*
X60708571Y-54364285D01*
X60708571Y-54435714D01*
X58708571Y-54150000D02*
X58780000Y-54221428D01*
X58851428Y-54150000D01*
X58780000Y-54078571D01*
X58708571Y-54150000D01*
X58851428Y-54150000D01*
X60208571Y-52792857D02*
X59422857Y-52792857D01*
X59280000Y-52864285D01*
X59208571Y-53007142D01*
X59208571Y-53292857D01*
X59280000Y-53435714D01*
X60137142Y-52792857D02*
X60208571Y-52935714D01*
X60208571Y-53292857D01*
X60137142Y-53435714D01*
X59994285Y-53507142D01*
X59851428Y-53507142D01*
X59708571Y-53435714D01*
X59637142Y-53292857D01*
X59637142Y-52935714D01*
X59565714Y-52792857D01*
X59208571Y-52078571D02*
X60208571Y-52078571D01*
X59351428Y-52078571D02*
X59280000Y-52007142D01*
X59208571Y-51864285D01*
X59208571Y-51650000D01*
X59280000Y-51507142D01*
X59422857Y-51435714D01*
X60208571Y-51435714D01*
X59208571Y-49721428D02*
X60208571Y-49364285D01*
X59208571Y-49007142D01*
X60208571Y-47792857D02*
X59422857Y-47792857D01*
X59280000Y-47864285D01*
X59208571Y-48007142D01*
X59208571Y-48292857D01*
X59280000Y-48435714D01*
X60137142Y-47792857D02*
X60208571Y-47935714D01*
X60208571Y-48292857D01*
X60137142Y-48435714D01*
X59994285Y-48507142D01*
X59851428Y-48507142D01*
X59708571Y-48435714D01*
X59637142Y-48292857D01*
X59637142Y-47935714D01*
X59565714Y-47792857D01*
X60208571Y-47078571D02*
X59208571Y-47078571D01*
X59494285Y-47078571D02*
X59351428Y-47007142D01*
X59280000Y-46935714D01*
X59208571Y-46792857D01*
X59208571Y-46650000D01*
X60208571Y-45007142D02*
X58708571Y-45007142D01*
X60208571Y-44364285D02*
X59422857Y-44364285D01*
X59280000Y-44435714D01*
X59208571Y-44578571D01*
X59208571Y-44792857D01*
X59280000Y-44935714D01*
X59351428Y-45007142D01*
X60137142Y-43078571D02*
X60208571Y-43221428D01*
X60208571Y-43507142D01*
X60137142Y-43650000D01*
X59994285Y-43721428D01*
X59422857Y-43721428D01*
X59280000Y-43650000D01*
X59208571Y-43507142D01*
X59208571Y-43221428D01*
X59280000Y-43078571D01*
X59422857Y-43007142D01*
X59565714Y-43007142D01*
X59708571Y-43721428D01*
X60208571Y-42364285D02*
X59208571Y-42364285D01*
X59494285Y-42364285D02*
X59351428Y-42292857D01*
X59280000Y-42221428D01*
X59208571Y-42078571D01*
X59208571Y-41935714D01*
D16*
X121825238Y-96671904D02*
X120396666Y-96671904D01*
X120110952Y-96576666D01*
X119920476Y-96386190D01*
X119825238Y-96100476D01*
X119825238Y-95910000D01*
X119825238Y-98576666D02*
X119825238Y-97624285D01*
X121825238Y-97624285D01*
X120015714Y-100386190D02*
X119920476Y-100290952D01*
X119825238Y-100005238D01*
X119825238Y-99814761D01*
X119920476Y-99529047D01*
X120110952Y-99338571D01*
X120301428Y-99243333D01*
X120682380Y-99148095D01*
X120968095Y-99148095D01*
X121349047Y-99243333D01*
X121539523Y-99338571D01*
X121730000Y-99529047D01*
X121825238Y-99814761D01*
X121825238Y-100005238D01*
X121730000Y-100290952D01*
X121634761Y-100386190D01*
X121825238Y-101814761D02*
X120396666Y-101814761D01*
X120110952Y-101719523D01*
X119920476Y-101529047D01*
X119825238Y-101243333D01*
X119825238Y-101052857D01*
X119825238Y-103719523D02*
X119825238Y-102767142D01*
X121825238Y-102767142D01*
X120015714Y-105529047D02*
X119920476Y-105433809D01*
X119825238Y-105148095D01*
X119825238Y-104957619D01*
X119920476Y-104671904D01*
X120110952Y-104481428D01*
X120301428Y-104386190D01*
X120682380Y-104290952D01*
X120968095Y-104290952D01*
X121349047Y-104386190D01*
X121539523Y-104481428D01*
X121730000Y-104671904D01*
X121825238Y-104957619D01*
X121825238Y-105148095D01*
X121730000Y-105433809D01*
X121634761Y-105529047D01*
X121825238Y-106957619D02*
X120396666Y-106957619D01*
X120110952Y-106862380D01*
X119920476Y-106671904D01*
X119825238Y-106386190D01*
X119825238Y-106195714D01*
X119825238Y-108862380D02*
X119825238Y-107910000D01*
X121825238Y-107910000D01*
X120015714Y-110671904D02*
X119920476Y-110576666D01*
X119825238Y-110290952D01*
X119825238Y-110100476D01*
X119920476Y-109814761D01*
X120110952Y-109624285D01*
X120301428Y-109529047D01*
X120682380Y-109433809D01*
X120968095Y-109433809D01*
X121349047Y-109529047D01*
X121539523Y-109624285D01*
X121730000Y-109814761D01*
X121825238Y-110100476D01*
X121825238Y-110290952D01*
X121730000Y-110576666D01*
X121634761Y-110671904D01*
X121825238Y-112100476D02*
X120396666Y-112100476D01*
X120110952Y-112005238D01*
X119920476Y-111814761D01*
X119825238Y-111529047D01*
X119825238Y-111338571D01*
X119825238Y-114005238D02*
X119825238Y-113052857D01*
X121825238Y-113052857D01*
X120015714Y-115814761D02*
X119920476Y-115719523D01*
X119825238Y-115433809D01*
X119825238Y-115243333D01*
X119920476Y-114957619D01*
X120110952Y-114767142D01*
X120301428Y-114671904D01*
X120682380Y-114576666D01*
X120968095Y-114576666D01*
X121349047Y-114671904D01*
X121539523Y-114767142D01*
X121730000Y-114957619D01*
X121825238Y-115243333D01*
X121825238Y-115433809D01*
X121730000Y-115719523D01*
X121634761Y-115814761D01*
D13*
X83053173Y-46176564D02*
G75*
G02X83036000Y-46180000I-17174J41207D01*
G01*
X83099559Y-46093467D02*
G75*
G02X83111000Y-46090000I11441J-17143D01*
G01*
X83125269Y-46041096D02*
G75*
G02X83141000Y-46060000I-3494J-18905D01*
G01*
X83132187Y-46081188D02*
G75*
G02X83122449Y-46087710I-21357J21357D01*
G01*
X83266906Y-46472956D02*
G75*
G02X83246475Y-46492375I-121676J107565D01*
G01*
X83140999Y-46060001D02*
G75*
G02X83138709Y-46071450I-29762J0D01*
G01*
X82901000Y-46216615D02*
X82706000Y-46402530D01*
X83246475Y-46492375D02*
G75*
G02X83225931Y-46505777I-80547J101024D01*
G01*
X82670834Y-46086111D02*
G75*
G02X82673245Y-46071102I51015J-496D01*
G01*
X82673246Y-46071102D02*
G75*
G02X82676237Y-46071429I1462J-467D01*
G01*
X83161847Y-46586782D02*
G75*
G02X83151723Y-46596532I-29290J20281D01*
G01*
X82705409Y-43152060D02*
G75*
G02X82824086Y-43430414I-2724917J-1326248D01*
G01*
X83138709Y-46071450D02*
G75*
G02X83132187Y-46081188I-27879J11619D01*
G01*
X82670834Y-46086112D02*
X82669144Y-46270000D01*
X83083240Y-46117796D02*
G75*
G02X83089812Y-46103219I47200J-12509D01*
G01*
X83080999Y-46135001D02*
G75*
G02X83083240Y-46117797I67160J1D01*
G01*
X82767319Y-43495000D02*
X82744548Y-43410568D01*
X83284038Y-46450001D02*
G75*
G02X83266907Y-46472957I-146809J91684D01*
G01*
X83122449Y-46087710D02*
G75*
G02X83111000Y-46090000I-11449J27472D01*
G01*
X83151722Y-46596532D02*
G75*
G02X83139840Y-46600000I-11882J18619D01*
G01*
X83077565Y-46152174D02*
G75*
G02X83067781Y-46166782I-41820J17428D01*
G01*
X82985041Y-46718805D02*
X82935835Y-46763205D01*
X82688677Y-46208765D02*
X82676237Y-46071429D01*
X83081515Y-46634899D02*
X83034671Y-46673299D01*
X83121711Y-46605644D02*
G75*
G02X83139840Y-46600000I18129J-26292D01*
G01*
X83004219Y-46193219D02*
G75*
G02X83018826Y-46183436I32035J-32036D01*
G01*
X83442980Y-46308813D02*
G75*
G02X83451448Y-46301967I48696J-51569D01*
G01*
X82994434Y-46207827D02*
G75*
G02X83004218Y-46193219I41820J-17428D01*
G01*
X83018826Y-46183435D02*
G75*
G02X83036000Y-46180000I17174J-41209D01*
G01*
X83089812Y-46103219D02*
G75*
G02X83099559Y-46093468I29284J-19523D01*
G01*
X83468567Y-46341447D02*
G75*
G02X83461667Y-46351188I-27765J12355D01*
G01*
X82432945Y-47158372D02*
X82443583Y-47180179D01*
X83173857Y-46537814D02*
G75*
G02X83182098Y-46523219I43238J-14790D01*
G01*
X83170999Y-46555000D02*
G75*
G02X83168667Y-46572201I-64601J0D01*
G01*
X82987565Y-46242174D02*
G75*
G02X82977781Y-46256782I-41820J17428D01*
G01*
X83168668Y-46572201D02*
G75*
G02X83161847Y-46586782I-46382J12812D01*
G01*
X82977780Y-46256782D02*
G75*
G02X82963173Y-46266565I-32035J32036D01*
G01*
X83428581Y-46357652D02*
G75*
G02X83422238Y-46351188I5398J11642D01*
G01*
X83422237Y-46351188D02*
G75*
G02X83421304Y-46341463I14224J6272D01*
G01*
X83425999Y-46330000D02*
G75*
G02X83434069Y-46318517I101250J-62576D01*
G01*
X83028056Y-46098095D02*
G75*
G02X83093418Y-46047476I345283J-378339D01*
G01*
X83462828Y-46302235D02*
G75*
G02X83467113Y-46308813I-17993J-16403D01*
G01*
X83225931Y-46505777D02*
G75*
G02X83208783Y-46510000I-17148J32701D01*
G01*
X83461667Y-46351188D02*
G75*
G02X83451357Y-46357717I-21926J23220D01*
G01*
X83194371Y-46513460D02*
G75*
G02X83208783Y-46510000I14412J-28286D01*
G01*
X83434069Y-46318517D02*
G75*
G02X83442980Y-46308813I72445J-57579D01*
G01*
X83081000Y-46135000D02*
G75*
G02X83077564Y-46152174I-44644J0D01*
G01*
X83028056Y-46098095D02*
X82901000Y-46216615D01*
X82990999Y-46225001D02*
G75*
G02X82994435Y-46207827I44644J0D01*
G01*
X82991000Y-46225000D02*
G75*
G02X82987564Y-46242174I-44644J0D01*
G01*
X82921149Y-46274417D02*
G75*
G02X82946000Y-46270000I24850J-67692D01*
G01*
X83171000Y-46555000D02*
G75*
G02X83173858Y-46537814I53101J0D01*
G01*
X83470029Y-46318514D02*
G75*
G02X83471000Y-46330000I-67489J-11487D01*
G01*
X83451357Y-46357716D02*
G75*
G02X83439229Y-46360000I-12128J31060D01*
G01*
X82672078Y-43193912D02*
X82634464Y-43097500D01*
X83182099Y-46523219D02*
G75*
G02X83194372Y-46513460I30137J-25305D01*
G01*
X83121712Y-46605645D02*
X83081515Y-46634899D01*
X83467113Y-46308813D02*
G75*
G02X83470029Y-46318515I-37659J-16607D01*
G01*
X82706000Y-46402530D02*
X82688677Y-46208765D01*
X83034671Y-46673299D02*
X82985041Y-46718805D01*
X83471000Y-46330000D02*
G75*
G02X83468568Y-46341447I-28156J0D01*
G01*
X83093418Y-46047475D02*
G75*
G02X83125270Y-46041096I23901J-36628D01*
G01*
X83457770Y-46300000D02*
G75*
G02X83462829Y-46302234I0J-6846D01*
G01*
X83067780Y-46166782D02*
G75*
G02X83053173Y-46176565I-32035J32036D01*
G01*
X89348960Y-48730000D02*
G75*
G02X89360859Y-48737102I0J-13520D01*
G01*
X89329877Y-48916504D02*
G75*
G02X89342185Y-48919494I1541J-20482D01*
G01*
X81196848Y-48565000D02*
X81198066Y-48597047D01*
X89337990Y-48734744D02*
G75*
G02X89348960Y-48730000I10970J-10310D01*
G01*
X81269559Y-48433467D02*
G75*
G02X81281000Y-48430000I11441J-17143D01*
G01*
X81281000Y-48430001D02*
G75*
G02X81292440Y-48433468I-1J-20609D01*
G01*
X89361202Y-48899862D02*
G75*
G02X89351851Y-48917578I-66682J23873D01*
G01*
X89237353Y-48962482D02*
G75*
G02X89221781Y-48964848I-15857J51928D01*
G01*
X81253240Y-48457796D02*
G75*
G02X81259812Y-48443219I47200J-12509D01*
G01*
X81217167Y-48553600D02*
G75*
G02X81215986Y-48578901I-214770J-2653D01*
G01*
X89240791Y-48896812D02*
G75*
G02X89284045Y-48861134I194837J-192149D01*
G01*
X89369487Y-48759669D02*
G75*
G02X89374090Y-48792553I-167213J-40169D01*
G01*
X89211703Y-48960704D02*
G75*
G02X89209035Y-48936850I13597J13597D01*
G01*
X89341492Y-48814469D02*
G75*
G02X89340419Y-48833509I-49886J-6739D01*
G01*
X89312321Y-48919968D02*
G75*
G02X89329877Y-48916504I23175J-71228D01*
G01*
X81250999Y-48475001D02*
G75*
G02X81253240Y-48457797I67160J1D01*
G01*
X82418890Y-47464271D02*
G75*
G02X82421909Y-47432009I241269J-6302D01*
G01*
X81370330Y-48326012D02*
G75*
G02X81396749Y-48362500I-117399J-112809D01*
G01*
X89333130Y-48845401D02*
G75*
G02X89320878Y-48850000I-12252J14022D01*
G01*
X81197380Y-48532597D02*
G75*
G02X81200452Y-48512286I98043J-4437D01*
G01*
X89373481Y-48832077D02*
G75*
G02X89368916Y-48870205I-416428J30523D01*
G01*
X89335999Y-48790001D02*
G75*
G02X89330721Y-48766330I131612J41773D01*
G01*
X81210678Y-48511930D02*
G75*
G02X81215432Y-48529868I-68775J-27825D01*
G01*
X89360859Y-48737102D02*
G75*
G02X89369487Y-48759669I-82365J-44426D01*
G01*
X89368916Y-48870205D02*
G75*
G02X89361202Y-48899862I-169445J28244D01*
G01*
X89340418Y-48833509D02*
G75*
G02X89333131Y-48845401I-22670J5713D01*
G01*
X81211789Y-48601930D02*
G75*
G02X81206499Y-48613500I-35574J9271D01*
G01*
X81206499Y-48613500D02*
G75*
G02X81201695Y-48612973I-2260J1556D01*
G01*
X82357890Y-47331425D02*
G75*
G02X82348155Y-47354751I-158805J52583D01*
G01*
X89374091Y-48792553D02*
G75*
G02X89373482Y-48832077I-341995J-14501D01*
G01*
X81201695Y-48612974D02*
G75*
G02X81198066Y-48597047I47403J19179D01*
G01*
X83421304Y-46341463D02*
G75*
G02X83426000Y-46330000I36809J-8385D01*
G01*
X81197381Y-48532597D02*
X81196848Y-48565000D01*
X81215431Y-48529868D02*
G75*
G02X81217167Y-48553600I-194511J-26156D01*
G01*
X82436000Y-47240000D02*
G75*
G02X82464892Y-47254414I-1J-36165D01*
G01*
X89447020Y-48322215D02*
G75*
G02X89452559Y-48316739I9061J-3626D01*
G01*
X82429192Y-47401809D02*
G75*
G02X82439303Y-47377608I150687J-48739D01*
G01*
X81200452Y-48512287D02*
G75*
G02X81205313Y-48508420I5005J-1303D01*
G01*
X81308759Y-48457796D02*
G75*
G02X81311000Y-48475000I-64919J-17204D01*
G01*
X89459125Y-48318126D02*
G75*
G02X89464922Y-48327934I-16182J-16181D01*
G01*
X81311000Y-48352547D02*
G75*
G02X81319768Y-48321975I57681J0D01*
G01*
X89255649Y-48954490D02*
G75*
G02X89237353Y-48962481I-43612J74912D01*
G01*
X83451448Y-46301966D02*
G75*
G02X83457770Y-46300000I6322J-9181D01*
G01*
X89273960Y-48941692D02*
G75*
G02X89292713Y-48928673I85028J-102453D01*
G01*
X81259812Y-48443219D02*
G75*
G02X81269559Y-48433468I29284J-19523D01*
G01*
X89336000Y-48790000D02*
G75*
G02X89341492Y-48814469I-138287J-43891D01*
G01*
X89443697Y-48336615D02*
G75*
G02X89447019Y-48322215I48061J-3503D01*
G01*
X81308759Y-48492205D02*
G75*
G02X81302187Y-48506782I-47200J12509D01*
G01*
X89209036Y-48936850D02*
G75*
G02X89240791Y-48896813I200684J-126560D01*
G01*
X81311000Y-48475000D02*
G75*
G02X81308759Y-48492204I-67160J-1D01*
G01*
X89331504Y-48747099D02*
G75*
G02X89337991Y-48734745I25491J-5506D01*
G01*
X89221781Y-48964848D02*
G75*
G02X89211703Y-48960704I-74J14148D01*
G01*
X89284044Y-48861134D02*
G75*
G02X89320878Y-48850000I36834J-55361D01*
G01*
X82963173Y-46266564D02*
G75*
G02X82946000Y-46270000I-17174J41207D01*
G01*
X81302187Y-48506782D02*
G75*
G02X81292440Y-48516533I-29284J19523D01*
G01*
X89330721Y-48766330D02*
G75*
G02X89331503Y-48747099I55709J7367D01*
G01*
X83439229Y-46360000D02*
G75*
G02X83428581Y-46357652I0J25313D01*
G01*
X81215986Y-48578902D02*
G75*
G02X81211789Y-48601930I-156078J16551D01*
G01*
X89351850Y-48917579D02*
G75*
G02X89342185Y-48919494I-5866J4256D01*
G01*
X81292440Y-48433468D02*
G75*
G02X81302187Y-48443219I-19537J-29274D01*
G01*
X81205314Y-48508420D02*
G75*
G02X81210678Y-48511930I155J-5617D01*
G01*
X81302187Y-48443220D02*
G75*
G02X81308759Y-48457797I-40628J-27085D01*
G01*
X89292713Y-48928673D02*
G75*
G02X89312321Y-48919968I51813J-90275D01*
G01*
X89273960Y-48941693D02*
G75*
G02X89255649Y-48954490I-86296J103981D01*
G01*
X89467297Y-48342492D02*
G75*
G02X89466174Y-48359219I-77559J-3195D01*
G01*
X89464922Y-48327934D02*
G75*
G02X89467297Y-48342493I-58910J-17083D01*
G01*
X82322197Y-47512546D02*
X82340413Y-47482115D01*
X82291743Y-47489152D02*
G75*
G02X82288027Y-47467772I52471J20134D01*
G01*
X82421909Y-47432009D02*
G75*
G02X82429193Y-47401809I201479J-32612D01*
G01*
X82291739Y-47442821D02*
G75*
G02X82301912Y-47418265I107199J-30029D01*
G01*
X82301911Y-47418266D02*
G75*
G02X82317274Y-47398012I81423J-45806D01*
G01*
X82334007Y-47378171D02*
G75*
G02X82317274Y-47398012I-125120J88547D01*
G01*
X81328697Y-48441211D02*
G75*
G02X81321916Y-48420452I201166J77196D01*
G01*
X82464892Y-47254414D02*
G75*
G02X82479872Y-47291663I-61700J-46450D01*
G01*
X81312261Y-48372158D02*
G75*
G02X81311000Y-48352547I151864J19611D01*
G01*
X82393834Y-47486331D02*
X82407289Y-47518797D01*
X82475005Y-47335283D02*
G75*
G02X82451000Y-47365000I-54309J19315D01*
G01*
X82288027Y-47467772D02*
G75*
G02X82291738Y-47442821I100759J-2234D01*
G01*
X81408214Y-48411001D02*
G75*
G02X81401066Y-48431878I-54112J6865D01*
G01*
X81406713Y-48388019D02*
G75*
G02X81408214Y-48411001I-58550J-15364D01*
G01*
X82417673Y-47241106D02*
G75*
G02X82436000Y-47240000I18326J-151347D01*
G01*
X82384808Y-47249222D02*
G75*
G02X82399812Y-47244407I44199J-111962D01*
G01*
X82303045Y-47514447D02*
G75*
G02X82291744Y-47489152I229409J117664D01*
G01*
X82348155Y-47354751D02*
G75*
G02X82334007Y-47378171I-168443J85773D01*
G01*
X81385501Y-48451164D02*
G75*
G02X81364884Y-48467472I-115875J125310D01*
G01*
X81339408Y-48462781D02*
G75*
G02X81328696Y-48441210I108402J67279D01*
G01*
X89443368Y-48357500D02*
X89445139Y-48379890D01*
X81401066Y-48431878D02*
G75*
G02X81385501Y-48451164I-73602J43476D01*
G01*
X81259812Y-48506781D02*
G75*
G02X81253240Y-48492204I40628J27085D01*
G01*
X82413055Y-47520075D02*
G75*
G02X82407289Y-47518797I-2416J2745D01*
G01*
X83570114Y-46757323D02*
X83517072Y-46802871D01*
X81364884Y-48467473D02*
G75*
G02X81350780Y-48470468I-10772J16016D01*
G01*
X83198567Y-47211447D02*
G75*
G02X83191667Y-47221188I-27765J12355D01*
G01*
X83615927Y-46720961D02*
X83570114Y-46757323D01*
X86637807Y-46745150D02*
G75*
G02X86638265Y-46732375I31700J5259D01*
G01*
X86645208Y-46713033D02*
G75*
G02X86657962Y-46690000I225323J-109720D01*
G01*
X83446716Y-46976772D02*
X83511528Y-46914749D01*
X86673997Y-46667029D02*
G75*
G02X86691193Y-46647625I158825J-123426D01*
G01*
X81253241Y-48492204D02*
G75*
G02X81251000Y-48475000I64918J17203D01*
G01*
X83699552Y-46632365D02*
G75*
G02X83711000Y-46630000I11447J-26518D01*
G01*
X83155999Y-47200000D02*
G75*
G02X83164069Y-47188517I101250J-62576D01*
G01*
X89461493Y-48375626D02*
G75*
G02X89454846Y-48388126I-60948J24390D01*
G01*
X81319768Y-48321976D02*
G75*
G02X81341306Y-48311616I18960J-11850D01*
G01*
X81396749Y-48362500D02*
G75*
G02X81406713Y-48388019I-104870J-55652D01*
G01*
X81316198Y-48396142D02*
X81321916Y-48420452D01*
X81280999Y-48520000D02*
G75*
G02X81269559Y-48516533I1J20609D01*
G01*
X81312260Y-48372158D02*
X81316198Y-48396142D01*
X81292440Y-48516533D02*
G75*
G02X81281000Y-48520000I-11441J17142D01*
G01*
X81341306Y-48311616D02*
G75*
G02X81370330Y-48326012I-5525J-47594D01*
G01*
X89452558Y-48316738D02*
G75*
G02X89459125Y-48318125I2219J-5735D01*
G01*
X89454847Y-48388126D02*
G75*
G02X89449379Y-48388643I-2948J2003D01*
G01*
X82322196Y-47512545D02*
G75*
G02X82312045Y-47519094I-12228J7813D01*
G01*
X81350781Y-48470468D02*
G75*
G02X81339409Y-48462782I2898J16543D01*
G01*
X82378613Y-47449972D02*
X82393834Y-47486331D01*
X82417226Y-47511370D02*
G75*
G02X82413056Y-47520075I-12317J549D01*
G01*
X82360271Y-47448569D02*
G75*
G02X82369815Y-47443761I8734J-5460D01*
G01*
X89443368Y-48357500D02*
G75*
G02X89443698Y-48336615I183292J7549D01*
G01*
X81269559Y-48516533D02*
G75*
G02X81259812Y-48506782I19537J29274D01*
G01*
X82479872Y-47291663D02*
G75*
G02X82475004Y-47335284I-95346J-11441D01*
G01*
X82369814Y-47443761D02*
G75*
G02X82378613Y-47449972I-829J-10512D01*
G01*
X82439303Y-47377608D02*
G75*
G02X82451000Y-47365000I28688J-14886D01*
G01*
X82417226Y-47511371D02*
X82418891Y-47464271D01*
X82340413Y-47482115D02*
X82360271Y-47448568D01*
X82375999Y-47255001D02*
G75*
G02X82384807Y-47249221I18323J-18322D01*
G01*
X89466174Y-48359219D02*
G75*
G02X89461493Y-48375625I-81923J14503D01*
G01*
X82399812Y-47244407D02*
G75*
G02X82417672Y-47241106I35413J-141652D01*
G01*
X89449379Y-48388643D02*
G75*
G02X89445139Y-48379890I10479J10479D01*
G01*
X82312046Y-47519094D02*
G75*
G02X82303045Y-47514447I-1248J8624D01*
G01*
X82365405Y-47277973D02*
G75*
G02X82370225Y-47263646I107935J-28334D01*
G01*
X83712786Y-46720689D02*
G75*
G02X83697963Y-46736061I-68199J50930D01*
G01*
X83711000Y-46630001D02*
G75*
G02X83731202Y-46633051I-1J-68429D01*
G01*
X83201000Y-47200000D02*
G75*
G02X83198568Y-47211447I-28156J0D01*
G01*
X83680999Y-46660942D02*
G75*
G02X83683286Y-46649132I31640J0D01*
G01*
X86638266Y-46732376D02*
G75*
G02X86645208Y-46713034I92219J-22183D01*
G01*
X82370225Y-47263646D02*
G75*
G02X82376000Y-47255000I24596J-10176D01*
G01*
X83181357Y-47227716D02*
G75*
G02X83169229Y-47230000I-12128J31060D01*
G01*
X83624891Y-46769030D02*
G75*
G02X83645744Y-46754619I78771J-91687D01*
G01*
X86707196Y-46633772D02*
G75*
G02X86718470Y-46630000I11274J-14961D01*
G01*
X83353060Y-47057501D02*
G75*
G02X83292302Y-47090928I-115562J138114D01*
G01*
X83680777Y-46746468D02*
G75*
G02X83663845Y-46750000I-16932J38824D01*
G01*
X83353059Y-47057500D02*
X83446716Y-46976772D01*
X83277371Y-47072996D02*
G75*
G02X83344966Y-46975766I450808J-241293D01*
G01*
X83462085Y-46853807D02*
X83344966Y-46975766D01*
X82740601Y-46966650D02*
G75*
G02X82729175Y-46986937I-87914J36156D01*
G01*
X83588439Y-46814783D02*
G75*
G02X83557014Y-46862783I-286872J153529D01*
G01*
X82362106Y-47294910D02*
G75*
G02X82365406Y-47277974I133245J-17174D01*
G01*
X83191667Y-47221188D02*
G75*
G02X83181357Y-47227717I-21926J23220D01*
G01*
X83292303Y-47090928D02*
G75*
G02X83277372Y-47072996I-3832J11992D01*
G01*
X82810999Y-46840000D02*
G75*
G02X82812888Y-46828348I36885J0D01*
G01*
X83194274Y-46617782D02*
X83246000Y-46566745D01*
X82748382Y-46940019D02*
G75*
G02X82740602Y-46966650I-129105J23266D01*
G01*
X86643529Y-46750000D02*
G75*
G02X86637808Y-46745150I0J5799D01*
G01*
X83697963Y-46736061D02*
G75*
G02X83680778Y-46746469I-47406J58885D01*
G01*
X82826605Y-46818741D02*
G75*
G02X82836200Y-46822034I-2464J-22806D01*
G01*
X86688002Y-46712971D02*
G75*
G02X86670806Y-46732375I-158825J123425D01*
G01*
X82360999Y-47312143D02*
G75*
G02X82357890Y-47331425I-61341J0D01*
G01*
X83187770Y-47170000D02*
G75*
G02X83192829Y-47172234I0J-6846D01*
G01*
X83557014Y-46862784D02*
G75*
G02X83511528Y-46914749I-531277J419142D01*
G01*
X82772012Y-47055174D02*
G75*
G02X82777584Y-47054797I3102J-4482D01*
G01*
X83172980Y-47178813D02*
G75*
G02X83181448Y-47171967I48696J-51569D01*
G01*
X83158581Y-47227652D02*
G75*
G02X83152238Y-47221188I5398J11642D01*
G01*
X86657962Y-46690001D02*
G75*
G02X86673997Y-46667030I232185J-145001D01*
G01*
X83152237Y-47221188D02*
G75*
G02X83151304Y-47211463I14224J6272D01*
G01*
X86670806Y-46732376D02*
G75*
G02X86654802Y-46746229I-110151J111086D01*
G01*
X86718470Y-46630001D02*
G75*
G02X86724191Y-46634851I0J-5799D01*
G01*
X83151304Y-47211463D02*
G75*
G02X83156000Y-47200000I36809J-8385D01*
G01*
X83197113Y-47178813D02*
G75*
G02X83200029Y-47188515I-37659J-16607D01*
G01*
X86654802Y-46746228D02*
G75*
G02X86643529Y-46750000I-11273J14960D01*
G01*
X83722790Y-46702547D02*
X83737773Y-46660558D01*
X83689813Y-46639090D02*
G75*
G02X83699552Y-46632366I21743J-21082D01*
G01*
X83181448Y-47171966D02*
G75*
G02X83187770Y-47170000I6322J-9181D01*
G01*
X83739221Y-46642267D02*
G75*
G02X83737773Y-46660558I-38078J-6188D01*
G01*
X86716791Y-46666967D02*
G75*
G02X86704037Y-46690000I-225323J109719D01*
G01*
X83731201Y-46633051D02*
G75*
G02X83739221Y-46642266I-3422J-11075D01*
G01*
X83645744Y-46754619D02*
G75*
G02X83663845Y-46750000I18101J-33159D01*
G01*
X83517072Y-46802871D02*
X83462085Y-46853807D01*
X82890318Y-46798135D02*
X82852199Y-46822280D01*
X82751000Y-46910730D02*
G75*
G02X82748382Y-46940019I-165150J0D01*
G01*
X83683286Y-46649133D02*
G75*
G02X83689812Y-46639090I28860J-11611D01*
G01*
X83200029Y-47188514D02*
G75*
G02X83201000Y-47200000I-67489J-11487D01*
G01*
X83164069Y-47188517D02*
G75*
G02X83172980Y-47178813I72445J-57579D01*
G01*
X82751000Y-46910730D02*
G75*
G02X82753075Y-46882998I186339J0D01*
G01*
X86691193Y-46647625D02*
G75*
G02X86707197Y-46633772I110151J-111086D01*
G01*
X82361000Y-47312144D02*
G75*
G02X82362106Y-47294910I134809J1D01*
G01*
X86724192Y-46634850D02*
G75*
G02X86723734Y-46647625I-31700J-5260D01*
G01*
X83169229Y-47230000D02*
G75*
G02X83158581Y-47227652I0J25313D01*
G01*
X86723733Y-46647625D02*
G75*
G02X86716791Y-46666967I-92219J22183D01*
G01*
X83604720Y-46790000D02*
G75*
G02X83624892Y-46769031I120108J-95354D01*
G01*
X83192828Y-47172235D02*
G75*
G02X83197113Y-47178813I-17993J-16403D01*
G01*
X86704037Y-46690000D02*
G75*
G02X86688002Y-46712971I-232185J145001D01*
G01*
X83722790Y-46702547D02*
G75*
G02X83712786Y-46720689I-70550J27073D01*
G01*
X83588439Y-46814783D02*
G75*
G02X83604720Y-46790000I145752J-78004D01*
G01*
X82759656Y-46863242D02*
G75*
G02X82769496Y-46854182I18028J-9705D01*
G01*
X81149686Y-47773060D02*
G75*
G02X81171093Y-47798957I-57616J-69423D01*
G01*
X82762955Y-47063756D02*
G75*
G02X82772012Y-47055174I32327J-25046D01*
G01*
X83668769Y-46687488D02*
G75*
G02X83655285Y-46699446I-56541J50175D01*
G01*
X83150656Y-46664650D02*
X83194274Y-46617782D01*
X83346497Y-46392438D02*
G75*
G02X83370034Y-46394642I9479J-25558D01*
G01*
X81474869Y-48050338D02*
G75*
G02X81508279Y-48083947I-259817J-291693D01*
G01*
X82818402Y-46820887D02*
G75*
G02X82826606Y-46818741I6922J-9710D01*
G01*
X81022685Y-47950000D02*
X81031145Y-47926955D01*
X80997972Y-48038674D02*
G75*
G02X81022685Y-47950000I563194J-109176D01*
G01*
X80958787Y-48250388D02*
X80997973Y-48038674D01*
X82753075Y-46882997D02*
G75*
G02X82759657Y-46863242I60076J-9042D01*
G01*
X83681000Y-46660942D02*
G75*
G02X83677923Y-46673962I-29087J0D01*
G01*
X82810999Y-46840001D02*
G75*
G02X82808677Y-46851351I-28896J0D01*
G01*
X81104866Y-47755561D02*
G75*
G02X81122663Y-47755123I9296J-15919D01*
G01*
X82736148Y-47101177D02*
G75*
G02X82725316Y-47104642I-8131J6755D01*
G01*
X81325010Y-48250000D02*
G75*
G02X81316723Y-48245507I0J9889D01*
G01*
X82769496Y-46854181D02*
G75*
G02X82781000Y-46855000I4970J-11391D01*
G01*
X83110999Y-46719362D02*
G75*
G02X83096275Y-46756377I-53887J0D01*
G01*
X82808677Y-46851351D02*
G75*
G02X82802187Y-46858242I-12634J5396D01*
G01*
X82777584Y-47054797D02*
G75*
G02X82780540Y-47059517I-2451J-4821D01*
G01*
X83297725Y-46515703D02*
X83341343Y-46468815D01*
X83370034Y-46394641D02*
G75*
G02X83381000Y-46414041I-11678J-19400D01*
G01*
X81171093Y-47798957D02*
G75*
G02X81183376Y-47832700I-102288J-56341D01*
G01*
X81433349Y-47910577D02*
G75*
G02X81434604Y-47921105I-4247J-5845D01*
G01*
X81223673Y-48076196D02*
G75*
G02X81243072Y-48096438I-86532J-102343D01*
G01*
X81370999Y-47995808D02*
G75*
G02X81374029Y-47984250I23561J0D01*
G01*
X81524596Y-48111425D02*
G75*
G02X81527136Y-48137749I-49476J-18059D01*
G01*
X83655285Y-46699447D02*
G75*
G02X83639364Y-46707861I-42911J61923D01*
G01*
X80923502Y-48461904D02*
X80958787Y-48250388D01*
X81398178Y-48001065D02*
G75*
G02X81419908Y-48010516I-47284J-138425D01*
G01*
X82935835Y-46763204D02*
G75*
G02X82890318Y-46798135I-385052J454625D01*
G01*
X83111000Y-46719362D02*
G75*
G02X83116217Y-46704883I22700J0D01*
G01*
X81122663Y-47755123D02*
G75*
G02X81149686Y-47773060I-70206J-135091D01*
G01*
X81387443Y-48003556D02*
G75*
G02X81381158Y-48008032I-16447J16446D01*
G01*
X81375830Y-48008064D02*
G75*
G02X81372202Y-48003870I2917J6190D01*
G01*
X81446477Y-48027301D02*
G75*
G02X81474869Y-48050338I-235840J-319686D01*
G01*
X83381000Y-46414041D02*
G75*
G02X83375770Y-46428566I-22785J0D01*
G01*
X83313633Y-46413238D02*
G75*
G02X83346497Y-46392438I65433J-67021D01*
G01*
X83615927Y-46720962D02*
G75*
G02X83639364Y-46707861I57117J-74666D01*
G01*
X82802187Y-46858242D02*
G75*
G02X82792454Y-46859533I-6739J13478D01*
G01*
X82795788Y-47065664D02*
G75*
G02X82780540Y-47059517I-6318J6314D01*
G01*
X83246000Y-46566745D02*
X83297725Y-46515703D01*
X82945990Y-46913213D02*
X83096275Y-46756377D01*
X82752154Y-47079159D02*
G75*
G02X82762955Y-47063756I166993J-105609D01*
G01*
X82702216Y-47065959D02*
X82715311Y-47096365D01*
X82725315Y-47104642D02*
G75*
G02X82715311Y-47096365I3957J14968D01*
G01*
X82702727Y-47005774D02*
G75*
G02X82715602Y-46996800I21643J-17328D01*
G01*
X82792454Y-46859532D02*
G75*
G02X82781000Y-46855000I6958J34324D01*
G01*
X83116217Y-46704883D02*
X83150656Y-46664650D01*
X81183376Y-47832700D02*
G75*
G02X81187234Y-47878269I-203831J-40203D01*
G01*
X81264490Y-48035823D02*
G75*
G02X81261043Y-48006707I210357J39663D01*
G01*
X83341343Y-46468815D02*
X83375770Y-46428566D01*
X82695724Y-47020915D02*
G75*
G02X82702727Y-47005773I34176J-6615D01*
G01*
X82702215Y-47065959D02*
G75*
G02X82695501Y-47041504I120459J46224D01*
G01*
X82812888Y-46828348D02*
G75*
G02X82818402Y-46820887I14205J-4730D01*
G01*
X82852199Y-46822280D02*
G75*
G02X82836200Y-46822034I-7793J13522D01*
G01*
X82795788Y-47065663D02*
X82945990Y-46913213D01*
X81303695Y-48223563D02*
G75*
G02X81289769Y-48194486I297745J160473D01*
G01*
X83677923Y-46673962D02*
G75*
G02X83668769Y-46687488I-55965J28014D01*
G01*
X82729175Y-46986937D02*
G75*
G02X82715602Y-46996800I-22361J16501D01*
G01*
X82752154Y-47079160D02*
G75*
G02X82736147Y-47101178I-177896J112503D01*
G01*
X82695501Y-47041504D02*
G75*
G02X82695724Y-47020915I56567J9683D01*
G01*
X83284037Y-46450001D02*
G75*
G02X83313633Y-46413238I167792J-104787D01*
G01*
X81279092Y-48069907D02*
G75*
G02X81270635Y-48058965I11992J18009D01*
G01*
X81336315Y-48236561D02*
G75*
G02X81325010Y-48250000I-11305J-1965D01*
G01*
X81043582Y-47893027D02*
X81057377Y-47855374D01*
X80919966Y-49384775D02*
G75*
G02X80901123Y-49374872I-65J22754D01*
G01*
X80904094Y-48621121D02*
G75*
G02X80899064Y-48617500I66J5396D01*
G01*
X80903491Y-48674647D02*
G75*
G02X80906779Y-48685898I-14919J-10466D01*
G01*
X80869943Y-48681016D02*
G75*
G02X80882511Y-48672770I38152J-44447D01*
G01*
X81384265Y-47968938D02*
G75*
G02X81398876Y-47952838I120199J-94403D01*
G01*
X81182874Y-47941321D02*
X81178017Y-48001750D01*
X81267546Y-47931346D02*
G75*
G02X81281816Y-47909736I36206J-8392D01*
G01*
X81261043Y-48006707D02*
G75*
G02X81261212Y-47975073I289338J14273D01*
G01*
X81374029Y-47984250D02*
G75*
G02X81384265Y-47968938I104988J-59106D01*
G01*
X81381157Y-48008032D02*
G75*
G02X81375830Y-48008063I-2696J5552D01*
G01*
X80866990Y-48953619D02*
G75*
G02X80894209Y-48940000I27219J-20391D01*
G01*
X80987016Y-49372733D02*
X80955321Y-49380178D01*
X80886656Y-49186795D02*
X80887693Y-49146480D01*
X81206750Y-48070001D02*
G75*
G02X81223673Y-48076196I0J-26211D01*
G01*
X80867599Y-48902281D02*
G75*
G02X80862527Y-48892178I8971J10829D01*
G01*
X81057377Y-47855374D02*
X81070607Y-47819240D01*
X81279093Y-48069906D02*
G75*
G02X81300264Y-48097131I-30165J-45301D01*
G01*
X81261672Y-48125551D02*
G75*
G02X81276504Y-48160000I-234316J-121303D01*
G01*
X80882511Y-48672769D02*
G75*
G02X80894555Y-48670000I12044J-24807D01*
G01*
X81372202Y-48003870D02*
G75*
G02X81371000Y-47995808I26431J8062D01*
G01*
X81415379Y-47903816D02*
G75*
G02X81433349Y-47910577I-3305J-36045D01*
G01*
X80875531Y-48901469D02*
G75*
G02X80867599Y-48902280I-4365J3494D01*
G01*
X80833368Y-48662500D02*
G75*
G02X80837868Y-48610658I226107J6490D01*
G01*
X80850867Y-48707500D02*
G75*
G02X80858781Y-48693161I63052J-25442D01*
G01*
X81303695Y-48223563D02*
X81316723Y-48245507D01*
X80858782Y-48693161D02*
G75*
G02X80869943Y-48681016I56703J-40911D01*
G01*
X81180622Y-48040189D02*
G75*
G02X81178017Y-48001750I163915J30414D01*
G01*
X81507260Y-48193498D02*
G75*
G02X81517370Y-48166782I107528J-25421D01*
G01*
X81187234Y-47878269D02*
X81182874Y-47941321D01*
X81520999Y-48280000D02*
G75*
G02X81509070Y-48250820I134746J72113D01*
G01*
X80907903Y-48855088D02*
X80891000Y-48880000D01*
X81089772Y-47772312D02*
G75*
G02X81104866Y-47755561I33800J-15281D01*
G01*
X81527136Y-48137749D02*
G75*
G02X81517370Y-48166782I-91049J14468D01*
G01*
X81031145Y-47926955D02*
X81043582Y-47893027D01*
X81261212Y-47975073D02*
G75*
G02X81267546Y-47931347I263181J-15801D01*
G01*
X81521000Y-48280000D02*
X81551517Y-48333458D01*
X81281816Y-47909736D02*
G75*
G02X81308723Y-47900192I29417J-40233D01*
G01*
X81363660Y-47900167D02*
X81415379Y-47903816D01*
X81509070Y-48250820D02*
G75*
G02X81504425Y-48221739I112141J32824D01*
G01*
X81419908Y-48010516D02*
G75*
G02X81446477Y-48027302I-102869J-192242D01*
G01*
X81206750Y-48070001D02*
G75*
G02X81190265Y-48061864I0J20768D01*
G01*
X81276504Y-48160000D02*
X81289769Y-48194486D01*
X81270636Y-48058965D02*
G75*
G02X81264490Y-48035823I154711J53472D01*
G01*
X81398877Y-47952837D02*
G75*
G02X81416160Y-47938308I122736J-128451D01*
G01*
X81434605Y-47921105D02*
G75*
G02X81416160Y-47938308I-83624J71171D01*
G01*
X81190265Y-48061863D02*
G75*
G02X81180622Y-48040189I40410J30961D01*
G01*
X81300263Y-48097131D02*
G75*
G02X81321427Y-48167003I-774637J-272773D01*
G01*
X81387444Y-48003557D02*
G75*
G02X81398177Y-48001065I7366J-7366D01*
G01*
X81308724Y-47900192D02*
G75*
G02X81363660Y-47900167I27721J-549824D01*
G01*
X81504425Y-48221739D02*
G75*
G02X81507260Y-48193498I107693J3452D01*
G01*
X81508279Y-48083946D02*
G75*
G02X81524596Y-48111425I-64899J-57122D01*
G01*
X81070607Y-47819240D02*
X81089772Y-47772312D01*
X81243072Y-48096438D02*
G75*
G02X81261672Y-48125552I-150539J-116675D01*
G01*
X81336316Y-48236561D02*
X81321427Y-48167003D01*
X82286200Y-47238813D02*
G75*
G02X82309121Y-47232223I46954J-120158D01*
G01*
X81579920Y-48251269D02*
G75*
G02X81574726Y-48220025I90321J31068D01*
G01*
X82206477Y-47812652D02*
G75*
G02X82208209Y-47732870I822372J22056D01*
G01*
X82145000Y-47292651D02*
G75*
G02X82178459Y-47290000I33458J-209837D01*
G01*
X82220109Y-48127509D02*
X82218056Y-47993474D01*
X82255177Y-47511436D02*
G75*
G02X82249015Y-47548637I-190233J12402D01*
G01*
X82392901Y-47147500D02*
X82394460Y-47092045D01*
X82241289Y-47475097D02*
G75*
G02X82252616Y-47486980I-5541J-16622D01*
G01*
X82145614Y-48753980D02*
G75*
G02X82097449Y-48742127I-11150J58481D01*
G01*
X82226271Y-47465622D02*
G75*
G02X82205746Y-47442028I221020J212990D01*
G01*
X81883755Y-48538530D02*
X82004101Y-48661376D01*
X81577365Y-48172414D02*
G75*
G02X81578190Y-48180271I-13426J-5381D01*
G01*
X82217088Y-47661690D02*
G75*
G02X82233124Y-47600330I402235J-72346D01*
G01*
X81565701Y-48337806D02*
G75*
G02X81551517Y-48333458I-4650J10142D01*
G01*
X82388983Y-47186903D02*
G75*
G02X82378456Y-47211630I-58706J10389D01*
G01*
X82394460Y-47092046D02*
G75*
G02X82398323Y-47085931I7145J-236D01*
G01*
X81563950Y-48168555D02*
G75*
G02X81572530Y-48168178I4914J-14031D01*
G01*
X82205746Y-47442028D02*
G75*
G02X82184195Y-47411478I290754J227981D01*
G01*
X82360194Y-47225266D02*
G75*
G02X82332770Y-47230000I-27424J77069D01*
G01*
X81552889Y-48173833D02*
G75*
G02X81563950Y-48168555I29788J-48197D01*
G01*
X82189865Y-48684957D02*
G75*
G02X82172593Y-48733932I-179874J35903D01*
G01*
X81574725Y-48220025D02*
G75*
G02X81578190Y-48180271I234812J-434D01*
G01*
X81729979Y-48362598D02*
X81883755Y-48538530D01*
X82244670Y-47271509D02*
G75*
G02X82225574Y-47281188I-57787J90325D01*
G01*
X82202118Y-48594454D02*
G75*
G02X82189865Y-48684957I-729839J52729D01*
G01*
X82208209Y-47732870D02*
G75*
G02X82217087Y-47661691I664516J-46744D01*
G01*
X81691610Y-48320734D02*
X81729979Y-48362598D01*
X82255999Y-47260001D02*
G75*
G02X82267280Y-47248494I31140J-19245D01*
G01*
X82164598Y-47377290D02*
X82137632Y-47322725D01*
X81654943Y-48288111D02*
G75*
G02X81691610Y-48320734I-245337J-312667D01*
G01*
X82233124Y-47600330D02*
X82249015Y-47548637D01*
X82134798Y-47302858D02*
G75*
G02X82145000Y-47292651I12136J-1928D01*
G01*
X82255999Y-47260000D02*
G75*
G02X82244669Y-47271508I-30916J19107D01*
G01*
X81542266Y-48186551D02*
G75*
G02X81552889Y-48173833I24414J-9596D01*
G01*
X81538300Y-48206598D02*
G75*
G02X81542266Y-48186551I57315J-922D01*
G01*
X81607977Y-48266868D02*
G75*
G02X81623881Y-48266755I8045J-13018D01*
G01*
X82218056Y-47993474D02*
X82212042Y-47900024D01*
X82309121Y-47232222D02*
G75*
G02X82332770Y-47230000I23649J-124726D01*
G01*
X82403600Y-47087848D02*
X82421934Y-47132500D01*
X82212042Y-47900024D02*
X82206477Y-47812652D01*
X82421934Y-47132500D02*
X82432945Y-47158372D01*
X82137632Y-47322725D02*
G75*
G02X82134799Y-47302859I30796J14526D01*
G01*
X82213338Y-48414687D02*
X82218610Y-48274902D01*
X82392902Y-47147500D02*
G75*
G02X82388984Y-47186902I-260509J6004D01*
G01*
X82267280Y-47248494D02*
G75*
G02X82286199Y-47238813I57490J-89022D01*
G01*
X82225574Y-47281189D02*
G75*
G02X82202403Y-47287779I-47285J122217D01*
G01*
X82172593Y-48733932D02*
G75*
G02X82145614Y-48753979I-34205J17855D01*
G01*
X81571712Y-48324205D02*
G75*
G02X81565701Y-48337806I-10684J-3407D01*
G01*
X82252615Y-47486980D02*
G75*
G02X82255178Y-47511437I-70173J-19715D01*
G01*
X82004101Y-48661376D02*
X82097449Y-48742127D01*
X81607977Y-48266870D02*
G75*
G02X81592091Y-48266745I-7844J12694D01*
G01*
X81572530Y-48168179D02*
G75*
G02X81577365Y-48172414I-1749J-6874D01*
G01*
X82184195Y-47411478D02*
X82164598Y-47377290D01*
X81592092Y-48266744D02*
G75*
G02X81579920Y-48251269I16128J25209D01*
G01*
X82218610Y-48274902D02*
X82220109Y-48127509D01*
X82378457Y-47211630D02*
G75*
G02X82360195Y-47225267I-31209J22747D01*
G01*
X82202403Y-47287778D02*
G75*
G02X82178459Y-47290000I-23944J127900D01*
G01*
X82398324Y-47085931D02*
G75*
G02X82403600Y-47087848I1753J-3394D01*
G01*
X82202118Y-48594454D02*
X82213338Y-48414687D01*
X81623881Y-48266755D02*
G75*
G02X81654943Y-48288111I-153725J-256857D01*
G01*
X82241288Y-47475097D02*
G75*
G02X82226270Y-47465622I11760J35280D01*
G01*
X82873565Y-41573127D02*
X82884247Y-41688579D01*
X82818049Y-45785581D02*
G75*
G02X82841000Y-45766963I86599J-83299D01*
G01*
X82894263Y-41524867D02*
G75*
G02X82913354Y-41518851I32121J-68630D01*
G01*
X82763145Y-45902145D02*
G75*
G02X82751203Y-45867151I29654J29654D01*
G01*
X82689742Y-46690000D02*
X82712552Y-46855000D01*
X82823889Y-45719101D02*
G75*
G02X82813441Y-45716509I-1182J17585D01*
G01*
X82743085Y-46487660D02*
G75*
G02X82764311Y-46432212I266342J-70172D01*
G01*
X82751203Y-45867151D02*
G75*
G02X82766206Y-45791638I558190J-71657D01*
G01*
X82873565Y-41573128D02*
G75*
G02X82882942Y-41534947I63727J4591D01*
G01*
X82819557Y-46415433D02*
G75*
G02X82790306Y-46418916I-20915J51087D01*
G01*
X82727233Y-46574035D02*
G75*
G02X82743085Y-46487660I574256J-60746D01*
G01*
X82712552Y-46855000D02*
X82718884Y-46690000D01*
X80914922Y-48357934D02*
G75*
G02X80917297Y-48372493I-58910J-17083D01*
G01*
X82785402Y-45837346D02*
G75*
G02X82798625Y-45810400I133364J-48730D01*
G01*
X82840999Y-45686771D02*
G75*
G02X82838999Y-45703455I-70575J0D01*
G01*
X83009904Y-41563296D02*
G75*
G02X83018777Y-41608882I-156676J-54153D01*
G01*
X82781000Y-45862217D02*
G75*
G02X82779769Y-45883211I-179650J0D01*
G01*
X82859558Y-45643600D02*
G75*
G02X82871000Y-45640000I11441J-16379D01*
G01*
X80917297Y-48372492D02*
G75*
G02X80916174Y-48389219I-77559J-3195D01*
G01*
X82991748Y-41537076D02*
G75*
G02X83009904Y-41563297I-37770J-45550D01*
G01*
X82906585Y-46287128D02*
G75*
G02X82921148Y-46274418I23877J-12659D01*
G01*
X82669144Y-46270000D02*
X82669965Y-46379714D01*
X82681120Y-46608982D02*
X82689742Y-46690000D01*
X82931879Y-41898310D02*
G75*
G02X82921916Y-41879602I70711J49666D01*
G01*
X82775755Y-45897782D02*
G75*
G02X82769842Y-45903498I-10077J4506D01*
G01*
X82895106Y-45654869D02*
G75*
G02X82899103Y-45688950I-44863J-22536D01*
G01*
X82849812Y-45653740D02*
G75*
G02X82859558Y-45643601I30491J-19557D01*
G01*
X82779769Y-45883211D02*
G75*
G02X82775755Y-45897782I-49668J5844D01*
G01*
X82882943Y-41534947D02*
G75*
G02X82894263Y-41524867I22565J-13946D01*
G01*
X82943412Y-41905284D02*
G75*
G02X82931879Y-41898309I2158J16591D01*
G01*
X82669965Y-46379714D02*
X82674283Y-46498563D01*
X82843236Y-45668887D02*
G75*
G02X82849812Y-45653739I49997J-12704D01*
G01*
X82979502Y-41887093D02*
G75*
G02X82958200Y-41902198I-109903J132427D01*
G01*
X82790170Y-45723747D02*
G75*
G02X82813441Y-45716509I14782J-6497D01*
G01*
X82871000Y-45640001D02*
G75*
G02X82895107Y-45654869I0J-26977D01*
G01*
X82996902Y-41862932D02*
G75*
G02X82979503Y-41887093I-55243J21438D01*
G01*
X82921916Y-41879602D02*
G75*
G02X82900920Y-41803885I383049J146989D01*
G01*
X83021000Y-41694826D02*
X83018777Y-41608882D01*
X82841000Y-45686771D02*
G75*
G02X82843236Y-45668888I72622J0D01*
G01*
X81541276Y-48233368D02*
G75*
G02X81538301Y-48206597I103524J25056D01*
G01*
X82838999Y-45703455D02*
G75*
G02X82832904Y-45714799I-24864J6049D01*
G01*
X82896174Y-46369165D02*
G75*
G02X82860359Y-46394810I-190839J228679D01*
G01*
X81551404Y-48266063D02*
G75*
G02X81541276Y-48233368I254360J96708D01*
G01*
X82884247Y-41688579D02*
X82900920Y-41803885D01*
X82764312Y-46432213D02*
G75*
G02X82790306Y-46418916I22223J-11389D01*
G01*
X83009891Y-41819623D02*
G75*
G02X82996903Y-41862932I-280722J60588D01*
G01*
X82903687Y-46349804D02*
G75*
G02X82900870Y-46310522I308370J41857D01*
G01*
X82832904Y-45714799D02*
G75*
G02X82823888Y-45719102I-9923J9195D01*
G01*
X82769843Y-45903498D02*
G75*
G02X82763145Y-45902146I-2331J5720D01*
G01*
X83018272Y-41762787D02*
X83021000Y-41694826D01*
X82860359Y-46394809D02*
G75*
G02X82819557Y-46415433I-149971J246034D01*
G01*
X82780999Y-45862217D02*
G75*
G02X82785401Y-45837346I72468J0D01*
G01*
X81571711Y-48324205D02*
X81551403Y-48266063D01*
X82878467Y-45732741D02*
G75*
G02X82841000Y-45766963I-111758J84736D01*
G01*
X80916174Y-48389219D02*
G75*
G02X80911493Y-48405625I-81923J14503D01*
G01*
X83018272Y-41762786D02*
G75*
G02X83009891Y-41819623I-433052J34818D01*
G01*
X82674283Y-46498563D02*
X82681120Y-46608982D01*
X82900871Y-46310522D02*
G75*
G02X82906586Y-46287128I49071J407D01*
G01*
X82961030Y-41521316D02*
G75*
G02X82991748Y-41537076I-20171J-77132D01*
G01*
X82958201Y-41902198D02*
G75*
G02X82943412Y-41905284I-11826J19691D01*
G01*
X82798624Y-45810400D02*
G75*
G02X82818048Y-45785581I131035J-82538D01*
G01*
X82899103Y-45688951D02*
G75*
G02X82878466Y-45732742I-113883J26910D01*
G01*
X82903687Y-46349804D02*
G75*
G02X82896173Y-46369164I-21262J-2886D01*
G01*
X82718884Y-46690000D02*
X82727234Y-46574035D01*
X80895139Y-48409890D02*
X80893368Y-48387500D01*
X88849425Y-47624760D02*
G75*
G02X88860161Y-47622257I7565J-8171D01*
G01*
X82251304Y-47181463D02*
G75*
G02X82256000Y-47170000I36809J-8385D01*
G01*
X80893697Y-48366615D02*
G75*
G02X80897019Y-48352215I48061J-3503D01*
G01*
X82291667Y-47191188D02*
G75*
G02X82281357Y-47197717I-21926J23220D01*
G01*
X88961000Y-47740000D02*
G75*
G02X88949243Y-47760986I-24609J0D01*
G01*
X82264069Y-47158517D02*
G75*
G02X82272980Y-47148813I72445J-57579D01*
G01*
X80897020Y-48352215D02*
G75*
G02X80902559Y-48346739I9061J-3626D01*
G01*
X82181000Y-47545000D02*
G75*
G02X82169524Y-47535814I31888J51596D01*
G01*
X88860161Y-47622257D02*
G75*
G02X88864185Y-47629864I-1716J-5775D01*
G01*
X82159812Y-47478293D02*
G75*
G02X82169548Y-47472149I20667J-21963D01*
G01*
X82159812Y-47523613D02*
G75*
G02X82153199Y-47510397I58590J37581D01*
G01*
X82181000Y-47470001D02*
G75*
G02X82192441Y-47473601I0J-19978D01*
G01*
X88834544Y-47729003D02*
G75*
G02X88810984Y-47708134I126634J166697D01*
G01*
X88921985Y-47712206D02*
G75*
G02X88942432Y-47718813I-14919J-81123D01*
G01*
X80904847Y-48418126D02*
G75*
G02X80899379Y-48418643I-2948J2003D01*
G01*
X80909125Y-48348126D02*
G75*
G02X80914922Y-48357934I-16182J-16181D01*
G01*
X82202187Y-47544356D02*
G75*
G02X82192389Y-47548239I-9792J10405D01*
G01*
X82208801Y-47533320D02*
G75*
G02X82202187Y-47544356I-22800J6165D01*
G01*
X82153199Y-47510397D02*
G75*
G02X82151000Y-47498230I32560J12167D01*
G01*
X82281448Y-47141966D02*
G75*
G02X82287770Y-47140000I6322J-9181D01*
G01*
X82298567Y-47181447D02*
G75*
G02X82291667Y-47191188I-27765J12355D01*
G01*
X82301000Y-47170000D02*
G75*
G02X82298568Y-47181447I-28156J0D01*
G01*
X82292828Y-47142235D02*
G75*
G02X82297113Y-47148813I-17993J-16403D01*
G01*
X80893368Y-48387500D02*
G75*
G02X80893698Y-48366615I183292J7549D01*
G01*
X88942432Y-47718813D02*
G75*
G02X88956242Y-47728538I-21353J-44990D01*
G01*
X88897790Y-47710001D02*
G75*
G02X88921985Y-47712207I0J-133766D01*
G01*
X88897790Y-47710000D02*
G75*
G02X88869946Y-47707509I0J156840D01*
G01*
X82258581Y-47197652D02*
G75*
G02X82252238Y-47191188I5398J11642D01*
G01*
X82169548Y-47472149D02*
G75*
G02X82181000Y-47470000I11452J-29446D01*
G01*
X80902558Y-48346738D02*
G75*
G02X80909125Y-48348125I2219J-5735D01*
G01*
X82936746Y-41517492D02*
G75*
G02X82961029Y-41521316I-7006J-123474D01*
G01*
X87968490Y-47143491D02*
G75*
G02X87970540Y-47164271I-95368J-19898D01*
G01*
X82169524Y-47535814D02*
G75*
G02X82159812Y-47523613I54759J53554D01*
G01*
X82202187Y-47483739D02*
G75*
G02X82208763Y-47498888I-43421J-27852D01*
G01*
X82210999Y-47516771D02*
G75*
G02X82208801Y-47533320I-63399J0D01*
G01*
X82208764Y-47498887D02*
G75*
G02X82211000Y-47516771I-70387J-17884D01*
G01*
X82281357Y-47197716D02*
G75*
G02X82269229Y-47200000I-12128J31060D01*
G01*
X88864185Y-47629864D02*
X88851848Y-47665000D01*
X80911493Y-48405626D02*
G75*
G02X80904846Y-48418126I-60948J24390D01*
G01*
X88879295Y-47756304D02*
G75*
G02X88834543Y-47729002I111138J232508D01*
G01*
X82766206Y-45791637D02*
G75*
G02X82790171Y-45723747I465246J-126054D01*
G01*
X88801628Y-47690799D02*
G75*
G02X88803960Y-47673896I23871J5319D01*
G01*
X82297113Y-47148813D02*
G75*
G02X82300029Y-47158515I-37659J-16607D01*
G01*
X88869946Y-47707509D02*
G75*
G02X88853878Y-47699210I5462J30280D01*
G01*
X80899379Y-48418643D02*
G75*
G02X80895139Y-48409890I10479J10479D01*
G01*
X82153297Y-47487459D02*
G75*
G02X82159812Y-47478293I26122J-11671D01*
G01*
X88956242Y-47728538D02*
G75*
G02X88961000Y-47740000I-11429J-11463D01*
G01*
X88810985Y-47708134D02*
G75*
G02X88801628Y-47690800I25957J25204D01*
G01*
X87962052Y-47122997D02*
G75*
G02X87968490Y-47143491I-100257J-42755D01*
G01*
X88818043Y-47654957D02*
X88849426Y-47624760D01*
X82287770Y-47140000D02*
G75*
G02X82292829Y-47142234I0J-6846D01*
G01*
X82255999Y-47170000D02*
G75*
G02X82264069Y-47158517I101250J-62576D01*
G01*
X82192441Y-47473600D02*
G75*
G02X82202187Y-47483739I-20745J-29697D01*
G01*
X82252237Y-47191188D02*
G75*
G02X82251304Y-47181463I14224J6272D01*
G01*
X88853878Y-47699210D02*
G75*
G02X88848034Y-47685154I13621J13906D01*
G01*
X88803959Y-47673896D02*
G75*
G02X88818043Y-47654957I71450J-38426D01*
G01*
X88920920Y-47767659D02*
G75*
G02X88879296Y-47756304I10465J120330D01*
G01*
X88949243Y-47760987D02*
G75*
G02X88920920Y-47767659I-24293J39669D01*
G01*
X87952461Y-47105789D02*
G75*
G02X87962052Y-47122997I-76513J-53927D01*
G01*
X88848034Y-47685154D02*
G75*
G02X88851848Y-47665000I57488J-443D01*
G01*
X82913354Y-41518851D02*
G75*
G02X82936746Y-41517491I17596J-100800D01*
G01*
X82269229Y-47200000D02*
G75*
G02X82258581Y-47197652I0J25313D01*
G01*
X82192389Y-47548238D02*
G75*
G02X82181000Y-47545000I10J21682D01*
G01*
X87705094Y-46759641D02*
G75*
G02X87686008Y-46799199I-160225J52920D01*
G01*
X87635438Y-46771833D02*
G75*
G02X87632174Y-46777512I-4580J-1145D01*
G01*
X87614302Y-46679715D02*
X87630244Y-46634211D01*
X87940999Y-47095000D02*
G75*
G02X87952460Y-47105789I-20659J-33428D01*
G01*
X87355999Y-46720000D02*
G75*
G02X87364069Y-46708517I101250J-62576D01*
G01*
X87918981Y-47130425D02*
G75*
G02X87912524Y-47101669I60806J28756D01*
G01*
X87655714Y-46513643D02*
X87675662Y-46399572D01*
X87381357Y-46747716D02*
G75*
G02X87369229Y-46750000I-12128J31060D01*
G01*
X87940999Y-47170001D02*
G75*
G02X87918980Y-47130426I288383J186367D01*
G01*
X87580999Y-46825000D02*
G75*
G02X87583834Y-46807778I53734J-1D01*
G01*
X87587213Y-46709495D02*
G75*
G02X87599869Y-46697500I40802J-30375D01*
G01*
X87369229Y-46750000D02*
G75*
G02X87358581Y-46747652I0J25313D01*
G01*
X87675662Y-46399572D02*
G75*
G02X87698112Y-46392103I13423J-2873D01*
G01*
X87358581Y-46747652D02*
G75*
G02X87352238Y-46741188I5398J11642D01*
G01*
X87970540Y-47164271D02*
X87969590Y-47192845D01*
X87590702Y-46858135D02*
G75*
G02X87581000Y-46825000I51730J33135D01*
G01*
X85727938Y-40960000D02*
X85735301Y-41148182D01*
X87387770Y-46690000D02*
G75*
G02X87392829Y-46692234I0J-6846D01*
G01*
X87644822Y-46577078D02*
X87655714Y-46513643D01*
X87629703Y-46762987D02*
G75*
G02X87635437Y-46771834I-10044J-12791D01*
G01*
X87644821Y-46577078D02*
G75*
G02X87630244Y-46634211I-640652J133034D01*
G01*
X87698112Y-46392103D02*
G75*
G02X87718711Y-46432974I-39938J-45756D01*
G01*
X82300029Y-47158514D02*
G75*
G02X82301000Y-47170000I-67489J-11487D01*
G01*
X87397113Y-46698813D02*
G75*
G02X87400029Y-46708515I-37659J-16607D01*
G01*
X87401000Y-46720000D02*
G75*
G02X87398568Y-46731447I-28156J0D01*
G01*
X87912524Y-47101670D02*
G75*
G02X87921770Y-47090996I10783J1D01*
G01*
X85731012Y-41532571D02*
X85719653Y-41695000D01*
X87718633Y-46706673D02*
G75*
G02X87705093Y-46759641I-391447J71850D01*
G01*
X87391667Y-46741188D02*
G75*
G02X87381357Y-46747717I-21926J23220D01*
G01*
X87392828Y-46692235D02*
G75*
G02X87397113Y-46698813I-17993J-16403D01*
G01*
X87352237Y-46741188D02*
G75*
G02X87351304Y-46731463I14224J6272D01*
G01*
X87614303Y-46679715D02*
G75*
G02X87599869Y-46697500I-35695J14218D01*
G01*
X87726181Y-46644297D02*
G75*
G02X87718633Y-46706673I-513535J30498D01*
G01*
X87584563Y-46721657D02*
G75*
G02X87587213Y-46709496I14749J3154D01*
G01*
X85735301Y-41148182D02*
X85736245Y-41344547D01*
X85736245Y-41344547D02*
X85731012Y-41532571D01*
X87727001Y-46575865D02*
G75*
G02X87726181Y-46644297I-722497J-25573D01*
G01*
X85704693Y-40555000D02*
X85727938Y-40960000D01*
X87372980Y-46698813D02*
G75*
G02X87381448Y-46691967I48696J-51569D01*
G01*
X85681916Y-40949242D02*
X85704693Y-40555000D01*
X87592015Y-46793085D02*
G75*
G02X87604195Y-46783173I30791J-25399D01*
G01*
X87604196Y-46783173D02*
G75*
G02X87618500Y-46779541I14689J-27872D01*
G01*
X87632174Y-46777512D02*
G75*
G02X87618500Y-46779541I-14303J49289D01*
G01*
X87381448Y-46691966D02*
G75*
G02X87387770Y-46690000I6322J-9181D01*
G01*
X87629703Y-46762986D02*
X87611000Y-46749541D01*
X87965020Y-47198073D02*
G75*
G02X87958081Y-47195283I-1312J6762D01*
G01*
X87398567Y-46731447D02*
G75*
G02X87391667Y-46741188I-27765J12355D01*
G01*
X85046496Y-43643070D02*
X85350348Y-42670501D01*
X87921770Y-47090996D02*
G75*
G02X87941000Y-47095000I4100J-28484D01*
G01*
X82150999Y-47498230D02*
G75*
G02X82153296Y-47487459I26406J0D01*
G01*
X87613812Y-46867367D02*
G75*
G02X87590702Y-46858135I-5103J20766D01*
G01*
X87583834Y-46807778D02*
G75*
G02X87592015Y-46793084I44071J-14912D01*
G01*
X87591975Y-46734673D02*
G75*
G02X87584562Y-46721658I16815J18197D01*
G01*
X85008360Y-43761140D02*
X85046496Y-43643070D01*
X87351304Y-46731463D02*
G75*
G02X87356000Y-46720000I36809J-8385D01*
G01*
X87958081Y-47195283D02*
X87941000Y-47170000D01*
X87364069Y-46708517D02*
G75*
G02X87372980Y-46698813I72445J-57579D01*
G01*
X87610999Y-46749542D02*
G75*
G02X87591975Y-46734672I80378J122442D01*
G01*
X87969590Y-47192845D02*
G75*
G02X87965020Y-47198073I-5647J325D01*
G01*
X82272980Y-47148813D02*
G75*
G02X82281448Y-47141967I48696J-51569D01*
G01*
X87400029Y-46708514D02*
G75*
G02X87401000Y-46720000I-67489J-11487D01*
G01*
X87718711Y-46432974D02*
X87727000Y-46575866D01*
X87648140Y-46847302D02*
G75*
G02X87613812Y-46867368I-51028J47898D01*
G01*
X87686008Y-46799198D02*
G75*
G02X87648140Y-46847301I-295119J193368D01*
G01*
X84343484Y-44872711D02*
G75*
G02X84325706Y-44860938I8728J32488D01*
G01*
X83674312Y-45769742D02*
G75*
G02X83622094Y-45785146I-76362J162645D01*
G01*
X84361658Y-44869479D02*
G75*
G02X84343484Y-44872712I-12534J17761D01*
G01*
X84472674Y-42259573D02*
G75*
G02X84426661Y-42215442I29459J76768D01*
G01*
X84250637Y-41635000D02*
X84303026Y-41859146D01*
X84313015Y-42110312D02*
X84260343Y-41905986D01*
X83942609Y-44080349D02*
X83949341Y-43864585D01*
X84581078Y-43823825D02*
X84591091Y-43407617D01*
X84408661Y-42346503D02*
G75*
G02X84412357Y-42323674I56493J2569D01*
G01*
X84411219Y-42291767D02*
G75*
G02X84416759Y-42295746I-58J-5928D01*
G01*
X84558785Y-42341545D02*
X84742275Y-42773609D01*
X83958499Y-43859670D02*
G75*
G02X83967128Y-43868059I-14543J-23589D01*
G01*
X83974390Y-43882032D02*
G75*
G02X83979332Y-43898926I-87632J-34806D01*
G01*
X84002949Y-44062634D02*
X84101279Y-44361944D01*
X84207036Y-41423949D02*
X84250637Y-41635000D01*
X84498323Y-44477215D02*
X84549209Y-44153788D01*
X83934423Y-44936613D02*
X83936000Y-44630399D01*
X84439267Y-42438936D02*
G75*
G02X84423431Y-42409277I157133J102958D01*
G01*
X83929621Y-45207168D02*
X83934423Y-44936613D01*
X84904886Y-43198585D02*
G75*
G02X84941000Y-43406880I-582639J-208295D01*
G01*
X84002949Y-44062634D02*
G75*
G02X83981000Y-43916318I476697J146316D01*
G01*
X84439567Y-44754660D02*
G75*
G02X84387961Y-44847324I-188608J44338D01*
G01*
X84369183Y-42282684D02*
X84313015Y-42110312D01*
X84974680Y-43604093D02*
X85008360Y-43761140D01*
X83785342Y-45679589D02*
G75*
G02X83723104Y-45738157I-681724J662084D01*
G01*
X83827984Y-45631656D02*
G75*
G02X83785342Y-45679588I-569171J463426D01*
G01*
X84101279Y-44361944D02*
X84212500Y-44657819D01*
X84298820Y-44823377D02*
G75*
G02X84212500Y-44657819I794531J519541D01*
G01*
X84412856Y-42376833D02*
G75*
G02X84408662Y-42346503I162350J37903D01*
G01*
X84565677Y-42987711D02*
X84514265Y-42626499D01*
X84223104Y-41696484D02*
X84190684Y-41457904D01*
X84190684Y-41457904D02*
G75*
G02X84195802Y-41422748I64511J8560D01*
G01*
X84298820Y-44823377D02*
X84325706Y-44860938D01*
X84416759Y-42295745D02*
G75*
G02X84417419Y-42306777I-19189J-6684D01*
G01*
X84387961Y-44847325D02*
G75*
G02X84361658Y-44869479I-142514J142515D01*
G01*
X84402127Y-42294303D02*
G75*
G02X84411218Y-42291768I8928J-14445D01*
G01*
X83979333Y-43898926D02*
G75*
G02X83981000Y-43916318I-89884J-17392D01*
G01*
X83922961Y-45436115D02*
G75*
G02X83914286Y-45492088I-234901J7747D01*
G01*
X84402128Y-42294304D02*
G75*
G02X84369183Y-42282684I-11792J19080D01*
G01*
X83936000Y-44630399D02*
X83937613Y-44330486D01*
X83967128Y-43868059D02*
G75*
G02X83974390Y-43882032I-65149J-42734D01*
G01*
X84950893Y-43481380D02*
X84961784Y-43541020D01*
X84742275Y-42773609D02*
X84904886Y-43198585D01*
X84303026Y-41859146D02*
X84364565Y-42057625D01*
X83922961Y-45436115D02*
X83929621Y-45207168D01*
X84472674Y-42259574D02*
G75*
G02X84558785Y-42341545I-55427J-144441D01*
G01*
X84942802Y-43430982D02*
G75*
G02X84941000Y-43406880I160296J24102D01*
G01*
X84439568Y-44754661D02*
X84498323Y-44477215D01*
X85526459Y-42014899D02*
X85627451Y-41484904D01*
X84549209Y-44153788D02*
X84581078Y-43823825D01*
X84942801Y-43430982D02*
X84950893Y-43481380D01*
X83723104Y-45738157D02*
G75*
G02X83674311Y-45769742I-140187J163081D01*
G01*
X85681915Y-40949242D02*
G75*
G02X85627451Y-41484904I-6163840J356117D01*
G01*
X84417419Y-42306777D02*
G75*
G02X84412357Y-42323674I-114410J25064D01*
G01*
X85350348Y-42670501D02*
X85526459Y-42014899D01*
X83949340Y-43864584D02*
G75*
G02X83958500Y-43859669I6006J-200D01*
G01*
X84260343Y-41905986D02*
X84223104Y-41696484D01*
X83827984Y-45631657D02*
X83867452Y-45578965D01*
X84195803Y-41422749D02*
G75*
G02X84207036Y-41423949I5421J-2427D01*
G01*
X84961784Y-43541020D02*
X84974680Y-43604093D01*
X84364565Y-42057625D02*
X84426661Y-42215442D01*
X84591091Y-43407617D02*
X84565677Y-42987711D01*
X84439267Y-42438935D02*
G75*
G02X84514265Y-42626499I-425955J-279096D01*
G01*
X83937613Y-44330486D02*
X83942609Y-44080349D01*
X82444233Y-46941504D02*
G75*
G02X82438496Y-46919687I37289J21467D01*
G01*
X82600947Y-43014083D02*
X82575058Y-42943891D01*
X82653615Y-43047761D02*
X82705409Y-43152060D01*
X82923300Y-43944088D02*
X82923364Y-44286019D01*
X82575058Y-42943891D02*
X82555038Y-42885075D01*
X83069075Y-45205000D02*
X83093032Y-45270384D01*
X82555038Y-42885075D02*
G75*
G02X82558699Y-42880000I3661J1217D01*
G01*
X82444231Y-46941503D02*
G75*
G02X82455366Y-46977159I-74286J-42765D01*
G01*
X83622093Y-45785146D02*
G75*
G02X83550168Y-45790000I-71924J530427D01*
G01*
X82892837Y-43677410D02*
G75*
G02X82923300Y-43944088I-1732266J-332953D01*
G01*
X82467066Y-47190178D02*
G75*
G02X82457533Y-47200023I-9508J-331D01*
G01*
X83149031Y-45419372D02*
G75*
G02X83111615Y-45325000I714196J337758D01*
G01*
X82514436Y-45568180D02*
X82569793Y-45269222D01*
X84423431Y-42409277D02*
G75*
G02X84412856Y-42376833I183459J77744D01*
G01*
X82931468Y-44760150D02*
G75*
G02X82918949Y-44564047I1673812J205304D01*
G01*
X82476687Y-45909428D02*
X82514436Y-45568180D01*
X83199716Y-45512566D02*
G75*
G02X83149031Y-45419373I800295J495642D01*
G01*
X83093032Y-45270384D02*
X83111615Y-45325000D01*
X83043864Y-45139641D02*
X83069075Y-45205000D01*
X83391663Y-45748705D02*
G75*
G02X83348507Y-45707500I237718J292179D01*
G01*
X82923364Y-44286019D02*
X82918949Y-44564047D01*
X83265519Y-45607580D02*
G75*
G02X83199716Y-45512566I894000J689444D01*
G01*
X82566839Y-42884819D02*
X82607692Y-42959918D01*
X82799151Y-44187682D02*
G75*
G02X82744455Y-44594457I-3837250J308901D01*
G01*
X82438496Y-46919687D02*
X82440286Y-46750942D01*
X82607692Y-42959918D02*
X82653615Y-43047761D01*
X82634464Y-43097500D02*
X82600947Y-43014083D01*
X82824086Y-43430414D02*
G75*
G02X82892838Y-43677410I-1475928J-543895D01*
G01*
X82452223Y-46330000D02*
X82476687Y-45909428D01*
X82444414Y-46556144D02*
X82452223Y-46330000D01*
X83021364Y-45085000D02*
X83043864Y-45139641D01*
X83433173Y-45773343D02*
G75*
G02X83391663Y-45748705I62256J152176D01*
G01*
X82710640Y-43303985D02*
X82672078Y-43193912D01*
X82963863Y-44921905D02*
G75*
G02X82931468Y-44760150I1051433J294694D01*
G01*
X82440286Y-46750942D02*
X82444414Y-46556144D01*
X82558700Y-42880000D02*
G75*
G02X82566839Y-42884819I-1J-9285D01*
G01*
X83482355Y-45786036D02*
G75*
G02X83433174Y-45773343I21867J186362D01*
G01*
X83550168Y-45790001D02*
G75*
G02X83482355Y-45786036I0J581901D01*
G01*
X82467067Y-47190178D02*
X82462371Y-47081223D01*
X83867452Y-45578965D02*
X83898719Y-45529208D01*
X82744455Y-44594456D02*
G75*
G02X82647775Y-44980000I-3328521J629768D01*
G01*
X83914286Y-45492088D02*
G75*
G02X83898719Y-45529208I-158479J44638D01*
G01*
X82443583Y-47180179D02*
X82453154Y-47197491D01*
X82569793Y-45269222D02*
X82647775Y-44980000D01*
X82808563Y-43804974D02*
G75*
G02X82799151Y-44187681I-3434264J-107007D01*
G01*
X82744548Y-43410568D02*
X82710640Y-43303985D01*
X83265520Y-45607580D02*
X83348507Y-45707500D01*
X82767319Y-43495001D02*
G75*
G02X82808563Y-43804975I-1506707J-358207D01*
G01*
X82462371Y-47081223D02*
X82455366Y-46977159D01*
X83021364Y-45085000D02*
G75*
G02X82963863Y-44921905I1210932J518611D01*
G01*
X82457532Y-47200023D02*
G75*
G02X82453154Y-47197491I14J5075D01*
G01*
X85329856Y-43590693D02*
X85267602Y-43866573D01*
X87098759Y-46572205D02*
G75*
G02X87092187Y-46586782I-47200J12509D01*
G01*
X85562613Y-42607219D02*
X85403689Y-43277695D01*
X87115548Y-46513424D02*
G75*
G02X87124531Y-46510000I8983J-10073D01*
G01*
X87379033Y-45459786D02*
X87462067Y-45355000D01*
X85322434Y-44212551D02*
G75*
G02X85267326Y-44230000I-55108J78296D01*
G01*
X85782218Y-43406130D02*
X85806915Y-43509907D01*
X85685436Y-41983673D02*
X85639967Y-42250359D01*
X86636337Y-44410000D02*
X86665796Y-44180384D01*
X87413276Y-46891188D02*
G75*
G02X87404221Y-46881441I19563J27252D01*
G01*
X86695159Y-44012429D02*
X86722159Y-43905261D01*
X87432499Y-45654197D02*
X87416782Y-45748563D01*
X86741909Y-43903102D02*
G75*
G02X86785736Y-44041775I-320270J-177480D01*
G01*
X86259690Y-44803285D02*
G75*
G02X86146675Y-44625278I621874J519701D01*
G01*
X85267602Y-43866573D02*
X85216661Y-44101642D01*
X85773477Y-43360000D02*
X85782218Y-43406130D01*
X85762483Y-43285000D02*
X85773477Y-43360000D01*
X86546822Y-44748002D02*
G75*
G02X86473002Y-44830297I-225296J127837D01*
G01*
X87398567Y-45834487D02*
G75*
G02X87380603Y-45895000I-533520J125464D01*
G01*
X87379033Y-45459786D02*
G75*
G02X87256576Y-45600385I-1573723J1247042D01*
G01*
X85601145Y-43651659D02*
X85658523Y-43518719D01*
X85241658Y-44225488D02*
G75*
G02X85224147Y-44212540I13044J35955D01*
G01*
X85837598Y-43633149D02*
X85871868Y-43765000D01*
X85728064Y-43360000D02*
X85762483Y-43285000D01*
X85224147Y-44212540D02*
G75*
G02X85214139Y-44189725I43275J32585D01*
G01*
X85424975Y-44058019D02*
X85539662Y-43795000D01*
X85403689Y-43277695D02*
X85329856Y-43590693D01*
X87102736Y-46537781D02*
G75*
G02X87107912Y-46523219I54122J-11034D01*
G01*
X85719653Y-41695000D02*
X85685436Y-41983673D01*
X86826364Y-44776410D02*
X86822058Y-45253684D01*
X86665796Y-44180384D02*
X86695159Y-44012429D01*
X85424975Y-44058019D02*
G75*
G02X85368838Y-44163575I-774572J344228D01*
G01*
X87442790Y-46900001D02*
G75*
G02X87426818Y-46897751I0J57819D01*
G01*
X87299551Y-46166241D02*
G75*
G02X87263073Y-46282918I-1017359J254030D01*
G01*
X85267326Y-44230000D02*
G75*
G02X85241658Y-44225488I0J75265D01*
G01*
X86785736Y-44041775D02*
X86812708Y-44367052D01*
X86930662Y-45912060D02*
X87093281Y-45762881D01*
X87416782Y-45748563D02*
X87398568Y-45834488D01*
X87263072Y-46282918D02*
G75*
G02X87212615Y-46397089I-1066002J402877D01*
G01*
X87334736Y-47255011D02*
G75*
G02X87324273Y-47253274I-4017J8183D01*
G01*
X86722159Y-43905260D02*
G75*
G02X86741910Y-43903102I10328J-3063D01*
G01*
X86930662Y-45912060D02*
G75*
G02X86863300Y-45948091I-108798J122420D01*
G01*
X85368837Y-44163574D02*
G75*
G02X85322434Y-44212551I-144586J90519D01*
G01*
X85214140Y-44189725D02*
G75*
G02X85211000Y-44155196I188312J34529D01*
G01*
X86380999Y-44860000D02*
G75*
G02X86259690Y-44803285I0J158093D01*
G01*
X85871868Y-43765000D02*
X86025515Y-44307435D01*
X85539662Y-43795000D02*
X85601145Y-43651659D01*
X85210999Y-44155195D02*
G75*
G02X85216661Y-44101642I256115J-1D01*
G01*
X86829830Y-45932018D02*
G75*
G02X86814185Y-45867930I168152J75004D01*
G01*
X85639967Y-42250359D02*
X85562613Y-42607219D01*
X86812708Y-44367052D02*
X86826364Y-44776410D01*
X86811299Y-45717664D02*
X86814185Y-45867930D01*
X85706942Y-43407236D02*
X85728064Y-43360000D01*
X85806915Y-43509907D02*
X85837598Y-43633149D01*
X86928941Y-46998888D02*
G75*
G02X86937722Y-46992322I20636J-18441D01*
G01*
X86937653Y-47032762D02*
G75*
G02X86921000Y-47020255I-3630J12507D01*
G01*
X87361316Y-45951753D02*
X87338938Y-46024177D01*
X86937722Y-46992321D02*
G75*
G02X86948036Y-46990000I10314J-21757D01*
G01*
X87380603Y-45895000D02*
X87361316Y-45951753D01*
X86143747Y-41651182D02*
X86140793Y-41380000D01*
X85658523Y-43518719D02*
X85706942Y-43407236D01*
X86601457Y-44608961D02*
G75*
G02X86546822Y-44748001I-514627J121967D01*
G01*
X86146675Y-44625279D02*
G75*
G02X86025515Y-44307435I2172853J1010292D01*
G01*
X86863299Y-45948091D02*
G75*
G02X86829831Y-45932018I-7260J27763D01*
G01*
X87850112Y-44665271D02*
X87748219Y-44775474D01*
X87744469Y-44723682D02*
X87758538Y-44681950D01*
X86636336Y-44410000D02*
G75*
G02X86601457Y-44608961I-1697003J194962D01*
G01*
X86413743Y-42843057D02*
G75*
G02X86401551Y-42904706I-696082J105631D01*
G01*
X87758538Y-44681950D02*
X87775134Y-44635000D01*
X85698983Y-38600878D02*
G75*
G02X85942862Y-39391194I-5130018J-2015828D01*
G01*
X88042734Y-44378724D02*
G75*
G02X88009843Y-44455000I-491321J166636D01*
G01*
X87483975Y-43656882D02*
G75*
G02X87398500Y-43379137I2375577J883099D01*
G01*
X86377843Y-42953050D02*
G75*
G02X86344228Y-42909418I41015J66364D01*
G01*
X86774250Y-41674843D02*
G75*
G02X86972067Y-41439569I992622J-633791D01*
G01*
X87748220Y-44775473D02*
G75*
G02X87731451Y-44768386I-7026J6759D01*
G01*
X87951884Y-44543846D02*
X87850112Y-44665271D01*
X87454591Y-41132068D02*
G75*
G02X87555016Y-41110024I100541J-218253D01*
G01*
X85360862Y-37960001D02*
G75*
G02X85698982Y-38600878I-2704246J-1836364D01*
G01*
X87398501Y-43379137D02*
G75*
G02X87370087Y-43152702I954404J234760D01*
G01*
X87150256Y-42506024D02*
X87173543Y-42340000D01*
X87211683Y-43785134D02*
G75*
G02X87204106Y-43784978I-3756J1638D01*
G01*
X86972067Y-41439569D02*
G75*
G02X87113259Y-41326909I906079J-990738D01*
G01*
X87113259Y-41326909D02*
G75*
G02X87287399Y-41217650I1278549J-1844388D01*
G01*
X86423411Y-42766758D02*
G75*
G02X86492481Y-42356671I3166021J-322390D01*
G01*
X86388682Y-42949136D02*
G75*
G02X86377843Y-42953050I-6972J2342D01*
G01*
X86224749Y-42467523D02*
X86182641Y-42250107D01*
X87393322Y-41553725D02*
G75*
G02X87493516Y-41329991I2562271J-1013143D01*
G01*
X87747120Y-44166937D02*
G75*
G02X87796771Y-44263411I-290401J-210472D01*
G01*
X87294885Y-43198049D02*
X87257683Y-43349039D01*
X87370087Y-43152702D02*
X87368880Y-43087753D01*
X87811187Y-44499986D02*
G75*
G02X87775134Y-44635000I-811732J144433D01*
G01*
X87796771Y-44263412D02*
G75*
G02X87818453Y-44375174I-410554J-137632D01*
G01*
X86822058Y-45253684D02*
X86811299Y-45717664D01*
X87818453Y-44375173D02*
G75*
G02X87811187Y-44499986I-530335J-31743D01*
G01*
X87731451Y-44768386D02*
G75*
G02X87733048Y-44759109I34503J-1164D01*
G01*
X87134783Y-42868595D02*
X87137873Y-42671945D01*
X86492482Y-42356670D02*
G75*
G02X86611887Y-41986619I2371141J-560811D01*
G01*
X87229737Y-42070231D02*
X87304202Y-41804335D01*
X86152281Y-41897930D02*
X86143747Y-41651182D01*
X87204106Y-43784978D02*
X87186193Y-43735000D01*
X86282677Y-42697970D02*
X86224749Y-42467523D01*
X86423411Y-42766758D02*
X86413743Y-42843057D01*
X87093281Y-45762881D02*
X87256576Y-45600385D01*
X87493516Y-41329991D02*
X87550399Y-41213179D01*
X86401551Y-42904706D02*
X86388681Y-42949135D01*
X86091281Y-40320127D02*
G75*
G02X86140793Y-41380000I-11494025J-1068036D01*
G01*
X86182641Y-42250107D02*
X86165351Y-42105783D01*
X86165351Y-42105783D02*
X86152281Y-41897930D01*
X87354816Y-43072775D02*
G75*
G02X87363601Y-43072608I4453J-3073D01*
G01*
X88009843Y-44455001D02*
G75*
G02X87951884Y-44543846I-517034J273966D01*
G01*
X87257683Y-43349039D02*
X87229758Y-43514008D01*
X87294885Y-43198049D02*
G75*
G02X87334410Y-43104982I394106J-112448D01*
G01*
X87216502Y-43763524D02*
G75*
G02X87211683Y-43785134I-58073J1607D01*
G01*
X87186193Y-43735000D02*
G75*
G02X87173767Y-43675787I258454J85145D01*
G01*
X87140374Y-43135000D02*
X87134783Y-42868595D01*
X87218890Y-43660000D02*
G75*
G02X87229758Y-43514008I1311184J-24215D01*
G01*
X85942862Y-39391194D02*
G75*
G02X86091281Y-40320127I-6976481J-1590982D01*
G01*
X86473002Y-44830296D02*
G75*
G02X86381000Y-44860000I-92003J127628D01*
G01*
X87137873Y-42671945D02*
X87150256Y-42506024D01*
X87555015Y-41110025D02*
G75*
G02X87572383Y-41122827I10J-18168D01*
G01*
X87148732Y-43336892D02*
X87140374Y-43135000D01*
X87354817Y-43072774D02*
X87334410Y-43104982D01*
X87733048Y-44759109D02*
X87744469Y-44723682D01*
X87572383Y-41122828D02*
G75*
G02X87572794Y-41153083I-51200J-15825D01*
G01*
X87173543Y-42340000D02*
X87229737Y-42070231D01*
X86344228Y-42909418D02*
X86282677Y-42697970D01*
X87605800Y-43935386D02*
G75*
G02X87483975Y-43656882I2403772J1217370D01*
G01*
X87747119Y-44166937D02*
G75*
G02X87605800Y-43935386I1388416J1006272D01*
G01*
X88087865Y-46631453D02*
G75*
G02X88150846Y-46179437I4303774J-369267D01*
G01*
X88496796Y-46765000D02*
X88480450Y-47050000D01*
X88062901Y-43895605D02*
X88068816Y-44035000D01*
X88068802Y-44200926D02*
G75*
G02X88060947Y-44302059I-818678J12716D01*
G01*
X88646398Y-46915197D02*
X88496796Y-46765000D01*
X89195310Y-46693579D02*
X89145676Y-46947343D01*
X86657441Y-52068054D02*
X87100118Y-51933384D01*
X88646398Y-46915197D02*
G75*
G02X88716743Y-46993008I-768525J-765482D01*
G01*
X88953298Y-47452706D02*
X88874649Y-47259049D01*
X89489429Y-50335000D02*
X89600317Y-50035000D01*
X88846136Y-50965626D02*
X89127714Y-50697429D01*
X88327967Y-51375356D02*
G75*
G02X88114882Y-51497509I-944466J1400597D01*
G01*
X88049362Y-43751340D02*
X88062901Y-43895605D01*
X87218890Y-43660000D02*
X87216502Y-43763523D01*
X87982941Y-43402501D02*
X88004971Y-43495131D01*
X88403052Y-44325162D02*
G75*
G02X88416709Y-44727039I-2856185J-298234D01*
G01*
X87952492Y-43254413D02*
G75*
G02X87955116Y-43245884I9365J1787D01*
G01*
X87173767Y-43675787D02*
X87160503Y-43521625D01*
X89875019Y-48861319D02*
G75*
G02X89826563Y-49241628I-3641099J270685D01*
G01*
X88294084Y-47512648D02*
G75*
G02X88238165Y-47482579I20474J105104D01*
G01*
X89271842Y-46046644D02*
X89233603Y-46404542D01*
X88347074Y-47499107D02*
G75*
G02X88294084Y-47512648I-40781J49137D01*
G01*
X88830883Y-47164958D02*
G75*
G02X88874649Y-47259049I-925882J-487894D01*
G01*
X87100118Y-51933384D02*
X87322713Y-51852765D01*
X89145676Y-46947343D02*
X89086537Y-47160485D01*
X88130850Y-47278972D02*
G75*
G02X88079431Y-47003965I919109J314157D01*
G01*
X87952492Y-43254414D02*
X87965893Y-43322968D01*
X88372466Y-45172753D02*
G75*
G02X88270187Y-45655000I-5154462J841232D01*
G01*
X88079431Y-47003965D02*
G75*
G02X88087865Y-46631453I2958950J119359D01*
G01*
X89389282Y-46300822D02*
G75*
G02X89602892Y-46830992I-5210962J-2407658D01*
G01*
X89086537Y-47160485D02*
G75*
G02X89018997Y-47323925I-1054659J340151D01*
G01*
X88778256Y-47076261D02*
G75*
G02X88830883Y-47164958I-850758J-564738D01*
G01*
X88150846Y-46179437D02*
X88270187Y-45655000D01*
X88465040Y-47235621D02*
G75*
G02X88441467Y-47352797I-659854J71785D01*
G01*
X88416709Y-44727039D02*
G75*
G02X88372466Y-45172753I-3563912J128708D01*
G01*
X88182283Y-47403507D02*
G75*
G02X88130849Y-47278972I972178J474412D01*
G01*
X88330859Y-43975001D02*
G75*
G02X88403052Y-44325163I-1721571J-537460D01*
G01*
X87363601Y-43072608D02*
G75*
G02X87368880Y-43087753I-21277J-15908D01*
G01*
X88262889Y-43800308D02*
X88130635Y-43531802D01*
X89602893Y-46830992D02*
G75*
G02X89760913Y-47375871I-5265130J-1822298D01*
G01*
X88716743Y-46993008D02*
G75*
G02X88778257Y-47076261I-795659J-652250D01*
G01*
X88238165Y-47482579D02*
G75*
G02X88182284Y-47403507I215160J211337D01*
G01*
X86611886Y-41986619D02*
G75*
G02X86774250Y-41674843I1845584J-762961D01*
G01*
X88576023Y-51194139D02*
X88846136Y-50965626D01*
X89018997Y-47323925D02*
X88953298Y-47452706D01*
X87304202Y-41804335D02*
X87393323Y-41553726D01*
X87766487Y-51662605D02*
X88114882Y-51497509D01*
X87526756Y-51770095D02*
X87766487Y-51662605D01*
X88441467Y-47352797D02*
G75*
G02X88404259Y-47434298I-308628J91656D01*
G01*
X87160503Y-43521625D02*
X87148732Y-43336892D01*
X88068816Y-44035000D02*
X88068803Y-44200926D01*
X88060947Y-44302059D02*
G75*
G02X88042734Y-44378725I-416822J58527D01*
G01*
X87572794Y-41153082D02*
G75*
G02X87550399Y-41213179I-367741J102815D01*
G01*
X88327966Y-51375356D02*
X88576023Y-51194139D01*
X89875019Y-48861319D02*
X89891000Y-48430811D01*
X89389282Y-46300822D02*
X89271842Y-46046644D01*
X88130635Y-43531802D02*
X87983495Y-43250150D01*
X88404260Y-47434297D02*
G75*
G02X88347075Y-47499108I-235844J150459D01*
G01*
X88004971Y-43495131D02*
X88029620Y-43613821D01*
X89760913Y-47375871D02*
G75*
G02X89858459Y-47915734I-5080819J-1196783D01*
G01*
X87454592Y-41132068D02*
X87287399Y-41217650D01*
X88262890Y-43800307D02*
G75*
G02X88330859Y-43975000I-1240060J-583050D01*
G01*
X88029620Y-43613821D02*
X88049362Y-43751340D01*
X87965893Y-43322968D02*
X87982941Y-43402501D01*
X81616295Y-46289092D02*
G75*
G02X81578352Y-46100896I1201172J340098D01*
G01*
X80860791Y-49594072D02*
G75*
G02X80784090Y-49336768I2765497J964465D01*
G01*
X82083683Y-47854681D02*
X82110937Y-48235000D01*
X81692495Y-46514207D02*
X81861294Y-46930000D01*
X80719141Y-48520000D02*
X80716778Y-48827989D01*
X81606840Y-45319995D02*
X81574400Y-45442390D01*
X80990850Y-49909833D02*
G75*
G02X80860792Y-49594073I2794807J1335810D01*
G01*
X80907255Y-47602065D02*
G75*
G02X81114568Y-47169677I2787557J-1070629D01*
G01*
X81501353Y-47746584D02*
G75*
G02X81442451Y-47422822I1357866J414273D01*
G01*
X81750964Y-44978725D02*
X81665831Y-45159694D01*
X81558334Y-45859995D02*
X81578352Y-46100896D01*
X80776209Y-48051009D02*
G75*
G02X80907255Y-47602066I2773854J-566089D01*
G01*
X82110937Y-48235000D02*
X82116603Y-48406422D01*
X86657441Y-52068054D02*
G75*
G02X86249473Y-52155687I-1110961J4178568D01*
G01*
X85361000Y-52219959D02*
X85832159Y-52204086D01*
X83223907Y-51792173D02*
G75*
G02X82541000Y-51453280I2496124J5887489D01*
G01*
X89127714Y-50697429D02*
X89489429Y-50335000D01*
X81553067Y-45672785D02*
G75*
G02X81557856Y-45548717I1217618J15124D01*
G01*
X82254300Y-51279993D02*
X82541000Y-51453280D01*
X81350183Y-50469448D02*
G75*
G02X81150205Y-50195762I2178518J1801718D01*
G01*
X81944918Y-48468747D02*
X81851085Y-48353243D01*
X81553067Y-45672784D02*
X81558334Y-45859995D01*
X81960455Y-47211144D02*
G75*
G02X82034003Y-47516482I-3184454J-928588D01*
G01*
X82021427Y-51118776D02*
X82254300Y-51279993D01*
X87322713Y-51852765D02*
X87526756Y-51770095D01*
X83029282Y-43132305D02*
X82855252Y-42955000D01*
X81150204Y-50195762D02*
G75*
G02X80990849Y-49909833I2201498J1414324D01*
G01*
X83595012Y-43825000D02*
X83437310Y-43600000D01*
X81630832Y-48038158D02*
G75*
G02X81501353Y-47746584I1126359J674717D01*
G01*
X82380513Y-42273348D02*
G75*
G02X82393529Y-42153034I482332J8683D01*
G01*
X83914168Y-52031096D02*
G75*
G02X83223907Y-51792173I1414869J5204183D01*
G01*
X87955115Y-43245885D02*
G75*
G02X87983495Y-43250150I12615J-12614D01*
G01*
X88480450Y-47050000D02*
X88465040Y-47235621D01*
X85361000Y-52219959D02*
G75*
G02X84622914Y-52172457I1498J5781255D01*
G01*
X81442451Y-47422822D02*
G75*
G02X81440135Y-47006266I3571152J228144D01*
G01*
X82427331Y-41845361D02*
X82326240Y-41916947D01*
X83570937Y-43600000D02*
X83595012Y-43825000D01*
X89233603Y-46404542D02*
X89195310Y-46693579D01*
X81606840Y-45319995D02*
G75*
G02X81665831Y-45159694I1524377J-469966D01*
G01*
X82118396Y-48547887D02*
X82117796Y-48665190D01*
X82116603Y-48406422D02*
X82118396Y-48547887D01*
X89826563Y-49241628D02*
G75*
G02X89738035Y-49617562I-3654621J662223D01*
G01*
X84622914Y-52172457D02*
G75*
G02X83914168Y-52031097I674528J5229334D01*
G01*
X81602543Y-50748664D02*
X81813215Y-50948587D01*
X86249474Y-52155687D02*
G75*
G02X85832159Y-52204086I-714004J4333047D01*
G01*
X82026943Y-48568788D02*
X81944918Y-48468747D01*
X82097960Y-48654749D02*
X82026943Y-48568788D01*
X82110793Y-48668233D02*
G75*
G02X82097960Y-48654749I90872J99332D01*
G01*
X81557857Y-45548717D02*
G75*
G02X81574400Y-45442390I827962J-74373D01*
G01*
X81440135Y-47006266D02*
X81457601Y-46675000D01*
X89858460Y-47915734D02*
G75*
G02X89891000Y-48430811I-4060198J-515073D01*
G01*
X81851085Y-48353244D02*
G75*
G02X81630832Y-48038158I2124925J1719904D01*
G01*
X80737386Y-49090592D02*
G75*
G02X80716778Y-48827989I2473794J326246D01*
G01*
X80719142Y-48520001D02*
G75*
G02X80776209Y-48051009I2945094J-120394D01*
G01*
X82034003Y-47516482D02*
X82083683Y-47854681D01*
X89600317Y-50035000D02*
X89738035Y-49617562D01*
X81602543Y-50748664D02*
G75*
G02X81350183Y-50469447I3051422J3011568D01*
G01*
X81114568Y-47169677D02*
G75*
G02X81398954Y-46750000I3218952J-1875066D01*
G01*
X81457601Y-46675000D02*
X81398954Y-46750000D01*
X81813215Y-50948587D02*
X82021427Y-51118776D01*
X81692495Y-46514207D02*
G75*
G02X81616295Y-46289091I2190235J866832D01*
G01*
X82117796Y-48665189D02*
G75*
G02X82110793Y-48668233I-4181J41D01*
G01*
X80784090Y-49336769D02*
G75*
G02X80737386Y-49090592I2158104J536951D01*
G01*
X81861294Y-46930000D02*
G75*
G02X81960454Y-47211144I-2487705J-1035478D01*
G01*
X81839812Y-44812101D02*
G75*
G02X81869003Y-44808004I16140J-8954D01*
G01*
X82379936Y-43111656D02*
X82422691Y-43225000D01*
X82255388Y-42819001D02*
X82288474Y-42889405D01*
X83348922Y-43485894D02*
X83201279Y-43317719D01*
X82393529Y-42153034D02*
G75*
G02X82437970Y-42030273I559189J-133009D01*
G01*
X82109945Y-45760626D02*
X82102750Y-45815424D01*
X82128714Y-45564992D02*
X82119237Y-45669594D01*
X82180847Y-45063693D02*
X82137016Y-45460000D01*
X82135611Y-42353200D02*
G75*
G02X82168314Y-42147255I691668J-4265D01*
G01*
X81869891Y-44894300D02*
X81873714Y-44820136D01*
X82026021Y-45860494D02*
G75*
G02X81927157Y-45731382I301843J333534D01*
G01*
X82572816Y-41807623D02*
X82589568Y-41775316D01*
X82396874Y-42397900D02*
G75*
G02X82380513Y-42273348I542488J134613D01*
G01*
X82616488Y-42715205D02*
G75*
G02X82498627Y-42584089I1439444J1412450D01*
G01*
X82081236Y-45895529D02*
G75*
G02X82065993Y-45894448I-6834J11635D01*
G01*
X82855252Y-42955000D02*
X82616488Y-42715206D01*
X82065993Y-45894448D02*
X82026020Y-45860494D01*
X82498627Y-42584090D02*
G75*
G02X82433341Y-42489198I518638J426731D01*
G01*
X82522912Y-44003270D02*
G75*
G02X82513918Y-44094190I-544838J7994D01*
G01*
X82513919Y-44094190D02*
G75*
G02X82491455Y-44158901I-223045J41173D01*
G01*
X82515762Y-41898078D02*
X82548315Y-41848937D01*
X83550983Y-42983100D02*
X83553643Y-43337089D01*
X82251458Y-44709228D02*
G75*
G02X82341600Y-44419468I2655584J-667234D01*
G01*
X83348922Y-43485894D02*
G75*
G02X83437310Y-43600000I-1149953J-982055D01*
G01*
X82288474Y-42889405D02*
X82332917Y-42994363D01*
X82476687Y-43385129D02*
G75*
G02X82504910Y-43502622I-889203J-275729D01*
G01*
X82433341Y-42489197D02*
G75*
G02X82396875Y-42397899I313438J178123D01*
G01*
X82422691Y-43225000D02*
X82476687Y-43385128D01*
X81863321Y-44981632D02*
X81869891Y-44894300D01*
X82491455Y-44158900D02*
G75*
G02X82446062Y-44230000I-452641J238942D01*
G01*
X82091433Y-45881055D02*
G75*
G02X82081237Y-45895529I-21047J3998D01*
G01*
X83201279Y-43317719D02*
X83029282Y-43132305D01*
X84699703Y-41320001D02*
G75*
G02X84673867Y-41063370I1399928J270551D01*
G01*
X82518495Y-43626391D02*
X82523591Y-43810000D01*
X82165120Y-42582834D02*
G75*
G02X82135611Y-42353199I837155J224289D01*
G01*
X83732676Y-41043640D02*
G75*
G02X83767580Y-40735000I1875548J-55811D01*
G01*
X82180848Y-45063693D02*
G75*
G02X82251458Y-44709228I3610529J-534963D01*
G01*
X85324839Y-41032933D02*
X85210151Y-40793967D01*
X82102750Y-45815424D02*
X82091433Y-45881055D01*
X84296660Y-39842500D02*
X84303450Y-39741843D01*
X84312085Y-40356739D02*
G75*
G02X84290706Y-40095751I2596413J344058D01*
G01*
X82260562Y-41980049D02*
G75*
G02X82326240Y-41916947I329689J-277414D01*
G01*
X82255388Y-42819000D02*
G75*
G02X82165119Y-42582834I1093684J553366D01*
G01*
X83559169Y-42641108D02*
X83550983Y-42983100D01*
X82168314Y-42147255D02*
G75*
G02X82260562Y-41980049I468616J-149488D01*
G01*
X82523591Y-43810000D02*
X82522912Y-44003270D01*
X82529907Y-41784382D02*
G75*
G02X82586246Y-41770000I56339J-103158D01*
G01*
X83553643Y-43337089D02*
X83570937Y-43600000D01*
X82332917Y-42994363D02*
X82379936Y-43111656D01*
X82137016Y-45460000D02*
X82128714Y-45564992D01*
X82119237Y-45669594D02*
X82109945Y-45760626D01*
X82504910Y-43502621D02*
G75*
G02X82518495Y-43626391I-998611J-172240D01*
G01*
X82529907Y-41784382D02*
X82427331Y-41845361D01*
X81927157Y-45731382D02*
G75*
G02X81864804Y-45558067I650818J332017D01*
G01*
X81839752Y-45341526D02*
G75*
G02X81852933Y-45082684I2082496J23713D01*
G01*
X83559169Y-42641108D02*
G75*
G02X83581903Y-42475000I856993J-32682D01*
G01*
X81864804Y-45558067D02*
G75*
G02X81839753Y-45341526I1026908J228520D01*
G01*
X81839813Y-44812101D02*
X81750964Y-44978725D01*
X82586246Y-41770000D02*
G75*
G02X82589568Y-41775316I0J-3696D01*
G01*
X81869004Y-44808005D02*
G75*
G02X81873714Y-44820136I-11413J-11411D01*
G01*
X82437970Y-42030273D02*
G75*
G02X82515762Y-41898078I971650J-482797D01*
G01*
X82341600Y-44419467D02*
G75*
G02X82446062Y-44230000I692791J-258435D01*
G01*
X82548315Y-41848937D02*
X82572816Y-41807623D01*
X81852933Y-45082684D02*
X81863321Y-44981632D01*
X80862527Y-48892178D02*
X80861459Y-48855528D01*
X80912578Y-48597374D02*
G75*
G02X80908908Y-48617547I-101080J7965D01*
G01*
X80880182Y-48755280D02*
G75*
G02X80892055Y-48728028I174796J-59942D01*
G01*
X80914230Y-48565000D02*
G75*
G02X80923502Y-48461904I780388J-18219D01*
G01*
X80870257Y-48789418D02*
G75*
G02X80880182Y-48755280I364638J-87502D01*
G01*
X80845549Y-49034658D02*
G75*
G02X80848471Y-48991892I112568J13791D01*
G01*
X80891384Y-49347671D02*
X80887445Y-49280999D01*
X80835247Y-48692022D02*
X80833368Y-48662500D01*
X80920540Y-48887500D02*
X80919582Y-48858133D01*
X80879178Y-48585173D02*
G75*
G02X80899064Y-48617500I-63634J-61425D01*
G01*
X80952022Y-49497759D02*
G75*
G02X80961141Y-49438568I231276J-5335D01*
G01*
X80955321Y-49380179D02*
G75*
G02X80919966Y-49384776I-35759J136744D01*
G01*
X80861459Y-48855528D02*
G75*
G02X80863534Y-48824700I209429J1385D01*
G01*
X80958316Y-49553996D02*
G75*
G02X80952021Y-49497759I204586J51372D01*
G01*
X80999468Y-49381456D02*
G75*
G02X80985321Y-49397679I-125751J95380D01*
G01*
X80981000Y-49585000D02*
G75*
G02X80958317Y-49553996I26848J43442D01*
G01*
X80981000Y-49585000D02*
G75*
G02X80992498Y-49595968I-20211J-32702D01*
G01*
X80850867Y-48707500D02*
G75*
G02X80845024Y-48712604I-7952J3208D01*
G01*
X87270533Y-51803297D02*
G75*
G02X87091342Y-51873970I-745517J1627753D01*
G01*
X87308227Y-51786716D02*
X87270533Y-51803297D01*
X89089181Y-50636800D02*
X88883985Y-50840530D01*
X89277999Y-50431143D02*
X89089181Y-50636800D01*
X80987017Y-49372732D02*
G75*
G02X80998087Y-49374533I3192J-15305D01*
G01*
X80914943Y-48852504D02*
G75*
G02X80919582Y-48858133I-1518J-5977D01*
G01*
X80901123Y-49374873D02*
G75*
G02X80891384Y-49347671I47012J32175D01*
G01*
X80894555Y-48670000D02*
G75*
G02X80903491Y-48674647I0J-10916D01*
G01*
X80856327Y-48582851D02*
G75*
G02X80879179Y-48585174I10052J-14677D01*
G01*
X80920540Y-48887501D02*
G75*
G02X80918740Y-48907592I-102986J-901D01*
G01*
X80902962Y-48704219D02*
G75*
G02X80892055Y-48728028I-197784J76204D01*
G01*
X84993389Y-52144514D02*
G75*
G02X84337799Y-52058586I383021J5466165D01*
G01*
X80862287Y-49060797D02*
G75*
G02X80845549Y-49034657I18850J30499D01*
G01*
X88883985Y-50840530D02*
X88706000Y-50995351D01*
X89458090Y-50159890D02*
G75*
G02X89398459Y-50275000I-521936J197380D01*
G01*
X86577698Y-52017221D02*
X86294364Y-52076155D01*
X81814309Y-50831195D02*
X81765194Y-50789479D01*
X87537037Y-51693088D02*
X87463046Y-51728133D01*
X88055661Y-51452975D02*
G75*
G02X87952471Y-51501446I-302763J510475D01*
G01*
X88265158Y-51325216D02*
X88055661Y-51452975D01*
X82373434Y-51252238D02*
X82198669Y-51135105D01*
X80863535Y-48824700D02*
G75*
G02X80870257Y-48789418I376589J-53474D01*
G01*
X80837867Y-48610658D02*
G75*
G02X80856326Y-48582852I43620J-8927D01*
G01*
X86294364Y-52076156D02*
G75*
G02X85657394Y-52151037I-878888J4729560D01*
G01*
X80891000Y-48880001D02*
G75*
G02X80875531Y-48901469I-219484J141841D01*
G01*
X80998086Y-49374534D02*
G75*
G02X80999468Y-49381456I-2375J-4073D01*
G01*
X80992498Y-49595967D02*
G75*
G02X81002187Y-49613792I-81386J-55784D01*
G01*
X80845024Y-48712604D02*
G75*
G02X80839486Y-48709750I-1156J4558D01*
G01*
X80912995Y-48924578D02*
G75*
G02X80904402Y-48936009I-35751J17930D01*
G01*
X80887693Y-49146480D02*
G75*
G02X80889749Y-49123195I228326J-8423D01*
G01*
X81002187Y-49613792D02*
G75*
G02X81008775Y-49635163I-107844J-44949D01*
G01*
X80889505Y-49105675D02*
G75*
G02X80889749Y-49123195I-56606J-9553D01*
G01*
X80874593Y-49071783D02*
G75*
G02X80884099Y-49087620I-57752J-45437D01*
G01*
X80839485Y-48709751D02*
G75*
G02X80835247Y-48692022I62550J24325D01*
G01*
X80884099Y-49087621D02*
G75*
G02X80889504Y-49105675I-69903J-30764D01*
G01*
X80906779Y-48685898D02*
G75*
G02X80902962Y-48704220I-57837J2492D01*
G01*
X80912577Y-48597374D02*
X80914230Y-48565000D01*
X80886515Y-49233523D02*
X80886656Y-49186795D01*
X80961141Y-49438568D02*
G75*
G02X80985321Y-49397679I91705J-26636D01*
G01*
X80918740Y-48907592D02*
G75*
G02X80912995Y-48924579I-63703J12082D01*
G01*
X80904401Y-48936009D02*
G75*
G02X80894209Y-48940000I-10192J11019D01*
G01*
X80848471Y-48991892D02*
G75*
G02X80866990Y-48953619I107542J-28419D01*
G01*
X80907903Y-48855088D02*
G75*
G02X80914942Y-48852504I5406J-3848D01*
G01*
X80887445Y-49280999D02*
X80886515Y-49233523D01*
X80862287Y-49060797D02*
G75*
G02X80874593Y-49071784I-24864J-40230D01*
G01*
X80908908Y-48617547D02*
G75*
G02X80904095Y-48621121I-4753J1373D01*
G01*
X89580126Y-47277791D02*
X89635013Y-47535641D01*
X89699571Y-48844277D02*
G75*
G02X89709040Y-48815271I225678J-57626D01*
G01*
X89398459Y-50275000D02*
G75*
G02X89277999Y-50431143I-1303565J881132D01*
G01*
X81025290Y-49725058D02*
G75*
G02X81011000Y-49656979I155016J68079D01*
G01*
X82198669Y-51135105D02*
X82054519Y-51030738D01*
X83422487Y-51784031D02*
X83099692Y-51647563D01*
X82054519Y-51030738D02*
X81936413Y-50935627D01*
X82803133Y-51507628D02*
G75*
G02X82586000Y-51386748I1191078J2394939D01*
G01*
X87343289Y-51772719D02*
X87308227Y-51786716D01*
X81228823Y-50113354D02*
G75*
G02X81188715Y-50068182I67370J100209D01*
G01*
X87893318Y-51524662D02*
X87807036Y-51562683D01*
X81452129Y-50443316D02*
X81269963Y-50208567D01*
X88595656Y-51085006D02*
X88552352Y-51121266D01*
X81104079Y-49897051D02*
X81025290Y-49725058D01*
X87399686Y-51756953D02*
G75*
G02X87385464Y-51760000I-14222J31671D01*
G01*
X87620930Y-51651516D02*
X87537037Y-51693088D01*
X81008776Y-49635163D02*
G75*
G02X81011000Y-49656979I-105886J-21816D01*
G01*
X87091342Y-51873970D02*
X86850949Y-51947597D01*
X89643027Y-49540829D02*
G75*
G02X89649395Y-49499621I432972J-45813D01*
G01*
X81252840Y-50142015D02*
G75*
G02X81253975Y-50150563I-16489J-6539D01*
G01*
X89738047Y-49111430D02*
G75*
G02X89740056Y-49141482I-92815J-21298D01*
G01*
X86850949Y-51947597D02*
X86577698Y-52017221D01*
X87372885Y-51762090D02*
X87343289Y-51772719D01*
X83726000Y-51896188D02*
X83422487Y-51784031D01*
X81247473Y-50131856D02*
G75*
G02X81252840Y-50142016I-43979J-29728D01*
G01*
X81872788Y-50881091D02*
X81814309Y-50831195D01*
X87952471Y-51501446D02*
X87893318Y-51524662D01*
X88706000Y-50995351D02*
X88647444Y-51042464D01*
X87463046Y-51728133D02*
X87399686Y-51756954D01*
X89399012Y-48463130D02*
G75*
G02X89393669Y-48449579I28498J19065D01*
G01*
X89704413Y-48949453D02*
G75*
G02X89700924Y-48972280I-131226J8377D01*
G01*
X81631803Y-50662270D02*
X81452129Y-50443316D01*
X89678104Y-49164640D02*
G75*
G02X89669879Y-49166809I-5608J4586D01*
G01*
X89676292Y-49050565D02*
X89670032Y-49084471D01*
X81239108Y-50121773D02*
G75*
G02X81247473Y-50131856I-47002J-47508D01*
G01*
X89684487Y-49018494D02*
X89676292Y-49050565D01*
X89728090Y-48768968D02*
G75*
G02X89734072Y-48766987I3858J-1629D01*
G01*
X89659409Y-49461943D02*
G75*
G02X89671295Y-49432057I253933J-83683D01*
G01*
X89684488Y-49018494D02*
G75*
G02X89693510Y-48993937I184968J-54026D01*
G01*
X84337800Y-52058586D02*
G75*
G02X83726000Y-51896188I873096J4522805D01*
G01*
X89540686Y-49927542D02*
X89458090Y-50159890D01*
X81228823Y-50113355D02*
G75*
G02X81239108Y-50121773I-39468J-58707D01*
G01*
X87807036Y-51562683D02*
X87711813Y-51606933D01*
X87372885Y-51762090D02*
G75*
G02X87385464Y-51760000I12579J-36810D01*
G01*
X81936413Y-50935627D02*
X81872788Y-50881091D01*
X81746000Y-50773581D02*
G75*
G02X81631803Y-50662270I544210J672554D01*
G01*
X81188715Y-50068182D02*
X81104079Y-49897051D01*
X88540999Y-51132541D02*
G75*
G02X88552352Y-51121266I74807J-63971D01*
G01*
X88540999Y-51132541D02*
G75*
G02X88474467Y-51191084I-238434J203896D01*
G01*
X89643027Y-49540828D02*
G75*
G02X89613998Y-49690376I-878718J92979D01*
G01*
X83099692Y-51647563D02*
X82803132Y-51507628D01*
X82586000Y-51386748D02*
X82373434Y-51252238D01*
X88474467Y-51191084D02*
X88265158Y-51325216D01*
X89613998Y-49690376D02*
X89540686Y-49927542D01*
X81269962Y-50208567D02*
G75*
G02X81253975Y-50150563I64103J48874D01*
G01*
X89746132Y-48748557D02*
G75*
G02X89733230Y-48704524I124921J60508D01*
G01*
X89755729Y-48888143D02*
G75*
G02X89750228Y-48888489I-2839J1230D01*
G01*
X87711813Y-51606933D02*
X87620930Y-51651516D01*
X89695699Y-49403027D02*
G75*
G02X89683318Y-49418568I-27849J9485D01*
G01*
X85657395Y-52151036D02*
G75*
G02X84993390Y-52144514I-277835J5517658D01*
G01*
X88647444Y-51042464D02*
X88595656Y-51085006D01*
X89649395Y-49499620D02*
G75*
G02X89659409Y-49461943I326353J-66572D01*
G01*
X81765194Y-50789479D02*
X81746000Y-50773581D01*
X89403412Y-48461956D02*
G75*
G02X89399012Y-48463131I-2400J163D01*
G01*
X89693676Y-48898419D02*
G75*
G02X89694358Y-48873320I160901J8192D01*
G01*
X89698600Y-48914208D02*
G75*
G02X89703773Y-48928845I-31111J-19227D01*
G01*
X89503278Y-46990000D02*
G75*
G02X89517736Y-47001537I0J-14828D01*
G01*
X89423876Y-48304187D02*
X89440497Y-48243741D01*
X89707038Y-48421251D02*
X89719365Y-48575889D01*
X89411619Y-48362406D02*
X89423876Y-48304187D01*
X89682289Y-47916344D02*
X89690728Y-48076841D01*
X89493468Y-47322809D02*
X89493847Y-47148564D01*
X89703773Y-48928845D02*
G75*
G02X89704413Y-48949453I-108048J-13669D01*
G01*
X89730357Y-49237740D02*
X89721416Y-49301391D01*
X89756856Y-48777030D02*
G75*
G02X89763621Y-48810025I-241896J-66785D01*
G01*
X89440497Y-48243741D02*
X89459340Y-48190399D01*
X89673973Y-47781763D02*
X89682289Y-47916344D01*
X89669878Y-49166809D02*
G75*
G02X89665115Y-49159648I2697J6959D01*
G01*
X89517736Y-47001537D02*
X89580126Y-47277791D01*
X89671296Y-49432058D02*
G75*
G02X89683318Y-49418568I28674J-13454D01*
G01*
X89496327Y-47989705D02*
G75*
G02X89483721Y-48103254I-1048490J58932D01*
G01*
X89698599Y-48914208D02*
G75*
G02X89693677Y-48898419I28283J17479D01*
G01*
X89750227Y-48888489D02*
G75*
G02X89745629Y-48874362I29332J17360D01*
G01*
X89765775Y-48842342D02*
G75*
G02X89762439Y-48868557I-106363J214D01*
G01*
X89721416Y-49301391D02*
X89709208Y-49357988D01*
X89727567Y-49107761D02*
G75*
G02X89738047Y-49111430I4084J-5136D01*
G01*
X89690728Y-48076841D02*
X89698242Y-48250000D01*
X89740056Y-49141482D02*
X89730357Y-49237740D01*
X89700924Y-48972279D02*
G75*
G02X89693510Y-48993937I-123396J30143D01*
G01*
X89742578Y-48835000D02*
X89738621Y-48774328D01*
X89666923Y-49115006D02*
G75*
G02X89670032Y-49084471I322602J-17423D01*
G01*
X89496471Y-47529792D02*
X89493468Y-47322809D01*
X89667955Y-47725000D02*
X89673973Y-47781763D01*
X89734072Y-48766987D02*
G75*
G02X89738621Y-48774328I-4703J-7994D01*
G01*
X89493847Y-47148564D02*
X89496088Y-46997069D01*
X89698242Y-48250000D02*
X89707038Y-48421251D01*
X89694359Y-48873320D02*
G75*
G02X89699571Y-48844277I202731J-21393D01*
G01*
X89483721Y-48103255D02*
G75*
G02X89459340Y-48190399I-414783J69064D01*
G01*
X89709208Y-49357988D02*
X89695699Y-49403028D01*
X89635013Y-47535641D02*
X89667955Y-47725000D01*
X89728089Y-48768968D02*
X89709040Y-48815271D01*
X89746132Y-48748558D02*
G75*
G02X89756857Y-48777030I-150911J-73098D01*
G01*
X89745629Y-48874362D02*
X89742578Y-48835000D01*
X89763620Y-48810024D02*
G75*
G02X89765774Y-48842342I-234322J-31842D01*
G01*
X89496088Y-46997069D02*
G75*
G02X89503278Y-46990000I7190J-122D01*
G01*
X89678104Y-49164640D02*
X89705635Y-49130005D01*
X89719365Y-48575889D02*
X89733230Y-48704524D01*
X89500494Y-47820524D02*
X89496471Y-47529792D01*
X89496328Y-47989705D02*
X89500494Y-47820524D01*
X89762439Y-48868558D02*
G75*
G02X89755728Y-48888144I-127085J32601D01*
G01*
X89666922Y-49115005D02*
X89665115Y-49159648D01*
X89705635Y-49130005D02*
G75*
G02X89727566Y-49107762I102780J-79403D01*
G01*
X88903759Y-48648614D02*
G75*
G02X88903551Y-48637018I22383J6202D01*
G01*
X89291408Y-48374100D02*
G75*
G02X89310649Y-48370000I19241J-43095D01*
G01*
X89115111Y-48495189D02*
G75*
G02X89131526Y-48490000I16415J-23369D01*
G01*
X89215999Y-48430001D02*
G75*
G02X89192996Y-48452967I-238090J215470D01*
G01*
X88983767Y-48541590D02*
X88938374Y-48599042D01*
X88736277Y-48269166D02*
G75*
G02X88726962Y-48277512I-22119J15316D01*
G01*
X88743253Y-48255562D02*
G75*
G02X88753158Y-48238418I51554J-18352D01*
G01*
X88854985Y-47864162D02*
G75*
G02X88844478Y-47840576I116532J66044D01*
G01*
X88949934Y-48646009D02*
G75*
G02X88923326Y-48661052I-99200J144413D01*
G01*
X88907527Y-47928929D02*
G75*
G02X88906722Y-47959104I-41074J-14003D01*
G01*
X89051117Y-48548737D02*
X89085251Y-48517963D01*
X89355505Y-48302500D02*
G75*
G02X89359576Y-48293382I14402J-962D01*
G01*
X88772072Y-48219355D02*
G75*
G02X88795984Y-48201480I136438J-157584D01*
G01*
X88888609Y-47903199D02*
G75*
G02X88907527Y-47928930I-31345J-42865D01*
G01*
X88743252Y-48255562D02*
G75*
G02X88736277Y-48269166I-54787J19503D01*
G01*
X89403413Y-48461956D02*
X89406494Y-48408108D01*
X89381000Y-48370000D02*
X89393669Y-48449579D01*
X88909172Y-48625489D02*
G75*
G02X88919752Y-48615869I35058J-27932D01*
G01*
X88821646Y-48187689D02*
X88852927Y-48172794D01*
X88726962Y-48277513D02*
G75*
G02X88716889Y-48279341I-7829J14470D01*
G01*
X89372585Y-48321767D02*
X89381000Y-48370000D01*
X89016366Y-48585191D02*
X89051117Y-48548737D01*
X89355505Y-48302500D02*
G75*
G02X89350783Y-48328316I-114820J7664D01*
G01*
X88940023Y-48125717D02*
X88981177Y-48101534D01*
X89168787Y-48472376D02*
G75*
G02X89146669Y-48486159I-125163J176216D01*
G01*
X88923326Y-48661051D02*
G75*
G02X88909559Y-48658560I-5087J11172D01*
G01*
X89364853Y-48294485D02*
G75*
G02X89372585Y-48321767I-156299J-59033D01*
G01*
X88938374Y-48599042D02*
G75*
G02X88919752Y-48615869I-62414J50354D01*
G01*
X89216000Y-48430001D02*
G75*
G02X89239755Y-48407040I183346J-165926D01*
G01*
X89146669Y-48486158D02*
G75*
G02X89131526Y-48490000I-15143J27921D01*
G01*
X88844479Y-47840576D02*
G75*
G02X88841000Y-47819193I63979J21383D01*
G01*
X89233675Y-48189615D02*
X89092721Y-48392308D01*
X88852927Y-48172794D02*
X88895054Y-48150651D01*
X88981177Y-48101534D02*
X89076354Y-48043815D01*
X88728960Y-48214181D02*
X88704674Y-48259752D01*
X88888609Y-47903199D02*
G75*
G02X88870393Y-47886242I62258J85144D01*
G01*
X88716889Y-48279340D02*
G75*
G02X88707510Y-48274903I2355J17110D01*
G01*
X88906722Y-47959104D02*
G75*
G02X88881201Y-48004735I-189972J76296D01*
G01*
X88909559Y-48658559D02*
G75*
G02X88903760Y-48648613I15980J15980D01*
G01*
X88881201Y-48004735D02*
X88811012Y-48096409D01*
X89406494Y-48408107D02*
G75*
G02X89411619Y-48362406I352508J-16394D01*
G01*
X89239755Y-48407039D02*
G75*
G02X89266201Y-48387625I155191J-183681D01*
G01*
X89266201Y-48387625D02*
G75*
G02X89291409Y-48374101I105671J-166696D01*
G01*
X89359576Y-48293382D02*
G75*
G02X89364853Y-48294485I2287J-2232D01*
G01*
X89016366Y-48585191D02*
G75*
G02X88982215Y-48620100I-399603J356765D01*
G01*
X88811012Y-48096409D02*
X88764581Y-48158578D01*
X88656355Y-47796474D02*
G75*
G02X88746102Y-47769350I124708J-250592D01*
G01*
X88707510Y-48274903D02*
G75*
G02X88704674Y-48259752I8782J9484D01*
G01*
X89155014Y-48116715D02*
X89233675Y-48189615D01*
X89092721Y-48392308D02*
X89036397Y-48471468D01*
X89085251Y-48517963D02*
X89115111Y-48495189D01*
X88728960Y-48214181D02*
G75*
G02X88764581Y-48158578I645155J-374098D01*
G01*
X88813845Y-47778502D02*
G75*
G02X88841000Y-47819193I-16909J-40691D01*
G01*
X88982214Y-48620100D02*
G75*
G02X88949934Y-48646009I-189844J203467D01*
G01*
X89076354Y-48043815D02*
X89155014Y-48116715D01*
X88895054Y-48150651D02*
X88940023Y-48125717D01*
X88903551Y-48637019D02*
G75*
G02X88909171Y-48625489I28689J-6849D01*
G01*
X88753158Y-48238418D02*
G75*
G02X88772072Y-48219356I135132J-115167D01*
G01*
X89192996Y-48452966D02*
G75*
G02X89168787Y-48472375I-178704J198103D01*
G01*
X89326396Y-48364870D02*
G75*
G02X89310649Y-48370000I-15747J21602D01*
G01*
X88746103Y-47769350D02*
G75*
G02X88813845Y-47778503I16634J-132141D01*
G01*
X89036397Y-48471468D02*
X88983767Y-48541590D01*
X89340470Y-48350173D02*
G75*
G02X89326396Y-48364870I-48077J31950D01*
G01*
X88292209Y-47675999D02*
X88311536Y-47687792D01*
X88104190Y-47700586D02*
G75*
G02X88081562Y-47694790I15399J107202D01*
G01*
X88501958Y-47499443D02*
G75*
G02X88446388Y-47571715I-714912J492194D01*
G01*
X88182440Y-47623180D02*
G75*
G02X88192187Y-47632118I-17182J-28523D01*
G01*
X88587290Y-47446463D02*
G75*
G02X88572530Y-47446761I-7975J29318D01*
G01*
X88562384Y-47473219D02*
G75*
G02X88556301Y-47456049I40250J23922D01*
G01*
X88380492Y-47640757D02*
G75*
G02X88319264Y-47687629I-261283J277877D01*
G01*
X88446388Y-47571715D02*
G75*
G02X88380491Y-47640757I-670788J574265D01*
G01*
X88081562Y-47694790D02*
G75*
G02X88066046Y-47686314I22057J58818D01*
G01*
X88795984Y-48201481D02*
G75*
G02X88821646Y-48187689I102095J-159194D01*
G01*
X88614155Y-47426573D02*
G75*
G02X88601909Y-47439361I-43749J29636D01*
G01*
X88601910Y-47439361D02*
G75*
G02X88587291Y-47446462I-26121J35174D01*
G01*
X88606670Y-47564727D02*
G75*
G02X88611083Y-47599760I-200066J-42997D01*
G01*
X88596064Y-47530018D02*
G75*
G02X88606670Y-47564728I-198753J-79704D01*
G01*
X89350783Y-48328316D02*
G75*
G02X89340470Y-48350172I-79651J24221D01*
G01*
X88580464Y-47501202D02*
G75*
G02X88596065Y-47530018I-117138J-82046D01*
G01*
X88562385Y-47473219D02*
X88580464Y-47501202D01*
X88155633Y-47614179D02*
G75*
G02X88155512Y-47607754I6492J3336D01*
G01*
X88627302Y-47381828D02*
G75*
G02X88629200Y-47385159I-709J-2611D01*
G01*
X88193415Y-47603027D02*
G75*
G02X88218262Y-47617173I-62680J-138980D01*
G01*
X88198748Y-47645486D02*
G75*
G02X88201000Y-47661250I-54066J-15765D01*
G01*
X88160943Y-47618562D02*
G75*
G02X88155633Y-47614180I2442J8367D01*
G01*
X88527112Y-47444846D02*
G75*
G02X88536815Y-47414070I347363J-92598D01*
G01*
X88171000Y-47620000D02*
G75*
G02X88182440Y-47623180I0J-22171D01*
G01*
X88192187Y-47632117D02*
G75*
G02X88198748Y-47645486I-35074J-25509D01*
G01*
X88200999Y-47661250D02*
G75*
G02X88195687Y-47677219I-26658J0D01*
G01*
X88195687Y-47677219D02*
G75*
G02X88180772Y-47690581I-40755J30489D01*
G01*
X88611083Y-47599760D02*
G75*
G02X88608024Y-47629441I-105621J-4114D01*
G01*
X88243965Y-47637684D02*
X88269102Y-47659115D01*
X88590563Y-47427222D02*
G75*
G02X88580779Y-47431790I-9784J8194D01*
G01*
X88629200Y-47385159D02*
X88622033Y-47410000D01*
X88319264Y-47687630D02*
G75*
G02X88311536Y-47687792I-4002J6497D01*
G01*
X88180772Y-47690581D02*
G75*
G02X88158198Y-47699498I-39579J67165D01*
G01*
X88158197Y-47699498D02*
G75*
G02X88130999Y-47702500I-27197J121688D01*
G01*
X88590563Y-47427221D02*
X88606915Y-47405895D01*
X88131000Y-47702501D02*
G75*
G02X88104190Y-47700585I-1J188552D01*
G01*
X88527113Y-47444846D02*
G75*
G02X88501959Y-47499443I-170457J45440D01*
G01*
X88160816Y-47600185D02*
G75*
G02X88172794Y-47596503I9463J-9463D01*
G01*
X88608024Y-47629441D02*
G75*
G02X88577311Y-47703722I-264872J66028D01*
G01*
X88622033Y-47410000D02*
G75*
G02X88614155Y-47426573I-58169J17494D01*
G01*
X88155512Y-47607753D02*
G75*
G02X88160816Y-47600184I24158J-11285D01*
G01*
X88560588Y-47448058D02*
G75*
G02X88572530Y-47446761I7843J-16597D01*
G01*
X88536815Y-47414070D02*
G75*
G02X88546661Y-47398000I44690J-16328D01*
G01*
X88360999Y-47980255D02*
G75*
G02X88362882Y-47968699I36407J0D01*
G01*
X88362882Y-47968699D02*
G75*
G02X88368318Y-47958888I29231J-9784D01*
G01*
X88427189Y-47970813D02*
G75*
G02X88377706Y-47992634I-115255J194341D01*
G01*
X88556301Y-47456049D02*
G75*
G02X88560588Y-47448057I7544J1099D01*
G01*
X88420721Y-47932671D02*
G75*
G02X88385914Y-47950000I-34807J26291D01*
G01*
X88576416Y-47852500D02*
G75*
G02X88656355Y-47796473I225897J-237265D01*
G01*
X88292209Y-47675999D02*
G75*
G02X88269102Y-47659115I174442J262994D01*
G01*
X88546661Y-47398001D02*
G75*
G02X88555562Y-47396658I5294J-4921D01*
G01*
X88606915Y-47405895D02*
X88623044Y-47383326D01*
X88502727Y-47819349D02*
X88420721Y-47932671D01*
X88218262Y-47617172D02*
G75*
G02X88243965Y-47637684I-152258J-217157D01*
G01*
X88870393Y-47886242D02*
G75*
G02X88854985Y-47864162I109817J93050D01*
G01*
X88497478Y-47921873D02*
G75*
G02X88427189Y-47970813I-370142J456667D01*
G01*
X88377707Y-47992635D02*
G75*
G02X88361000Y-47980255I-3767J12380D01*
G01*
X88572501Y-47426757D02*
G75*
G02X88563330Y-47405895I157977J81896D01*
G01*
X88580779Y-47431790D02*
G75*
G02X88572501Y-47426757I0J9324D01*
G01*
X88497479Y-47921873D02*
X88576416Y-47852500D01*
X88172794Y-47596503D02*
G75*
G02X88193415Y-47603026I-17364J-90749D01*
G01*
X88171000Y-47620000D02*
G75*
G02X88160943Y-47618562I0J35884D01*
G01*
X88368318Y-47958888D02*
G75*
G02X88376411Y-47952328I20165J-16605D01*
G01*
X88555562Y-47396658D02*
G75*
G02X88563330Y-47405895I-8805J-15289D01*
G01*
X87691613Y-46986206D02*
G75*
G02X87668800Y-46990000I-22813J66693D01*
G01*
X88577311Y-47703722D02*
X88502727Y-47819349D01*
X87736300Y-46939643D02*
G75*
G02X87728223Y-46958876I-49765J9586D01*
G01*
X87785565Y-47436126D02*
G75*
G02X87768638Y-47455042I-107169J78869D01*
G01*
X88130121Y-47631681D02*
G75*
G02X88104277Y-47650000I-25844J9070D01*
G01*
X87606219Y-47050940D02*
G75*
G02X87591999Y-47069363I-73834J42294D01*
G01*
X87764688Y-46909222D02*
X87796357Y-46939643D01*
X87871356Y-46990096D02*
G75*
G02X87881039Y-46996940I-39J-10327D01*
G01*
X87790766Y-47420463D02*
G75*
G02X87797173Y-47403328I26598J-181D01*
G01*
X87571052Y-47085437D02*
G75*
G02X87546316Y-47096487I-61152J103686D01*
G01*
X87479890Y-47133368D02*
G75*
G02X87516538Y-47109682I270790J-378783D01*
G01*
X87817444Y-46958927D02*
G75*
G02X87796357Y-46939643I205295J245664D01*
G01*
X87768637Y-47455042D02*
G75*
G02X87744397Y-47473862I-122408J132641D01*
G01*
X87845103Y-47234072D02*
G75*
G02X87859961Y-47230000I14858J-25072D01*
G01*
X87516538Y-47109682D02*
G75*
G02X87546316Y-47096487I74741J-128474D01*
G01*
X87895805Y-47162634D02*
G75*
G02X87888708Y-47199701I-165503J12474D01*
G01*
X87736300Y-46939643D02*
G75*
G02X87743493Y-46910627I278521J-53647D01*
G01*
X87442798Y-47162534D02*
G75*
G02X87479890Y-47133368I337431J-390951D01*
G01*
X87411018Y-47193211D02*
G75*
G02X87442798Y-47162535I291135J-269815D01*
G01*
X88001504Y-47261727D02*
X88061877Y-47390165D01*
X87821000Y-47282830D02*
G75*
G02X87823926Y-47262642I71105J0D01*
G01*
X87821000Y-47282830D02*
G75*
G02X87814936Y-47308192I-56070J0D01*
G01*
X88376411Y-47952327D02*
G75*
G02X88385914Y-47950000I9503J-18237D01*
G01*
X87610999Y-47032979D02*
G75*
G02X87615454Y-47016589I32378J0D01*
G01*
X87839160Y-46975236D02*
G75*
G02X87817444Y-46958927I145897J216881D01*
G01*
X87743494Y-46910627D02*
G75*
G02X87752055Y-46904285I8561J-2608D01*
G01*
X87744397Y-47473862D02*
G75*
G02X87715765Y-47489678I-126470J195127D01*
G01*
X88134161Y-47585833D02*
G75*
G02X88130121Y-47631681I-91933J-15002D01*
G01*
X87591999Y-47069363D02*
G75*
G02X87571052Y-47085438I-76200J77610D01*
G01*
X87382786Y-47221252D02*
X87411018Y-47193211D01*
X87615454Y-47016589D02*
G75*
G02X87627978Y-47002625I40648J-23858D01*
G01*
X87794562Y-47341979D02*
G75*
G02X87765442Y-47377656I-273966J193890D01*
G01*
X88087725Y-47651951D02*
G75*
G02X88104277Y-47650000I16552J-69222D01*
G01*
X87821849Y-47377830D02*
G75*
G02X87855932Y-47350133I250486J-273423D01*
G01*
X88112317Y-47506751D02*
G75*
G02X88134161Y-47585834I-354654J-140520D01*
G01*
X87832444Y-47245519D02*
G75*
G02X87845103Y-47234072I34537J-25471D01*
G01*
X88061877Y-47390165D02*
X88112316Y-47506750D01*
X87797173Y-47403328D02*
G75*
G02X87821849Y-47377830I224066J-192151D01*
G01*
X88066046Y-47686312D02*
G75*
G02X88061000Y-47676250I7510J10062D01*
G01*
X87656885Y-47512458D02*
G75*
G02X87644404Y-47501339I-2916J9291D01*
G01*
X87895121Y-47064130D02*
X87897461Y-47110096D01*
X87765443Y-47377655D02*
G75*
G02X87731000Y-47410000I-271185J254261D01*
G01*
X87876668Y-47222069D02*
G75*
G02X87859961Y-47230000I-16707J13632D01*
G01*
X87610999Y-47032979D02*
G75*
G02X87606219Y-47050941I-36136J0D01*
G01*
X88073713Y-47657711D02*
G75*
G02X88087726Y-47651952I25405J-41886D01*
G01*
X87715766Y-47489678D02*
G75*
G02X87656884Y-47512459I-204089J440023D01*
G01*
X87712471Y-46975208D02*
G75*
G02X87691613Y-46986207I-45466J60942D01*
G01*
X87627979Y-47002626D02*
G75*
G02X87646713Y-46993230I36013J-48433D01*
G01*
X88064324Y-47666237D02*
G75*
G02X88073712Y-47657711I26608J-19865D01*
G01*
X88623044Y-47383325D02*
G75*
G02X88627302Y-47381829I3215J-2344D01*
G01*
X87752055Y-46904285D02*
G75*
G02X87764688Y-46909222I0J-18630D01*
G01*
X87728224Y-46958876D02*
G75*
G02X87712471Y-46975208I-57689J39879D01*
G01*
X87823926Y-47262641D02*
G75*
G02X87832445Y-47245519I53025J-15702D01*
G01*
X87855932Y-47350133D02*
G75*
G02X87896252Y-47323827I311943J-434062D01*
G01*
X87814935Y-47308191D02*
G75*
G02X87794562Y-47341978I-240394J121924D01*
G01*
X87646713Y-46993229D02*
G75*
G02X87668800Y-46990000I22087J-73920D01*
G01*
X87896252Y-47323827D02*
X88001504Y-47261727D01*
X88061000Y-47676251D02*
G75*
G02X88064325Y-47666238I16737J1D01*
G01*
X87644404Y-47501338D02*
G75*
G02X87661493Y-47470628I55057J-10527D01*
G01*
X87897461Y-47110096D02*
G75*
G02X87895805Y-47162634I-601444J-7331D01*
G01*
X87871356Y-46990096D02*
G75*
G02X87858673Y-46986920I106J27335D01*
G01*
X87881040Y-46996940D02*
G75*
G02X87889190Y-47025385I-214849J-76956D01*
G01*
X87731000Y-47410000D02*
X87661493Y-47470628D01*
X87888707Y-47199701D02*
G75*
G02X87876668Y-47222070I-63973J20008D01*
G01*
X86987330Y-47011666D02*
G75*
G02X86937652Y-47032762I-112964J196971D01*
G01*
X87117606Y-46907500D02*
G75*
G02X87184296Y-46864329I126517J-122348D01*
G01*
X87400999Y-47125889D02*
G75*
G02X87398303Y-47135742I-19350J0D01*
G01*
X87387361Y-47152520D02*
G75*
G02X87372348Y-47171590I-217261J155604D01*
G01*
X87321362Y-47243799D02*
G75*
G02X87326519Y-47228243I61661J-11810D01*
G01*
X87426818Y-46897751D02*
G75*
G02X87413275Y-46891188I12189J42407D01*
G01*
X87400999Y-47125888D02*
G75*
G02X87404000Y-47115465I19605J-1D01*
G01*
X87373260Y-46838986D02*
G75*
G02X87401000Y-46870000I-3468J-31015D01*
G01*
X87442979Y-45565000D02*
X87432499Y-45654197D01*
X87184296Y-46864329D02*
G75*
G02X87284547Y-46839881I163249J-451645D01*
G01*
X87398303Y-47135742D02*
G75*
G02X87387361Y-47152520I-197620J116921D01*
G01*
X87889191Y-47025385D02*
G75*
G02X87895121Y-47064130I-307511J-66895D01*
G01*
X87436661Y-47070557D02*
X87417977Y-47094673D01*
X86923053Y-47008703D02*
G75*
G02X86928942Y-46998888I28624J-10502D01*
G01*
X87404221Y-46881440D02*
G75*
G02X87401000Y-46870000I18703J11440D01*
G01*
X87159779Y-46490470D02*
G75*
G02X87124531Y-46510000I-35248J22043D01*
G01*
X87338938Y-46024177D02*
X87317161Y-46099585D01*
X87049370Y-46614636D02*
G75*
G02X87071000Y-46600000I21629J-8663D01*
G01*
X87858673Y-46986920D02*
G75*
G02X87839160Y-46975236I101079J190947D01*
G01*
X87072589Y-46739591D02*
G75*
G02X87082335Y-46781976I-28974J-28975D01*
G01*
X87092187Y-46586782D02*
G75*
G02X87082440Y-46596533I-29284J19523D01*
G01*
X87101000Y-46555000D02*
G75*
G02X87102737Y-46537781I86201J-1D01*
G01*
X87491882Y-46996246D02*
G75*
G02X87458795Y-47045455I-170885J79169D01*
G01*
X87053065Y-46966615D02*
G75*
G02X86987330Y-47011666I-313438J386859D01*
G01*
X87101000Y-46555000D02*
G75*
G02X87098759Y-46572204I-67160J-1D01*
G01*
X87458795Y-47045455D02*
X87436661Y-47070557D01*
X87317161Y-46099585D02*
X87299551Y-46166241D01*
X87337961Y-47209674D02*
G75*
G02X87354571Y-47190715I151799J-116231D01*
G01*
X87356409Y-47242284D02*
G75*
G02X87334737Y-47255011I-95958J138584D01*
G01*
X87324273Y-47253274D02*
G75*
G02X87321362Y-47243799I7484J7484D01*
G01*
X87372348Y-47171590D02*
X87354571Y-47190715D01*
X87481222Y-46913710D02*
G75*
G02X87499790Y-46947898I-32546J-39813D01*
G01*
X87050051Y-46703179D02*
G75*
G02X87041874Y-46654750I150001J50231D01*
G01*
X86989776Y-46967756D02*
G75*
G02X86948036Y-46990000I-41740J28040D01*
G01*
X87462067Y-45355000D02*
X87442979Y-45565000D01*
X87382785Y-47221251D02*
G75*
G02X87356408Y-47242284I-168727J184552D01*
G01*
X87417977Y-47094673D02*
X87404000Y-47115465D01*
X87107911Y-46523219D02*
G75*
G02X87115548Y-46513424I30679J-16043D01*
G01*
X86921000Y-47020255D02*
G75*
G02X86923052Y-47008703I33538J0D01*
G01*
X87082335Y-46781976D02*
G75*
G02X87042203Y-46877565I-764968J264943D01*
G01*
X87499789Y-46947898D02*
G75*
G02X87491882Y-46996246I-90719J-9983D01*
G01*
X87326519Y-47228243D02*
G75*
G02X87337961Y-47209674I97130J-47041D01*
G01*
X87117606Y-46907501D02*
G75*
G02X87053065Y-46966615I-519339J502218D01*
G01*
X87790764Y-47420464D02*
G75*
G02X87785564Y-47436126I-26728J181D01*
G01*
X87284546Y-46839881D02*
G75*
G02X87373261Y-46838987I48021J-362901D01*
G01*
X87082440Y-46596533D02*
G75*
G02X87071000Y-46600000I-11441J17142D01*
G01*
X87041875Y-46654750D02*
G75*
G02X87049371Y-46614638I104683J1193D01*
G01*
X87042204Y-46877565D02*
G75*
G02X86989777Y-46967756I-719217J357736D01*
G01*
X87442790Y-46900001D02*
G75*
G02X87481221Y-46913710I0J-60721D01*
G01*
X87072589Y-46739591D02*
G75*
G02X87050051Y-46703179I66092J66092D01*
G01*
X87212615Y-46397089D02*
G75*
G02X87159779Y-46490470I-1087587J553727D01*
G01*
X84936697Y-37487987D02*
X84956715Y-37565128D01*
X84984305Y-37658653D02*
X85021417Y-37769798D01*
X85021417Y-37769798D02*
X85112838Y-38053505D01*
X85118461Y-37651398D02*
X84981505Y-37497111D01*
X84942943Y-37480000D02*
G75*
G02X84981505Y-37497111I0J-52009D01*
G01*
X85253924Y-37814398D02*
X85118461Y-37651398D01*
X84956715Y-37565128D02*
X84984305Y-37658653D01*
X85360863Y-37960000D02*
X85253924Y-37814398D01*
X84936697Y-37487987D02*
G75*
G02X84942943Y-37480000I6246J1551D01*
G01*
D11*
X33857000Y-148336000D02*
X33857000Y-26337000D01*
X161857400Y-148336000D02*
X33857000Y-148336000D01*
X161857400Y-148336000D02*
X161857400Y-26337000D01*
D17*
G04 #@! TO.C,U9*
X84064800Y-46010800D02*
X83810800Y-46010800D01*
X88789200Y-46010800D02*
X88535200Y-46010800D01*
X88789200Y-50989200D02*
X88789200Y-50735200D01*
X83810800Y-50989200D02*
X84064800Y-50989200D01*
X83810800Y-46010800D02*
X83810800Y-46264800D01*
X88789200Y-46264800D02*
X88789200Y-46010800D01*
X88535200Y-50989200D02*
X88789200Y-50989200D01*
X83810800Y-50735200D02*
X83810800Y-50989200D01*
D18*
G04 #@! TO.C,D50*
X134050000Y-125950000D02*
X134050000Y-121650000D01*
X134050000Y-121650000D02*
X126750000Y-121650000D01*
X134050000Y-125950000D02*
X126750000Y-125950000D01*
G04 #@! TO.C,D48*
X124010000Y-100110000D02*
X124010000Y-104410000D01*
X124010000Y-104410000D02*
X131310000Y-104410000D01*
X124010000Y-100110000D02*
X131310000Y-100110000D01*
G04 #@! TO.C,D3*
X56140000Y-33110000D02*
X56140000Y-28810000D01*
X56140000Y-28810000D02*
X48840000Y-28810000D01*
X56140000Y-33110000D02*
X48840000Y-33110000D01*
G04 #@! TO.C,D1*
X56120000Y-37770000D02*
X56120000Y-33470000D01*
X56120000Y-33470000D02*
X48820000Y-33470000D01*
X56120000Y-37770000D02*
X48820000Y-37770000D01*
G04 #@! TO.C,D63*
X87770000Y-63830000D02*
X90010000Y-63830000D01*
X90010000Y-63830000D02*
X90010000Y-59590000D01*
X90010000Y-59590000D02*
X87770000Y-59590000D01*
X87770000Y-59590000D02*
X87770000Y-63830000D01*
X88890000Y-64480000D02*
X88890000Y-63830000D01*
X88890000Y-58940000D02*
X88890000Y-59590000D01*
X87770000Y-63110000D02*
X90010000Y-63110000D01*
X87770000Y-62990000D02*
X90010000Y-62990000D01*
X87770000Y-63230000D02*
X90010000Y-63230000D01*
G04 #@! TO.C,R2*
X92815000Y-101837221D02*
X92815000Y-102162779D01*
X93835000Y-101837221D02*
X93835000Y-102162779D01*
G04 #@! TO.C,U41*
X80910000Y-66430000D02*
X80910000Y-60085000D01*
X86050000Y-65975000D02*
X86050000Y-60085000D01*
G04 #@! TO.C,U40*
X69705000Y-66425000D02*
X69705000Y-60080000D01*
X74845000Y-65970000D02*
X74845000Y-60080000D01*
G04 #@! TO.C,U39*
X75305000Y-66425000D02*
X75305000Y-60080000D01*
X80445000Y-65970000D02*
X80445000Y-60080000D01*
G04 #@! TO.C,U38*
X58505000Y-66425000D02*
X58505000Y-60080000D01*
X63645000Y-65970000D02*
X63645000Y-60080000D01*
G04 #@! TO.C,U37*
X64105000Y-66425000D02*
X64105000Y-60080000D01*
X69245000Y-65970000D02*
X69245000Y-60080000D01*
G04 #@! TO.C,R129*
X91635000Y-61162779D02*
X91635000Y-60837221D01*
X90615000Y-61162779D02*
X90615000Y-60837221D01*
D19*
G04 #@! TO.C,D4*
X42030000Y-82699200D02*
G75*
G03X42030000Y-82699200I-100000J0D01*
G01*
D18*
X41870000Y-81859200D02*
X43570000Y-81859200D01*
X43570000Y-81859200D02*
X43570000Y-78709200D01*
X41870000Y-81859200D02*
X41870000Y-78709200D01*
G04 #@! TO.C,U4*
X94002763Y-80568000D02*
G75*
G03X94002763Y-80568000I-107763J0D01*
G01*
X94149000Y-82346000D02*
X94149000Y-80314000D01*
X91609000Y-82346000D02*
X94149000Y-82346000D01*
X91609000Y-80314000D02*
X91609000Y-82346000D01*
X94149000Y-80314000D02*
X91609000Y-80314000D01*
G04 #@! TO.C,C41*
X115115000Y-86349621D02*
X115115000Y-86675179D01*
X116135000Y-86349621D02*
X116135000Y-86675179D01*
G04 #@! TO.C,C46*
X109062779Y-51490000D02*
X108737221Y-51490000D01*
X109062779Y-52510000D02*
X108737221Y-52510000D01*
G04 #@! TO.C,R6*
X39164800Y-122519221D02*
X39164800Y-122844779D01*
X40184800Y-122519221D02*
X40184800Y-122844779D01*
G04 #@! TO.C,SW1*
X52970000Y-144425000D02*
X37630000Y-144425000D01*
X52970000Y-135725000D02*
X52970000Y-144425000D01*
X36830000Y-135725000D02*
X52970000Y-135725000D01*
X36830000Y-143625000D02*
X36830000Y-135725000D01*
X37630000Y-144425000D02*
X36830000Y-143625000D01*
G04 #@! TO.C,U6*
X58507763Y-80568000D02*
G75*
G03X58507763Y-80568000I-107763J0D01*
G01*
X58654000Y-82346000D02*
X58654000Y-80314000D01*
X56114000Y-82346000D02*
X58654000Y-82346000D01*
X56114000Y-80314000D02*
X56114000Y-82346000D01*
X58654000Y-80314000D02*
X56114000Y-80314000D01*
D19*
G04 #@! TO.C,D51*
X55271000Y-81512200D02*
G75*
G03X55271000Y-81512200I-100000J0D01*
G01*
D18*
X55231000Y-82352200D02*
X53531000Y-82352200D01*
X53531000Y-82352200D02*
X53531000Y-85502200D01*
X55231000Y-82352200D02*
X55231000Y-85502200D01*
G04 #@! TO.C,U5*
X105892763Y-80568000D02*
G75*
G03X105892763Y-80568000I-107763J0D01*
G01*
X106039000Y-82346000D02*
X106039000Y-80314000D01*
X103499000Y-82346000D02*
X106039000Y-82346000D01*
X103499000Y-80314000D02*
X103499000Y-82346000D01*
X106039000Y-80314000D02*
X103499000Y-80314000D01*
G04 #@! TO.C,R15*
X45790000Y-86349621D02*
X45790000Y-86675179D01*
X46810000Y-86349621D02*
X46810000Y-86675179D01*
G04 #@! TO.C,U2*
X46847763Y-80568000D02*
G75*
G03X46847763Y-80568000I-107763J0D01*
G01*
X46994000Y-82346000D02*
X46994000Y-80314000D01*
X44454000Y-82346000D02*
X46994000Y-82346000D01*
X44454000Y-80314000D02*
X44454000Y-82346000D01*
X46994000Y-80314000D02*
X44454000Y-80314000D01*
G04 #@! TO.C,R128*
X112587221Y-59185000D02*
X112912779Y-59185000D01*
X112587221Y-58165000D02*
X112912779Y-58165000D01*
G04 #@! TO.C,R127*
X112587221Y-60985000D02*
X112912779Y-60985000D01*
X112587221Y-59965000D02*
X112912779Y-59965000D01*
G04 #@! TO.C,R126*
X142452600Y-112959021D02*
X142452600Y-113284579D01*
X143472600Y-112959021D02*
X143472600Y-113284579D01*
G04 #@! TO.C,R125*
X141897800Y-113284579D02*
X141897800Y-112959021D01*
X140877800Y-113284579D02*
X140877800Y-112959021D01*
G04 #@! TO.C,R124*
X138174000Y-91988421D02*
X138174000Y-92313979D01*
X139194000Y-91988421D02*
X139194000Y-92313979D01*
G04 #@! TO.C,R123*
X137619200Y-92339479D02*
X137619200Y-92013921D01*
X136599200Y-92339479D02*
X136599200Y-92013921D01*
G04 #@! TO.C,R122*
X116640000Y-86349621D02*
X116640000Y-86675179D01*
X117660000Y-86349621D02*
X117660000Y-86675179D01*
G04 #@! TO.C,R121*
X112333000Y-80579979D02*
X112333000Y-80254421D01*
X111313000Y-80579979D02*
X111313000Y-80254421D01*
G04 #@! TO.C,R120*
X107217400Y-80447936D02*
X107217400Y-84552064D01*
X110637400Y-80447936D02*
X110637400Y-84552064D01*
G04 #@! TO.C,R119*
X111313000Y-84597721D02*
X111313000Y-84923279D01*
X112333000Y-84597721D02*
X112333000Y-84923279D01*
G04 #@! TO.C,R118*
X81115000Y-86349621D02*
X81115000Y-86675179D01*
X82135000Y-86349621D02*
X82135000Y-86675179D01*
G04 #@! TO.C,R117*
X76806000Y-80579979D02*
X76806000Y-80254421D01*
X75786000Y-80579979D02*
X75786000Y-80254421D01*
G04 #@! TO.C,R116*
X71690400Y-80447936D02*
X71690400Y-84552064D01*
X75110400Y-80447936D02*
X75110400Y-84552064D01*
G04 #@! TO.C,R115*
X75786000Y-84597721D02*
X75786000Y-84923279D01*
X76806000Y-84597721D02*
X76806000Y-84923279D01*
G04 #@! TO.C,R114*
X57415000Y-86349621D02*
X57415000Y-86675179D01*
X58435000Y-86349621D02*
X58435000Y-86675179D01*
G04 #@! TO.C,R113*
X53113000Y-80604979D02*
X53113000Y-80279421D01*
X52093000Y-80604979D02*
X52093000Y-80279421D01*
G04 #@! TO.C,R112*
X47997400Y-80472936D02*
X47997400Y-84577064D01*
X51417400Y-80472936D02*
X51417400Y-84577064D01*
G04 #@! TO.C,R111*
X52093000Y-84622721D02*
X52093000Y-84948279D01*
X53113000Y-84622721D02*
X53113000Y-84948279D01*
G04 #@! TO.C,R110*
X104815000Y-86349621D02*
X104815000Y-86675179D01*
X105835000Y-86349621D02*
X105835000Y-86675179D01*
G04 #@! TO.C,R109*
X100499000Y-80579979D02*
X100499000Y-80254421D01*
X99479000Y-80579979D02*
X99479000Y-80254421D01*
G04 #@! TO.C,R33*
X95383400Y-80447936D02*
X95383400Y-84552064D01*
X98803400Y-80447936D02*
X98803400Y-84552064D01*
G04 #@! TO.C,R32*
X99479000Y-84597721D02*
X99479000Y-84923279D01*
X100499000Y-84597721D02*
X100499000Y-84923279D01*
G04 #@! TO.C,R29*
X92940000Y-86349621D02*
X92940000Y-86675179D01*
X93960000Y-86349621D02*
X93960000Y-86675179D01*
G04 #@! TO.C,R28*
X88615000Y-80579979D02*
X88615000Y-80254421D01*
X87595000Y-80579979D02*
X87595000Y-80254421D01*
G04 #@! TO.C,R25*
X83499400Y-80447936D02*
X83499400Y-84552064D01*
X86919400Y-80447936D02*
X86919400Y-84552064D01*
G04 #@! TO.C,R24*
X87595000Y-84597721D02*
X87595000Y-84923279D01*
X88615000Y-84597721D02*
X88615000Y-84923279D01*
G04 #@! TO.C,R21*
X69290000Y-86349621D02*
X69290000Y-86675179D01*
X70310000Y-86349621D02*
X70310000Y-86675179D01*
G04 #@! TO.C,R20*
X64972000Y-80554979D02*
X64972000Y-80229421D01*
X63952000Y-80554979D02*
X63952000Y-80229421D01*
G04 #@! TO.C,R17*
X59856400Y-80422936D02*
X59856400Y-84527064D01*
X63276400Y-80422936D02*
X63276400Y-84527064D01*
G04 #@! TO.C,R16*
X63952000Y-84572721D02*
X63952000Y-84898279D01*
X64972000Y-84572721D02*
X64972000Y-84898279D01*
G04 #@! TO.C,R12*
X41454800Y-80629979D02*
X41454800Y-80304421D01*
X40434800Y-80629979D02*
X40434800Y-80304421D01*
G04 #@! TO.C,R11*
X40434800Y-84647721D02*
X40434800Y-84973279D01*
X41454800Y-84647721D02*
X41454800Y-84973279D01*
G04 #@! TO.C,R7*
X112637779Y-63690000D02*
X112312221Y-63690000D01*
X112637779Y-64710000D02*
X112312221Y-64710000D01*
G04 #@! TO.C,R1*
X49052064Y-53115000D02*
X44947936Y-53115000D01*
X49052064Y-56535000D02*
X44947936Y-56535000D01*
D19*
G04 #@! TO.C,D62*
X112115000Y-57740000D02*
G75*
G03X112115000Y-57740000I-100000J0D01*
G01*
D18*
X111175000Y-57800000D02*
X111175000Y-56100000D01*
X111175000Y-56100000D02*
X108025000Y-56100000D01*
X111175000Y-57800000D02*
X108025000Y-57800000D01*
D19*
G04 #@! TO.C,D61*
X115065000Y-63040000D02*
G75*
G03X115065000Y-63040000I-100000J0D01*
G01*
D18*
X114125000Y-63100000D02*
X114125000Y-61400000D01*
X114125000Y-61400000D02*
X110975000Y-61400000D01*
X114125000Y-63100000D02*
X110975000Y-63100000D01*
D19*
G04 #@! TO.C,D60*
X145615000Y-110910000D02*
G75*
G03X145615000Y-110910000I-100000J0D01*
G01*
D18*
X145575000Y-111750000D02*
X143875000Y-111750000D01*
X143875000Y-111750000D02*
X143875000Y-114900000D01*
X145575000Y-111750000D02*
X145575000Y-114900000D01*
D19*
G04 #@! TO.C,D59*
X140285000Y-110315000D02*
G75*
G03X140285000Y-110315000I-100000J0D01*
G01*
D18*
X140125000Y-109475000D02*
X141825000Y-109475000D01*
X141825000Y-109475000D02*
X141825000Y-106325000D01*
X140125000Y-109475000D02*
X140125000Y-106325000D01*
D19*
G04 #@! TO.C,D58*
X139685000Y-87315000D02*
G75*
G03X139685000Y-87315000I-100000J0D01*
G01*
D18*
X139525000Y-86475000D02*
X141225000Y-86475000D01*
X141225000Y-86475000D02*
X141225000Y-83325000D01*
X139525000Y-86475000D02*
X139525000Y-83325000D01*
D19*
G04 #@! TO.C,D57*
X137650600Y-87322000D02*
G75*
G03X137650600Y-87322000I-100000J0D01*
G01*
D18*
X137490600Y-86482000D02*
X139190600Y-86482000D01*
X139190600Y-86482000D02*
X139190600Y-83332000D01*
X137490600Y-86482000D02*
X137490600Y-83332000D01*
D19*
G04 #@! TO.C,D56*
X112915000Y-82699200D02*
G75*
G03X112915000Y-82699200I-100000J0D01*
G01*
D18*
X112755000Y-81859200D02*
X114455000Y-81859200D01*
X114455000Y-81859200D02*
X114455000Y-78709200D01*
X112755000Y-81859200D02*
X112755000Y-78709200D01*
D19*
G04 #@! TO.C,D55*
X114491000Y-81487200D02*
G75*
G03X114491000Y-81487200I-100000J0D01*
G01*
D18*
X114451000Y-82327200D02*
X112751000Y-82327200D01*
X112751000Y-82327200D02*
X112751000Y-85477200D01*
X114451000Y-82327200D02*
X114451000Y-85477200D01*
D19*
G04 #@! TO.C,D54*
X77384000Y-82699200D02*
G75*
G03X77384000Y-82699200I-100000J0D01*
G01*
D18*
X77224000Y-81859200D02*
X78924000Y-81859200D01*
X78924000Y-81859200D02*
X78924000Y-78709200D01*
X77224000Y-81859200D02*
X77224000Y-78709200D01*
D19*
G04 #@! TO.C,D53*
X78964000Y-81487200D02*
G75*
G03X78964000Y-81487200I-100000J0D01*
G01*
D18*
X78924000Y-82327200D02*
X77224000Y-82327200D01*
X77224000Y-82327200D02*
X77224000Y-85477200D01*
X78924000Y-82327200D02*
X78924000Y-85477200D01*
D19*
G04 #@! TO.C,D52*
X53691000Y-82699200D02*
G75*
G03X53691000Y-82699200I-100000J0D01*
G01*
D18*
X53531000Y-81859200D02*
X55231000Y-81859200D01*
X55231000Y-81859200D02*
X55231000Y-78709200D01*
X53531000Y-81859200D02*
X53531000Y-78709200D01*
D19*
G04 #@! TO.C,D49*
X101077000Y-82699200D02*
G75*
G03X101077000Y-82699200I-100000J0D01*
G01*
D18*
X100917000Y-81859200D02*
X102617000Y-81859200D01*
X102617000Y-81859200D02*
X102617000Y-78709200D01*
X100917000Y-81859200D02*
X100917000Y-78709200D01*
D19*
G04 #@! TO.C,D47*
X102657000Y-81487200D02*
G75*
G03X102657000Y-81487200I-100000J0D01*
G01*
D18*
X102617000Y-82327200D02*
X100917000Y-82327200D01*
X100917000Y-82327200D02*
X100917000Y-85477200D01*
X102617000Y-82327200D02*
X102617000Y-85477200D01*
D19*
G04 #@! TO.C,D46*
X89185000Y-82699200D02*
G75*
G03X89185000Y-82699200I-100000J0D01*
G01*
D18*
X89025000Y-81859200D02*
X90725000Y-81859200D01*
X90725000Y-81859200D02*
X90725000Y-78709200D01*
X89025000Y-81859200D02*
X89025000Y-78709200D01*
D19*
G04 #@! TO.C,D45*
X90773000Y-81487200D02*
G75*
G03X90773000Y-81487200I-100000J0D01*
G01*
D18*
X90733000Y-82327200D02*
X89033000Y-82327200D01*
X89033000Y-82327200D02*
X89033000Y-85477200D01*
X90733000Y-82327200D02*
X90733000Y-85477200D01*
D19*
G04 #@! TO.C,D44*
X65550000Y-82699200D02*
G75*
G03X65550000Y-82699200I-100000J0D01*
G01*
D18*
X65390000Y-81859200D02*
X67090000Y-81859200D01*
X67090000Y-81859200D02*
X67090000Y-78709200D01*
X65390000Y-81859200D02*
X65390000Y-78709200D01*
D19*
G04 #@! TO.C,D43*
X67130000Y-81462200D02*
G75*
G03X67130000Y-81462200I-100000J0D01*
G01*
D18*
X67090000Y-82302200D02*
X65390000Y-82302200D01*
X65390000Y-82302200D02*
X65390000Y-85452200D01*
X67090000Y-82302200D02*
X67090000Y-85452200D01*
D19*
G04 #@! TO.C,D2*
X43610000Y-81537200D02*
G75*
G03X43610000Y-81537200I-100000J0D01*
G01*
D18*
X43570000Y-82377200D02*
X41870000Y-82377200D01*
X41870000Y-82377200D02*
X41870000Y-85527200D01*
X43570000Y-82377200D02*
X43570000Y-85527200D01*
G04 #@! TO.C,C4*
X38897936Y-55910000D02*
X40102064Y-55910000D01*
X38897936Y-54090000D02*
X40102064Y-54090000D01*
G04 #@! TO.C,D42*
X82040000Y-28641600D02*
X82040000Y-32526600D01*
X84310000Y-28641600D02*
X82040000Y-28641600D01*
X84310000Y-32526600D02*
X84310000Y-28641600D01*
G04 #@! TO.C,D41*
X79615000Y-28641600D02*
X79615000Y-32526600D01*
X81885000Y-28641600D02*
X79615000Y-28641600D01*
X81885000Y-32526600D02*
X81885000Y-28641600D01*
G04 #@! TO.C,D39*
X77190000Y-28641600D02*
X77190000Y-32526600D01*
X79460000Y-28641600D02*
X77190000Y-28641600D01*
X79460000Y-32526600D02*
X79460000Y-28641600D01*
G04 #@! TO.C,D16*
X97684000Y-34383600D02*
X97684000Y-38268600D01*
X99954000Y-34383600D02*
X97684000Y-34383600D01*
X99954000Y-38268600D02*
X99954000Y-34383600D01*
G04 #@! TO.C,D10*
X90445000Y-34383600D02*
X90445000Y-38268600D01*
X92715000Y-34383600D02*
X90445000Y-34383600D01*
X92715000Y-38268600D02*
X92715000Y-34383600D01*
G04 #@! TO.C,U29*
X137236163Y-97891600D02*
G75*
G03X137236163Y-97891600I-107763J0D01*
G01*
X136874400Y-96113600D02*
X136874400Y-98145600D01*
X139414400Y-96113600D02*
X136874400Y-96113600D01*
X139414400Y-98145600D02*
X139414400Y-96113600D01*
X136874400Y-98145600D02*
X139414400Y-98145600D01*
G04 #@! TO.C,R107*
X112637779Y-65265000D02*
X112312221Y-65265000D01*
X112637779Y-66285000D02*
X112312221Y-66285000D01*
G04 #@! TO.C,R106*
X57240000Y-101837221D02*
X57240000Y-102162779D01*
X58260000Y-101837221D02*
X58260000Y-102162779D01*
G04 #@! TO.C,R23*
X51019200Y-122519221D02*
X51019200Y-122844779D01*
X52039200Y-122519221D02*
X52039200Y-122844779D01*
G04 #@! TO.C,D22*
X103665000Y-34383600D02*
X103665000Y-38268600D01*
X105935000Y-34383600D02*
X103665000Y-34383600D01*
X105935000Y-38268600D02*
X105935000Y-34383600D01*
G04 #@! TO.C,U7*
X82197763Y-80558000D02*
G75*
G03X82197763Y-80558000I-107763J0D01*
G01*
X82344000Y-82336000D02*
X82344000Y-80304000D01*
X79804000Y-82336000D02*
X82344000Y-82336000D01*
X79804000Y-80304000D02*
X79804000Y-82336000D01*
X82344000Y-80304000D02*
X79804000Y-80304000D01*
G04 #@! TO.C,U8*
X117732763Y-80568000D02*
G75*
G03X117732763Y-80568000I-107763J0D01*
G01*
X117879000Y-82346000D02*
X117879000Y-80314000D01*
X115339000Y-82346000D02*
X117879000Y-82346000D01*
X115339000Y-80314000D02*
X115339000Y-82346000D01*
X117879000Y-80314000D02*
X115339000Y-80314000D01*
G04 #@! TO.C,U3*
X70367763Y-80568000D02*
G75*
G03X70367763Y-80568000I-107763J0D01*
G01*
X70514000Y-82346000D02*
X70514000Y-80314000D01*
X67974000Y-82346000D02*
X70514000Y-82346000D01*
X67974000Y-80314000D02*
X67974000Y-82346000D01*
X70514000Y-80314000D02*
X67974000Y-80314000D01*
D20*
G04 #@! TO.C,C1*
X53750000Y-64000000D02*
G75*
G03X53750000Y-64000000I-200000J0D01*
G01*
D21*
X51550000Y-59950000D02*
X51550000Y-62580000D01*
X48850000Y-57248000D02*
X51550000Y-59950000D01*
X38050000Y-57248000D02*
X48850000Y-57248000D01*
X38050000Y-62580000D02*
X38050000Y-57248000D01*
X38050000Y-70752000D02*
X38050000Y-65420000D01*
X48850000Y-70752000D02*
X38050000Y-70752000D01*
X51550000Y-68050000D02*
X48850000Y-70752000D01*
X51550000Y-65420000D02*
X51550000Y-68050000D01*
D22*
G04 #@! TO.C,P1*
X149352000Y-30300000D02*
G75*
G03X149352000Y-30300000I-127000J0D01*
G01*
D21*
X139350000Y-37650000D02*
X151300000Y-37650000D01*
D18*
G04 #@! TO.C,R63*
X64342000Y-142727021D02*
X64342000Y-143052579D01*
X65362000Y-142727021D02*
X65362000Y-143052579D01*
G04 #@! TO.C,R48*
X56717000Y-142752021D02*
X56717000Y-143077579D01*
X57737000Y-142752021D02*
X57737000Y-143077579D01*
G04 #@! TO.C,R40*
X91362221Y-50185000D02*
X91687779Y-50185000D01*
X91362221Y-49165000D02*
X91687779Y-49165000D01*
G04 #@! TO.C,R41*
X91862779Y-44340000D02*
X91537221Y-44340000D01*
X91862779Y-45360000D02*
X91537221Y-45360000D01*
G04 #@! TO.C,U31*
X111294763Y-55225000D02*
G75*
G03X111294763Y-55225000I-107763J0D01*
G01*
X109409000Y-55479000D02*
X111441000Y-55479000D01*
X109409000Y-52939000D02*
X109409000Y-55479000D01*
X111441000Y-52939000D02*
X109409000Y-52939000D01*
X111441000Y-55479000D02*
X111441000Y-52939000D01*
G04 #@! TO.C,C43*
X91512221Y-46910000D02*
X91837779Y-46910000D01*
X91512221Y-45890000D02*
X91837779Y-45890000D01*
G04 #@! TO.C,U30*
X140377963Y-119803200D02*
G75*
G03X140377963Y-119803200I-107763J0D01*
G01*
X140016200Y-118025200D02*
X140016200Y-120057200D01*
X142556200Y-118025200D02*
X140016200Y-118025200D01*
X142556200Y-120057200D02*
X142556200Y-118025200D01*
X140016200Y-120057200D02*
X142556200Y-120057200D01*
D12*
G04 #@! TO.C,F5*
X143140400Y-64093800D02*
X128040400Y-64093800D01*
X143140400Y-58893800D02*
X128040400Y-58893800D01*
X143140400Y-58893800D02*
X143140400Y-64093800D01*
X128040400Y-58893800D02*
X128040400Y-64093800D01*
D20*
G04 #@! TO.C,C2*
X57875000Y-35864800D02*
G75*
G03X57875000Y-35864800I-200000J0D01*
G01*
D21*
X59675000Y-39914800D02*
X59675000Y-37284800D01*
X62375000Y-42616800D02*
X59675000Y-39914800D01*
X73175000Y-42616800D02*
X62375000Y-42616800D01*
X73175000Y-37284800D02*
X73175000Y-42616800D01*
X73175000Y-29112800D02*
X73175000Y-34444800D01*
X62375000Y-29112800D02*
X73175000Y-29112800D01*
X59675000Y-31814800D02*
X62375000Y-29112800D01*
X59675000Y-34444800D02*
X59675000Y-31814800D01*
D20*
G04 #@! TO.C,C3*
X53552400Y-45059600D02*
G75*
G03X53552400Y-45059600I-200000J0D01*
G01*
D21*
X51352400Y-41009600D02*
X51352400Y-43639600D01*
X48652400Y-38307600D02*
X51352400Y-41009600D01*
X37852400Y-38307600D02*
X48652400Y-38307600D01*
X37852400Y-43639600D02*
X37852400Y-38307600D01*
X37852400Y-51811600D02*
X37852400Y-46479600D01*
X48652400Y-51811600D02*
X37852400Y-51811600D01*
X51352400Y-49109600D02*
X48652400Y-51811600D01*
X51352400Y-46479600D02*
X51352400Y-49109600D01*
D18*
G04 #@! TO.C,C7*
X38508400Y-122844779D02*
X38508400Y-122519221D01*
X37488400Y-122844779D02*
X37488400Y-122519221D01*
G04 #@! TO.C,C11*
X44244800Y-86349621D02*
X44244800Y-86675179D01*
X45264800Y-86349621D02*
X45264800Y-86675179D01*
G04 #@! TO.C,C37*
X109662400Y-122744779D02*
X109662400Y-122419221D01*
X108642400Y-122744779D02*
X108642400Y-122419221D01*
G04 #@! TO.C,C44*
X139890000Y-95412221D02*
X139890000Y-95737779D01*
X140910000Y-95412221D02*
X140910000Y-95737779D01*
G04 #@! TO.C,C45*
X144387000Y-118187979D02*
X144387000Y-117862421D01*
X143367000Y-118187979D02*
X143367000Y-117862421D01*
G04 #@! TO.C,C16*
X67765000Y-86349621D02*
X67765000Y-86675179D01*
X68785000Y-86349621D02*
X68785000Y-86675179D01*
G04 #@! TO.C,C21*
X91390000Y-86349621D02*
X91390000Y-86675179D01*
X92410000Y-86349621D02*
X92410000Y-86675179D01*
G04 #@! TO.C,C26*
X103290000Y-86349621D02*
X103290000Y-86675179D01*
X104310000Y-86349621D02*
X104310000Y-86675179D01*
G04 #@! TO.C,C31*
X55890000Y-86349621D02*
X55890000Y-86675179D01*
X56910000Y-86349621D02*
X56910000Y-86675179D01*
G04 #@! TO.C,C36*
X79590000Y-86349621D02*
X79590000Y-86675179D01*
X80610000Y-86349621D02*
X80610000Y-86675179D01*
G04 #@! TO.C,C42*
X91362221Y-51760000D02*
X91687779Y-51760000D01*
X91362221Y-50740000D02*
X91687779Y-50740000D01*
G04 #@! TO.C,C12*
X62226400Y-122844779D02*
X62226400Y-122519221D01*
X61206400Y-122844779D02*
X61206400Y-122519221D01*
G04 #@! TO.C,C17*
X85944400Y-122744779D02*
X85944400Y-122419221D01*
X84924400Y-122744779D02*
X84924400Y-122419221D01*
G04 #@! TO.C,C22*
X97803400Y-122744779D02*
X97803400Y-122419221D01*
X96783400Y-122744779D02*
X96783400Y-122419221D01*
G04 #@! TO.C,C27*
X50367400Y-122844779D02*
X50367400Y-122519221D01*
X49347400Y-122844779D02*
X49347400Y-122519221D01*
G04 #@! TO.C,C32*
X74085400Y-122844779D02*
X74085400Y-122519221D01*
X73065400Y-122844779D02*
X73065400Y-122519221D01*
G04 #@! TO.C,D5*
X85619000Y-28641600D02*
X85619000Y-32526600D01*
X87889000Y-28641600D02*
X85619000Y-28641600D01*
X87889000Y-32526600D02*
X87889000Y-28641600D01*
G04 #@! TO.C,D6*
X85619000Y-34383600D02*
X85619000Y-38268600D01*
X87889000Y-34383600D02*
X85619000Y-34383600D01*
X87889000Y-38268600D02*
X87889000Y-34383600D01*
G04 #@! TO.C,D7*
X88032000Y-28641600D02*
X88032000Y-32526600D01*
X90302000Y-28641600D02*
X88032000Y-28641600D01*
X90302000Y-32526600D02*
X90302000Y-28641600D01*
G04 #@! TO.C,D8*
X88032000Y-34383600D02*
X88032000Y-38268600D01*
X90302000Y-34383600D02*
X88032000Y-34383600D01*
X90302000Y-38268600D02*
X90302000Y-34383600D01*
G04 #@! TO.C,D9*
X90445000Y-28641600D02*
X90445000Y-32526600D01*
X92715000Y-28641600D02*
X90445000Y-28641600D01*
X92715000Y-32526600D02*
X92715000Y-28641600D01*
G04 #@! TO.C,D11*
X92858000Y-28641600D02*
X92858000Y-32526600D01*
X95128000Y-28641600D02*
X92858000Y-28641600D01*
X95128000Y-32526600D02*
X95128000Y-28641600D01*
G04 #@! TO.C,D12*
X92858000Y-34383600D02*
X92858000Y-38268600D01*
X95128000Y-34383600D02*
X92858000Y-34383600D01*
X95128000Y-38268600D02*
X95128000Y-34383600D01*
G04 #@! TO.C,D13*
X95271000Y-28641600D02*
X95271000Y-32526600D01*
X97541000Y-28641600D02*
X95271000Y-28641600D01*
X97541000Y-32526600D02*
X97541000Y-28641600D01*
G04 #@! TO.C,D14*
X95271000Y-34383600D02*
X95271000Y-38268600D01*
X97541000Y-34383600D02*
X95271000Y-34383600D01*
X97541000Y-38268600D02*
X97541000Y-34383600D01*
G04 #@! TO.C,D15*
X97684000Y-28641600D02*
X97684000Y-32526600D01*
X99954000Y-28641600D02*
X97684000Y-28641600D01*
X99954000Y-32526600D02*
X99954000Y-28641600D01*
G04 #@! TO.C,D17*
X100097000Y-28641600D02*
X100097000Y-32526600D01*
X102367000Y-28641600D02*
X100097000Y-28641600D01*
X102367000Y-32526600D02*
X102367000Y-28641600D01*
G04 #@! TO.C,D18*
X100097000Y-34383600D02*
X100097000Y-38268600D01*
X102367000Y-34383600D02*
X100097000Y-34383600D01*
X102367000Y-38268600D02*
X102367000Y-34383600D01*
G04 #@! TO.C,D19*
X108499000Y-34380600D02*
X108499000Y-38265600D01*
X110769000Y-34380600D02*
X108499000Y-34380600D01*
X110769000Y-38265600D02*
X110769000Y-34380600D01*
G04 #@! TO.C,D20*
X110912000Y-34383600D02*
X110912000Y-38268600D01*
X113182000Y-34383600D02*
X110912000Y-34383600D01*
X113182000Y-38268600D02*
X113182000Y-34383600D01*
G04 #@! TO.C,D21*
X106086000Y-34383600D02*
X106086000Y-38268600D01*
X108356000Y-34383600D02*
X106086000Y-34383600D01*
X108356000Y-38268600D02*
X108356000Y-34383600D01*
G04 #@! TO.C,D23*
X118976000Y-28641600D02*
X118976000Y-32526600D01*
X121246000Y-28641600D02*
X118976000Y-28641600D01*
X121246000Y-32526600D02*
X121246000Y-28641600D01*
G04 #@! TO.C,D24*
X116563000Y-28641600D02*
X116563000Y-32526600D01*
X118833000Y-28641600D02*
X116563000Y-28641600D01*
X118833000Y-32526600D02*
X118833000Y-28641600D01*
G04 #@! TO.C,D25*
X110610000Y-33186600D02*
X110610000Y-29301600D01*
X108340000Y-33186600D02*
X110610000Y-33186600D01*
X108340000Y-29301600D02*
X108340000Y-33186600D01*
D12*
G04 #@! TO.C,F1*
X143140400Y-52917800D02*
X128040400Y-52917800D01*
X143140400Y-47717800D02*
X128040400Y-47717800D01*
X143140400Y-47717800D02*
X143140400Y-52917800D01*
X128040400Y-47717800D02*
X128040400Y-52917800D01*
G04 #@! TO.C,F2*
X143140400Y-69671800D02*
X128040400Y-69671800D01*
X143140400Y-64471800D02*
X128040400Y-64471800D01*
X143140400Y-64471800D02*
X143140400Y-69671800D01*
X128040400Y-64471800D02*
X128040400Y-69671800D01*
G04 #@! TO.C,F3*
X143140400Y-58505800D02*
X128040400Y-58505800D01*
X143140400Y-53305800D02*
X128040400Y-53305800D01*
X143140400Y-53305800D02*
X143140400Y-58505800D01*
X128040400Y-53305800D02*
X128040400Y-58505800D01*
G04 #@! TO.C,F4*
X143130400Y-47321200D02*
X128030400Y-47321200D01*
X143130400Y-42121200D02*
X128030400Y-42121200D01*
X143130400Y-42121200D02*
X143130400Y-47321200D01*
X128030400Y-42121200D02*
X128030400Y-47321200D01*
G04 #@! TO.C,F_COIL1*
X128043400Y-75478800D02*
X143143400Y-75478800D01*
X128043400Y-80678800D02*
X143143400Y-80678800D01*
X128043400Y-80678800D02*
X128043400Y-75478800D01*
X143143400Y-80678800D02*
X143143400Y-75478800D01*
G04 #@! TO.C,F_FP1*
X128042400Y-70016400D02*
X143142400Y-70016400D01*
X128042400Y-75216400D02*
X143142400Y-75216400D01*
X128042400Y-75216400D02*
X128042400Y-70016400D01*
X143142400Y-75216400D02*
X143142400Y-70016400D01*
D18*
G04 #@! TO.C,R49*
X58242000Y-142752021D02*
X58242000Y-143077579D01*
X59262000Y-142752021D02*
X59262000Y-143077579D01*
G04 #@! TO.C,R56*
X59767000Y-142752021D02*
X59767000Y-143077579D01*
X60787000Y-142752021D02*
X60787000Y-143077579D01*
G04 #@! TO.C,R57*
X61292000Y-142739521D02*
X61292000Y-143065079D01*
X62312000Y-142739521D02*
X62312000Y-143065079D01*
G04 #@! TO.C,R62*
X62817000Y-142739521D02*
X62817000Y-143065079D01*
X63837000Y-142739521D02*
X63837000Y-143065079D01*
G04 #@! TO.C,R65*
X65867000Y-142727021D02*
X65867000Y-143052579D01*
X66887000Y-142727021D02*
X66887000Y-143052579D01*
G04 #@! TO.C,R84*
X134475279Y-36365000D02*
X134149721Y-36365000D01*
X134475279Y-37385000D02*
X134149721Y-37385000D01*
G04 #@! TO.C,R3*
X112225400Y-47398779D02*
X112225400Y-47073221D01*
X111205400Y-47398779D02*
X111205400Y-47073221D01*
G04 #@! TO.C,R4*
X110510000Y-47386279D02*
X110510000Y-47060721D01*
X109490000Y-47386279D02*
X109490000Y-47060721D01*
G04 #@! TO.C,R10*
X62882800Y-122519221D02*
X62882800Y-122844779D01*
X63902800Y-122519221D02*
X63902800Y-122844779D01*
G04 #@! TO.C,R14*
X86600800Y-122419221D02*
X86600800Y-122744779D01*
X87620800Y-122419221D02*
X87620800Y-122744779D01*
G04 #@! TO.C,R19*
X98459800Y-122419221D02*
X98459800Y-122744779D01*
X99479800Y-122419221D02*
X99479800Y-122744779D01*
G04 #@! TO.C,R27*
X74741800Y-122519221D02*
X74741800Y-122844779D01*
X75761800Y-122519221D02*
X75761800Y-122844779D01*
G04 #@! TO.C,R31*
X110318800Y-122419221D02*
X110318800Y-122744779D01*
X111338800Y-122419221D02*
X111338800Y-122744779D01*
G04 #@! TO.C,R94*
X121365000Y-57697936D02*
X121365000Y-61802064D01*
X124785000Y-57697936D02*
X124785000Y-61802064D01*
G04 #@! TO.C,R8*
X36440000Y-80497936D02*
X36440000Y-84602064D01*
X39860000Y-80497936D02*
X39860000Y-84602064D01*
G04 #@! TO.C,R93*
X116390000Y-57622936D02*
X116390000Y-61727064D01*
X119810000Y-57622936D02*
X119810000Y-61727064D01*
G04 #@! TO.C,R82*
X138552779Y-30790000D02*
X138227221Y-30790000D01*
X138552779Y-31810000D02*
X138227221Y-31810000D01*
G04 #@! TO.C,D35*
X115260000Y-33186600D02*
X115260000Y-29301600D01*
X112990000Y-33186600D02*
X115260000Y-33186600D01*
X112990000Y-29301600D02*
X112990000Y-33186600D01*
G04 #@! TO.C,D36*
X112935000Y-33186600D02*
X112935000Y-29301600D01*
X110665000Y-33186600D02*
X112935000Y-33186600D01*
X110665000Y-29301600D02*
X110665000Y-33186600D01*
G04 #@! TO.C,D37*
X105944100Y-33186600D02*
X105944100Y-29301600D01*
X103674100Y-33186600D02*
X105944100Y-33186600D01*
X103674100Y-29301600D02*
X103674100Y-33186600D01*
G04 #@! TO.C,D38*
X108280900Y-33186600D02*
X108280900Y-29301600D01*
X106010900Y-33186600D02*
X108280900Y-33186600D01*
X106010900Y-29301600D02*
X106010900Y-33186600D01*
G04 #@! TD*
G04 #@! TO.C,D3*
D16*
X50801904Y-34412380D02*
X50801904Y-33412380D01*
X51040000Y-33412380D01*
X51182857Y-33460000D01*
X51278095Y-33555238D01*
X51325714Y-33650476D01*
X51373333Y-33840952D01*
X51373333Y-33983809D01*
X51325714Y-34174285D01*
X51278095Y-34269523D01*
X51182857Y-34364761D01*
X51040000Y-34412380D01*
X50801904Y-34412380D01*
X51706666Y-33412380D02*
X52325714Y-33412380D01*
X51992380Y-33793333D01*
X52135238Y-33793333D01*
X52230476Y-33840952D01*
X52278095Y-33888571D01*
X52325714Y-33983809D01*
X52325714Y-34221904D01*
X52278095Y-34317142D01*
X52230476Y-34364761D01*
X52135238Y-34412380D01*
X51849523Y-34412380D01*
X51754285Y-34364761D01*
X51706666Y-34317142D01*
G04 #@! TO.C,D1*
X50781904Y-39072380D02*
X50781904Y-38072380D01*
X51020000Y-38072380D01*
X51162857Y-38120000D01*
X51258095Y-38215238D01*
X51305714Y-38310476D01*
X51353333Y-38500952D01*
X51353333Y-38643809D01*
X51305714Y-38834285D01*
X51258095Y-38929523D01*
X51162857Y-39024761D01*
X51020000Y-39072380D01*
X50781904Y-39072380D01*
X52305714Y-39072380D02*
X51734285Y-39072380D01*
X52020000Y-39072380D02*
X52020000Y-38072380D01*
X51924761Y-38215238D01*
X51829523Y-38310476D01*
X51734285Y-38358095D01*
G04 #@! TO.C,R128*
X111630952Y-57697380D02*
X111297619Y-57221190D01*
X111059523Y-57697380D02*
X111059523Y-56697380D01*
X111440476Y-56697380D01*
X111535714Y-56745000D01*
X111583333Y-56792619D01*
X111630952Y-56887857D01*
X111630952Y-57030714D01*
X111583333Y-57125952D01*
X111535714Y-57173571D01*
X111440476Y-57221190D01*
X111059523Y-57221190D01*
X112583333Y-57697380D02*
X112011904Y-57697380D01*
X112297619Y-57697380D02*
X112297619Y-56697380D01*
X112202380Y-56840238D01*
X112107142Y-56935476D01*
X112011904Y-56983095D01*
X112964285Y-56792619D02*
X113011904Y-56745000D01*
X113107142Y-56697380D01*
X113345238Y-56697380D01*
X113440476Y-56745000D01*
X113488095Y-56792619D01*
X113535714Y-56887857D01*
X113535714Y-56983095D01*
X113488095Y-57125952D01*
X112916666Y-57697380D01*
X113535714Y-57697380D01*
X114107142Y-57125952D02*
X114011904Y-57078333D01*
X113964285Y-57030714D01*
X113916666Y-56935476D01*
X113916666Y-56887857D01*
X113964285Y-56792619D01*
X114011904Y-56745000D01*
X114107142Y-56697380D01*
X114297619Y-56697380D01*
X114392857Y-56745000D01*
X114440476Y-56792619D01*
X114488095Y-56887857D01*
X114488095Y-56935476D01*
X114440476Y-57030714D01*
X114392857Y-57078333D01*
X114297619Y-57125952D01*
X114107142Y-57125952D01*
X114011904Y-57173571D01*
X113964285Y-57221190D01*
X113916666Y-57316428D01*
X113916666Y-57506904D01*
X113964285Y-57602142D01*
X114011904Y-57649761D01*
X114107142Y-57697380D01*
X114297619Y-57697380D01*
X114392857Y-57649761D01*
X114440476Y-57602142D01*
X114488095Y-57506904D01*
X114488095Y-57316428D01*
X114440476Y-57221190D01*
X114392857Y-57173571D01*
X114297619Y-57125952D01*
G04 #@! TO.C,R127*
X111630952Y-59497380D02*
X111297619Y-59021190D01*
X111059523Y-59497380D02*
X111059523Y-58497380D01*
X111440476Y-58497380D01*
X111535714Y-58545000D01*
X111583333Y-58592619D01*
X111630952Y-58687857D01*
X111630952Y-58830714D01*
X111583333Y-58925952D01*
X111535714Y-58973571D01*
X111440476Y-59021190D01*
X111059523Y-59021190D01*
X112583333Y-59497380D02*
X112011904Y-59497380D01*
X112297619Y-59497380D02*
X112297619Y-58497380D01*
X112202380Y-58640238D01*
X112107142Y-58735476D01*
X112011904Y-58783095D01*
X112964285Y-58592619D02*
X113011904Y-58545000D01*
X113107142Y-58497380D01*
X113345238Y-58497380D01*
X113440476Y-58545000D01*
X113488095Y-58592619D01*
X113535714Y-58687857D01*
X113535714Y-58783095D01*
X113488095Y-58925952D01*
X112916666Y-59497380D01*
X113535714Y-59497380D01*
X113869047Y-58497380D02*
X114535714Y-58497380D01*
X114107142Y-59497380D01*
G04 #@! TO.C,R7*
X112308333Y-66082380D02*
X111975000Y-65606190D01*
X111736904Y-66082380D02*
X111736904Y-65082380D01*
X112117857Y-65082380D01*
X112213095Y-65130000D01*
X112260714Y-65177619D01*
X112308333Y-65272857D01*
X112308333Y-65415714D01*
X112260714Y-65510952D01*
X112213095Y-65558571D01*
X112117857Y-65606190D01*
X111736904Y-65606190D01*
X112641666Y-65082380D02*
X113308333Y-65082380D01*
X112879761Y-66082380D01*
G04 #@! TO.C,R1*
X46833333Y-57897380D02*
X46500000Y-57421190D01*
X46261904Y-57897380D02*
X46261904Y-56897380D01*
X46642857Y-56897380D01*
X46738095Y-56945000D01*
X46785714Y-56992619D01*
X46833333Y-57087857D01*
X46833333Y-57230714D01*
X46785714Y-57325952D01*
X46738095Y-57373571D01*
X46642857Y-57421190D01*
X46261904Y-57421190D01*
X47785714Y-57897380D02*
X47214285Y-57897380D01*
X47500000Y-57897380D02*
X47500000Y-56897380D01*
X47404761Y-57040238D01*
X47309523Y-57135476D01*
X47214285Y-57183095D01*
G04 #@! TO.C,D62*
X108060714Y-59252380D02*
X108060714Y-58252380D01*
X108298809Y-58252380D01*
X108441666Y-58300000D01*
X108536904Y-58395238D01*
X108584523Y-58490476D01*
X108632142Y-58680952D01*
X108632142Y-58823809D01*
X108584523Y-59014285D01*
X108536904Y-59109523D01*
X108441666Y-59204761D01*
X108298809Y-59252380D01*
X108060714Y-59252380D01*
X109489285Y-58252380D02*
X109298809Y-58252380D01*
X109203571Y-58300000D01*
X109155952Y-58347619D01*
X109060714Y-58490476D01*
X109013095Y-58680952D01*
X109013095Y-59061904D01*
X109060714Y-59157142D01*
X109108333Y-59204761D01*
X109203571Y-59252380D01*
X109394047Y-59252380D01*
X109489285Y-59204761D01*
X109536904Y-59157142D01*
X109584523Y-59061904D01*
X109584523Y-58823809D01*
X109536904Y-58728571D01*
X109489285Y-58680952D01*
X109394047Y-58633333D01*
X109203571Y-58633333D01*
X109108333Y-58680952D01*
X109060714Y-58728571D01*
X109013095Y-58823809D01*
X109965476Y-58347619D02*
X110013095Y-58300000D01*
X110108333Y-58252380D01*
X110346428Y-58252380D01*
X110441666Y-58300000D01*
X110489285Y-58347619D01*
X110536904Y-58442857D01*
X110536904Y-58538095D01*
X110489285Y-58680952D01*
X109917857Y-59252380D01*
X110536904Y-59252380D01*
G04 #@! TO.C,D61*
X111010714Y-64552380D02*
X111010714Y-63552380D01*
X111248809Y-63552380D01*
X111391666Y-63600000D01*
X111486904Y-63695238D01*
X111534523Y-63790476D01*
X111582142Y-63980952D01*
X111582142Y-64123809D01*
X111534523Y-64314285D01*
X111486904Y-64409523D01*
X111391666Y-64504761D01*
X111248809Y-64552380D01*
X111010714Y-64552380D01*
X112439285Y-63552380D02*
X112248809Y-63552380D01*
X112153571Y-63600000D01*
X112105952Y-63647619D01*
X112010714Y-63790476D01*
X111963095Y-63980952D01*
X111963095Y-64361904D01*
X112010714Y-64457142D01*
X112058333Y-64504761D01*
X112153571Y-64552380D01*
X112344047Y-64552380D01*
X112439285Y-64504761D01*
X112486904Y-64457142D01*
X112534523Y-64361904D01*
X112534523Y-64123809D01*
X112486904Y-64028571D01*
X112439285Y-63980952D01*
X112344047Y-63933333D01*
X112153571Y-63933333D01*
X112058333Y-63980952D01*
X112010714Y-64028571D01*
X111963095Y-64123809D01*
X113486904Y-64552380D02*
X112915476Y-64552380D01*
X113201190Y-64552380D02*
X113201190Y-63552380D01*
X113105952Y-63695238D01*
X113010714Y-63790476D01*
X112915476Y-63838095D01*
G04 #@! TO.C,C4*
X39333333Y-53537142D02*
X39285714Y-53584761D01*
X39142857Y-53632380D01*
X39047619Y-53632380D01*
X38904761Y-53584761D01*
X38809523Y-53489523D01*
X38761904Y-53394285D01*
X38714285Y-53203809D01*
X38714285Y-53060952D01*
X38761904Y-52870476D01*
X38809523Y-52775238D01*
X38904761Y-52680000D01*
X39047619Y-52632380D01*
X39142857Y-52632380D01*
X39285714Y-52680000D01*
X39333333Y-52727619D01*
X40190476Y-52965714D02*
X40190476Y-53632380D01*
X39952380Y-52584761D02*
X39714285Y-53299047D01*
X40333333Y-53299047D01*
G04 #@! TO.C,D42*
X85447380Y-32140885D02*
X84447380Y-32140885D01*
X84447380Y-31902790D01*
X84495000Y-31759933D01*
X84590238Y-31664695D01*
X84685476Y-31617076D01*
X84875952Y-31569457D01*
X85018809Y-31569457D01*
X85209285Y-31617076D01*
X85304523Y-31664695D01*
X85399761Y-31759933D01*
X85447380Y-31902790D01*
X85447380Y-32140885D01*
X84780714Y-30712314D02*
X85447380Y-30712314D01*
X84399761Y-30950409D02*
X85114047Y-31188504D01*
X85114047Y-30569457D01*
X84542619Y-30236123D02*
X84495000Y-30188504D01*
X84447380Y-30093266D01*
X84447380Y-29855171D01*
X84495000Y-29759933D01*
X84542619Y-29712314D01*
X84637857Y-29664695D01*
X84733095Y-29664695D01*
X84875952Y-29712314D01*
X85447380Y-30283742D01*
X85447380Y-29664695D01*
G04 #@! TO.C,D41*
X83022380Y-32140885D02*
X82022380Y-32140885D01*
X82022380Y-31902790D01*
X82070000Y-31759933D01*
X82165238Y-31664695D01*
X82260476Y-31617076D01*
X82450952Y-31569457D01*
X82593809Y-31569457D01*
X82784285Y-31617076D01*
X82879523Y-31664695D01*
X82974761Y-31759933D01*
X83022380Y-31902790D01*
X83022380Y-32140885D01*
X82355714Y-30712314D02*
X83022380Y-30712314D01*
X81974761Y-30950409D02*
X82689047Y-31188504D01*
X82689047Y-30569457D01*
X83022380Y-29664695D02*
X83022380Y-30236123D01*
X83022380Y-29950409D02*
X82022380Y-29950409D01*
X82165238Y-30045647D01*
X82260476Y-30140885D01*
X82308095Y-30236123D01*
G04 #@! TO.C,D39*
X80597380Y-32140885D02*
X79597380Y-32140885D01*
X79597380Y-31902790D01*
X79645000Y-31759933D01*
X79740238Y-31664695D01*
X79835476Y-31617076D01*
X80025952Y-31569457D01*
X80168809Y-31569457D01*
X80359285Y-31617076D01*
X80454523Y-31664695D01*
X80549761Y-31759933D01*
X80597380Y-31902790D01*
X80597380Y-32140885D01*
X79597380Y-31236123D02*
X79597380Y-30617076D01*
X79978333Y-30950409D01*
X79978333Y-30807552D01*
X80025952Y-30712314D01*
X80073571Y-30664695D01*
X80168809Y-30617076D01*
X80406904Y-30617076D01*
X80502142Y-30664695D01*
X80549761Y-30712314D01*
X80597380Y-30807552D01*
X80597380Y-31093266D01*
X80549761Y-31188504D01*
X80502142Y-31236123D01*
X80597380Y-30140885D02*
X80597380Y-29950409D01*
X80549761Y-29855171D01*
X80502142Y-29807552D01*
X80359285Y-29712314D01*
X80168809Y-29664695D01*
X79787857Y-29664695D01*
X79692619Y-29712314D01*
X79645000Y-29759933D01*
X79597380Y-29855171D01*
X79597380Y-30045647D01*
X79645000Y-30140885D01*
X79692619Y-30188504D01*
X79787857Y-30236123D01*
X80025952Y-30236123D01*
X80121190Y-30188504D01*
X80168809Y-30140885D01*
X80216428Y-30045647D01*
X80216428Y-29855171D01*
X80168809Y-29759933D01*
X80121190Y-29712314D01*
X80025952Y-29664695D01*
G04 #@! TO.C,R107*
X111355952Y-67657380D02*
X111022619Y-67181190D01*
X110784523Y-67657380D02*
X110784523Y-66657380D01*
X111165476Y-66657380D01*
X111260714Y-66705000D01*
X111308333Y-66752619D01*
X111355952Y-66847857D01*
X111355952Y-66990714D01*
X111308333Y-67085952D01*
X111260714Y-67133571D01*
X111165476Y-67181190D01*
X110784523Y-67181190D01*
X112308333Y-67657380D02*
X111736904Y-67657380D01*
X112022619Y-67657380D02*
X112022619Y-66657380D01*
X111927380Y-66800238D01*
X111832142Y-66895476D01*
X111736904Y-66943095D01*
X112927380Y-66657380D02*
X113022619Y-66657380D01*
X113117857Y-66705000D01*
X113165476Y-66752619D01*
X113213095Y-66847857D01*
X113260714Y-67038333D01*
X113260714Y-67276428D01*
X113213095Y-67466904D01*
X113165476Y-67562142D01*
X113117857Y-67609761D01*
X113022619Y-67657380D01*
X112927380Y-67657380D01*
X112832142Y-67609761D01*
X112784523Y-67562142D01*
X112736904Y-67466904D01*
X112689285Y-67276428D01*
X112689285Y-67038333D01*
X112736904Y-66847857D01*
X112784523Y-66752619D01*
X112832142Y-66705000D01*
X112927380Y-66657380D01*
X113594047Y-66657380D02*
X114260714Y-66657380D01*
X113832142Y-67657380D01*
G04 #@! TD*
M02*
