G04 EAGLE Gerber RS-274X export*
G75*
%MOMM*%
%FSLAX34Y34*%
%LPD*%
%INTop Copper*%
%IPPOS*%
%AMOC8*
5,1,8,0,0,1.08239X$1,22.5*%
G01*
%ADD10R,1.100000X1.000000*%
%ADD11R,1.000000X1.100000*%
%ADD12C,1.600200*%
%ADD13P,1.732040X8X112.500000*%
%ADD14R,0.600000X0.800000*%
%ADD15R,3.000000X1.600000*%
%ADD16R,6.200000X5.800000*%
%ADD17C,2.775000*%
%ADD18C,4.395000*%
%ADD19R,1.500000X1.500000*%
%ADD20R,1.602800X0.475200*%
%ADD21R,4.445000X8.382000*%
%ADD22R,2.540000X1.270000*%


D10*
X1147200Y520700D03*
X1164200Y520700D03*
X1147200Y469900D03*
X1164200Y469900D03*
X1147200Y419100D03*
X1164200Y419100D03*
D11*
X660400Y575700D03*
X660400Y592700D03*
X660400Y410600D03*
X660400Y427600D03*
D10*
X1147200Y381000D03*
X1164200Y381000D03*
D12*
X736600Y571500D03*
D13*
X736600Y596900D03*
D12*
X812800Y571500D03*
D13*
X812800Y596900D03*
D14*
X829700Y381000D03*
X846700Y381000D03*
X956700Y381000D03*
X973700Y381000D03*
D15*
X762000Y482600D03*
X762000Y528300D03*
D16*
X690200Y505450D03*
D17*
X863600Y266700D03*
X903600Y266700D03*
X943600Y266700D03*
X983600Y266700D03*
X1023600Y266700D03*
X883600Y226700D03*
X923600Y226700D03*
X963600Y226700D03*
X1003600Y226700D03*
X863600Y186700D03*
X903600Y186700D03*
X943600Y186700D03*
X983600Y186700D03*
X1023600Y186700D03*
D18*
X798600Y221700D03*
X1088600Y221700D03*
D19*
X719100Y381000D03*
X754100Y381000D03*
X719100Y330200D03*
X754100Y330200D03*
X719100Y431800D03*
X754100Y431800D03*
D20*
X949245Y433850D03*
X949245Y440350D03*
X949245Y446850D03*
X949245Y453350D03*
X949245Y459850D03*
X949245Y466350D03*
X949245Y472850D03*
X949245Y479350D03*
X949245Y485850D03*
X949245Y492350D03*
X949245Y498850D03*
X949245Y505350D03*
X949245Y511850D03*
X949245Y518350D03*
X949245Y524850D03*
X949245Y531350D03*
X854155Y531350D03*
X854155Y524850D03*
X854155Y518350D03*
X854155Y511850D03*
X854155Y505350D03*
X854155Y498850D03*
X854155Y492350D03*
X854155Y485850D03*
X854155Y479350D03*
X854155Y472850D03*
X854155Y466350D03*
X854155Y459850D03*
X854155Y453350D03*
X854155Y446850D03*
X854155Y440350D03*
X854155Y433850D03*
D21*
X901700Y482600D03*
D11*
X1045600Y571500D03*
X1062600Y571500D03*
X1045600Y533400D03*
X1062600Y533400D03*
X1045600Y482600D03*
X1062600Y482600D03*
X1045600Y431800D03*
X1062600Y431800D03*
X1045600Y381000D03*
X1062600Y381000D03*
X1147200Y571500D03*
X1164200Y571500D03*
D22*
X850900Y696500D03*
X850900Y772700D03*
X850900Y798100D03*
X850900Y721900D03*
X850900Y747300D03*
X850900Y823500D03*
X850900Y848900D03*
X850900Y874300D03*
X1170900Y696500D03*
X1170900Y721900D03*
X1170900Y747300D03*
X1170900Y772700D03*
X1170900Y798100D03*
X1170900Y823500D03*
X1170900Y848900D03*
X1170900Y874300D03*
M02*
