G04 EAGLE Gerber RS-274X export*
G75*
%MOMM*%
%FSLAX34Y34*%
%LPD*%
%INSilkscreen Top*%
%IPPOS*%
%AMOC8*
5,1,8,0,0,1.08239X$1,22.5*%
G01*
%ADD10C,0.101600*%
%ADD11C,0.152400*%
%ADD12C,0.127000*%
%ADD13C,0.050000*%
%ADD14C,0.050800*%
%ADD15C,0.100000*%
%ADD16C,0.200000*%
%ADD17C,0.200000*%
%ADD18C,0.250000*%
%ADD19R,0.200000X0.200000*%
%ADD20C,0.500000*%
%ADD21C,0.120000*%
%ADD22C,0.609600*%


D10*
X1155051Y540258D02*
X1152454Y540258D01*
X1152355Y540260D01*
X1152255Y540266D01*
X1152156Y540275D01*
X1152058Y540288D01*
X1151960Y540305D01*
X1151862Y540326D01*
X1151766Y540351D01*
X1151671Y540379D01*
X1151577Y540411D01*
X1151484Y540446D01*
X1151392Y540485D01*
X1151302Y540528D01*
X1151214Y540573D01*
X1151127Y540623D01*
X1151043Y540675D01*
X1150960Y540731D01*
X1150880Y540789D01*
X1150802Y540851D01*
X1150727Y540916D01*
X1150654Y540984D01*
X1150584Y541054D01*
X1150516Y541127D01*
X1150451Y541202D01*
X1150389Y541280D01*
X1150331Y541360D01*
X1150275Y541443D01*
X1150223Y541527D01*
X1150173Y541614D01*
X1150128Y541702D01*
X1150085Y541792D01*
X1150046Y541884D01*
X1150011Y541977D01*
X1149979Y542071D01*
X1149951Y542166D01*
X1149926Y542262D01*
X1149905Y542360D01*
X1149888Y542458D01*
X1149875Y542556D01*
X1149866Y542655D01*
X1149860Y542755D01*
X1149858Y542854D01*
X1149858Y549346D01*
X1149860Y549445D01*
X1149866Y549545D01*
X1149875Y549644D01*
X1149888Y549742D01*
X1149905Y549840D01*
X1149926Y549938D01*
X1149951Y550034D01*
X1149979Y550129D01*
X1150011Y550223D01*
X1150046Y550316D01*
X1150085Y550408D01*
X1150128Y550498D01*
X1150173Y550586D01*
X1150223Y550673D01*
X1150275Y550757D01*
X1150331Y550840D01*
X1150389Y550920D01*
X1150451Y550998D01*
X1150516Y551073D01*
X1150584Y551146D01*
X1150654Y551216D01*
X1150727Y551284D01*
X1150802Y551349D01*
X1150880Y551411D01*
X1150960Y551469D01*
X1151043Y551525D01*
X1151127Y551577D01*
X1151214Y551627D01*
X1151302Y551672D01*
X1151392Y551715D01*
X1151484Y551754D01*
X1151576Y551789D01*
X1151671Y551821D01*
X1151766Y551849D01*
X1151862Y551874D01*
X1151960Y551895D01*
X1152058Y551912D01*
X1152156Y551925D01*
X1152255Y551934D01*
X1152355Y551940D01*
X1152454Y551942D01*
X1155051Y551942D01*
X1159416Y549346D02*
X1162662Y551942D01*
X1162662Y540258D01*
X1165907Y540258D02*
X1159416Y540258D01*
X1155051Y476758D02*
X1152454Y476758D01*
X1152355Y476760D01*
X1152255Y476766D01*
X1152156Y476775D01*
X1152058Y476788D01*
X1151960Y476805D01*
X1151862Y476826D01*
X1151766Y476851D01*
X1151671Y476879D01*
X1151577Y476911D01*
X1151484Y476946D01*
X1151392Y476985D01*
X1151302Y477028D01*
X1151214Y477073D01*
X1151127Y477123D01*
X1151043Y477175D01*
X1150960Y477231D01*
X1150880Y477289D01*
X1150802Y477351D01*
X1150727Y477416D01*
X1150654Y477484D01*
X1150584Y477554D01*
X1150516Y477627D01*
X1150451Y477702D01*
X1150389Y477780D01*
X1150331Y477860D01*
X1150275Y477943D01*
X1150223Y478027D01*
X1150173Y478114D01*
X1150128Y478202D01*
X1150085Y478292D01*
X1150046Y478384D01*
X1150011Y478477D01*
X1149979Y478571D01*
X1149951Y478666D01*
X1149926Y478762D01*
X1149905Y478860D01*
X1149888Y478958D01*
X1149875Y479056D01*
X1149866Y479155D01*
X1149860Y479255D01*
X1149858Y479354D01*
X1149858Y485846D01*
X1149860Y485945D01*
X1149866Y486045D01*
X1149875Y486144D01*
X1149888Y486242D01*
X1149905Y486340D01*
X1149926Y486438D01*
X1149951Y486534D01*
X1149979Y486629D01*
X1150011Y486723D01*
X1150046Y486816D01*
X1150085Y486908D01*
X1150128Y486998D01*
X1150173Y487086D01*
X1150223Y487173D01*
X1150275Y487257D01*
X1150331Y487340D01*
X1150389Y487420D01*
X1150451Y487498D01*
X1150516Y487573D01*
X1150584Y487646D01*
X1150654Y487716D01*
X1150727Y487784D01*
X1150802Y487849D01*
X1150880Y487911D01*
X1150960Y487969D01*
X1151043Y488025D01*
X1151127Y488077D01*
X1151214Y488127D01*
X1151302Y488172D01*
X1151392Y488215D01*
X1151484Y488254D01*
X1151576Y488289D01*
X1151671Y488321D01*
X1151766Y488349D01*
X1151862Y488374D01*
X1151960Y488395D01*
X1152058Y488412D01*
X1152156Y488425D01*
X1152255Y488434D01*
X1152355Y488440D01*
X1152454Y488442D01*
X1155051Y488442D01*
X1162986Y488442D02*
X1163093Y488440D01*
X1163199Y488434D01*
X1163305Y488424D01*
X1163411Y488411D01*
X1163517Y488393D01*
X1163621Y488372D01*
X1163725Y488347D01*
X1163828Y488318D01*
X1163929Y488286D01*
X1164029Y488249D01*
X1164128Y488209D01*
X1164226Y488166D01*
X1164322Y488119D01*
X1164416Y488068D01*
X1164508Y488014D01*
X1164598Y487957D01*
X1164686Y487897D01*
X1164771Y487833D01*
X1164854Y487766D01*
X1164935Y487696D01*
X1165013Y487624D01*
X1165089Y487548D01*
X1165161Y487470D01*
X1165231Y487389D01*
X1165298Y487306D01*
X1165362Y487221D01*
X1165422Y487133D01*
X1165479Y487043D01*
X1165533Y486951D01*
X1165584Y486857D01*
X1165631Y486761D01*
X1165674Y486663D01*
X1165714Y486564D01*
X1165751Y486464D01*
X1165783Y486363D01*
X1165812Y486260D01*
X1165837Y486156D01*
X1165858Y486052D01*
X1165876Y485946D01*
X1165889Y485840D01*
X1165899Y485734D01*
X1165905Y485628D01*
X1165907Y485521D01*
X1162986Y488442D02*
X1162865Y488440D01*
X1162744Y488434D01*
X1162624Y488424D01*
X1162503Y488411D01*
X1162384Y488393D01*
X1162264Y488372D01*
X1162146Y488347D01*
X1162029Y488318D01*
X1161912Y488285D01*
X1161797Y488249D01*
X1161683Y488208D01*
X1161570Y488165D01*
X1161458Y488117D01*
X1161349Y488066D01*
X1161241Y488011D01*
X1161134Y487953D01*
X1161030Y487892D01*
X1160928Y487827D01*
X1160828Y487759D01*
X1160730Y487688D01*
X1160634Y487614D01*
X1160541Y487537D01*
X1160451Y487456D01*
X1160363Y487373D01*
X1160278Y487287D01*
X1160195Y487198D01*
X1160116Y487107D01*
X1160039Y487013D01*
X1159966Y486917D01*
X1159896Y486819D01*
X1159829Y486718D01*
X1159765Y486615D01*
X1159705Y486510D01*
X1159648Y486403D01*
X1159594Y486295D01*
X1159544Y486185D01*
X1159498Y486073D01*
X1159455Y485960D01*
X1159416Y485845D01*
X1164934Y483249D02*
X1165013Y483326D01*
X1165089Y483407D01*
X1165162Y483490D01*
X1165232Y483575D01*
X1165299Y483663D01*
X1165363Y483753D01*
X1165423Y483845D01*
X1165480Y483940D01*
X1165534Y484036D01*
X1165585Y484134D01*
X1165632Y484234D01*
X1165676Y484336D01*
X1165716Y484439D01*
X1165752Y484543D01*
X1165784Y484649D01*
X1165813Y484755D01*
X1165838Y484863D01*
X1165860Y484971D01*
X1165877Y485081D01*
X1165891Y485190D01*
X1165900Y485300D01*
X1165906Y485411D01*
X1165908Y485521D01*
X1164934Y483249D02*
X1159416Y476758D01*
X1165907Y476758D01*
X1155051Y425958D02*
X1152454Y425958D01*
X1152355Y425960D01*
X1152255Y425966D01*
X1152156Y425975D01*
X1152058Y425988D01*
X1151960Y426005D01*
X1151862Y426026D01*
X1151766Y426051D01*
X1151671Y426079D01*
X1151577Y426111D01*
X1151484Y426146D01*
X1151392Y426185D01*
X1151302Y426228D01*
X1151214Y426273D01*
X1151127Y426323D01*
X1151043Y426375D01*
X1150960Y426431D01*
X1150880Y426489D01*
X1150802Y426551D01*
X1150727Y426616D01*
X1150654Y426684D01*
X1150584Y426754D01*
X1150516Y426827D01*
X1150451Y426902D01*
X1150389Y426980D01*
X1150331Y427060D01*
X1150275Y427143D01*
X1150223Y427227D01*
X1150173Y427314D01*
X1150128Y427402D01*
X1150085Y427492D01*
X1150046Y427584D01*
X1150011Y427677D01*
X1149979Y427771D01*
X1149951Y427866D01*
X1149926Y427962D01*
X1149905Y428060D01*
X1149888Y428158D01*
X1149875Y428256D01*
X1149866Y428355D01*
X1149860Y428455D01*
X1149858Y428554D01*
X1149858Y435046D01*
X1149860Y435145D01*
X1149866Y435245D01*
X1149875Y435344D01*
X1149888Y435442D01*
X1149905Y435540D01*
X1149926Y435638D01*
X1149951Y435734D01*
X1149979Y435829D01*
X1150011Y435923D01*
X1150046Y436016D01*
X1150085Y436108D01*
X1150128Y436198D01*
X1150173Y436286D01*
X1150223Y436373D01*
X1150275Y436457D01*
X1150331Y436540D01*
X1150389Y436620D01*
X1150451Y436698D01*
X1150516Y436773D01*
X1150584Y436846D01*
X1150654Y436916D01*
X1150727Y436984D01*
X1150802Y437049D01*
X1150880Y437111D01*
X1150960Y437169D01*
X1151043Y437225D01*
X1151127Y437277D01*
X1151214Y437327D01*
X1151302Y437372D01*
X1151392Y437415D01*
X1151484Y437454D01*
X1151576Y437489D01*
X1151671Y437521D01*
X1151766Y437549D01*
X1151862Y437574D01*
X1151960Y437595D01*
X1152058Y437612D01*
X1152156Y437625D01*
X1152255Y437634D01*
X1152355Y437640D01*
X1152454Y437642D01*
X1155051Y437642D01*
X1159416Y425958D02*
X1162662Y425958D01*
X1162775Y425960D01*
X1162888Y425966D01*
X1163001Y425976D01*
X1163114Y425990D01*
X1163226Y426007D01*
X1163337Y426029D01*
X1163447Y426054D01*
X1163557Y426084D01*
X1163665Y426117D01*
X1163772Y426154D01*
X1163878Y426194D01*
X1163982Y426239D01*
X1164085Y426287D01*
X1164186Y426338D01*
X1164285Y426393D01*
X1164382Y426451D01*
X1164477Y426513D01*
X1164570Y426578D01*
X1164660Y426646D01*
X1164748Y426717D01*
X1164834Y426792D01*
X1164917Y426869D01*
X1164997Y426949D01*
X1165074Y427032D01*
X1165149Y427118D01*
X1165220Y427206D01*
X1165288Y427296D01*
X1165353Y427389D01*
X1165415Y427484D01*
X1165473Y427581D01*
X1165528Y427680D01*
X1165579Y427781D01*
X1165627Y427884D01*
X1165672Y427988D01*
X1165712Y428094D01*
X1165749Y428201D01*
X1165782Y428309D01*
X1165812Y428419D01*
X1165837Y428529D01*
X1165859Y428640D01*
X1165876Y428752D01*
X1165890Y428865D01*
X1165900Y428978D01*
X1165906Y429091D01*
X1165908Y429204D01*
X1165906Y429317D01*
X1165900Y429430D01*
X1165890Y429543D01*
X1165876Y429656D01*
X1165859Y429768D01*
X1165837Y429879D01*
X1165812Y429989D01*
X1165782Y430099D01*
X1165749Y430207D01*
X1165712Y430314D01*
X1165672Y430420D01*
X1165627Y430524D01*
X1165579Y430627D01*
X1165528Y430728D01*
X1165473Y430827D01*
X1165415Y430924D01*
X1165353Y431019D01*
X1165288Y431112D01*
X1165220Y431202D01*
X1165149Y431290D01*
X1165074Y431376D01*
X1164997Y431459D01*
X1164917Y431539D01*
X1164834Y431616D01*
X1164748Y431691D01*
X1164660Y431762D01*
X1164570Y431830D01*
X1164477Y431895D01*
X1164382Y431957D01*
X1164285Y432015D01*
X1164186Y432070D01*
X1164085Y432121D01*
X1163982Y432169D01*
X1163878Y432214D01*
X1163772Y432254D01*
X1163665Y432291D01*
X1163557Y432324D01*
X1163447Y432354D01*
X1163337Y432379D01*
X1163226Y432401D01*
X1163114Y432418D01*
X1163001Y432432D01*
X1162888Y432442D01*
X1162775Y432448D01*
X1162662Y432450D01*
X1163311Y437642D02*
X1159416Y437642D01*
X1163311Y437642D02*
X1163412Y437640D01*
X1163512Y437634D01*
X1163612Y437624D01*
X1163712Y437611D01*
X1163811Y437593D01*
X1163910Y437572D01*
X1164007Y437547D01*
X1164104Y437518D01*
X1164199Y437485D01*
X1164293Y437449D01*
X1164385Y437409D01*
X1164476Y437366D01*
X1164565Y437319D01*
X1164652Y437269D01*
X1164738Y437215D01*
X1164821Y437158D01*
X1164901Y437098D01*
X1164980Y437035D01*
X1165056Y436968D01*
X1165129Y436899D01*
X1165199Y436827D01*
X1165267Y436753D01*
X1165332Y436676D01*
X1165393Y436596D01*
X1165452Y436514D01*
X1165507Y436430D01*
X1165559Y436344D01*
X1165608Y436256D01*
X1165653Y436166D01*
X1165695Y436074D01*
X1165733Y435981D01*
X1165767Y435886D01*
X1165798Y435791D01*
X1165825Y435694D01*
X1165848Y435596D01*
X1165868Y435497D01*
X1165883Y435397D01*
X1165895Y435297D01*
X1165903Y435197D01*
X1165907Y435096D01*
X1165907Y434996D01*
X1165903Y434895D01*
X1165895Y434795D01*
X1165883Y434695D01*
X1165868Y434595D01*
X1165848Y434496D01*
X1165825Y434398D01*
X1165798Y434301D01*
X1165767Y434206D01*
X1165733Y434111D01*
X1165695Y434018D01*
X1165653Y433926D01*
X1165608Y433836D01*
X1165559Y433748D01*
X1165507Y433662D01*
X1165452Y433578D01*
X1165393Y433496D01*
X1165332Y433416D01*
X1165267Y433339D01*
X1165199Y433265D01*
X1165129Y433193D01*
X1165056Y433124D01*
X1164980Y433057D01*
X1164901Y432994D01*
X1164821Y432934D01*
X1164738Y432877D01*
X1164652Y432823D01*
X1164565Y432773D01*
X1164476Y432726D01*
X1164385Y432683D01*
X1164293Y432643D01*
X1164199Y432607D01*
X1164104Y432574D01*
X1164007Y432545D01*
X1163910Y432520D01*
X1163811Y432499D01*
X1163712Y432481D01*
X1163612Y432468D01*
X1163512Y432458D01*
X1163412Y432452D01*
X1163311Y432450D01*
X1163311Y432449D02*
X1160714Y432449D01*
X653542Y580954D02*
X653542Y583551D01*
X653542Y580954D02*
X653540Y580855D01*
X653534Y580755D01*
X653525Y580656D01*
X653512Y580558D01*
X653495Y580460D01*
X653474Y580362D01*
X653449Y580266D01*
X653421Y580171D01*
X653389Y580077D01*
X653354Y579984D01*
X653315Y579892D01*
X653272Y579802D01*
X653227Y579714D01*
X653177Y579627D01*
X653125Y579543D01*
X653069Y579460D01*
X653011Y579380D01*
X652949Y579302D01*
X652884Y579227D01*
X652816Y579154D01*
X652746Y579084D01*
X652673Y579016D01*
X652598Y578951D01*
X652520Y578889D01*
X652440Y578831D01*
X652357Y578775D01*
X652273Y578723D01*
X652186Y578673D01*
X652098Y578628D01*
X652008Y578585D01*
X651916Y578546D01*
X651823Y578511D01*
X651729Y578479D01*
X651634Y578451D01*
X651538Y578426D01*
X651440Y578405D01*
X651342Y578388D01*
X651244Y578375D01*
X651145Y578366D01*
X651045Y578360D01*
X650946Y578358D01*
X644454Y578358D01*
X644355Y578360D01*
X644255Y578366D01*
X644156Y578375D01*
X644058Y578388D01*
X643960Y578406D01*
X643862Y578426D01*
X643766Y578451D01*
X643670Y578479D01*
X643576Y578511D01*
X643483Y578546D01*
X643392Y578585D01*
X643302Y578628D01*
X643213Y578673D01*
X643127Y578723D01*
X643042Y578775D01*
X642960Y578831D01*
X642880Y578890D01*
X642802Y578951D01*
X642726Y579016D01*
X642653Y579084D01*
X642583Y579154D01*
X642515Y579227D01*
X642450Y579303D01*
X642389Y579381D01*
X642330Y579461D01*
X642274Y579543D01*
X642222Y579628D01*
X642173Y579714D01*
X642127Y579803D01*
X642084Y579893D01*
X642045Y579984D01*
X642010Y580077D01*
X641978Y580171D01*
X641950Y580267D01*
X641925Y580363D01*
X641905Y580461D01*
X641887Y580559D01*
X641874Y580657D01*
X641865Y580756D01*
X641859Y580855D01*
X641857Y580955D01*
X641858Y580954D02*
X641858Y583551D01*
X641858Y590513D02*
X650946Y587916D01*
X650946Y594407D01*
X648349Y592460D02*
X653542Y592460D01*
X653542Y418451D02*
X653542Y415854D01*
X653540Y415755D01*
X653534Y415655D01*
X653525Y415556D01*
X653512Y415458D01*
X653495Y415360D01*
X653474Y415262D01*
X653449Y415166D01*
X653421Y415071D01*
X653389Y414977D01*
X653354Y414884D01*
X653315Y414792D01*
X653272Y414702D01*
X653227Y414614D01*
X653177Y414527D01*
X653125Y414443D01*
X653069Y414360D01*
X653011Y414280D01*
X652949Y414202D01*
X652884Y414127D01*
X652816Y414054D01*
X652746Y413984D01*
X652673Y413916D01*
X652598Y413851D01*
X652520Y413789D01*
X652440Y413731D01*
X652357Y413675D01*
X652273Y413623D01*
X652186Y413573D01*
X652098Y413528D01*
X652008Y413485D01*
X651916Y413446D01*
X651823Y413411D01*
X651729Y413379D01*
X651634Y413351D01*
X651538Y413326D01*
X651440Y413305D01*
X651342Y413288D01*
X651244Y413275D01*
X651145Y413266D01*
X651045Y413260D01*
X650946Y413258D01*
X644454Y413258D01*
X644355Y413260D01*
X644255Y413266D01*
X644156Y413275D01*
X644058Y413288D01*
X643960Y413306D01*
X643862Y413326D01*
X643766Y413351D01*
X643670Y413379D01*
X643576Y413411D01*
X643483Y413446D01*
X643392Y413485D01*
X643302Y413528D01*
X643213Y413573D01*
X643127Y413623D01*
X643042Y413675D01*
X642960Y413731D01*
X642880Y413790D01*
X642802Y413851D01*
X642726Y413916D01*
X642653Y413984D01*
X642583Y414054D01*
X642515Y414127D01*
X642450Y414203D01*
X642389Y414281D01*
X642330Y414361D01*
X642274Y414443D01*
X642222Y414528D01*
X642173Y414614D01*
X642127Y414703D01*
X642084Y414793D01*
X642045Y414884D01*
X642010Y414977D01*
X641978Y415071D01*
X641950Y415167D01*
X641925Y415263D01*
X641905Y415361D01*
X641887Y415459D01*
X641874Y415557D01*
X641865Y415656D01*
X641859Y415755D01*
X641857Y415855D01*
X641858Y415854D02*
X641858Y418451D01*
X653542Y422816D02*
X653542Y426711D01*
X653540Y426810D01*
X653534Y426910D01*
X653525Y427009D01*
X653512Y427107D01*
X653495Y427205D01*
X653474Y427303D01*
X653449Y427399D01*
X653421Y427494D01*
X653389Y427588D01*
X653354Y427681D01*
X653315Y427773D01*
X653272Y427863D01*
X653227Y427951D01*
X653177Y428038D01*
X653125Y428122D01*
X653069Y428205D01*
X653011Y428285D01*
X652949Y428363D01*
X652884Y428438D01*
X652816Y428511D01*
X652746Y428581D01*
X652673Y428649D01*
X652598Y428714D01*
X652520Y428776D01*
X652440Y428834D01*
X652357Y428890D01*
X652273Y428942D01*
X652186Y428992D01*
X652098Y429037D01*
X652008Y429080D01*
X651916Y429119D01*
X651823Y429154D01*
X651729Y429186D01*
X651634Y429214D01*
X651538Y429239D01*
X651440Y429260D01*
X651342Y429277D01*
X651244Y429290D01*
X651145Y429299D01*
X651045Y429305D01*
X650946Y429307D01*
X649647Y429307D01*
X649548Y429305D01*
X649448Y429299D01*
X649349Y429290D01*
X649251Y429277D01*
X649153Y429260D01*
X649055Y429239D01*
X648959Y429214D01*
X648864Y429186D01*
X648770Y429154D01*
X648677Y429119D01*
X648585Y429080D01*
X648495Y429037D01*
X648407Y428992D01*
X648320Y428942D01*
X648236Y428890D01*
X648153Y428834D01*
X648073Y428776D01*
X647995Y428714D01*
X647920Y428649D01*
X647847Y428581D01*
X647777Y428511D01*
X647709Y428438D01*
X647644Y428363D01*
X647582Y428285D01*
X647524Y428205D01*
X647468Y428122D01*
X647416Y428038D01*
X647366Y427951D01*
X647321Y427863D01*
X647278Y427773D01*
X647239Y427681D01*
X647204Y427588D01*
X647172Y427494D01*
X647144Y427399D01*
X647119Y427303D01*
X647098Y427205D01*
X647081Y427107D01*
X647068Y427009D01*
X647059Y426910D01*
X647053Y426810D01*
X647051Y426711D01*
X647051Y422816D01*
X641858Y422816D01*
X641858Y429307D01*
X1152454Y387858D02*
X1155051Y387858D01*
X1152454Y387858D02*
X1152355Y387860D01*
X1152255Y387866D01*
X1152156Y387875D01*
X1152058Y387888D01*
X1151960Y387905D01*
X1151862Y387926D01*
X1151766Y387951D01*
X1151671Y387979D01*
X1151577Y388011D01*
X1151484Y388046D01*
X1151392Y388085D01*
X1151302Y388128D01*
X1151214Y388173D01*
X1151127Y388223D01*
X1151043Y388275D01*
X1150960Y388331D01*
X1150880Y388389D01*
X1150802Y388451D01*
X1150727Y388516D01*
X1150654Y388584D01*
X1150584Y388654D01*
X1150516Y388727D01*
X1150451Y388802D01*
X1150389Y388880D01*
X1150331Y388960D01*
X1150275Y389043D01*
X1150223Y389127D01*
X1150173Y389214D01*
X1150128Y389302D01*
X1150085Y389392D01*
X1150046Y389484D01*
X1150011Y389577D01*
X1149979Y389671D01*
X1149951Y389766D01*
X1149926Y389862D01*
X1149905Y389960D01*
X1149888Y390058D01*
X1149875Y390156D01*
X1149866Y390255D01*
X1149860Y390355D01*
X1149858Y390454D01*
X1149858Y396946D01*
X1149860Y397045D01*
X1149866Y397145D01*
X1149875Y397244D01*
X1149888Y397342D01*
X1149905Y397440D01*
X1149926Y397538D01*
X1149951Y397634D01*
X1149979Y397729D01*
X1150011Y397823D01*
X1150046Y397916D01*
X1150085Y398008D01*
X1150128Y398098D01*
X1150173Y398186D01*
X1150223Y398273D01*
X1150275Y398357D01*
X1150331Y398440D01*
X1150389Y398520D01*
X1150451Y398598D01*
X1150516Y398673D01*
X1150584Y398746D01*
X1150654Y398816D01*
X1150727Y398884D01*
X1150802Y398949D01*
X1150880Y399011D01*
X1150960Y399069D01*
X1151043Y399125D01*
X1151127Y399177D01*
X1151214Y399227D01*
X1151302Y399272D01*
X1151392Y399315D01*
X1151484Y399354D01*
X1151576Y399389D01*
X1151671Y399421D01*
X1151766Y399449D01*
X1151862Y399474D01*
X1151960Y399495D01*
X1152058Y399512D01*
X1152156Y399525D01*
X1152255Y399534D01*
X1152355Y399540D01*
X1152454Y399542D01*
X1155051Y399542D01*
X1159416Y394349D02*
X1163311Y394349D01*
X1163410Y394347D01*
X1163510Y394341D01*
X1163609Y394332D01*
X1163707Y394319D01*
X1163805Y394302D01*
X1163903Y394281D01*
X1163999Y394256D01*
X1164094Y394228D01*
X1164188Y394196D01*
X1164281Y394161D01*
X1164373Y394122D01*
X1164463Y394079D01*
X1164551Y394034D01*
X1164638Y393984D01*
X1164722Y393932D01*
X1164805Y393876D01*
X1164885Y393818D01*
X1164963Y393756D01*
X1165038Y393691D01*
X1165111Y393623D01*
X1165181Y393553D01*
X1165249Y393480D01*
X1165314Y393405D01*
X1165376Y393327D01*
X1165434Y393247D01*
X1165490Y393164D01*
X1165542Y393080D01*
X1165592Y392993D01*
X1165637Y392905D01*
X1165680Y392815D01*
X1165719Y392723D01*
X1165754Y392630D01*
X1165786Y392536D01*
X1165814Y392441D01*
X1165839Y392345D01*
X1165860Y392247D01*
X1165877Y392149D01*
X1165890Y392051D01*
X1165899Y391952D01*
X1165905Y391852D01*
X1165907Y391753D01*
X1165907Y391104D01*
X1165908Y391104D02*
X1165906Y390991D01*
X1165900Y390878D01*
X1165890Y390765D01*
X1165876Y390652D01*
X1165859Y390540D01*
X1165837Y390429D01*
X1165812Y390319D01*
X1165782Y390209D01*
X1165749Y390101D01*
X1165712Y389994D01*
X1165672Y389888D01*
X1165627Y389784D01*
X1165579Y389681D01*
X1165528Y389580D01*
X1165473Y389481D01*
X1165415Y389384D01*
X1165353Y389289D01*
X1165288Y389196D01*
X1165220Y389106D01*
X1165149Y389018D01*
X1165074Y388932D01*
X1164997Y388849D01*
X1164917Y388769D01*
X1164834Y388692D01*
X1164748Y388617D01*
X1164660Y388546D01*
X1164570Y388478D01*
X1164477Y388413D01*
X1164382Y388351D01*
X1164285Y388293D01*
X1164186Y388238D01*
X1164085Y388187D01*
X1163982Y388139D01*
X1163878Y388094D01*
X1163772Y388054D01*
X1163665Y388017D01*
X1163557Y387984D01*
X1163447Y387954D01*
X1163337Y387929D01*
X1163226Y387907D01*
X1163114Y387890D01*
X1163001Y387876D01*
X1162888Y387866D01*
X1162775Y387860D01*
X1162662Y387858D01*
X1162549Y387860D01*
X1162436Y387866D01*
X1162323Y387876D01*
X1162210Y387890D01*
X1162098Y387907D01*
X1161987Y387929D01*
X1161877Y387954D01*
X1161767Y387984D01*
X1161659Y388017D01*
X1161552Y388054D01*
X1161446Y388094D01*
X1161342Y388139D01*
X1161239Y388187D01*
X1161138Y388238D01*
X1161039Y388293D01*
X1160942Y388351D01*
X1160847Y388413D01*
X1160754Y388478D01*
X1160664Y388546D01*
X1160576Y388617D01*
X1160490Y388692D01*
X1160407Y388769D01*
X1160327Y388849D01*
X1160250Y388932D01*
X1160175Y389018D01*
X1160104Y389106D01*
X1160036Y389196D01*
X1159971Y389289D01*
X1159909Y389384D01*
X1159851Y389481D01*
X1159796Y389580D01*
X1159745Y389681D01*
X1159697Y389784D01*
X1159652Y389888D01*
X1159612Y389994D01*
X1159575Y390101D01*
X1159542Y390209D01*
X1159512Y390319D01*
X1159487Y390429D01*
X1159465Y390540D01*
X1159448Y390652D01*
X1159434Y390765D01*
X1159424Y390878D01*
X1159418Y390991D01*
X1159416Y391104D01*
X1159416Y394349D01*
X1159418Y394492D01*
X1159424Y394635D01*
X1159434Y394778D01*
X1159448Y394920D01*
X1159465Y395062D01*
X1159487Y395204D01*
X1159512Y395345D01*
X1159542Y395485D01*
X1159575Y395624D01*
X1159612Y395762D01*
X1159653Y395899D01*
X1159697Y396035D01*
X1159746Y396170D01*
X1159798Y396303D01*
X1159853Y396435D01*
X1159913Y396565D01*
X1159976Y396694D01*
X1160042Y396821D01*
X1160112Y396945D01*
X1160185Y397068D01*
X1160262Y397189D01*
X1160342Y397308D01*
X1160425Y397424D01*
X1160511Y397539D01*
X1160600Y397650D01*
X1160693Y397760D01*
X1160788Y397866D01*
X1160887Y397970D01*
X1160988Y398071D01*
X1161092Y398170D01*
X1161198Y398265D01*
X1161308Y398358D01*
X1161419Y398447D01*
X1161534Y398533D01*
X1161650Y398616D01*
X1161769Y398696D01*
X1161890Y398773D01*
X1162012Y398846D01*
X1162137Y398916D01*
X1162264Y398982D01*
X1162393Y399045D01*
X1162523Y399105D01*
X1162655Y399160D01*
X1162788Y399212D01*
X1162923Y399261D01*
X1163059Y399305D01*
X1163196Y399346D01*
X1163334Y399383D01*
X1163473Y399416D01*
X1163613Y399446D01*
X1163754Y399471D01*
X1163896Y399493D01*
X1164038Y399510D01*
X1164180Y399524D01*
X1164323Y399534D01*
X1164466Y399540D01*
X1164609Y399542D01*
D11*
X713740Y567690D02*
X713740Y604520D01*
X717550Y608330D02*
X755650Y608330D01*
X759460Y604520D02*
X759460Y567690D01*
X721360Y560070D02*
X713740Y567690D01*
X719836Y566420D02*
X726186Y566420D01*
X722884Y569722D02*
X722884Y563118D01*
X751840Y560070D02*
X759460Y567690D01*
X751840Y560070D02*
X721360Y560070D01*
X713740Y604520D02*
X713742Y604642D01*
X713748Y604764D01*
X713758Y604886D01*
X713771Y605007D01*
X713789Y605128D01*
X713810Y605248D01*
X713836Y605368D01*
X713865Y605486D01*
X713897Y605604D01*
X713934Y605721D01*
X713974Y605836D01*
X714018Y605950D01*
X714066Y606062D01*
X714117Y606173D01*
X714172Y606282D01*
X714230Y606390D01*
X714292Y606495D01*
X714357Y606598D01*
X714425Y606700D01*
X714497Y606799D01*
X714571Y606895D01*
X714649Y606990D01*
X714730Y607081D01*
X714813Y607171D01*
X714899Y607257D01*
X714989Y607340D01*
X715080Y607421D01*
X715175Y607499D01*
X715271Y607573D01*
X715370Y607645D01*
X715472Y607713D01*
X715575Y607778D01*
X715680Y607840D01*
X715788Y607898D01*
X715897Y607953D01*
X716008Y608004D01*
X716120Y608052D01*
X716234Y608096D01*
X716349Y608136D01*
X716466Y608173D01*
X716584Y608205D01*
X716702Y608234D01*
X716822Y608260D01*
X716942Y608281D01*
X717063Y608299D01*
X717184Y608312D01*
X717306Y608322D01*
X717428Y608328D01*
X717550Y608330D01*
X755650Y608330D02*
X755772Y608328D01*
X755894Y608322D01*
X756016Y608312D01*
X756137Y608299D01*
X756258Y608281D01*
X756378Y608260D01*
X756498Y608234D01*
X756616Y608205D01*
X756734Y608173D01*
X756851Y608136D01*
X756966Y608096D01*
X757080Y608052D01*
X757192Y608004D01*
X757303Y607953D01*
X757412Y607898D01*
X757520Y607840D01*
X757625Y607778D01*
X757728Y607713D01*
X757830Y607645D01*
X757929Y607573D01*
X758025Y607499D01*
X758120Y607421D01*
X758211Y607340D01*
X758301Y607257D01*
X758387Y607171D01*
X758470Y607081D01*
X758551Y606990D01*
X758629Y606895D01*
X758703Y606799D01*
X758775Y606700D01*
X758843Y606598D01*
X758908Y606495D01*
X758970Y606390D01*
X759028Y606282D01*
X759083Y606173D01*
X759134Y606062D01*
X759182Y605950D01*
X759226Y605836D01*
X759266Y605721D01*
X759303Y605604D01*
X759335Y605486D01*
X759364Y605368D01*
X759390Y605248D01*
X759411Y605128D01*
X759429Y605007D01*
X759442Y604886D01*
X759452Y604764D01*
X759458Y604642D01*
X759460Y604520D01*
D12*
X710565Y570865D02*
X710565Y568325D01*
X710563Y568225D01*
X710557Y568126D01*
X710547Y568026D01*
X710534Y567928D01*
X710516Y567829D01*
X710495Y567732D01*
X710470Y567636D01*
X710441Y567540D01*
X710408Y567446D01*
X710372Y567353D01*
X710332Y567262D01*
X710288Y567172D01*
X710241Y567084D01*
X710191Y566998D01*
X710137Y566914D01*
X710080Y566832D01*
X710020Y566753D01*
X709956Y566675D01*
X709890Y566601D01*
X709821Y566529D01*
X709749Y566460D01*
X709675Y566394D01*
X709597Y566330D01*
X709518Y566270D01*
X709436Y566213D01*
X709352Y566159D01*
X709266Y566109D01*
X709178Y566062D01*
X709088Y566018D01*
X708997Y565978D01*
X708904Y565942D01*
X708810Y565909D01*
X708714Y565880D01*
X708618Y565855D01*
X708521Y565834D01*
X708422Y565816D01*
X708324Y565803D01*
X708224Y565793D01*
X708125Y565787D01*
X708025Y565785D01*
X701675Y565785D01*
X701575Y565787D01*
X701476Y565793D01*
X701376Y565803D01*
X701278Y565816D01*
X701179Y565834D01*
X701082Y565855D01*
X700986Y565880D01*
X700890Y565909D01*
X700796Y565942D01*
X700703Y565978D01*
X700612Y566018D01*
X700522Y566062D01*
X700434Y566109D01*
X700348Y566159D01*
X700264Y566213D01*
X700182Y566270D01*
X700103Y566330D01*
X700025Y566394D01*
X699951Y566460D01*
X699879Y566529D01*
X699810Y566601D01*
X699744Y566675D01*
X699680Y566753D01*
X699620Y566832D01*
X699563Y566914D01*
X699509Y566998D01*
X699459Y567084D01*
X699412Y567172D01*
X699368Y567262D01*
X699328Y567353D01*
X699292Y567446D01*
X699259Y567540D01*
X699230Y567636D01*
X699205Y567732D01*
X699184Y567829D01*
X699166Y567928D01*
X699153Y568026D01*
X699143Y568126D01*
X699137Y568225D01*
X699135Y568325D01*
X699135Y570865D01*
X699135Y575347D02*
X700405Y575347D01*
X699135Y575347D02*
X699135Y581697D01*
X710565Y578522D01*
D11*
X789940Y567690D02*
X789940Y604520D01*
X793750Y608330D02*
X831850Y608330D01*
X835660Y604520D02*
X835660Y567690D01*
X797560Y560070D02*
X789940Y567690D01*
X796036Y566420D02*
X802386Y566420D01*
X799084Y569722D02*
X799084Y563118D01*
X828040Y560070D02*
X835660Y567690D01*
X828040Y560070D02*
X797560Y560070D01*
X789940Y604520D02*
X789942Y604642D01*
X789948Y604764D01*
X789958Y604886D01*
X789971Y605007D01*
X789989Y605128D01*
X790010Y605248D01*
X790036Y605368D01*
X790065Y605486D01*
X790097Y605604D01*
X790134Y605721D01*
X790174Y605836D01*
X790218Y605950D01*
X790266Y606062D01*
X790317Y606173D01*
X790372Y606282D01*
X790430Y606390D01*
X790492Y606495D01*
X790557Y606598D01*
X790625Y606700D01*
X790697Y606799D01*
X790771Y606895D01*
X790849Y606990D01*
X790930Y607081D01*
X791013Y607171D01*
X791099Y607257D01*
X791189Y607340D01*
X791280Y607421D01*
X791375Y607499D01*
X791471Y607573D01*
X791570Y607645D01*
X791672Y607713D01*
X791775Y607778D01*
X791880Y607840D01*
X791988Y607898D01*
X792097Y607953D01*
X792208Y608004D01*
X792320Y608052D01*
X792434Y608096D01*
X792549Y608136D01*
X792666Y608173D01*
X792784Y608205D01*
X792902Y608234D01*
X793022Y608260D01*
X793142Y608281D01*
X793263Y608299D01*
X793384Y608312D01*
X793506Y608322D01*
X793628Y608328D01*
X793750Y608330D01*
X831850Y608330D02*
X831972Y608328D01*
X832094Y608322D01*
X832216Y608312D01*
X832337Y608299D01*
X832458Y608281D01*
X832578Y608260D01*
X832698Y608234D01*
X832816Y608205D01*
X832934Y608173D01*
X833051Y608136D01*
X833166Y608096D01*
X833280Y608052D01*
X833392Y608004D01*
X833503Y607953D01*
X833612Y607898D01*
X833720Y607840D01*
X833825Y607778D01*
X833928Y607713D01*
X834030Y607645D01*
X834129Y607573D01*
X834225Y607499D01*
X834320Y607421D01*
X834411Y607340D01*
X834501Y607257D01*
X834587Y607171D01*
X834670Y607081D01*
X834751Y606990D01*
X834829Y606895D01*
X834903Y606799D01*
X834975Y606700D01*
X835043Y606598D01*
X835108Y606495D01*
X835170Y606390D01*
X835228Y606282D01*
X835283Y606173D01*
X835334Y606062D01*
X835382Y605950D01*
X835426Y605836D01*
X835466Y605721D01*
X835503Y605604D01*
X835535Y605486D01*
X835564Y605368D01*
X835590Y605248D01*
X835611Y605128D01*
X835629Y605007D01*
X835642Y604886D01*
X835652Y604764D01*
X835658Y604642D01*
X835660Y604520D01*
D12*
X786765Y570865D02*
X786765Y568325D01*
X786763Y568225D01*
X786757Y568126D01*
X786747Y568026D01*
X786734Y567928D01*
X786716Y567829D01*
X786695Y567732D01*
X786670Y567636D01*
X786641Y567540D01*
X786608Y567446D01*
X786572Y567353D01*
X786532Y567262D01*
X786488Y567172D01*
X786441Y567084D01*
X786391Y566998D01*
X786337Y566914D01*
X786280Y566832D01*
X786220Y566753D01*
X786156Y566675D01*
X786090Y566601D01*
X786021Y566529D01*
X785949Y566460D01*
X785875Y566394D01*
X785797Y566330D01*
X785718Y566270D01*
X785636Y566213D01*
X785552Y566159D01*
X785466Y566109D01*
X785378Y566062D01*
X785288Y566018D01*
X785197Y565978D01*
X785104Y565942D01*
X785010Y565909D01*
X784914Y565880D01*
X784818Y565855D01*
X784721Y565834D01*
X784622Y565816D01*
X784524Y565803D01*
X784424Y565793D01*
X784325Y565787D01*
X784225Y565785D01*
X777875Y565785D01*
X777775Y565787D01*
X777676Y565793D01*
X777576Y565803D01*
X777478Y565816D01*
X777379Y565834D01*
X777282Y565855D01*
X777186Y565880D01*
X777090Y565909D01*
X776996Y565942D01*
X776903Y565978D01*
X776812Y566018D01*
X776722Y566062D01*
X776634Y566109D01*
X776548Y566159D01*
X776464Y566213D01*
X776382Y566270D01*
X776303Y566330D01*
X776225Y566394D01*
X776151Y566460D01*
X776079Y566529D01*
X776010Y566601D01*
X775944Y566675D01*
X775880Y566753D01*
X775820Y566832D01*
X775763Y566914D01*
X775709Y566998D01*
X775659Y567084D01*
X775612Y567172D01*
X775568Y567262D01*
X775528Y567353D01*
X775492Y567446D01*
X775459Y567540D01*
X775430Y567636D01*
X775405Y567732D01*
X775384Y567829D01*
X775366Y567928D01*
X775353Y568026D01*
X775343Y568126D01*
X775337Y568225D01*
X775335Y568325D01*
X775335Y570865D01*
X781685Y577887D02*
X781685Y581697D01*
X781685Y577887D02*
X781683Y577787D01*
X781677Y577688D01*
X781667Y577588D01*
X781654Y577490D01*
X781636Y577391D01*
X781615Y577294D01*
X781590Y577198D01*
X781561Y577102D01*
X781528Y577008D01*
X781492Y576915D01*
X781452Y576824D01*
X781408Y576734D01*
X781361Y576646D01*
X781311Y576560D01*
X781257Y576476D01*
X781200Y576394D01*
X781140Y576315D01*
X781076Y576237D01*
X781010Y576163D01*
X780941Y576091D01*
X780869Y576022D01*
X780795Y575956D01*
X780717Y575892D01*
X780638Y575832D01*
X780556Y575775D01*
X780472Y575721D01*
X780386Y575671D01*
X780298Y575624D01*
X780208Y575580D01*
X780117Y575540D01*
X780024Y575504D01*
X779930Y575471D01*
X779834Y575442D01*
X779738Y575417D01*
X779641Y575396D01*
X779542Y575378D01*
X779444Y575365D01*
X779344Y575355D01*
X779245Y575349D01*
X779145Y575347D01*
X778510Y575347D01*
X778399Y575349D01*
X778289Y575355D01*
X778178Y575364D01*
X778068Y575378D01*
X777959Y575395D01*
X777850Y575416D01*
X777742Y575441D01*
X777635Y575470D01*
X777529Y575502D01*
X777424Y575538D01*
X777321Y575578D01*
X777219Y575621D01*
X777118Y575668D01*
X777019Y575719D01*
X776923Y575772D01*
X776828Y575829D01*
X776735Y575890D01*
X776644Y575953D01*
X776555Y576020D01*
X776469Y576090D01*
X776386Y576163D01*
X776304Y576238D01*
X776226Y576316D01*
X776151Y576398D01*
X776078Y576481D01*
X776008Y576567D01*
X775941Y576656D01*
X775878Y576747D01*
X775817Y576840D01*
X775760Y576935D01*
X775707Y577031D01*
X775656Y577130D01*
X775609Y577231D01*
X775566Y577333D01*
X775526Y577436D01*
X775490Y577541D01*
X775458Y577647D01*
X775429Y577754D01*
X775404Y577862D01*
X775383Y577971D01*
X775366Y578080D01*
X775352Y578190D01*
X775343Y578301D01*
X775337Y578411D01*
X775335Y578522D01*
X775337Y578633D01*
X775343Y578743D01*
X775352Y578854D01*
X775366Y578964D01*
X775383Y579073D01*
X775404Y579182D01*
X775429Y579290D01*
X775458Y579397D01*
X775490Y579503D01*
X775526Y579608D01*
X775566Y579711D01*
X775609Y579813D01*
X775656Y579914D01*
X775707Y580013D01*
X775760Y580110D01*
X775817Y580204D01*
X775878Y580297D01*
X775941Y580388D01*
X776008Y580477D01*
X776078Y580563D01*
X776151Y580646D01*
X776226Y580728D01*
X776304Y580806D01*
X776386Y580881D01*
X776469Y580954D01*
X776555Y581024D01*
X776644Y581091D01*
X776735Y581154D01*
X776828Y581215D01*
X776923Y581272D01*
X777019Y581325D01*
X777118Y581376D01*
X777219Y581423D01*
X777321Y581466D01*
X777424Y581506D01*
X777529Y581542D01*
X777635Y581574D01*
X777742Y581603D01*
X777850Y581628D01*
X777959Y581649D01*
X778068Y581666D01*
X778178Y581680D01*
X778289Y581689D01*
X778399Y581695D01*
X778510Y581697D01*
X781685Y581697D01*
X781825Y581695D01*
X781965Y581689D01*
X782105Y581680D01*
X782244Y581666D01*
X782383Y581649D01*
X782521Y581628D01*
X782659Y581603D01*
X782796Y581574D01*
X782932Y581542D01*
X783067Y581505D01*
X783201Y581465D01*
X783334Y581422D01*
X783466Y581374D01*
X783597Y581324D01*
X783726Y581269D01*
X783853Y581211D01*
X783979Y581150D01*
X784103Y581085D01*
X784225Y581016D01*
X784345Y580945D01*
X784463Y580870D01*
X784580Y580792D01*
X784694Y580710D01*
X784805Y580626D01*
X784914Y580538D01*
X785021Y580448D01*
X785126Y580354D01*
X785227Y580258D01*
X785326Y580159D01*
X785422Y580058D01*
X785516Y579953D01*
X785606Y579846D01*
X785694Y579737D01*
X785778Y579626D01*
X785860Y579512D01*
X785938Y579395D01*
X786013Y579277D01*
X786084Y579157D01*
X786153Y579035D01*
X786218Y578911D01*
X786279Y578785D01*
X786337Y578658D01*
X786392Y578529D01*
X786442Y578398D01*
X786490Y578266D01*
X786533Y578133D01*
X786573Y577999D01*
X786610Y577864D01*
X786642Y577728D01*
X786671Y577591D01*
X786696Y577453D01*
X786717Y577315D01*
X786734Y577176D01*
X786748Y577037D01*
X786757Y576897D01*
X786763Y576757D01*
X786765Y576617D01*
D13*
X825200Y387000D02*
X834200Y387000D01*
X851200Y387000D01*
X851200Y375000D01*
X834200Y375000D01*
X825200Y375000D01*
X834200Y375000D02*
X834200Y387000D01*
D11*
X834898Y386334D02*
X834898Y375666D01*
X824738Y375666D02*
X824738Y386334D01*
D14*
X835533Y386969D02*
X835533Y375031D01*
X835533Y386969D02*
X835406Y386969D01*
X825373Y375006D02*
X824230Y375006D01*
X824230Y375666D01*
X824230Y386994D02*
X825246Y386994D01*
X824230Y386994D02*
X824230Y386334D01*
X825373Y386969D02*
X825373Y375158D01*
D10*
X829049Y394557D02*
X829049Y406241D01*
X832295Y406241D01*
X832408Y406239D01*
X832521Y406233D01*
X832634Y406223D01*
X832747Y406209D01*
X832859Y406192D01*
X832970Y406170D01*
X833080Y406145D01*
X833190Y406115D01*
X833298Y406082D01*
X833405Y406045D01*
X833511Y406005D01*
X833615Y405960D01*
X833718Y405912D01*
X833819Y405861D01*
X833918Y405806D01*
X834015Y405748D01*
X834110Y405686D01*
X834203Y405621D01*
X834293Y405553D01*
X834381Y405482D01*
X834467Y405407D01*
X834550Y405330D01*
X834630Y405250D01*
X834707Y405167D01*
X834782Y405081D01*
X834853Y404993D01*
X834921Y404903D01*
X834986Y404810D01*
X835048Y404715D01*
X835106Y404618D01*
X835161Y404519D01*
X835212Y404418D01*
X835260Y404315D01*
X835305Y404211D01*
X835345Y404105D01*
X835382Y403998D01*
X835415Y403890D01*
X835445Y403780D01*
X835470Y403670D01*
X835492Y403559D01*
X835509Y403447D01*
X835523Y403334D01*
X835533Y403221D01*
X835539Y403108D01*
X835541Y402995D01*
X835540Y402995D02*
X835540Y397803D01*
X835541Y397803D02*
X835539Y397690D01*
X835533Y397577D01*
X835523Y397464D01*
X835509Y397351D01*
X835492Y397239D01*
X835470Y397128D01*
X835445Y397018D01*
X835415Y396908D01*
X835382Y396800D01*
X835345Y396693D01*
X835305Y396587D01*
X835260Y396483D01*
X835212Y396380D01*
X835161Y396279D01*
X835106Y396180D01*
X835048Y396083D01*
X834986Y395988D01*
X834921Y395895D01*
X834853Y395805D01*
X834782Y395717D01*
X834707Y395631D01*
X834630Y395548D01*
X834550Y395468D01*
X834467Y395391D01*
X834381Y395316D01*
X834293Y395245D01*
X834203Y395177D01*
X834110Y395112D01*
X834015Y395050D01*
X833918Y394992D01*
X833819Y394937D01*
X833718Y394886D01*
X833615Y394838D01*
X833511Y394793D01*
X833405Y394753D01*
X833298Y394716D01*
X833190Y394683D01*
X833080Y394653D01*
X832970Y394628D01*
X832859Y394606D01*
X832747Y394589D01*
X832634Y394575D01*
X832521Y394565D01*
X832408Y394559D01*
X832295Y394557D01*
X829049Y394557D01*
X840860Y403645D02*
X844105Y406241D01*
X844105Y394557D01*
X840860Y394557D02*
X847351Y394557D01*
D13*
X952200Y387000D02*
X961200Y387000D01*
X978200Y387000D01*
X978200Y375000D01*
X961200Y375000D01*
X952200Y375000D01*
X961200Y375000D02*
X961200Y387000D01*
D11*
X961898Y386334D02*
X961898Y375666D01*
X951738Y375666D02*
X951738Y386334D01*
D14*
X962533Y386969D02*
X962533Y375031D01*
X962533Y386969D02*
X962406Y386969D01*
X952373Y375006D02*
X951230Y375006D01*
X951230Y375666D01*
X951230Y386994D02*
X952246Y386994D01*
X951230Y386994D02*
X951230Y386334D01*
X952373Y386969D02*
X952373Y375158D01*
D10*
X956049Y394557D02*
X956049Y406241D01*
X959295Y406241D01*
X959408Y406239D01*
X959521Y406233D01*
X959634Y406223D01*
X959747Y406209D01*
X959859Y406192D01*
X959970Y406170D01*
X960080Y406145D01*
X960190Y406115D01*
X960298Y406082D01*
X960405Y406045D01*
X960511Y406005D01*
X960615Y405960D01*
X960718Y405912D01*
X960819Y405861D01*
X960918Y405806D01*
X961015Y405748D01*
X961110Y405686D01*
X961203Y405621D01*
X961293Y405553D01*
X961381Y405482D01*
X961467Y405407D01*
X961550Y405330D01*
X961630Y405250D01*
X961707Y405167D01*
X961782Y405081D01*
X961853Y404993D01*
X961921Y404903D01*
X961986Y404810D01*
X962048Y404715D01*
X962106Y404618D01*
X962161Y404519D01*
X962212Y404418D01*
X962260Y404315D01*
X962305Y404211D01*
X962345Y404105D01*
X962382Y403998D01*
X962415Y403890D01*
X962445Y403780D01*
X962470Y403670D01*
X962492Y403559D01*
X962509Y403447D01*
X962523Y403334D01*
X962533Y403221D01*
X962539Y403108D01*
X962541Y402995D01*
X962540Y402995D02*
X962540Y397803D01*
X962541Y397803D02*
X962539Y397690D01*
X962533Y397577D01*
X962523Y397464D01*
X962509Y397351D01*
X962492Y397239D01*
X962470Y397128D01*
X962445Y397018D01*
X962415Y396908D01*
X962382Y396800D01*
X962345Y396693D01*
X962305Y396587D01*
X962260Y396483D01*
X962212Y396380D01*
X962161Y396279D01*
X962106Y396180D01*
X962048Y396083D01*
X961986Y395988D01*
X961921Y395895D01*
X961853Y395805D01*
X961782Y395717D01*
X961707Y395631D01*
X961630Y395548D01*
X961550Y395468D01*
X961467Y395391D01*
X961381Y395316D01*
X961293Y395245D01*
X961203Y395177D01*
X961110Y395112D01*
X961015Y395050D01*
X960918Y394992D01*
X960819Y394937D01*
X960718Y394886D01*
X960615Y394838D01*
X960511Y394793D01*
X960405Y394753D01*
X960298Y394716D01*
X960190Y394683D01*
X960080Y394653D01*
X959970Y394628D01*
X959859Y394606D01*
X959747Y394589D01*
X959634Y394575D01*
X959521Y394565D01*
X959408Y394559D01*
X959295Y394557D01*
X956049Y394557D01*
X971430Y406241D02*
X971537Y406239D01*
X971643Y406233D01*
X971749Y406223D01*
X971855Y406210D01*
X971961Y406192D01*
X972065Y406171D01*
X972169Y406146D01*
X972272Y406117D01*
X972373Y406085D01*
X972473Y406048D01*
X972572Y406008D01*
X972670Y405965D01*
X972766Y405918D01*
X972860Y405867D01*
X972952Y405813D01*
X973042Y405756D01*
X973130Y405696D01*
X973215Y405632D01*
X973298Y405565D01*
X973379Y405495D01*
X973457Y405423D01*
X973533Y405347D01*
X973605Y405269D01*
X973675Y405188D01*
X973742Y405105D01*
X973806Y405020D01*
X973866Y404932D01*
X973923Y404842D01*
X973977Y404750D01*
X974028Y404656D01*
X974075Y404560D01*
X974118Y404462D01*
X974158Y404363D01*
X974195Y404263D01*
X974227Y404162D01*
X974256Y404059D01*
X974281Y403955D01*
X974302Y403851D01*
X974320Y403745D01*
X974333Y403639D01*
X974343Y403533D01*
X974349Y403427D01*
X974351Y403320D01*
X971430Y406241D02*
X971309Y406239D01*
X971188Y406233D01*
X971068Y406223D01*
X970947Y406210D01*
X970828Y406192D01*
X970708Y406171D01*
X970590Y406146D01*
X970473Y406117D01*
X970356Y406084D01*
X970241Y406048D01*
X970127Y406007D01*
X970014Y405964D01*
X969902Y405916D01*
X969793Y405865D01*
X969685Y405810D01*
X969578Y405752D01*
X969474Y405691D01*
X969372Y405626D01*
X969272Y405558D01*
X969174Y405487D01*
X969078Y405413D01*
X968985Y405336D01*
X968895Y405255D01*
X968807Y405172D01*
X968722Y405086D01*
X968639Y404997D01*
X968560Y404906D01*
X968483Y404812D01*
X968410Y404716D01*
X968340Y404618D01*
X968273Y404517D01*
X968209Y404414D01*
X968149Y404309D01*
X968092Y404202D01*
X968038Y404094D01*
X967988Y403984D01*
X967942Y403872D01*
X967899Y403759D01*
X967860Y403644D01*
X973378Y401048D02*
X973457Y401125D01*
X973533Y401206D01*
X973606Y401289D01*
X973676Y401374D01*
X973743Y401462D01*
X973807Y401552D01*
X973867Y401644D01*
X973924Y401739D01*
X973978Y401835D01*
X974029Y401933D01*
X974076Y402033D01*
X974120Y402135D01*
X974160Y402238D01*
X974196Y402342D01*
X974228Y402448D01*
X974257Y402554D01*
X974282Y402662D01*
X974304Y402770D01*
X974321Y402880D01*
X974335Y402989D01*
X974344Y403099D01*
X974350Y403210D01*
X974352Y403320D01*
X973377Y401048D02*
X967860Y394557D01*
X974351Y394557D01*
D15*
X1187600Y287200D02*
X699600Y287200D01*
X1187600Y287200D02*
X1187600Y108700D01*
X699600Y108700D01*
X699600Y287200D01*
D16*
X863600Y291700D03*
D17*
X863662Y291702D01*
X863723Y291708D01*
X863784Y291717D01*
X863844Y291730D01*
X863903Y291747D01*
X863961Y291768D01*
X864018Y291792D01*
X864073Y291819D01*
X864126Y291850D01*
X864178Y291884D01*
X864227Y291921D01*
X864274Y291961D01*
X864318Y292004D01*
X864359Y292049D01*
X864398Y292097D01*
X864434Y292148D01*
X864466Y292200D01*
X864495Y292254D01*
X864521Y292310D01*
X864543Y292368D01*
X864562Y292426D01*
X864577Y292486D01*
X864588Y292547D01*
X864596Y292608D01*
X864600Y292669D01*
X864600Y292731D01*
X864596Y292792D01*
X864588Y292853D01*
X864577Y292914D01*
X864562Y292974D01*
X864543Y293032D01*
X864521Y293090D01*
X864495Y293146D01*
X864466Y293200D01*
X864434Y293252D01*
X864398Y293303D01*
X864359Y293351D01*
X864318Y293396D01*
X864274Y293439D01*
X864227Y293479D01*
X864178Y293516D01*
X864126Y293550D01*
X864073Y293581D01*
X864018Y293608D01*
X863961Y293632D01*
X863903Y293653D01*
X863844Y293670D01*
X863784Y293683D01*
X863723Y293692D01*
X863662Y293698D01*
X863600Y293700D01*
D16*
X863600Y293700D03*
D17*
X863538Y293698D01*
X863477Y293692D01*
X863416Y293683D01*
X863356Y293670D01*
X863297Y293653D01*
X863239Y293632D01*
X863182Y293608D01*
X863127Y293581D01*
X863074Y293550D01*
X863022Y293516D01*
X862973Y293479D01*
X862926Y293439D01*
X862882Y293396D01*
X862841Y293351D01*
X862802Y293303D01*
X862766Y293252D01*
X862734Y293200D01*
X862705Y293146D01*
X862679Y293090D01*
X862657Y293032D01*
X862638Y292974D01*
X862623Y292914D01*
X862612Y292853D01*
X862604Y292792D01*
X862600Y292731D01*
X862600Y292669D01*
X862604Y292608D01*
X862612Y292547D01*
X862623Y292486D01*
X862638Y292426D01*
X862657Y292368D01*
X862679Y292310D01*
X862705Y292254D01*
X862734Y292200D01*
X862766Y292148D01*
X862802Y292097D01*
X862841Y292049D01*
X862882Y292004D01*
X862926Y291961D01*
X862973Y291921D01*
X863022Y291884D01*
X863074Y291850D01*
X863127Y291819D01*
X863182Y291792D01*
X863239Y291768D01*
X863297Y291747D01*
X863356Y291730D01*
X863416Y291717D01*
X863477Y291708D01*
X863538Y291702D01*
X863600Y291700D01*
D10*
X939665Y107292D02*
X939665Y98204D01*
X939663Y98105D01*
X939657Y98005D01*
X939648Y97906D01*
X939635Y97808D01*
X939618Y97710D01*
X939597Y97612D01*
X939572Y97516D01*
X939544Y97421D01*
X939512Y97327D01*
X939477Y97234D01*
X939438Y97142D01*
X939395Y97052D01*
X939350Y96964D01*
X939300Y96877D01*
X939248Y96793D01*
X939192Y96710D01*
X939134Y96630D01*
X939072Y96552D01*
X939007Y96477D01*
X938939Y96404D01*
X938869Y96334D01*
X938796Y96266D01*
X938721Y96201D01*
X938643Y96139D01*
X938563Y96081D01*
X938480Y96025D01*
X938396Y95973D01*
X938309Y95923D01*
X938221Y95878D01*
X938131Y95835D01*
X938039Y95796D01*
X937946Y95761D01*
X937852Y95729D01*
X937757Y95701D01*
X937661Y95676D01*
X937563Y95655D01*
X937465Y95638D01*
X937367Y95625D01*
X937268Y95616D01*
X937168Y95610D01*
X937069Y95608D01*
X935770Y95608D01*
X944939Y104696D02*
X948184Y107292D01*
X948184Y95608D01*
X944939Y95608D02*
X951430Y95608D01*
D18*
X729350Y386250D03*
D19*
X736600Y381000D03*
D10*
X722108Y391508D02*
X722108Y403192D01*
X722108Y391508D02*
X727301Y391508D01*
X732014Y391508D02*
X737207Y391508D01*
X732014Y391508D02*
X732014Y403192D01*
X737207Y403192D01*
X735909Y397999D02*
X732014Y397999D01*
X741897Y403192D02*
X741897Y391508D01*
X741897Y403192D02*
X745143Y403192D01*
X745256Y403190D01*
X745369Y403184D01*
X745482Y403174D01*
X745595Y403160D01*
X745707Y403143D01*
X745818Y403121D01*
X745928Y403096D01*
X746038Y403066D01*
X746146Y403033D01*
X746253Y402996D01*
X746359Y402956D01*
X746463Y402911D01*
X746566Y402863D01*
X746667Y402812D01*
X746766Y402757D01*
X746863Y402699D01*
X746958Y402637D01*
X747051Y402572D01*
X747141Y402504D01*
X747229Y402433D01*
X747315Y402358D01*
X747398Y402281D01*
X747478Y402201D01*
X747555Y402118D01*
X747630Y402032D01*
X747701Y401944D01*
X747769Y401854D01*
X747834Y401761D01*
X747896Y401666D01*
X747954Y401569D01*
X748009Y401470D01*
X748060Y401369D01*
X748108Y401266D01*
X748153Y401162D01*
X748193Y401056D01*
X748230Y400949D01*
X748263Y400841D01*
X748293Y400731D01*
X748318Y400621D01*
X748340Y400510D01*
X748357Y400398D01*
X748371Y400285D01*
X748381Y400172D01*
X748387Y400059D01*
X748389Y399946D01*
X748389Y394754D01*
X748387Y394641D01*
X748381Y394528D01*
X748371Y394415D01*
X748357Y394302D01*
X748340Y394190D01*
X748318Y394079D01*
X748293Y393969D01*
X748263Y393859D01*
X748230Y393751D01*
X748193Y393644D01*
X748153Y393538D01*
X748108Y393434D01*
X748060Y393331D01*
X748009Y393230D01*
X747954Y393131D01*
X747896Y393034D01*
X747834Y392939D01*
X747769Y392846D01*
X747701Y392756D01*
X747630Y392668D01*
X747555Y392582D01*
X747478Y392499D01*
X747398Y392419D01*
X747315Y392342D01*
X747229Y392267D01*
X747141Y392196D01*
X747051Y392128D01*
X746958Y392063D01*
X746863Y392001D01*
X746766Y391943D01*
X746667Y391888D01*
X746566Y391837D01*
X746463Y391789D01*
X746359Y391744D01*
X746253Y391704D01*
X746146Y391667D01*
X746038Y391634D01*
X745928Y391604D01*
X745818Y391579D01*
X745707Y391557D01*
X745595Y391540D01*
X745482Y391526D01*
X745369Y391516D01*
X745256Y391510D01*
X745143Y391508D01*
X741897Y391508D01*
X753215Y390210D02*
X758407Y390210D01*
X763256Y391508D02*
X763256Y403192D01*
X768449Y403192D01*
X768449Y397999D02*
X763256Y397999D01*
X773309Y397999D02*
X776554Y397999D01*
X776554Y398000D02*
X776667Y397998D01*
X776780Y397992D01*
X776893Y397982D01*
X777006Y397968D01*
X777118Y397951D01*
X777229Y397929D01*
X777339Y397904D01*
X777449Y397874D01*
X777557Y397841D01*
X777664Y397804D01*
X777770Y397764D01*
X777874Y397719D01*
X777977Y397671D01*
X778078Y397620D01*
X778177Y397565D01*
X778274Y397507D01*
X778369Y397445D01*
X778462Y397380D01*
X778552Y397312D01*
X778640Y397241D01*
X778726Y397166D01*
X778809Y397089D01*
X778889Y397009D01*
X778966Y396926D01*
X779041Y396840D01*
X779112Y396752D01*
X779180Y396662D01*
X779245Y396569D01*
X779307Y396474D01*
X779365Y396377D01*
X779420Y396278D01*
X779471Y396177D01*
X779519Y396074D01*
X779564Y395970D01*
X779604Y395864D01*
X779641Y395757D01*
X779674Y395649D01*
X779704Y395539D01*
X779729Y395429D01*
X779751Y395318D01*
X779768Y395206D01*
X779782Y395093D01*
X779792Y394980D01*
X779798Y394867D01*
X779800Y394754D01*
X779798Y394641D01*
X779792Y394528D01*
X779782Y394415D01*
X779768Y394302D01*
X779751Y394190D01*
X779729Y394079D01*
X779704Y393969D01*
X779674Y393859D01*
X779641Y393751D01*
X779604Y393644D01*
X779564Y393538D01*
X779519Y393434D01*
X779471Y393331D01*
X779420Y393230D01*
X779365Y393131D01*
X779307Y393034D01*
X779245Y392939D01*
X779180Y392846D01*
X779112Y392756D01*
X779041Y392668D01*
X778966Y392582D01*
X778889Y392499D01*
X778809Y392419D01*
X778726Y392342D01*
X778640Y392267D01*
X778552Y392196D01*
X778462Y392128D01*
X778369Y392063D01*
X778274Y392001D01*
X778177Y391943D01*
X778078Y391888D01*
X777977Y391837D01*
X777874Y391789D01*
X777770Y391744D01*
X777664Y391704D01*
X777557Y391667D01*
X777449Y391634D01*
X777339Y391604D01*
X777229Y391579D01*
X777118Y391557D01*
X777006Y391540D01*
X776893Y391526D01*
X776780Y391516D01*
X776667Y391510D01*
X776554Y391508D01*
X773309Y391508D01*
X773309Y403192D01*
X776554Y403192D01*
X776655Y403190D01*
X776755Y403184D01*
X776855Y403174D01*
X776955Y403161D01*
X777054Y403143D01*
X777153Y403122D01*
X777250Y403097D01*
X777347Y403068D01*
X777442Y403035D01*
X777536Y402999D01*
X777628Y402959D01*
X777719Y402916D01*
X777808Y402869D01*
X777895Y402819D01*
X777981Y402765D01*
X778064Y402708D01*
X778144Y402648D01*
X778223Y402585D01*
X778299Y402518D01*
X778372Y402449D01*
X778442Y402377D01*
X778510Y402303D01*
X778575Y402226D01*
X778636Y402146D01*
X778695Y402064D01*
X778750Y401980D01*
X778802Y401894D01*
X778851Y401806D01*
X778896Y401716D01*
X778938Y401624D01*
X778976Y401531D01*
X779010Y401436D01*
X779041Y401341D01*
X779068Y401244D01*
X779091Y401146D01*
X779111Y401047D01*
X779126Y400947D01*
X779138Y400847D01*
X779146Y400747D01*
X779150Y400646D01*
X779150Y400546D01*
X779146Y400445D01*
X779138Y400345D01*
X779126Y400245D01*
X779111Y400145D01*
X779091Y400046D01*
X779068Y399948D01*
X779041Y399851D01*
X779010Y399756D01*
X778976Y399661D01*
X778938Y399568D01*
X778896Y399476D01*
X778851Y399386D01*
X778802Y399298D01*
X778750Y399212D01*
X778695Y399128D01*
X778636Y399046D01*
X778575Y398966D01*
X778510Y398889D01*
X778442Y398815D01*
X778372Y398743D01*
X778299Y398674D01*
X778223Y398607D01*
X778144Y398544D01*
X778064Y398484D01*
X777981Y398427D01*
X777895Y398373D01*
X777808Y398323D01*
X777719Y398276D01*
X777628Y398233D01*
X777536Y398193D01*
X777442Y398157D01*
X777347Y398124D01*
X777250Y398095D01*
X777153Y398070D01*
X777054Y398049D01*
X776955Y398031D01*
X776855Y398018D01*
X776755Y398008D01*
X776655Y398002D01*
X776554Y398000D01*
D18*
X729350Y335450D03*
D19*
X736600Y330200D03*
D10*
X722108Y340708D02*
X722108Y352392D01*
X722108Y340708D02*
X727301Y340708D01*
X732014Y340708D02*
X737207Y340708D01*
X732014Y340708D02*
X732014Y352392D01*
X737207Y352392D01*
X735909Y347199D02*
X732014Y347199D01*
X741897Y352392D02*
X741897Y340708D01*
X741897Y352392D02*
X745143Y352392D01*
X745256Y352390D01*
X745369Y352384D01*
X745482Y352374D01*
X745595Y352360D01*
X745707Y352343D01*
X745818Y352321D01*
X745928Y352296D01*
X746038Y352266D01*
X746146Y352233D01*
X746253Y352196D01*
X746359Y352156D01*
X746463Y352111D01*
X746566Y352063D01*
X746667Y352012D01*
X746766Y351957D01*
X746863Y351899D01*
X746958Y351837D01*
X747051Y351772D01*
X747141Y351704D01*
X747229Y351633D01*
X747315Y351558D01*
X747398Y351481D01*
X747478Y351401D01*
X747555Y351318D01*
X747630Y351232D01*
X747701Y351144D01*
X747769Y351054D01*
X747834Y350961D01*
X747896Y350866D01*
X747954Y350769D01*
X748009Y350670D01*
X748060Y350569D01*
X748108Y350466D01*
X748153Y350362D01*
X748193Y350256D01*
X748230Y350149D01*
X748263Y350041D01*
X748293Y349931D01*
X748318Y349821D01*
X748340Y349710D01*
X748357Y349598D01*
X748371Y349485D01*
X748381Y349372D01*
X748387Y349259D01*
X748389Y349146D01*
X748389Y343954D01*
X748387Y343841D01*
X748381Y343728D01*
X748371Y343615D01*
X748357Y343502D01*
X748340Y343390D01*
X748318Y343279D01*
X748293Y343169D01*
X748263Y343059D01*
X748230Y342951D01*
X748193Y342844D01*
X748153Y342738D01*
X748108Y342634D01*
X748060Y342531D01*
X748009Y342430D01*
X747954Y342331D01*
X747896Y342234D01*
X747834Y342139D01*
X747769Y342046D01*
X747701Y341956D01*
X747630Y341868D01*
X747555Y341782D01*
X747478Y341699D01*
X747398Y341619D01*
X747315Y341542D01*
X747229Y341467D01*
X747141Y341396D01*
X747051Y341328D01*
X746958Y341263D01*
X746863Y341201D01*
X746766Y341143D01*
X746667Y341088D01*
X746566Y341037D01*
X746463Y340989D01*
X746359Y340944D01*
X746253Y340904D01*
X746146Y340867D01*
X746038Y340834D01*
X745928Y340804D01*
X745818Y340779D01*
X745707Y340757D01*
X745595Y340740D01*
X745482Y340726D01*
X745369Y340716D01*
X745256Y340710D01*
X745143Y340708D01*
X741897Y340708D01*
X753215Y339410D02*
X758407Y339410D01*
X763256Y340708D02*
X763256Y352392D01*
X768449Y352392D01*
X768449Y347199D02*
X763256Y347199D01*
X772335Y352392D02*
X774932Y340708D01*
X777528Y348497D01*
X780124Y340708D01*
X782721Y352392D01*
D18*
X729350Y437050D03*
D19*
X736600Y431800D03*
D10*
X722108Y442308D02*
X722108Y453992D01*
X722108Y442308D02*
X727301Y442308D01*
X732014Y442308D02*
X737207Y442308D01*
X732014Y442308D02*
X732014Y453992D01*
X737207Y453992D01*
X735909Y448799D02*
X732014Y448799D01*
X741897Y453992D02*
X741897Y442308D01*
X741897Y453992D02*
X745143Y453992D01*
X745256Y453990D01*
X745369Y453984D01*
X745482Y453974D01*
X745595Y453960D01*
X745707Y453943D01*
X745818Y453921D01*
X745928Y453896D01*
X746038Y453866D01*
X746146Y453833D01*
X746253Y453796D01*
X746359Y453756D01*
X746463Y453711D01*
X746566Y453663D01*
X746667Y453612D01*
X746766Y453557D01*
X746863Y453499D01*
X746958Y453437D01*
X747051Y453372D01*
X747141Y453304D01*
X747229Y453233D01*
X747315Y453158D01*
X747398Y453081D01*
X747478Y453001D01*
X747555Y452918D01*
X747630Y452832D01*
X747701Y452744D01*
X747769Y452654D01*
X747834Y452561D01*
X747896Y452466D01*
X747954Y452369D01*
X748009Y452270D01*
X748060Y452169D01*
X748108Y452066D01*
X748153Y451962D01*
X748193Y451856D01*
X748230Y451749D01*
X748263Y451641D01*
X748293Y451531D01*
X748318Y451421D01*
X748340Y451310D01*
X748357Y451198D01*
X748371Y451085D01*
X748381Y450972D01*
X748387Y450859D01*
X748389Y450746D01*
X748389Y445554D01*
X748387Y445441D01*
X748381Y445328D01*
X748371Y445215D01*
X748357Y445102D01*
X748340Y444990D01*
X748318Y444879D01*
X748293Y444769D01*
X748263Y444659D01*
X748230Y444551D01*
X748193Y444444D01*
X748153Y444338D01*
X748108Y444234D01*
X748060Y444131D01*
X748009Y444030D01*
X747954Y443931D01*
X747896Y443834D01*
X747834Y443739D01*
X747769Y443646D01*
X747701Y443556D01*
X747630Y443468D01*
X747555Y443382D01*
X747478Y443299D01*
X747398Y443219D01*
X747315Y443142D01*
X747229Y443067D01*
X747141Y442996D01*
X747051Y442928D01*
X746958Y442863D01*
X746863Y442801D01*
X746766Y442743D01*
X746667Y442688D01*
X746566Y442637D01*
X746463Y442589D01*
X746359Y442544D01*
X746253Y442504D01*
X746146Y442467D01*
X746038Y442434D01*
X745928Y442404D01*
X745818Y442379D01*
X745707Y442357D01*
X745595Y442340D01*
X745482Y442326D01*
X745369Y442316D01*
X745256Y442310D01*
X745143Y442308D01*
X741897Y442308D01*
X753215Y441010D02*
X758407Y441010D01*
X766366Y442308D02*
X766465Y442310D01*
X766565Y442316D01*
X766664Y442325D01*
X766762Y442338D01*
X766860Y442355D01*
X766958Y442376D01*
X767054Y442401D01*
X767149Y442429D01*
X767243Y442461D01*
X767336Y442496D01*
X767428Y442535D01*
X767518Y442578D01*
X767606Y442623D01*
X767693Y442673D01*
X767777Y442725D01*
X767860Y442781D01*
X767940Y442839D01*
X768018Y442901D01*
X768093Y442966D01*
X768166Y443034D01*
X768236Y443104D01*
X768304Y443177D01*
X768369Y443252D01*
X768431Y443330D01*
X768489Y443410D01*
X768545Y443493D01*
X768597Y443577D01*
X768647Y443664D01*
X768692Y443752D01*
X768735Y443842D01*
X768774Y443934D01*
X768809Y444027D01*
X768841Y444121D01*
X768869Y444216D01*
X768894Y444312D01*
X768915Y444410D01*
X768932Y444508D01*
X768945Y444606D01*
X768954Y444705D01*
X768960Y444805D01*
X768962Y444904D01*
X766366Y442308D02*
X766222Y442310D01*
X766077Y442316D01*
X765933Y442325D01*
X765790Y442338D01*
X765646Y442355D01*
X765503Y442376D01*
X765361Y442401D01*
X765220Y442429D01*
X765079Y442461D01*
X764939Y442497D01*
X764800Y442536D01*
X764662Y442579D01*
X764526Y442626D01*
X764390Y442676D01*
X764256Y442730D01*
X764124Y442787D01*
X763993Y442848D01*
X763864Y442912D01*
X763736Y442980D01*
X763610Y443050D01*
X763486Y443125D01*
X763365Y443202D01*
X763245Y443283D01*
X763127Y443366D01*
X763012Y443453D01*
X762899Y443543D01*
X762788Y443636D01*
X762680Y443731D01*
X762574Y443830D01*
X762471Y443931D01*
X762796Y451396D02*
X762798Y451495D01*
X762804Y451595D01*
X762813Y451694D01*
X762826Y451792D01*
X762843Y451890D01*
X762864Y451988D01*
X762889Y452084D01*
X762917Y452179D01*
X762949Y452273D01*
X762984Y452366D01*
X763023Y452458D01*
X763066Y452548D01*
X763111Y452636D01*
X763161Y452723D01*
X763213Y452807D01*
X763269Y452890D01*
X763327Y452970D01*
X763389Y453048D01*
X763454Y453123D01*
X763522Y453196D01*
X763592Y453266D01*
X763665Y453334D01*
X763740Y453399D01*
X763818Y453461D01*
X763898Y453519D01*
X763981Y453575D01*
X764065Y453627D01*
X764152Y453677D01*
X764240Y453722D01*
X764330Y453765D01*
X764422Y453804D01*
X764515Y453839D01*
X764609Y453871D01*
X764704Y453899D01*
X764801Y453924D01*
X764898Y453945D01*
X764996Y453962D01*
X765094Y453975D01*
X765193Y453984D01*
X765293Y453990D01*
X765392Y453992D01*
X765528Y453990D01*
X765664Y453984D01*
X765800Y453975D01*
X765936Y453962D01*
X766071Y453944D01*
X766205Y453924D01*
X766339Y453899D01*
X766473Y453871D01*
X766605Y453838D01*
X766736Y453803D01*
X766867Y453763D01*
X766996Y453720D01*
X767124Y453674D01*
X767250Y453623D01*
X767376Y453570D01*
X767499Y453512D01*
X767621Y453452D01*
X767741Y453388D01*
X767860Y453320D01*
X767976Y453250D01*
X768090Y453176D01*
X768203Y453099D01*
X768313Y453018D01*
X764094Y449124D02*
X764008Y449177D01*
X763924Y449234D01*
X763842Y449293D01*
X763762Y449356D01*
X763685Y449422D01*
X763610Y449490D01*
X763538Y449562D01*
X763469Y449636D01*
X763403Y449713D01*
X763340Y449792D01*
X763280Y449874D01*
X763223Y449958D01*
X763169Y450044D01*
X763119Y450132D01*
X763072Y450222D01*
X763028Y450313D01*
X762989Y450407D01*
X762952Y450501D01*
X762920Y450597D01*
X762891Y450695D01*
X762866Y450793D01*
X762845Y450892D01*
X762827Y450992D01*
X762814Y451092D01*
X762804Y451193D01*
X762798Y451295D01*
X762796Y451396D01*
X767664Y447176D02*
X767750Y447123D01*
X767834Y447066D01*
X767916Y447007D01*
X767996Y446944D01*
X768073Y446878D01*
X768148Y446810D01*
X768220Y446738D01*
X768289Y446664D01*
X768355Y446587D01*
X768418Y446508D01*
X768478Y446426D01*
X768535Y446342D01*
X768589Y446256D01*
X768639Y446168D01*
X768686Y446078D01*
X768730Y445987D01*
X768769Y445893D01*
X768806Y445799D01*
X768838Y445703D01*
X768867Y445605D01*
X768892Y445507D01*
X768913Y445408D01*
X768931Y445308D01*
X768944Y445208D01*
X768954Y445107D01*
X768960Y445005D01*
X768962Y444904D01*
X767664Y447176D02*
X764094Y449124D01*
X773924Y453992D02*
X773924Y442308D01*
X773924Y453992D02*
X779117Y453992D01*
X779117Y448799D02*
X773924Y448799D01*
D20*
X948480Y426434D03*
D21*
X939700Y427100D02*
X939700Y428934D01*
X939700Y427100D02*
X863700Y427100D01*
X863700Y428934D01*
X939700Y536266D02*
X939700Y538100D01*
X863700Y538100D01*
X863700Y536266D01*
D10*
X864221Y417076D02*
X864221Y405392D01*
X868116Y410585D02*
X864221Y417076D01*
X868116Y410585D02*
X872010Y417076D01*
X872010Y405392D01*
X880006Y405392D02*
X882603Y405392D01*
X880006Y405392D02*
X879907Y405394D01*
X879807Y405400D01*
X879708Y405409D01*
X879610Y405422D01*
X879512Y405439D01*
X879414Y405460D01*
X879318Y405485D01*
X879223Y405513D01*
X879129Y405545D01*
X879036Y405580D01*
X878944Y405619D01*
X878854Y405662D01*
X878766Y405707D01*
X878679Y405757D01*
X878595Y405809D01*
X878512Y405865D01*
X878432Y405923D01*
X878354Y405985D01*
X878279Y406050D01*
X878206Y406118D01*
X878136Y406188D01*
X878068Y406261D01*
X878003Y406336D01*
X877941Y406414D01*
X877883Y406494D01*
X877827Y406577D01*
X877775Y406661D01*
X877725Y406748D01*
X877680Y406836D01*
X877637Y406926D01*
X877598Y407018D01*
X877563Y407111D01*
X877531Y407205D01*
X877503Y407300D01*
X877478Y407396D01*
X877457Y407494D01*
X877440Y407592D01*
X877427Y407690D01*
X877418Y407789D01*
X877412Y407889D01*
X877410Y407988D01*
X877410Y414480D01*
X877412Y414579D01*
X877418Y414679D01*
X877427Y414778D01*
X877440Y414876D01*
X877457Y414974D01*
X877478Y415072D01*
X877503Y415168D01*
X877531Y415263D01*
X877563Y415357D01*
X877598Y415450D01*
X877637Y415542D01*
X877680Y415632D01*
X877725Y415720D01*
X877775Y415807D01*
X877827Y415891D01*
X877883Y415974D01*
X877941Y416054D01*
X878003Y416132D01*
X878068Y416207D01*
X878136Y416280D01*
X878206Y416350D01*
X878279Y416418D01*
X878354Y416483D01*
X878432Y416545D01*
X878512Y416603D01*
X878595Y416659D01*
X878679Y416711D01*
X878766Y416761D01*
X878854Y416806D01*
X878944Y416849D01*
X879036Y416888D01*
X879128Y416923D01*
X879223Y416955D01*
X879318Y416983D01*
X879414Y417008D01*
X879512Y417029D01*
X879610Y417046D01*
X879708Y417059D01*
X879807Y417068D01*
X879907Y417074D01*
X880006Y417076D01*
X882603Y417076D01*
X886968Y405392D02*
X890214Y405392D01*
X890327Y405394D01*
X890440Y405400D01*
X890553Y405410D01*
X890666Y405424D01*
X890778Y405441D01*
X890889Y405463D01*
X890999Y405488D01*
X891109Y405518D01*
X891217Y405551D01*
X891324Y405588D01*
X891430Y405628D01*
X891534Y405673D01*
X891637Y405721D01*
X891738Y405772D01*
X891837Y405827D01*
X891934Y405885D01*
X892029Y405947D01*
X892122Y406012D01*
X892212Y406080D01*
X892300Y406151D01*
X892386Y406226D01*
X892469Y406303D01*
X892549Y406383D01*
X892626Y406466D01*
X892701Y406552D01*
X892772Y406640D01*
X892840Y406730D01*
X892905Y406823D01*
X892967Y406918D01*
X893025Y407015D01*
X893080Y407114D01*
X893131Y407215D01*
X893179Y407318D01*
X893224Y407422D01*
X893264Y407528D01*
X893301Y407635D01*
X893334Y407743D01*
X893364Y407853D01*
X893389Y407963D01*
X893411Y408074D01*
X893428Y408186D01*
X893442Y408299D01*
X893452Y408412D01*
X893458Y408525D01*
X893460Y408638D01*
X893458Y408751D01*
X893452Y408864D01*
X893442Y408977D01*
X893428Y409090D01*
X893411Y409202D01*
X893389Y409313D01*
X893364Y409423D01*
X893334Y409533D01*
X893301Y409641D01*
X893264Y409748D01*
X893224Y409854D01*
X893179Y409958D01*
X893131Y410061D01*
X893080Y410162D01*
X893025Y410261D01*
X892967Y410358D01*
X892905Y410453D01*
X892840Y410546D01*
X892772Y410636D01*
X892701Y410724D01*
X892626Y410810D01*
X892549Y410893D01*
X892469Y410973D01*
X892386Y411050D01*
X892300Y411125D01*
X892212Y411196D01*
X892122Y411264D01*
X892029Y411329D01*
X891934Y411391D01*
X891837Y411449D01*
X891738Y411504D01*
X891637Y411555D01*
X891534Y411603D01*
X891430Y411648D01*
X891324Y411688D01*
X891217Y411725D01*
X891109Y411758D01*
X890999Y411788D01*
X890889Y411813D01*
X890778Y411835D01*
X890666Y411852D01*
X890553Y411866D01*
X890440Y411876D01*
X890327Y411882D01*
X890214Y411884D01*
X890863Y417076D02*
X886968Y417076D01*
X890863Y417076D02*
X890964Y417074D01*
X891064Y417068D01*
X891164Y417058D01*
X891264Y417045D01*
X891363Y417027D01*
X891462Y417006D01*
X891559Y416981D01*
X891656Y416952D01*
X891751Y416919D01*
X891845Y416883D01*
X891937Y416843D01*
X892028Y416800D01*
X892117Y416753D01*
X892204Y416703D01*
X892290Y416649D01*
X892373Y416592D01*
X892453Y416532D01*
X892532Y416469D01*
X892608Y416402D01*
X892681Y416333D01*
X892751Y416261D01*
X892819Y416187D01*
X892884Y416110D01*
X892945Y416030D01*
X893004Y415948D01*
X893059Y415864D01*
X893111Y415778D01*
X893160Y415690D01*
X893205Y415600D01*
X893247Y415508D01*
X893285Y415415D01*
X893319Y415320D01*
X893350Y415225D01*
X893377Y415128D01*
X893400Y415030D01*
X893420Y414931D01*
X893435Y414831D01*
X893447Y414731D01*
X893455Y414631D01*
X893459Y414530D01*
X893459Y414430D01*
X893455Y414329D01*
X893447Y414229D01*
X893435Y414129D01*
X893420Y414029D01*
X893400Y413930D01*
X893377Y413832D01*
X893350Y413735D01*
X893319Y413640D01*
X893285Y413545D01*
X893247Y413452D01*
X893205Y413360D01*
X893160Y413270D01*
X893111Y413182D01*
X893059Y413096D01*
X893004Y413012D01*
X892945Y412930D01*
X892884Y412850D01*
X892819Y412773D01*
X892751Y412699D01*
X892681Y412627D01*
X892608Y412558D01*
X892532Y412491D01*
X892453Y412428D01*
X892373Y412368D01*
X892290Y412311D01*
X892204Y412257D01*
X892117Y412207D01*
X892028Y412160D01*
X891937Y412117D01*
X891845Y412077D01*
X891751Y412041D01*
X891656Y412008D01*
X891559Y411979D01*
X891462Y411954D01*
X891363Y411933D01*
X891264Y411915D01*
X891164Y411902D01*
X891064Y411892D01*
X890964Y411886D01*
X890863Y411884D01*
X890863Y411883D02*
X888266Y411883D01*
X898398Y405392D02*
X901644Y405392D01*
X901757Y405394D01*
X901870Y405400D01*
X901983Y405410D01*
X902096Y405424D01*
X902208Y405441D01*
X902319Y405463D01*
X902429Y405488D01*
X902539Y405518D01*
X902647Y405551D01*
X902754Y405588D01*
X902860Y405628D01*
X902964Y405673D01*
X903067Y405721D01*
X903168Y405772D01*
X903267Y405827D01*
X903364Y405885D01*
X903459Y405947D01*
X903552Y406012D01*
X903642Y406080D01*
X903730Y406151D01*
X903816Y406226D01*
X903899Y406303D01*
X903979Y406383D01*
X904056Y406466D01*
X904131Y406552D01*
X904202Y406640D01*
X904270Y406730D01*
X904335Y406823D01*
X904397Y406918D01*
X904455Y407015D01*
X904510Y407114D01*
X904561Y407215D01*
X904609Y407318D01*
X904654Y407422D01*
X904694Y407528D01*
X904731Y407635D01*
X904764Y407743D01*
X904794Y407853D01*
X904819Y407963D01*
X904841Y408074D01*
X904858Y408186D01*
X904872Y408299D01*
X904882Y408412D01*
X904888Y408525D01*
X904890Y408638D01*
X904888Y408751D01*
X904882Y408864D01*
X904872Y408977D01*
X904858Y409090D01*
X904841Y409202D01*
X904819Y409313D01*
X904794Y409423D01*
X904764Y409533D01*
X904731Y409641D01*
X904694Y409748D01*
X904654Y409854D01*
X904609Y409958D01*
X904561Y410061D01*
X904510Y410162D01*
X904455Y410261D01*
X904397Y410358D01*
X904335Y410453D01*
X904270Y410546D01*
X904202Y410636D01*
X904131Y410724D01*
X904056Y410810D01*
X903979Y410893D01*
X903899Y410973D01*
X903816Y411050D01*
X903730Y411125D01*
X903642Y411196D01*
X903552Y411264D01*
X903459Y411329D01*
X903364Y411391D01*
X903267Y411449D01*
X903168Y411504D01*
X903067Y411555D01*
X902964Y411603D01*
X902860Y411648D01*
X902754Y411688D01*
X902647Y411725D01*
X902539Y411758D01*
X902429Y411788D01*
X902319Y411813D01*
X902208Y411835D01*
X902096Y411852D01*
X901983Y411866D01*
X901870Y411876D01*
X901757Y411882D01*
X901644Y411884D01*
X902293Y417076D02*
X898398Y417076D01*
X902293Y417076D02*
X902394Y417074D01*
X902494Y417068D01*
X902594Y417058D01*
X902694Y417045D01*
X902793Y417027D01*
X902892Y417006D01*
X902989Y416981D01*
X903086Y416952D01*
X903181Y416919D01*
X903275Y416883D01*
X903367Y416843D01*
X903458Y416800D01*
X903547Y416753D01*
X903634Y416703D01*
X903720Y416649D01*
X903803Y416592D01*
X903883Y416532D01*
X903962Y416469D01*
X904038Y416402D01*
X904111Y416333D01*
X904181Y416261D01*
X904249Y416187D01*
X904314Y416110D01*
X904375Y416030D01*
X904434Y415948D01*
X904489Y415864D01*
X904541Y415778D01*
X904590Y415690D01*
X904635Y415600D01*
X904677Y415508D01*
X904715Y415415D01*
X904749Y415320D01*
X904780Y415225D01*
X904807Y415128D01*
X904830Y415030D01*
X904850Y414931D01*
X904865Y414831D01*
X904877Y414731D01*
X904885Y414631D01*
X904889Y414530D01*
X904889Y414430D01*
X904885Y414329D01*
X904877Y414229D01*
X904865Y414129D01*
X904850Y414029D01*
X904830Y413930D01*
X904807Y413832D01*
X904780Y413735D01*
X904749Y413640D01*
X904715Y413545D01*
X904677Y413452D01*
X904635Y413360D01*
X904590Y413270D01*
X904541Y413182D01*
X904489Y413096D01*
X904434Y413012D01*
X904375Y412930D01*
X904314Y412850D01*
X904249Y412773D01*
X904181Y412699D01*
X904111Y412627D01*
X904038Y412558D01*
X903962Y412491D01*
X903883Y412428D01*
X903803Y412368D01*
X903720Y412311D01*
X903634Y412257D01*
X903547Y412207D01*
X903458Y412160D01*
X903367Y412117D01*
X903275Y412077D01*
X903181Y412041D01*
X903086Y412008D01*
X902989Y411979D01*
X902892Y411954D01*
X902793Y411933D01*
X902694Y411915D01*
X902594Y411902D01*
X902494Y411892D01*
X902394Y411886D01*
X902293Y411884D01*
X902293Y411883D02*
X899696Y411883D01*
X912424Y410585D02*
X916319Y410585D01*
X912424Y410585D02*
X912325Y410587D01*
X912225Y410593D01*
X912126Y410602D01*
X912028Y410615D01*
X911930Y410632D01*
X911832Y410653D01*
X911736Y410678D01*
X911641Y410706D01*
X911547Y410738D01*
X911454Y410773D01*
X911362Y410812D01*
X911272Y410855D01*
X911184Y410900D01*
X911097Y410950D01*
X911013Y411002D01*
X910930Y411058D01*
X910850Y411116D01*
X910772Y411178D01*
X910697Y411243D01*
X910624Y411311D01*
X910554Y411381D01*
X910486Y411454D01*
X910421Y411529D01*
X910359Y411607D01*
X910301Y411687D01*
X910245Y411770D01*
X910193Y411854D01*
X910143Y411941D01*
X910098Y412029D01*
X910055Y412119D01*
X910016Y412211D01*
X909981Y412304D01*
X909949Y412398D01*
X909921Y412493D01*
X909896Y412589D01*
X909875Y412687D01*
X909858Y412785D01*
X909845Y412883D01*
X909836Y412982D01*
X909830Y413082D01*
X909828Y413181D01*
X909828Y413830D01*
X909830Y413943D01*
X909836Y414056D01*
X909846Y414169D01*
X909860Y414282D01*
X909877Y414394D01*
X909899Y414505D01*
X909924Y414615D01*
X909954Y414725D01*
X909987Y414833D01*
X910024Y414940D01*
X910064Y415046D01*
X910109Y415150D01*
X910157Y415253D01*
X910208Y415354D01*
X910263Y415453D01*
X910321Y415550D01*
X910383Y415645D01*
X910448Y415738D01*
X910516Y415828D01*
X910587Y415916D01*
X910662Y416002D01*
X910739Y416085D01*
X910819Y416165D01*
X910902Y416242D01*
X910988Y416317D01*
X911076Y416388D01*
X911166Y416456D01*
X911259Y416521D01*
X911354Y416583D01*
X911451Y416641D01*
X911550Y416696D01*
X911651Y416747D01*
X911754Y416795D01*
X911858Y416840D01*
X911964Y416880D01*
X912071Y416917D01*
X912179Y416950D01*
X912289Y416980D01*
X912399Y417005D01*
X912510Y417027D01*
X912622Y417044D01*
X912735Y417058D01*
X912848Y417068D01*
X912961Y417074D01*
X913074Y417076D01*
X913187Y417074D01*
X913300Y417068D01*
X913413Y417058D01*
X913526Y417044D01*
X913638Y417027D01*
X913749Y417005D01*
X913859Y416980D01*
X913969Y416950D01*
X914077Y416917D01*
X914184Y416880D01*
X914290Y416840D01*
X914394Y416795D01*
X914497Y416747D01*
X914598Y416696D01*
X914697Y416641D01*
X914794Y416583D01*
X914889Y416521D01*
X914982Y416456D01*
X915072Y416388D01*
X915160Y416317D01*
X915246Y416242D01*
X915329Y416165D01*
X915409Y416085D01*
X915486Y416002D01*
X915561Y415916D01*
X915632Y415828D01*
X915700Y415738D01*
X915765Y415645D01*
X915827Y415550D01*
X915885Y415453D01*
X915940Y415354D01*
X915991Y415253D01*
X916039Y415150D01*
X916084Y415046D01*
X916124Y414940D01*
X916161Y414833D01*
X916194Y414725D01*
X916224Y414615D01*
X916249Y414505D01*
X916271Y414394D01*
X916288Y414282D01*
X916302Y414169D01*
X916312Y414056D01*
X916318Y413943D01*
X916320Y413830D01*
X916319Y413830D02*
X916319Y410585D01*
X916317Y410442D01*
X916311Y410299D01*
X916301Y410156D01*
X916287Y410014D01*
X916270Y409872D01*
X916248Y409730D01*
X916223Y409589D01*
X916193Y409449D01*
X916160Y409310D01*
X916123Y409172D01*
X916082Y409035D01*
X916038Y408899D01*
X915989Y408764D01*
X915937Y408631D01*
X915882Y408499D01*
X915822Y408369D01*
X915759Y408240D01*
X915693Y408113D01*
X915623Y407988D01*
X915550Y407866D01*
X915473Y407745D01*
X915393Y407626D01*
X915310Y407510D01*
X915224Y407395D01*
X915135Y407284D01*
X915042Y407174D01*
X914947Y407068D01*
X914848Y406964D01*
X914747Y406863D01*
X914643Y406764D01*
X914537Y406669D01*
X914427Y406576D01*
X914316Y406487D01*
X914201Y406401D01*
X914085Y406318D01*
X913966Y406238D01*
X913845Y406161D01*
X913723Y406088D01*
X913598Y406018D01*
X913471Y405952D01*
X913342Y405889D01*
X913212Y405829D01*
X913080Y405774D01*
X912947Y405722D01*
X912812Y405673D01*
X912676Y405629D01*
X912539Y405588D01*
X912401Y405551D01*
X912262Y405518D01*
X912122Y405488D01*
X911981Y405463D01*
X911839Y405441D01*
X911697Y405424D01*
X911555Y405410D01*
X911412Y405400D01*
X911269Y405394D01*
X911126Y405392D01*
X921258Y405392D02*
X924504Y405392D01*
X924617Y405394D01*
X924730Y405400D01*
X924843Y405410D01*
X924956Y405424D01*
X925068Y405441D01*
X925179Y405463D01*
X925289Y405488D01*
X925399Y405518D01*
X925507Y405551D01*
X925614Y405588D01*
X925720Y405628D01*
X925824Y405673D01*
X925927Y405721D01*
X926028Y405772D01*
X926127Y405827D01*
X926224Y405885D01*
X926319Y405947D01*
X926412Y406012D01*
X926502Y406080D01*
X926590Y406151D01*
X926676Y406226D01*
X926759Y406303D01*
X926839Y406383D01*
X926916Y406466D01*
X926991Y406552D01*
X927062Y406640D01*
X927130Y406730D01*
X927195Y406823D01*
X927257Y406918D01*
X927315Y407015D01*
X927370Y407114D01*
X927421Y407215D01*
X927469Y407318D01*
X927514Y407422D01*
X927554Y407528D01*
X927591Y407635D01*
X927624Y407743D01*
X927654Y407853D01*
X927679Y407963D01*
X927701Y408074D01*
X927718Y408186D01*
X927732Y408299D01*
X927742Y408412D01*
X927748Y408525D01*
X927750Y408638D01*
X927748Y408751D01*
X927742Y408864D01*
X927732Y408977D01*
X927718Y409090D01*
X927701Y409202D01*
X927679Y409313D01*
X927654Y409423D01*
X927624Y409533D01*
X927591Y409641D01*
X927554Y409748D01*
X927514Y409854D01*
X927469Y409958D01*
X927421Y410061D01*
X927370Y410162D01*
X927315Y410261D01*
X927257Y410358D01*
X927195Y410453D01*
X927130Y410546D01*
X927062Y410636D01*
X926991Y410724D01*
X926916Y410810D01*
X926839Y410893D01*
X926759Y410973D01*
X926676Y411050D01*
X926590Y411125D01*
X926502Y411196D01*
X926412Y411264D01*
X926319Y411329D01*
X926224Y411391D01*
X926127Y411449D01*
X926028Y411504D01*
X925927Y411555D01*
X925824Y411603D01*
X925720Y411648D01*
X925614Y411688D01*
X925507Y411725D01*
X925399Y411758D01*
X925289Y411788D01*
X925179Y411813D01*
X925068Y411835D01*
X924956Y411852D01*
X924843Y411866D01*
X924730Y411876D01*
X924617Y411882D01*
X924504Y411884D01*
X925153Y417076D02*
X921258Y417076D01*
X925153Y417076D02*
X925254Y417074D01*
X925354Y417068D01*
X925454Y417058D01*
X925554Y417045D01*
X925653Y417027D01*
X925752Y417006D01*
X925849Y416981D01*
X925946Y416952D01*
X926041Y416919D01*
X926135Y416883D01*
X926227Y416843D01*
X926318Y416800D01*
X926407Y416753D01*
X926494Y416703D01*
X926580Y416649D01*
X926663Y416592D01*
X926743Y416532D01*
X926822Y416469D01*
X926898Y416402D01*
X926971Y416333D01*
X927041Y416261D01*
X927109Y416187D01*
X927174Y416110D01*
X927235Y416030D01*
X927294Y415948D01*
X927349Y415864D01*
X927401Y415778D01*
X927450Y415690D01*
X927495Y415600D01*
X927537Y415508D01*
X927575Y415415D01*
X927609Y415320D01*
X927640Y415225D01*
X927667Y415128D01*
X927690Y415030D01*
X927710Y414931D01*
X927725Y414831D01*
X927737Y414731D01*
X927745Y414631D01*
X927749Y414530D01*
X927749Y414430D01*
X927745Y414329D01*
X927737Y414229D01*
X927725Y414129D01*
X927710Y414029D01*
X927690Y413930D01*
X927667Y413832D01*
X927640Y413735D01*
X927609Y413640D01*
X927575Y413545D01*
X927537Y413452D01*
X927495Y413360D01*
X927450Y413270D01*
X927401Y413182D01*
X927349Y413096D01*
X927294Y413012D01*
X927235Y412930D01*
X927174Y412850D01*
X927109Y412773D01*
X927041Y412699D01*
X926971Y412627D01*
X926898Y412558D01*
X926822Y412491D01*
X926743Y412428D01*
X926663Y412368D01*
X926580Y412311D01*
X926494Y412257D01*
X926407Y412207D01*
X926318Y412160D01*
X926227Y412117D01*
X926135Y412077D01*
X926041Y412041D01*
X925946Y412008D01*
X925849Y411979D01*
X925752Y411954D01*
X925653Y411933D01*
X925554Y411915D01*
X925454Y411902D01*
X925354Y411892D01*
X925254Y411886D01*
X925153Y411884D01*
X925153Y411883D02*
X922556Y411883D01*
X932688Y414480D02*
X935933Y417076D01*
X935933Y405392D01*
X932688Y405392D02*
X939179Y405392D01*
X1048258Y578358D02*
X1048258Y590042D01*
X1051504Y590042D01*
X1051617Y590040D01*
X1051730Y590034D01*
X1051843Y590024D01*
X1051956Y590010D01*
X1052068Y589993D01*
X1052179Y589971D01*
X1052289Y589946D01*
X1052399Y589916D01*
X1052507Y589883D01*
X1052614Y589846D01*
X1052720Y589806D01*
X1052824Y589761D01*
X1052927Y589713D01*
X1053028Y589662D01*
X1053127Y589607D01*
X1053224Y589549D01*
X1053319Y589487D01*
X1053412Y589422D01*
X1053502Y589354D01*
X1053590Y589283D01*
X1053676Y589208D01*
X1053759Y589131D01*
X1053839Y589051D01*
X1053916Y588968D01*
X1053991Y588882D01*
X1054062Y588794D01*
X1054130Y588704D01*
X1054195Y588611D01*
X1054257Y588516D01*
X1054315Y588419D01*
X1054370Y588320D01*
X1054421Y588219D01*
X1054469Y588116D01*
X1054514Y588012D01*
X1054554Y587906D01*
X1054591Y587799D01*
X1054624Y587691D01*
X1054654Y587581D01*
X1054679Y587471D01*
X1054701Y587360D01*
X1054718Y587248D01*
X1054732Y587135D01*
X1054742Y587022D01*
X1054748Y586909D01*
X1054750Y586796D01*
X1054748Y586683D01*
X1054742Y586570D01*
X1054732Y586457D01*
X1054718Y586344D01*
X1054701Y586232D01*
X1054679Y586121D01*
X1054654Y586011D01*
X1054624Y585901D01*
X1054591Y585793D01*
X1054554Y585686D01*
X1054514Y585580D01*
X1054469Y585476D01*
X1054421Y585373D01*
X1054370Y585272D01*
X1054315Y585173D01*
X1054257Y585076D01*
X1054195Y584981D01*
X1054130Y584888D01*
X1054062Y584798D01*
X1053991Y584710D01*
X1053916Y584624D01*
X1053839Y584541D01*
X1053759Y584461D01*
X1053676Y584384D01*
X1053590Y584309D01*
X1053502Y584238D01*
X1053412Y584170D01*
X1053319Y584105D01*
X1053224Y584043D01*
X1053127Y583985D01*
X1053028Y583930D01*
X1052927Y583879D01*
X1052824Y583831D01*
X1052720Y583786D01*
X1052614Y583746D01*
X1052507Y583709D01*
X1052399Y583676D01*
X1052289Y583646D01*
X1052179Y583621D01*
X1052068Y583599D01*
X1051956Y583582D01*
X1051843Y583568D01*
X1051730Y583558D01*
X1051617Y583552D01*
X1051504Y583550D01*
X1051504Y583551D02*
X1048258Y583551D01*
X1052153Y583551D02*
X1054749Y578358D01*
X1059614Y587446D02*
X1062860Y590042D01*
X1062860Y578358D01*
X1066105Y578358D02*
X1059614Y578358D01*
X1048258Y551942D02*
X1048258Y540258D01*
X1048258Y551942D02*
X1051504Y551942D01*
X1051617Y551940D01*
X1051730Y551934D01*
X1051843Y551924D01*
X1051956Y551910D01*
X1052068Y551893D01*
X1052179Y551871D01*
X1052289Y551846D01*
X1052399Y551816D01*
X1052507Y551783D01*
X1052614Y551746D01*
X1052720Y551706D01*
X1052824Y551661D01*
X1052927Y551613D01*
X1053028Y551562D01*
X1053127Y551507D01*
X1053224Y551449D01*
X1053319Y551387D01*
X1053412Y551322D01*
X1053502Y551254D01*
X1053590Y551183D01*
X1053676Y551108D01*
X1053759Y551031D01*
X1053839Y550951D01*
X1053916Y550868D01*
X1053991Y550782D01*
X1054062Y550694D01*
X1054130Y550604D01*
X1054195Y550511D01*
X1054257Y550416D01*
X1054315Y550319D01*
X1054370Y550220D01*
X1054421Y550119D01*
X1054469Y550016D01*
X1054514Y549912D01*
X1054554Y549806D01*
X1054591Y549699D01*
X1054624Y549591D01*
X1054654Y549481D01*
X1054679Y549371D01*
X1054701Y549260D01*
X1054718Y549148D01*
X1054732Y549035D01*
X1054742Y548922D01*
X1054748Y548809D01*
X1054750Y548696D01*
X1054748Y548583D01*
X1054742Y548470D01*
X1054732Y548357D01*
X1054718Y548244D01*
X1054701Y548132D01*
X1054679Y548021D01*
X1054654Y547911D01*
X1054624Y547801D01*
X1054591Y547693D01*
X1054554Y547586D01*
X1054514Y547480D01*
X1054469Y547376D01*
X1054421Y547273D01*
X1054370Y547172D01*
X1054315Y547073D01*
X1054257Y546976D01*
X1054195Y546881D01*
X1054130Y546788D01*
X1054062Y546698D01*
X1053991Y546610D01*
X1053916Y546524D01*
X1053839Y546441D01*
X1053759Y546361D01*
X1053676Y546284D01*
X1053590Y546209D01*
X1053502Y546138D01*
X1053412Y546070D01*
X1053319Y546005D01*
X1053224Y545943D01*
X1053127Y545885D01*
X1053028Y545830D01*
X1052927Y545779D01*
X1052824Y545731D01*
X1052720Y545686D01*
X1052614Y545646D01*
X1052507Y545609D01*
X1052399Y545576D01*
X1052289Y545546D01*
X1052179Y545521D01*
X1052068Y545499D01*
X1051956Y545482D01*
X1051843Y545468D01*
X1051730Y545458D01*
X1051617Y545452D01*
X1051504Y545450D01*
X1051504Y545451D02*
X1048258Y545451D01*
X1052153Y545451D02*
X1054749Y540258D01*
X1066105Y549021D02*
X1066103Y549128D01*
X1066097Y549234D01*
X1066087Y549340D01*
X1066074Y549446D01*
X1066056Y549552D01*
X1066035Y549656D01*
X1066010Y549760D01*
X1065981Y549863D01*
X1065949Y549964D01*
X1065912Y550064D01*
X1065872Y550163D01*
X1065829Y550261D01*
X1065782Y550357D01*
X1065731Y550451D01*
X1065677Y550543D01*
X1065620Y550633D01*
X1065560Y550721D01*
X1065496Y550806D01*
X1065429Y550889D01*
X1065359Y550970D01*
X1065287Y551048D01*
X1065211Y551124D01*
X1065133Y551196D01*
X1065052Y551266D01*
X1064969Y551333D01*
X1064884Y551397D01*
X1064796Y551457D01*
X1064706Y551514D01*
X1064614Y551568D01*
X1064520Y551619D01*
X1064424Y551666D01*
X1064326Y551709D01*
X1064227Y551749D01*
X1064127Y551786D01*
X1064026Y551818D01*
X1063923Y551847D01*
X1063819Y551872D01*
X1063715Y551893D01*
X1063609Y551911D01*
X1063503Y551924D01*
X1063397Y551934D01*
X1063291Y551940D01*
X1063184Y551942D01*
X1063063Y551940D01*
X1062942Y551934D01*
X1062822Y551924D01*
X1062701Y551911D01*
X1062582Y551893D01*
X1062462Y551872D01*
X1062344Y551847D01*
X1062227Y551818D01*
X1062110Y551785D01*
X1061995Y551749D01*
X1061881Y551708D01*
X1061768Y551665D01*
X1061656Y551617D01*
X1061547Y551566D01*
X1061439Y551511D01*
X1061332Y551453D01*
X1061228Y551392D01*
X1061126Y551327D01*
X1061026Y551259D01*
X1060928Y551188D01*
X1060832Y551114D01*
X1060739Y551037D01*
X1060649Y550956D01*
X1060561Y550873D01*
X1060476Y550787D01*
X1060393Y550698D01*
X1060314Y550607D01*
X1060237Y550513D01*
X1060164Y550417D01*
X1060094Y550319D01*
X1060027Y550218D01*
X1059963Y550115D01*
X1059903Y550010D01*
X1059846Y549903D01*
X1059792Y549795D01*
X1059742Y549685D01*
X1059696Y549573D01*
X1059653Y549460D01*
X1059614Y549345D01*
X1065132Y546749D02*
X1065211Y546826D01*
X1065287Y546907D01*
X1065360Y546990D01*
X1065430Y547075D01*
X1065497Y547163D01*
X1065561Y547253D01*
X1065621Y547345D01*
X1065678Y547440D01*
X1065732Y547536D01*
X1065783Y547634D01*
X1065830Y547734D01*
X1065874Y547836D01*
X1065914Y547939D01*
X1065950Y548043D01*
X1065982Y548149D01*
X1066011Y548255D01*
X1066036Y548363D01*
X1066058Y548471D01*
X1066075Y548581D01*
X1066089Y548690D01*
X1066098Y548800D01*
X1066104Y548911D01*
X1066106Y549021D01*
X1065132Y546749D02*
X1059614Y540258D01*
X1066105Y540258D01*
X1048258Y501142D02*
X1048258Y489458D01*
X1048258Y501142D02*
X1051504Y501142D01*
X1051617Y501140D01*
X1051730Y501134D01*
X1051843Y501124D01*
X1051956Y501110D01*
X1052068Y501093D01*
X1052179Y501071D01*
X1052289Y501046D01*
X1052399Y501016D01*
X1052507Y500983D01*
X1052614Y500946D01*
X1052720Y500906D01*
X1052824Y500861D01*
X1052927Y500813D01*
X1053028Y500762D01*
X1053127Y500707D01*
X1053224Y500649D01*
X1053319Y500587D01*
X1053412Y500522D01*
X1053502Y500454D01*
X1053590Y500383D01*
X1053676Y500308D01*
X1053759Y500231D01*
X1053839Y500151D01*
X1053916Y500068D01*
X1053991Y499982D01*
X1054062Y499894D01*
X1054130Y499804D01*
X1054195Y499711D01*
X1054257Y499616D01*
X1054315Y499519D01*
X1054370Y499420D01*
X1054421Y499319D01*
X1054469Y499216D01*
X1054514Y499112D01*
X1054554Y499006D01*
X1054591Y498899D01*
X1054624Y498791D01*
X1054654Y498681D01*
X1054679Y498571D01*
X1054701Y498460D01*
X1054718Y498348D01*
X1054732Y498235D01*
X1054742Y498122D01*
X1054748Y498009D01*
X1054750Y497896D01*
X1054748Y497783D01*
X1054742Y497670D01*
X1054732Y497557D01*
X1054718Y497444D01*
X1054701Y497332D01*
X1054679Y497221D01*
X1054654Y497111D01*
X1054624Y497001D01*
X1054591Y496893D01*
X1054554Y496786D01*
X1054514Y496680D01*
X1054469Y496576D01*
X1054421Y496473D01*
X1054370Y496372D01*
X1054315Y496273D01*
X1054257Y496176D01*
X1054195Y496081D01*
X1054130Y495988D01*
X1054062Y495898D01*
X1053991Y495810D01*
X1053916Y495724D01*
X1053839Y495641D01*
X1053759Y495561D01*
X1053676Y495484D01*
X1053590Y495409D01*
X1053502Y495338D01*
X1053412Y495270D01*
X1053319Y495205D01*
X1053224Y495143D01*
X1053127Y495085D01*
X1053028Y495030D01*
X1052927Y494979D01*
X1052824Y494931D01*
X1052720Y494886D01*
X1052614Y494846D01*
X1052507Y494809D01*
X1052399Y494776D01*
X1052289Y494746D01*
X1052179Y494721D01*
X1052068Y494699D01*
X1051956Y494682D01*
X1051843Y494668D01*
X1051730Y494658D01*
X1051617Y494652D01*
X1051504Y494650D01*
X1051504Y494651D02*
X1048258Y494651D01*
X1052153Y494651D02*
X1054749Y489458D01*
X1059614Y489458D02*
X1062860Y489458D01*
X1062973Y489460D01*
X1063086Y489466D01*
X1063199Y489476D01*
X1063312Y489490D01*
X1063424Y489507D01*
X1063535Y489529D01*
X1063645Y489554D01*
X1063755Y489584D01*
X1063863Y489617D01*
X1063970Y489654D01*
X1064076Y489694D01*
X1064180Y489739D01*
X1064283Y489787D01*
X1064384Y489838D01*
X1064483Y489893D01*
X1064580Y489951D01*
X1064675Y490013D01*
X1064768Y490078D01*
X1064858Y490146D01*
X1064946Y490217D01*
X1065032Y490292D01*
X1065115Y490369D01*
X1065195Y490449D01*
X1065272Y490532D01*
X1065347Y490618D01*
X1065418Y490706D01*
X1065486Y490796D01*
X1065551Y490889D01*
X1065613Y490984D01*
X1065671Y491081D01*
X1065726Y491180D01*
X1065777Y491281D01*
X1065825Y491384D01*
X1065870Y491488D01*
X1065910Y491594D01*
X1065947Y491701D01*
X1065980Y491809D01*
X1066010Y491919D01*
X1066035Y492029D01*
X1066057Y492140D01*
X1066074Y492252D01*
X1066088Y492365D01*
X1066098Y492478D01*
X1066104Y492591D01*
X1066106Y492704D01*
X1066104Y492817D01*
X1066098Y492930D01*
X1066088Y493043D01*
X1066074Y493156D01*
X1066057Y493268D01*
X1066035Y493379D01*
X1066010Y493489D01*
X1065980Y493599D01*
X1065947Y493707D01*
X1065910Y493814D01*
X1065870Y493920D01*
X1065825Y494024D01*
X1065777Y494127D01*
X1065726Y494228D01*
X1065671Y494327D01*
X1065613Y494424D01*
X1065551Y494519D01*
X1065486Y494612D01*
X1065418Y494702D01*
X1065347Y494790D01*
X1065272Y494876D01*
X1065195Y494959D01*
X1065115Y495039D01*
X1065032Y495116D01*
X1064946Y495191D01*
X1064858Y495262D01*
X1064768Y495330D01*
X1064675Y495395D01*
X1064580Y495457D01*
X1064483Y495515D01*
X1064384Y495570D01*
X1064283Y495621D01*
X1064180Y495669D01*
X1064076Y495714D01*
X1063970Y495754D01*
X1063863Y495791D01*
X1063755Y495824D01*
X1063645Y495854D01*
X1063535Y495879D01*
X1063424Y495901D01*
X1063312Y495918D01*
X1063199Y495932D01*
X1063086Y495942D01*
X1062973Y495948D01*
X1062860Y495950D01*
X1063509Y501142D02*
X1059614Y501142D01*
X1063509Y501142D02*
X1063610Y501140D01*
X1063710Y501134D01*
X1063810Y501124D01*
X1063910Y501111D01*
X1064009Y501093D01*
X1064108Y501072D01*
X1064205Y501047D01*
X1064302Y501018D01*
X1064397Y500985D01*
X1064491Y500949D01*
X1064583Y500909D01*
X1064674Y500866D01*
X1064763Y500819D01*
X1064850Y500769D01*
X1064936Y500715D01*
X1065019Y500658D01*
X1065099Y500598D01*
X1065178Y500535D01*
X1065254Y500468D01*
X1065327Y500399D01*
X1065397Y500327D01*
X1065465Y500253D01*
X1065530Y500176D01*
X1065591Y500096D01*
X1065650Y500014D01*
X1065705Y499930D01*
X1065757Y499844D01*
X1065806Y499756D01*
X1065851Y499666D01*
X1065893Y499574D01*
X1065931Y499481D01*
X1065965Y499386D01*
X1065996Y499291D01*
X1066023Y499194D01*
X1066046Y499096D01*
X1066066Y498997D01*
X1066081Y498897D01*
X1066093Y498797D01*
X1066101Y498697D01*
X1066105Y498596D01*
X1066105Y498496D01*
X1066101Y498395D01*
X1066093Y498295D01*
X1066081Y498195D01*
X1066066Y498095D01*
X1066046Y497996D01*
X1066023Y497898D01*
X1065996Y497801D01*
X1065965Y497706D01*
X1065931Y497611D01*
X1065893Y497518D01*
X1065851Y497426D01*
X1065806Y497336D01*
X1065757Y497248D01*
X1065705Y497162D01*
X1065650Y497078D01*
X1065591Y496996D01*
X1065530Y496916D01*
X1065465Y496839D01*
X1065397Y496765D01*
X1065327Y496693D01*
X1065254Y496624D01*
X1065178Y496557D01*
X1065099Y496494D01*
X1065019Y496434D01*
X1064936Y496377D01*
X1064850Y496323D01*
X1064763Y496273D01*
X1064674Y496226D01*
X1064583Y496183D01*
X1064491Y496143D01*
X1064397Y496107D01*
X1064302Y496074D01*
X1064205Y496045D01*
X1064108Y496020D01*
X1064009Y495999D01*
X1063910Y495981D01*
X1063810Y495968D01*
X1063710Y495958D01*
X1063610Y495952D01*
X1063509Y495950D01*
X1063509Y495949D02*
X1060913Y495949D01*
X1048258Y450342D02*
X1048258Y438658D01*
X1048258Y450342D02*
X1051504Y450342D01*
X1051617Y450340D01*
X1051730Y450334D01*
X1051843Y450324D01*
X1051956Y450310D01*
X1052068Y450293D01*
X1052179Y450271D01*
X1052289Y450246D01*
X1052399Y450216D01*
X1052507Y450183D01*
X1052614Y450146D01*
X1052720Y450106D01*
X1052824Y450061D01*
X1052927Y450013D01*
X1053028Y449962D01*
X1053127Y449907D01*
X1053224Y449849D01*
X1053319Y449787D01*
X1053412Y449722D01*
X1053502Y449654D01*
X1053590Y449583D01*
X1053676Y449508D01*
X1053759Y449431D01*
X1053839Y449351D01*
X1053916Y449268D01*
X1053991Y449182D01*
X1054062Y449094D01*
X1054130Y449004D01*
X1054195Y448911D01*
X1054257Y448816D01*
X1054315Y448719D01*
X1054370Y448620D01*
X1054421Y448519D01*
X1054469Y448416D01*
X1054514Y448312D01*
X1054554Y448206D01*
X1054591Y448099D01*
X1054624Y447991D01*
X1054654Y447881D01*
X1054679Y447771D01*
X1054701Y447660D01*
X1054718Y447548D01*
X1054732Y447435D01*
X1054742Y447322D01*
X1054748Y447209D01*
X1054750Y447096D01*
X1054748Y446983D01*
X1054742Y446870D01*
X1054732Y446757D01*
X1054718Y446644D01*
X1054701Y446532D01*
X1054679Y446421D01*
X1054654Y446311D01*
X1054624Y446201D01*
X1054591Y446093D01*
X1054554Y445986D01*
X1054514Y445880D01*
X1054469Y445776D01*
X1054421Y445673D01*
X1054370Y445572D01*
X1054315Y445473D01*
X1054257Y445376D01*
X1054195Y445281D01*
X1054130Y445188D01*
X1054062Y445098D01*
X1053991Y445010D01*
X1053916Y444924D01*
X1053839Y444841D01*
X1053759Y444761D01*
X1053676Y444684D01*
X1053590Y444609D01*
X1053502Y444538D01*
X1053412Y444470D01*
X1053319Y444405D01*
X1053224Y444343D01*
X1053127Y444285D01*
X1053028Y444230D01*
X1052927Y444179D01*
X1052824Y444131D01*
X1052720Y444086D01*
X1052614Y444046D01*
X1052507Y444009D01*
X1052399Y443976D01*
X1052289Y443946D01*
X1052179Y443921D01*
X1052068Y443899D01*
X1051956Y443882D01*
X1051843Y443868D01*
X1051730Y443858D01*
X1051617Y443852D01*
X1051504Y443850D01*
X1051504Y443851D02*
X1048258Y443851D01*
X1052153Y443851D02*
X1054749Y438658D01*
X1059614Y441254D02*
X1062211Y450342D01*
X1059614Y441254D02*
X1066105Y441254D01*
X1064158Y443851D02*
X1064158Y438658D01*
X1048258Y399542D02*
X1048258Y387858D01*
X1048258Y399542D02*
X1051504Y399542D01*
X1051617Y399540D01*
X1051730Y399534D01*
X1051843Y399524D01*
X1051956Y399510D01*
X1052068Y399493D01*
X1052179Y399471D01*
X1052289Y399446D01*
X1052399Y399416D01*
X1052507Y399383D01*
X1052614Y399346D01*
X1052720Y399306D01*
X1052824Y399261D01*
X1052927Y399213D01*
X1053028Y399162D01*
X1053127Y399107D01*
X1053224Y399049D01*
X1053319Y398987D01*
X1053412Y398922D01*
X1053502Y398854D01*
X1053590Y398783D01*
X1053676Y398708D01*
X1053759Y398631D01*
X1053839Y398551D01*
X1053916Y398468D01*
X1053991Y398382D01*
X1054062Y398294D01*
X1054130Y398204D01*
X1054195Y398111D01*
X1054257Y398016D01*
X1054315Y397919D01*
X1054370Y397820D01*
X1054421Y397719D01*
X1054469Y397616D01*
X1054514Y397512D01*
X1054554Y397406D01*
X1054591Y397299D01*
X1054624Y397191D01*
X1054654Y397081D01*
X1054679Y396971D01*
X1054701Y396860D01*
X1054718Y396748D01*
X1054732Y396635D01*
X1054742Y396522D01*
X1054748Y396409D01*
X1054750Y396296D01*
X1054748Y396183D01*
X1054742Y396070D01*
X1054732Y395957D01*
X1054718Y395844D01*
X1054701Y395732D01*
X1054679Y395621D01*
X1054654Y395511D01*
X1054624Y395401D01*
X1054591Y395293D01*
X1054554Y395186D01*
X1054514Y395080D01*
X1054469Y394976D01*
X1054421Y394873D01*
X1054370Y394772D01*
X1054315Y394673D01*
X1054257Y394576D01*
X1054195Y394481D01*
X1054130Y394388D01*
X1054062Y394298D01*
X1053991Y394210D01*
X1053916Y394124D01*
X1053839Y394041D01*
X1053759Y393961D01*
X1053676Y393884D01*
X1053590Y393809D01*
X1053502Y393738D01*
X1053412Y393670D01*
X1053319Y393605D01*
X1053224Y393543D01*
X1053127Y393485D01*
X1053028Y393430D01*
X1052927Y393379D01*
X1052824Y393331D01*
X1052720Y393286D01*
X1052614Y393246D01*
X1052507Y393209D01*
X1052399Y393176D01*
X1052289Y393146D01*
X1052179Y393121D01*
X1052068Y393099D01*
X1051956Y393082D01*
X1051843Y393068D01*
X1051730Y393058D01*
X1051617Y393052D01*
X1051504Y393050D01*
X1051504Y393051D02*
X1048258Y393051D01*
X1052153Y393051D02*
X1054749Y387858D01*
X1059614Y387858D02*
X1063509Y387858D01*
X1063608Y387860D01*
X1063708Y387866D01*
X1063807Y387875D01*
X1063905Y387888D01*
X1064003Y387905D01*
X1064101Y387926D01*
X1064197Y387951D01*
X1064292Y387979D01*
X1064386Y388011D01*
X1064479Y388046D01*
X1064571Y388085D01*
X1064661Y388128D01*
X1064749Y388173D01*
X1064836Y388223D01*
X1064920Y388275D01*
X1065003Y388331D01*
X1065083Y388389D01*
X1065161Y388451D01*
X1065236Y388516D01*
X1065309Y388584D01*
X1065379Y388654D01*
X1065447Y388727D01*
X1065512Y388802D01*
X1065574Y388880D01*
X1065632Y388960D01*
X1065688Y389043D01*
X1065740Y389127D01*
X1065790Y389214D01*
X1065835Y389302D01*
X1065878Y389392D01*
X1065917Y389484D01*
X1065952Y389577D01*
X1065984Y389671D01*
X1066012Y389766D01*
X1066037Y389862D01*
X1066058Y389960D01*
X1066075Y390058D01*
X1066088Y390156D01*
X1066097Y390255D01*
X1066103Y390355D01*
X1066105Y390454D01*
X1066105Y391753D01*
X1066103Y391852D01*
X1066097Y391952D01*
X1066088Y392051D01*
X1066075Y392149D01*
X1066058Y392247D01*
X1066037Y392345D01*
X1066012Y392441D01*
X1065984Y392536D01*
X1065952Y392630D01*
X1065917Y392723D01*
X1065878Y392815D01*
X1065835Y392905D01*
X1065790Y392993D01*
X1065740Y393080D01*
X1065688Y393164D01*
X1065632Y393247D01*
X1065574Y393327D01*
X1065512Y393405D01*
X1065447Y393480D01*
X1065379Y393553D01*
X1065309Y393623D01*
X1065236Y393691D01*
X1065161Y393756D01*
X1065083Y393818D01*
X1065003Y393876D01*
X1064920Y393932D01*
X1064836Y393984D01*
X1064749Y394034D01*
X1064661Y394079D01*
X1064571Y394122D01*
X1064479Y394161D01*
X1064386Y394196D01*
X1064292Y394228D01*
X1064197Y394256D01*
X1064101Y394281D01*
X1064003Y394302D01*
X1063905Y394319D01*
X1063807Y394332D01*
X1063708Y394341D01*
X1063608Y394347D01*
X1063509Y394349D01*
X1059614Y394349D01*
X1059614Y399542D01*
X1066105Y399542D01*
X1149858Y578358D02*
X1149858Y590042D01*
X1153104Y590042D01*
X1153217Y590040D01*
X1153330Y590034D01*
X1153443Y590024D01*
X1153556Y590010D01*
X1153668Y589993D01*
X1153779Y589971D01*
X1153889Y589946D01*
X1153999Y589916D01*
X1154107Y589883D01*
X1154214Y589846D01*
X1154320Y589806D01*
X1154424Y589761D01*
X1154527Y589713D01*
X1154628Y589662D01*
X1154727Y589607D01*
X1154824Y589549D01*
X1154919Y589487D01*
X1155012Y589422D01*
X1155102Y589354D01*
X1155190Y589283D01*
X1155276Y589208D01*
X1155359Y589131D01*
X1155439Y589051D01*
X1155516Y588968D01*
X1155591Y588882D01*
X1155662Y588794D01*
X1155730Y588704D01*
X1155795Y588611D01*
X1155857Y588516D01*
X1155915Y588419D01*
X1155970Y588320D01*
X1156021Y588219D01*
X1156069Y588116D01*
X1156114Y588012D01*
X1156154Y587906D01*
X1156191Y587799D01*
X1156224Y587691D01*
X1156254Y587581D01*
X1156279Y587471D01*
X1156301Y587360D01*
X1156318Y587248D01*
X1156332Y587135D01*
X1156342Y587022D01*
X1156348Y586909D01*
X1156350Y586796D01*
X1156348Y586683D01*
X1156342Y586570D01*
X1156332Y586457D01*
X1156318Y586344D01*
X1156301Y586232D01*
X1156279Y586121D01*
X1156254Y586011D01*
X1156224Y585901D01*
X1156191Y585793D01*
X1156154Y585686D01*
X1156114Y585580D01*
X1156069Y585476D01*
X1156021Y585373D01*
X1155970Y585272D01*
X1155915Y585173D01*
X1155857Y585076D01*
X1155795Y584981D01*
X1155730Y584888D01*
X1155662Y584798D01*
X1155591Y584710D01*
X1155516Y584624D01*
X1155439Y584541D01*
X1155359Y584461D01*
X1155276Y584384D01*
X1155190Y584309D01*
X1155102Y584238D01*
X1155012Y584170D01*
X1154919Y584105D01*
X1154824Y584043D01*
X1154727Y583985D01*
X1154628Y583930D01*
X1154527Y583879D01*
X1154424Y583831D01*
X1154320Y583786D01*
X1154214Y583746D01*
X1154107Y583709D01*
X1153999Y583676D01*
X1153889Y583646D01*
X1153779Y583621D01*
X1153668Y583599D01*
X1153556Y583582D01*
X1153443Y583568D01*
X1153330Y583558D01*
X1153217Y583552D01*
X1153104Y583550D01*
X1153104Y583551D02*
X1149858Y583551D01*
X1153753Y583551D02*
X1156349Y578358D01*
X1161214Y584849D02*
X1165109Y584849D01*
X1165208Y584847D01*
X1165308Y584841D01*
X1165407Y584832D01*
X1165505Y584819D01*
X1165603Y584802D01*
X1165701Y584781D01*
X1165797Y584756D01*
X1165892Y584728D01*
X1165986Y584696D01*
X1166079Y584661D01*
X1166171Y584622D01*
X1166261Y584579D01*
X1166349Y584534D01*
X1166436Y584484D01*
X1166520Y584432D01*
X1166603Y584376D01*
X1166683Y584318D01*
X1166761Y584256D01*
X1166836Y584191D01*
X1166909Y584123D01*
X1166979Y584053D01*
X1167047Y583980D01*
X1167112Y583905D01*
X1167174Y583827D01*
X1167232Y583747D01*
X1167288Y583664D01*
X1167340Y583580D01*
X1167390Y583493D01*
X1167435Y583405D01*
X1167478Y583315D01*
X1167517Y583223D01*
X1167552Y583130D01*
X1167584Y583036D01*
X1167612Y582941D01*
X1167637Y582845D01*
X1167658Y582747D01*
X1167675Y582649D01*
X1167688Y582551D01*
X1167697Y582452D01*
X1167703Y582352D01*
X1167705Y582253D01*
X1167705Y581604D01*
X1167706Y581604D02*
X1167704Y581491D01*
X1167698Y581378D01*
X1167688Y581265D01*
X1167674Y581152D01*
X1167657Y581040D01*
X1167635Y580929D01*
X1167610Y580819D01*
X1167580Y580709D01*
X1167547Y580601D01*
X1167510Y580494D01*
X1167470Y580388D01*
X1167425Y580284D01*
X1167377Y580181D01*
X1167326Y580080D01*
X1167271Y579981D01*
X1167213Y579884D01*
X1167151Y579789D01*
X1167086Y579696D01*
X1167018Y579606D01*
X1166947Y579518D01*
X1166872Y579432D01*
X1166795Y579349D01*
X1166715Y579269D01*
X1166632Y579192D01*
X1166546Y579117D01*
X1166458Y579046D01*
X1166368Y578978D01*
X1166275Y578913D01*
X1166180Y578851D01*
X1166083Y578793D01*
X1165984Y578738D01*
X1165883Y578687D01*
X1165780Y578639D01*
X1165676Y578594D01*
X1165570Y578554D01*
X1165463Y578517D01*
X1165355Y578484D01*
X1165245Y578454D01*
X1165135Y578429D01*
X1165024Y578407D01*
X1164912Y578390D01*
X1164799Y578376D01*
X1164686Y578366D01*
X1164573Y578360D01*
X1164460Y578358D01*
X1164347Y578360D01*
X1164234Y578366D01*
X1164121Y578376D01*
X1164008Y578390D01*
X1163896Y578407D01*
X1163785Y578429D01*
X1163675Y578454D01*
X1163565Y578484D01*
X1163457Y578517D01*
X1163350Y578554D01*
X1163244Y578594D01*
X1163140Y578639D01*
X1163037Y578687D01*
X1162936Y578738D01*
X1162837Y578793D01*
X1162740Y578851D01*
X1162645Y578913D01*
X1162552Y578978D01*
X1162462Y579046D01*
X1162374Y579117D01*
X1162288Y579192D01*
X1162205Y579269D01*
X1162125Y579349D01*
X1162048Y579432D01*
X1161973Y579518D01*
X1161902Y579606D01*
X1161834Y579696D01*
X1161769Y579789D01*
X1161707Y579884D01*
X1161649Y579981D01*
X1161594Y580080D01*
X1161543Y580181D01*
X1161495Y580284D01*
X1161450Y580388D01*
X1161410Y580494D01*
X1161373Y580601D01*
X1161340Y580709D01*
X1161310Y580819D01*
X1161285Y580929D01*
X1161263Y581040D01*
X1161246Y581152D01*
X1161232Y581265D01*
X1161222Y581378D01*
X1161216Y581491D01*
X1161214Y581604D01*
X1161214Y584849D01*
X1161216Y584992D01*
X1161222Y585135D01*
X1161232Y585278D01*
X1161246Y585420D01*
X1161263Y585562D01*
X1161285Y585704D01*
X1161310Y585845D01*
X1161340Y585985D01*
X1161373Y586124D01*
X1161410Y586262D01*
X1161451Y586399D01*
X1161495Y586535D01*
X1161544Y586670D01*
X1161596Y586803D01*
X1161651Y586935D01*
X1161711Y587065D01*
X1161774Y587194D01*
X1161840Y587321D01*
X1161910Y587445D01*
X1161983Y587568D01*
X1162060Y587689D01*
X1162140Y587808D01*
X1162223Y587924D01*
X1162309Y588039D01*
X1162398Y588150D01*
X1162491Y588260D01*
X1162586Y588366D01*
X1162685Y588470D01*
X1162786Y588571D01*
X1162890Y588670D01*
X1162996Y588765D01*
X1163106Y588858D01*
X1163217Y588947D01*
X1163332Y589033D01*
X1163448Y589116D01*
X1163567Y589196D01*
X1163688Y589273D01*
X1163810Y589346D01*
X1163935Y589416D01*
X1164062Y589482D01*
X1164191Y589545D01*
X1164321Y589605D01*
X1164453Y589660D01*
X1164586Y589712D01*
X1164721Y589761D01*
X1164857Y589805D01*
X1164994Y589846D01*
X1165132Y589883D01*
X1165271Y589916D01*
X1165411Y589946D01*
X1165552Y589971D01*
X1165694Y589993D01*
X1165836Y590010D01*
X1165978Y590024D01*
X1166121Y590034D01*
X1166264Y590040D01*
X1166407Y590042D01*
D22*
X864108Y898398D02*
X864108Y902293D01*
X868003Y902293D01*
X868003Y898398D01*
X864108Y898398D01*
M02*
