G04 #@! TF.GenerationSoftware,KiCad,Pcbnew,(5.1.4)-1*
G04 #@! TF.CreationDate,2019-11-20T10:07:13+01:00*
G04 #@! TF.ProjectId,AR_PDM_INA233_breakout,41525f50-444d-45f4-994e-413233335f62,rev?*
G04 #@! TF.SameCoordinates,Original*
G04 #@! TF.FileFunction,Copper,L1,Top*
G04 #@! TF.FilePolarity,Positive*
%FSLAX46Y46*%
G04 Gerber Fmt 4.6, Leading zero omitted, Abs format (unit mm)*
G04 Created by KiCad (PCBNEW (5.1.4)-1) date 2019-11-20 10:07:13*
%MOMM*%
%LPD*%
G04 APERTURE LIST*
%ADD10C,0.100000*%
%ADD11C,0.250000*%
%ADD12R,1.700000X1.700000*%
%ADD13O,1.700000X1.700000*%
%ADD14C,0.300000*%
%ADD15C,0.250000*%
G04 APERTURE END LIST*
D10*
G36*
X135012342Y-83695201D02*
G01*
X135016395Y-83695802D01*
X135020369Y-83696798D01*
X135024227Y-83698178D01*
X135027931Y-83699930D01*
X135031445Y-83702036D01*
X135034736Y-83704477D01*
X135037772Y-83707228D01*
X135040523Y-83710264D01*
X135042964Y-83713555D01*
X135045070Y-83717069D01*
X135046822Y-83720773D01*
X135048202Y-83724631D01*
X135049198Y-83728605D01*
X135049799Y-83732658D01*
X135050000Y-83736750D01*
X135050000Y-83903250D01*
X135049799Y-83907342D01*
X135049198Y-83911395D01*
X135048202Y-83915369D01*
X135046822Y-83919227D01*
X135045070Y-83922931D01*
X135042964Y-83926445D01*
X135040523Y-83929736D01*
X135037772Y-83932772D01*
X135034736Y-83935523D01*
X135031445Y-83937964D01*
X135027931Y-83940070D01*
X135024227Y-83941822D01*
X135020369Y-83943202D01*
X135016395Y-83944198D01*
X135012342Y-83944799D01*
X135008250Y-83945000D01*
X133641750Y-83945000D01*
X133637658Y-83944799D01*
X133633605Y-83944198D01*
X133629631Y-83943202D01*
X133625773Y-83941822D01*
X133622069Y-83940070D01*
X133618555Y-83937964D01*
X133615264Y-83935523D01*
X133612228Y-83932772D01*
X133609477Y-83929736D01*
X133607036Y-83926445D01*
X133604930Y-83922931D01*
X133603178Y-83919227D01*
X133601798Y-83915369D01*
X133600802Y-83911395D01*
X133600201Y-83907342D01*
X133600000Y-83903250D01*
X133600000Y-83736750D01*
X133600201Y-83732658D01*
X133600802Y-83728605D01*
X133601798Y-83724631D01*
X133603178Y-83720773D01*
X133604930Y-83717069D01*
X133607036Y-83713555D01*
X133609477Y-83710264D01*
X133612228Y-83707228D01*
X133615264Y-83704477D01*
X133618555Y-83702036D01*
X133622069Y-83699930D01*
X133625773Y-83698178D01*
X133629631Y-83696798D01*
X133633605Y-83695802D01*
X133637658Y-83695201D01*
X133641750Y-83695000D01*
X135008250Y-83695000D01*
X135012342Y-83695201D01*
X135012342Y-83695201D01*
G37*
D11*
X134325000Y-83820000D03*
D10*
G36*
X135012342Y-84195201D02*
G01*
X135016395Y-84195802D01*
X135020369Y-84196798D01*
X135024227Y-84198178D01*
X135027931Y-84199930D01*
X135031445Y-84202036D01*
X135034736Y-84204477D01*
X135037772Y-84207228D01*
X135040523Y-84210264D01*
X135042964Y-84213555D01*
X135045070Y-84217069D01*
X135046822Y-84220773D01*
X135048202Y-84224631D01*
X135049198Y-84228605D01*
X135049799Y-84232658D01*
X135050000Y-84236750D01*
X135050000Y-84403250D01*
X135049799Y-84407342D01*
X135049198Y-84411395D01*
X135048202Y-84415369D01*
X135046822Y-84419227D01*
X135045070Y-84422931D01*
X135042964Y-84426445D01*
X135040523Y-84429736D01*
X135037772Y-84432772D01*
X135034736Y-84435523D01*
X135031445Y-84437964D01*
X135027931Y-84440070D01*
X135024227Y-84441822D01*
X135020369Y-84443202D01*
X135016395Y-84444198D01*
X135012342Y-84444799D01*
X135008250Y-84445000D01*
X133641750Y-84445000D01*
X133637658Y-84444799D01*
X133633605Y-84444198D01*
X133629631Y-84443202D01*
X133625773Y-84441822D01*
X133622069Y-84440070D01*
X133618555Y-84437964D01*
X133615264Y-84435523D01*
X133612228Y-84432772D01*
X133609477Y-84429736D01*
X133607036Y-84426445D01*
X133604930Y-84422931D01*
X133603178Y-84419227D01*
X133601798Y-84415369D01*
X133600802Y-84411395D01*
X133600201Y-84407342D01*
X133600000Y-84403250D01*
X133600000Y-84236750D01*
X133600201Y-84232658D01*
X133600802Y-84228605D01*
X133601798Y-84224631D01*
X133603178Y-84220773D01*
X133604930Y-84217069D01*
X133607036Y-84213555D01*
X133609477Y-84210264D01*
X133612228Y-84207228D01*
X133615264Y-84204477D01*
X133618555Y-84202036D01*
X133622069Y-84199930D01*
X133625773Y-84198178D01*
X133629631Y-84196798D01*
X133633605Y-84195802D01*
X133637658Y-84195201D01*
X133641750Y-84195000D01*
X135008250Y-84195000D01*
X135012342Y-84195201D01*
X135012342Y-84195201D01*
G37*
D11*
X134325000Y-84320000D03*
D10*
G36*
X135012342Y-84695201D02*
G01*
X135016395Y-84695802D01*
X135020369Y-84696798D01*
X135024227Y-84698178D01*
X135027931Y-84699930D01*
X135031445Y-84702036D01*
X135034736Y-84704477D01*
X135037772Y-84707228D01*
X135040523Y-84710264D01*
X135042964Y-84713555D01*
X135045070Y-84717069D01*
X135046822Y-84720773D01*
X135048202Y-84724631D01*
X135049198Y-84728605D01*
X135049799Y-84732658D01*
X135050000Y-84736750D01*
X135050000Y-84903250D01*
X135049799Y-84907342D01*
X135049198Y-84911395D01*
X135048202Y-84915369D01*
X135046822Y-84919227D01*
X135045070Y-84922931D01*
X135042964Y-84926445D01*
X135040523Y-84929736D01*
X135037772Y-84932772D01*
X135034736Y-84935523D01*
X135031445Y-84937964D01*
X135027931Y-84940070D01*
X135024227Y-84941822D01*
X135020369Y-84943202D01*
X135016395Y-84944198D01*
X135012342Y-84944799D01*
X135008250Y-84945000D01*
X133641750Y-84945000D01*
X133637658Y-84944799D01*
X133633605Y-84944198D01*
X133629631Y-84943202D01*
X133625773Y-84941822D01*
X133622069Y-84940070D01*
X133618555Y-84937964D01*
X133615264Y-84935523D01*
X133612228Y-84932772D01*
X133609477Y-84929736D01*
X133607036Y-84926445D01*
X133604930Y-84922931D01*
X133603178Y-84919227D01*
X133601798Y-84915369D01*
X133600802Y-84911395D01*
X133600201Y-84907342D01*
X133600000Y-84903250D01*
X133600000Y-84736750D01*
X133600201Y-84732658D01*
X133600802Y-84728605D01*
X133601798Y-84724631D01*
X133603178Y-84720773D01*
X133604930Y-84717069D01*
X133607036Y-84713555D01*
X133609477Y-84710264D01*
X133612228Y-84707228D01*
X133615264Y-84704477D01*
X133618555Y-84702036D01*
X133622069Y-84699930D01*
X133625773Y-84698178D01*
X133629631Y-84696798D01*
X133633605Y-84695802D01*
X133637658Y-84695201D01*
X133641750Y-84695000D01*
X135008250Y-84695000D01*
X135012342Y-84695201D01*
X135012342Y-84695201D01*
G37*
D11*
X134325000Y-84820000D03*
D10*
G36*
X135012342Y-85195201D02*
G01*
X135016395Y-85195802D01*
X135020369Y-85196798D01*
X135024227Y-85198178D01*
X135027931Y-85199930D01*
X135031445Y-85202036D01*
X135034736Y-85204477D01*
X135037772Y-85207228D01*
X135040523Y-85210264D01*
X135042964Y-85213555D01*
X135045070Y-85217069D01*
X135046822Y-85220773D01*
X135048202Y-85224631D01*
X135049198Y-85228605D01*
X135049799Y-85232658D01*
X135050000Y-85236750D01*
X135050000Y-85403250D01*
X135049799Y-85407342D01*
X135049198Y-85411395D01*
X135048202Y-85415369D01*
X135046822Y-85419227D01*
X135045070Y-85422931D01*
X135042964Y-85426445D01*
X135040523Y-85429736D01*
X135037772Y-85432772D01*
X135034736Y-85435523D01*
X135031445Y-85437964D01*
X135027931Y-85440070D01*
X135024227Y-85441822D01*
X135020369Y-85443202D01*
X135016395Y-85444198D01*
X135012342Y-85444799D01*
X135008250Y-85445000D01*
X133641750Y-85445000D01*
X133637658Y-85444799D01*
X133633605Y-85444198D01*
X133629631Y-85443202D01*
X133625773Y-85441822D01*
X133622069Y-85440070D01*
X133618555Y-85437964D01*
X133615264Y-85435523D01*
X133612228Y-85432772D01*
X133609477Y-85429736D01*
X133607036Y-85426445D01*
X133604930Y-85422931D01*
X133603178Y-85419227D01*
X133601798Y-85415369D01*
X133600802Y-85411395D01*
X133600201Y-85407342D01*
X133600000Y-85403250D01*
X133600000Y-85236750D01*
X133600201Y-85232658D01*
X133600802Y-85228605D01*
X133601798Y-85224631D01*
X133603178Y-85220773D01*
X133604930Y-85217069D01*
X133607036Y-85213555D01*
X133609477Y-85210264D01*
X133612228Y-85207228D01*
X133615264Y-85204477D01*
X133618555Y-85202036D01*
X133622069Y-85199930D01*
X133625773Y-85198178D01*
X133629631Y-85196798D01*
X133633605Y-85195802D01*
X133637658Y-85195201D01*
X133641750Y-85195000D01*
X135008250Y-85195000D01*
X135012342Y-85195201D01*
X135012342Y-85195201D01*
G37*
D11*
X134325000Y-85320000D03*
D10*
G36*
X135012342Y-85695201D02*
G01*
X135016395Y-85695802D01*
X135020369Y-85696798D01*
X135024227Y-85698178D01*
X135027931Y-85699930D01*
X135031445Y-85702036D01*
X135034736Y-85704477D01*
X135037772Y-85707228D01*
X135040523Y-85710264D01*
X135042964Y-85713555D01*
X135045070Y-85717069D01*
X135046822Y-85720773D01*
X135048202Y-85724631D01*
X135049198Y-85728605D01*
X135049799Y-85732658D01*
X135050000Y-85736750D01*
X135050000Y-85903250D01*
X135049799Y-85907342D01*
X135049198Y-85911395D01*
X135048202Y-85915369D01*
X135046822Y-85919227D01*
X135045070Y-85922931D01*
X135042964Y-85926445D01*
X135040523Y-85929736D01*
X135037772Y-85932772D01*
X135034736Y-85935523D01*
X135031445Y-85937964D01*
X135027931Y-85940070D01*
X135024227Y-85941822D01*
X135020369Y-85943202D01*
X135016395Y-85944198D01*
X135012342Y-85944799D01*
X135008250Y-85945000D01*
X133641750Y-85945000D01*
X133637658Y-85944799D01*
X133633605Y-85944198D01*
X133629631Y-85943202D01*
X133625773Y-85941822D01*
X133622069Y-85940070D01*
X133618555Y-85937964D01*
X133615264Y-85935523D01*
X133612228Y-85932772D01*
X133609477Y-85929736D01*
X133607036Y-85926445D01*
X133604930Y-85922931D01*
X133603178Y-85919227D01*
X133601798Y-85915369D01*
X133600802Y-85911395D01*
X133600201Y-85907342D01*
X133600000Y-85903250D01*
X133600000Y-85736750D01*
X133600201Y-85732658D01*
X133600802Y-85728605D01*
X133601798Y-85724631D01*
X133603178Y-85720773D01*
X133604930Y-85717069D01*
X133607036Y-85713555D01*
X133609477Y-85710264D01*
X133612228Y-85707228D01*
X133615264Y-85704477D01*
X133618555Y-85702036D01*
X133622069Y-85699930D01*
X133625773Y-85698178D01*
X133629631Y-85696798D01*
X133633605Y-85695802D01*
X133637658Y-85695201D01*
X133641750Y-85695000D01*
X135008250Y-85695000D01*
X135012342Y-85695201D01*
X135012342Y-85695201D01*
G37*
D11*
X134325000Y-85820000D03*
D10*
G36*
X139412342Y-83695201D02*
G01*
X139416395Y-83695802D01*
X139420369Y-83696798D01*
X139424227Y-83698178D01*
X139427931Y-83699930D01*
X139431445Y-83702036D01*
X139434736Y-83704477D01*
X139437772Y-83707228D01*
X139440523Y-83710264D01*
X139442964Y-83713555D01*
X139445070Y-83717069D01*
X139446822Y-83720773D01*
X139448202Y-83724631D01*
X139449198Y-83728605D01*
X139449799Y-83732658D01*
X139450000Y-83736750D01*
X139450000Y-83903250D01*
X139449799Y-83907342D01*
X139449198Y-83911395D01*
X139448202Y-83915369D01*
X139446822Y-83919227D01*
X139445070Y-83922931D01*
X139442964Y-83926445D01*
X139440523Y-83929736D01*
X139437772Y-83932772D01*
X139434736Y-83935523D01*
X139431445Y-83937964D01*
X139427931Y-83940070D01*
X139424227Y-83941822D01*
X139420369Y-83943202D01*
X139416395Y-83944198D01*
X139412342Y-83944799D01*
X139408250Y-83945000D01*
X138041750Y-83945000D01*
X138037658Y-83944799D01*
X138033605Y-83944198D01*
X138029631Y-83943202D01*
X138025773Y-83941822D01*
X138022069Y-83940070D01*
X138018555Y-83937964D01*
X138015264Y-83935523D01*
X138012228Y-83932772D01*
X138009477Y-83929736D01*
X138007036Y-83926445D01*
X138004930Y-83922931D01*
X138003178Y-83919227D01*
X138001798Y-83915369D01*
X138000802Y-83911395D01*
X138000201Y-83907342D01*
X138000000Y-83903250D01*
X138000000Y-83736750D01*
X138000201Y-83732658D01*
X138000802Y-83728605D01*
X138001798Y-83724631D01*
X138003178Y-83720773D01*
X138004930Y-83717069D01*
X138007036Y-83713555D01*
X138009477Y-83710264D01*
X138012228Y-83707228D01*
X138015264Y-83704477D01*
X138018555Y-83702036D01*
X138022069Y-83699930D01*
X138025773Y-83698178D01*
X138029631Y-83696798D01*
X138033605Y-83695802D01*
X138037658Y-83695201D01*
X138041750Y-83695000D01*
X139408250Y-83695000D01*
X139412342Y-83695201D01*
X139412342Y-83695201D01*
G37*
D11*
X138725000Y-83820000D03*
D10*
G36*
X139412342Y-84195201D02*
G01*
X139416395Y-84195802D01*
X139420369Y-84196798D01*
X139424227Y-84198178D01*
X139427931Y-84199930D01*
X139431445Y-84202036D01*
X139434736Y-84204477D01*
X139437772Y-84207228D01*
X139440523Y-84210264D01*
X139442964Y-84213555D01*
X139445070Y-84217069D01*
X139446822Y-84220773D01*
X139448202Y-84224631D01*
X139449198Y-84228605D01*
X139449799Y-84232658D01*
X139450000Y-84236750D01*
X139450000Y-84403250D01*
X139449799Y-84407342D01*
X139449198Y-84411395D01*
X139448202Y-84415369D01*
X139446822Y-84419227D01*
X139445070Y-84422931D01*
X139442964Y-84426445D01*
X139440523Y-84429736D01*
X139437772Y-84432772D01*
X139434736Y-84435523D01*
X139431445Y-84437964D01*
X139427931Y-84440070D01*
X139424227Y-84441822D01*
X139420369Y-84443202D01*
X139416395Y-84444198D01*
X139412342Y-84444799D01*
X139408250Y-84445000D01*
X138041750Y-84445000D01*
X138037658Y-84444799D01*
X138033605Y-84444198D01*
X138029631Y-84443202D01*
X138025773Y-84441822D01*
X138022069Y-84440070D01*
X138018555Y-84437964D01*
X138015264Y-84435523D01*
X138012228Y-84432772D01*
X138009477Y-84429736D01*
X138007036Y-84426445D01*
X138004930Y-84422931D01*
X138003178Y-84419227D01*
X138001798Y-84415369D01*
X138000802Y-84411395D01*
X138000201Y-84407342D01*
X138000000Y-84403250D01*
X138000000Y-84236750D01*
X138000201Y-84232658D01*
X138000802Y-84228605D01*
X138001798Y-84224631D01*
X138003178Y-84220773D01*
X138004930Y-84217069D01*
X138007036Y-84213555D01*
X138009477Y-84210264D01*
X138012228Y-84207228D01*
X138015264Y-84204477D01*
X138018555Y-84202036D01*
X138022069Y-84199930D01*
X138025773Y-84198178D01*
X138029631Y-84196798D01*
X138033605Y-84195802D01*
X138037658Y-84195201D01*
X138041750Y-84195000D01*
X139408250Y-84195000D01*
X139412342Y-84195201D01*
X139412342Y-84195201D01*
G37*
D11*
X138725000Y-84320000D03*
D10*
G36*
X139412342Y-84695201D02*
G01*
X139416395Y-84695802D01*
X139420369Y-84696798D01*
X139424227Y-84698178D01*
X139427931Y-84699930D01*
X139431445Y-84702036D01*
X139434736Y-84704477D01*
X139437772Y-84707228D01*
X139440523Y-84710264D01*
X139442964Y-84713555D01*
X139445070Y-84717069D01*
X139446822Y-84720773D01*
X139448202Y-84724631D01*
X139449198Y-84728605D01*
X139449799Y-84732658D01*
X139450000Y-84736750D01*
X139450000Y-84903250D01*
X139449799Y-84907342D01*
X139449198Y-84911395D01*
X139448202Y-84915369D01*
X139446822Y-84919227D01*
X139445070Y-84922931D01*
X139442964Y-84926445D01*
X139440523Y-84929736D01*
X139437772Y-84932772D01*
X139434736Y-84935523D01*
X139431445Y-84937964D01*
X139427931Y-84940070D01*
X139424227Y-84941822D01*
X139420369Y-84943202D01*
X139416395Y-84944198D01*
X139412342Y-84944799D01*
X139408250Y-84945000D01*
X138041750Y-84945000D01*
X138037658Y-84944799D01*
X138033605Y-84944198D01*
X138029631Y-84943202D01*
X138025773Y-84941822D01*
X138022069Y-84940070D01*
X138018555Y-84937964D01*
X138015264Y-84935523D01*
X138012228Y-84932772D01*
X138009477Y-84929736D01*
X138007036Y-84926445D01*
X138004930Y-84922931D01*
X138003178Y-84919227D01*
X138001798Y-84915369D01*
X138000802Y-84911395D01*
X138000201Y-84907342D01*
X138000000Y-84903250D01*
X138000000Y-84736750D01*
X138000201Y-84732658D01*
X138000802Y-84728605D01*
X138001798Y-84724631D01*
X138003178Y-84720773D01*
X138004930Y-84717069D01*
X138007036Y-84713555D01*
X138009477Y-84710264D01*
X138012228Y-84707228D01*
X138015264Y-84704477D01*
X138018555Y-84702036D01*
X138022069Y-84699930D01*
X138025773Y-84698178D01*
X138029631Y-84696798D01*
X138033605Y-84695802D01*
X138037658Y-84695201D01*
X138041750Y-84695000D01*
X139408250Y-84695000D01*
X139412342Y-84695201D01*
X139412342Y-84695201D01*
G37*
D11*
X138725000Y-84820000D03*
D10*
G36*
X139412342Y-85195201D02*
G01*
X139416395Y-85195802D01*
X139420369Y-85196798D01*
X139424227Y-85198178D01*
X139427931Y-85199930D01*
X139431445Y-85202036D01*
X139434736Y-85204477D01*
X139437772Y-85207228D01*
X139440523Y-85210264D01*
X139442964Y-85213555D01*
X139445070Y-85217069D01*
X139446822Y-85220773D01*
X139448202Y-85224631D01*
X139449198Y-85228605D01*
X139449799Y-85232658D01*
X139450000Y-85236750D01*
X139450000Y-85403250D01*
X139449799Y-85407342D01*
X139449198Y-85411395D01*
X139448202Y-85415369D01*
X139446822Y-85419227D01*
X139445070Y-85422931D01*
X139442964Y-85426445D01*
X139440523Y-85429736D01*
X139437772Y-85432772D01*
X139434736Y-85435523D01*
X139431445Y-85437964D01*
X139427931Y-85440070D01*
X139424227Y-85441822D01*
X139420369Y-85443202D01*
X139416395Y-85444198D01*
X139412342Y-85444799D01*
X139408250Y-85445000D01*
X138041750Y-85445000D01*
X138037658Y-85444799D01*
X138033605Y-85444198D01*
X138029631Y-85443202D01*
X138025773Y-85441822D01*
X138022069Y-85440070D01*
X138018555Y-85437964D01*
X138015264Y-85435523D01*
X138012228Y-85432772D01*
X138009477Y-85429736D01*
X138007036Y-85426445D01*
X138004930Y-85422931D01*
X138003178Y-85419227D01*
X138001798Y-85415369D01*
X138000802Y-85411395D01*
X138000201Y-85407342D01*
X138000000Y-85403250D01*
X138000000Y-85236750D01*
X138000201Y-85232658D01*
X138000802Y-85228605D01*
X138001798Y-85224631D01*
X138003178Y-85220773D01*
X138004930Y-85217069D01*
X138007036Y-85213555D01*
X138009477Y-85210264D01*
X138012228Y-85207228D01*
X138015264Y-85204477D01*
X138018555Y-85202036D01*
X138022069Y-85199930D01*
X138025773Y-85198178D01*
X138029631Y-85196798D01*
X138033605Y-85195802D01*
X138037658Y-85195201D01*
X138041750Y-85195000D01*
X139408250Y-85195000D01*
X139412342Y-85195201D01*
X139412342Y-85195201D01*
G37*
D11*
X138725000Y-85320000D03*
D10*
G36*
X139412342Y-85695201D02*
G01*
X139416395Y-85695802D01*
X139420369Y-85696798D01*
X139424227Y-85698178D01*
X139427931Y-85699930D01*
X139431445Y-85702036D01*
X139434736Y-85704477D01*
X139437772Y-85707228D01*
X139440523Y-85710264D01*
X139442964Y-85713555D01*
X139445070Y-85717069D01*
X139446822Y-85720773D01*
X139448202Y-85724631D01*
X139449198Y-85728605D01*
X139449799Y-85732658D01*
X139450000Y-85736750D01*
X139450000Y-85903250D01*
X139449799Y-85907342D01*
X139449198Y-85911395D01*
X139448202Y-85915369D01*
X139446822Y-85919227D01*
X139445070Y-85922931D01*
X139442964Y-85926445D01*
X139440523Y-85929736D01*
X139437772Y-85932772D01*
X139434736Y-85935523D01*
X139431445Y-85937964D01*
X139427931Y-85940070D01*
X139424227Y-85941822D01*
X139420369Y-85943202D01*
X139416395Y-85944198D01*
X139412342Y-85944799D01*
X139408250Y-85945000D01*
X138041750Y-85945000D01*
X138037658Y-85944799D01*
X138033605Y-85944198D01*
X138029631Y-85943202D01*
X138025773Y-85941822D01*
X138022069Y-85940070D01*
X138018555Y-85937964D01*
X138015264Y-85935523D01*
X138012228Y-85932772D01*
X138009477Y-85929736D01*
X138007036Y-85926445D01*
X138004930Y-85922931D01*
X138003178Y-85919227D01*
X138001798Y-85915369D01*
X138000802Y-85911395D01*
X138000201Y-85907342D01*
X138000000Y-85903250D01*
X138000000Y-85736750D01*
X138000201Y-85732658D01*
X138000802Y-85728605D01*
X138001798Y-85724631D01*
X138003178Y-85720773D01*
X138004930Y-85717069D01*
X138007036Y-85713555D01*
X138009477Y-85710264D01*
X138012228Y-85707228D01*
X138015264Y-85704477D01*
X138018555Y-85702036D01*
X138022069Y-85699930D01*
X138025773Y-85698178D01*
X138029631Y-85696798D01*
X138033605Y-85695802D01*
X138037658Y-85695201D01*
X138041750Y-85695000D01*
X139408250Y-85695000D01*
X139412342Y-85695201D01*
X139412342Y-85695201D01*
G37*
D11*
X138725000Y-85820000D03*
D12*
X127635000Y-80010000D03*
D13*
X127635000Y-82550000D03*
X127635000Y-85090000D03*
X127635000Y-87630000D03*
X127635000Y-90170000D03*
X145415000Y-80010000D03*
X145415000Y-82550000D03*
X145415000Y-85090000D03*
X145415000Y-87630000D03*
D12*
X145415000Y-90170000D03*
D14*
X130515000Y-80010000D02*
X127635000Y-80010000D01*
X130600000Y-80010000D02*
X130515000Y-80010000D01*
X134330000Y-83740000D02*
X130600000Y-80010000D01*
D15*
X131318000Y-82550000D02*
X127635000Y-82550000D01*
X134325000Y-84320000D02*
X133088000Y-84320000D01*
X133088000Y-84320000D02*
X131318000Y-82550000D01*
X127905000Y-84820000D02*
X127635000Y-85090000D01*
X134325000Y-84820000D02*
X127905000Y-84820000D01*
X134325000Y-85320000D02*
X133120000Y-85320000D01*
X130810000Y-87630000D02*
X127635000Y-87630000D01*
X133120000Y-85320000D02*
X130810000Y-87630000D01*
D14*
X129975000Y-90170000D02*
X127635000Y-90170000D01*
X130100000Y-90170000D02*
X129975000Y-90170000D01*
X134370000Y-85900000D02*
X130100000Y-90170000D01*
X142610000Y-80010000D02*
X145415000Y-80010000D01*
X142480000Y-80010000D02*
X138730000Y-83760000D01*
X142610000Y-80010000D02*
X142480000Y-80010000D01*
D15*
X141605000Y-82550000D02*
X145415000Y-82550000D01*
X138725000Y-84320000D02*
X139835000Y-84320000D01*
X139835000Y-84320000D02*
X141605000Y-82550000D01*
X145145000Y-84820000D02*
X145415000Y-85090000D01*
X138725000Y-84820000D02*
X145145000Y-84820000D01*
X142240000Y-87630000D02*
X145415000Y-87630000D01*
X138725000Y-85320000D02*
X139930000Y-85320000D01*
X139930000Y-85320000D02*
X142240000Y-87630000D01*
D14*
X142875000Y-90170000D02*
X145415000Y-90170000D01*
X138680000Y-85980000D02*
X142830000Y-90130000D01*
M02*
