G04 #@! TF.GenerationSoftware,KiCad,Pcbnew,(5.1.4)-1*
G04 #@! TF.CreationDate,2019-11-18T21:44:18+01:00*
G04 #@! TF.ProjectId,AR_PDM_INA233_breakout,41525f50-444d-45f4-994e-413233335f62,rev?*
G04 #@! TF.SameCoordinates,Original*
G04 #@! TF.FileFunction,Copper,L1,Top*
G04 #@! TF.FilePolarity,Positive*
%FSLAX46Y46*%
G04 Gerber Fmt 4.6, Leading zero omitted, Abs format (unit mm)*
G04 Created by KiCad (PCBNEW (5.1.4)-1) date 2019-11-18 21:44:18*
%MOMM*%
%LPD*%
G04 APERTURE LIST*
%ADD10R,1.700000X1.700000*%
%ADD11O,1.700000X1.700000*%
%ADD12C,0.100000*%
%ADD13C,0.300000*%
%ADD14C,0.250000*%
G04 APERTURE END LIST*
D10*
X127635000Y-80010000D03*
D11*
X127635000Y-82550000D03*
X127635000Y-85090000D03*
X127635000Y-87630000D03*
X127635000Y-90170000D03*
X145415000Y-80010000D03*
X145415000Y-82550000D03*
X145415000Y-85090000D03*
X145415000Y-87630000D03*
D10*
X145415000Y-90170000D03*
D12*
G36*
X135004811Y-83670241D02*
G01*
X135009674Y-83670963D01*
X135014443Y-83672157D01*
X135019072Y-83673814D01*
X135023517Y-83675916D01*
X135027734Y-83678443D01*
X135031683Y-83681372D01*
X135035326Y-83684674D01*
X135038628Y-83688317D01*
X135041557Y-83692266D01*
X135044084Y-83696483D01*
X135046186Y-83700928D01*
X135047843Y-83705557D01*
X135049037Y-83710326D01*
X135049759Y-83715189D01*
X135050000Y-83720100D01*
X135050000Y-83919900D01*
X135049759Y-83924811D01*
X135049037Y-83929674D01*
X135047843Y-83934443D01*
X135046186Y-83939072D01*
X135044084Y-83943517D01*
X135041557Y-83947734D01*
X135038628Y-83951683D01*
X135035326Y-83955326D01*
X135031683Y-83958628D01*
X135027734Y-83961557D01*
X135023517Y-83964084D01*
X135019072Y-83966186D01*
X135014443Y-83967843D01*
X135009674Y-83969037D01*
X135004811Y-83969759D01*
X134999900Y-83970000D01*
X133650100Y-83970000D01*
X133645189Y-83969759D01*
X133640326Y-83969037D01*
X133635557Y-83967843D01*
X133630928Y-83966186D01*
X133626483Y-83964084D01*
X133622266Y-83961557D01*
X133618317Y-83958628D01*
X133614674Y-83955326D01*
X133611372Y-83951683D01*
X133608443Y-83947734D01*
X133605916Y-83943517D01*
X133603814Y-83939072D01*
X133602157Y-83934443D01*
X133600963Y-83929674D01*
X133600241Y-83924811D01*
X133600000Y-83919900D01*
X133600000Y-83720100D01*
X133600241Y-83715189D01*
X133600963Y-83710326D01*
X133602157Y-83705557D01*
X133603814Y-83700928D01*
X133605916Y-83696483D01*
X133608443Y-83692266D01*
X133611372Y-83688317D01*
X133614674Y-83684674D01*
X133618317Y-83681372D01*
X133622266Y-83678443D01*
X133626483Y-83675916D01*
X133630928Y-83673814D01*
X133635557Y-83672157D01*
X133640326Y-83670963D01*
X133645189Y-83670241D01*
X133650100Y-83670000D01*
X134999900Y-83670000D01*
X135004811Y-83670241D01*
X135004811Y-83670241D01*
G37*
D13*
X134325000Y-83820000D03*
D12*
G36*
X135004811Y-84170241D02*
G01*
X135009674Y-84170963D01*
X135014443Y-84172157D01*
X135019072Y-84173814D01*
X135023517Y-84175916D01*
X135027734Y-84178443D01*
X135031683Y-84181372D01*
X135035326Y-84184674D01*
X135038628Y-84188317D01*
X135041557Y-84192266D01*
X135044084Y-84196483D01*
X135046186Y-84200928D01*
X135047843Y-84205557D01*
X135049037Y-84210326D01*
X135049759Y-84215189D01*
X135050000Y-84220100D01*
X135050000Y-84419900D01*
X135049759Y-84424811D01*
X135049037Y-84429674D01*
X135047843Y-84434443D01*
X135046186Y-84439072D01*
X135044084Y-84443517D01*
X135041557Y-84447734D01*
X135038628Y-84451683D01*
X135035326Y-84455326D01*
X135031683Y-84458628D01*
X135027734Y-84461557D01*
X135023517Y-84464084D01*
X135019072Y-84466186D01*
X135014443Y-84467843D01*
X135009674Y-84469037D01*
X135004811Y-84469759D01*
X134999900Y-84470000D01*
X133650100Y-84470000D01*
X133645189Y-84469759D01*
X133640326Y-84469037D01*
X133635557Y-84467843D01*
X133630928Y-84466186D01*
X133626483Y-84464084D01*
X133622266Y-84461557D01*
X133618317Y-84458628D01*
X133614674Y-84455326D01*
X133611372Y-84451683D01*
X133608443Y-84447734D01*
X133605916Y-84443517D01*
X133603814Y-84439072D01*
X133602157Y-84434443D01*
X133600963Y-84429674D01*
X133600241Y-84424811D01*
X133600000Y-84419900D01*
X133600000Y-84220100D01*
X133600241Y-84215189D01*
X133600963Y-84210326D01*
X133602157Y-84205557D01*
X133603814Y-84200928D01*
X133605916Y-84196483D01*
X133608443Y-84192266D01*
X133611372Y-84188317D01*
X133614674Y-84184674D01*
X133618317Y-84181372D01*
X133622266Y-84178443D01*
X133626483Y-84175916D01*
X133630928Y-84173814D01*
X133635557Y-84172157D01*
X133640326Y-84170963D01*
X133645189Y-84170241D01*
X133650100Y-84170000D01*
X134999900Y-84170000D01*
X135004811Y-84170241D01*
X135004811Y-84170241D01*
G37*
D13*
X134325000Y-84320000D03*
D12*
G36*
X135004811Y-84670241D02*
G01*
X135009674Y-84670963D01*
X135014443Y-84672157D01*
X135019072Y-84673814D01*
X135023517Y-84675916D01*
X135027734Y-84678443D01*
X135031683Y-84681372D01*
X135035326Y-84684674D01*
X135038628Y-84688317D01*
X135041557Y-84692266D01*
X135044084Y-84696483D01*
X135046186Y-84700928D01*
X135047843Y-84705557D01*
X135049037Y-84710326D01*
X135049759Y-84715189D01*
X135050000Y-84720100D01*
X135050000Y-84919900D01*
X135049759Y-84924811D01*
X135049037Y-84929674D01*
X135047843Y-84934443D01*
X135046186Y-84939072D01*
X135044084Y-84943517D01*
X135041557Y-84947734D01*
X135038628Y-84951683D01*
X135035326Y-84955326D01*
X135031683Y-84958628D01*
X135027734Y-84961557D01*
X135023517Y-84964084D01*
X135019072Y-84966186D01*
X135014443Y-84967843D01*
X135009674Y-84969037D01*
X135004811Y-84969759D01*
X134999900Y-84970000D01*
X133650100Y-84970000D01*
X133645189Y-84969759D01*
X133640326Y-84969037D01*
X133635557Y-84967843D01*
X133630928Y-84966186D01*
X133626483Y-84964084D01*
X133622266Y-84961557D01*
X133618317Y-84958628D01*
X133614674Y-84955326D01*
X133611372Y-84951683D01*
X133608443Y-84947734D01*
X133605916Y-84943517D01*
X133603814Y-84939072D01*
X133602157Y-84934443D01*
X133600963Y-84929674D01*
X133600241Y-84924811D01*
X133600000Y-84919900D01*
X133600000Y-84720100D01*
X133600241Y-84715189D01*
X133600963Y-84710326D01*
X133602157Y-84705557D01*
X133603814Y-84700928D01*
X133605916Y-84696483D01*
X133608443Y-84692266D01*
X133611372Y-84688317D01*
X133614674Y-84684674D01*
X133618317Y-84681372D01*
X133622266Y-84678443D01*
X133626483Y-84675916D01*
X133630928Y-84673814D01*
X133635557Y-84672157D01*
X133640326Y-84670963D01*
X133645189Y-84670241D01*
X133650100Y-84670000D01*
X134999900Y-84670000D01*
X135004811Y-84670241D01*
X135004811Y-84670241D01*
G37*
D13*
X134325000Y-84820000D03*
D12*
G36*
X135004811Y-85170241D02*
G01*
X135009674Y-85170963D01*
X135014443Y-85172157D01*
X135019072Y-85173814D01*
X135023517Y-85175916D01*
X135027734Y-85178443D01*
X135031683Y-85181372D01*
X135035326Y-85184674D01*
X135038628Y-85188317D01*
X135041557Y-85192266D01*
X135044084Y-85196483D01*
X135046186Y-85200928D01*
X135047843Y-85205557D01*
X135049037Y-85210326D01*
X135049759Y-85215189D01*
X135050000Y-85220100D01*
X135050000Y-85419900D01*
X135049759Y-85424811D01*
X135049037Y-85429674D01*
X135047843Y-85434443D01*
X135046186Y-85439072D01*
X135044084Y-85443517D01*
X135041557Y-85447734D01*
X135038628Y-85451683D01*
X135035326Y-85455326D01*
X135031683Y-85458628D01*
X135027734Y-85461557D01*
X135023517Y-85464084D01*
X135019072Y-85466186D01*
X135014443Y-85467843D01*
X135009674Y-85469037D01*
X135004811Y-85469759D01*
X134999900Y-85470000D01*
X133650100Y-85470000D01*
X133645189Y-85469759D01*
X133640326Y-85469037D01*
X133635557Y-85467843D01*
X133630928Y-85466186D01*
X133626483Y-85464084D01*
X133622266Y-85461557D01*
X133618317Y-85458628D01*
X133614674Y-85455326D01*
X133611372Y-85451683D01*
X133608443Y-85447734D01*
X133605916Y-85443517D01*
X133603814Y-85439072D01*
X133602157Y-85434443D01*
X133600963Y-85429674D01*
X133600241Y-85424811D01*
X133600000Y-85419900D01*
X133600000Y-85220100D01*
X133600241Y-85215189D01*
X133600963Y-85210326D01*
X133602157Y-85205557D01*
X133603814Y-85200928D01*
X133605916Y-85196483D01*
X133608443Y-85192266D01*
X133611372Y-85188317D01*
X133614674Y-85184674D01*
X133618317Y-85181372D01*
X133622266Y-85178443D01*
X133626483Y-85175916D01*
X133630928Y-85173814D01*
X133635557Y-85172157D01*
X133640326Y-85170963D01*
X133645189Y-85170241D01*
X133650100Y-85170000D01*
X134999900Y-85170000D01*
X135004811Y-85170241D01*
X135004811Y-85170241D01*
G37*
D13*
X134325000Y-85320000D03*
D12*
G36*
X135004811Y-85670241D02*
G01*
X135009674Y-85670963D01*
X135014443Y-85672157D01*
X135019072Y-85673814D01*
X135023517Y-85675916D01*
X135027734Y-85678443D01*
X135031683Y-85681372D01*
X135035326Y-85684674D01*
X135038628Y-85688317D01*
X135041557Y-85692266D01*
X135044084Y-85696483D01*
X135046186Y-85700928D01*
X135047843Y-85705557D01*
X135049037Y-85710326D01*
X135049759Y-85715189D01*
X135050000Y-85720100D01*
X135050000Y-85919900D01*
X135049759Y-85924811D01*
X135049037Y-85929674D01*
X135047843Y-85934443D01*
X135046186Y-85939072D01*
X135044084Y-85943517D01*
X135041557Y-85947734D01*
X135038628Y-85951683D01*
X135035326Y-85955326D01*
X135031683Y-85958628D01*
X135027734Y-85961557D01*
X135023517Y-85964084D01*
X135019072Y-85966186D01*
X135014443Y-85967843D01*
X135009674Y-85969037D01*
X135004811Y-85969759D01*
X134999900Y-85970000D01*
X133650100Y-85970000D01*
X133645189Y-85969759D01*
X133640326Y-85969037D01*
X133635557Y-85967843D01*
X133630928Y-85966186D01*
X133626483Y-85964084D01*
X133622266Y-85961557D01*
X133618317Y-85958628D01*
X133614674Y-85955326D01*
X133611372Y-85951683D01*
X133608443Y-85947734D01*
X133605916Y-85943517D01*
X133603814Y-85939072D01*
X133602157Y-85934443D01*
X133600963Y-85929674D01*
X133600241Y-85924811D01*
X133600000Y-85919900D01*
X133600000Y-85720100D01*
X133600241Y-85715189D01*
X133600963Y-85710326D01*
X133602157Y-85705557D01*
X133603814Y-85700928D01*
X133605916Y-85696483D01*
X133608443Y-85692266D01*
X133611372Y-85688317D01*
X133614674Y-85684674D01*
X133618317Y-85681372D01*
X133622266Y-85678443D01*
X133626483Y-85675916D01*
X133630928Y-85673814D01*
X133635557Y-85672157D01*
X133640326Y-85670963D01*
X133645189Y-85670241D01*
X133650100Y-85670000D01*
X134999900Y-85670000D01*
X135004811Y-85670241D01*
X135004811Y-85670241D01*
G37*
D13*
X134325000Y-85820000D03*
D12*
G36*
X139404811Y-83670241D02*
G01*
X139409674Y-83670963D01*
X139414443Y-83672157D01*
X139419072Y-83673814D01*
X139423517Y-83675916D01*
X139427734Y-83678443D01*
X139431683Y-83681372D01*
X139435326Y-83684674D01*
X139438628Y-83688317D01*
X139441557Y-83692266D01*
X139444084Y-83696483D01*
X139446186Y-83700928D01*
X139447843Y-83705557D01*
X139449037Y-83710326D01*
X139449759Y-83715189D01*
X139450000Y-83720100D01*
X139450000Y-83919900D01*
X139449759Y-83924811D01*
X139449037Y-83929674D01*
X139447843Y-83934443D01*
X139446186Y-83939072D01*
X139444084Y-83943517D01*
X139441557Y-83947734D01*
X139438628Y-83951683D01*
X139435326Y-83955326D01*
X139431683Y-83958628D01*
X139427734Y-83961557D01*
X139423517Y-83964084D01*
X139419072Y-83966186D01*
X139414443Y-83967843D01*
X139409674Y-83969037D01*
X139404811Y-83969759D01*
X139399900Y-83970000D01*
X138050100Y-83970000D01*
X138045189Y-83969759D01*
X138040326Y-83969037D01*
X138035557Y-83967843D01*
X138030928Y-83966186D01*
X138026483Y-83964084D01*
X138022266Y-83961557D01*
X138018317Y-83958628D01*
X138014674Y-83955326D01*
X138011372Y-83951683D01*
X138008443Y-83947734D01*
X138005916Y-83943517D01*
X138003814Y-83939072D01*
X138002157Y-83934443D01*
X138000963Y-83929674D01*
X138000241Y-83924811D01*
X138000000Y-83919900D01*
X138000000Y-83720100D01*
X138000241Y-83715189D01*
X138000963Y-83710326D01*
X138002157Y-83705557D01*
X138003814Y-83700928D01*
X138005916Y-83696483D01*
X138008443Y-83692266D01*
X138011372Y-83688317D01*
X138014674Y-83684674D01*
X138018317Y-83681372D01*
X138022266Y-83678443D01*
X138026483Y-83675916D01*
X138030928Y-83673814D01*
X138035557Y-83672157D01*
X138040326Y-83670963D01*
X138045189Y-83670241D01*
X138050100Y-83670000D01*
X139399900Y-83670000D01*
X139404811Y-83670241D01*
X139404811Y-83670241D01*
G37*
D13*
X138725000Y-83820000D03*
D12*
G36*
X139404811Y-84170241D02*
G01*
X139409674Y-84170963D01*
X139414443Y-84172157D01*
X139419072Y-84173814D01*
X139423517Y-84175916D01*
X139427734Y-84178443D01*
X139431683Y-84181372D01*
X139435326Y-84184674D01*
X139438628Y-84188317D01*
X139441557Y-84192266D01*
X139444084Y-84196483D01*
X139446186Y-84200928D01*
X139447843Y-84205557D01*
X139449037Y-84210326D01*
X139449759Y-84215189D01*
X139450000Y-84220100D01*
X139450000Y-84419900D01*
X139449759Y-84424811D01*
X139449037Y-84429674D01*
X139447843Y-84434443D01*
X139446186Y-84439072D01*
X139444084Y-84443517D01*
X139441557Y-84447734D01*
X139438628Y-84451683D01*
X139435326Y-84455326D01*
X139431683Y-84458628D01*
X139427734Y-84461557D01*
X139423517Y-84464084D01*
X139419072Y-84466186D01*
X139414443Y-84467843D01*
X139409674Y-84469037D01*
X139404811Y-84469759D01*
X139399900Y-84470000D01*
X138050100Y-84470000D01*
X138045189Y-84469759D01*
X138040326Y-84469037D01*
X138035557Y-84467843D01*
X138030928Y-84466186D01*
X138026483Y-84464084D01*
X138022266Y-84461557D01*
X138018317Y-84458628D01*
X138014674Y-84455326D01*
X138011372Y-84451683D01*
X138008443Y-84447734D01*
X138005916Y-84443517D01*
X138003814Y-84439072D01*
X138002157Y-84434443D01*
X138000963Y-84429674D01*
X138000241Y-84424811D01*
X138000000Y-84419900D01*
X138000000Y-84220100D01*
X138000241Y-84215189D01*
X138000963Y-84210326D01*
X138002157Y-84205557D01*
X138003814Y-84200928D01*
X138005916Y-84196483D01*
X138008443Y-84192266D01*
X138011372Y-84188317D01*
X138014674Y-84184674D01*
X138018317Y-84181372D01*
X138022266Y-84178443D01*
X138026483Y-84175916D01*
X138030928Y-84173814D01*
X138035557Y-84172157D01*
X138040326Y-84170963D01*
X138045189Y-84170241D01*
X138050100Y-84170000D01*
X139399900Y-84170000D01*
X139404811Y-84170241D01*
X139404811Y-84170241D01*
G37*
D13*
X138725000Y-84320000D03*
D12*
G36*
X139404811Y-84670241D02*
G01*
X139409674Y-84670963D01*
X139414443Y-84672157D01*
X139419072Y-84673814D01*
X139423517Y-84675916D01*
X139427734Y-84678443D01*
X139431683Y-84681372D01*
X139435326Y-84684674D01*
X139438628Y-84688317D01*
X139441557Y-84692266D01*
X139444084Y-84696483D01*
X139446186Y-84700928D01*
X139447843Y-84705557D01*
X139449037Y-84710326D01*
X139449759Y-84715189D01*
X139450000Y-84720100D01*
X139450000Y-84919900D01*
X139449759Y-84924811D01*
X139449037Y-84929674D01*
X139447843Y-84934443D01*
X139446186Y-84939072D01*
X139444084Y-84943517D01*
X139441557Y-84947734D01*
X139438628Y-84951683D01*
X139435326Y-84955326D01*
X139431683Y-84958628D01*
X139427734Y-84961557D01*
X139423517Y-84964084D01*
X139419072Y-84966186D01*
X139414443Y-84967843D01*
X139409674Y-84969037D01*
X139404811Y-84969759D01*
X139399900Y-84970000D01*
X138050100Y-84970000D01*
X138045189Y-84969759D01*
X138040326Y-84969037D01*
X138035557Y-84967843D01*
X138030928Y-84966186D01*
X138026483Y-84964084D01*
X138022266Y-84961557D01*
X138018317Y-84958628D01*
X138014674Y-84955326D01*
X138011372Y-84951683D01*
X138008443Y-84947734D01*
X138005916Y-84943517D01*
X138003814Y-84939072D01*
X138002157Y-84934443D01*
X138000963Y-84929674D01*
X138000241Y-84924811D01*
X138000000Y-84919900D01*
X138000000Y-84720100D01*
X138000241Y-84715189D01*
X138000963Y-84710326D01*
X138002157Y-84705557D01*
X138003814Y-84700928D01*
X138005916Y-84696483D01*
X138008443Y-84692266D01*
X138011372Y-84688317D01*
X138014674Y-84684674D01*
X138018317Y-84681372D01*
X138022266Y-84678443D01*
X138026483Y-84675916D01*
X138030928Y-84673814D01*
X138035557Y-84672157D01*
X138040326Y-84670963D01*
X138045189Y-84670241D01*
X138050100Y-84670000D01*
X139399900Y-84670000D01*
X139404811Y-84670241D01*
X139404811Y-84670241D01*
G37*
D13*
X138725000Y-84820000D03*
D12*
G36*
X139404811Y-85170241D02*
G01*
X139409674Y-85170963D01*
X139414443Y-85172157D01*
X139419072Y-85173814D01*
X139423517Y-85175916D01*
X139427734Y-85178443D01*
X139431683Y-85181372D01*
X139435326Y-85184674D01*
X139438628Y-85188317D01*
X139441557Y-85192266D01*
X139444084Y-85196483D01*
X139446186Y-85200928D01*
X139447843Y-85205557D01*
X139449037Y-85210326D01*
X139449759Y-85215189D01*
X139450000Y-85220100D01*
X139450000Y-85419900D01*
X139449759Y-85424811D01*
X139449037Y-85429674D01*
X139447843Y-85434443D01*
X139446186Y-85439072D01*
X139444084Y-85443517D01*
X139441557Y-85447734D01*
X139438628Y-85451683D01*
X139435326Y-85455326D01*
X139431683Y-85458628D01*
X139427734Y-85461557D01*
X139423517Y-85464084D01*
X139419072Y-85466186D01*
X139414443Y-85467843D01*
X139409674Y-85469037D01*
X139404811Y-85469759D01*
X139399900Y-85470000D01*
X138050100Y-85470000D01*
X138045189Y-85469759D01*
X138040326Y-85469037D01*
X138035557Y-85467843D01*
X138030928Y-85466186D01*
X138026483Y-85464084D01*
X138022266Y-85461557D01*
X138018317Y-85458628D01*
X138014674Y-85455326D01*
X138011372Y-85451683D01*
X138008443Y-85447734D01*
X138005916Y-85443517D01*
X138003814Y-85439072D01*
X138002157Y-85434443D01*
X138000963Y-85429674D01*
X138000241Y-85424811D01*
X138000000Y-85419900D01*
X138000000Y-85220100D01*
X138000241Y-85215189D01*
X138000963Y-85210326D01*
X138002157Y-85205557D01*
X138003814Y-85200928D01*
X138005916Y-85196483D01*
X138008443Y-85192266D01*
X138011372Y-85188317D01*
X138014674Y-85184674D01*
X138018317Y-85181372D01*
X138022266Y-85178443D01*
X138026483Y-85175916D01*
X138030928Y-85173814D01*
X138035557Y-85172157D01*
X138040326Y-85170963D01*
X138045189Y-85170241D01*
X138050100Y-85170000D01*
X139399900Y-85170000D01*
X139404811Y-85170241D01*
X139404811Y-85170241D01*
G37*
D13*
X138725000Y-85320000D03*
D12*
G36*
X139404811Y-85670241D02*
G01*
X139409674Y-85670963D01*
X139414443Y-85672157D01*
X139419072Y-85673814D01*
X139423517Y-85675916D01*
X139427734Y-85678443D01*
X139431683Y-85681372D01*
X139435326Y-85684674D01*
X139438628Y-85688317D01*
X139441557Y-85692266D01*
X139444084Y-85696483D01*
X139446186Y-85700928D01*
X139447843Y-85705557D01*
X139449037Y-85710326D01*
X139449759Y-85715189D01*
X139450000Y-85720100D01*
X139450000Y-85919900D01*
X139449759Y-85924811D01*
X139449037Y-85929674D01*
X139447843Y-85934443D01*
X139446186Y-85939072D01*
X139444084Y-85943517D01*
X139441557Y-85947734D01*
X139438628Y-85951683D01*
X139435326Y-85955326D01*
X139431683Y-85958628D01*
X139427734Y-85961557D01*
X139423517Y-85964084D01*
X139419072Y-85966186D01*
X139414443Y-85967843D01*
X139409674Y-85969037D01*
X139404811Y-85969759D01*
X139399900Y-85970000D01*
X138050100Y-85970000D01*
X138045189Y-85969759D01*
X138040326Y-85969037D01*
X138035557Y-85967843D01*
X138030928Y-85966186D01*
X138026483Y-85964084D01*
X138022266Y-85961557D01*
X138018317Y-85958628D01*
X138014674Y-85955326D01*
X138011372Y-85951683D01*
X138008443Y-85947734D01*
X138005916Y-85943517D01*
X138003814Y-85939072D01*
X138002157Y-85934443D01*
X138000963Y-85929674D01*
X138000241Y-85924811D01*
X138000000Y-85919900D01*
X138000000Y-85720100D01*
X138000241Y-85715189D01*
X138000963Y-85710326D01*
X138002157Y-85705557D01*
X138003814Y-85700928D01*
X138005916Y-85696483D01*
X138008443Y-85692266D01*
X138011372Y-85688317D01*
X138014674Y-85684674D01*
X138018317Y-85681372D01*
X138022266Y-85678443D01*
X138026483Y-85675916D01*
X138030928Y-85673814D01*
X138035557Y-85672157D01*
X138040326Y-85670963D01*
X138045189Y-85670241D01*
X138050100Y-85670000D01*
X139399900Y-85670000D01*
X139404811Y-85670241D01*
X139404811Y-85670241D01*
G37*
D13*
X138725000Y-85820000D03*
D14*
X130515000Y-80010000D02*
X127635000Y-80010000D01*
X134325000Y-83820000D02*
X130515000Y-80010000D01*
X131318000Y-82550000D02*
X127635000Y-82550000D01*
X133096000Y-84328000D02*
X131318000Y-82550000D01*
X133858000Y-84328000D02*
X133096000Y-84328000D01*
X134325000Y-84320000D02*
X133866000Y-84320000D01*
X133866000Y-84320000D02*
X133858000Y-84328000D01*
X127905000Y-84820000D02*
X127635000Y-85090000D01*
X134325000Y-84820000D02*
X127905000Y-84820000D01*
X134325000Y-85320000D02*
X133120000Y-85320000D01*
X130810000Y-87630000D02*
X127635000Y-87630000D01*
X133120000Y-85320000D02*
X130810000Y-87630000D01*
X129975000Y-90170000D02*
X127635000Y-90170000D01*
X134325000Y-85820000D02*
X129975000Y-90170000D01*
X142875000Y-80010000D02*
X145415000Y-80010000D01*
X138725000Y-83820000D02*
X139065000Y-83820000D01*
X139065000Y-83820000D02*
X142875000Y-80010000D01*
X141605000Y-82550000D02*
X145415000Y-82550000D01*
X138725000Y-84320000D02*
X139835000Y-84320000D01*
X139835000Y-84320000D02*
X141605000Y-82550000D01*
X145145000Y-84820000D02*
X145415000Y-85090000D01*
X138725000Y-84820000D02*
X145145000Y-84820000D01*
X142240000Y-87630000D02*
X145415000Y-87630000D01*
X138725000Y-85320000D02*
X139930000Y-85320000D01*
X139930000Y-85320000D02*
X142240000Y-87630000D01*
X142875000Y-90170000D02*
X145415000Y-90170000D01*
X138725000Y-85820000D02*
X138725000Y-86020000D01*
X138725000Y-86020000D02*
X142875000Y-90170000D01*
M02*
